M48
;Layer_Color=9474304
;FILE_FORMAT=4:4
METRIC,LZ
;TYPE=PLATED
T1F00S00C0.3000
;TYPE=NON_PLATED
T3F00S00C3.2000
%
T01
X027675Y-002455
X0138481Y-00248412
X01377236
X00167139Y-00033396
X00153561Y-0001756
X00148169Y-00011587
X00172816Y-00005552
X0016142Y000124
X0014642Y000424
X0017642
X0016142Y000724
Y001324
X000537Y0012541
X0001142Y001324
X-0001858
X-0004858
X-00035542Y001074
X-00030333Y0008075
X-0004858Y000724
X-000243Y000537
X-00035542Y00023685
Y00000458
X-0004858Y000124
X-0001858
X0001142
X0004142
X0007142
X0005642Y000424
X00026419
X0004142Y000724
X0007142
X0010142
X-0006358Y001024
Y000424
X-001198Y-001792
X-001298
X00294Y-00211744
X00311784Y-00218784
X0028142Y000124
X00296419Y000424
X0028142Y000724
X0022142
X00245Y-00007909
X00253056Y-00006842
X0037142Y000124
X00401419
X0038642Y000424
X0035642
X0037142Y000724
X00401419
X00431419
X00461419
X00491419
X0047642Y000424
X00506419
X00491419Y000124
X00461419
X0058142
X00566419Y000424
X0058142Y000724
X0061142
X0064142
X0067142
X00701419
X0068642Y000424
X0071642
X00701419Y000124
X0067142
X0061142
X00596419Y000424
X00761419Y000724
X00791419
X0082142
X0085142
X0091142
X00941419
X00971419
X00926419Y000424
X00896419
X0091142Y000124
X00941419
X0082142
X00791419
X00806419Y000424
X0091142Y001324
X01001419Y000724
X01031419
X0101642Y000424
X0104642
X01031419Y000124
X01001419
X0112142
X0115142
X01136419Y000424
X01106419
X0112142Y000724
X0115142
X0118142
X01211419
X01241419
X0125642Y000424
X01226419
X01211419Y000124
X01241419
X0125642Y-00017601
X0128642
X01316419
X01346419
X01331419Y-000476
X01301419
X01271419
X01241419
X01211419
X01226419Y-00017601
Y-000776
X0123Y-00087
X01254274Y-00087538
X0125642Y-000776
X0128642
X01278629Y-00087129
X01301551Y-00086515
X01316419Y-000776
X01357882Y-0009504
X01376Y-00179
X0138475Y-0019575
Y-0020675
X0136286Y-00211886
X01349821Y-00214822
X01349877Y-00199072
X01349989Y-00190889
X01334469Y-00203394
X013275Y-0018
X013165
X0129575Y-0021225
X01331419Y000124
X01316419Y000424
X01346419
X01361419Y000724
X01331419
X013126Y001074
X0137319
X01422Y00108
X014806Y001074
X015276
X01541419Y000724
X01571419
X01601419
X01586419Y000424
X0155642
X01571419Y000124
X01541419
X0155642Y-00017601
X01586419
X01616419
X01646419
X01676419
X01691419Y000124
X01661419
X01646419Y000424
X01676419
X01691419Y000724
X01661419
X01721419
X01751419
X01781419
X01766419Y000424
X01751419Y000124
X01781419
X01766419Y-00017601
X01496419
X01476418Y-00012571
X01476Y-00003
X01451419Y000124
X0145Y00024
X01436419Y000424
X01432Y00055
X01468
X01466419Y000424
X01511419Y000724
X01587Y00107
X01391419Y000724
X0142281Y0000681
X01436419Y-00017601
X01404Y-00025
X01436419Y-000776
X01412Y-00104
X01406438Y-00111077
X01395972Y-00113193
X0142Y-00114
X01796419Y-00017601
X01826419
X01856419
X01886419
X01901419Y000124
X01871419
X01856419Y000424
X01886419
X01901419Y000724
X01931419
X01961419
X01991419
X01976419Y000424
X02006419
X01991419Y000124
X01961419
X01976419Y-00017601
X02006419
X02036419
X02066419
X02096419
X02081419Y000124
X02111419
X02096419Y000424
X02066419
X02081419Y000724
X02111419
X02141419
X02156419Y-00017601
X01871419Y000724
X01796419Y000424
X02186419
X02216419
X02201419Y000724
X02261419
X02291419
X02321419
X02336419Y000424
X02306419
X02321419Y000124
X02291419
X02306419Y-00017601
X02336419
X02366419
X02396419
X02426419
X02411419Y000124
X02441419
X02426419Y000424
X02396419
X02411419Y000724
X02441419
X02471419
X02501419
X02531419
X02516419Y000424
X02546419
X02531419Y000124
X02501419
X02516419Y-00017601
X02546419
X02576419
X02246419
X02216419
X02186419
X02201419Y000124
Y001324
X02621419Y000724
X02651419
X02681419
X02711419
X02741419
X0276562Y0008941
X02801419Y000724
X02831419
X02861418
X02891418
X0292406Y000537
X02936419Y000424
X02929Y00024
X02921419Y000124
X0293Y0
X02936419Y-00017601
X02966419
X02951419Y000124
X02966419Y000424
X02951419Y000724
X02966419Y001024
X02936419
X029296Y001074
X02951419Y001324
X02891418
X028743Y0012541
X02846419Y000424
X02861418Y000124
X02891418
X02876419Y-00017601
X02906419
X02846419
X02831419Y000124
X02786419Y-00017601
X02756419
X02726419
X02711419Y000124
X02741419
X02756419Y000424
X02726419
X02636419
X02606419
X02621419Y000124
X02651419
X02636419Y-00017601
X02606419
X02741419Y001324
X02758813Y-00237538
X03018224Y-00204332
X03027083Y-00204453
X02996418Y-00017601
X02981419Y000124
X03011419
X02996418Y000424
X02981419Y000724
X03011419
X02996418Y001024
X02981419Y001324
X03011419
X02996418Y001624
X02981419Y001924
X03011419
Y00252399
X02986852Y00254462
Y00230468
Y00279886
Y00302927
X02981419Y003724
X02993114Y00375114
X02998467Y00368862
X03005Y00362
Y00380097
X02986852Y00430468
Y00454462
Y00479886
Y00502927
X0308Y005165
Y005275
X03103394Y00534469
X03099072Y00549877
X03114823Y00549821
X0310675Y0038475
X0309575
X03075Y00374
X03090889Y00349989
X03099072Y00349877
X03114823Y00349821
X03111885Y0036286
X03103394Y00334469
X0308Y003275
Y003165
X03127Y00388
X03153978Y0038381
X03153931Y00376236
X029609Y003759
X02955Y00345
X02943Y00349
X02916Y00354
X02906419Y003424
X02876419
X02861418Y003124
X02831419
X02825Y00287
X0281954Y0026852
X02831419Y00252399
X02861418
X02891418
X02874998Y00281227
X02846419Y00282399
Y002224
X02861418Y001924
X02891418
X02831419
X02801419
X0276562Y0019682
X02741419Y00252399
X0276562Y0030423
X02711419Y003124
X0276562Y0041164
X02786419Y004024
X02846419
X02888Y00403
X02906419Y004024
Y00462399
X02902Y00483
X02876419Y00462399
X02846419
X0281954Y0048334
X02846419Y00522399
X0276562Y0051905
X02741419Y00492399
X02937Y00506
X029485Y00519857
X02967Y0052504
X02944Y00547545
X02937896Y0054254
X0294254Y00456
X029666Y004296
X02949Y00323
X02951419Y003124
X02944Y00296
X02966419Y00282399
X02951419Y00252399
X02944Y0024
X02937Y00214
X029309Y001611
X02966419Y001624
X02336419Y002224
X02321419Y003124
X02291419
X02306419Y00522399
X02336419
X02066419
Y002224
X0158732Y002148
X0155642Y002224
X015276Y002148
X014806
X0142019
X01432Y00162
X01468
X014806Y003222
X015276
X0155642Y003424
X0158732Y003222
Y004296
X015276
X014806
X0142019
X01432Y00375
X01468
X0142019Y003222
X0142142Y003124
X0141947Y00537
X014806
X015276
X0158732
X01587Y00506
X0155642Y00462399
X0137319Y004296
X0131275Y0042985
Y0032245
X0137319Y003222
Y002148
X0131275Y0021505
Y0053725
X0137247Y00537
X0118142Y00492399
X01031419
X01001419
X00941419Y003124
X0067142
X0061142
Y00492399
X00596419Y00522399
X00566419
X0058142Y00492399
X00431419
X00401419
X0058142Y003124
X00296419Y002224
X002447Y002685
X0017642Y00282399
X0014642
X0016142Y00252399
X0007142
X0004142
X0001142
X-0001858
X-00030333Y00259781
Y00268289
X-00041928Y00279769
X-00042238Y00302005
X-00054Y00304
X-00060174Y00309831
X-0006645Y0032245
X-00081516Y00317073
Y00340114
X-00081823Y00365538
X-000721Y003759
X-00081927Y00389907
X-00042Y00403999
X-0004215Y0042985
X-00048Y0047
X-0004215Y0048985
X-00042Y00505
X-00054417Y00510967
X-00055Y00536
X-00048Y00533
X-00081516Y00540114
Y00517074
X-0006574Y0048485
X-0001858Y00492399
X0001142
X0003008Y00483
X-0000358Y00462399
X000537Y0044764
X0002454Y00376
X00026419Y003424
X000537Y0034023
X0004142Y003124
X0007142
X00026419Y00282399
X-0000358
Y003424
X00026419Y002224
X000537Y0023282
X00054Y00182
X-0004184Y0018816
X-0004858Y001924
X-0004795Y0021505
X-0006358Y002224
X-00094Y00242
X-0009902Y00248
X-00106172Y00256123
X-00106Y00235
X-00179537Y00242158
X-0019575Y0023525
X-00199073Y00270123
X-00190889Y00270011
X-0018Y002925
Y003035
X-00179754Y0044246
X-0019575Y0043525
X-00199073Y00470123
X-00190889Y00470011
X-0018Y004925
Y005035
X-00108Y00456
X-0009902Y00448
X-00094Y00442
X-00106Y00435
X-0006358Y001624
X-000361Y001611
X0016142Y00492399
X-00203395Y00485531
X-00214823Y00470179
X-00211886Y0045714
X-0020675Y0043525
X-00253978Y0043519
X-00253931Y00442764
Y00242764
X-00253978Y0023519
X-00226552Y00231552
X-0020675Y0023525
X-00211886Y0025714
X-00214823Y00270179
X-00203395Y00285531
X-0020717Y0063525
X-00212306Y0065714
X-00215243Y00670179
X-00203814Y00685531
X-00254351Y00643764
X-00254398Y0063619
X-00253978Y0083619
X-00253931Y00843764
X-00227Y00832
X-0020675Y0083525
X-00211886Y00857139
X-00214823Y00870179
X-00203395Y00885531
X-00199073Y00870123
X-00190889Y00870011
X-0018Y008925
Y009035
X-00178Y00842
X-0019575Y0083525
X-00106Y00835639
X-00094Y00842001
X-0009902Y00848
X-0010638Y00854867
X-00055Y0086
X-00042323Y00884691
X-00030667Y00878
X-00024442Y00890357
X-00024Y00906
X-00031Y00913
X0001142Y009124
X00031Y00913
X00054Y00937965
X000537Y0087728
X0004142Y00852399
X0007142
X0002454Y00806
X-00036
X-0003662Y0083262
X-0006358Y00822399
X-00081516Y00789532
Y00765538
Y00740114
Y00723216
X-00060631Y00725091
X-00048129Y00718355
X-00036Y00712
X-00024794Y00699
X-00024484Y00677485
X-0001858Y006724
X-00036158Y00684672
X-00071485Y00690992
X-00066Y00701
X-00055Y00752
X-00048Y00645
X-00093414Y0064209
X-0009944Y00648
X-00106Y00654
X-00105921Y00636215
X-00081516Y00589533
X-0006574Y00591383
X-00081516Y00565538
X0004142Y00552399
X0007142
X0016142
X0014642Y00582399
X0017642
X0016142Y006724
X00131419Y007324
X0010142
X0007142
X0004142
X000537Y0076987
Y0066246
X0001142Y006724
X-00191309Y00670011
X-00199492Y00670123
X-0019617Y0063525
X-00180758Y00642129
X-0018042Y006925
Y007035
X-00081516Y00917073
Y00940114
X-0006358Y009424
X-00043005Y00945258
X-0000358Y00882399
X00296419Y00762399
X002447Y006981
X0026642Y00582399
X00259442Y00563764
X00253826Y00558067
X0028142Y00552399
X00296419Y00582399
X0035642
X0038642
X00401419Y00552399
X0037142
X00461419
X00491419
X0047642Y00582399
X00506419
X0058142Y00852399
X0061142
X0067142
Y006124
X00701419
X00731419
X00761419
X00791419
X0082142
X0085142
X0088142
X0091142
X00941419
X00971419
X00926419Y00582399
X00896419
X0091142Y00552399
X00941419
X0082142
X00791419
X00701419
X0067142
X0068642Y00582399
X0071642
X0064142Y006124
X00941419Y00852399
X01001419Y006124
X01031419
X01061419
X01091419
X0112142
X0115142
X0118142
X01211419
X01241419
X01271419
X01301419
X0131334Y00619227
X01331419Y006124
X01361419
X0137319Y006444
X01346419Y006424
X0131275Y0064465
X01346419Y00582399
X01361419Y00552399
X01331419
X01241419
X01211419
X01226419Y00582399
X0125642
X01136419
X01106419
X0112142Y00552399
X0115142
X01031419
X01001419
X0101642Y00582399
X0104642
X0131275Y0075205
X0137319Y007518
Y008592
X0131275Y0085945
X0142019Y008592
X01432Y0083002
Y00806
X0142142Y00792399
X0142019Y007518
X014806
X015276
X0155642Y00762399
X01586419
X0158732Y007518
X0155642Y00822399
Y00882399
X015276Y008592
X014806
X01468Y00806
X0158732Y008592
Y006444
X0155642Y006424
X015276Y006444
X014806
X01496Y00615
X0155642Y00582399
X01571419Y00552399
X01541419
X01661419
X01691419
X01676419Y00582399
X01646419
X01766419
X01751419Y00552399
X01781419
X01766419Y00822399
X0142019Y006444
X01403Y00616
X01391419Y006124
X01796419Y00582399
X01856419
X01886419
X01901419Y00552399
X01871419
X01961419
X01991419
X01976419Y00582399
X02006419
X02066419
X02081419Y00552399
X02111419
X02066419Y00762399
X02336419
X02321419Y00852399
X02291419
X02216419Y00582399
X02186419
X02201419Y00552399
X02411419
X02441419
X02426419Y00582399
X02396419
X02516419
X02546419
X02531419Y00552399
X02501419
X02621419
X02651419
X02636419Y00582399
X02606419
X02726419
X02756419
X02741419Y00552399
X02711419
X02831419
X02861418
X02846419Y00582399
X029494Y00591
X02937896Y00644896
X02954906Y00671139
X02924Y007
X02931Y00708
X02925654Y00740655
X0293104Y00746
X02943728Y00752667
X02949275Y00732849
X029615Y00724981
X02966419Y00762399
X02951419Y00792399
X029255Y00805
X02916Y00779
X0288146Y0083
X02861418Y00852399
X02846419Y00882399
X0281954Y0091298
X02846419Y009424
X02877Y00942461
X02908Y0093646
X02919Y00924
X02925Y00912
X02943348Y0091163
X029425Y00930041
X02944Y00878
X029372Y008592
X02951419Y00852399
X02966419Y00882399
Y00822399
X02846419
X0276608Y0084128
X02711419Y00852399
X02636419Y00822399
X0276562Y0073387
X02801419Y007324
X02833Y00717
X02846419Y007024
X02876419
X02861418Y007324
X0281954Y0069816
X02741419Y006724
X02786419Y009424
X02894456Y00912457
X02986852Y00902926
Y00879886
Y00854462
Y00830467
X02981419Y00792399
X0299348Y00778
X0299902Y00772
X03006172Y00763877
X03006Y00785
X03079537Y00777842
X0309575Y0078475
X0310675
X03111885Y00762861
X03114823Y00749821
X03099072Y00749877
X03090889Y00749989
X03103394Y00734469
X0308Y007275
Y007165
X02986852Y00702927
Y00679886
Y00654462
Y00630468
X02981419Y006124
X0299348Y00577999
X0299902Y00572
X03006172Y00563877
X03006Y00585
X02981419Y00552399
X03090889Y00549989
X03111885Y00562861
X0310675Y0058475
X0309575
X03079537Y00577842
X03153931Y00576236
X03153978Y0058381
X03153931Y00776236
X03153978Y0078381
X03103394Y00934469
X0308Y009275
Y009165
X03090889Y00949989
X03099072Y00949877
X03114823Y00949821
X03111885Y0096286
X0310675Y0098475
X0309575
X03079537Y00977842
X03128183Y00985903
X03153978Y0098381
X03153931Y00976236
X03006Y00985
X0299348Y00978
X0299902Y00972
X03006172Y00963877
X02981419Y009724
X02986852Y01030468
Y01054462
Y01079886
X02981419Y01092399
X02986852Y01102927
X02981419Y01152399
X03006172Y01163877
X0299902Y01172
X0299348Y01178
X03006Y01185
X02981419Y012124
X02986852Y01230468
Y01254462
Y01279886
Y01302927
X0308Y013165
Y013275
X03103394Y01334469
X0310675Y0118475
X0309575
X03079537Y01177842
X03090889Y01149989
X03099072Y01149877
X03114823Y01149821
X03111885Y0116286
X03103394Y01134469
X0308Y011275
Y011165
X03153931Y01176236
X03153978Y0118381
X02966419Y01182399
X02936822Y01179974
X029425Y012075
X02951419Y012124
X02958Y01235
X02966419Y012424
X02936419
X02951419Y01272399
X02923361Y012888
X02936419Y01302399
X02966419
X02908Y01316
X02902Y01331
X02894456Y01336768
X0281954Y0134262
X02801419Y01272399
X0276608Y0127092
X02711419Y01272399
X02681419
X02741419Y01332399
X0276608Y0116351
X0281954Y011278
X02846419Y01122399
X02840972Y01146932
X02846419Y01062399
X02861418Y01032399
X02846419Y010024
X02819Y01002
X0276608Y0094869
X02711419Y009724
Y01032399
X02741419
X0276608Y010561
X02741419Y01092399
X02651419Y01032399
X02621419
X0293166Y0102
X02925488Y00993562
X02966419Y010024
X0294804Y00966
X02925Y01074
X02919Y01101
X02925Y01124
X02923Y01135
X02929Y01143
X0293696Y0112896
Y01114
X0294804Y01119
X028699Y012351
X02471419Y01272399
Y01332399
X02441419
X02321419
X02291419
Y01272399
X02261419
X02321419
X02336419Y01302399
Y01062399
X02306419
X02321419Y01032399
X02291419
X02201419
X02411419
X02441419
X02501419
X02531419
X02111419
X02081419
X02066419Y01062399
X01991419Y01032399
X01961419
X01901419
X01871419
X01931419Y01272399
Y01332399
X01961419
X01901419
X01871419
X02066419Y01302399
X02141419Y01272399
X01721419
Y01332399
X01691419
X0158732Y012888
X0155642Y01302399
X015276Y012888
X01511419Y01272399
X014806Y012888
X0142019
X0142142Y01272399
X01391419
X01436419Y012424
X0143Y01235
X0142142Y012124
X0142019Y011814
X014806
X01481419Y012124
X01471Y01236
X015276Y011814
X0155642Y01182399
X0158732Y011814
Y01074
X01587Y01042
X01571419Y01032399
X01541419
X015276Y01074
X014806
X01466419Y01062399
X01436419
X0142019Y01074
X0142142Y01032399
X01432Y0102
X01468
X014806Y009666
X015276
X0158732
X01661419Y01032399
X01691419
X01751419
X01781419
X0142019Y009666
X0137319
X0131275Y0096675
X01331419Y01032399
X01361419
X0137319Y01074
X0131275Y0107425
Y0118165
X01346419Y01182399
X0137319Y011814
Y012888
X0131275Y0128905
X0118142Y01272399
Y01332399
X01031419
X01001419
Y01032399
X01031419
X0112142
X0115142
X01211419
X01241419
X00941419
X0091142
X0082142
X00791419
X00701419
X0067142
X0061142
X00596419Y01062399
X0061142Y01272399
X0064142
X0067142
X0061142Y01332399
X0085142Y01272399
X00941419
X00971419
X0058142
Y01332399
X00431419
X00401419
X00431419Y01272399
X00296419Y01302399
X0022142Y01272399
X002447Y011277
X0025142Y01032399
X0028142
X0037142
X00401419
X00461419
X00491419
X0058142
X00566419Y01062399
X0016142Y01092399
Y01032399
X0007142
X0004142
X000537Y0098469
Y010921
X00031Y01143
X-00024Y01128
X-0004208Y01116
X-00049003Y01119037
X-000485Y0109104
X-0004296Y01081
X-0003654Y01075
X-00037Y01066
X-0004851Y0104744
Y01019272
X-00081516Y00989532
Y00965538
X-0006Y00967
X-00094Y01042
X-0009902Y01048
X-00106471Y01054471
X-00106Y01036
X-00179361Y01041796
X-0019575Y0103525
X-00199073Y01070123
X-00190889Y01070011
X-0018Y010925
Y011035
X-00081516Y01117073
Y01140114
Y01165538
Y01189532
X-00065434Y0123518
X-00094Y01242
X-0009902Y01248
X-00106Y01254
Y01236
X-00179646Y01242299
X-0019575Y0123525
X-00199073Y01270123
X-00190889Y01270011
X-0018Y012925
Y013035
X-00081516Y01317074
Y01340114
X-0001858Y01332399
X-00025Y01312
X-00024527Y0127296
X-00037Y01271
X-0004208Y01264034
X-00054267Y01266121
X-00060065Y01280619
X0004142Y01272399
X0007142
X0010142
X000537Y0130692
X0003035Y013425
X0001142Y01332399
X0002454Y01236
X0001142Y012124
X-0001858
X-0002535Y0118165
X000537Y0119951
X0016142Y01332399
X-00203395Y01285531
X-00214823Y01270179
X-00211886Y0125714
X-0020675Y0123525
X-00253978Y0123619
X-00253931Y01243764
Y01043764
X-00253978Y0103619
X-00225534Y01032467
X-0020675Y0103525
X-00211886Y0105714
X-00214823Y01070179
X-00203395Y01085531
X-0020675Y0151525
X-00211886Y0153714
X-00214823Y01550179
X-00203395Y01565531
X-00253931Y01522764
X-00253978Y0151519
Y0171619
X-00253931Y01723764
X-00226223Y01710777
X-0020675Y0171525
X-00211886Y0173714
X-0019575Y0171525
X-00178466Y01721629
X-00106Y01734
X-0009902Y01728
X-00094Y01722
X-0010508Y01700425
X-00081516Y01669532
Y01645432
Y01620714
Y01597533
X-000435Y015855
X-0003775Y0161125
X-0001858Y01632399
X-0002455Y0157155
X-00031Y01566
X-00037843Y01552762
X-0003358Y01542399
X-0005Y01559
X-0004858Y01512399
X-0003358Y01482399
X-0Y0148
X00024Y01472
X-0000358Y01422399
X-00025Y01396
X-0004858Y01392399
X-00049003Y01369003
X-00031Y01364
X-00081516Y01365538
Y01389533
X-00058627Y01450074
X-00094Y01522
X-0009902Y01528
X-00107Y01534
X-0010508Y01516
X-00179848Y0152227
X-0019575Y0151525
X-00199073Y01550123
X-00190889Y01550011
X-0018Y015725
Y015835
X00010756Y01587935
X00017191Y01579911
X0001142Y01572399
X0003008Y01557
X000537Y0152174
Y0141433
X0008642Y01362399
X0011642
X0014642
X0017642
X0016142Y01572399
X000537Y0162915
X0002454Y01665
X00005905Y01696621
X-00050129Y0171865
X-00055885Y01664
X000537Y0173656
X0020642Y01362399
X00326419
X0041642
X0044642
X00536419
X00566419
X0058142Y01572399
X00566419Y01602399
X00431419Y01572399
X0061142
X00596419Y01602399
Y01362399
X00626419
X0065642
X0074642
X00866419
X0095642
X0098642
X00941419Y01512399
X01001419Y01572399
X01031419
X0118142
X01135672Y01470372
X01166419Y01362399
X01196419
X0128642
X0131275Y0139645
X01313Y01431
X01337561Y01443375
X01368638Y01431034
X01369Y01414
X01366803Y01395142
X01373Y01375
X01386965Y01418006
X01369Y01465968
X01370145Y01508992
X01367512Y01520916
X01372Y01527
X01342393Y01531255
X01312378Y01522419
X0131275Y0161125
X0137319Y01611
Y017184
X0131275Y0171865
X01313Y01689
X01076419Y01362399
X0104642
X0101642
X01421018Y01366512
X01450157Y01372286
X0145Y01352
X01478Y01366
X01479758Y01414528
X01484932Y01436537
X01485Y01473
X01472991Y01483846
X01465246Y0148433
X01459Y0148
X01445305Y01474163
X01437677Y01474249
X0143Y01474
X01422452Y01472003
X01414339Y01470915
X01389Y01464
X01414553Y0142734
X01513Y01419
X01514Y01409
X01542Y01398
X01527611Y01374826
X01527011Y01435924
X0155642Y01422399
X0156458Y01465258
X0151085Y01463
X01517954Y01482896
X01517765Y01491384
X01493703Y01491025
X01479Y01534
X01449658Y01550796
X01423Y01526
X0142019Y01611
X01436419Y01602399
X014806Y01611
X015276
X0158732
X01587Y01689
X0158732Y017184
X0155642Y01722399
X015276Y017184
X014806
X0142019
X0143Y01664
X0147Y01665
X01527Y01526
X01531194Y0151971
X01557278Y01525613
X0158732Y015036
Y013962
X01616419Y01362399
X01706419
X01736419
X01721419Y01572399
X01871419
X01901419
X01931419
X02066419Y01602399
X02096419Y01422399
X02036419Y01362399
X01946419
X01916419
X01886419
X01856419
X01826419
X02156419
X02246419
X02276419
X02306419
X02336419
X02366419
X02456419
X02486419
X02576419
X02471419Y01572399
X02321419
X02291419
X02306419Y01602399
X02336419
X02306419Y01422399
X02666419Y01362399
X02696419
X02726419
X02756419
X0276633Y0137833
X02786419Y01362399
X02816419
X02871Y01354
X02893Y01361
X02922Y0134804
X02928972Y013962
X02951419Y01392399
X02966419Y01422399
X02936419
X02906419
X02877Y01422
X02906419Y01482399
X02936419
X02942Y01503
X02966419Y01482399
X02952Y01449
X02966419Y01542399
X02922Y015573
X02906419Y01542399
X0289854Y0153
X02883Y01577
X0287654Y01582
X02865Y01589
X02874979Y01638005
X02903Y01632112
X0293Y01625
X02936Y01611
X02923Y01665085
X02929452Y01676609
X029286Y017184
X02966419Y01722399
Y01662399
X02882Y01689
X0276644Y0170056
X0276585Y0159315
X02741419Y01572399
X0281954Y0155744
X02816419Y01482399
X02786419
X0276674Y0148574
X02986852Y01510467
Y01534461
Y01559886
X02981419Y01572399
X02986852Y01582926
X03006172Y01643877
X0299902Y01651999
X0299348Y01657999
X03006Y01665
X02986852Y01710467
Y01734462
X03079537Y01657842
X0309575Y0166475
X0310675
X03128Y01667
X03153978Y0166381
X03153931Y01656236
X03111885Y0164286
X03114823Y01629821
X03099072Y01629877
X03090889Y01629989
X03103394Y01614468
X0308Y016075
Y01596499
X03079537Y01377843
X0309575Y0138475
X0310675
X03127Y01386
X03153978Y0138381
X03153931Y01376236
X03111886Y01362861
X03114823Y01349821
X03099072Y01349877
X03090889Y01349989
X03006172Y01363878
X0299902Y01372
X0299348Y01378
X03006Y01385
X02981419Y01392399
Y01452399
Y01752399
X02986852Y01759886
Y01782926
X03006172Y01843877
X0299902Y01852
X0299348Y01858
X03006Y01865
X02981419Y01872399
X02986852Y01910468
Y01934462
Y01959886
Y01982927
X02981419Y02052399
X0299348Y02058
X0299902Y02052
X03006172Y02043877
X03006Y02065
X02986852Y02110467
Y02134462
X03079537Y02057842
X0309575Y0206475
X0310675
X03127Y02065
X03153978Y0206381
X03153931Y02056236
X03111886Y02042861
X03114823Y02029821
X03099072Y02029877
X03090889Y02029989
X03103394Y02014469
X0308Y020075
Y019965
X0311225Y0197575
X0310675Y0186475
X0309575
X03079537Y01857842
X03090889Y01829989
X03099072Y01829877
X03114823Y01829821
X03111885Y0184286
X03103394Y01814469
X0308Y018075
Y01796499
X03153931Y01856236
X03153978Y01863809
X02966419Y01842399
X02928634Y01827493
X02934966Y01816332
X02936Y01798
X02929Y01801
X02946773Y01791858
X02942Y01783
X02966419Y01782399
X0291092Y01745
X02916Y01853
X02940802Y0188
X029352Y019332
X0291046Y01967
X02904Y01961
X02897Y01955
X02916Y01982
X02906419Y02022399
X029286Y020406
X0292946Y0209446
X02966419Y02082399
X02875Y02095
X02869799Y01987
X0281954Y0198708
X02786419Y02022399
X0276562Y0202279
X02711419Y02052399
X0276562Y021302
Y0191538
X02767Y01901
X02786419Y01902399
Y01842399
X02766089Y0180797
X02756419Y01782399
X02726419
X02711419Y01752399
X02741419
X02801419
X0281954Y0177226
X02711419Y01812399
X02681419Y01752399
X02591419
X02606419Y01782399
X02966419Y01962399
X02576419Y01842399
Y01782399
X02546419
X02516419
X02561419Y01752399
X02471419
X02366419Y01842399
X02336419
X02321419Y01812399
X02291419
X02246419Y01842399
X02441419Y01992399
X02471419
X02156419Y01842399
X02066419
X02036419
X01826419
X01931419Y01992399
X01961419
X01721419
X01691419
X0158732Y020406
X015276
X014806
X0142019
X0142142Y02052399
X01436419Y02082399
X0143Y02094
Y02118533
X0147
Y02095
X014806Y019332
X015276
X01541419Y01932399
X01571419
X0158732Y019332
X0155642Y01962399
Y01842399
X015276Y018258
X014806
X01496419Y01842399
X014705Y018795
X0143Y01879
X0142142Y01872399
X014198Y018258
X0142142Y01812399
X01436419Y01782399
X0142142Y01752399
X01391419
X01481419
X01511419
X0158732Y018258
X01616419Y01842399
X0142019Y019332
X0137319
X01361419Y01932399
X01331419
X0131275Y0193345
Y0204085
X0137319Y020406
X013722Y018258
X0131275Y0182605
X0128642Y01842399
X01076419
X0118142Y01992399
X00941419Y02052399
Y01812399
X00866419Y01842399
X0074642
X0067142Y01812399
X0061142
X0058142
X00536419Y01842399
X00326419
X00296419
X0020642
X0022142Y01752399
X002447Y017721
X00401419Y01992399
X00431419
X0011642Y02022399
X000537Y0205879
X0002454Y02094
X00017293Y02127191
X-00024364Y02121457
X-000247Y020943
X-0004858Y02112399
X-00094Y02122
X-0009902Y02128
X-0010508Y02134
Y02115
X-00081653Y02069533
Y02045538
Y02020114
Y01997074
X-00063Y01991
X-00056819Y01969327
X-00061989Y01961284
X-00068506Y01952859
X-0010508Y01934
X-0009954Y01928
X-0009342Y01922
X-00106188Y0191625
X-00081516Y01869533
Y01845538
Y01820114
Y01797074
X-00050129Y01805
X-00037388Y01778949
X0000525Y01770615
X00011941Y01761323
X00000094Y01755783
X-00001673Y01805159
X-0003105Y0182605
X-000315Y018795
X-00001673Y01906336
X-0002455Y0193345
X-00031Y01972
X-00026Y01981
X-0001858Y01992399
X-000315Y020085
X-00051118Y0201413
X-0004385Y0204085
X-0004858Y02052399
X-0000358Y02022399
X0001142Y01992399
X0003008Y01987
X-0000358Y01962399
X000537Y0195138
X00054Y01861
X000537Y0184397
X0004142Y01872399
X0007142
Y01812399
X0004142
X0011642Y01842399
X0014642Y01782399
X0017642
X00191419Y01752399
X0016142
X00131419
X0010142
X-00190889Y01750011
X-00199073Y01750123
X-0018Y017725
Y017835
X-00178369Y019223
X-0019517Y0191525
X-00198492Y01950123
X-00190309Y01950011
X-0017942Y019725
Y019835
X-00178376Y0212214
X-0019575Y0211525
X-0020675
X-00227Y02114
X-00253978Y0211619
X-00253931Y02123764
X-00211886Y02137139
X-00202815Y01965531
X-00214242Y01950179
X-00211306Y0193714
X-0020617Y0191525
X-00253398Y0191619
X-00253351Y01923764
X-00203395Y01765531
X-00214823Y01750179
Y02150179
X-00203395Y02165531
X-0020675Y0231525
X-00211886Y02337139
X-00214823Y02350179
X-00203395Y02365531
X-00253931Y02323764
X-00253978Y0231619
Y0251619
X-00253931Y02523764
X-0020675Y0251525
X-0019575
X-00179545Y02522161
X-00106407Y02534074
X-0009902Y02528
X-00094Y02522
X-00106146Y02507926
X-0006358Y02502399
X-00063Y02471
X-00081653Y02469625
Y02445631
Y02420207
Y02397166
X-00063857Y02374798
X-00044Y02383
X-00038Y02396
X-0001858Y02412399
X0001142
X0003008Y02416
X000537Y0238102
X0004142Y02352399
X0007142
Y02292399
X0010142
X0016142
X0014642Y02322399
X0017642
X0016142Y02352399
X0014642Y02262399
X0017642
X0016142Y02172399
X000537Y021662
X0001142Y02172399
X-0001858
X-000315Y021705
X-00038Y02161
X-00043624Y02148909
X-00055802Y02184824
X-00050861Y0219779
X-00081653Y02197073
Y02220114
Y02245538
Y02269532
X-0010635Y0230035
X-00094Y02322
X-0009902Y02328
X-00105304Y0233354
X-0006358Y02322399
X-000631Y023091
X-00044Y02351
X-00037257Y02357417
X-0000358Y02382399
X-00057Y02433537
X-00056839Y02448203
X-00025Y02514
X-00023643Y02524353
X-00031333Y0253029
X-0000358Y02502399
X0002454Y02524
X000537Y0248843
X0004142Y02292399
X-00037Y02256
X-00031086Y02228822
X-0018Y021835
Y021725
X-00190889Y02150011
X-00199073Y02150123
X-0019575Y0231525
X-00179567Y02322375
X-00190889Y02350011
X-00199073Y02350123
X-0018Y023725
Y023835
X0025142Y02352399
X0028142
X00296419Y02322399
X0026642
X0025142Y02292399
X0028142
X00296419Y02262399
X0026642
X0022142Y02292399
X002447Y022017
X0035642Y02262399
X0038642
X00401419Y02292399
X00431419
X00461419
X00491419
X0047642Y02322399
X00506419
X00491419Y02352399
X00461419
X00401419
X0037142
X0035642Y02322399
X0038642
X0037142Y02292399
X0047642Y02262399
X00506419
X0058142Y02352399
X0061142
X0067142
X00701419
X0068642Y02322399
X0071642
X00701419Y02292399
X0068642Y02262399
X0071642
X00806419
X0085142Y02292399
X0091142
X00941419
X00971419
X00926419Y02262399
X00896419
X0091142Y02352399
X00941419
X0082142
X00791419
X0064142Y02292399
X01001419
X01031419
X0101642Y02262399
X0104642
X01031419Y02352399
X01001419
X01211419
X01241419
Y02292399
X01211419
X0118142
X01226419Y02262399
X0125642
X0131275Y0225565
X01346419Y02262399
X0137319Y022554
X01361419Y02292399
X01331419
Y02352399
X0131275Y0236305
X01361419Y02352399
X0137319Y023628
Y024702
X0131275Y0247045
X01313Y02439
X0131275Y0214825
X0137319Y02148
X0142019
X01481
X01527
X0158732
Y022554
X01587Y02275
X01571419Y02292399
X01541419
X01511419
X015266Y022554
X0155642Y02262399
X014806Y022554
X01471Y02271
X01430901Y0226961
X0142019Y022554
X01391419Y02292399
X0142019Y023628
X014802
X015278
X01541419Y02352399
X01571419
X0158732Y023628
X0155642Y02382399
X015268Y024702
X014802
X01496419Y02502399
X014801Y025239
X014199
X01406419Y02502399
X0142019Y024702
X0158732
X01691419Y02412399
X01721419
X01751419Y02352399
X01781419
Y02292399
X01751419
X01721419
X01691419
X01661419
X01646419Y02262399
X01676419
X01766419
X01691419Y02352399
X01661419
X01871419
X01901419
X01961419
X01991419
Y02292399
X01961419
X01931419
X01901419
X01871419
X01856419Y02262399
X01886419
X01976419
X02006419
X02066419
X02096419
X02081419Y02292399
X02111419
X02141419
X02111419Y02352399
X02081419
X01961419Y02412399
X01931419
X01796419Y02262399
X02186419
X02216419
X02201419Y02292399
Y02352399
X02396419Y02322399
X02426419
X02411419Y02292399
X02441419
X02471419
X02501419
X02531419
X02516419Y02322399
X02546419
Y02262399
X02516419
X02426419
X02396419
X02441419Y02412399
X02471419
X02621419Y02352399
X02641Y02346
X02651419Y02352399
X02632717Y02333509
X02636419Y02322399
X02606419
X02621419Y02292399
X02651419
X02681419
X02711419
X02741419
X02756419Y02322399
X02726419
X02711419Y02352399
X02741419
X02756419Y02262399
X02726419
X0276562Y0223761
X02771419Y02232399
X02801419
X0281954Y022019
X02861418Y02232399
Y02292399
X02819Y02281
X02801419Y02292399
X02861418Y02352399
X02935027Y0236696
X02934847Y02376665
X02935Y024
Y0241
X0292946Y0241954
X02921419Y02412399
X029272Y023932
X02952006Y02393773
X02957675Y02421601
X02906419Y02442399
X02888Y02416
X0281954Y0241672
X02786419Y02442399
X0276562Y0245243
X02874Y02524
X02924
X02935Y02496
Y02471
X02906419Y02502399
X02923Y02309
X02929Y02256
X02923184Y02229876
X0292946Y022145
X02940802Y0220896
Y02222
X02923Y02199
X02952313Y0219024
X02964331Y02193137
X02958749Y02178156
X02935Y02148
X02636419Y02262399
X02606419
X0299348Y02258
X0299902Y02252
X03006172Y02243877
X03006Y02265
X02981419Y02292399
X02986852Y02310468
Y02334462
Y02359886
Y02382927
X03006172Y02443877
X0299902Y02452
X0299348Y02458
X03006Y02465
X02981419Y02472399
X02986852Y02510468
X03079537Y02457842
X0309575Y0246475
X0310675
X03111885Y0244286
X03114823Y02429821
X03099072Y02429877
X03090889Y02429989
X03103394Y02414469
X0308Y024075
Y023965
X03153931Y02456236
X03153978Y0246381
Y0226381
X03153931Y02256236
X03111885Y0224286
X03114823Y02229821
X03099072Y02229877
X03090889Y0222999
X03103394Y02214469
X0308Y022075
Y021965
X0311225Y0217575
X0310675Y0226475
X0309575
X03079537Y02257842
X02981419Y02232399
X02986852Y02182926
X02981419Y02172399
X02986852Y02159886
Y02534462
Y02559886
Y02582927
X02981419Y02652399
X0299348Y02658
X0299902Y02652
X03006172Y02643878
X03006Y02665
X02986852Y02710468
Y02734462
Y02759886
X02981419Y02772399
X02986852Y02782927
X02981419Y02832399
X03006172Y02843877
X0299902Y02852
X0299348Y02858
X03006Y02865
X02981419Y02892399
X03079537Y02857842
X0309575Y0286475
X0310675
X03127Y02866
X03153978Y0286381
X03153931Y02856236
X03111886Y02842982
X03114823Y02829821
X03099072Y02829877
X03090889Y02829989
X03103394Y02814469
X0308Y028075
Y027965
X03079537Y02657842
X0309575Y0266475
X0310675
X03127Y02666
X03153978Y0266481
X03153931Y02657236
X03111885Y0264286
X03114823Y02629821
X03099072Y02629877
X03090889Y02629989
X03103394Y02614469
X0308Y026075
Y025965
X0296546Y0258896
X0295192Y02596843
X02935Y02598
X029296Y025776
X0292968Y0263032
X02935427Y02644776
X0295192Y02616195
X02906419Y02622399
X02876419
X0281954Y0263154
X02756419Y02622399
X02726419
X02711419Y02592399
X02741419
X0276562Y0255984
Y0266725
X02765395Y02720081
X0276562Y0277466
X02801419Y02772399
X02831419
X02833135Y02764403
X02841672Y02770641
X0282508Y02756496
X02846419Y02802399
X02861418Y02832399
X02831419
X02846419Y02862399
X02861418Y02892399
X02891418
X029178Y028998
X02917555Y02878345
X02924952Y02871421
X02936419Y02862399
X029239Y028461
X02929654Y02819346
X02935427Y02814
X02941351Y02807753
X02947191Y02798106
X02951419Y02832399
X02966419Y02862399
X02951419Y02892399
X02906419Y02862399
X0291707Y0281293
X02924Y02738
X02966419Y02742399
X02952299Y02708599
X02958Y0268514
X02831419Y02892399
X02786419Y02862399
X02756419
X02726419
X02711419Y02892399
X02741419
X02732Y02911
X02726Y02917
X02659636Y0290592
X02651419Y02892399
X02640726Y02897064
X02632925Y02897277
X02621419Y02892399
X02606419Y02862399
X02621419Y02832399
X02651419
X02711419
X02741419
X02576419Y02862399
X02546419
X02516419
X02531419Y02892399
X02501419
Y02832399
X02531419
X02441419
X02411419
X02426419Y02862399
X02396419
X02366419
X02336419
X02306419
X02321419Y02892399
X02291419
Y02832399
X02321419
X02336419Y02802399
X02306419
X02246419Y02862399
X02216419
X02186419
X02201419Y02892399
Y02832399
X02411419Y02892399
X02441419
X02336419Y02562399
X02306419
X02066419
Y02802399
X02096419
X02081419Y02832399
X02111419
X02096419Y02862399
X02066419
X02036419
X02006419
X01976419
X01991419Y02892399
X01961419
Y02832399
X01991419
X01901419
X01871419
X01856419Y02862399
X01886419
X01901419Y02892399
X01871419
X01826419Y02862399
X01796419
X02081419Y02892399
X02111419
X02156419Y02862399
X01766419
X01751419Y02892399
X01781419
Y02832399
X01751419
X01691419
X01661419
X01646419Y02862399
X01635Y02878
X01616419Y02862399
X01586419
X01571419Y02892399
X01541419
X01526419Y02922399
X01586419
X01616419
X01646419
X01676419
X01706419
X01691419Y02892399
X01661419
X01676419Y02862399
X01571419Y02832399
X01541419
X0155642Y02802399
X01586419
X0158732Y027924
X015266
X014794
X014803Y027387
X01466419Y02742399
X01436419
X014197Y027387
X0142019Y02685
X01436419Y02682399
X01466419
X01481Y02686
X01527Y02685
X0155642Y02682399
X0158732Y02685
Y025776
X01527Y02578
X014806Y025776
X01466419Y02562399
X01436419
X0142019Y025776
X0142142Y02592399
X01436419Y02622399
X01466419
X0142019Y027924
X0142142Y02832399
X01424Y02846
X0142162Y02888726
X01432383Y02884831
X01450035Y02878073
X01468695Y0291053
X01475Y02847
X01496419Y02862399
X01406419Y02922399
X01376419
X01346419
X01316419
X0128642
X0125642
X01226419
X01196419
X01166419
X011519Y02902313
X01143877Y02902867
X0113604Y02902195
X0115697Y02896
X01111433Y0289795
X01113463Y02890657
X01106644Y02887393
X011Y02891
X01105494Y02902987
X01129Y02925
X01211419Y02892399
X01241419
X0125642Y02862399
X0128642
X01316419
X01346419
X01353Y02871
X01361419Y02892399
X01331419
Y02832399
X01361419
X0137319Y027924
X013126
X0131275Y0268525
X01346419Y02682399
X0137319Y02685
Y025776
X0131275Y0257785
X01241419Y02832399
X01211419
X01226419Y02862399
X0101642
X0101357Y02894323
X01027Y02893
X00995Y02894
X01001419Y02832399
X01031419
X00941419
X0091142
X00926419Y02862399
X00896419
X00866419
X00806419
X0082142Y02892399
X00791419
Y02832399
X0082142
X00806419Y02802399
X0074642Y02862399
X0071642
X0068642
X00701419Y02892399
X0067142
Y02832399
X00701419
X0061142
X00596419Y02862399
X0061142Y02892399
X0091142
X00941419
Y02592399
X00596419Y02562399
X00566419
X0058142Y02832399
X00566419Y02862399
X00536419
X00506419
X0047642
X00491419Y02892399
X00461419
Y02832399
X00491419
X00401419
X0037142
X0035642Y02862399
X0038642
X00401419Y02892399
X00406228Y02899751
X0037142Y02892399
X00346931Y02899516
X00348Y02907
X00297646Y02907563
X00298057Y02899958
X0028142Y02892399
X00283Y02913
X00257Y02918677
X0025142Y02892399
X00238Y028998
X0026642Y02862399
X00296419
X00326419
X0028142Y02832399
X0025142
X0026642Y02802399
X00296419
X0020642Y02862399
X0022142Y02652399
X00244881Y02652185
X002447Y026313
X0058142Y02892399
X00187Y02892
X00191Y029
X0016142Y02892399
X00135Y02891
X00131Y029
X0011642Y02862399
X0014642
X0017642
X0016142Y02832399
X00131419Y02772399
X0010142
X0007142
X0004142
X00026419Y02802399
X000537Y0281066
X0004142Y02832399
X0007142
X0005642Y02862399
X00026419
X-0000358
X-00024179Y02872171
X-00029222Y0287825
X-0001858Y02892399
X0001142
X0004142
X0007142
X-0004858
X-0006358Y02862399
X-0004858Y02832399
X-00024Y02846
X-000296Y027924
X-00030468Y02766243
X-0004858Y02772399
X-0006358Y02802399
Y02742399
X-00023Y02738
X-0004858Y02712399
X-00038Y02686
X-0006358Y02682399
X-00081653Y02669366
Y02645053
Y02620265
X-0006358Y02622399
X-00051Y02632
X-00044462Y02658621
X0001142Y02652399
X0004142
X0007142
X0010142
X00131419
X0014642Y02622399
X0017642
X00191419Y02652399
X0016142Y02592399
X000537Y0259584
Y02542135
X00026419Y02562399
Y02622399
X-0000358
X-0003Y02585
X-00045Y0258
Y02572
X-00057Y02564
X-00081653Y02597224
X-0018Y025835
Y025725
X-00190889Y02550011
X-00199073Y02550123
X0001142Y02712399
X000537Y0270325
X-00079Y02919126
X-00086137Y02913137
X-001Y0292
X-00203395Y02565531
X-00214823Y02550179
X-00211886Y0253714
X-00100102Y03077
X-00115502Y03103448
X-00125502
X-00036026Y03065048
X-00041161Y03053308
X0015545Y03100699
Y031087
X00154973Y02946043
X0020625Y03100699
Y031087
X0025705
Y03100699
X0030785
Y031087
X0035855Y031077
Y03099699
X00358457Y03156226
X00344458
X00373458
X00644Y03039
X00654392Y03032804
X0066Y03016
X00718Y03054
X00732341Y03046022
X00815968Y03071
X00895
X00928247Y03047322
X00917Y03002
X00951Y03003
X0093263Y02967137
X00932529Y02945883
X010145Y030105
X01008234Y03024008
X01002163Y03034107
X01007516Y03039516
X0105375Y0301075
X0108588Y0301025
X0109475Y0303675
X0112875Y0301675
X01162713Y03053243
X01244133Y0307953
X0123525Y0309575
Y0310675
X01257139Y03111886
X01270179Y03114822
X01270123Y03099072
X01270011Y03090889
X01285531Y03103394
X012925Y0308
X013035
X01259134Y0314196
X01252152
X01257Y03006
X01252Y03
X01244Y02994
X01238Y03006
X01241419Y02952399
X01271419
X01211419
X01316931Y0298316
X01340252
X01352042Y02976926
X01365367Y0298316
X01389714
X01423Y02932
X01437627Y02938855
X014437Y02946364
X01456652Y02953738
X01463Y02961
X01475Y02968
X01496906Y02994174
X01497018Y03006245
X01513039Y03000266
X01526494Y03006441
X015513Y02981998
X01541419Y02952399
X01571419
X01601419
X0162846
X01634Y02975
X01644973Y0298316
X01620914
X01597924
X01669567
X01662928Y02953907
X01691419Y02952399
X015835Y0308
X015725
X01565531Y03103394
X01550123Y03099072
X01550011Y03090889
X01550179Y03114822
X01537139Y03111886
X0151525Y0310675
Y0309575
X0152567Y03078867
X01531156Y03141744
X01539129
X02649205Y0311918
X02656434Y03112434
X02700276Y02935424
X03019793Y030792
X03029Y03079
T03
X-0023Y-0023
X0145
X0313
X0059Y0059
X0145
X0231
X-0023Y0145
X0313
X0059Y0231
X0145
X0231
X-0023Y0313
X0145
X0313
M30
