M48
;Layer_Color=9474304
;FILE_FORMAT=4:4
METRIC,LZ
T2F00S00C2.4000
%
G90
G05
T02
G00X00077429Y0303265
M15
G01X00082241Y0303394
G01X00086843Y03035846
G01X00091157Y03038336
G01X00095109Y03041369
G01X00098631Y03044891
G01X00101664Y03048843
G01X00104154Y03053157
G01X00106061Y03057759
G01X0010735Y03062571
G01X00108Y0306751
G01X00108Y0311249
G01X0010735Y03117429
G01X00106061Y03122241
G01X00104154Y03126843
G01X00101664Y03131157
G01X00098631Y03135109
G01X00095109Y03138631
G01X00091157Y03141664
G01X00086843Y03144154
G01X00082241Y0314606
G01X00077429Y0314735
G01X00072491Y03148
G01X00067509Y03148
G01X00062571Y0314735
G01X00057759Y0314606
G01X00053157Y03144154
G01X00048843Y03141664
G01X00044891Y03138631
G01X00041369Y03135109
G01X00038336Y03131157
G01X00035846Y03126843
G01X00033939Y03122241
G01X0003265Y03117429
G01X00032Y03112491
G01X00032Y03067509
G01X0003265Y03062571
G01X00033939Y03057759
G01X00035846Y03053157
G01X00038336Y03048843
G01X00041369Y03044891
G01X00044891Y03041369
G01X00048843Y03038336
G01X00053157Y03035846
G01X00057759Y0303394
G01X00062571Y0303265
G01X00067509Y03032
G01X00072491Y03032
G01X00077429Y0303265
M16
G00X02837429Y0303265
M15
G01X02842241Y0303394
G01X02846843Y03035846
G01X02851157Y03038336
G01X02855109Y03041369
G01X02858631Y03044891
G01X02861664Y03048843
G01X02864154Y03053157
G01X0286606Y03057759
G01X0286735Y03062571
G01X02868Y03067509
G01X02868Y0311249
G01X0286735Y03117429
G01X0286606Y03122241
G01X02864154Y03126843
G01X02861664Y03131157
G01X02858631Y03135109
G01X02855109Y03138631
G01X02851157Y03141664
G01X02846843Y03144154
G01X02842241Y0314606
G01X02837429Y0314735
G01X0283249Y03148
G01X02827509Y03148
G01X02822571Y0314735
G01X02817759Y0314606
G01X02813157Y03144154
G01X02808843Y03141664
G01X02804891Y03138631
G01X02801369Y03135109
G01X02798336Y03131157
G01X02795846Y03126843
G01X0279394Y03122241
G01X0279265Y03117429
G01X02792Y03112491
G01X02792Y03067509
G01X0279265Y03062571
G01X0279394Y03057759
G01X02795846Y03053157
G01X02798336Y03048843
G01X02801369Y03044891
G01X02804891Y03041369
G01X02808843Y03038336
G01X02813157Y03035846
G01X02817759Y0303394
G01X02822571Y0303265
G01X02827509Y03032
G01X02832491Y03032
G01X02837429Y0303265
M16
G00X02837429Y-0024735
M15
G01X02842241Y-00246061
G01X02846843Y-00244155
G01X02851157Y-00241664
G01X02855109Y-00238632
G01X02858631Y-00235109
G01X02861664Y-00231157
G01X02864154Y-00226843
G01X0286606Y-00222242
G01X0286735Y-0021743
G01X02868Y-00212491
G01X02868Y-0016751
G01X0286735Y-00162571
G01X0286606Y-00157759
G01X02864154Y-00153158
G01X02861664Y-00148843
G01X02858631Y-00144892
G01X02855109Y-00141369
G01X02851157Y-00138337
G01X02846843Y-00135846
G01X02842241Y-0013394
G01X02837429Y-00132651
G01X0283249Y-00132
G01X02827509Y-00132
G01X02822571Y-00132651
G01X02817759Y-0013394
G01X02813157Y-00135846
G01X02808843Y-00138337
G01X02804891Y-00141369
G01X02801369Y-00144892
G01X02798336Y-00148843
G01X02795846Y-00153158
G01X0279394Y-00157759
G01X0279265Y-00162571
G01X02792Y-0016751
G01X02792Y-00212491
G01X0279265Y-0021743
G01X0279394Y-00222242
G01X02795846Y-00226843
G01X02798336Y-00231157
G01X02801369Y-00235109
G01X02804891Y-00238632
G01X02808843Y-00241664
G01X02813157Y-00244155
G01X02817759Y-00246061
G01X02822571Y-0024735
G01X02827509Y-00248
G01X02832491Y-00248
G01X02837429Y-0024735
M16
G00X00077429Y-0024735
M15
G01X00082241Y-00246061
G01X00086843Y-00244154
G01X00091157Y-00241664
G01X00095109Y-00238631
G01X00098631Y-00235109
G01X00101664Y-00231157
G01X00104154Y-00226843
G01X00106061Y-00222241
G01X0010735Y-00217429
G01X00108Y-00212491
G01X00108Y-00167509
G01X0010735Y-00162571
G01X00106061Y-00157759
G01X00104154Y-00153157
G01X00101664Y-00148843
G01X00098631Y-00144891
G01X00095109Y-00141369
G01X00091157Y-00138336
G01X00086843Y-00135846
G01X00082241Y-00133939
G01X00077429Y-0013265
G01X00072491Y-00132
G01X00067509Y-00132
G01X00062571Y-0013265
G01X00057759Y-00133939
G01X00053157Y-00135846
G01X00048843Y-00138336
G01X00044891Y-00141369
G01X00041369Y-00144891
G01X00038336Y-00148843
G01X00035846Y-00153157
G01X00033939Y-00157759
G01X0003265Y-00162571
G01X00032Y-00167509
G01X00032Y-00212491
G01X0003265Y-00217429
G01X00033939Y-00222241
G01X00035846Y-00226843
G01X00038336Y-00231157
G01X00041369Y-00235109
G01X00044891Y-00238631
G01X00048843Y-00241664
G01X00053157Y-00244154
G01X00057759Y-00246061
G01X00062571Y-0024735
G01X00067509Y-00248
G01X00072491Y-00248
G01X00077429Y-0024735
M16
G00X03173446Y-00301495
M15
G01X03176601Y-00300021
G01X03178486Y-00298485
G01X03198486Y-00278485
G01X03200564Y-00275692
G01X03201754Y-00272418
G01X03202Y-0027
G01X03202Y0317
G01X03201495Y03173446
G01X03200021Y03176601
G01X03198486Y03178486
G01X03178486Y03198486
G01X03175692Y03200564
G01X03172418Y03201754
G01X0317Y03202
G01X-0027Y03202
G01X-00273446Y03201495
G01X-00276601Y03200021
G01X-00278485Y03198486
G01X-00298485Y03178486
G01X-00300564Y03175692
G01X-00301754Y03172418
G01X-00302Y0317
G01X-00302Y-0027
G01X-00301495Y-00273446
G01X-00300021Y-00276601
G01X-00298485Y-00278485
G01X-00278485Y-00298485
G01X-00275692Y-00300564
G01X-00272418Y-00301754
G01X-0027Y-00302
G01X0317Y-00302
G01X03173446Y-00301495
M16
M17
M30
