G04*
G04 #@! TF.GenerationSoftware,Altium Limited,Altium NEXUS,5.8.2 (18)*
G04*
G04 Layer_Color=8388736*
%FSLAX44Y44*%
%MOMM*%
G71*
G04*
G04 #@! TF.SameCoordinates,3A4C7DAC-53F9-47BC-B828-E3EBBCC91193*
G04*
G04*
G04 #@! TF.FilePolarity,Negative*
G04*
G01*
G75*
G04:AMPARAMS|DCode=21|XSize=0.45mm|YSize=0.3mm|CornerRadius=0.0495mm|HoleSize=0mm|Usage=FLASHONLY|Rotation=180.000|XOffset=0mm|YOffset=0mm|HoleType=Round|Shape=RoundedRectangle|*
%AMROUNDEDRECTD21*
21,1,0.4500,0.2010,0,0,180.0*
21,1,0.3510,0.3000,0,0,180.0*
1,1,0.0990,-0.1755,0.1005*
1,1,0.0990,0.1755,0.1005*
1,1,0.0990,0.1755,-0.1005*
1,1,0.0990,-0.1755,-0.1005*
%
%ADD21ROUNDEDRECTD21*%
G04:AMPARAMS|DCode=23|XSize=0.45mm|YSize=0.3mm|CornerRadius=0.0495mm|HoleSize=0mm|Usage=FLASHONLY|Rotation=90.000|XOffset=0mm|YOffset=0mm|HoleType=Round|Shape=RoundedRectangle|*
%AMROUNDEDRECTD23*
21,1,0.4500,0.2010,0,0,90.0*
21,1,0.3510,0.3000,0,0,90.0*
1,1,0.0990,0.1005,0.1755*
1,1,0.0990,0.1005,-0.1755*
1,1,0.0990,-0.1005,-0.1755*
1,1,0.0990,-0.1005,0.1755*
%
%ADD23ROUNDEDRECTD23*%
%ADD24R,0.4000X0.5500*%
%ADD31R,2.4500X0.2500*%
%ADD35R,0.5500X0.4000*%
G04:AMPARAMS|DCode=40|XSize=0.55mm|YSize=0.4mm|CornerRadius=0mm|HoleSize=0mm|Usage=FLASHONLY|Rotation=210.000|XOffset=0mm|YOffset=0mm|HoleType=Round|Shape=Rectangle|*
%AMROTATEDRECTD40*
4,1,4,0.1382,0.3107,0.3382,-0.0357,-0.1382,-0.3107,-0.3382,0.0357,0.1382,0.3107,0.0*
%
%ADD40ROTATEDRECTD40*%

G04:AMPARAMS|DCode=41|XSize=0.4mm|YSize=0.55mm|CornerRadius=0mm|HoleSize=0mm|Usage=FLASHONLY|Rotation=210.000|XOffset=0mm|YOffset=0mm|HoleType=Round|Shape=Rectangle|*
%AMROTATEDRECTD41*
4,1,4,0.0357,0.3382,0.3107,-0.1382,-0.0357,-0.3382,-0.3107,0.1382,0.0357,0.3382,0.0*
%
%ADD41ROTATEDRECTD41*%

G04:AMPARAMS|DCode=42|XSize=0.4mm|YSize=0.55mm|CornerRadius=0mm|HoleSize=0mm|Usage=FLASHONLY|Rotation=330.000|XOffset=0mm|YOffset=0mm|HoleType=Round|Shape=Rectangle|*
%AMROTATEDRECTD42*
4,1,4,-0.3107,-0.1382,-0.0357,0.3382,0.3107,0.1382,0.0357,-0.3382,-0.3107,-0.1382,0.0*
%
%ADD42ROTATEDRECTD42*%

G04:AMPARAMS|DCode=43|XSize=0.55mm|YSize=0.4mm|CornerRadius=0mm|HoleSize=0mm|Usage=FLASHONLY|Rotation=330.000|XOffset=0mm|YOffset=0mm|HoleType=Round|Shape=Rectangle|*
%AMROTATEDRECTD43*
4,1,4,-0.3382,-0.0357,-0.1382,0.3107,0.3382,0.0357,0.1382,-0.3107,-0.3382,-0.0357,0.0*
%
%ADD43ROTATEDRECTD43*%

%ADD49C,0.5000*%
%ADD50C,0.4500*%
%ADD51R,0.7232X0.7632*%
%ADD52R,1.2532X1.3532*%
G04:AMPARAMS|DCode=53|XSize=2.3032mm|YSize=2.3032mm|CornerRadius=0.1541mm|HoleSize=0mm|Usage=FLASHONLY|Rotation=90.000|XOffset=0mm|YOffset=0mm|HoleType=Round|Shape=RoundedRectangle|*
%AMROUNDEDRECTD53*
21,1,2.3032,1.9950,0,0,90.0*
21,1,1.9950,2.3032,0,0,90.0*
1,1,0.3082,0.9975,0.9975*
1,1,0.3082,0.9975,-0.9975*
1,1,0.3082,-0.9975,-0.9975*
1,1,0.3082,-0.9975,0.9975*
%
%ADD53ROUNDEDRECTD53*%
%ADD54R,1.0532X0.9932*%
%ADD55R,0.6532X0.7032*%
G04:AMPARAMS|DCode=56|XSize=0.4432mm|YSize=0.8032mm|CornerRadius=0.152mm|HoleSize=0mm|Usage=FLASHONLY|Rotation=90.000|XOffset=0mm|YOffset=0mm|HoleType=Round|Shape=RoundedRectangle|*
%AMROUNDEDRECTD56*
21,1,0.4432,0.4992,0,0,90.0*
21,1,0.1392,0.8032,0,0,90.0*
1,1,0.3040,0.2496,0.0696*
1,1,0.3040,0.2496,-0.0696*
1,1,0.3040,-0.2496,-0.0696*
1,1,0.3040,-0.2496,0.0696*
%
%ADD56ROUNDEDRECTD56*%
%ADD57C,0.2850*%
%ADD58O,0.4532X1.0032*%
%ADD59R,0.9932X1.0532*%
%ADD60R,0.7632X0.7232*%
%ADD61R,0.6532X0.6532*%
G04:AMPARAMS|DCode=62|XSize=0.4432mm|YSize=0.8032mm|CornerRadius=0.152mm|HoleSize=0mm|Usage=FLASHONLY|Rotation=180.000|XOffset=0mm|YOffset=0mm|HoleType=Round|Shape=RoundedRectangle|*
%AMROUNDEDRECTD62*
21,1,0.4432,0.4992,0,0,180.0*
21,1,0.1392,0.8032,0,0,180.0*
1,1,0.3040,-0.0696,0.2496*
1,1,0.3040,0.0696,0.2496*
1,1,0.3040,0.0696,-0.2496*
1,1,0.3040,-0.0696,-0.2496*
%
%ADD62ROUNDEDRECTD62*%
%ADD63R,0.6532X0.6532*%
%ADD64R,1.0532X1.1032*%
%ADD65R,0.4540X0.9240*%
%ADD66R,1.8040X0.4040*%
%ADD67R,1.1032X1.0532*%
G04:AMPARAMS|DCode=68|XSize=0.7232mm|YSize=0.7632mm|CornerRadius=0mm|HoleSize=0mm|Usage=FLASHONLY|Rotation=120.000|XOffset=0mm|YOffset=0mm|HoleType=Round|Shape=Rectangle|*
%AMROTATEDRECTD68*
4,1,4,0.5113,-0.1224,-0.1497,-0.5040,-0.5113,0.1224,0.1497,0.5040,0.5113,-0.1224,0.0*
%
%ADD68ROTATEDRECTD68*%

G04:AMPARAMS|DCode=69|XSize=1.1032mm|YSize=1.0532mm|CornerRadius=0mm|HoleSize=0mm|Usage=FLASHONLY|Rotation=210.000|XOffset=0mm|YOffset=0mm|HoleType=Round|Shape=Rectangle|*
%AMROTATEDRECTD69*
4,1,4,0.2144,0.7319,0.7410,-0.1803,-0.2144,-0.7319,-0.7410,0.1803,0.2144,0.7319,0.0*
%
%ADD69ROTATEDRECTD69*%

G04:AMPARAMS|DCode=70|XSize=0.7232mm|YSize=0.7632mm|CornerRadius=0mm|HoleSize=0mm|Usage=FLASHONLY|Rotation=240.000|XOffset=0mm|YOffset=0mm|HoleType=Round|Shape=Rectangle|*
%AMROTATEDRECTD70*
4,1,4,-0.1497,0.5040,0.5113,0.1224,0.1497,-0.5040,-0.5113,-0.1224,-0.1497,0.5040,0.0*
%
%ADD70ROTATEDRECTD70*%

G04:AMPARAMS|DCode=71|XSize=1.1032mm|YSize=1.0532mm|CornerRadius=0mm|HoleSize=0mm|Usage=FLASHONLY|Rotation=330.000|XOffset=0mm|YOffset=0mm|HoleType=Round|Shape=Rectangle|*
%AMROTATEDRECTD71*
4,1,4,-0.7410,-0.1803,-0.2144,0.7319,0.7410,0.1803,0.2144,-0.7319,-0.7410,-0.1803,0.0*
%
%ADD71ROTATEDRECTD71*%

%ADD72C,0.9906*%
%ADD73R,1.7032X0.5532*%
%ADD74C,0.7112*%
G36*
X1470000Y1497639D02*
X1469261Y1492975D01*
X1467802Y1488484D01*
X1465658Y1484277D01*
X1462883Y1480456D01*
X1459544Y1477117D01*
X1455723Y1474342D01*
X1451516Y1472198D01*
X1447025Y1470739D01*
X1442361Y1470000D01*
X1437639D01*
X1432975Y1470739D01*
X1428484Y1472198D01*
X1424277Y1474342D01*
X1420456Y1477117D01*
X1417117Y1480456D01*
X1414342Y1484277D01*
X1412198Y1488484D01*
X1410739Y1492975D01*
X1410000Y1497639D01*
Y1500000D01*
X1470000D01*
Y1497639D01*
D02*
G37*
G36*
X820000D02*
X819261Y1492975D01*
X817802Y1488484D01*
X815658Y1484277D01*
X812883Y1480456D01*
X809544Y1477117D01*
X805723Y1474342D01*
X801516Y1472198D01*
X797025Y1470739D01*
X792361Y1470000D01*
X787639D01*
X782975Y1470739D01*
X778484Y1472198D01*
X774277Y1474342D01*
X770456Y1477117D01*
X767117Y1480456D01*
X764342Y1484277D01*
X762198Y1488484D01*
X760739Y1492975D01*
X760000Y1497639D01*
Y1500000D01*
X820000D01*
Y1497639D01*
D02*
G37*
G36*
X170000D02*
X169261Y1492975D01*
X167802Y1488484D01*
X165658Y1484277D01*
X162883Y1480456D01*
X159544Y1477117D01*
X155723Y1474342D01*
X151516Y1472198D01*
X147025Y1470739D01*
X142361Y1470000D01*
X137639D01*
X132975Y1470739D01*
X128484Y1472198D01*
X124277Y1474342D01*
X120456Y1477117D01*
X117117Y1480456D01*
X114342Y1484277D01*
X112198Y1488484D01*
X110739Y1492975D01*
X110000Y1497639D01*
Y1500000D01*
X170000D01*
Y1497639D01*
D02*
G37*
G36*
X1540000Y1370000D02*
X1537639D01*
X1532975Y1370739D01*
X1528484Y1372198D01*
X1524277Y1374342D01*
X1520456Y1377117D01*
X1517117Y1380456D01*
X1514342Y1384277D01*
X1512198Y1388484D01*
X1510739Y1392975D01*
X1510000Y1397639D01*
Y1402361D01*
X1510739Y1407025D01*
X1512198Y1411516D01*
X1514342Y1415723D01*
X1517117Y1419544D01*
X1520456Y1422883D01*
X1524277Y1425658D01*
X1528484Y1427802D01*
X1532975Y1429261D01*
X1537639Y1430000D01*
X1540000D01*
Y1370000D01*
D02*
G37*
G36*
X47025Y1429261D02*
X51516Y1427802D01*
X55723Y1425658D01*
X59544Y1422883D01*
X62883Y1419544D01*
X65658Y1415723D01*
X67802Y1411516D01*
X69261Y1407025D01*
X70000Y1402361D01*
Y1397639D01*
X69261Y1392975D01*
X67802Y1388484D01*
X65658Y1384277D01*
X62883Y1380456D01*
X59544Y1377117D01*
X55723Y1374342D01*
X51516Y1372198D01*
X47025Y1370739D01*
X42361Y1370000D01*
X40000D01*
Y1430000D01*
X42361D01*
X47025Y1429261D01*
D02*
G37*
G36*
X1540000Y720000D02*
X1537639D01*
X1532975Y720739D01*
X1528484Y722198D01*
X1524277Y724342D01*
X1520456Y727117D01*
X1517117Y730456D01*
X1514342Y734277D01*
X1512198Y738484D01*
X1510739Y742975D01*
X1510000Y747639D01*
Y752361D01*
X1510739Y757025D01*
X1512198Y761516D01*
X1514342Y765723D01*
X1517117Y769544D01*
X1520456Y772883D01*
X1524277Y775658D01*
X1528484Y777802D01*
X1532975Y779261D01*
X1537639Y780000D01*
X1540000D01*
Y720000D01*
D02*
G37*
G36*
X47025Y779261D02*
X51516Y777802D01*
X55723Y775658D01*
X59544Y772883D01*
X62883Y769544D01*
X65658Y765723D01*
X67802Y761516D01*
X69261Y757025D01*
X70000Y752361D01*
Y747639D01*
X69261Y742975D01*
X67802Y738484D01*
X65658Y734277D01*
X62883Y730456D01*
X59544Y727117D01*
X55723Y724342D01*
X51516Y722198D01*
X47025Y720739D01*
X42361Y720000D01*
X40000D01*
Y780000D01*
X42361D01*
X47025Y779261D01*
D02*
G37*
G36*
X1514450Y510075D02*
X1517750Y509350D01*
X1526600Y507425D01*
Y502975D01*
X1515050Y505550D01*
X1514350Y505650D01*
X1513550D01*
X1512950Y505550D01*
X1512550Y505150D01*
X1512350Y504550D01*
Y503950D01*
X1512750Y503150D01*
X1513300Y502350D01*
X1514350Y501350D01*
X1515950Y500350D01*
X1517750Y499350D01*
X1519775Y498500D01*
X1526600Y497000D01*
Y492900D01*
X1500975Y498575D01*
Y502675D01*
X1512350Y500150D01*
X1511000Y501300D01*
X1509950Y502350D01*
X1509150Y503750D01*
X1508750Y505350D01*
Y506950D01*
X1508950Y507750D01*
X1509550Y508750D01*
X1510350Y509550D01*
X1511550Y509950D01*
X1512950Y510150D01*
X1514450Y510075D01*
D02*
G37*
G36*
X1513100Y492100D02*
X1512900Y491400D01*
X1512800Y490900D01*
X1512700Y489800D01*
Y488600D01*
X1512800Y487800D01*
X1513100Y487000D01*
X1513600Y486200D01*
X1514700Y485300D01*
X1515600Y484700D01*
X1516700Y484200D01*
X1518000Y483800D01*
X1519300Y483600D01*
X1520200D01*
X1520900Y483700D01*
X1521600Y483900D01*
X1522200Y484200D01*
X1522600Y484600D01*
X1523000Y485300D01*
X1523200Y486100D01*
Y486800D01*
X1523100Y487800D01*
X1522800Y489100D01*
X1522475Y490025D01*
X1526400Y489600D01*
X1526525Y489125D01*
X1526800Y488000D01*
X1527000Y486200D01*
Y485200D01*
X1526800Y483200D01*
X1526600Y482300D01*
X1526200Y481400D01*
X1525600Y480600D01*
X1524800Y480000D01*
X1523800Y479500D01*
X1522800Y479200D01*
X1521300Y479000D01*
X1519600D01*
X1518300Y479200D01*
X1517000Y479500D01*
X1515600Y480000D01*
X1514400Y480500D01*
X1513200Y481200D01*
X1512200Y482000D01*
X1511400Y482800D01*
X1510400Y484100D01*
X1509600Y485700D01*
X1509150Y487600D01*
X1509000Y489400D01*
Y491000D01*
X1509150Y492000D01*
X1509475Y492900D01*
X1513100Y492100D01*
D02*
G37*
G36*
X1526600Y473300D02*
Y469200D01*
X1509150Y473075D01*
Y477175D01*
X1526600Y473300D01*
D02*
G37*
G36*
X1513175Y469075D02*
X1513000Y468400D01*
Y467900D01*
X1513300Y467200D01*
X1513800Y466500D01*
X1514650Y465650D01*
X1516300Y464400D01*
X1518000Y463500D01*
X1520700Y462400D01*
X1523775Y461450D01*
X1526600Y460825D01*
Y456725D01*
X1509150Y460600D01*
Y464700D01*
X1514000Y463625D01*
X1512400Y464400D01*
X1511200Y465200D01*
X1510500Y465900D01*
X1509800Y466700D01*
X1509400Y467300D01*
X1509000Y468200D01*
X1508900Y468800D01*
Y469400D01*
X1509000Y470000D01*
X1513175Y469075D01*
D02*
G37*
G36*
X1526600Y452100D02*
Y447500D01*
X1523400Y448200D01*
X1524750Y447050D01*
X1525800Y446000D01*
X1526600Y444600D01*
X1527000Y443000D01*
Y441400D01*
X1526800Y440600D01*
X1526200Y439600D01*
X1525400Y438800D01*
X1524200Y438400D01*
X1522800Y438200D01*
X1521300Y438275D01*
X1518000Y439000D01*
X1509150Y440925D01*
Y445375D01*
X1520700Y442800D01*
X1521400Y442700D01*
X1522200D01*
X1522800Y442800D01*
X1523200Y443200D01*
X1523400Y443800D01*
Y444400D01*
X1523000Y445200D01*
X1522450Y446000D01*
X1521400Y447000D01*
X1519800Y448000D01*
X1518000Y449000D01*
X1515975Y449850D01*
X1509150Y451350D01*
Y455975D01*
X1526600Y452100D01*
D02*
G37*
G36*
X1505600Y438075D02*
X1522450Y425150D01*
Y434325D01*
X1526600Y433400D01*
Y418300D01*
X1523925Y418875D01*
X1507150Y431750D01*
Y422600D01*
X1503000Y423525D01*
Y438650D01*
X1505600Y438075D01*
D02*
G37*
G36*
X1527000Y414250D02*
Y395800D01*
X1507825Y400300D01*
Y387500D01*
X1527000Y383000D01*
Y364550D01*
X1490000Y373225D01*
Y356750D01*
X1527000Y348050D01*
Y328500D01*
X1490000Y337225D01*
Y294225D01*
X1495900Y292825D01*
Y319400D01*
X1507900Y316575D01*
Y290025D01*
X1514000Y288600D01*
Y316350D01*
X1527000Y313300D01*
Y285525D01*
Y266000D01*
X1477000Y277750D01*
Y394725D01*
X1495825Y390325D01*
Y403125D01*
X1477000Y407550D01*
Y426000D01*
X1527000Y414250D01*
D02*
G37*
G36*
X87383Y201010D02*
X87514Y200984D01*
X87640Y200941D01*
X87759Y200882D01*
X87870Y200808D01*
X87970Y200720D01*
X88058Y200620D01*
X88132Y200509D01*
X88191Y200390D01*
X88233Y200264D01*
X88259Y200133D01*
X88268Y200000D01*
Y196768D01*
X90750D01*
X90883Y196759D01*
X91013Y196733D01*
X91140Y196691D01*
X91259Y196632D01*
X91370Y196558D01*
X91470Y196470D01*
X91558Y196370D01*
X91632Y196259D01*
X91691Y196140D01*
X91734Y196014D01*
X91760Y195883D01*
X91768Y195750D01*
Y193250D01*
X91760Y193117D01*
X91734Y192987D01*
X91691Y192860D01*
X91632Y192741D01*
X91558Y192630D01*
X91470Y192530D01*
X91370Y192442D01*
X91259Y192368D01*
X91140Y192309D01*
X91013Y192267D01*
X90883Y192241D01*
X90750Y192232D01*
X88268D01*
Y191768D01*
X90750D01*
X90883Y191759D01*
X91013Y191733D01*
X91140Y191691D01*
X91259Y191632D01*
X91370Y191558D01*
X91470Y191470D01*
X91558Y191370D01*
X91632Y191259D01*
X91691Y191140D01*
X91734Y191014D01*
X91760Y190883D01*
X91768Y190750D01*
Y188250D01*
X91760Y188117D01*
X91734Y187987D01*
X91691Y187860D01*
X91632Y187741D01*
X91558Y187630D01*
X91470Y187530D01*
X91370Y187442D01*
X91259Y187368D01*
X91140Y187309D01*
X91013Y187267D01*
X90883Y187241D01*
X90750Y187232D01*
X88268D01*
Y184000D01*
X88259Y183867D01*
X88233Y183736D01*
X88191Y183610D01*
X88132Y183491D01*
X88058Y183380D01*
X87970Y183280D01*
X87870Y183192D01*
X87759Y183118D01*
X87640Y183059D01*
X87514Y183016D01*
X87383Y182990D01*
X87250Y182982D01*
X62750D01*
X62617Y182990D01*
X62487Y183016D01*
X62360Y183059D01*
X62241Y183118D01*
X62130Y183192D01*
X62030Y183280D01*
X61942Y183380D01*
X61868Y183491D01*
X61809Y183610D01*
X61767Y183736D01*
X61740Y183867D01*
X61732Y184000D01*
Y187232D01*
X59250D01*
X59117Y187241D01*
X58987Y187267D01*
X58860Y187309D01*
X58741Y187368D01*
X58630Y187442D01*
X58530Y187530D01*
X58442Y187630D01*
X58368Y187741D01*
X58309Y187860D01*
X58267Y187987D01*
X58240Y188117D01*
X58232Y188250D01*
Y190750D01*
X58240Y190883D01*
X58267Y191014D01*
X58309Y191140D01*
X58368Y191259D01*
X58442Y191370D01*
X58530Y191470D01*
X58630Y191558D01*
X58741Y191632D01*
X58860Y191691D01*
X58987Y191733D01*
X59117Y191759D01*
X59250Y191768D01*
X61732D01*
Y192232D01*
X59250D01*
X59117Y192241D01*
X58987Y192267D01*
X58860Y192309D01*
X58741Y192368D01*
X58630Y192442D01*
X58530Y192530D01*
X58442Y192630D01*
X58368Y192741D01*
X58309Y192860D01*
X58267Y192987D01*
X58240Y193117D01*
X58232Y193250D01*
Y195750D01*
X58240Y195883D01*
X58267Y196014D01*
X58309Y196140D01*
X58368Y196259D01*
X58442Y196370D01*
X58530Y196470D01*
X58630Y196558D01*
X58741Y196632D01*
X58860Y196691D01*
X58987Y196733D01*
X59117Y196759D01*
X59250Y196768D01*
X61732D01*
Y200000D01*
X61740Y200133D01*
X61767Y200264D01*
X61809Y200390D01*
X61868Y200509D01*
X61942Y200620D01*
X62030Y200720D01*
X62130Y200808D01*
X62241Y200882D01*
X62360Y200941D01*
X62487Y200984D01*
X62617Y201010D01*
X62750Y201018D01*
X87250D01*
X87383Y201010D01*
D02*
G37*
G36*
X1540000Y70000D02*
X1537639D01*
X1532975Y70739D01*
X1528484Y72198D01*
X1524277Y74342D01*
X1520456Y77117D01*
X1517117Y80456D01*
X1514342Y84277D01*
X1512198Y88484D01*
X1510739Y92975D01*
X1510000Y97639D01*
Y102361D01*
X1510739Y107025D01*
X1512198Y111516D01*
X1514342Y115723D01*
X1517117Y119544D01*
X1520456Y122883D01*
X1524277Y125658D01*
X1528484Y127802D01*
X1532975Y129261D01*
X1537639Y130000D01*
X1540000D01*
Y70000D01*
D02*
G37*
G36*
X20996Y249754D02*
X20997Y50247D01*
X-582Y50247D01*
X-584Y249754D01*
X20996Y249754D01*
D02*
G37*
G36*
X1447025Y29261D02*
X1451516Y27802D01*
X1455723Y25658D01*
X1459544Y22883D01*
X1462883Y19544D01*
X1465658Y15723D01*
X1467802Y11516D01*
X1469261Y7025D01*
X1470000Y2361D01*
Y0D01*
X1410000D01*
Y2361D01*
X1410739Y7025D01*
X1412198Y11516D01*
X1414342Y15723D01*
X1417117Y19544D01*
X1420456Y22883D01*
X1424277Y25658D01*
X1428484Y27802D01*
X1432975Y29261D01*
X1437639Y30000D01*
X1442361D01*
X1447025Y29261D01*
D02*
G37*
G36*
X797025D02*
X801516Y27802D01*
X805723Y25658D01*
X809544Y22883D01*
X812883Y19544D01*
X815658Y15723D01*
X817802Y11516D01*
X819261Y7025D01*
X820000Y2361D01*
Y0D01*
X760000D01*
Y2361D01*
X760739Y7025D01*
X762198Y11516D01*
X764342Y15723D01*
X767117Y19544D01*
X770456Y22883D01*
X774277Y25658D01*
X778484Y27802D01*
X782975Y29261D01*
X787639Y30000D01*
X792361D01*
X797025Y29261D01*
D02*
G37*
G36*
X147025D02*
X151516Y27802D01*
X155723Y25658D01*
X159544Y22883D01*
X162883Y19544D01*
X165658Y15723D01*
X167802Y11516D01*
X169261Y7025D01*
X170000Y2361D01*
Y0D01*
X110000D01*
Y2361D01*
X110739Y7025D01*
X112198Y11516D01*
X114342Y15723D01*
X117117Y19544D01*
X120456Y22883D01*
X124277Y25658D01*
X128484Y27802D01*
X132975Y29261D01*
X137639Y30000D01*
X142361D01*
X147025Y29261D01*
D02*
G37*
D21*
X112890Y743280D02*
D03*
Y749780D02*
D03*
Y756280D02*
D03*
X132390D02*
D03*
Y749780D02*
D03*
Y743280D02*
D03*
D23*
X1403498Y1409748D02*
D03*
Y1224034D02*
D03*
X1217784Y1409748D02*
D03*
Y1224034D02*
D03*
X1403498Y1038320D02*
D03*
Y852606D02*
D03*
X1217784Y1038320D02*
D03*
X1217784Y852606D02*
D03*
X1032070Y1409748D02*
D03*
Y1224034D02*
D03*
X846356Y1409748D02*
D03*
Y1224034D02*
D03*
X1032070Y1038320D02*
D03*
X1032070Y852606D02*
D03*
X846356Y1038320D02*
D03*
X846356Y852606D02*
D03*
X1403498Y666892D02*
D03*
Y481178D02*
D03*
X1217784Y666892D02*
D03*
Y481178D02*
D03*
X1403498Y295464D02*
D03*
Y109750D02*
D03*
X1217784Y295464D02*
D03*
Y109750D02*
D03*
X1032070Y666892D02*
D03*
X1032070Y481178D02*
D03*
X846356Y666892D02*
D03*
Y481178D02*
D03*
X1032070Y295464D02*
D03*
Y109750D02*
D03*
X846356Y295464D02*
D03*
Y109750D02*
D03*
X660642Y1409748D02*
D03*
Y1224034D02*
D03*
X474928Y1409748D02*
D03*
Y1224034D02*
D03*
X660642Y1038320D02*
D03*
X660642Y852606D02*
D03*
X474928Y1038320D02*
D03*
Y852606D02*
D03*
X289214Y1409748D02*
D03*
Y1224034D02*
D03*
X103500Y1409748D02*
D03*
Y1224034D02*
D03*
X289214Y1038320D02*
D03*
X289214Y852606D02*
D03*
X103500Y1038320D02*
D03*
X103500Y852606D02*
D03*
X660642Y666892D02*
D03*
X660642Y481178D02*
D03*
X474928Y666892D02*
D03*
Y481178D02*
D03*
X660642Y295464D02*
D03*
Y109750D02*
D03*
X474928Y295464D02*
D03*
Y109750D02*
D03*
X289214Y666892D02*
D03*
X289214Y481178D02*
D03*
X103500Y666892D02*
D03*
Y481178D02*
D03*
X289214Y295464D02*
D03*
Y109750D02*
D03*
X103500Y295464D02*
D03*
Y109750D02*
D03*
X1038570Y852606D02*
D03*
X1045070D02*
D03*
Y833106D02*
D03*
X1038570D02*
D03*
X1032070D02*
D03*
X110000Y295464D02*
D03*
X116500D02*
D03*
Y275964D02*
D03*
X110000D02*
D03*
X103500D02*
D03*
X295714Y109750D02*
D03*
X302214D02*
D03*
Y90250D02*
D03*
X295714D02*
D03*
X289214D02*
D03*
X852856Y109750D02*
D03*
X859356D02*
D03*
Y90250D02*
D03*
X852856D02*
D03*
X846356D02*
D03*
X1409998Y295464D02*
D03*
X1416498D02*
D03*
Y275964D02*
D03*
X1409998D02*
D03*
X1403498D02*
D03*
X1224284Y295464D02*
D03*
X1230784D02*
D03*
Y275964D02*
D03*
X1224284D02*
D03*
X1217784D02*
D03*
X1038570Y295464D02*
D03*
X1045070D02*
D03*
Y275964D02*
D03*
X1038570D02*
D03*
X1032070D02*
D03*
X852856Y295464D02*
D03*
X859356D02*
D03*
Y275964D02*
D03*
X852856D02*
D03*
X846356D02*
D03*
X667142Y295464D02*
D03*
X673642D02*
D03*
Y275964D02*
D03*
X667142D02*
D03*
X660642D02*
D03*
X481428Y295464D02*
D03*
X487928D02*
D03*
Y275964D02*
D03*
X481428D02*
D03*
X474928D02*
D03*
X295714Y295464D02*
D03*
X302214D02*
D03*
Y275964D02*
D03*
X295714D02*
D03*
X289214D02*
D03*
X110000Y481178D02*
D03*
X116500D02*
D03*
Y461678D02*
D03*
X110000D02*
D03*
X103500D02*
D03*
X295714Y481178D02*
D03*
X302214D02*
D03*
Y461678D02*
D03*
X295714D02*
D03*
X289214D02*
D03*
X481428Y481178D02*
D03*
X487928D02*
D03*
Y461678D02*
D03*
X481428D02*
D03*
X474928D02*
D03*
X667142Y481178D02*
D03*
X673642D02*
D03*
Y461678D02*
D03*
X667142D02*
D03*
X660642D02*
D03*
X852856Y481178D02*
D03*
X859356D02*
D03*
Y461678D02*
D03*
X852856D02*
D03*
X846356D02*
D03*
X1038570Y481178D02*
D03*
X1045070D02*
D03*
Y461678D02*
D03*
X1038570D02*
D03*
X1032070D02*
D03*
X1224284Y481178D02*
D03*
X1230784D02*
D03*
Y461678D02*
D03*
X1224284D02*
D03*
X1217784D02*
D03*
X1409998Y481178D02*
D03*
X1416498D02*
D03*
Y461678D02*
D03*
X1409998D02*
D03*
X1403498D02*
D03*
X1409998Y666892D02*
D03*
X1416498D02*
D03*
Y647392D02*
D03*
X1409998D02*
D03*
X1403498D02*
D03*
X1224284Y666892D02*
D03*
X1230784D02*
D03*
Y647392D02*
D03*
X1224284D02*
D03*
X1217784D02*
D03*
X1038570Y666892D02*
D03*
X1045070D02*
D03*
Y647392D02*
D03*
X1038570D02*
D03*
X1032070D02*
D03*
X852856Y666892D02*
D03*
X859356D02*
D03*
Y647392D02*
D03*
X852856D02*
D03*
X846356D02*
D03*
X667142Y666892D02*
D03*
X673642D02*
D03*
Y647392D02*
D03*
X667142D02*
D03*
X660642D02*
D03*
X481428Y666892D02*
D03*
X487928D02*
D03*
Y647392D02*
D03*
X481428D02*
D03*
X474928D02*
D03*
X295714Y666892D02*
D03*
X302214D02*
D03*
Y647392D02*
D03*
X295714D02*
D03*
X289214D02*
D03*
X110000Y666892D02*
D03*
X116500D02*
D03*
Y647392D02*
D03*
X110000D02*
D03*
X103500D02*
D03*
X110000Y852606D02*
D03*
X116500D02*
D03*
Y833106D02*
D03*
X110000D02*
D03*
X103500D02*
D03*
X295714Y852606D02*
D03*
X302214D02*
D03*
Y833106D02*
D03*
X295714D02*
D03*
X289214D02*
D03*
X481428Y852606D02*
D03*
X487928D02*
D03*
Y833106D02*
D03*
X481428D02*
D03*
X474928D02*
D03*
X667142Y852606D02*
D03*
X673642D02*
D03*
Y833106D02*
D03*
X667142D02*
D03*
X660642D02*
D03*
X852856Y852606D02*
D03*
X859356D02*
D03*
Y833106D02*
D03*
X852856D02*
D03*
X846356D02*
D03*
X1224284Y852606D02*
D03*
X1230784D02*
D03*
Y833106D02*
D03*
X1224284D02*
D03*
X1217784D02*
D03*
X1409998Y852606D02*
D03*
X1416498D02*
D03*
Y833106D02*
D03*
X1409998D02*
D03*
X1403498D02*
D03*
X1409998Y1038320D02*
D03*
X1416498D02*
D03*
Y1018820D02*
D03*
X1409998D02*
D03*
X1403498D02*
D03*
X1224284Y1038320D02*
D03*
X1230784D02*
D03*
Y1018820D02*
D03*
X1224284D02*
D03*
X1217784D02*
D03*
X1038570Y1038320D02*
D03*
X1045070D02*
D03*
Y1018820D02*
D03*
X1038570D02*
D03*
X1032070D02*
D03*
X852856Y1038320D02*
D03*
X859356D02*
D03*
Y1018820D02*
D03*
X852856D02*
D03*
X846356D02*
D03*
X667142Y1038320D02*
D03*
X673642D02*
D03*
Y1018820D02*
D03*
X667142D02*
D03*
X660642D02*
D03*
X481428Y1038320D02*
D03*
X487928D02*
D03*
Y1018820D02*
D03*
X481428D02*
D03*
X474928D02*
D03*
X295714Y1038320D02*
D03*
X302214D02*
D03*
Y1018820D02*
D03*
X295714D02*
D03*
X289214D02*
D03*
X110000Y1038320D02*
D03*
X116500D02*
D03*
Y1018820D02*
D03*
X110000D02*
D03*
X103500D02*
D03*
X110000Y1224034D02*
D03*
X116500D02*
D03*
Y1204534D02*
D03*
X110000D02*
D03*
X103500D02*
D03*
X295714Y1224034D02*
D03*
X302214D02*
D03*
Y1204534D02*
D03*
X295714D02*
D03*
X289214D02*
D03*
X481428Y1224034D02*
D03*
X487928D02*
D03*
Y1204534D02*
D03*
X481428D02*
D03*
X474928D02*
D03*
X667142Y1224034D02*
D03*
X673642D02*
D03*
Y1204534D02*
D03*
X667142D02*
D03*
X660642D02*
D03*
X852856Y1224034D02*
D03*
X859356D02*
D03*
Y1204534D02*
D03*
X852856D02*
D03*
X846356D02*
D03*
X1038570Y1224034D02*
D03*
X1045070D02*
D03*
Y1204534D02*
D03*
X1038570D02*
D03*
X1032070D02*
D03*
X1224284Y1224034D02*
D03*
X1230784D02*
D03*
Y1204534D02*
D03*
X1224284D02*
D03*
X1217784D02*
D03*
X1409998Y1224034D02*
D03*
X1416498D02*
D03*
Y1204534D02*
D03*
X1409998D02*
D03*
X1403498D02*
D03*
X1409998Y1409748D02*
D03*
X1416498D02*
D03*
Y1390248D02*
D03*
X1409998D02*
D03*
X1403498D02*
D03*
X1224284Y1409748D02*
D03*
X1230784D02*
D03*
Y1390248D02*
D03*
X1224284D02*
D03*
X1217784D02*
D03*
X1038570Y1409748D02*
D03*
X1045070D02*
D03*
Y1390248D02*
D03*
X1038570D02*
D03*
X1032070D02*
D03*
X852856Y1409748D02*
D03*
X859356D02*
D03*
Y1390248D02*
D03*
X852856D02*
D03*
X846356D02*
D03*
X667142Y1409748D02*
D03*
X673642D02*
D03*
Y1390248D02*
D03*
X667142D02*
D03*
X660642D02*
D03*
X481428Y1409748D02*
D03*
X487928D02*
D03*
Y1390248D02*
D03*
X481428D02*
D03*
X474928D02*
D03*
X295714Y1409748D02*
D03*
X302214D02*
D03*
Y1390248D02*
D03*
X295714D02*
D03*
X289214D02*
D03*
X110000Y1409748D02*
D03*
X116500D02*
D03*
Y1390248D02*
D03*
X110000D02*
D03*
X103500D02*
D03*
X1409998Y109750D02*
D03*
X1416498D02*
D03*
Y90250D02*
D03*
X1409998D02*
D03*
X1403498D02*
D03*
X1224284Y109750D02*
D03*
X1230784D02*
D03*
Y90250D02*
D03*
X1224284D02*
D03*
X1217784D02*
D03*
X1038570Y109750D02*
D03*
X1045070D02*
D03*
Y90250D02*
D03*
X1038570D02*
D03*
X1032070D02*
D03*
X667142Y109750D02*
D03*
X673642D02*
D03*
Y90250D02*
D03*
X667142D02*
D03*
X660642D02*
D03*
X481428Y109750D02*
D03*
X487928D02*
D03*
Y90250D02*
D03*
X481428D02*
D03*
X474928D02*
D03*
X110000Y109750D02*
D03*
X116500D02*
D03*
Y90250D02*
D03*
X110000D02*
D03*
X103500D02*
D03*
D24*
X842705Y770141D02*
D03*
X823205D02*
D03*
X829705D02*
D03*
X836205D02*
D03*
X849205D02*
D03*
Y729641D02*
D03*
X842705D02*
D03*
X836205D02*
D03*
X829705D02*
D03*
X823205D02*
D03*
D31*
X75000Y192000D02*
D03*
D35*
X816955Y736891D02*
D03*
Y743391D02*
D03*
Y749891D02*
D03*
Y756391D02*
D03*
Y762891D02*
D03*
X855455D02*
D03*
Y756391D02*
D03*
Y749891D02*
D03*
Y743391D02*
D03*
Y736891D02*
D03*
D40*
X782912Y800796D02*
D03*
X747838Y780546D02*
D03*
X744588Y786175D02*
D03*
X779662Y806425D02*
D03*
X786162Y795167D02*
D03*
X751088Y774917D02*
D03*
X754338Y769288D02*
D03*
X741338Y791804D02*
D03*
X776412Y812054D02*
D03*
X789412Y789538D02*
D03*
D41*
X767008Y813842D02*
D03*
X744492Y800842D02*
D03*
X763742Y767500D02*
D03*
X769371Y770750D02*
D03*
X761379Y810592D02*
D03*
X750121Y804092D02*
D03*
X755750Y807342D02*
D03*
X775000Y774000D02*
D03*
X780629Y777250D02*
D03*
X786258Y780500D02*
D03*
D42*
X764367Y732171D02*
D03*
X769996Y728921D02*
D03*
X775625Y725671D02*
D03*
X781254Y722421D02*
D03*
X786883Y719171D02*
D03*
X767633Y685829D02*
D03*
X762004Y689079D02*
D03*
X756375Y692329D02*
D03*
X750746Y695579D02*
D03*
X745117Y698829D02*
D03*
D43*
X790037Y710133D02*
D03*
X786787Y704504D02*
D03*
X783537Y698875D02*
D03*
X780287Y693246D02*
D03*
X777037Y687617D02*
D03*
X741963Y707867D02*
D03*
X745213Y713496D02*
D03*
X748463Y719125D02*
D03*
X751713Y724754D02*
D03*
X754963Y730383D02*
D03*
D49*
X1504135Y475975D02*
G03*
X1504135Y475975I-10J0D01*
G01*
D50*
X1503860Y452550D02*
G03*
X1503860Y452550I-10J0D01*
G01*
Y445400D02*
G03*
X1503860Y445400I-10J0D01*
G01*
D51*
X839205Y701370D02*
D03*
Y709170D02*
D03*
X100484Y757662D02*
D03*
Y749862D02*
D03*
X1089666Y841420D02*
D03*
Y833620D02*
D03*
X161096Y284278D02*
D03*
Y276478D02*
D03*
X346810Y98564D02*
D03*
Y90764D02*
D03*
X903952Y98564D02*
D03*
Y90764D02*
D03*
X1461094Y284278D02*
D03*
Y276478D02*
D03*
X1275380Y284278D02*
D03*
Y276478D02*
D03*
X1089666Y284278D02*
D03*
Y276478D02*
D03*
X903952Y284278D02*
D03*
Y276478D02*
D03*
X718238Y284278D02*
D03*
Y276478D02*
D03*
X532524Y284278D02*
D03*
Y276478D02*
D03*
X346810Y284278D02*
D03*
Y276478D02*
D03*
X161096Y469992D02*
D03*
Y462192D02*
D03*
X346810Y469992D02*
D03*
Y462192D02*
D03*
X532524Y469992D02*
D03*
Y462192D02*
D03*
X718238Y469992D02*
D03*
Y462192D02*
D03*
X903952Y469992D02*
D03*
Y462192D02*
D03*
X1089666Y469992D02*
D03*
Y462192D02*
D03*
X1275380Y469992D02*
D03*
Y462192D02*
D03*
X1461094Y469992D02*
D03*
Y462192D02*
D03*
Y655706D02*
D03*
Y647906D02*
D03*
X1275380Y655706D02*
D03*
Y647906D02*
D03*
X1089666Y655706D02*
D03*
Y647906D02*
D03*
X903952Y655706D02*
D03*
Y647906D02*
D03*
X718238Y655706D02*
D03*
Y647906D02*
D03*
X532524Y655706D02*
D03*
Y647906D02*
D03*
X346810Y655706D02*
D03*
Y647906D02*
D03*
X161096Y655706D02*
D03*
Y647906D02*
D03*
X161096Y841420D02*
D03*
Y833620D02*
D03*
X346810Y841420D02*
D03*
Y833620D02*
D03*
X532524Y841420D02*
D03*
Y833620D02*
D03*
X718238Y841420D02*
D03*
Y833620D02*
D03*
X903952Y841420D02*
D03*
Y833620D02*
D03*
X1275380Y841420D02*
D03*
Y833620D02*
D03*
X1461094Y841420D02*
D03*
Y833620D02*
D03*
Y1027134D02*
D03*
Y1019334D02*
D03*
X1275380Y1027134D02*
D03*
Y1019334D02*
D03*
X1089666Y1027134D02*
D03*
Y1019334D02*
D03*
X903952Y1027134D02*
D03*
Y1019334D02*
D03*
X718238Y1027134D02*
D03*
Y1019334D02*
D03*
X532524Y1027134D02*
D03*
Y1019334D02*
D03*
X346810Y1027134D02*
D03*
Y1019334D02*
D03*
X161096Y1027134D02*
D03*
Y1019334D02*
D03*
Y1212848D02*
D03*
Y1205048D02*
D03*
X346810Y1212848D02*
D03*
Y1205048D02*
D03*
X532524Y1212848D02*
D03*
Y1205048D02*
D03*
X718238Y1212848D02*
D03*
Y1205048D02*
D03*
X903952Y1212848D02*
D03*
Y1205048D02*
D03*
X1089666Y1212848D02*
D03*
Y1205048D02*
D03*
X1275380Y1212848D02*
D03*
Y1205048D02*
D03*
X1461094Y1212848D02*
D03*
Y1205048D02*
D03*
Y1398562D02*
D03*
Y1390762D02*
D03*
X1275380Y1398562D02*
D03*
Y1390762D02*
D03*
X1089666Y1398562D02*
D03*
Y1390762D02*
D03*
X903952Y1398562D02*
D03*
Y1390762D02*
D03*
X718238Y1398562D02*
D03*
Y1390762D02*
D03*
X532524Y1398562D02*
D03*
Y1390762D02*
D03*
X346810Y1398562D02*
D03*
Y1390762D02*
D03*
X161096Y1398562D02*
D03*
Y1390762D02*
D03*
X1461094Y98564D02*
D03*
Y90764D02*
D03*
X1275380Y98564D02*
D03*
Y90764D02*
D03*
X1089666Y98564D02*
D03*
Y90764D02*
D03*
X718238Y98564D02*
D03*
Y90764D02*
D03*
X532524Y98564D02*
D03*
Y90764D02*
D03*
X161096Y98564D02*
D03*
Y90764D02*
D03*
X107000Y1302100D02*
D03*
Y1309900D02*
D03*
Y187100D02*
D03*
Y194900D02*
D03*
Y930100D02*
D03*
Y937900D02*
D03*
Y559100D02*
D03*
Y566900D02*
D03*
X802205Y763541D02*
D03*
Y755741D02*
D03*
X901000Y712900D02*
D03*
Y705100D02*
D03*
D52*
X998250Y733250D02*
D03*
Y766750D02*
D03*
X983750D02*
D03*
Y733250D02*
D03*
D53*
X140000Y1307141D02*
D03*
Y935713D02*
D03*
Y192857D02*
D03*
Y564285D02*
D03*
D54*
X1445998Y1411448D02*
D03*
Y1225734D02*
D03*
X1260284Y1411448D02*
D03*
Y1225734D02*
D03*
X1445998Y1040020D02*
D03*
Y854306D02*
D03*
X1260284Y1040020D02*
D03*
X1260284Y854306D02*
D03*
X1074570Y1411448D02*
D03*
Y1225734D02*
D03*
X888856Y1411448D02*
D03*
Y1225734D02*
D03*
X1074570Y1040020D02*
D03*
X1074570Y854306D02*
D03*
X888856Y1040020D02*
D03*
X888856Y854306D02*
D03*
X1445998Y668592D02*
D03*
Y482878D02*
D03*
X1260284Y668592D02*
D03*
Y482878D02*
D03*
X1445998Y297164D02*
D03*
Y111450D02*
D03*
X1260284Y297164D02*
D03*
Y111450D02*
D03*
X1074570Y668592D02*
D03*
X1074570Y482878D02*
D03*
X888856Y668592D02*
D03*
Y482878D02*
D03*
X1074570Y297164D02*
D03*
Y111450D02*
D03*
X888856Y297164D02*
D03*
Y111450D02*
D03*
X703142Y1411448D02*
D03*
Y1225734D02*
D03*
X517428Y1411448D02*
D03*
Y1225734D02*
D03*
X703142Y1040020D02*
D03*
X703142Y854306D02*
D03*
X517428Y1040020D02*
D03*
X331714D02*
D03*
X517428Y854306D02*
D03*
X331714D02*
D03*
X331714Y1411448D02*
D03*
Y1225734D02*
D03*
X146000Y1411448D02*
D03*
Y1225734D02*
D03*
Y1040020D02*
D03*
X146000Y854306D02*
D03*
X703142Y668592D02*
D03*
X703142Y482878D02*
D03*
X517428Y668592D02*
D03*
X331714D02*
D03*
X517428Y482878D02*
D03*
X331714D02*
D03*
X703142Y297164D02*
D03*
Y111450D02*
D03*
X517428Y297164D02*
D03*
X331714D02*
D03*
X517428Y111450D02*
D03*
X331714D02*
D03*
X146000Y668592D02*
D03*
Y482878D02*
D03*
Y297164D02*
D03*
Y111450D02*
D03*
X1074570Y831406D02*
D03*
X1062570Y854306D02*
D03*
Y831406D02*
D03*
X146000Y274264D02*
D03*
X134000Y297164D02*
D03*
Y274264D02*
D03*
X331714Y88550D02*
D03*
X319714Y111450D02*
D03*
Y88550D02*
D03*
X888856D02*
D03*
X876856Y111450D02*
D03*
Y88550D02*
D03*
X1445998Y274264D02*
D03*
X1433998Y297164D02*
D03*
Y274264D02*
D03*
X1260284D02*
D03*
X1248284Y297164D02*
D03*
Y274264D02*
D03*
X1074570D02*
D03*
X1062570Y297164D02*
D03*
Y274264D02*
D03*
X888856D02*
D03*
X876856Y297164D02*
D03*
Y274264D02*
D03*
X703142D02*
D03*
X691142Y297164D02*
D03*
Y274264D02*
D03*
X517428D02*
D03*
X505428Y297164D02*
D03*
Y274264D02*
D03*
X331714D02*
D03*
X319714Y297164D02*
D03*
Y274264D02*
D03*
X146000Y459978D02*
D03*
X134000Y482878D02*
D03*
Y459978D02*
D03*
X331714D02*
D03*
X319714Y482878D02*
D03*
Y459978D02*
D03*
X517428D02*
D03*
X505428Y482878D02*
D03*
Y459978D02*
D03*
X703142D02*
D03*
X691142Y482878D02*
D03*
Y459978D02*
D03*
X888856D02*
D03*
X876856Y482878D02*
D03*
Y459978D02*
D03*
X1074570D02*
D03*
X1062570Y482878D02*
D03*
Y459978D02*
D03*
X1260284D02*
D03*
X1248284Y482878D02*
D03*
Y459978D02*
D03*
X1445998D02*
D03*
X1433998Y482878D02*
D03*
Y459978D02*
D03*
X1445998Y645692D02*
D03*
X1433998Y668592D02*
D03*
Y645692D02*
D03*
X1260284D02*
D03*
X1248284Y668592D02*
D03*
Y645692D02*
D03*
X1074570D02*
D03*
X1062570Y668592D02*
D03*
Y645692D02*
D03*
X888856D02*
D03*
X876856Y668592D02*
D03*
Y645692D02*
D03*
X703142D02*
D03*
X691142Y668592D02*
D03*
Y645692D02*
D03*
X517428D02*
D03*
X505428Y668592D02*
D03*
Y645692D02*
D03*
X331714D02*
D03*
X319714Y668592D02*
D03*
Y645692D02*
D03*
X146000D02*
D03*
X134000Y668592D02*
D03*
Y645692D02*
D03*
X146000Y831406D02*
D03*
X134000Y854306D02*
D03*
Y831406D02*
D03*
X331714D02*
D03*
X319714Y854306D02*
D03*
Y831406D02*
D03*
X517428D02*
D03*
X505428Y854306D02*
D03*
Y831406D02*
D03*
X703142D02*
D03*
X691142Y854306D02*
D03*
Y831406D02*
D03*
X888856D02*
D03*
X876856Y854306D02*
D03*
Y831406D02*
D03*
X1260284D02*
D03*
X1248284Y854306D02*
D03*
Y831406D02*
D03*
X1445998D02*
D03*
X1433998Y854306D02*
D03*
Y831406D02*
D03*
X1445998Y1017120D02*
D03*
X1433998Y1040020D02*
D03*
Y1017120D02*
D03*
X1260284D02*
D03*
X1248284Y1040020D02*
D03*
Y1017120D02*
D03*
X1074570D02*
D03*
X1062570Y1040020D02*
D03*
Y1017120D02*
D03*
X888856D02*
D03*
X876856Y1040020D02*
D03*
Y1017120D02*
D03*
X703142D02*
D03*
X691142Y1040020D02*
D03*
Y1017120D02*
D03*
X517428D02*
D03*
X505428Y1040020D02*
D03*
Y1017120D02*
D03*
X331714D02*
D03*
X319714Y1040020D02*
D03*
Y1017120D02*
D03*
X146000D02*
D03*
X134000Y1040020D02*
D03*
Y1017120D02*
D03*
X146000Y1202834D02*
D03*
X134000Y1225734D02*
D03*
Y1202834D02*
D03*
X331714D02*
D03*
X319714Y1225734D02*
D03*
Y1202834D02*
D03*
X517428D02*
D03*
X505428Y1225734D02*
D03*
Y1202834D02*
D03*
X703142D02*
D03*
X691142Y1225734D02*
D03*
Y1202834D02*
D03*
X888856D02*
D03*
X876856Y1225734D02*
D03*
Y1202834D02*
D03*
X1074570D02*
D03*
X1062570Y1225734D02*
D03*
Y1202834D02*
D03*
X1260284D02*
D03*
X1248284Y1225734D02*
D03*
Y1202834D02*
D03*
X1445998D02*
D03*
X1433998Y1225734D02*
D03*
Y1202834D02*
D03*
X1445998Y1388548D02*
D03*
X1433998Y1411448D02*
D03*
Y1388548D02*
D03*
X1260284D02*
D03*
X1248284Y1411448D02*
D03*
Y1388548D02*
D03*
X1074570D02*
D03*
X1062570Y1411448D02*
D03*
Y1388548D02*
D03*
X888856D02*
D03*
X876856Y1411448D02*
D03*
Y1388548D02*
D03*
X703142D02*
D03*
X691142Y1411448D02*
D03*
Y1388548D02*
D03*
X517428D02*
D03*
X505428Y1411448D02*
D03*
Y1388548D02*
D03*
X331714D02*
D03*
X319714Y1411448D02*
D03*
Y1388548D02*
D03*
X146000D02*
D03*
X134000Y1411448D02*
D03*
Y1388548D02*
D03*
X1445998Y88550D02*
D03*
X1433998Y111450D02*
D03*
Y88550D02*
D03*
X1260284D02*
D03*
X1248284Y111450D02*
D03*
Y88550D02*
D03*
X1074570D02*
D03*
X1062570Y111450D02*
D03*
Y88550D02*
D03*
X703142D02*
D03*
X691142Y111450D02*
D03*
Y88550D02*
D03*
X517428D02*
D03*
X505428Y111450D02*
D03*
Y88550D02*
D03*
X146000D02*
D03*
X134000Y111450D02*
D03*
Y88550D02*
D03*
D55*
X77000Y221000D02*
D03*
Y228500D02*
D03*
X68000Y221000D02*
D03*
Y228500D02*
D03*
X59000Y76750D02*
D03*
Y69250D02*
D03*
D56*
X121000Y1314641D02*
D03*
Y943213D02*
D03*
Y571785D02*
D03*
Y200357D02*
D03*
Y923213D02*
D03*
Y928213D02*
D03*
Y933213D02*
D03*
Y938213D02*
D03*
Y948213D02*
D03*
X159000D02*
D03*
Y943213D02*
D03*
Y938213D02*
D03*
Y933213D02*
D03*
Y928213D02*
D03*
Y923213D02*
D03*
X121000Y180357D02*
D03*
Y185357D02*
D03*
Y190357D02*
D03*
Y195357D02*
D03*
Y205357D02*
D03*
X159000D02*
D03*
Y200357D02*
D03*
Y195357D02*
D03*
Y190357D02*
D03*
Y185357D02*
D03*
Y180357D02*
D03*
X121000Y1294641D02*
D03*
Y1299641D02*
D03*
Y1304641D02*
D03*
Y1309641D02*
D03*
Y1319641D02*
D03*
X159000D02*
D03*
Y1314641D02*
D03*
Y1309641D02*
D03*
Y1304641D02*
D03*
Y1299641D02*
D03*
Y1294641D02*
D03*
X121000Y551785D02*
D03*
Y556785D02*
D03*
Y561785D02*
D03*
Y566785D02*
D03*
Y576785D02*
D03*
X159000D02*
D03*
Y571785D02*
D03*
Y566785D02*
D03*
Y561785D02*
D03*
Y556785D02*
D03*
Y551785D02*
D03*
D57*
X74000Y239000D02*
D03*
X70000D02*
D03*
X74000Y243000D02*
D03*
X70000D02*
D03*
D58*
X75000Y206750D02*
D03*
X65000D02*
D03*
X70000D02*
D03*
X80000D02*
D03*
X85000D02*
D03*
Y177250D02*
D03*
X80000D02*
D03*
X75000D02*
D03*
X70000D02*
D03*
X65000D02*
D03*
D59*
X1078920Y842856D02*
D03*
X1058220D02*
D03*
X150350Y285714D02*
D03*
X129650D02*
D03*
X336064Y100000D02*
D03*
X315364D02*
D03*
X893206D02*
D03*
X872506D02*
D03*
X1450348Y285714D02*
D03*
X1429648D02*
D03*
X1264634D02*
D03*
X1243934D02*
D03*
X1078920D02*
D03*
X1058220D02*
D03*
X893206D02*
D03*
X872506D02*
D03*
X707492D02*
D03*
X686792D02*
D03*
X521778D02*
D03*
X501078D02*
D03*
X336064D02*
D03*
X315364D02*
D03*
X150350Y471428D02*
D03*
X129650D02*
D03*
X336064D02*
D03*
X315364D02*
D03*
X521778D02*
D03*
X501078D02*
D03*
X707492D02*
D03*
X686792D02*
D03*
X893206D02*
D03*
X872506D02*
D03*
X1078920D02*
D03*
X1058220D02*
D03*
X1264634D02*
D03*
X1243934D02*
D03*
X1450348D02*
D03*
X1429648D02*
D03*
X1450348Y657142D02*
D03*
X1429648D02*
D03*
X1264634D02*
D03*
X1243934D02*
D03*
X1078920D02*
D03*
X1058220D02*
D03*
X893206D02*
D03*
X872506D02*
D03*
X707492D02*
D03*
X686792D02*
D03*
X521778D02*
D03*
X501078D02*
D03*
X336064D02*
D03*
X315364D02*
D03*
X150350D02*
D03*
X129650D02*
D03*
X150350Y842856D02*
D03*
X129650D02*
D03*
X336064D02*
D03*
X315364D02*
D03*
X521778D02*
D03*
X501078D02*
D03*
X707492D02*
D03*
X686792D02*
D03*
X893206D02*
D03*
X872506D02*
D03*
X1264634D02*
D03*
X1243934D02*
D03*
X1450348D02*
D03*
X1429648D02*
D03*
X1450348Y1028570D02*
D03*
X1429648D02*
D03*
X1264634D02*
D03*
X1243934D02*
D03*
X1078920D02*
D03*
X1058220D02*
D03*
X893206D02*
D03*
X872506D02*
D03*
X707492D02*
D03*
X686792D02*
D03*
X521778D02*
D03*
X501078D02*
D03*
X336064D02*
D03*
X315364D02*
D03*
X150350D02*
D03*
X129650D02*
D03*
X150350Y1214284D02*
D03*
X129650D02*
D03*
X336064D02*
D03*
X315364D02*
D03*
X521778D02*
D03*
X501078D02*
D03*
X707492D02*
D03*
X686792D02*
D03*
X893206D02*
D03*
X872506D02*
D03*
X1078920D02*
D03*
X1058220D02*
D03*
X1264634D02*
D03*
X1243934D02*
D03*
X1450348D02*
D03*
X1429648D02*
D03*
X1450348Y1399998D02*
D03*
X1429648D02*
D03*
X1264634D02*
D03*
X1243934D02*
D03*
X1078920D02*
D03*
X1058220D02*
D03*
X893206D02*
D03*
X872506D02*
D03*
X707492D02*
D03*
X686792D02*
D03*
X521778D02*
D03*
X501078D02*
D03*
X336064D02*
D03*
X315364D02*
D03*
X150350D02*
D03*
X129650D02*
D03*
X1450348Y100000D02*
D03*
X1429648D02*
D03*
X1264634D02*
D03*
X1243934D02*
D03*
X1078920D02*
D03*
X1058220D02*
D03*
X707492D02*
D03*
X686792D02*
D03*
X521778D02*
D03*
X501078D02*
D03*
X150350D02*
D03*
X129650D02*
D03*
D60*
X76255Y254540D02*
D03*
X68455D02*
D03*
X89900Y165000D02*
D03*
X82100D02*
D03*
D61*
X71000Y155000D02*
D03*
X63000D02*
D03*
X71000Y165000D02*
D03*
X63000D02*
D03*
X879205Y765641D02*
D03*
X871205D02*
D03*
X879205Y756641D02*
D03*
X871205D02*
D03*
X879205Y747641D02*
D03*
X871205D02*
D03*
D62*
X127500Y954713D02*
D03*
X132500D02*
D03*
X137500D02*
D03*
X142500D02*
D03*
X147500D02*
D03*
X152500D02*
D03*
Y916713D02*
D03*
X147500D02*
D03*
X142500D02*
D03*
X137500D02*
D03*
X132500D02*
D03*
X127500D02*
D03*
Y211857D02*
D03*
X132500D02*
D03*
X137500D02*
D03*
X142500D02*
D03*
X147500D02*
D03*
X152500D02*
D03*
Y173857D02*
D03*
X147500D02*
D03*
X142500D02*
D03*
X137500D02*
D03*
X132500D02*
D03*
X127500D02*
D03*
Y1326141D02*
D03*
X132500D02*
D03*
X137500D02*
D03*
X142500D02*
D03*
X147500D02*
D03*
X152500D02*
D03*
Y1288141D02*
D03*
X147500D02*
D03*
X142500D02*
D03*
X137500D02*
D03*
X132500D02*
D03*
X127500D02*
D03*
Y583285D02*
D03*
X132500D02*
D03*
X137500D02*
D03*
X142500D02*
D03*
X147500D02*
D03*
X152500D02*
D03*
Y545285D02*
D03*
X147500D02*
D03*
X142500D02*
D03*
X137500D02*
D03*
X132500D02*
D03*
X127500D02*
D03*
D63*
X821205Y701641D02*
D03*
Y709641D02*
D03*
X830205Y701641D02*
D03*
Y709641D02*
D03*
D64*
X829705Y787641D02*
D03*
X816705D02*
D03*
D65*
X890500Y735000D02*
D03*
X875500Y705000D02*
D03*
X880500D02*
D03*
X885500D02*
D03*
X890500D02*
D03*
X875500Y735000D02*
D03*
X880500D02*
D03*
X885500D02*
D03*
D66*
X883000Y720000D02*
D03*
D67*
X913000Y704500D02*
D03*
Y717500D02*
D03*
D68*
X769622Y754050D02*
D03*
X776377Y757950D02*
D03*
D69*
X732750Y766629D02*
D03*
X739250Y755371D02*
D03*
D70*
X794378Y732050D02*
D03*
X787623Y735950D02*
D03*
D71*
X801955Y694012D02*
D03*
X808455Y705270D02*
D03*
D72*
X935650Y750000D02*
D03*
Y762700D02*
D03*
X948350D02*
D03*
Y750000D02*
D03*
X935650Y737300D02*
D03*
X948350D02*
D03*
D73*
X12500Y242500D02*
D03*
Y237500D02*
D03*
Y232500D02*
D03*
Y227500D02*
D03*
Y222500D02*
D03*
Y217500D02*
D03*
Y212500D02*
D03*
Y207500D02*
D03*
Y202500D02*
D03*
Y197500D02*
D03*
Y192500D02*
D03*
Y187500D02*
D03*
Y182500D02*
D03*
Y177500D02*
D03*
Y172500D02*
D03*
Y167500D02*
D03*
Y162500D02*
D03*
Y157500D02*
D03*
Y152500D02*
D03*
Y147500D02*
D03*
Y142500D02*
D03*
Y137500D02*
D03*
Y112500D02*
D03*
Y107500D02*
D03*
Y102500D02*
D03*
Y97500D02*
D03*
Y92500D02*
D03*
Y87500D02*
D03*
Y82500D02*
D03*
Y77500D02*
D03*
Y72500D02*
D03*
Y67500D02*
D03*
Y62500D02*
D03*
Y57500D02*
D03*
D74*
X931840Y775400D02*
D03*
X952160D02*
D03*
X942000Y724600D02*
D03*
M02*
