G04*
G04 #@! TF.GenerationSoftware,Altium Limited,Altium NEXUS,5.8.2 (18)*
G04*
G04 Layer_Color=32896*
%FSLAX44Y44*%
%MOMM*%
G71*
G04*
G04 #@! TF.SameCoordinates,3A4C7DAC-53F9-47BC-B828-E3EBBCC91193*
G04*
G04*
G04 #@! TF.FilePolarity,Positive*
G04*
G01*
G75*
%ADD84C,0.0000*%
D84*
X29000Y117750D02*
G03*
X35000Y123750I0J6000D01*
G01*
X35000D02*
G03*
X29000Y129750I-6000J0D01*
G01*
X35000Y249250D02*
G03*
X39999Y254250I-0J5000D01*
G01*
X39999Y736000D02*
G03*
X54000Y749999I0J14000D01*
G01*
X54000Y749999D02*
G03*
X39999Y763999I-14000J0D01*
G01*
X39999Y1385999D02*
G03*
X54000Y1400000I0J14000D01*
G01*
X54000Y1400000D02*
G03*
X39999Y1413999I-14000J0D01*
G01*
X125999Y1500000D02*
G03*
X140000Y1486001I14000J0D01*
G01*
D02*
G03*
X154000Y1500000I0J14000D01*
G01*
X776000Y1500000D02*
G03*
X789999Y1486001I14000J0D01*
G01*
D02*
G03*
X803999Y1500000I0J14000D01*
G01*
X1425999Y1500000D02*
G03*
X1440000Y1486001I14000J0D01*
G01*
D02*
G03*
X1453999Y1500000I0J14000D01*
G01*
X1540000Y1414000D02*
G03*
X1526001Y1400000I0J-14000D01*
G01*
Y1400000D02*
G03*
X1540000Y1386001I14000J-0D01*
G01*
X1540000Y764000D02*
G03*
X1526001Y750001I0J-14000D01*
G01*
Y750000D02*
G03*
X1540000Y736001I14000J-0D01*
G01*
X1540000Y114001D02*
G03*
X1526001Y100000I0J-14000D01*
G01*
Y100000D02*
G03*
X1540000Y86000I14000J-0D01*
G01*
X1454000Y-0D02*
G03*
X1440000Y14000I-14000J0D01*
G01*
Y14000D02*
G03*
X1426000Y-0I-0J-14000D01*
G01*
X804000Y-0D02*
G03*
X790001Y14000I-14000J0D01*
G01*
Y14000D02*
G03*
X776001Y-0I-0J-14000D01*
G01*
X154001Y-0D02*
G03*
X140000Y14000I-14000J0D01*
G01*
Y14000D02*
G03*
X126000Y-0I-0J-14000D01*
G01*
X40000Y45750D02*
G03*
X35000Y50750I-5000J0D01*
G01*
X0Y50750D02*
Y117750D01*
X29000D01*
X0Y129750D02*
X29000D01*
X0D02*
Y249250D01*
X35000D01*
X39999Y254250D02*
X39999Y720000D01*
Y736000D01*
Y763999D02*
Y1385999D01*
Y1413999D02*
X40000Y1430000D01*
X39999Y1490000D02*
X40000Y1430000D01*
X39999Y1490000D02*
X50001Y1500000D01*
X125999D01*
X154000D02*
X170000Y1500000D01*
X759999Y1500000D01*
X776000D01*
X803999D02*
X1425999D01*
X1453999D02*
X1470000Y1500000D01*
X1530000D01*
X1540000Y1490000D01*
Y1414000D02*
Y1490000D01*
Y764000D02*
Y1386001D01*
Y114001D02*
Y736001D01*
Y10000D02*
Y86000D01*
X1530000Y-0D02*
X1540000Y10000D01*
X1454000Y-0D02*
X1530000D01*
X804000D02*
X1426000D01*
X154001D02*
X776001D01*
X50000Y0D02*
X126000D01*
X40000Y10000D02*
X50000Y0D01*
X40000Y10000D02*
Y45750D01*
X0Y50750D02*
X35000D01*
M02*
