G04*
G04 #@! TF.GenerationSoftware,Altium Limited,Altium NEXUS,5.8.2 (18)*
G04*
G04 Layer_Color=32896*
%FSLAX44Y44*%
%MOMM*%
G71*
G04*
G04 #@! TF.SameCoordinates,3A4C7DAC-53F9-47BC-B828-E3EBBCC91193*
G04*
G04*
G04 #@! TF.FilePolarity,Positive*
G04*
G01*
G75*
%ADD14C,0.1500*%
G36*
X1526967Y521689D02*
X1525229D01*
Y525415D01*
X1525138Y525354D01*
X1525039Y525293D01*
X1524955Y525232D01*
X1524879Y525172D01*
X1524810Y525118D01*
X1524757Y525072D01*
X1524726Y525042D01*
X1524711Y525034D01*
X1524658Y524981D01*
X1524589Y524912D01*
X1524513Y524836D01*
X1524429Y524752D01*
X1524254Y524570D01*
X1524071Y524379D01*
X1523903Y524196D01*
X1523835Y524120D01*
X1523766Y524051D01*
X1523713Y523990D01*
X1523675Y523945D01*
X1523644Y523914D01*
X1523637Y523907D01*
X1523484Y523746D01*
X1523347Y523594D01*
X1523217Y523465D01*
X1523096Y523335D01*
X1522989Y523228D01*
X1522882Y523129D01*
X1522791Y523038D01*
X1522707Y522962D01*
X1522631Y522893D01*
X1522570Y522832D01*
X1522509Y522786D01*
X1522471Y522748D01*
X1522433Y522718D01*
X1522410Y522695D01*
X1522395Y522680D01*
X1522387D01*
X1522143Y522505D01*
X1521915Y522344D01*
X1521701Y522223D01*
X1521610Y522162D01*
X1521518Y522116D01*
X1521434Y522070D01*
X1521358Y522032D01*
X1521297Y522001D01*
X1521236Y521979D01*
X1521198Y521956D01*
X1521160Y521941D01*
X1521145Y521933D01*
X1521137D01*
X1520909Y521849D01*
X1520688Y521788D01*
X1520474Y521750D01*
X1520284Y521720D01*
X1520200Y521712D01*
X1520124Y521704D01*
X1520055Y521697D01*
X1519994Y521689D01*
X1519948D01*
X1519910D01*
X1519888D01*
X1519880D01*
X1519667Y521697D01*
X1519461Y521727D01*
X1519270Y521765D01*
X1519088Y521819D01*
X1518920Y521880D01*
X1518760Y521948D01*
X1518615Y522024D01*
X1518478Y522101D01*
X1518356Y522184D01*
X1518249Y522253D01*
X1518158Y522329D01*
X1518082Y522390D01*
X1518021Y522444D01*
X1517983Y522482D01*
X1517952Y522512D01*
X1517944Y522520D01*
X1517807Y522680D01*
X1517685Y522855D01*
X1517579Y523038D01*
X1517487Y523221D01*
X1517411Y523411D01*
X1517350Y523602D01*
X1517297Y523785D01*
X1517259Y523960D01*
X1517228Y524135D01*
X1517198Y524287D01*
X1517182Y524432D01*
X1517175Y524554D01*
X1517167Y524653D01*
X1517160Y524729D01*
Y524790D01*
X1517167Y525034D01*
X1517190Y525263D01*
X1517221Y525484D01*
X1517266Y525690D01*
X1517320Y525888D01*
X1517373Y526063D01*
X1517434Y526231D01*
X1517495Y526383D01*
X1517563Y526520D01*
X1517624Y526642D01*
X1517678Y526749D01*
X1517731Y526833D01*
X1517777Y526901D01*
X1517807Y526954D01*
X1517830Y526985D01*
X1517838Y526993D01*
X1517975Y527145D01*
X1518127Y527290D01*
X1518295Y527412D01*
X1518470Y527526D01*
X1518645Y527617D01*
X1518836Y527709D01*
X1519019Y527777D01*
X1519194Y527839D01*
X1519369Y527892D01*
X1519529Y527930D01*
X1519674Y527968D01*
X1519804Y527991D01*
X1519910Y528006D01*
X1519987Y528021D01*
X1520017D01*
X1520040Y528029D01*
X1520048D01*
X1520055D01*
X1520238Y526162D01*
X1520093Y526147D01*
X1519956Y526132D01*
X1519827Y526109D01*
X1519712Y526078D01*
X1519606Y526048D01*
X1519514Y526010D01*
X1519423Y525979D01*
X1519347Y525941D01*
X1519286Y525911D01*
X1519225Y525880D01*
X1519179Y525850D01*
X1519141Y525819D01*
X1519110Y525796D01*
X1519088Y525781D01*
X1519080Y525766D01*
X1519072D01*
X1519011Y525697D01*
X1518950Y525629D01*
X1518866Y525476D01*
X1518798Y525324D01*
X1518760Y525172D01*
X1518729Y525042D01*
X1518722Y524981D01*
Y524935D01*
X1518714Y524889D01*
Y524729D01*
X1518729Y524623D01*
X1518767Y524440D01*
X1518821Y524280D01*
X1518882Y524150D01*
X1518950Y524044D01*
X1519004Y523968D01*
X1519026Y523945D01*
X1519042Y523922D01*
X1519049Y523907D01*
X1519057D01*
X1519126Y523846D01*
X1519194Y523792D01*
X1519347Y523708D01*
X1519507Y523647D01*
X1519659Y523609D01*
X1519804Y523579D01*
X1519865Y523571D01*
X1519910D01*
X1519956Y523564D01*
X1519987D01*
X1520009D01*
X1520017D01*
X1520124Y523571D01*
X1520231Y523579D01*
X1520436Y523625D01*
X1520627Y523686D01*
X1520802Y523754D01*
X1520878Y523792D01*
X1520947Y523830D01*
X1521008Y523861D01*
X1521061Y523891D01*
X1521099Y523914D01*
X1521137Y523937D01*
X1521152Y523945D01*
X1521160Y523952D01*
X1521244Y524021D01*
X1521351Y524105D01*
X1521465Y524204D01*
X1521587Y524318D01*
X1521716Y524440D01*
X1521853Y524570D01*
X1522120Y524836D01*
X1522242Y524966D01*
X1522364Y525088D01*
X1522471Y525202D01*
X1522570Y525301D01*
X1522646Y525385D01*
X1522707Y525453D01*
X1522745Y525491D01*
X1522760Y525507D01*
X1523027Y525789D01*
X1523279Y526048D01*
X1523515Y526284D01*
X1523743Y526505D01*
X1523949Y526696D01*
X1524140Y526871D01*
X1524315Y527023D01*
X1524475Y527153D01*
X1524620Y527267D01*
X1524742Y527366D01*
X1524848Y527442D01*
X1524940Y527511D01*
X1525008Y527556D01*
X1525062Y527595D01*
X1525092Y527610D01*
X1525100Y527617D01*
X1525267Y527709D01*
X1525435Y527793D01*
X1525603Y527869D01*
X1525763Y527938D01*
X1525923Y527999D01*
X1526075Y528052D01*
X1526227Y528090D01*
X1526365Y528128D01*
X1526494Y528158D01*
X1526608Y528189D01*
X1526715Y528212D01*
X1526799Y528227D01*
X1526868Y528235D01*
X1526921Y528242D01*
X1526951Y528250D01*
X1526967D01*
Y521689D01*
D02*
G37*
G36*
X1500214Y528204D02*
X1500496Y528143D01*
X1500763Y528067D01*
X1500999Y527983D01*
X1501228Y527892D01*
X1501434Y527793D01*
X1501616Y527694D01*
X1501784Y527587D01*
X1501936Y527488D01*
X1502066Y527389D01*
X1502173Y527305D01*
X1502264Y527229D01*
X1502333Y527160D01*
X1502386Y527115D01*
X1502417Y527076D01*
X1502424Y527069D01*
X1502576Y526871D01*
X1502706Y526665D01*
X1502820Y526436D01*
X1502919Y526208D01*
X1503003Y525972D01*
X1503072Y525735D01*
X1503125Y525499D01*
X1503171Y525278D01*
X1503209Y525065D01*
X1503232Y524867D01*
X1503255Y524684D01*
X1503262Y524531D01*
X1503270Y524463D01*
Y524402D01*
X1503277Y524348D01*
Y524227D01*
X1503270Y523990D01*
X1503262Y523769D01*
X1503247Y523556D01*
X1503224Y523358D01*
X1503194Y523167D01*
X1503163Y522992D01*
X1503133Y522832D01*
X1503102Y522687D01*
X1503072Y522558D01*
X1503041Y522436D01*
X1503011Y522337D01*
X1502980Y522253D01*
X1502957Y522184D01*
X1502942Y522139D01*
X1502927Y522108D01*
Y522101D01*
X1502858Y521948D01*
X1502775Y521796D01*
X1502691Y521659D01*
X1502607Y521537D01*
X1502516Y521415D01*
X1502424Y521308D01*
X1502333Y521209D01*
X1502249Y521118D01*
X1502165Y521041D01*
X1502089Y520973D01*
X1502020Y520919D01*
X1501959Y520866D01*
X1501906Y520828D01*
X1501868Y520805D01*
X1501845Y520790D01*
X1501837Y520782D01*
X1501700Y520699D01*
X1501555Y520630D01*
X1501418Y520561D01*
X1501281Y520508D01*
X1501144Y520462D01*
X1501014Y520424D01*
X1500885Y520394D01*
X1500771Y520371D01*
X1500664Y520348D01*
X1500565Y520333D01*
X1500473Y520325D01*
X1500405Y520317D01*
X1500344Y520310D01*
X1500298D01*
X1500268D01*
X1500260D01*
X1500092Y520317D01*
X1499925Y520325D01*
X1499772Y520348D01*
X1499628Y520371D01*
X1499490Y520401D01*
X1499361Y520432D01*
X1499239Y520470D01*
X1499132Y520508D01*
X1499041Y520546D01*
X1498949Y520584D01*
X1498881Y520615D01*
X1498820Y520645D01*
X1498766Y520668D01*
X1498736Y520691D01*
X1498713Y520699D01*
X1498705Y520706D01*
X1498484Y520866D01*
X1498279Y521041D01*
X1498111Y521217D01*
X1497966Y521392D01*
X1497905Y521476D01*
X1497860Y521544D01*
X1497814Y521613D01*
X1497776Y521674D01*
X1497745Y521720D01*
X1497722Y521758D01*
X1497715Y521781D01*
X1497707Y521788D01*
X1497639Y521925D01*
X1497570Y522078D01*
X1497509Y522238D01*
X1497441Y522413D01*
X1497326Y522763D01*
X1497273Y522939D01*
X1497220Y523106D01*
X1497174Y523274D01*
X1497128Y523419D01*
X1497098Y523556D01*
X1497067Y523678D01*
X1497037Y523777D01*
X1497021Y523853D01*
X1497014Y523876D01*
X1497006Y523899D01*
Y523914D01*
X1496945Y524173D01*
X1496877Y524402D01*
X1496816Y524615D01*
X1496762Y524806D01*
X1496702Y524973D01*
X1496648Y525118D01*
X1496595Y525248D01*
X1496549Y525362D01*
X1496503Y525453D01*
X1496465Y525530D01*
X1496435Y525598D01*
X1496404Y525644D01*
X1496381Y525682D01*
X1496366Y525705D01*
X1496351Y525720D01*
Y525728D01*
X1496252Y525827D01*
X1496153Y525895D01*
X1496054Y525949D01*
X1495962Y525979D01*
X1495878Y526002D01*
X1495818Y526010D01*
X1495772Y526017D01*
X1495757D01*
X1495619Y526002D01*
X1495505Y525972D01*
X1495398Y525918D01*
X1495315Y525857D01*
X1495246Y525804D01*
X1495193Y525751D01*
X1495162Y525720D01*
X1495155Y525705D01*
X1495094Y525613D01*
X1495033Y525507D01*
X1494949Y525293D01*
X1494880Y525072D01*
X1494842Y524851D01*
X1494827Y524752D01*
X1494812Y524661D01*
X1494804Y524577D01*
Y524509D01*
X1494796Y524448D01*
Y524211D01*
X1494812Y524067D01*
X1494827Y523937D01*
X1494850Y523815D01*
X1494873Y523701D01*
X1494903Y523602D01*
X1494934Y523510D01*
X1494964Y523427D01*
X1494995Y523350D01*
X1495025Y523289D01*
X1495056Y523236D01*
X1495078Y523190D01*
X1495101Y523160D01*
X1495116Y523137D01*
X1495124Y523122D01*
X1495132Y523114D01*
X1495200Y523038D01*
X1495269Y522969D01*
X1495437Y522855D01*
X1495612Y522756D01*
X1495795Y522680D01*
X1495955Y522626D01*
X1496023Y522611D01*
X1496084Y522588D01*
X1496138Y522581D01*
X1496176Y522573D01*
X1496198Y522565D01*
X1496206D01*
X1496122Y520592D01*
X1495878Y520615D01*
X1495642Y520653D01*
X1495429Y520699D01*
X1495223Y520767D01*
X1495033Y520843D01*
X1494850Y520927D01*
X1494690Y521011D01*
X1494545Y521102D01*
X1494415Y521194D01*
X1494301Y521278D01*
X1494202Y521354D01*
X1494118Y521430D01*
X1494057Y521491D01*
X1494012Y521537D01*
X1493981Y521567D01*
X1493974Y521575D01*
X1493829Y521758D01*
X1493707Y521963D01*
X1493600Y522177D01*
X1493509Y522398D01*
X1493425Y522626D01*
X1493364Y522855D01*
X1493311Y523084D01*
X1493265Y523305D01*
X1493234Y523518D01*
X1493212Y523708D01*
X1493189Y523884D01*
X1493181Y524036D01*
X1493173Y524105D01*
Y524166D01*
X1493166Y524219D01*
Y524547D01*
X1493181Y524745D01*
X1493196Y524935D01*
X1493219Y525118D01*
X1493242Y525286D01*
X1493273Y525446D01*
X1493303Y525591D01*
X1493333Y525720D01*
X1493371Y525842D01*
X1493402Y525949D01*
X1493432Y526040D01*
X1493455Y526116D01*
X1493478Y526177D01*
X1493493Y526223D01*
X1493501Y526254D01*
X1493509Y526261D01*
X1493577Y526406D01*
X1493646Y526543D01*
X1493730Y526665D01*
X1493806Y526787D01*
X1493890Y526894D01*
X1493974Y526993D01*
X1494057Y527084D01*
X1494133Y527168D01*
X1494210Y527237D01*
X1494278Y527305D01*
X1494339Y527358D01*
X1494393Y527404D01*
X1494438Y527435D01*
X1494469Y527458D01*
X1494492Y527473D01*
X1494499Y527480D01*
X1494621Y527556D01*
X1494743Y527617D01*
X1494865Y527671D01*
X1494987Y527724D01*
X1495223Y527800D01*
X1495437Y527846D01*
X1495536Y527861D01*
X1495619Y527877D01*
X1495703Y527884D01*
X1495764Y527892D01*
X1495818Y527899D01*
X1495863D01*
X1495886D01*
X1495894D01*
X1496107Y527892D01*
X1496313Y527861D01*
X1496503Y527816D01*
X1496686Y527762D01*
X1496862Y527694D01*
X1497021Y527617D01*
X1497174Y527534D01*
X1497311Y527450D01*
X1497433Y527366D01*
X1497540Y527282D01*
X1497639Y527206D01*
X1497715Y527137D01*
X1497776Y527084D01*
X1497822Y527038D01*
X1497852Y527008D01*
X1497860Y527000D01*
X1497966Y526871D01*
X1498065Y526726D01*
X1498165Y526558D01*
X1498248Y526383D01*
X1498416Y526017D01*
X1498561Y525652D01*
X1498622Y525476D01*
X1498675Y525309D01*
X1498721Y525164D01*
X1498759Y525034D01*
X1498789Y524928D01*
X1498812Y524844D01*
X1498820Y524813D01*
Y524790D01*
X1498827Y524783D01*
Y524775D01*
X1498881Y524554D01*
X1498934Y524356D01*
X1498980Y524173D01*
X1499026Y524013D01*
X1499064Y523868D01*
X1499094Y523739D01*
X1499125Y523625D01*
X1499155Y523526D01*
X1499178Y523442D01*
X1499201Y523373D01*
X1499216Y523320D01*
X1499231Y523274D01*
X1499239Y523236D01*
X1499247Y523213D01*
X1499254Y523205D01*
Y523198D01*
X1499323Y523023D01*
X1499391Y522878D01*
X1499460Y522756D01*
X1499529Y522657D01*
X1499589Y522581D01*
X1499635Y522527D01*
X1499666Y522497D01*
X1499673Y522489D01*
X1499772Y522421D01*
X1499871Y522367D01*
X1499970Y522337D01*
X1500062Y522306D01*
X1500146Y522291D01*
X1500207Y522284D01*
X1500252D01*
X1500260D01*
X1500268D01*
X1500367Y522291D01*
X1500466Y522306D01*
X1500557Y522329D01*
X1500641Y522360D01*
X1500801Y522436D01*
X1500946Y522527D01*
X1501053Y522619D01*
X1501106Y522657D01*
X1501144Y522695D01*
X1501174Y522725D01*
X1501197Y522748D01*
X1501205Y522763D01*
X1501212Y522771D01*
X1501281Y522863D01*
X1501342Y522969D01*
X1501395Y523084D01*
X1501441Y523198D01*
X1501510Y523434D01*
X1501555Y523670D01*
X1501578Y523777D01*
X1501586Y523876D01*
X1501593Y523968D01*
X1501601Y524044D01*
X1501609Y524112D01*
Y524204D01*
X1501601Y524371D01*
X1501586Y524524D01*
X1501571Y524669D01*
X1501540Y524806D01*
X1501502Y524935D01*
X1501464Y525050D01*
X1501426Y525156D01*
X1501380Y525255D01*
X1501342Y525347D01*
X1501304Y525423D01*
X1501266Y525484D01*
X1501228Y525537D01*
X1501197Y525583D01*
X1501182Y525613D01*
X1501167Y525629D01*
X1501159Y525636D01*
X1501068Y525728D01*
X1500969Y525819D01*
X1500854Y525895D01*
X1500740Y525964D01*
X1500504Y526086D01*
X1500275Y526177D01*
X1500169Y526215D01*
X1500062Y526246D01*
X1499970Y526276D01*
X1499894Y526292D01*
X1499826Y526307D01*
X1499780Y526322D01*
X1499742Y526330D01*
X1499734D01*
X1499917Y528250D01*
X1500214Y528204D01*
D02*
G37*
G36*
X1515038Y524752D02*
Y522634D01*
X1505269Y519159D01*
Y521262D01*
X1512501Y523640D01*
X1505269Y526116D01*
Y528250D01*
X1515038Y524752D01*
D02*
G37*
G36*
X1522646Y520424D02*
X1522882Y520409D01*
X1523111Y520394D01*
X1523332Y520371D01*
X1523538Y520348D01*
X1523743Y520325D01*
X1523934Y520295D01*
X1524117Y520264D01*
X1524284Y520234D01*
X1524452Y520196D01*
X1524604Y520158D01*
X1524757Y520119D01*
X1524894Y520081D01*
X1525023Y520036D01*
X1525145Y519997D01*
X1525260Y519959D01*
X1525359Y519914D01*
X1525458Y519876D01*
X1525549Y519837D01*
X1525633Y519799D01*
X1525702Y519761D01*
X1525831Y519700D01*
X1525923Y519639D01*
X1525991Y519601D01*
X1526029Y519571D01*
X1526044Y519563D01*
X1526235Y519395D01*
X1526403Y519213D01*
X1526548Y519022D01*
X1526677Y518832D01*
X1526784Y518641D01*
X1526868Y518451D01*
X1526944Y518260D01*
X1526997Y518085D01*
X1527043Y517917D01*
X1527073Y517757D01*
X1527104Y517620D01*
X1527119Y517498D01*
X1527127Y517399D01*
X1527134Y517323D01*
Y517262D01*
X1527119Y517003D01*
X1527088Y516759D01*
X1527043Y516530D01*
X1526974Y516317D01*
X1526906Y516119D01*
X1526822Y515936D01*
X1526730Y515768D01*
X1526631Y515624D01*
X1526540Y515486D01*
X1526448Y515372D01*
X1526365Y515273D01*
X1526288Y515189D01*
X1526227Y515128D01*
X1526182Y515083D01*
X1526144Y515052D01*
X1526136Y515045D01*
X1526014Y514961D01*
X1525892Y514877D01*
X1525618Y514724D01*
X1525321Y514603D01*
X1525001Y514488D01*
X1524673Y514397D01*
X1524345Y514321D01*
X1524010Y514252D01*
X1523690Y514206D01*
X1523378Y514168D01*
X1523096Y514138D01*
X1522958Y514123D01*
X1522829Y514115D01*
X1522715Y514107D01*
X1522600Y514100D01*
X1522501Y514092D01*
X1522417D01*
X1522334Y514084D01*
X1522273D01*
X1522219D01*
X1522181D01*
X1522158D01*
X1522151D01*
X1521892D01*
X1521648Y514092D01*
X1521412Y514107D01*
X1521183Y514123D01*
X1520962Y514145D01*
X1520756Y514176D01*
X1520551Y514199D01*
X1520360Y514237D01*
X1520177Y514267D01*
X1520002Y514305D01*
X1519834Y514343D01*
X1519674Y514389D01*
X1519522Y514427D01*
X1519377Y514473D01*
X1519247Y514519D01*
X1519118Y514564D01*
X1519004Y514610D01*
X1518897Y514656D01*
X1518790Y514694D01*
X1518699Y514740D01*
X1518615Y514785D01*
X1518539Y514823D01*
X1518470Y514862D01*
X1518402Y514892D01*
X1518303Y514953D01*
X1518226Y515006D01*
X1518188Y515037D01*
X1518173Y515045D01*
X1517998Y515205D01*
X1517838Y515372D01*
X1517701Y515547D01*
X1517586Y515730D01*
X1517487Y515913D01*
X1517404Y516096D01*
X1517343Y516279D01*
X1517289Y516454D01*
X1517243Y516622D01*
X1517213Y516774D01*
X1517190Y516911D01*
X1517175Y517026D01*
X1517167Y517125D01*
X1517160Y517201D01*
Y517262D01*
X1517167Y517521D01*
X1517205Y517765D01*
X1517251Y517993D01*
X1517320Y518207D01*
X1517396Y518405D01*
X1517480Y518580D01*
X1517571Y518748D01*
X1517663Y518900D01*
X1517754Y519030D01*
X1517845Y519144D01*
X1517929Y519243D01*
X1518005Y519327D01*
X1518074Y519388D01*
X1518120Y519434D01*
X1518150Y519464D01*
X1518165Y519472D01*
X1518280Y519556D01*
X1518409Y519639D01*
X1518684Y519792D01*
X1518981Y519914D01*
X1519293Y520028D01*
X1519621Y520119D01*
X1519956Y520196D01*
X1520284Y520264D01*
X1520604Y520310D01*
X1520909Y520348D01*
X1521198Y520378D01*
X1521335Y520394D01*
X1521457Y520401D01*
X1521579Y520409D01*
X1521686Y520417D01*
X1521785Y520424D01*
X1521876D01*
X1521953D01*
X1522014Y520432D01*
X1522067D01*
X1522105D01*
X1522128D01*
X1522135D01*
X1522395D01*
X1522646Y520424D01*
D02*
G37*
G36*
X1509308Y517811D02*
X1509209Y517567D01*
X1509102Y517331D01*
X1508988Y517109D01*
X1508866Y516896D01*
X1508752Y516698D01*
X1508630Y516507D01*
X1508515Y516340D01*
X1508409Y516188D01*
X1508310Y516050D01*
X1508218Y515936D01*
X1508142Y515837D01*
X1508073Y515761D01*
X1508020Y515700D01*
X1507990Y515669D01*
X1507982Y515654D01*
X1515038D01*
Y513780D01*
X1505231D01*
Y515304D01*
X1505399Y515372D01*
X1505559Y515448D01*
X1505711Y515532D01*
X1505856Y515624D01*
X1505993Y515723D01*
X1506123Y515814D01*
X1506245Y515913D01*
X1506351Y516012D01*
X1506451Y516104D01*
X1506542Y516195D01*
X1506618Y516271D01*
X1506679Y516348D01*
X1506732Y516401D01*
X1506770Y516447D01*
X1506793Y516477D01*
X1506801Y516485D01*
X1506923Y516645D01*
X1507030Y516797D01*
X1507129Y516950D01*
X1507220Y517094D01*
X1507304Y517231D01*
X1507380Y517361D01*
X1507441Y517483D01*
X1507502Y517597D01*
X1507548Y517704D01*
X1507594Y517795D01*
X1507624Y517872D01*
X1507654Y517940D01*
X1507677Y517993D01*
X1507685Y518039D01*
X1507700Y518062D01*
Y518070D01*
X1509399D01*
X1509308Y517811D01*
D02*
G37*
G36*
X1494979Y516454D02*
X1503095D01*
Y514481D01*
X1494979D01*
Y511593D01*
X1493326D01*
Y519350D01*
X1494979D01*
Y516454D01*
D02*
G37*
G36*
X1515038Y508712D02*
X1513164D01*
Y510587D01*
X1515038D01*
Y508712D01*
D02*
G37*
G36*
X1526967Y506510D02*
X1525229D01*
Y510236D01*
X1525138Y510175D01*
X1525039Y510114D01*
X1524955Y510053D01*
X1524879Y509992D01*
X1524810Y509939D01*
X1524757Y509893D01*
X1524726Y509863D01*
X1524711Y509855D01*
X1524658Y509802D01*
X1524589Y509733D01*
X1524513Y509657D01*
X1524429Y509573D01*
X1524254Y509390D01*
X1524071Y509200D01*
X1523903Y509017D01*
X1523835Y508941D01*
X1523766Y508872D01*
X1523713Y508811D01*
X1523675Y508766D01*
X1523644Y508735D01*
X1523637Y508727D01*
X1523484Y508568D01*
X1523347Y508415D01*
X1523217Y508285D01*
X1523096Y508156D01*
X1522989Y508049D01*
X1522882Y507950D01*
X1522791Y507859D01*
X1522707Y507783D01*
X1522631Y507714D01*
X1522570Y507653D01*
X1522509Y507607D01*
X1522471Y507569D01*
X1522433Y507539D01*
X1522410Y507516D01*
X1522395Y507501D01*
X1522387D01*
X1522143Y507325D01*
X1521915Y507165D01*
X1521701Y507043D01*
X1521610Y506982D01*
X1521518Y506937D01*
X1521434Y506891D01*
X1521358Y506853D01*
X1521297Y506823D01*
X1521236Y506800D01*
X1521198Y506777D01*
X1521160Y506762D01*
X1521145Y506754D01*
X1521137D01*
X1520909Y506670D01*
X1520688Y506609D01*
X1520474Y506571D01*
X1520284Y506541D01*
X1520200Y506533D01*
X1520124Y506525D01*
X1520055Y506518D01*
X1519994Y506510D01*
X1519948D01*
X1519910D01*
X1519888D01*
X1519880D01*
X1519667Y506518D01*
X1519461Y506548D01*
X1519270Y506586D01*
X1519088Y506640D01*
X1518920Y506701D01*
X1518760Y506769D01*
X1518615Y506845D01*
X1518478Y506922D01*
X1518356Y507005D01*
X1518249Y507074D01*
X1518158Y507150D01*
X1518082Y507211D01*
X1518021Y507265D01*
X1517983Y507303D01*
X1517952Y507333D01*
X1517944Y507341D01*
X1517807Y507501D01*
X1517685Y507676D01*
X1517579Y507859D01*
X1517487Y508042D01*
X1517411Y508232D01*
X1517350Y508423D01*
X1517297Y508606D01*
X1517259Y508781D01*
X1517228Y508956D01*
X1517198Y509109D01*
X1517182Y509253D01*
X1517175Y509375D01*
X1517167Y509474D01*
X1517160Y509551D01*
Y509611D01*
X1517167Y509855D01*
X1517190Y510084D01*
X1517221Y510305D01*
X1517266Y510511D01*
X1517320Y510709D01*
X1517373Y510884D01*
X1517434Y511052D01*
X1517495Y511204D01*
X1517563Y511341D01*
X1517624Y511463D01*
X1517678Y511570D01*
X1517731Y511654D01*
X1517777Y511722D01*
X1517807Y511776D01*
X1517830Y511806D01*
X1517838Y511814D01*
X1517975Y511966D01*
X1518127Y512111D01*
X1518295Y512233D01*
X1518470Y512347D01*
X1518645Y512438D01*
X1518836Y512530D01*
X1519019Y512598D01*
X1519194Y512659D01*
X1519369Y512713D01*
X1519529Y512751D01*
X1519674Y512789D01*
X1519804Y512812D01*
X1519910Y512827D01*
X1519987Y512842D01*
X1520017D01*
X1520040Y512850D01*
X1520048D01*
X1520055D01*
X1520238Y510983D01*
X1520093Y510968D01*
X1519956Y510952D01*
X1519827Y510930D01*
X1519712Y510899D01*
X1519606Y510869D01*
X1519514Y510831D01*
X1519423Y510800D01*
X1519347Y510762D01*
X1519286Y510732D01*
X1519225Y510701D01*
X1519179Y510671D01*
X1519141Y510640D01*
X1519110Y510617D01*
X1519088Y510602D01*
X1519080Y510587D01*
X1519072D01*
X1519011Y510518D01*
X1518950Y510450D01*
X1518866Y510297D01*
X1518798Y510145D01*
X1518760Y509992D01*
X1518729Y509863D01*
X1518722Y509802D01*
Y509756D01*
X1518714Y509711D01*
Y509551D01*
X1518729Y509444D01*
X1518767Y509261D01*
X1518821Y509101D01*
X1518882Y508971D01*
X1518950Y508865D01*
X1519004Y508788D01*
X1519026Y508766D01*
X1519042Y508743D01*
X1519049Y508727D01*
X1519057D01*
X1519126Y508666D01*
X1519194Y508613D01*
X1519347Y508529D01*
X1519507Y508468D01*
X1519659Y508430D01*
X1519804Y508400D01*
X1519865Y508392D01*
X1519910D01*
X1519956Y508385D01*
X1519987D01*
X1520009D01*
X1520017D01*
X1520124Y508392D01*
X1520231Y508400D01*
X1520436Y508446D01*
X1520627Y508507D01*
X1520802Y508575D01*
X1520878Y508613D01*
X1520947Y508651D01*
X1521008Y508682D01*
X1521061Y508712D01*
X1521099Y508735D01*
X1521137Y508758D01*
X1521152Y508766D01*
X1521160Y508773D01*
X1521244Y508842D01*
X1521351Y508926D01*
X1521465Y509025D01*
X1521587Y509139D01*
X1521716Y509261D01*
X1521853Y509390D01*
X1522120Y509657D01*
X1522242Y509787D01*
X1522364Y509909D01*
X1522471Y510023D01*
X1522570Y510122D01*
X1522646Y510206D01*
X1522707Y510274D01*
X1522745Y510312D01*
X1522760Y510328D01*
X1523027Y510610D01*
X1523279Y510869D01*
X1523515Y511105D01*
X1523743Y511326D01*
X1523949Y511516D01*
X1524140Y511692D01*
X1524315Y511844D01*
X1524475Y511974D01*
X1524620Y512088D01*
X1524742Y512187D01*
X1524848Y512263D01*
X1524940Y512332D01*
X1525008Y512378D01*
X1525062Y512416D01*
X1525092Y512431D01*
X1525100Y512438D01*
X1525267Y512530D01*
X1525435Y512614D01*
X1525603Y512690D01*
X1525763Y512758D01*
X1525923Y512819D01*
X1526075Y512873D01*
X1526227Y512911D01*
X1526365Y512949D01*
X1526494Y512980D01*
X1526608Y513010D01*
X1526715Y513033D01*
X1526799Y513048D01*
X1526868Y513056D01*
X1526921Y513063D01*
X1526951Y513071D01*
X1526967D01*
Y506510D01*
D02*
G37*
G36*
X1503095Y506502D02*
X1503087Y506358D01*
Y506076D01*
X1503079Y505832D01*
Y505611D01*
X1503072Y505420D01*
X1503064Y505245D01*
Y505100D01*
X1503056Y504978D01*
X1503049Y504879D01*
Y504796D01*
X1503041Y504727D01*
Y504681D01*
X1503034Y504643D01*
Y504620D01*
X1502988Y504338D01*
X1502919Y504079D01*
X1502889Y503965D01*
X1502843Y503858D01*
X1502805Y503759D01*
X1502767Y503668D01*
X1502729Y503584D01*
X1502691Y503515D01*
X1502660Y503447D01*
X1502630Y503401D01*
X1502607Y503355D01*
X1502584Y503325D01*
X1502576Y503310D01*
X1502569Y503302D01*
X1502417Y503112D01*
X1502249Y502944D01*
X1502081Y502791D01*
X1501921Y502670D01*
X1501784Y502578D01*
X1501723Y502540D01*
X1501670Y502502D01*
X1501624Y502479D01*
X1501593Y502464D01*
X1501571Y502449D01*
X1501563D01*
X1501327Y502342D01*
X1501091Y502266D01*
X1500870Y502212D01*
X1500672Y502174D01*
X1500588Y502159D01*
X1500504Y502151D01*
X1500435Y502144D01*
X1500374D01*
X1500329Y502136D01*
X1500291D01*
X1500268D01*
X1500260D01*
X1500108Y502144D01*
X1499955Y502159D01*
X1499810Y502182D01*
X1499673Y502212D01*
X1499544Y502251D01*
X1499422Y502289D01*
X1499308Y502334D01*
X1499208Y502372D01*
X1499117Y502418D01*
X1499033Y502464D01*
X1498957Y502502D01*
X1498904Y502540D01*
X1498850Y502570D01*
X1498820Y502593D01*
X1498797Y502609D01*
X1498789Y502616D01*
X1498675Y502708D01*
X1498568Y502814D01*
X1498469Y502921D01*
X1498385Y503035D01*
X1498302Y503150D01*
X1498226Y503264D01*
X1498165Y503371D01*
X1498103Y503485D01*
X1498058Y503584D01*
X1498012Y503683D01*
X1497974Y503767D01*
X1497951Y503843D01*
X1497928Y503904D01*
X1497913Y503950D01*
X1497898Y503980D01*
Y503988D01*
X1497784Y503767D01*
X1497646Y503561D01*
X1497502Y503394D01*
X1497364Y503249D01*
X1497303Y503188D01*
X1497242Y503142D01*
X1497182Y503096D01*
X1497136Y503058D01*
X1497098Y503028D01*
X1497067Y503005D01*
X1497052Y502997D01*
X1497044Y502990D01*
X1496938Y502921D01*
X1496823Y502868D01*
X1496717Y502814D01*
X1496610Y502776D01*
X1496397Y502708D01*
X1496198Y502662D01*
X1496115Y502647D01*
X1496031Y502639D01*
X1495962Y502624D01*
X1495901D01*
X1495856Y502616D01*
X1495818D01*
X1495795D01*
X1495787D01*
X1495558Y502631D01*
X1495345Y502662D01*
X1495147Y502715D01*
X1494979Y502769D01*
X1494903Y502799D01*
X1494842Y502822D01*
X1494781Y502853D01*
X1494736Y502875D01*
X1494697Y502891D01*
X1494667Y502906D01*
X1494652Y502921D01*
X1494644D01*
X1494461Y503035D01*
X1494301Y503165D01*
X1494164Y503287D01*
X1494042Y503409D01*
X1493951Y503508D01*
X1493882Y503592D01*
X1493859Y503622D01*
X1493844Y503645D01*
X1493829Y503660D01*
Y503668D01*
X1493722Y503843D01*
X1493638Y504018D01*
X1493570Y504186D01*
X1493509Y504346D01*
X1493471Y504483D01*
X1493455Y504544D01*
X1493448Y504590D01*
X1493432Y504636D01*
Y504666D01*
X1493425Y504681D01*
Y504689D01*
X1493410Y504803D01*
X1493394Y504925D01*
X1493379Y505062D01*
X1493364Y505199D01*
X1493349Y505489D01*
X1493341Y505771D01*
X1493333Y505900D01*
Y506022D01*
X1493326Y506129D01*
Y510320D01*
X1503095D01*
Y506502D01*
D02*
G37*
G36*
X1510718Y507196D02*
X1510954Y507181D01*
X1511183Y507165D01*
X1511404Y507142D01*
X1511609Y507120D01*
X1511815Y507097D01*
X1512005Y507066D01*
X1512188Y507036D01*
X1512356Y507005D01*
X1512524Y506967D01*
X1512676Y506929D01*
X1512828Y506891D01*
X1512966Y506853D01*
X1513095Y506807D01*
X1513217Y506769D01*
X1513331Y506731D01*
X1513430Y506685D01*
X1513530Y506647D01*
X1513621Y506609D01*
X1513705Y506571D01*
X1513773Y506533D01*
X1513903Y506472D01*
X1513994Y506411D01*
X1514063Y506373D01*
X1514101Y506342D01*
X1514116Y506335D01*
X1514307Y506167D01*
X1514474Y505984D01*
X1514619Y505794D01*
X1514749Y505603D01*
X1514855Y505413D01*
X1514939Y505222D01*
X1515015Y505032D01*
X1515069Y504856D01*
X1515114Y504689D01*
X1515145Y504529D01*
X1515175Y504392D01*
X1515191Y504270D01*
X1515198Y504171D01*
X1515206Y504095D01*
Y504034D01*
X1515191Y503774D01*
X1515160Y503531D01*
X1515114Y503302D01*
X1515046Y503089D01*
X1514977Y502891D01*
X1514893Y502708D01*
X1514802Y502540D01*
X1514703Y502395D01*
X1514612Y502258D01*
X1514520Y502144D01*
X1514436Y502045D01*
X1514360Y501961D01*
X1514299Y501900D01*
X1514253Y501854D01*
X1514215Y501824D01*
X1514208Y501816D01*
X1514086Y501732D01*
X1513964Y501648D01*
X1513690Y501496D01*
X1513392Y501374D01*
X1513072Y501260D01*
X1512745Y501169D01*
X1512417Y501092D01*
X1512082Y501024D01*
X1511762Y500978D01*
X1511449Y500940D01*
X1511167Y500909D01*
X1511030Y500894D01*
X1510901Y500886D01*
X1510786Y500879D01*
X1510672Y500871D01*
X1510573Y500864D01*
X1510489D01*
X1510405Y500856D01*
X1510344D01*
X1510291D01*
X1510253D01*
X1510230D01*
X1510222D01*
X1509963D01*
X1509720Y500864D01*
X1509483Y500879D01*
X1509255Y500894D01*
X1509034Y500917D01*
X1508828Y500947D01*
X1508622Y500970D01*
X1508432Y501008D01*
X1508249Y501039D01*
X1508073Y501077D01*
X1507906Y501115D01*
X1507746Y501161D01*
X1507594Y501199D01*
X1507449Y501245D01*
X1507319Y501290D01*
X1507190Y501336D01*
X1507075Y501382D01*
X1506969Y501427D01*
X1506862Y501466D01*
X1506770Y501511D01*
X1506687Y501557D01*
X1506611Y501595D01*
X1506542Y501633D01*
X1506473Y501664D01*
X1506374Y501725D01*
X1506298Y501778D01*
X1506260Y501809D01*
X1506245Y501816D01*
X1506069Y501976D01*
X1505909Y502144D01*
X1505772Y502319D01*
X1505658Y502502D01*
X1505559Y502685D01*
X1505475Y502868D01*
X1505414Y503051D01*
X1505361Y503226D01*
X1505315Y503394D01*
X1505285Y503546D01*
X1505262Y503683D01*
X1505246Y503797D01*
X1505239Y503896D01*
X1505231Y503973D01*
Y504034D01*
X1505239Y504293D01*
X1505277Y504537D01*
X1505323Y504765D01*
X1505391Y504978D01*
X1505468Y505177D01*
X1505551Y505352D01*
X1505643Y505519D01*
X1505734Y505672D01*
X1505826Y505801D01*
X1505917Y505916D01*
X1506001Y506015D01*
X1506077Y506099D01*
X1506146Y506160D01*
X1506191Y506205D01*
X1506222Y506236D01*
X1506237Y506243D01*
X1506351Y506327D01*
X1506481Y506411D01*
X1506755Y506563D01*
X1507052Y506685D01*
X1507365Y506800D01*
X1507693Y506891D01*
X1508028Y506967D01*
X1508356Y507036D01*
X1508676Y507082D01*
X1508980Y507120D01*
X1509270Y507150D01*
X1509407Y507165D01*
X1509529Y507173D01*
X1509651Y507181D01*
X1509758Y507188D01*
X1509857Y507196D01*
X1509948D01*
X1510024D01*
X1510085Y507203D01*
X1510139D01*
X1510177D01*
X1510199D01*
X1510207D01*
X1510466D01*
X1510718Y507196D01*
D02*
G37*
G36*
X1526967Y498921D02*
X1525229D01*
Y502647D01*
X1525138Y502586D01*
X1525039Y502525D01*
X1524955Y502464D01*
X1524879Y502403D01*
X1524810Y502350D01*
X1524757Y502304D01*
X1524726Y502273D01*
X1524711Y502266D01*
X1524658Y502212D01*
X1524589Y502144D01*
X1524513Y502068D01*
X1524429Y501984D01*
X1524254Y501801D01*
X1524071Y501610D01*
X1523903Y501427D01*
X1523835Y501351D01*
X1523766Y501283D01*
X1523713Y501222D01*
X1523675Y501176D01*
X1523644Y501146D01*
X1523637Y501138D01*
X1523484Y500978D01*
X1523347Y500826D01*
X1523217Y500696D01*
X1523096Y500566D01*
X1522989Y500460D01*
X1522882Y500361D01*
X1522791Y500269D01*
X1522707Y500193D01*
X1522631Y500125D01*
X1522570Y500064D01*
X1522509Y500018D01*
X1522471Y499980D01*
X1522433Y499949D01*
X1522410Y499926D01*
X1522395Y499911D01*
X1522387D01*
X1522143Y499736D01*
X1521915Y499576D01*
X1521701Y499454D01*
X1521610Y499393D01*
X1521518Y499347D01*
X1521434Y499302D01*
X1521358Y499263D01*
X1521297Y499233D01*
X1521236Y499210D01*
X1521198Y499187D01*
X1521160Y499172D01*
X1521145Y499164D01*
X1521137D01*
X1520909Y499081D01*
X1520688Y499020D01*
X1520474Y498982D01*
X1520284Y498951D01*
X1520200Y498943D01*
X1520124Y498936D01*
X1520055Y498928D01*
X1519994Y498921D01*
X1519948D01*
X1519910D01*
X1519888D01*
X1519880D01*
X1519667Y498928D01*
X1519461Y498959D01*
X1519270Y498997D01*
X1519088Y499050D01*
X1518920Y499111D01*
X1518760Y499180D01*
X1518615Y499256D01*
X1518478Y499332D01*
X1518356Y499416D01*
X1518249Y499484D01*
X1518158Y499561D01*
X1518082Y499622D01*
X1518021Y499675D01*
X1517983Y499713D01*
X1517952Y499743D01*
X1517944Y499751D01*
X1517807Y499911D01*
X1517685Y500086D01*
X1517579Y500269D01*
X1517487Y500452D01*
X1517411Y500643D01*
X1517350Y500833D01*
X1517297Y501016D01*
X1517259Y501191D01*
X1517228Y501367D01*
X1517198Y501519D01*
X1517182Y501664D01*
X1517175Y501786D01*
X1517167Y501885D01*
X1517160Y501961D01*
Y502022D01*
X1517167Y502266D01*
X1517190Y502494D01*
X1517221Y502715D01*
X1517266Y502921D01*
X1517320Y503119D01*
X1517373Y503294D01*
X1517434Y503462D01*
X1517495Y503615D01*
X1517563Y503752D01*
X1517624Y503874D01*
X1517678Y503980D01*
X1517731Y504064D01*
X1517777Y504133D01*
X1517807Y504186D01*
X1517830Y504216D01*
X1517838Y504224D01*
X1517975Y504376D01*
X1518127Y504521D01*
X1518295Y504643D01*
X1518470Y504757D01*
X1518645Y504849D01*
X1518836Y504940D01*
X1519019Y505009D01*
X1519194Y505070D01*
X1519369Y505123D01*
X1519529Y505161D01*
X1519674Y505199D01*
X1519804Y505222D01*
X1519910Y505238D01*
X1519987Y505253D01*
X1520017D01*
X1520040Y505260D01*
X1520048D01*
X1520055D01*
X1520238Y503394D01*
X1520093Y503378D01*
X1519956Y503363D01*
X1519827Y503340D01*
X1519712Y503310D01*
X1519606Y503279D01*
X1519514Y503241D01*
X1519423Y503211D01*
X1519347Y503172D01*
X1519286Y503142D01*
X1519225Y503112D01*
X1519179Y503081D01*
X1519141Y503051D01*
X1519110Y503028D01*
X1519088Y503013D01*
X1519080Y502997D01*
X1519072D01*
X1519011Y502929D01*
X1518950Y502860D01*
X1518866Y502708D01*
X1518798Y502555D01*
X1518760Y502403D01*
X1518729Y502273D01*
X1518722Y502212D01*
Y502167D01*
X1518714Y502121D01*
Y501961D01*
X1518729Y501854D01*
X1518767Y501671D01*
X1518821Y501511D01*
X1518882Y501382D01*
X1518950Y501275D01*
X1519004Y501199D01*
X1519026Y501176D01*
X1519042Y501153D01*
X1519049Y501138D01*
X1519057D01*
X1519126Y501077D01*
X1519194Y501024D01*
X1519347Y500940D01*
X1519507Y500879D01*
X1519659Y500841D01*
X1519804Y500810D01*
X1519865Y500803D01*
X1519910D01*
X1519956Y500795D01*
X1519987D01*
X1520009D01*
X1520017D01*
X1520124Y500803D01*
X1520231Y500810D01*
X1520436Y500856D01*
X1520627Y500917D01*
X1520802Y500986D01*
X1520878Y501024D01*
X1520947Y501062D01*
X1521008Y501092D01*
X1521061Y501123D01*
X1521099Y501146D01*
X1521137Y501169D01*
X1521152Y501176D01*
X1521160Y501184D01*
X1521244Y501252D01*
X1521351Y501336D01*
X1521465Y501435D01*
X1521587Y501549D01*
X1521716Y501671D01*
X1521853Y501801D01*
X1522120Y502068D01*
X1522242Y502197D01*
X1522364Y502319D01*
X1522471Y502433D01*
X1522570Y502532D01*
X1522646Y502616D01*
X1522707Y502685D01*
X1522745Y502723D01*
X1522760Y502738D01*
X1523027Y503020D01*
X1523279Y503279D01*
X1523515Y503515D01*
X1523743Y503736D01*
X1523949Y503927D01*
X1524140Y504102D01*
X1524315Y504255D01*
X1524475Y504384D01*
X1524620Y504498D01*
X1524742Y504598D01*
X1524848Y504674D01*
X1524940Y504742D01*
X1525008Y504788D01*
X1525062Y504826D01*
X1525092Y504841D01*
X1525100Y504849D01*
X1525267Y504940D01*
X1525435Y505024D01*
X1525603Y505100D01*
X1525763Y505169D01*
X1525923Y505230D01*
X1526075Y505283D01*
X1526227Y505321D01*
X1526365Y505359D01*
X1526494Y505390D01*
X1526608Y505420D01*
X1526715Y505443D01*
X1526799Y505458D01*
X1526868Y505466D01*
X1526921Y505474D01*
X1526951Y505481D01*
X1526967D01*
Y498921D01*
D02*
G37*
G36*
X1512432Y491956D02*
X1510558D01*
Y495629D01*
X1512432D01*
Y491956D01*
D02*
G37*
G36*
X1503095Y494181D02*
Y492063D01*
X1493326Y488588D01*
Y490691D01*
X1500557Y493068D01*
X1493326Y495545D01*
Y497678D01*
X1503095Y494181D01*
D02*
G37*
G36*
X1501334Y488085D02*
X1501494Y488062D01*
X1501639Y488032D01*
X1501784Y487994D01*
X1501913Y487948D01*
X1502043Y487894D01*
X1502157Y487841D01*
X1502256Y487780D01*
X1502348Y487719D01*
X1502432Y487666D01*
X1502500Y487612D01*
X1502561Y487567D01*
X1502607Y487529D01*
X1502637Y487491D01*
X1502660Y487475D01*
X1502668Y487468D01*
X1502775Y487346D01*
X1502858Y487209D01*
X1502942Y487071D01*
X1503003Y486934D01*
X1503064Y486790D01*
X1503110Y486645D01*
X1503148Y486508D01*
X1503179Y486370D01*
X1503209Y486241D01*
X1503224Y486127D01*
X1503239Y486020D01*
X1503247Y485928D01*
Y485852D01*
X1503255Y485791D01*
Y485746D01*
X1503247Y485517D01*
X1503217Y485296D01*
X1503179Y485106D01*
X1503140Y484930D01*
X1503118Y484854D01*
X1503095Y484785D01*
X1503079Y484725D01*
X1503064Y484671D01*
X1503049Y484633D01*
X1503034Y484603D01*
X1503026Y484587D01*
Y484580D01*
X1502927Y484374D01*
X1502820Y484184D01*
X1502698Y484016D01*
X1502584Y483856D01*
X1502531Y483795D01*
X1502485Y483734D01*
X1502439Y483681D01*
X1502401Y483635D01*
X1502371Y483597D01*
X1502348Y483574D01*
X1502333Y483559D01*
X1502325Y483551D01*
X1502348Y483543D01*
X1502378Y483528D01*
X1502455Y483505D01*
X1502493Y483498D01*
X1502516Y483490D01*
X1502538Y483482D01*
X1502546D01*
X1502675Y483444D01*
X1502782Y483406D01*
X1502881Y483376D01*
X1502957Y483353D01*
X1503018Y483330D01*
X1503056Y483315D01*
X1503087Y483300D01*
X1503095D01*
Y481448D01*
X1502912Y481532D01*
X1502737Y481608D01*
X1502576Y481669D01*
X1502432Y481715D01*
X1502317Y481745D01*
X1502264Y481760D01*
X1502226Y481776D01*
X1502195Y481783D01*
X1502173D01*
X1502157Y481791D01*
X1502150D01*
X1502058Y481806D01*
X1501967Y481821D01*
X1501746Y481837D01*
X1501525Y481852D01*
X1501296Y481867D01*
X1501190D01*
X1501098D01*
X1501007Y481875D01*
X1500931D01*
X1500870D01*
X1500816D01*
X1500786D01*
X1500778D01*
X1498591Y481844D01*
X1498370D01*
X1498172Y481852D01*
X1497982Y481867D01*
X1497814Y481882D01*
X1497662Y481905D01*
X1497524Y481920D01*
X1497402Y481943D01*
X1497296Y481966D01*
X1497204Y481996D01*
X1497121Y482019D01*
X1497060Y482035D01*
X1497006Y482057D01*
X1496968Y482073D01*
X1496938Y482088D01*
X1496922Y482096D01*
X1496915D01*
X1496831Y482149D01*
X1496747Y482202D01*
X1496602Y482339D01*
X1496473Y482484D01*
X1496366Y482621D01*
X1496275Y482758D01*
X1496244Y482812D01*
X1496214Y482865D01*
X1496191Y482903D01*
X1496176Y482934D01*
X1496160Y482957D01*
Y482964D01*
X1496107Y483086D01*
X1496061Y483223D01*
X1496023Y483368D01*
X1495985Y483513D01*
X1495932Y483825D01*
X1495901Y484130D01*
X1495886Y484267D01*
X1495878Y484404D01*
X1495871Y484519D01*
Y484625D01*
X1495863Y484709D01*
Y484831D01*
X1495871Y485083D01*
X1495886Y485319D01*
X1495909Y485540D01*
X1495939Y485746D01*
X1495978Y485928D01*
X1496023Y486104D01*
X1496061Y486256D01*
X1496107Y486393D01*
X1496160Y486515D01*
X1496198Y486622D01*
X1496244Y486713D01*
X1496282Y486790D01*
X1496313Y486843D01*
X1496336Y486889D01*
X1496351Y486911D01*
X1496359Y486919D01*
X1496458Y487049D01*
X1496564Y487163D01*
X1496679Y487270D01*
X1496801Y487369D01*
X1496930Y487460D01*
X1497052Y487536D01*
X1497182Y487612D01*
X1497303Y487673D01*
X1497418Y487727D01*
X1497524Y487772D01*
X1497623Y487818D01*
X1497707Y487849D01*
X1497776Y487872D01*
X1497829Y487887D01*
X1497860Y487902D01*
X1497875D01*
X1498180Y486203D01*
X1498012Y486134D01*
X1497867Y486058D01*
X1497745Y485989D01*
X1497654Y485913D01*
X1497585Y485852D01*
X1497532Y485799D01*
X1497502Y485768D01*
X1497494Y485753D01*
X1497425Y485639D01*
X1497380Y485509D01*
X1497341Y485380D01*
X1497319Y485258D01*
X1497303Y485144D01*
X1497296Y485060D01*
Y484839D01*
X1497303Y484717D01*
X1497319Y484603D01*
X1497334Y484504D01*
X1497349Y484412D01*
X1497372Y484328D01*
X1497395Y484252D01*
X1497410Y484191D01*
X1497433Y484130D01*
X1497456Y484084D01*
X1497479Y484046D01*
X1497494Y484016D01*
X1497524Y483978D01*
X1497532Y483963D01*
X1497631Y483871D01*
X1497745Y483810D01*
X1497875Y483764D01*
X1497997Y483726D01*
X1498111Y483711D01*
X1498210Y483703D01*
X1498241Y483696D01*
X1498271D01*
X1498286D01*
X1498294D01*
X1498477D01*
X1498515Y483802D01*
X1498561Y483917D01*
X1498599Y484054D01*
X1498637Y484199D01*
X1498721Y484496D01*
X1498789Y484801D01*
X1498820Y484938D01*
X1498850Y485075D01*
X1498873Y485197D01*
X1498896Y485304D01*
X1498919Y485395D01*
X1498927Y485456D01*
X1498942Y485502D01*
Y485517D01*
X1498980Y485692D01*
X1499010Y485860D01*
X1499048Y486020D01*
X1499086Y486165D01*
X1499125Y486294D01*
X1499163Y486416D01*
X1499193Y486530D01*
X1499224Y486629D01*
X1499262Y486721D01*
X1499285Y486797D01*
X1499315Y486858D01*
X1499330Y486911D01*
X1499353Y486957D01*
X1499368Y486988D01*
X1499376Y487003D01*
Y487010D01*
X1499483Y487193D01*
X1499597Y487353D01*
X1499719Y487491D01*
X1499833Y487605D01*
X1499940Y487689D01*
X1500024Y487757D01*
X1500054Y487780D01*
X1500077Y487795D01*
X1500092Y487811D01*
X1500100D01*
X1500275Y487902D01*
X1500466Y487971D01*
X1500641Y488024D01*
X1500809Y488054D01*
X1500953Y488077D01*
X1501014Y488085D01*
X1501068D01*
X1501106Y488092D01*
X1501136D01*
X1501159D01*
X1501167D01*
X1501334Y488085D01*
D02*
G37*
G36*
X1515038Y485982D02*
X1512821Y485174D01*
Y481273D01*
X1515038Y480427D01*
Y478278D01*
X1505269Y482179D01*
Y484282D01*
X1515038Y488070D01*
Y485982D01*
D02*
G37*
G36*
X1503095Y478141D02*
X1493326D01*
Y480015D01*
X1503095D01*
Y478141D01*
D02*
G37*
G36*
Y474354D02*
X1496016D01*
Y476228D01*
X1503095D01*
Y474354D01*
D02*
G37*
G36*
X1495056D02*
X1493326D01*
Y476228D01*
X1495056D01*
Y474354D01*
D02*
G37*
G36*
X1499856Y472853D02*
X1500161Y472822D01*
X1500443Y472776D01*
X1500710Y472723D01*
X1500953Y472662D01*
X1501174Y472586D01*
X1501380Y472510D01*
X1501571Y472426D01*
X1501731Y472342D01*
X1501875Y472266D01*
X1501997Y472190D01*
X1502096Y472129D01*
X1502180Y472068D01*
X1502234Y472030D01*
X1502264Y471999D01*
X1502279Y471992D01*
X1502447Y471824D01*
X1502599Y471656D01*
X1502729Y471473D01*
X1502843Y471298D01*
X1502935Y471123D01*
X1503018Y470947D01*
X1503079Y470788D01*
X1503133Y470628D01*
X1503171Y470475D01*
X1503201Y470338D01*
X1503224Y470216D01*
X1503239Y470117D01*
X1503247Y470025D01*
X1503255Y469965D01*
Y469911D01*
X1503239Y469690D01*
X1503209Y469469D01*
X1503163Y469271D01*
X1503110Y469088D01*
X1503079Y469012D01*
X1503056Y468936D01*
X1503034Y468875D01*
X1503011Y468822D01*
X1502988Y468783D01*
X1502980Y468745D01*
X1502965Y468730D01*
Y468722D01*
X1502843Y468509D01*
X1502698Y468311D01*
X1502546Y468136D01*
X1502401Y467983D01*
X1502333Y467922D01*
X1502264Y467861D01*
X1502211Y467816D01*
X1502157Y467770D01*
X1502119Y467739D01*
X1502081Y467717D01*
X1502066Y467701D01*
X1502058Y467694D01*
X1503095D01*
Y465956D01*
X1493326D01*
Y467831D01*
X1496854D01*
X1496679Y467999D01*
X1496526Y468166D01*
X1496397Y468341D01*
X1496282Y468517D01*
X1496183Y468692D01*
X1496107Y468860D01*
X1496039Y469027D01*
X1495985Y469180D01*
X1495947Y469324D01*
X1495917Y469462D01*
X1495894Y469584D01*
X1495878Y469683D01*
X1495871Y469766D01*
X1495863Y469827D01*
Y469881D01*
X1495871Y470117D01*
X1495901Y470346D01*
X1495947Y470559D01*
X1496008Y470765D01*
X1496077Y470947D01*
X1496160Y471130D01*
X1496244Y471290D01*
X1496328Y471435D01*
X1496420Y471572D01*
X1496503Y471687D01*
X1496579Y471786D01*
X1496656Y471870D01*
X1496717Y471938D01*
X1496762Y471984D01*
X1496793Y472014D01*
X1496801Y472022D01*
X1496983Y472167D01*
X1497189Y472296D01*
X1497402Y472411D01*
X1497623Y472510D01*
X1497852Y472586D01*
X1498081Y472654D01*
X1498302Y472708D01*
X1498523Y472753D01*
X1498728Y472792D01*
X1498919Y472814D01*
X1499086Y472837D01*
X1499239Y472845D01*
X1499308Y472853D01*
X1499361D01*
X1499414Y472860D01*
X1499460D01*
X1499490D01*
X1499513D01*
X1499529D01*
X1499536D01*
X1499856Y472853D01*
D02*
G37*
G36*
X1501334Y464593D02*
X1501494Y464570D01*
X1501639Y464539D01*
X1501784Y464501D01*
X1501913Y464455D01*
X1502043Y464402D01*
X1502157Y464349D01*
X1502256Y464288D01*
X1502348Y464227D01*
X1502432Y464173D01*
X1502500Y464120D01*
X1502561Y464074D01*
X1502607Y464036D01*
X1502637Y463998D01*
X1502660Y463983D01*
X1502668Y463975D01*
X1502775Y463853D01*
X1502858Y463716D01*
X1502942Y463579D01*
X1503003Y463442D01*
X1503064Y463297D01*
X1503110Y463152D01*
X1503148Y463015D01*
X1503179Y462878D01*
X1503209Y462748D01*
X1503224Y462634D01*
X1503239Y462527D01*
X1503247Y462436D01*
Y462360D01*
X1503255Y462299D01*
Y462253D01*
X1503247Y462024D01*
X1503217Y461804D01*
X1503179Y461613D01*
X1503140Y461438D01*
X1503118Y461362D01*
X1503095Y461293D01*
X1503079Y461232D01*
X1503064Y461179D01*
X1503049Y461141D01*
X1503034Y461110D01*
X1503026Y461095D01*
Y461087D01*
X1502927Y460882D01*
X1502820Y460691D01*
X1502698Y460523D01*
X1502584Y460363D01*
X1502531Y460302D01*
X1502485Y460241D01*
X1502439Y460188D01*
X1502401Y460142D01*
X1502371Y460104D01*
X1502348Y460081D01*
X1502333Y460066D01*
X1502325Y460059D01*
X1502348Y460051D01*
X1502378Y460036D01*
X1502455Y460013D01*
X1502493Y460005D01*
X1502516Y459998D01*
X1502538Y459990D01*
X1502546D01*
X1502675Y459952D01*
X1502782Y459914D01*
X1502881Y459883D01*
X1502957Y459860D01*
X1503018Y459838D01*
X1503056Y459822D01*
X1503087Y459807D01*
X1503095D01*
Y457955D01*
X1502912Y458039D01*
X1502737Y458116D01*
X1502576Y458176D01*
X1502432Y458222D01*
X1502317Y458253D01*
X1502264Y458268D01*
X1502226Y458283D01*
X1502195Y458291D01*
X1502173D01*
X1502157Y458298D01*
X1502150D01*
X1502058Y458314D01*
X1501967Y458329D01*
X1501746Y458344D01*
X1501525Y458359D01*
X1501296Y458374D01*
X1501190D01*
X1501098D01*
X1501007Y458382D01*
X1500931D01*
X1500870D01*
X1500816D01*
X1500786D01*
X1500778D01*
X1498591Y458352D01*
X1498370D01*
X1498172Y458359D01*
X1497982Y458374D01*
X1497814Y458390D01*
X1497662Y458413D01*
X1497524Y458428D01*
X1497402Y458451D01*
X1497296Y458474D01*
X1497204Y458504D01*
X1497121Y458527D01*
X1497060Y458542D01*
X1497006Y458565D01*
X1496968Y458580D01*
X1496938Y458596D01*
X1496922Y458603D01*
X1496915D01*
X1496831Y458657D01*
X1496747Y458710D01*
X1496602Y458847D01*
X1496473Y458992D01*
X1496366Y459129D01*
X1496275Y459266D01*
X1496244Y459319D01*
X1496214Y459373D01*
X1496191Y459411D01*
X1496176Y459441D01*
X1496160Y459464D01*
Y459472D01*
X1496107Y459594D01*
X1496061Y459731D01*
X1496023Y459876D01*
X1495985Y460020D01*
X1495932Y460333D01*
X1495901Y460638D01*
X1495886Y460775D01*
X1495878Y460912D01*
X1495871Y461026D01*
Y461133D01*
X1495863Y461217D01*
Y461339D01*
X1495871Y461590D01*
X1495886Y461826D01*
X1495909Y462047D01*
X1495939Y462253D01*
X1495978Y462436D01*
X1496023Y462611D01*
X1496061Y462764D01*
X1496107Y462901D01*
X1496160Y463023D01*
X1496198Y463129D01*
X1496244Y463221D01*
X1496282Y463297D01*
X1496313Y463350D01*
X1496336Y463396D01*
X1496351Y463419D01*
X1496359Y463427D01*
X1496458Y463556D01*
X1496564Y463670D01*
X1496679Y463777D01*
X1496801Y463876D01*
X1496930Y463968D01*
X1497052Y464044D01*
X1497182Y464120D01*
X1497303Y464181D01*
X1497418Y464234D01*
X1497524Y464280D01*
X1497623Y464326D01*
X1497707Y464356D01*
X1497776Y464379D01*
X1497829Y464394D01*
X1497860Y464410D01*
X1497875D01*
X1498180Y462710D01*
X1498012Y462642D01*
X1497867Y462565D01*
X1497745Y462497D01*
X1497654Y462421D01*
X1497585Y462360D01*
X1497532Y462307D01*
X1497502Y462276D01*
X1497494Y462261D01*
X1497425Y462146D01*
X1497380Y462017D01*
X1497341Y461887D01*
X1497319Y461765D01*
X1497303Y461651D01*
X1497296Y461567D01*
Y461346D01*
X1497303Y461224D01*
X1497319Y461110D01*
X1497334Y461011D01*
X1497349Y460920D01*
X1497372Y460836D01*
X1497395Y460760D01*
X1497410Y460699D01*
X1497433Y460638D01*
X1497456Y460592D01*
X1497479Y460554D01*
X1497494Y460523D01*
X1497524Y460485D01*
X1497532Y460470D01*
X1497631Y460379D01*
X1497745Y460318D01*
X1497875Y460272D01*
X1497997Y460234D01*
X1498111Y460219D01*
X1498210Y460211D01*
X1498241Y460203D01*
X1498271D01*
X1498286D01*
X1498294D01*
X1498477D01*
X1498515Y460310D01*
X1498561Y460424D01*
X1498599Y460561D01*
X1498637Y460706D01*
X1498721Y461003D01*
X1498789Y461308D01*
X1498820Y461445D01*
X1498850Y461583D01*
X1498873Y461704D01*
X1498896Y461811D01*
X1498919Y461903D01*
X1498927Y461964D01*
X1498942Y462009D01*
Y462024D01*
X1498980Y462200D01*
X1499010Y462367D01*
X1499048Y462527D01*
X1499086Y462672D01*
X1499125Y462802D01*
X1499163Y462924D01*
X1499193Y463038D01*
X1499224Y463137D01*
X1499262Y463228D01*
X1499285Y463305D01*
X1499315Y463366D01*
X1499330Y463419D01*
X1499353Y463465D01*
X1499368Y463495D01*
X1499376Y463510D01*
Y463518D01*
X1499483Y463701D01*
X1499597Y463861D01*
X1499719Y463998D01*
X1499833Y464112D01*
X1499940Y464196D01*
X1500024Y464265D01*
X1500054Y464288D01*
X1500077Y464303D01*
X1500092Y464318D01*
X1500100D01*
X1500275Y464410D01*
X1500466Y464478D01*
X1500641Y464532D01*
X1500809Y464562D01*
X1500953Y464585D01*
X1501014Y464593D01*
X1501068D01*
X1501106Y464600D01*
X1501136D01*
X1501159D01*
X1501167D01*
X1501334Y464593D01*
D02*
G37*
G36*
X1497509Y456431D02*
X1500595D01*
X1500778D01*
X1500938D01*
X1501091Y456424D01*
X1501220D01*
X1501342Y456416D01*
X1501456D01*
X1501548Y456409D01*
X1501632Y456401D01*
X1501708D01*
X1501761Y456393D01*
X1501815D01*
X1501853Y456386D01*
X1501883D01*
X1501906Y456378D01*
X1501913D01*
X1501921D01*
X1502081Y456348D01*
X1502226Y456302D01*
X1502355Y456256D01*
X1502455Y456218D01*
X1502538Y456172D01*
X1502599Y456142D01*
X1502637Y456119D01*
X1502653Y456111D01*
X1502744Y456028D01*
X1502836Y455936D01*
X1502904Y455837D01*
X1502973Y455746D01*
X1503018Y455654D01*
X1503056Y455586D01*
X1503072Y455555D01*
X1503079Y455532D01*
X1503087Y455525D01*
Y455517D01*
X1503140Y455365D01*
X1503186Y455205D01*
X1503217Y455052D01*
X1503232Y454907D01*
X1503247Y454785D01*
Y454732D01*
X1503255Y454687D01*
Y454603D01*
X1503239Y454305D01*
X1503209Y454024D01*
X1503194Y453894D01*
X1503171Y453772D01*
X1503140Y453658D01*
X1503118Y453551D01*
X1503095Y453460D01*
X1503064Y453376D01*
X1503041Y453300D01*
X1503026Y453239D01*
X1503003Y453193D01*
X1502996Y453155D01*
X1502980Y453132D01*
Y453124D01*
X1501525Y453284D01*
X1501586Y453460D01*
X1501624Y453612D01*
X1501655Y453742D01*
X1501677Y453848D01*
X1501693Y453932D01*
X1501700Y453993D01*
Y454039D01*
X1501693Y454107D01*
X1501685Y454168D01*
X1501670Y454222D01*
X1501655Y454267D01*
X1501639Y454305D01*
X1501624Y454336D01*
X1501609Y454351D01*
Y454359D01*
X1501571Y454404D01*
X1501532Y454443D01*
X1501456Y454488D01*
X1501426Y454504D01*
X1501395Y454519D01*
X1501380Y454526D01*
X1501373D01*
X1501334Y454534D01*
X1501289D01*
X1501228Y454542D01*
X1501151D01*
X1500992Y454549D01*
X1500816D01*
X1500649Y454557D01*
X1500572D01*
X1500504D01*
X1500450D01*
X1500405D01*
X1500374D01*
X1500367D01*
X1497509D01*
Y453277D01*
X1496016D01*
Y454557D01*
X1493516D01*
X1494614Y456431D01*
X1496016D01*
Y457293D01*
X1497509D01*
Y456431D01*
D02*
G37*
G36*
X1503095Y450107D02*
X1496016D01*
Y451981D01*
X1503095D01*
Y450107D01*
D02*
G37*
G36*
X1495056D02*
X1493326D01*
Y451981D01*
X1495056D01*
Y450107D01*
D02*
G37*
G36*
X1499681Y448613D02*
X1499902Y448598D01*
X1500100Y448575D01*
X1500298Y448552D01*
X1500481Y448514D01*
X1500649Y448476D01*
X1500809Y448438D01*
X1500953Y448392D01*
X1501083Y448347D01*
X1501197Y448308D01*
X1501296Y448270D01*
X1501380Y448232D01*
X1501449Y448209D01*
X1501494Y448187D01*
X1501525Y448171D01*
X1501532Y448164D01*
X1501685Y448072D01*
X1501830Y447973D01*
X1501967Y447874D01*
X1502089Y447760D01*
X1502203Y447653D01*
X1502310Y447539D01*
X1502409Y447432D01*
X1502493Y447326D01*
X1502569Y447226D01*
X1502637Y447135D01*
X1502691Y447044D01*
X1502737Y446975D01*
X1502775Y446914D01*
X1502798Y446868D01*
X1502813Y446838D01*
X1502820Y446830D01*
X1502897Y446663D01*
X1502965Y446495D01*
X1503018Y446327D01*
X1503072Y446167D01*
X1503110Y446007D01*
X1503148Y445855D01*
X1503179Y445710D01*
X1503201Y445565D01*
X1503217Y445443D01*
X1503232Y445329D01*
X1503239Y445222D01*
X1503247Y445139D01*
X1503255Y445070D01*
Y444971D01*
X1503239Y444681D01*
X1503209Y444407D01*
X1503156Y444148D01*
X1503087Y443904D01*
X1503011Y443668D01*
X1502919Y443455D01*
X1502828Y443256D01*
X1502729Y443081D01*
X1502630Y442921D01*
X1502538Y442776D01*
X1502447Y442654D01*
X1502371Y442548D01*
X1502302Y442472D01*
X1502249Y442411D01*
X1502218Y442380D01*
X1502203Y442365D01*
X1501997Y442182D01*
X1501784Y442022D01*
X1501563Y441885D01*
X1501342Y441763D01*
X1501113Y441664D01*
X1500892Y441580D01*
X1500679Y441511D01*
X1500473Y441458D01*
X1500283Y441412D01*
X1500108Y441382D01*
X1499948Y441359D01*
X1499810Y441344D01*
X1499696Y441336D01*
X1499650Y441329D01*
X1499612D01*
X1499582D01*
X1499559D01*
X1499551D01*
X1499544D01*
X1499254Y441336D01*
X1498972Y441374D01*
X1498705Y441420D01*
X1498462Y441489D01*
X1498226Y441565D01*
X1498012Y441656D01*
X1497806Y441748D01*
X1497631Y441839D01*
X1497464Y441938D01*
X1497319Y442030D01*
X1497197Y442121D01*
X1497098Y442197D01*
X1497014Y442266D01*
X1496953Y442312D01*
X1496922Y442342D01*
X1496907Y442357D01*
X1496724Y442555D01*
X1496564Y442761D01*
X1496420Y442982D01*
X1496305Y443195D01*
X1496198Y443416D01*
X1496115Y443638D01*
X1496046Y443851D01*
X1495993Y444057D01*
X1495947Y444247D01*
X1495917Y444422D01*
X1495894Y444582D01*
X1495878Y444720D01*
X1495871Y444834D01*
X1495863Y444879D01*
Y444986D01*
X1495871Y445177D01*
X1495886Y445367D01*
X1495909Y445542D01*
X1495932Y445718D01*
X1495970Y445885D01*
X1496008Y446038D01*
X1496054Y446183D01*
X1496092Y446312D01*
X1496138Y446434D01*
X1496183Y446548D01*
X1496221Y446640D01*
X1496252Y446716D01*
X1496282Y446785D01*
X1496305Y446830D01*
X1496320Y446861D01*
X1496328Y446868D01*
X1496420Y447021D01*
X1496519Y447165D01*
X1496618Y447303D01*
X1496732Y447425D01*
X1496839Y447539D01*
X1496953Y447646D01*
X1497060Y447745D01*
X1497166Y447828D01*
X1497265Y447905D01*
X1497357Y447973D01*
X1497441Y448034D01*
X1497517Y448080D01*
X1497578Y448118D01*
X1497623Y448141D01*
X1497654Y448156D01*
X1497662Y448164D01*
X1497822Y448248D01*
X1497989Y448316D01*
X1498149Y448377D01*
X1498309Y448430D01*
X1498462Y448469D01*
X1498614Y448507D01*
X1498751Y448537D01*
X1498888Y448560D01*
X1499010Y448583D01*
X1499117Y448598D01*
X1499216Y448606D01*
X1499300Y448613D01*
X1499368Y448621D01*
X1499422D01*
X1499452D01*
X1499460D01*
X1499681Y448613D01*
D02*
G37*
G36*
X1503095Y438006D02*
X1499894D01*
X1499681D01*
X1499483Y437999D01*
X1499308Y437991D01*
X1499140Y437983D01*
X1498995Y437976D01*
X1498858Y437961D01*
X1498744Y437953D01*
X1498637Y437938D01*
X1498553Y437923D01*
X1498469Y437915D01*
X1498408Y437900D01*
X1498355Y437892D01*
X1498317Y437884D01*
X1498294Y437877D01*
X1498279Y437869D01*
X1498271D01*
X1498111Y437808D01*
X1497974Y437724D01*
X1497852Y437640D01*
X1497753Y437549D01*
X1497669Y437473D01*
X1497608Y437404D01*
X1497578Y437359D01*
X1497563Y437351D01*
Y437343D01*
X1497471Y437191D01*
X1497410Y437038D01*
X1497364Y436894D01*
X1497326Y436757D01*
X1497311Y436642D01*
X1497303Y436589D01*
Y436551D01*
X1497296Y436513D01*
Y436467D01*
X1497303Y436330D01*
X1497326Y436208D01*
X1497357Y436101D01*
X1497387Y436010D01*
X1497425Y435934D01*
X1497456Y435873D01*
X1497479Y435842D01*
X1497486Y435827D01*
X1497563Y435728D01*
X1497646Y435652D01*
X1497730Y435583D01*
X1497814Y435522D01*
X1497890Y435484D01*
X1497959Y435454D01*
X1497997Y435438D01*
X1498004Y435431D01*
X1498012D01*
X1498081Y435408D01*
X1498172Y435393D01*
X1498271Y435377D01*
X1498385Y435362D01*
X1498629Y435339D01*
X1498873Y435324D01*
X1498995Y435316D01*
X1499109D01*
X1499216Y435309D01*
X1499308D01*
X1499384D01*
X1499437D01*
X1499475D01*
X1499490D01*
X1503095D01*
Y433434D01*
X1498705D01*
X1498553D01*
X1498416Y433442D01*
X1498286D01*
X1498165Y433450D01*
X1498050Y433457D01*
X1497944Y433465D01*
X1497852Y433480D01*
X1497768Y433488D01*
X1497692Y433495D01*
X1497631Y433511D01*
X1497570Y433518D01*
X1497532Y433526D01*
X1497494Y433533D01*
X1497471D01*
X1497456Y433541D01*
X1497448D01*
X1497288Y433587D01*
X1497136Y433648D01*
X1497006Y433709D01*
X1496892Y433770D01*
X1496793Y433823D01*
X1496724Y433869D01*
X1496679Y433899D01*
X1496663Y433914D01*
X1496541Y434021D01*
X1496427Y434143D01*
X1496328Y434272D01*
X1496244Y434394D01*
X1496183Y434509D01*
X1496130Y434600D01*
X1496115Y434638D01*
X1496100Y434661D01*
X1496092Y434676D01*
Y434684D01*
X1496016Y434882D01*
X1495962Y435080D01*
X1495917Y435271D01*
X1495894Y435446D01*
X1495878Y435522D01*
Y435591D01*
X1495871Y435659D01*
X1495863Y435713D01*
Y435819D01*
X1495878Y436078D01*
X1495917Y436322D01*
X1495970Y436551D01*
X1496046Y436772D01*
X1496138Y436978D01*
X1496244Y437168D01*
X1496351Y437343D01*
X1496458Y437503D01*
X1496572Y437648D01*
X1496679Y437778D01*
X1496785Y437884D01*
X1496869Y437976D01*
X1496945Y438052D01*
X1497006Y438098D01*
X1497044Y438136D01*
X1497060Y438143D01*
X1496016D01*
Y439881D01*
X1503095D01*
Y438006D01*
D02*
G37*
G36*
Y423909D02*
X1503087Y423764D01*
Y423483D01*
X1503079Y423239D01*
Y423018D01*
X1503072Y422827D01*
X1503064Y422652D01*
Y422507D01*
X1503056Y422385D01*
X1503049Y422286D01*
Y422202D01*
X1503041Y422134D01*
Y422088D01*
X1503034Y422050D01*
Y422027D01*
X1502988Y421745D01*
X1502919Y421486D01*
X1502889Y421372D01*
X1502843Y421265D01*
X1502805Y421166D01*
X1502767Y421075D01*
X1502729Y420991D01*
X1502691Y420922D01*
X1502660Y420854D01*
X1502630Y420808D01*
X1502607Y420762D01*
X1502584Y420732D01*
X1502576Y420717D01*
X1502569Y420709D01*
X1502417Y420518D01*
X1502249Y420351D01*
X1502081Y420198D01*
X1501921Y420076D01*
X1501784Y419985D01*
X1501723Y419947D01*
X1501670Y419909D01*
X1501624Y419886D01*
X1501593Y419871D01*
X1501571Y419855D01*
X1501563D01*
X1501327Y419749D01*
X1501091Y419673D01*
X1500870Y419619D01*
X1500672Y419581D01*
X1500588Y419566D01*
X1500504Y419558D01*
X1500435Y419551D01*
X1500374D01*
X1500329Y419543D01*
X1500291D01*
X1500268D01*
X1500260D01*
X1500108Y419551D01*
X1499955Y419566D01*
X1499810Y419589D01*
X1499673Y419619D01*
X1499544Y419657D01*
X1499422Y419695D01*
X1499308Y419741D01*
X1499208Y419779D01*
X1499117Y419825D01*
X1499033Y419871D01*
X1498957Y419909D01*
X1498904Y419947D01*
X1498850Y419977D01*
X1498820Y420000D01*
X1498797Y420015D01*
X1498789Y420023D01*
X1498675Y420115D01*
X1498568Y420221D01*
X1498469Y420328D01*
X1498385Y420442D01*
X1498302Y420556D01*
X1498226Y420671D01*
X1498165Y420778D01*
X1498103Y420892D01*
X1498058Y420991D01*
X1498012Y421090D01*
X1497974Y421174D01*
X1497951Y421250D01*
X1497928Y421311D01*
X1497913Y421357D01*
X1497898Y421387D01*
Y421395D01*
X1497784Y421174D01*
X1497646Y420968D01*
X1497502Y420800D01*
X1497364Y420656D01*
X1497303Y420595D01*
X1497242Y420549D01*
X1497182Y420503D01*
X1497136Y420465D01*
X1497098Y420435D01*
X1497067Y420412D01*
X1497052Y420404D01*
X1497044Y420396D01*
X1496938Y420328D01*
X1496823Y420275D01*
X1496717Y420221D01*
X1496610Y420183D01*
X1496397Y420115D01*
X1496198Y420069D01*
X1496115Y420054D01*
X1496031Y420046D01*
X1495962Y420031D01*
X1495901D01*
X1495856Y420023D01*
X1495818D01*
X1495795D01*
X1495787D01*
X1495558Y420038D01*
X1495345Y420069D01*
X1495147Y420122D01*
X1494979Y420176D01*
X1494903Y420206D01*
X1494842Y420229D01*
X1494781Y420259D01*
X1494736Y420282D01*
X1494697Y420297D01*
X1494667Y420313D01*
X1494652Y420328D01*
X1494644D01*
X1494461Y420442D01*
X1494301Y420572D01*
X1494164Y420694D01*
X1494042Y420816D01*
X1493951Y420915D01*
X1493882Y420998D01*
X1493859Y421029D01*
X1493844Y421052D01*
X1493829Y421067D01*
Y421075D01*
X1493722Y421250D01*
X1493638Y421425D01*
X1493570Y421593D01*
X1493509Y421753D01*
X1493471Y421890D01*
X1493455Y421951D01*
X1493448Y421997D01*
X1493432Y422042D01*
Y422073D01*
X1493425Y422088D01*
Y422096D01*
X1493410Y422210D01*
X1493394Y422332D01*
X1493379Y422469D01*
X1493364Y422606D01*
X1493349Y422896D01*
X1493341Y423178D01*
X1493333Y423307D01*
Y423429D01*
X1493326Y423536D01*
Y427727D01*
X1503095D01*
Y423909D01*
D02*
G37*
G36*
X1499681Y418316D02*
X1499902Y418301D01*
X1500100Y418278D01*
X1500298Y418255D01*
X1500481Y418217D01*
X1500649Y418179D01*
X1500809Y418141D01*
X1500953Y418095D01*
X1501083Y418050D01*
X1501197Y418011D01*
X1501296Y417973D01*
X1501380Y417935D01*
X1501449Y417912D01*
X1501494Y417890D01*
X1501525Y417874D01*
X1501532Y417867D01*
X1501685Y417775D01*
X1501830Y417676D01*
X1501967Y417577D01*
X1502089Y417463D01*
X1502203Y417356D01*
X1502310Y417242D01*
X1502409Y417135D01*
X1502493Y417028D01*
X1502569Y416929D01*
X1502637Y416838D01*
X1502691Y416746D01*
X1502737Y416678D01*
X1502775Y416617D01*
X1502798Y416571D01*
X1502813Y416541D01*
X1502820Y416533D01*
X1502897Y416366D01*
X1502965Y416198D01*
X1503018Y416030D01*
X1503072Y415870D01*
X1503110Y415710D01*
X1503148Y415558D01*
X1503179Y415413D01*
X1503201Y415268D01*
X1503217Y415146D01*
X1503232Y415032D01*
X1503239Y414925D01*
X1503247Y414841D01*
X1503255Y414773D01*
Y414674D01*
X1503239Y414384D01*
X1503209Y414110D01*
X1503156Y413851D01*
X1503087Y413607D01*
X1503011Y413371D01*
X1502919Y413158D01*
X1502828Y412959D01*
X1502729Y412784D01*
X1502630Y412624D01*
X1502538Y412479D01*
X1502447Y412357D01*
X1502371Y412251D01*
X1502302Y412174D01*
X1502249Y412113D01*
X1502218Y412083D01*
X1502203Y412068D01*
X1501997Y411885D01*
X1501784Y411725D01*
X1501563Y411588D01*
X1501342Y411466D01*
X1501113Y411367D01*
X1500892Y411283D01*
X1500679Y411214D01*
X1500473Y411161D01*
X1500283Y411115D01*
X1500108Y411085D01*
X1499948Y411062D01*
X1499810Y411047D01*
X1499696Y411039D01*
X1499650Y411031D01*
X1499612D01*
X1499582D01*
X1499559D01*
X1499551D01*
X1499544D01*
X1499254Y411039D01*
X1498972Y411077D01*
X1498705Y411123D01*
X1498462Y411191D01*
X1498226Y411268D01*
X1498012Y411359D01*
X1497806Y411451D01*
X1497631Y411542D01*
X1497464Y411641D01*
X1497319Y411732D01*
X1497197Y411824D01*
X1497098Y411900D01*
X1497014Y411969D01*
X1496953Y412015D01*
X1496922Y412045D01*
X1496907Y412060D01*
X1496724Y412258D01*
X1496564Y412464D01*
X1496420Y412685D01*
X1496305Y412898D01*
X1496198Y413119D01*
X1496115Y413340D01*
X1496046Y413554D01*
X1495993Y413759D01*
X1495947Y413950D01*
X1495917Y414125D01*
X1495894Y414285D01*
X1495878Y414422D01*
X1495871Y414537D01*
X1495863Y414582D01*
Y414689D01*
X1495871Y414880D01*
X1495886Y415070D01*
X1495909Y415245D01*
X1495932Y415421D01*
X1495970Y415588D01*
X1496008Y415741D01*
X1496054Y415885D01*
X1496092Y416015D01*
X1496138Y416137D01*
X1496183Y416251D01*
X1496221Y416343D01*
X1496252Y416419D01*
X1496282Y416487D01*
X1496305Y416533D01*
X1496320Y416564D01*
X1496328Y416571D01*
X1496420Y416724D01*
X1496519Y416868D01*
X1496618Y417006D01*
X1496732Y417127D01*
X1496839Y417242D01*
X1496953Y417349D01*
X1497060Y417448D01*
X1497166Y417531D01*
X1497265Y417607D01*
X1497357Y417676D01*
X1497441Y417737D01*
X1497517Y417783D01*
X1497578Y417821D01*
X1497623Y417844D01*
X1497654Y417859D01*
X1497662Y417867D01*
X1497822Y417950D01*
X1497989Y418019D01*
X1498149Y418080D01*
X1498309Y418133D01*
X1498462Y418171D01*
X1498614Y418209D01*
X1498751Y418240D01*
X1498888Y418263D01*
X1499010Y418286D01*
X1499117Y418301D01*
X1499216Y418309D01*
X1499300Y418316D01*
X1499368Y418324D01*
X1499422D01*
X1499452D01*
X1499460D01*
X1499681Y418316D01*
D02*
G37*
G36*
X1501334Y410048D02*
X1501494Y410026D01*
X1501639Y409995D01*
X1501784Y409957D01*
X1501913Y409911D01*
X1502043Y409858D01*
X1502157Y409805D01*
X1502256Y409744D01*
X1502348Y409683D01*
X1502432Y409629D01*
X1502500Y409576D01*
X1502561Y409530D01*
X1502607Y409492D01*
X1502637Y409454D01*
X1502660Y409439D01*
X1502668Y409431D01*
X1502775Y409309D01*
X1502858Y409172D01*
X1502942Y409035D01*
X1503003Y408898D01*
X1503064Y408753D01*
X1503110Y408608D01*
X1503148Y408471D01*
X1503179Y408334D01*
X1503209Y408204D01*
X1503224Y408090D01*
X1503239Y407984D01*
X1503247Y407892D01*
Y407816D01*
X1503255Y407755D01*
Y407709D01*
X1503247Y407481D01*
X1503217Y407260D01*
X1503179Y407069D01*
X1503140Y406894D01*
X1503118Y406818D01*
X1503095Y406749D01*
X1503079Y406688D01*
X1503064Y406635D01*
X1503049Y406597D01*
X1503034Y406566D01*
X1503026Y406551D01*
Y406543D01*
X1502927Y406338D01*
X1502820Y406147D01*
X1502698Y405979D01*
X1502584Y405819D01*
X1502531Y405758D01*
X1502485Y405698D01*
X1502439Y405644D01*
X1502401Y405598D01*
X1502371Y405560D01*
X1502348Y405537D01*
X1502333Y405522D01*
X1502325Y405515D01*
X1502348Y405507D01*
X1502378Y405492D01*
X1502455Y405469D01*
X1502493Y405461D01*
X1502516Y405454D01*
X1502538Y405446D01*
X1502546D01*
X1502675Y405408D01*
X1502782Y405370D01*
X1502881Y405339D01*
X1502957Y405317D01*
X1503018Y405294D01*
X1503056Y405278D01*
X1503087Y405263D01*
X1503095D01*
Y403411D01*
X1502912Y403495D01*
X1502737Y403572D01*
X1502576Y403633D01*
X1502432Y403678D01*
X1502317Y403709D01*
X1502264Y403724D01*
X1502226Y403739D01*
X1502195Y403747D01*
X1502173D01*
X1502157Y403754D01*
X1502150D01*
X1502058Y403770D01*
X1501967Y403785D01*
X1501746Y403800D01*
X1501525Y403815D01*
X1501296Y403831D01*
X1501190D01*
X1501098D01*
X1501007Y403838D01*
X1500931D01*
X1500870D01*
X1500816D01*
X1500786D01*
X1500778D01*
X1498591Y403808D01*
X1498370D01*
X1498172Y403815D01*
X1497982Y403831D01*
X1497814Y403846D01*
X1497662Y403869D01*
X1497524Y403884D01*
X1497402Y403907D01*
X1497296Y403930D01*
X1497204Y403960D01*
X1497121Y403983D01*
X1497060Y403998D01*
X1497006Y404021D01*
X1496968Y404036D01*
X1496938Y404052D01*
X1496922Y404059D01*
X1496915D01*
X1496831Y404113D01*
X1496747Y404166D01*
X1496602Y404303D01*
X1496473Y404448D01*
X1496366Y404585D01*
X1496275Y404722D01*
X1496244Y404776D01*
X1496214Y404829D01*
X1496191Y404867D01*
X1496176Y404897D01*
X1496160Y404920D01*
Y404928D01*
X1496107Y405050D01*
X1496061Y405187D01*
X1496023Y405332D01*
X1495985Y405476D01*
X1495932Y405789D01*
X1495901Y406094D01*
X1495886Y406231D01*
X1495878Y406368D01*
X1495871Y406482D01*
Y406589D01*
X1495863Y406673D01*
Y406795D01*
X1495871Y407046D01*
X1495886Y407282D01*
X1495909Y407503D01*
X1495939Y407709D01*
X1495978Y407892D01*
X1496023Y408067D01*
X1496061Y408220D01*
X1496107Y408357D01*
X1496160Y408479D01*
X1496198Y408586D01*
X1496244Y408677D01*
X1496282Y408753D01*
X1496313Y408806D01*
X1496336Y408852D01*
X1496351Y408875D01*
X1496359Y408883D01*
X1496458Y409012D01*
X1496564Y409127D01*
X1496679Y409233D01*
X1496801Y409332D01*
X1496930Y409424D01*
X1497052Y409500D01*
X1497182Y409576D01*
X1497303Y409637D01*
X1497418Y409690D01*
X1497524Y409736D01*
X1497623Y409782D01*
X1497707Y409812D01*
X1497776Y409835D01*
X1497829Y409850D01*
X1497860Y409866D01*
X1497875D01*
X1498180Y408166D01*
X1498012Y408098D01*
X1497867Y408022D01*
X1497745Y407953D01*
X1497654Y407877D01*
X1497585Y407816D01*
X1497532Y407762D01*
X1497502Y407732D01*
X1497494Y407717D01*
X1497425Y407603D01*
X1497380Y407473D01*
X1497341Y407343D01*
X1497319Y407221D01*
X1497303Y407107D01*
X1497296Y407023D01*
Y406802D01*
X1497303Y406680D01*
X1497319Y406566D01*
X1497334Y406467D01*
X1497349Y406376D01*
X1497372Y406292D01*
X1497395Y406216D01*
X1497410Y406155D01*
X1497433Y406094D01*
X1497456Y406048D01*
X1497479Y406010D01*
X1497494Y405979D01*
X1497524Y405941D01*
X1497532Y405926D01*
X1497631Y405835D01*
X1497745Y405774D01*
X1497875Y405728D01*
X1497997Y405690D01*
X1498111Y405675D01*
X1498210Y405667D01*
X1498241Y405659D01*
X1498271D01*
X1498286D01*
X1498294D01*
X1498477D01*
X1498515Y405766D01*
X1498561Y405880D01*
X1498599Y406017D01*
X1498637Y406162D01*
X1498721Y406460D01*
X1498789Y406764D01*
X1498820Y406901D01*
X1498850Y407039D01*
X1498873Y407160D01*
X1498896Y407267D01*
X1498919Y407359D01*
X1498927Y407420D01*
X1498942Y407465D01*
Y407481D01*
X1498980Y407656D01*
X1499010Y407823D01*
X1499048Y407984D01*
X1499086Y408128D01*
X1499125Y408258D01*
X1499163Y408380D01*
X1499193Y408494D01*
X1499224Y408593D01*
X1499262Y408685D01*
X1499285Y408761D01*
X1499315Y408822D01*
X1499330Y408875D01*
X1499353Y408921D01*
X1499368Y408951D01*
X1499376Y408966D01*
Y408974D01*
X1499483Y409157D01*
X1499597Y409317D01*
X1499719Y409454D01*
X1499833Y409568D01*
X1499940Y409652D01*
X1500024Y409721D01*
X1500054Y409744D01*
X1500077Y409759D01*
X1500092Y409774D01*
X1500100D01*
X1500275Y409866D01*
X1500466Y409934D01*
X1500641Y409987D01*
X1500809Y410018D01*
X1500953Y410041D01*
X1501014Y410048D01*
X1501068D01*
X1501106Y410056D01*
X1501136D01*
X1501159D01*
X1501167D01*
X1501334Y410048D01*
D02*
G37*
G36*
X1503095Y400181D02*
X1500915D01*
X1500588D01*
X1500298Y400173D01*
X1500024Y400165D01*
X1499780Y400158D01*
X1499567Y400143D01*
X1499368Y400135D01*
X1499201Y400120D01*
X1499056Y400104D01*
X1498927Y400089D01*
X1498820Y400074D01*
X1498728Y400066D01*
X1498660Y400051D01*
X1498607Y400043D01*
X1498576Y400036D01*
X1498553Y400028D01*
X1498546D01*
X1498439Y399998D01*
X1498347Y399967D01*
X1498264Y399929D01*
X1498180Y399891D01*
X1498043Y399823D01*
X1497936Y399754D01*
X1497860Y399693D01*
X1497806Y399647D01*
X1497768Y399617D01*
X1497761Y399602D01*
X1497684Y399495D01*
X1497631Y399380D01*
X1497593Y399266D01*
X1497570Y399160D01*
X1497547Y399068D01*
X1497540Y398999D01*
Y398931D01*
X1497555Y398778D01*
X1497585Y398626D01*
X1497639Y398474D01*
X1497692Y398344D01*
X1497753Y398222D01*
X1497776Y398176D01*
X1497806Y398131D01*
X1497822Y398100D01*
X1497837Y398078D01*
X1497852Y398062D01*
Y398055D01*
X1496221Y397468D01*
X1496160Y397582D01*
X1496100Y397689D01*
X1496016Y397910D01*
X1495947Y398123D01*
X1495909Y398314D01*
X1495894Y398397D01*
X1495878Y398474D01*
X1495871Y398542D01*
Y398596D01*
X1495863Y398649D01*
Y398710D01*
X1495871Y398870D01*
X1495901Y399022D01*
X1495932Y399160D01*
X1495978Y399281D01*
X1496016Y399380D01*
X1496054Y399457D01*
X1496084Y399502D01*
X1496092Y399510D01*
Y399518D01*
X1496138Y399586D01*
X1496198Y399655D01*
X1496259Y399723D01*
X1496328Y399792D01*
X1496481Y399929D01*
X1496640Y400051D01*
X1496785Y400158D01*
X1496854Y400204D01*
X1496907Y400242D01*
X1496953Y400272D01*
X1496991Y400295D01*
X1497014Y400310D01*
X1497021Y400318D01*
X1496016D01*
Y402055D01*
X1503095D01*
Y400181D01*
D02*
G37*
G36*
X1499856Y397079D02*
X1500161Y397049D01*
X1500443Y397003D01*
X1500710Y396950D01*
X1500953Y396889D01*
X1501174Y396813D01*
X1501380Y396736D01*
X1501571Y396652D01*
X1501731Y396569D01*
X1501875Y396493D01*
X1501997Y396416D01*
X1502096Y396355D01*
X1502180Y396294D01*
X1502234Y396256D01*
X1502264Y396226D01*
X1502279Y396218D01*
X1502447Y396051D01*
X1502599Y395883D01*
X1502729Y395700D01*
X1502843Y395525D01*
X1502935Y395350D01*
X1503018Y395174D01*
X1503079Y395014D01*
X1503133Y394854D01*
X1503171Y394702D01*
X1503201Y394565D01*
X1503224Y394443D01*
X1503239Y394344D01*
X1503247Y394252D01*
X1503255Y394191D01*
Y394138D01*
X1503239Y393917D01*
X1503209Y393696D01*
X1503163Y393498D01*
X1503110Y393315D01*
X1503079Y393239D01*
X1503056Y393163D01*
X1503034Y393102D01*
X1503011Y393048D01*
X1502988Y393010D01*
X1502980Y392972D01*
X1502965Y392957D01*
Y392949D01*
X1502843Y392736D01*
X1502698Y392538D01*
X1502546Y392363D01*
X1502401Y392210D01*
X1502333Y392149D01*
X1502264Y392088D01*
X1502211Y392042D01*
X1502157Y391997D01*
X1502119Y391966D01*
X1502081Y391943D01*
X1502066Y391928D01*
X1502058Y391921D01*
X1503095D01*
Y390183D01*
X1493326D01*
Y392058D01*
X1496854D01*
X1496679Y392225D01*
X1496526Y392393D01*
X1496397Y392568D01*
X1496282Y392743D01*
X1496183Y392919D01*
X1496107Y393086D01*
X1496039Y393254D01*
X1495985Y393406D01*
X1495947Y393551D01*
X1495917Y393688D01*
X1495894Y393810D01*
X1495878Y393909D01*
X1495871Y393993D01*
X1495863Y394054D01*
Y394108D01*
X1495871Y394344D01*
X1495901Y394572D01*
X1495947Y394786D01*
X1496008Y394991D01*
X1496077Y395174D01*
X1496160Y395357D01*
X1496244Y395517D01*
X1496328Y395662D01*
X1496420Y395799D01*
X1496503Y395913D01*
X1496579Y396012D01*
X1496656Y396096D01*
X1496717Y396165D01*
X1496762Y396211D01*
X1496793Y396241D01*
X1496801Y396249D01*
X1496983Y396394D01*
X1497189Y396523D01*
X1497402Y396637D01*
X1497623Y396736D01*
X1497852Y396813D01*
X1498081Y396881D01*
X1498302Y396935D01*
X1498523Y396980D01*
X1498728Y397018D01*
X1498919Y397041D01*
X1499086Y397064D01*
X1499239Y397072D01*
X1499308Y397079D01*
X1499361D01*
X1499414Y397087D01*
X1499460D01*
X1499490D01*
X1499513D01*
X1499529D01*
X1499536D01*
X1499856Y397079D01*
D02*
G37*
%LPC*%
G36*
X1522433Y518474D02*
X1522311D01*
X1522265D01*
X1522227D01*
X1522196D01*
X1522174D01*
X1522158D01*
X1522151D01*
X1521838D01*
X1521556Y518466D01*
X1521290Y518458D01*
X1521046Y518443D01*
X1520825Y518428D01*
X1520627Y518413D01*
X1520444Y518397D01*
X1520291Y518374D01*
X1520147Y518359D01*
X1520032Y518344D01*
X1519933Y518329D01*
X1519850Y518313D01*
X1519789Y518298D01*
X1519743Y518291D01*
X1519720Y518283D01*
X1519712D01*
X1519613Y518252D01*
X1519514Y518222D01*
X1519430Y518191D01*
X1519354Y518161D01*
X1519217Y518092D01*
X1519110Y518024D01*
X1519034Y517963D01*
X1518973Y517917D01*
X1518943Y517887D01*
X1518935Y517872D01*
X1518859Y517765D01*
X1518806Y517666D01*
X1518767Y517559D01*
X1518745Y517468D01*
X1518722Y517384D01*
X1518714Y517323D01*
Y517262D01*
X1518722Y517140D01*
X1518745Y517026D01*
X1518783Y516919D01*
X1518821Y516835D01*
X1518866Y516759D01*
X1518897Y516706D01*
X1518927Y516675D01*
X1518935Y516660D01*
X1518981Y516614D01*
X1519034Y516561D01*
X1519156Y516477D01*
X1519301Y516401D01*
X1519446Y516340D01*
X1519583Y516287D01*
X1519636Y516264D01*
X1519689Y516248D01*
X1519735Y516233D01*
X1519766Y516226D01*
X1519789Y516218D01*
X1519796D01*
X1519926Y516188D01*
X1520078Y516157D01*
X1520253Y516134D01*
X1520436Y516119D01*
X1520627Y516096D01*
X1520825Y516088D01*
X1521214Y516066D01*
X1521396Y516058D01*
X1521572Y516050D01*
X1521732D01*
X1521869Y516043D01*
X1521991D01*
X1522036D01*
X1522074D01*
X1522105D01*
X1522128D01*
X1522143D01*
X1522151D01*
X1522463D01*
X1522753Y516050D01*
X1523012Y516058D01*
X1523256Y516073D01*
X1523477Y516088D01*
X1523682Y516104D01*
X1523858Y516127D01*
X1524018Y516142D01*
X1524155Y516157D01*
X1524269Y516180D01*
X1524368Y516195D01*
X1524452Y516210D01*
X1524513Y516226D01*
X1524551Y516233D01*
X1524581Y516241D01*
X1524589D01*
X1524688Y516271D01*
X1524787Y516302D01*
X1524871Y516332D01*
X1524947Y516363D01*
X1525084Y516431D01*
X1525191Y516500D01*
X1525267Y516561D01*
X1525321Y516607D01*
X1525359Y516637D01*
X1525366Y516652D01*
X1525435Y516751D01*
X1525488Y516858D01*
X1525526Y516965D01*
X1525549Y517056D01*
X1525565Y517140D01*
X1525580Y517201D01*
Y517262D01*
X1525572Y517384D01*
X1525549Y517498D01*
X1525511Y517605D01*
X1525473Y517696D01*
X1525443Y517772D01*
X1525405Y517826D01*
X1525382Y517856D01*
X1525374Y517872D01*
X1525328Y517917D01*
X1525275Y517963D01*
X1525153Y518047D01*
X1525008Y518123D01*
X1524863Y518184D01*
X1524734Y518237D01*
X1524673Y518260D01*
X1524627Y518275D01*
X1524581Y518291D01*
X1524551Y518298D01*
X1524528Y518306D01*
X1524521D01*
X1524383Y518336D01*
X1524231Y518359D01*
X1524063Y518382D01*
X1523880Y518405D01*
X1523682Y518420D01*
X1523484Y518435D01*
X1523096Y518451D01*
X1522905Y518458D01*
X1522730Y518466D01*
X1522570D01*
X1522433Y518474D01*
D02*
G37*
G36*
X1497204Y508346D02*
X1494949D01*
Y506548D01*
X1494957Y506365D01*
Y506213D01*
X1494964Y506076D01*
Y505855D01*
X1494972Y505771D01*
Y505702D01*
X1494979Y505641D01*
Y505603D01*
X1494987Y505573D01*
Y505535D01*
X1495017Y505359D01*
X1495063Y505207D01*
X1495124Y505078D01*
X1495177Y504978D01*
X1495238Y504895D01*
X1495284Y504834D01*
X1495315Y504803D01*
X1495330Y504788D01*
X1495444Y504704D01*
X1495566Y504643D01*
X1495688Y504598D01*
X1495802Y504567D01*
X1495901Y504552D01*
X1495985Y504537D01*
X1496016D01*
X1496039D01*
X1496054D01*
X1496061D01*
X1496229Y504552D01*
X1496381Y504582D01*
X1496511Y504628D01*
X1496618Y504681D01*
X1496709Y504742D01*
X1496770Y504788D01*
X1496808Y504818D01*
X1496823Y504834D01*
X1496922Y504948D01*
X1496999Y505078D01*
X1497060Y505215D01*
X1497105Y505337D01*
X1497136Y505451D01*
X1497159Y505542D01*
X1497166Y505580D01*
X1497174Y505603D01*
Y505626D01*
X1497182Y505687D01*
Y505771D01*
X1497189Y505862D01*
Y505969D01*
X1497197Y506083D01*
Y506449D01*
X1497204Y506563D01*
Y508346D01*
D02*
G37*
G36*
X1501441D02*
X1498827D01*
Y506510D01*
X1498835Y506289D01*
X1498843Y506091D01*
X1498850Y505916D01*
X1498858Y505748D01*
X1498873Y505611D01*
X1498888Y505481D01*
X1498896Y505375D01*
X1498911Y505283D01*
X1498927Y505207D01*
X1498942Y505139D01*
X1498949Y505093D01*
X1498957Y505055D01*
X1498965Y505032D01*
X1498972Y505017D01*
Y505009D01*
X1499033Y504864D01*
X1499102Y504742D01*
X1499178Y504636D01*
X1499247Y504552D01*
X1499315Y504483D01*
X1499368Y504430D01*
X1499407Y504399D01*
X1499422Y504392D01*
X1499544Y504315D01*
X1499666Y504262D01*
X1499788Y504224D01*
X1499902Y504201D01*
X1500009Y504178D01*
X1500085Y504171D01*
X1500115D01*
X1500138D01*
X1500153D01*
X1500161D01*
X1500351Y504186D01*
X1500511Y504216D01*
X1500656Y504262D01*
X1500778Y504308D01*
X1500870Y504361D01*
X1500938Y504407D01*
X1500984Y504437D01*
X1500999Y504453D01*
X1501106Y504559D01*
X1501190Y504681D01*
X1501258Y504803D01*
X1501304Y504910D01*
X1501342Y505017D01*
X1501373Y505093D01*
X1501380Y505123D01*
Y505146D01*
X1501388Y505161D01*
Y505169D01*
X1501395Y505230D01*
X1501403Y505314D01*
X1501411Y505405D01*
X1501418Y505504D01*
X1501426Y505725D01*
X1501434Y505954D01*
Y506068D01*
X1501441Y506175D01*
Y508346D01*
D02*
G37*
G36*
X1510504Y505245D02*
X1510382D01*
X1510337D01*
X1510299D01*
X1510268D01*
X1510245D01*
X1510230D01*
X1510222D01*
X1509910D01*
X1509628Y505238D01*
X1509361Y505230D01*
X1509117Y505215D01*
X1508896Y505199D01*
X1508698Y505184D01*
X1508515Y505169D01*
X1508363Y505146D01*
X1508218Y505131D01*
X1508104Y505116D01*
X1508005Y505100D01*
X1507921Y505085D01*
X1507860Y505070D01*
X1507814Y505062D01*
X1507792Y505055D01*
X1507784D01*
X1507685Y505024D01*
X1507586Y504994D01*
X1507502Y504963D01*
X1507426Y504933D01*
X1507289Y504864D01*
X1507182Y504796D01*
X1507106Y504735D01*
X1507045Y504689D01*
X1507014Y504658D01*
X1507007Y504643D01*
X1506931Y504537D01*
X1506877Y504437D01*
X1506839Y504331D01*
X1506816Y504239D01*
X1506793Y504156D01*
X1506786Y504095D01*
Y504034D01*
X1506793Y503912D01*
X1506816Y503797D01*
X1506854Y503691D01*
X1506892Y503607D01*
X1506938Y503531D01*
X1506969Y503477D01*
X1506999Y503447D01*
X1507007Y503432D01*
X1507052Y503386D01*
X1507106Y503332D01*
X1507228Y503249D01*
X1507372Y503172D01*
X1507517Y503112D01*
X1507654Y503058D01*
X1507708Y503035D01*
X1507761Y503020D01*
X1507807Y503005D01*
X1507837Y502997D01*
X1507860Y502990D01*
X1507868D01*
X1507997Y502959D01*
X1508150Y502929D01*
X1508325Y502906D01*
X1508508Y502891D01*
X1508698Y502868D01*
X1508896Y502860D01*
X1509285Y502837D01*
X1509468Y502830D01*
X1509643Y502822D01*
X1509803D01*
X1509940Y502814D01*
X1510062D01*
X1510108D01*
X1510146D01*
X1510177D01*
X1510199D01*
X1510215D01*
X1510222D01*
X1510535D01*
X1510824Y502822D01*
X1511083Y502830D01*
X1511327Y502845D01*
X1511548Y502860D01*
X1511754Y502875D01*
X1511929Y502898D01*
X1512089Y502913D01*
X1512226Y502929D01*
X1512341Y502952D01*
X1512440Y502967D01*
X1512524Y502982D01*
X1512585Y502997D01*
X1512623Y503005D01*
X1512653Y503013D01*
X1512661D01*
X1512760Y503043D01*
X1512859Y503074D01*
X1512943Y503104D01*
X1513019Y503134D01*
X1513156Y503203D01*
X1513263Y503272D01*
X1513339Y503332D01*
X1513392Y503378D01*
X1513430Y503409D01*
X1513438Y503424D01*
X1513507Y503523D01*
X1513560Y503630D01*
X1513598Y503736D01*
X1513621Y503828D01*
X1513636Y503912D01*
X1513651Y503973D01*
Y504034D01*
X1513644Y504156D01*
X1513621Y504270D01*
X1513583Y504376D01*
X1513545Y504468D01*
X1513514Y504544D01*
X1513476Y504598D01*
X1513453Y504628D01*
X1513446Y504643D01*
X1513400Y504689D01*
X1513347Y504735D01*
X1513225Y504818D01*
X1513080Y504895D01*
X1512935Y504956D01*
X1512806Y505009D01*
X1512745Y505032D01*
X1512699Y505047D01*
X1512653Y505062D01*
X1512623Y505070D01*
X1512600Y505078D01*
X1512592D01*
X1512455Y505108D01*
X1512303Y505131D01*
X1512135Y505154D01*
X1511952Y505177D01*
X1511754Y505192D01*
X1511556Y505207D01*
X1511167Y505222D01*
X1510977Y505230D01*
X1510802Y505238D01*
X1510641D01*
X1510504Y505245D01*
D02*
G37*
G36*
X1501014Y486218D02*
X1500992D01*
X1500984D01*
X1500976D01*
X1500900Y486210D01*
X1500831Y486203D01*
X1500702Y486157D01*
X1500588Y486104D01*
X1500496Y486035D01*
X1500420Y485967D01*
X1500359Y485906D01*
X1500329Y485868D01*
X1500313Y485860D01*
Y485852D01*
X1500283Y485799D01*
X1500252Y485738D01*
X1500222Y485669D01*
X1500191Y485593D01*
X1500138Y485425D01*
X1500092Y485258D01*
X1500047Y485098D01*
X1500031Y485029D01*
X1500016Y484961D01*
X1500001Y484915D01*
X1499993Y484869D01*
X1499986Y484846D01*
Y484839D01*
X1499955Y484694D01*
X1499925Y484565D01*
X1499894Y484443D01*
X1499871Y484328D01*
X1499841Y484229D01*
X1499818Y484138D01*
X1499795Y484054D01*
X1499780Y483978D01*
X1499757Y483909D01*
X1499742Y483856D01*
X1499727Y483802D01*
X1499719Y483764D01*
X1499711Y483734D01*
X1499704Y483711D01*
X1499696Y483703D01*
Y483696D01*
X1500069D01*
X1500191D01*
X1500306D01*
X1500405Y483703D01*
X1500496Y483711D01*
X1500580D01*
X1500656Y483719D01*
X1500725Y483726D01*
X1500778Y483734D01*
X1500831Y483741D01*
X1500870Y483749D01*
X1500938Y483757D01*
X1500969Y483772D01*
X1500984D01*
X1501113Y483825D01*
X1501235Y483886D01*
X1501342Y483963D01*
X1501434Y484039D01*
X1501510Y484107D01*
X1501563Y484168D01*
X1501593Y484206D01*
X1501609Y484214D01*
Y484222D01*
X1501670Y484305D01*
X1501715Y484397D01*
X1501799Y484565D01*
X1501853Y484725D01*
X1501898Y484869D01*
X1501921Y484999D01*
X1501929Y485052D01*
Y485098D01*
X1501936Y485128D01*
Y485182D01*
X1501921Y485342D01*
X1501891Y485494D01*
X1501845Y485616D01*
X1501792Y485723D01*
X1501746Y485814D01*
X1501700Y485875D01*
X1501670Y485913D01*
X1501655Y485928D01*
X1501540Y486027D01*
X1501426Y486096D01*
X1501312Y486149D01*
X1501205Y486180D01*
X1501113Y486203D01*
X1501045Y486210D01*
X1501014Y486218D01*
D02*
G37*
G36*
X1511167Y484572D02*
X1507548Y483254D01*
X1511167Y481905D01*
Y484572D01*
D02*
G37*
G36*
X1499513Y470940D02*
X1499452D01*
X1499422D01*
X1499407D01*
X1499216Y470932D01*
X1499033Y470917D01*
X1498873Y470902D01*
X1498713Y470871D01*
X1498576Y470841D01*
X1498446Y470803D01*
X1498324Y470757D01*
X1498226Y470719D01*
X1498134Y470681D01*
X1498050Y470635D01*
X1497982Y470597D01*
X1497928Y470566D01*
X1497883Y470536D01*
X1497852Y470513D01*
X1497837Y470506D01*
X1497829Y470498D01*
X1497738Y470414D01*
X1497654Y470323D01*
X1497585Y470231D01*
X1497517Y470132D01*
X1497471Y470041D01*
X1497425Y469949D01*
X1497387Y469858D01*
X1497364Y469774D01*
X1497341Y469690D01*
X1497326Y469622D01*
X1497311Y469553D01*
X1497303Y469492D01*
X1497296Y469446D01*
Y469385D01*
X1497303Y469256D01*
X1497319Y469142D01*
X1497349Y469027D01*
X1497380Y468921D01*
X1497464Y468730D01*
X1497517Y468646D01*
X1497563Y468570D01*
X1497616Y468502D01*
X1497669Y468441D01*
X1497715Y468387D01*
X1497753Y468341D01*
X1497784Y468311D01*
X1497814Y468288D01*
X1497829Y468273D01*
X1497837Y468265D01*
X1497944Y468189D01*
X1498065Y468120D01*
X1498195Y468060D01*
X1498332Y468006D01*
X1498477Y467968D01*
X1498629Y467930D01*
X1498911Y467877D01*
X1499048Y467861D01*
X1499178Y467846D01*
X1499292Y467839D01*
X1499391Y467831D01*
X1499475Y467823D01*
X1499536D01*
X1499574D01*
X1499589D01*
X1499788Y467831D01*
X1499970Y467846D01*
X1500146Y467869D01*
X1500306Y467892D01*
X1500450Y467930D01*
X1500588Y467968D01*
X1500710Y468006D01*
X1500816Y468052D01*
X1500915Y468098D01*
X1500999Y468136D01*
X1501068Y468174D01*
X1501121Y468212D01*
X1501167Y468235D01*
X1501205Y468258D01*
X1501220Y468273D01*
X1501228Y468280D01*
X1501327Y468364D01*
X1501411Y468456D01*
X1501479Y468547D01*
X1501548Y468639D01*
X1501601Y468730D01*
X1501639Y468822D01*
X1501677Y468913D01*
X1501708Y468997D01*
X1501731Y469073D01*
X1501746Y469142D01*
X1501761Y469210D01*
X1501769Y469263D01*
Y469309D01*
X1501776Y469340D01*
Y469370D01*
X1501769Y469515D01*
X1501746Y469660D01*
X1501708Y469789D01*
X1501662Y469911D01*
X1501609Y470018D01*
X1501548Y470125D01*
X1501479Y470224D01*
X1501411Y470308D01*
X1501342Y470384D01*
X1501273Y470445D01*
X1501212Y470506D01*
X1501159Y470551D01*
X1501113Y470589D01*
X1501075Y470612D01*
X1501053Y470628D01*
X1501045Y470635D01*
X1500946Y470689D01*
X1500831Y470734D01*
X1500710Y470780D01*
X1500580Y470810D01*
X1500306Y470864D01*
X1500039Y470902D01*
X1499910Y470917D01*
X1499795Y470925D01*
X1499689Y470932D01*
X1499589D01*
X1499513Y470940D01*
D02*
G37*
G36*
X1501014Y462726D02*
X1500992D01*
X1500984D01*
X1500976D01*
X1500900Y462718D01*
X1500831Y462710D01*
X1500702Y462665D01*
X1500588Y462611D01*
X1500496Y462543D01*
X1500420Y462474D01*
X1500359Y462413D01*
X1500329Y462375D01*
X1500313Y462367D01*
Y462360D01*
X1500283Y462307D01*
X1500252Y462245D01*
X1500222Y462177D01*
X1500191Y462101D01*
X1500138Y461933D01*
X1500092Y461765D01*
X1500047Y461605D01*
X1500031Y461537D01*
X1500016Y461468D01*
X1500001Y461423D01*
X1499993Y461377D01*
X1499986Y461354D01*
Y461346D01*
X1499955Y461202D01*
X1499925Y461072D01*
X1499894Y460950D01*
X1499871Y460836D01*
X1499841Y460737D01*
X1499818Y460645D01*
X1499795Y460561D01*
X1499780Y460485D01*
X1499757Y460417D01*
X1499742Y460363D01*
X1499727Y460310D01*
X1499719Y460272D01*
X1499711Y460241D01*
X1499704Y460219D01*
X1499696Y460211D01*
Y460203D01*
X1500069D01*
X1500191D01*
X1500306D01*
X1500405Y460211D01*
X1500496Y460219D01*
X1500580D01*
X1500656Y460226D01*
X1500725Y460234D01*
X1500778Y460241D01*
X1500831Y460249D01*
X1500870Y460257D01*
X1500938Y460264D01*
X1500969Y460280D01*
X1500984D01*
X1501113Y460333D01*
X1501235Y460394D01*
X1501342Y460470D01*
X1501434Y460546D01*
X1501510Y460615D01*
X1501563Y460676D01*
X1501593Y460714D01*
X1501609Y460722D01*
Y460729D01*
X1501670Y460813D01*
X1501715Y460904D01*
X1501799Y461072D01*
X1501853Y461232D01*
X1501898Y461377D01*
X1501921Y461506D01*
X1501929Y461560D01*
Y461605D01*
X1501936Y461636D01*
Y461689D01*
X1501921Y461849D01*
X1501891Y462002D01*
X1501845Y462124D01*
X1501792Y462230D01*
X1501746Y462322D01*
X1501700Y462383D01*
X1501670Y462421D01*
X1501655Y462436D01*
X1501540Y462535D01*
X1501426Y462604D01*
X1501312Y462657D01*
X1501205Y462687D01*
X1501113Y462710D01*
X1501045Y462718D01*
X1501014Y462726D01*
D02*
G37*
G36*
X1499658Y446701D02*
X1499605D01*
X1499574D01*
X1499559D01*
X1499368Y446693D01*
X1499186Y446678D01*
X1499018Y446655D01*
X1498866Y446624D01*
X1498721Y446586D01*
X1498591Y446541D01*
X1498469Y446503D01*
X1498363Y446449D01*
X1498264Y446404D01*
X1498180Y446365D01*
X1498111Y446320D01*
X1498058Y446282D01*
X1498012Y446251D01*
X1497974Y446228D01*
X1497959Y446213D01*
X1497951Y446205D01*
X1497852Y446106D01*
X1497768Y446007D01*
X1497692Y445908D01*
X1497623Y445802D01*
X1497570Y445703D01*
X1497524Y445596D01*
X1497486Y445497D01*
X1497456Y445405D01*
X1497433Y445314D01*
X1497418Y445238D01*
X1497402Y445162D01*
X1497395Y445101D01*
X1497387Y445047D01*
Y444979D01*
X1497395Y444841D01*
X1497410Y444712D01*
X1497441Y444590D01*
X1497479Y444476D01*
X1497517Y444369D01*
X1497563Y444270D01*
X1497616Y444179D01*
X1497669Y444087D01*
X1497722Y444011D01*
X1497776Y443950D01*
X1497822Y443889D01*
X1497860Y443843D01*
X1497898Y443805D01*
X1497928Y443775D01*
X1497944Y443759D01*
X1497951Y443752D01*
X1498058Y443668D01*
X1498180Y443592D01*
X1498302Y443523D01*
X1498439Y443462D01*
X1498568Y443416D01*
X1498698Y443378D01*
X1498957Y443317D01*
X1499079Y443295D01*
X1499193Y443279D01*
X1499292Y443272D01*
X1499376Y443264D01*
X1499452Y443256D01*
X1499506D01*
X1499536D01*
X1499551D01*
X1499742Y443264D01*
X1499925Y443279D01*
X1500100Y443302D01*
X1500252Y443333D01*
X1500397Y443371D01*
X1500534Y443416D01*
X1500656Y443455D01*
X1500763Y443500D01*
X1500862Y443554D01*
X1500938Y443592D01*
X1501014Y443638D01*
X1501068Y443676D01*
X1501113Y443706D01*
X1501151Y443729D01*
X1501167Y443744D01*
X1501174Y443752D01*
X1501273Y443843D01*
X1501357Y443950D01*
X1501434Y444049D01*
X1501494Y444156D01*
X1501548Y444255D01*
X1501593Y444354D01*
X1501632Y444453D01*
X1501662Y444552D01*
X1501685Y444636D01*
X1501700Y444720D01*
X1501715Y444796D01*
X1501723Y444857D01*
Y444910D01*
X1501731Y444948D01*
Y444979D01*
X1501723Y445116D01*
X1501708Y445238D01*
X1501677Y445360D01*
X1501647Y445481D01*
X1501601Y445588D01*
X1501555Y445687D01*
X1501502Y445779D01*
X1501449Y445863D01*
X1501403Y445939D01*
X1501350Y446007D01*
X1501304Y446068D01*
X1501258Y446114D01*
X1501228Y446152D01*
X1501197Y446183D01*
X1501182Y446198D01*
X1501174Y446205D01*
X1501068Y446289D01*
X1500946Y446365D01*
X1500816Y446434D01*
X1500687Y446495D01*
X1500550Y446541D01*
X1500420Y446579D01*
X1500161Y446640D01*
X1500039Y446663D01*
X1499925Y446678D01*
X1499818Y446685D01*
X1499734Y446693D01*
X1499658Y446701D01*
D02*
G37*
G36*
X1497204Y425753D02*
X1494949D01*
Y423955D01*
X1494957Y423772D01*
Y423620D01*
X1494964Y423483D01*
Y423262D01*
X1494972Y423178D01*
Y423109D01*
X1494979Y423048D01*
Y423010D01*
X1494987Y422980D01*
Y422942D01*
X1495017Y422766D01*
X1495063Y422614D01*
X1495124Y422484D01*
X1495177Y422385D01*
X1495238Y422301D01*
X1495284Y422240D01*
X1495315Y422210D01*
X1495330Y422195D01*
X1495444Y422111D01*
X1495566Y422050D01*
X1495688Y422004D01*
X1495802Y421974D01*
X1495901Y421959D01*
X1495985Y421943D01*
X1496016D01*
X1496039D01*
X1496054D01*
X1496061D01*
X1496229Y421959D01*
X1496381Y421989D01*
X1496511Y422035D01*
X1496618Y422088D01*
X1496709Y422149D01*
X1496770Y422195D01*
X1496808Y422225D01*
X1496823Y422240D01*
X1496922Y422355D01*
X1496999Y422484D01*
X1497060Y422621D01*
X1497105Y422743D01*
X1497136Y422858D01*
X1497159Y422949D01*
X1497166Y422987D01*
X1497174Y423010D01*
Y423033D01*
X1497182Y423094D01*
Y423178D01*
X1497189Y423269D01*
Y423376D01*
X1497197Y423490D01*
Y423856D01*
X1497204Y423970D01*
Y425753D01*
D02*
G37*
G36*
X1501441D02*
X1498827D01*
Y423917D01*
X1498835Y423696D01*
X1498843Y423498D01*
X1498850Y423322D01*
X1498858Y423155D01*
X1498873Y423018D01*
X1498888Y422888D01*
X1498896Y422781D01*
X1498911Y422690D01*
X1498927Y422614D01*
X1498942Y422545D01*
X1498949Y422500D01*
X1498957Y422462D01*
X1498965Y422439D01*
X1498972Y422423D01*
Y422416D01*
X1499033Y422271D01*
X1499102Y422149D01*
X1499178Y422042D01*
X1499247Y421959D01*
X1499315Y421890D01*
X1499368Y421837D01*
X1499407Y421806D01*
X1499422Y421799D01*
X1499544Y421722D01*
X1499666Y421669D01*
X1499788Y421631D01*
X1499902Y421608D01*
X1500009Y421585D01*
X1500085Y421578D01*
X1500115D01*
X1500138D01*
X1500153D01*
X1500161D01*
X1500351Y421593D01*
X1500511Y421623D01*
X1500656Y421669D01*
X1500778Y421715D01*
X1500870Y421768D01*
X1500938Y421814D01*
X1500984Y421844D01*
X1500999Y421860D01*
X1501106Y421966D01*
X1501190Y422088D01*
X1501258Y422210D01*
X1501304Y422317D01*
X1501342Y422423D01*
X1501373Y422500D01*
X1501380Y422530D01*
Y422553D01*
X1501388Y422568D01*
Y422576D01*
X1501395Y422637D01*
X1501403Y422721D01*
X1501411Y422812D01*
X1501418Y422911D01*
X1501426Y423132D01*
X1501434Y423361D01*
Y423475D01*
X1501441Y423582D01*
Y425753D01*
D02*
G37*
G36*
X1499658Y416404D02*
X1499605D01*
X1499574D01*
X1499559D01*
X1499368Y416396D01*
X1499186Y416381D01*
X1499018Y416358D01*
X1498866Y416327D01*
X1498721Y416289D01*
X1498591Y416244D01*
X1498469Y416205D01*
X1498363Y416152D01*
X1498264Y416106D01*
X1498180Y416068D01*
X1498111Y416023D01*
X1498058Y415984D01*
X1498012Y415954D01*
X1497974Y415931D01*
X1497959Y415916D01*
X1497951Y415908D01*
X1497852Y415809D01*
X1497768Y415710D01*
X1497692Y415611D01*
X1497623Y415504D01*
X1497570Y415405D01*
X1497524Y415299D01*
X1497486Y415200D01*
X1497456Y415108D01*
X1497433Y415017D01*
X1497418Y414940D01*
X1497402Y414864D01*
X1497395Y414803D01*
X1497387Y414750D01*
Y414682D01*
X1497395Y414544D01*
X1497410Y414415D01*
X1497441Y414293D01*
X1497479Y414179D01*
X1497517Y414072D01*
X1497563Y413973D01*
X1497616Y413881D01*
X1497669Y413790D01*
X1497722Y413714D01*
X1497776Y413653D01*
X1497822Y413592D01*
X1497860Y413546D01*
X1497898Y413508D01*
X1497928Y413478D01*
X1497944Y413462D01*
X1497951Y413455D01*
X1498058Y413371D01*
X1498180Y413295D01*
X1498302Y413226D01*
X1498439Y413165D01*
X1498568Y413119D01*
X1498698Y413081D01*
X1498957Y413020D01*
X1499079Y412997D01*
X1499193Y412982D01*
X1499292Y412975D01*
X1499376Y412967D01*
X1499452Y412959D01*
X1499506D01*
X1499536D01*
X1499551D01*
X1499742Y412967D01*
X1499925Y412982D01*
X1500100Y413005D01*
X1500252Y413036D01*
X1500397Y413074D01*
X1500534Y413119D01*
X1500656Y413158D01*
X1500763Y413203D01*
X1500862Y413256D01*
X1500938Y413295D01*
X1501014Y413340D01*
X1501068Y413378D01*
X1501113Y413409D01*
X1501151Y413432D01*
X1501167Y413447D01*
X1501174Y413455D01*
X1501273Y413546D01*
X1501357Y413653D01*
X1501434Y413752D01*
X1501494Y413858D01*
X1501548Y413958D01*
X1501593Y414057D01*
X1501632Y414156D01*
X1501662Y414255D01*
X1501685Y414339D01*
X1501700Y414422D01*
X1501715Y414499D01*
X1501723Y414560D01*
Y414613D01*
X1501731Y414651D01*
Y414682D01*
X1501723Y414819D01*
X1501708Y414940D01*
X1501677Y415062D01*
X1501647Y415184D01*
X1501601Y415291D01*
X1501555Y415390D01*
X1501502Y415482D01*
X1501449Y415565D01*
X1501403Y415642D01*
X1501350Y415710D01*
X1501304Y415771D01*
X1501258Y415817D01*
X1501228Y415855D01*
X1501197Y415885D01*
X1501182Y415901D01*
X1501174Y415908D01*
X1501068Y415992D01*
X1500946Y416068D01*
X1500816Y416137D01*
X1500687Y416198D01*
X1500550Y416244D01*
X1500420Y416282D01*
X1500161Y416343D01*
X1500039Y416366D01*
X1499925Y416381D01*
X1499818Y416388D01*
X1499734Y416396D01*
X1499658Y416404D01*
D02*
G37*
G36*
X1501014Y408182D02*
X1500992D01*
X1500984D01*
X1500976D01*
X1500900Y408174D01*
X1500831Y408166D01*
X1500702Y408121D01*
X1500588Y408067D01*
X1500496Y407999D01*
X1500420Y407930D01*
X1500359Y407869D01*
X1500329Y407831D01*
X1500313Y407823D01*
Y407816D01*
X1500283Y407762D01*
X1500252Y407701D01*
X1500222Y407633D01*
X1500191Y407557D01*
X1500138Y407389D01*
X1500092Y407221D01*
X1500047Y407062D01*
X1500031Y406993D01*
X1500016Y406924D01*
X1500001Y406879D01*
X1499993Y406833D01*
X1499986Y406810D01*
Y406802D01*
X1499955Y406658D01*
X1499925Y406528D01*
X1499894Y406406D01*
X1499871Y406292D01*
X1499841Y406193D01*
X1499818Y406101D01*
X1499795Y406017D01*
X1499780Y405941D01*
X1499757Y405873D01*
X1499742Y405819D01*
X1499727Y405766D01*
X1499719Y405728D01*
X1499711Y405698D01*
X1499704Y405675D01*
X1499696Y405667D01*
Y405659D01*
X1500069D01*
X1500191D01*
X1500306D01*
X1500405Y405667D01*
X1500496Y405675D01*
X1500580D01*
X1500656Y405682D01*
X1500725Y405690D01*
X1500778Y405698D01*
X1500831Y405705D01*
X1500870Y405713D01*
X1500938Y405720D01*
X1500969Y405736D01*
X1500984D01*
X1501113Y405789D01*
X1501235Y405850D01*
X1501342Y405926D01*
X1501434Y406002D01*
X1501510Y406071D01*
X1501563Y406132D01*
X1501593Y406170D01*
X1501609Y406177D01*
Y406185D01*
X1501670Y406269D01*
X1501715Y406360D01*
X1501799Y406528D01*
X1501853Y406688D01*
X1501898Y406833D01*
X1501921Y406962D01*
X1501929Y407016D01*
Y407062D01*
X1501936Y407092D01*
Y407145D01*
X1501921Y407305D01*
X1501891Y407458D01*
X1501845Y407580D01*
X1501792Y407686D01*
X1501746Y407778D01*
X1501700Y407839D01*
X1501670Y407877D01*
X1501655Y407892D01*
X1501540Y407991D01*
X1501426Y408060D01*
X1501312Y408113D01*
X1501205Y408144D01*
X1501113Y408166D01*
X1501045Y408174D01*
X1501014Y408182D01*
D02*
G37*
G36*
X1499513Y395167D02*
X1499452D01*
X1499422D01*
X1499407D01*
X1499216Y395159D01*
X1499033Y395144D01*
X1498873Y395129D01*
X1498713Y395098D01*
X1498576Y395068D01*
X1498446Y395029D01*
X1498324Y394984D01*
X1498226Y394946D01*
X1498134Y394908D01*
X1498050Y394862D01*
X1497982Y394824D01*
X1497928Y394793D01*
X1497883Y394763D01*
X1497852Y394740D01*
X1497837Y394732D01*
X1497829Y394725D01*
X1497738Y394641D01*
X1497654Y394549D01*
X1497585Y394458D01*
X1497517Y394359D01*
X1497471Y394268D01*
X1497425Y394176D01*
X1497387Y394085D01*
X1497364Y394001D01*
X1497341Y393917D01*
X1497326Y393848D01*
X1497311Y393780D01*
X1497303Y393719D01*
X1497296Y393673D01*
Y393612D01*
X1497303Y393483D01*
X1497319Y393368D01*
X1497349Y393254D01*
X1497380Y393147D01*
X1497464Y392957D01*
X1497517Y392873D01*
X1497563Y392797D01*
X1497616Y392728D01*
X1497669Y392667D01*
X1497715Y392614D01*
X1497753Y392568D01*
X1497784Y392538D01*
X1497814Y392515D01*
X1497829Y392500D01*
X1497837Y392492D01*
X1497944Y392416D01*
X1498065Y392347D01*
X1498195Y392286D01*
X1498332Y392233D01*
X1498477Y392195D01*
X1498629Y392157D01*
X1498911Y392103D01*
X1499048Y392088D01*
X1499178Y392073D01*
X1499292Y392065D01*
X1499391Y392058D01*
X1499475Y392050D01*
X1499536D01*
X1499574D01*
X1499589D01*
X1499788Y392058D01*
X1499970Y392073D01*
X1500146Y392096D01*
X1500306Y392119D01*
X1500450Y392157D01*
X1500588Y392195D01*
X1500710Y392233D01*
X1500816Y392279D01*
X1500915Y392324D01*
X1500999Y392363D01*
X1501068Y392401D01*
X1501121Y392439D01*
X1501167Y392462D01*
X1501205Y392484D01*
X1501220Y392500D01*
X1501228Y392507D01*
X1501327Y392591D01*
X1501411Y392682D01*
X1501479Y392774D01*
X1501548Y392865D01*
X1501601Y392957D01*
X1501639Y393048D01*
X1501677Y393140D01*
X1501708Y393223D01*
X1501731Y393300D01*
X1501746Y393368D01*
X1501761Y393437D01*
X1501769Y393490D01*
Y393536D01*
X1501776Y393566D01*
Y393597D01*
X1501769Y393742D01*
X1501746Y393886D01*
X1501708Y394016D01*
X1501662Y394138D01*
X1501609Y394245D01*
X1501548Y394351D01*
X1501479Y394450D01*
X1501411Y394534D01*
X1501342Y394610D01*
X1501273Y394671D01*
X1501212Y394732D01*
X1501159Y394778D01*
X1501113Y394816D01*
X1501075Y394839D01*
X1501053Y394854D01*
X1501045Y394862D01*
X1500946Y394915D01*
X1500831Y394961D01*
X1500710Y395007D01*
X1500580Y395037D01*
X1500306Y395090D01*
X1500039Y395129D01*
X1499910Y395144D01*
X1499795Y395151D01*
X1499689Y395159D01*
X1499589D01*
X1499513Y395167D01*
D02*
G37*
%LPD*%
D14*
X32179Y231618D02*
Y236616D01*
X30929D01*
X25931Y231618D01*
X24681D01*
Y242864D02*
X32179D01*
X28430Y239116D01*
Y244114D01*
X23500Y60998D02*
Y56000D01*
X28498Y60998D01*
X29748D01*
X30998Y59749D01*
Y57250D01*
X29748Y56000D01*
M02*
