G04*
G04 #@! TF.GenerationSoftware,Altium Limited,Altium NEXUS,5.8.2 (18)*
G04*
G04 Layer_Physical_Order=3*
G04 Layer_Color=16440176*
%FSLAX44Y44*%
%MOMM*%
G71*
G04*
G04 #@! TF.SameCoordinates,3A4C7DAC-53F9-47BC-B828-E3EBBCC91193*
G04*
G04*
G04 #@! TF.FilePolarity,Positive*
G04*
G01*
G75*
%ADD14C,0.1500*%
%ADD79C,0.6040*%
G36*
X771795Y1494478D02*
X771893Y1493986D01*
X772943Y1491450D01*
X773222Y1491033D01*
X773414Y1490569D01*
X774939Y1488287D01*
X775294Y1487932D01*
X775573Y1487514D01*
X777513Y1485574D01*
X777931Y1485295D01*
X778286Y1484940D01*
X780568Y1483415D01*
X781032Y1483223D01*
X781449Y1482944D01*
X783985Y1481893D01*
X784477Y1481796D01*
X784941Y1481603D01*
X787633Y1481068D01*
X788011D01*
X788377Y1480976D01*
X789749Y1480909D01*
X789999Y1480946D01*
X790250Y1480909D01*
X791622Y1480976D01*
X791988Y1481068D01*
X792366D01*
X795058Y1481603D01*
X795522Y1481796D01*
X796014Y1481893D01*
X798550Y1482944D01*
X798967Y1483223D01*
X799431Y1483415D01*
X801713Y1484940D01*
X802068Y1485295D01*
X802486Y1485574D01*
X804426Y1487514D01*
X804705Y1487932D01*
X805060Y1488287D01*
X806585Y1490569D01*
X806777Y1491033D01*
X807056Y1491450D01*
X808107Y1493986D01*
X808204Y1494478D01*
X808380Y1494903D01*
X1421619Y1494903D01*
X1421795Y1494478D01*
X1421893Y1493986D01*
X1422943Y1491450D01*
X1423222Y1491033D01*
X1423414Y1490569D01*
X1424939Y1488287D01*
X1425294Y1487932D01*
X1425573Y1487514D01*
X1427513Y1485574D01*
X1427931Y1485295D01*
X1428286Y1484940D01*
X1430568Y1483415D01*
X1431032Y1483223D01*
X1431449Y1482944D01*
X1433985Y1481893D01*
X1434477Y1481796D01*
X1434941Y1481603D01*
X1437633Y1481068D01*
X1438011D01*
X1438377Y1480976D01*
X1439749Y1480909D01*
X1440000Y1480946D01*
X1440250Y1480909D01*
X1441622Y1480976D01*
X1441988Y1481068D01*
X1442366D01*
X1445058Y1481603D01*
X1445522Y1481796D01*
X1446014Y1481893D01*
X1448550Y1482944D01*
X1448967Y1483223D01*
X1449431Y1483415D01*
X1451713Y1484940D01*
X1452068Y1485295D01*
X1452486Y1485574D01*
X1454426Y1487514D01*
X1454705Y1487932D01*
X1455060Y1488287D01*
X1456585Y1490569D01*
X1456777Y1491033D01*
X1457056Y1491450D01*
X1458107Y1493986D01*
X1458204Y1494478D01*
X1458380Y1494902D01*
X1470000Y1494902D01*
X1527888D01*
X1534903Y1487888D01*
Y1418381D01*
X1534478Y1418205D01*
X1533986Y1418107D01*
X1531450Y1417057D01*
X1531033Y1416778D01*
X1530569Y1416586D01*
X1528287Y1415061D01*
X1527932Y1414706D01*
X1527514Y1414427D01*
X1525574Y1412487D01*
X1525295Y1412069D01*
X1524940Y1411714D01*
X1523415Y1409432D01*
X1523223Y1408968D01*
X1522944Y1408551D01*
X1521893Y1406015D01*
X1521796Y1405523D01*
X1521603Y1405059D01*
X1521068Y1402367D01*
Y1401989D01*
X1520976Y1401623D01*
X1520909Y1400251D01*
X1520946Y1400000D01*
X1520909Y1399750D01*
X1520976Y1398378D01*
X1521068Y1398012D01*
Y1397634D01*
X1521603Y1394942D01*
X1521796Y1394478D01*
X1521893Y1393986D01*
X1522944Y1391450D01*
X1523223Y1391033D01*
X1523415Y1390569D01*
X1524940Y1388287D01*
X1525295Y1387932D01*
X1525574Y1387514D01*
X1527514Y1385574D01*
X1527932Y1385295D01*
X1528287Y1384940D01*
X1530569Y1383415D01*
X1531033Y1383223D01*
X1531450Y1382944D01*
X1533986Y1381893D01*
X1534478Y1381796D01*
X1534903Y1381620D01*
X1534903Y768381D01*
X1534478Y768205D01*
X1533986Y768107D01*
X1531450Y767057D01*
X1531033Y766778D01*
X1530569Y766586D01*
X1528287Y765061D01*
X1527932Y764706D01*
X1527514Y764427D01*
X1525574Y762487D01*
X1525295Y762069D01*
X1524940Y761714D01*
X1523415Y759432D01*
X1523223Y758968D01*
X1522944Y758551D01*
X1521893Y756015D01*
X1521796Y755523D01*
X1521603Y755059D01*
X1521068Y752367D01*
Y751989D01*
X1520976Y751623D01*
X1520909Y750251D01*
X1520946Y750001D01*
X1520909Y749750D01*
X1520976Y748378D01*
X1521068Y748012D01*
Y747634D01*
X1521603Y744942D01*
X1521796Y744478D01*
X1521893Y743986D01*
X1522944Y741450D01*
X1523223Y741032D01*
X1523415Y740569D01*
X1524940Y738287D01*
X1525295Y737932D01*
X1525574Y737514D01*
X1527514Y735574D01*
X1527932Y735295D01*
X1528287Y734940D01*
X1530569Y733415D01*
X1531033Y733223D01*
X1531450Y732944D01*
X1533986Y731893D01*
X1534478Y731796D01*
X1534903Y731620D01*
X1534903Y118381D01*
X1534478Y118205D01*
X1533986Y118107D01*
X1531450Y117057D01*
X1531033Y116778D01*
X1530569Y116586D01*
X1528287Y115061D01*
X1527932Y114706D01*
X1527514Y114427D01*
X1525574Y112487D01*
X1525295Y112069D01*
X1524940Y111714D01*
X1523415Y109432D01*
X1523223Y108968D01*
X1522944Y108551D01*
X1521893Y106015D01*
X1521796Y105523D01*
X1521603Y105059D01*
X1521068Y102367D01*
Y101989D01*
X1520976Y101623D01*
X1520909Y100251D01*
X1520946Y100000D01*
X1520909Y99750D01*
X1520976Y98378D01*
X1521068Y98012D01*
Y97634D01*
X1521603Y94942D01*
X1521796Y94478D01*
X1521893Y93986D01*
X1522944Y91450D01*
X1523223Y91032D01*
X1523415Y90569D01*
X1524940Y88287D01*
X1525295Y87932D01*
X1525574Y87514D01*
X1527514Y85574D01*
X1527932Y85295D01*
X1528287Y84940D01*
X1530569Y83415D01*
X1531033Y83223D01*
X1531450Y82944D01*
X1533986Y81894D01*
X1534478Y81796D01*
X1534903Y81620D01*
X1534903Y12112D01*
X1527888Y5097D01*
X1458381D01*
X1458205Y5522D01*
X1458107Y6014D01*
X1457057Y8550D01*
X1456778Y8967D01*
X1456586Y9431D01*
X1455061Y11713D01*
X1454706Y12068D01*
X1454427Y12486D01*
X1452487Y14426D01*
X1452069Y14705D01*
X1451714Y15060D01*
X1449432Y16585D01*
X1448968Y16777D01*
X1448551Y17056D01*
X1446015Y18106D01*
X1445523Y18204D01*
X1445059Y18397D01*
X1442367Y18932D01*
X1441989D01*
X1441623Y19024D01*
X1440251Y19091D01*
X1440000Y19054D01*
X1439750Y19091D01*
X1438378Y19024D01*
X1438011Y18932D01*
X1437634D01*
X1434942Y18397D01*
X1434478Y18204D01*
X1433986Y18106D01*
X1431450Y17056D01*
X1431033Y16777D01*
X1430569Y16585D01*
X1428287Y15060D01*
X1427932Y14705D01*
X1427514Y14426D01*
X1425574Y12486D01*
X1425295Y12068D01*
X1424940Y11713D01*
X1423415Y9431D01*
X1423223Y8967D01*
X1422944Y8550D01*
X1421893Y6014D01*
X1421796Y5522D01*
X1421620Y5097D01*
X808381Y5097D01*
X808205Y5522D01*
X808107Y6014D01*
X807057Y8550D01*
X806778Y8967D01*
X806586Y9431D01*
X805061Y11713D01*
X804706Y12068D01*
X804427Y12486D01*
X802487Y14426D01*
X802069Y14705D01*
X801714Y15060D01*
X799432Y16585D01*
X798968Y16777D01*
X798551Y17056D01*
X796015Y18106D01*
X795523Y18204D01*
X795059Y18397D01*
X792367Y18932D01*
X791989D01*
X791623Y19024D01*
X790251Y19091D01*
X790001Y19054D01*
X789750Y19091D01*
X788378Y19024D01*
X788011Y18932D01*
X787634D01*
X784942Y18397D01*
X784478Y18204D01*
X783986Y18106D01*
X781450Y17056D01*
X781033Y16777D01*
X780569Y16585D01*
X778287Y15060D01*
X777932Y14705D01*
X777514Y14426D01*
X775574Y12486D01*
X775295Y12068D01*
X774940Y11713D01*
X773415Y9431D01*
X773223Y8967D01*
X772944Y8550D01*
X771893Y6014D01*
X771796Y5522D01*
X771620Y5097D01*
X158381Y5097D01*
X158205Y5522D01*
X158107Y6014D01*
X157057Y8550D01*
X156778Y8967D01*
X156586Y9431D01*
X155061Y11713D01*
X154706Y12068D01*
X154427Y12486D01*
X152487Y14426D01*
X152069Y14705D01*
X151714Y15060D01*
X149432Y16585D01*
X148968Y16777D01*
X148551Y17056D01*
X146015Y18106D01*
X145523Y18204D01*
X145059Y18397D01*
X142367Y18932D01*
X141989D01*
X141623Y19024D01*
X140251Y19091D01*
X140000Y19054D01*
X139750Y19091D01*
X138378Y19024D01*
X138012Y18932D01*
X137634D01*
X134942Y18397D01*
X134478Y18204D01*
X133986Y18107D01*
X131450Y17056D01*
X131033Y16777D01*
X130569Y16585D01*
X128287Y15061D01*
X127932Y14706D01*
X127514Y14427D01*
X125574Y12486D01*
X125295Y12069D01*
X124940Y11714D01*
X123415Y9432D01*
X123223Y8968D01*
X122944Y8550D01*
X121894Y6015D01*
X121796Y5522D01*
X121620Y5098D01*
X52112Y5098D01*
X45098Y12112D01*
Y45750D01*
X45048Y45998D01*
X45073Y46250D01*
X44977Y47225D01*
X44760Y47942D01*
X44614Y48676D01*
X43867Y50479D01*
X42762Y52133D01*
X41382Y53512D01*
X39729Y54617D01*
X37926Y55364D01*
X37192Y55510D01*
X36475Y55727D01*
X35500Y55823D01*
X35248Y55798D01*
X35000Y55848D01*
X5098Y55848D01*
Y112652D01*
X29000D01*
X29248Y112702D01*
X29500Y112677D01*
X30670Y112792D01*
X31387Y113009D01*
X32122Y113155D01*
X34284Y114051D01*
X35938Y115156D01*
X37594Y116812D01*
X38699Y118466D01*
X39595Y120628D01*
X39741Y121363D01*
X39958Y122080D01*
X40073Y123250D01*
X40024Y123750D01*
X40073Y124250D01*
X39958Y125420D01*
X39741Y126137D01*
X39595Y126872D01*
X38699Y129034D01*
X37594Y130688D01*
X35938Y132344D01*
X34284Y133449D01*
X32121Y134345D01*
X31387Y134491D01*
X30670Y134708D01*
X29500Y134823D01*
X29248Y134798D01*
X29000Y134848D01*
X5098Y134848D01*
Y244152D01*
X35000D01*
X35248Y244202D01*
X35500Y244177D01*
X36212Y244247D01*
X37015Y243512D01*
X37187Y243162D01*
Y241583D01*
X37837Y240014D01*
X39038Y238812D01*
X40608Y238162D01*
X42306D01*
X43876Y238812D01*
X45077Y240014D01*
X45727Y241583D01*
Y243282D01*
X45077Y244851D01*
X43876Y246052D01*
X43074Y246384D01*
X42762Y247868D01*
X43867Y249522D01*
X44613Y251324D01*
X44759Y252058D01*
X44977Y252775D01*
X45073Y253750D01*
X45048Y254002D01*
X45097Y254250D01*
X45097Y720000D01*
Y731619D01*
X45522Y731795D01*
X46014Y731893D01*
X48550Y732943D01*
X48967Y733222D01*
X49431Y733414D01*
X51713Y734939D01*
X52068Y735294D01*
X52486Y735573D01*
X54426Y737513D01*
X54705Y737931D01*
X55060Y738286D01*
X56585Y740568D01*
X56777Y741032D01*
X57056Y741449D01*
X58106Y743985D01*
X58204Y744477D01*
X58397Y744941D01*
X58932Y747633D01*
Y748011D01*
X59024Y748377D01*
X59091Y749749D01*
X59054Y749999D01*
X59091Y750250D01*
X59024Y751622D01*
X58932Y751988D01*
Y752366D01*
X58397Y755058D01*
X58204Y755522D01*
X58106Y756014D01*
X57056Y758550D01*
X56777Y758967D01*
X56585Y759431D01*
X55060Y761713D01*
X54705Y762068D01*
X54426Y762486D01*
X52486Y764426D01*
X52068Y764705D01*
X51713Y765060D01*
X49431Y766585D01*
X48967Y766777D01*
X48550Y767056D01*
X46014Y768107D01*
X45522Y768204D01*
X45097Y768380D01*
X45097Y1381619D01*
X45522Y1381795D01*
X46014Y1381893D01*
X48550Y1382943D01*
X48967Y1383222D01*
X49431Y1383414D01*
X51713Y1384939D01*
X52068Y1385294D01*
X52486Y1385573D01*
X54426Y1387513D01*
X54705Y1387931D01*
X55060Y1388286D01*
X56585Y1390568D01*
X56777Y1391032D01*
X57056Y1391449D01*
X58106Y1393985D01*
X58204Y1394477D01*
X58397Y1394941D01*
X58932Y1397633D01*
Y1398011D01*
X59024Y1398377D01*
X59091Y1399749D01*
X59054Y1400000D01*
X59091Y1400250D01*
X59024Y1401622D01*
X58932Y1401988D01*
Y1402366D01*
X58397Y1405058D01*
X58204Y1405522D01*
X58106Y1406014D01*
X57056Y1408550D01*
X56777Y1408967D01*
X56585Y1409431D01*
X55060Y1411713D01*
X54705Y1412068D01*
X54426Y1412486D01*
X52486Y1414426D01*
X52068Y1414705D01*
X51713Y1415060D01*
X49431Y1416585D01*
X48967Y1416777D01*
X48550Y1417056D01*
X46014Y1418107D01*
X45522Y1418204D01*
X45097Y1418380D01*
X45098Y1430000D01*
X45098Y1430000D01*
X45098Y1430000D01*
X45097Y1487888D01*
X52112Y1494903D01*
X121619D01*
X121795Y1494478D01*
X121893Y1493986D01*
X122943Y1491450D01*
X123222Y1491033D01*
X123414Y1490569D01*
X124939Y1488287D01*
X125294Y1487932D01*
X125573Y1487514D01*
X127513Y1485574D01*
X127931Y1485295D01*
X128286Y1484940D01*
X130568Y1483415D01*
X131032Y1483223D01*
X131449Y1482944D01*
X133985Y1481893D01*
X134477Y1481796D01*
X134941Y1481603D01*
X137633Y1481068D01*
X138011D01*
X138377Y1480976D01*
X139749Y1480909D01*
X140000Y1480946D01*
X140250Y1480909D01*
X141622Y1480976D01*
X141988Y1481068D01*
X142366D01*
X145058Y1481603D01*
X145522Y1481796D01*
X146014Y1481893D01*
X148550Y1482944D01*
X148967Y1483223D01*
X149431Y1483415D01*
X151713Y1484940D01*
X152068Y1485295D01*
X152486Y1485574D01*
X154426Y1487514D01*
X154705Y1487932D01*
X155060Y1488287D01*
X156585Y1490569D01*
X156777Y1491033D01*
X157056Y1491450D01*
X158106Y1493986D01*
X158204Y1494478D01*
X158380Y1494902D01*
X170000Y1494902D01*
X759999Y1494903D01*
X771619D01*
X771795Y1494478D01*
D02*
G37*
%LPC*%
G36*
X1410847Y1424268D02*
X1409149D01*
X1407579Y1423618D01*
X1406378Y1422417D01*
X1405728Y1420847D01*
Y1419149D01*
X1406378Y1417579D01*
X1407579Y1416378D01*
X1409149Y1415728D01*
X1410847D01*
X1412417Y1416378D01*
X1413618Y1417579D01*
X1414268Y1419149D01*
Y1420847D01*
X1413618Y1422417D01*
X1412417Y1423618D01*
X1410847Y1424268D01*
D02*
G37*
G36*
X1225133D02*
X1223435D01*
X1221865Y1423618D01*
X1220664Y1422417D01*
X1220014Y1420847D01*
Y1419149D01*
X1220664Y1417579D01*
X1221865Y1416378D01*
X1223435Y1415728D01*
X1225133D01*
X1226703Y1416378D01*
X1227904Y1417579D01*
X1228554Y1419149D01*
Y1420847D01*
X1227904Y1422417D01*
X1226703Y1423618D01*
X1225133Y1424268D01*
D02*
G37*
G36*
X1039419D02*
X1037721D01*
X1036151Y1423618D01*
X1034950Y1422417D01*
X1034300Y1420847D01*
Y1419149D01*
X1034950Y1417579D01*
X1036151Y1416378D01*
X1037721Y1415728D01*
X1039419D01*
X1040989Y1416378D01*
X1042190Y1417579D01*
X1042840Y1419149D01*
Y1420847D01*
X1042190Y1422417D01*
X1040989Y1423618D01*
X1039419Y1424268D01*
D02*
G37*
G36*
X853705D02*
X852007D01*
X850437Y1423618D01*
X849236Y1422417D01*
X848586Y1420847D01*
Y1419149D01*
X849236Y1417579D01*
X850437Y1416378D01*
X852007Y1415728D01*
X853705D01*
X855275Y1416378D01*
X856476Y1417579D01*
X857126Y1419149D01*
Y1420847D01*
X856476Y1422417D01*
X855275Y1423618D01*
X853705Y1424268D01*
D02*
G37*
G36*
X667991D02*
X666293D01*
X664723Y1423618D01*
X663522Y1422417D01*
X662872Y1420847D01*
Y1419149D01*
X663522Y1417579D01*
X664723Y1416378D01*
X666293Y1415728D01*
X667991D01*
X669561Y1416378D01*
X670762Y1417579D01*
X671412Y1419149D01*
Y1420847D01*
X670762Y1422417D01*
X669561Y1423618D01*
X667991Y1424268D01*
D02*
G37*
G36*
X482277D02*
X480579D01*
X479009Y1423618D01*
X477808Y1422417D01*
X477158Y1420847D01*
Y1419149D01*
X477808Y1417579D01*
X479009Y1416378D01*
X480579Y1415728D01*
X482277D01*
X483847Y1416378D01*
X485048Y1417579D01*
X485698Y1419149D01*
Y1420847D01*
X485048Y1422417D01*
X483847Y1423618D01*
X482277Y1424268D01*
D02*
G37*
G36*
X296563D02*
X294865D01*
X293295Y1423618D01*
X292094Y1422417D01*
X291444Y1420847D01*
Y1419149D01*
X292094Y1417579D01*
X293295Y1416378D01*
X294865Y1415728D01*
X296563D01*
X298133Y1416378D01*
X299334Y1417579D01*
X299984Y1419149D01*
Y1420847D01*
X299334Y1422417D01*
X298133Y1423618D01*
X296563Y1424268D01*
D02*
G37*
G36*
X110849D02*
X109151D01*
X107581Y1423618D01*
X106380Y1422417D01*
X105730Y1420847D01*
Y1419149D01*
X106380Y1417579D01*
X107581Y1416378D01*
X109151Y1415728D01*
X110849D01*
X112419Y1416378D01*
X113620Y1417579D01*
X114270Y1419149D01*
Y1420847D01*
X113620Y1422417D01*
X112419Y1423618D01*
X110849Y1424268D01*
D02*
G37*
G36*
X1410852Y1385749D02*
X1409154D01*
X1407584Y1385099D01*
X1406383Y1383898D01*
X1405733Y1382328D01*
Y1380630D01*
X1406383Y1379060D01*
X1407584Y1377859D01*
X1409154Y1377209D01*
X1410852D01*
X1412422Y1377859D01*
X1413623Y1379060D01*
X1414273Y1380630D01*
Y1382328D01*
X1413623Y1383898D01*
X1412422Y1385099D01*
X1410852Y1385749D01*
D02*
G37*
G36*
X1225138D02*
X1223440D01*
X1221870Y1385099D01*
X1220669Y1383898D01*
X1220019Y1382328D01*
Y1380630D01*
X1220669Y1379060D01*
X1221870Y1377859D01*
X1223440Y1377209D01*
X1225138D01*
X1226708Y1377859D01*
X1227909Y1379060D01*
X1228559Y1380630D01*
Y1382328D01*
X1227909Y1383898D01*
X1226708Y1385099D01*
X1225138Y1385749D01*
D02*
G37*
G36*
X1039424D02*
X1037726D01*
X1036156Y1385099D01*
X1034955Y1383898D01*
X1034305Y1382328D01*
Y1380630D01*
X1034955Y1379060D01*
X1036156Y1377859D01*
X1037726Y1377209D01*
X1039424D01*
X1040994Y1377859D01*
X1042195Y1379060D01*
X1042845Y1380630D01*
Y1382328D01*
X1042195Y1383898D01*
X1040994Y1385099D01*
X1039424Y1385749D01*
D02*
G37*
G36*
X853710D02*
X852012D01*
X850442Y1385099D01*
X849241Y1383898D01*
X848591Y1382328D01*
Y1380630D01*
X849241Y1379060D01*
X850442Y1377859D01*
X852012Y1377209D01*
X853710D01*
X855280Y1377859D01*
X856481Y1379060D01*
X857131Y1380630D01*
Y1382328D01*
X856481Y1383898D01*
X855280Y1385099D01*
X853710Y1385749D01*
D02*
G37*
G36*
X667996D02*
X666298D01*
X664728Y1385099D01*
X663527Y1383898D01*
X662877Y1382328D01*
Y1380630D01*
X663527Y1379060D01*
X664728Y1377859D01*
X666298Y1377209D01*
X667996D01*
X669566Y1377859D01*
X670767Y1379060D01*
X671417Y1380630D01*
Y1382328D01*
X670767Y1383898D01*
X669566Y1385099D01*
X667996Y1385749D01*
D02*
G37*
G36*
X482282D02*
X480584D01*
X479014Y1385099D01*
X477813Y1383898D01*
X477163Y1382328D01*
Y1380630D01*
X477813Y1379060D01*
X479014Y1377859D01*
X480584Y1377209D01*
X482282D01*
X483852Y1377859D01*
X485053Y1379060D01*
X485703Y1380630D01*
Y1382328D01*
X485053Y1383898D01*
X483852Y1385099D01*
X482282Y1385749D01*
D02*
G37*
G36*
X296568D02*
X294870D01*
X293300Y1385099D01*
X292099Y1383898D01*
X291449Y1382328D01*
Y1380630D01*
X292099Y1379060D01*
X293300Y1377859D01*
X294870Y1377209D01*
X296568D01*
X298138Y1377859D01*
X299339Y1379060D01*
X299989Y1380630D01*
Y1382328D01*
X299339Y1383898D01*
X298138Y1385099D01*
X296568Y1385749D01*
D02*
G37*
G36*
X110854D02*
X109156D01*
X107586Y1385099D01*
X106385Y1383898D01*
X105735Y1382328D01*
Y1380630D01*
X106385Y1379060D01*
X107586Y1377859D01*
X109156Y1377209D01*
X110854D01*
X112424Y1377859D01*
X113625Y1379060D01*
X114275Y1380630D01*
Y1382328D01*
X113625Y1383898D01*
X112424Y1385099D01*
X110854Y1385749D01*
D02*
G37*
G36*
X81849Y1384270D02*
X80151D01*
X78581Y1383620D01*
X77380Y1382419D01*
X76730Y1380849D01*
Y1379151D01*
X77380Y1377581D01*
X78581Y1376380D01*
X80151Y1375730D01*
X81849D01*
X83419Y1376380D01*
X84620Y1377581D01*
X85270Y1379151D01*
Y1380849D01*
X84620Y1382419D01*
X83419Y1383620D01*
X81849Y1384270D01*
D02*
G37*
G36*
X110849Y1332270D02*
X109151D01*
X107581Y1331620D01*
X106380Y1330419D01*
X105730Y1328849D01*
Y1327151D01*
X106380Y1325581D01*
X107581Y1324380D01*
X109151Y1323730D01*
X110849D01*
X112419Y1324380D01*
X113620Y1325581D01*
X114270Y1327151D01*
Y1328849D01*
X113620Y1330419D01*
X112419Y1331620D01*
X110849Y1332270D01*
D02*
G37*
G36*
X81467Y1332168D02*
X79769D01*
X78199Y1331518D01*
X76998Y1330317D01*
X76348Y1328748D01*
Y1327049D01*
X76998Y1325480D01*
X78199Y1324279D01*
X79769Y1323628D01*
X81467D01*
X83037Y1324279D01*
X84238Y1325480D01*
X84888Y1327049D01*
Y1328748D01*
X84238Y1330317D01*
X83037Y1331518D01*
X81467Y1332168D01*
D02*
G37*
G36*
X99849Y1314270D02*
X98151D01*
X96581Y1313620D01*
X95380Y1312419D01*
X94730Y1310849D01*
Y1309151D01*
X95380Y1307581D01*
X96581Y1306380D01*
X98151Y1305730D01*
X99849D01*
X101419Y1306380D01*
X102620Y1307581D01*
X103270Y1309151D01*
Y1310849D01*
X102620Y1312419D01*
X101419Y1313620D01*
X99849Y1314270D01*
D02*
G37*
G36*
X108849Y1298270D02*
X107151D01*
X105581Y1297620D01*
X104380Y1296419D01*
X103730Y1294849D01*
Y1293151D01*
X104380Y1291581D01*
X105581Y1290380D01*
X107151Y1289730D01*
X108849D01*
X110419Y1290380D01*
X111620Y1291581D01*
X112270Y1293151D01*
Y1294849D01*
X111620Y1296419D01*
X110419Y1297620D01*
X108849Y1298270D01*
D02*
G37*
G36*
X109266Y1287912D02*
X107567D01*
X105998Y1287262D01*
X104797Y1286060D01*
X104147Y1284491D01*
Y1282792D01*
X104797Y1281223D01*
X105998Y1280022D01*
X107567Y1279372D01*
X109266D01*
X110835Y1280022D01*
X112037Y1281223D01*
X112687Y1282792D01*
Y1284491D01*
X112037Y1286060D01*
X110835Y1287262D01*
X109266Y1287912D01*
D02*
G37*
G36*
X1410847Y1238554D02*
X1409149D01*
X1407579Y1237904D01*
X1406378Y1236703D01*
X1405728Y1235133D01*
Y1233435D01*
X1406378Y1231865D01*
X1407579Y1230664D01*
X1409149Y1230014D01*
X1410847D01*
X1412417Y1230664D01*
X1413618Y1231865D01*
X1414268Y1233435D01*
Y1235133D01*
X1413618Y1236703D01*
X1412417Y1237904D01*
X1410847Y1238554D01*
D02*
G37*
G36*
X1225133D02*
X1223435D01*
X1221865Y1237904D01*
X1220664Y1236703D01*
X1220014Y1235133D01*
Y1233435D01*
X1220664Y1231865D01*
X1221865Y1230664D01*
X1223435Y1230014D01*
X1225133D01*
X1226703Y1230664D01*
X1227904Y1231865D01*
X1228554Y1233435D01*
Y1235133D01*
X1227904Y1236703D01*
X1226703Y1237904D01*
X1225133Y1238554D01*
D02*
G37*
G36*
X1039419D02*
X1037721D01*
X1036151Y1237904D01*
X1034950Y1236703D01*
X1034300Y1235133D01*
Y1233435D01*
X1034950Y1231865D01*
X1036151Y1230664D01*
X1037721Y1230014D01*
X1039419D01*
X1040989Y1230664D01*
X1042190Y1231865D01*
X1042840Y1233435D01*
Y1235133D01*
X1042190Y1236703D01*
X1040989Y1237904D01*
X1039419Y1238554D01*
D02*
G37*
G36*
X853705D02*
X852007D01*
X850437Y1237904D01*
X849236Y1236703D01*
X848586Y1235133D01*
Y1233435D01*
X849236Y1231865D01*
X850437Y1230664D01*
X852007Y1230014D01*
X853705D01*
X855275Y1230664D01*
X856476Y1231865D01*
X857126Y1233435D01*
Y1235133D01*
X856476Y1236703D01*
X855275Y1237904D01*
X853705Y1238554D01*
D02*
G37*
G36*
X667991D02*
X666293D01*
X664723Y1237904D01*
X663522Y1236703D01*
X662872Y1235133D01*
Y1233435D01*
X663522Y1231865D01*
X664723Y1230664D01*
X666293Y1230014D01*
X667991D01*
X669561Y1230664D01*
X670762Y1231865D01*
X671412Y1233435D01*
Y1235133D01*
X670762Y1236703D01*
X669561Y1237904D01*
X667991Y1238554D01*
D02*
G37*
G36*
X482277D02*
X480579D01*
X479009Y1237904D01*
X477808Y1236703D01*
X477158Y1235133D01*
Y1233435D01*
X477808Y1231865D01*
X479009Y1230664D01*
X480579Y1230014D01*
X482277D01*
X483847Y1230664D01*
X485048Y1231865D01*
X485698Y1233435D01*
Y1235133D01*
X485048Y1236703D01*
X483847Y1237904D01*
X482277Y1238554D01*
D02*
G37*
G36*
X296563D02*
X294865D01*
X293295Y1237904D01*
X292094Y1236703D01*
X291444Y1235133D01*
Y1233435D01*
X292094Y1231865D01*
X293295Y1230664D01*
X294865Y1230014D01*
X296563D01*
X298133Y1230664D01*
X299334Y1231865D01*
X299984Y1233435D01*
Y1235133D01*
X299334Y1236703D01*
X298133Y1237904D01*
X296563Y1238554D01*
D02*
G37*
G36*
X110849D02*
X109151D01*
X107581Y1237904D01*
X106380Y1236703D01*
X105730Y1235133D01*
Y1233435D01*
X106380Y1231865D01*
X107581Y1230664D01*
X109151Y1230014D01*
X110849D01*
X112419Y1230664D01*
X113620Y1231865D01*
X114270Y1233435D01*
Y1235133D01*
X113620Y1236703D01*
X112419Y1237904D01*
X110849Y1238554D01*
D02*
G37*
G36*
X89138Y1238475D02*
X87439D01*
X85870Y1237824D01*
X84669Y1236623D01*
X84018Y1235054D01*
Y1233355D01*
X84669Y1231786D01*
X85870Y1230585D01*
X87439Y1229935D01*
X89138D01*
X90707Y1230585D01*
X91908Y1231786D01*
X92558Y1233355D01*
Y1235054D01*
X91908Y1236623D01*
X90707Y1237824D01*
X89138Y1238475D01*
D02*
G37*
G36*
X1410852Y1200035D02*
X1409154D01*
X1407584Y1199385D01*
X1406383Y1198184D01*
X1405733Y1196614D01*
Y1194916D01*
X1406383Y1193346D01*
X1407584Y1192145D01*
X1409154Y1191495D01*
X1410852D01*
X1412422Y1192145D01*
X1413623Y1193346D01*
X1414273Y1194916D01*
Y1196614D01*
X1413623Y1198184D01*
X1412422Y1199385D01*
X1410852Y1200035D01*
D02*
G37*
G36*
X1225138D02*
X1223440D01*
X1221870Y1199385D01*
X1220669Y1198184D01*
X1220019Y1196614D01*
Y1194916D01*
X1220669Y1193346D01*
X1221870Y1192145D01*
X1223440Y1191495D01*
X1225138D01*
X1226708Y1192145D01*
X1227909Y1193346D01*
X1228559Y1194916D01*
Y1196614D01*
X1227909Y1198184D01*
X1226708Y1199385D01*
X1225138Y1200035D01*
D02*
G37*
G36*
X1039424D02*
X1037726D01*
X1036156Y1199385D01*
X1034955Y1198184D01*
X1034305Y1196614D01*
Y1194916D01*
X1034955Y1193346D01*
X1036156Y1192145D01*
X1037726Y1191495D01*
X1039424D01*
X1040994Y1192145D01*
X1042195Y1193346D01*
X1042845Y1194916D01*
Y1196614D01*
X1042195Y1198184D01*
X1040994Y1199385D01*
X1039424Y1200035D01*
D02*
G37*
G36*
X853710D02*
X852012D01*
X850442Y1199385D01*
X849241Y1198184D01*
X848591Y1196614D01*
Y1194916D01*
X849241Y1193346D01*
X850442Y1192145D01*
X852012Y1191495D01*
X853710D01*
X855280Y1192145D01*
X856481Y1193346D01*
X857131Y1194916D01*
Y1196614D01*
X856481Y1198184D01*
X855280Y1199385D01*
X853710Y1200035D01*
D02*
G37*
G36*
X667996D02*
X666298D01*
X664728Y1199385D01*
X663527Y1198184D01*
X662877Y1196614D01*
Y1194916D01*
X663527Y1193346D01*
X664728Y1192145D01*
X666298Y1191495D01*
X667996D01*
X669566Y1192145D01*
X670767Y1193346D01*
X671417Y1194916D01*
Y1196614D01*
X670767Y1198184D01*
X669566Y1199385D01*
X667996Y1200035D01*
D02*
G37*
G36*
X482282D02*
X480584D01*
X479014Y1199385D01*
X477813Y1198184D01*
X477163Y1196614D01*
Y1194916D01*
X477813Y1193346D01*
X479014Y1192145D01*
X480584Y1191495D01*
X482282D01*
X483852Y1192145D01*
X485053Y1193346D01*
X485703Y1194916D01*
Y1196614D01*
X485053Y1198184D01*
X483852Y1199385D01*
X482282Y1200035D01*
D02*
G37*
G36*
X296568D02*
X294870D01*
X293300Y1199385D01*
X292099Y1198184D01*
X291449Y1196614D01*
Y1194916D01*
X292099Y1193346D01*
X293300Y1192145D01*
X294870Y1191495D01*
X296568D01*
X298138Y1192145D01*
X299339Y1193346D01*
X299989Y1194916D01*
Y1196614D01*
X299339Y1198184D01*
X298138Y1199385D01*
X296568Y1200035D01*
D02*
G37*
G36*
X110854D02*
X109156D01*
X107586Y1199385D01*
X106385Y1198184D01*
X105735Y1196614D01*
Y1194916D01*
X106385Y1193346D01*
X107586Y1192145D01*
X109156Y1191495D01*
X110854D01*
X112424Y1192145D01*
X113625Y1193346D01*
X114275Y1194916D01*
Y1196614D01*
X113625Y1198184D01*
X112424Y1199385D01*
X110854Y1200035D01*
D02*
G37*
G36*
X81558Y1199557D02*
X79859D01*
X78290Y1198907D01*
X77089Y1197706D01*
X76438Y1196136D01*
Y1194437D01*
X77089Y1192868D01*
X78290Y1191667D01*
X79859Y1191017D01*
X81558D01*
X83127Y1191667D01*
X84328Y1192868D01*
X84979Y1194437D01*
Y1196136D01*
X84328Y1197706D01*
X83127Y1198907D01*
X81558Y1199557D01*
D02*
G37*
G36*
X1410847Y1052840D02*
X1409149D01*
X1407579Y1052190D01*
X1406378Y1050989D01*
X1405728Y1049419D01*
Y1047721D01*
X1406378Y1046151D01*
X1407579Y1044950D01*
X1409149Y1044300D01*
X1410847D01*
X1412417Y1044950D01*
X1413618Y1046151D01*
X1414268Y1047721D01*
Y1049419D01*
X1413618Y1050989D01*
X1412417Y1052190D01*
X1410847Y1052840D01*
D02*
G37*
G36*
X1225133D02*
X1223435D01*
X1221865Y1052190D01*
X1220664Y1050989D01*
X1220014Y1049419D01*
Y1047721D01*
X1220664Y1046151D01*
X1221865Y1044950D01*
X1223435Y1044300D01*
X1225133D01*
X1226703Y1044950D01*
X1227904Y1046151D01*
X1228554Y1047721D01*
Y1049419D01*
X1227904Y1050989D01*
X1226703Y1052190D01*
X1225133Y1052840D01*
D02*
G37*
G36*
X1039419D02*
X1037721D01*
X1036151Y1052190D01*
X1034950Y1050989D01*
X1034300Y1049419D01*
Y1047721D01*
X1034950Y1046151D01*
X1036151Y1044950D01*
X1037721Y1044300D01*
X1039419D01*
X1040989Y1044950D01*
X1042190Y1046151D01*
X1042840Y1047721D01*
Y1049419D01*
X1042190Y1050989D01*
X1040989Y1052190D01*
X1039419Y1052840D01*
D02*
G37*
G36*
X853705D02*
X852007D01*
X850437Y1052190D01*
X849236Y1050989D01*
X848586Y1049419D01*
Y1047721D01*
X849236Y1046151D01*
X850437Y1044950D01*
X852007Y1044300D01*
X853705D01*
X855275Y1044950D01*
X856476Y1046151D01*
X857126Y1047721D01*
Y1049419D01*
X856476Y1050989D01*
X855275Y1052190D01*
X853705Y1052840D01*
D02*
G37*
G36*
X667991D02*
X666293D01*
X664723Y1052190D01*
X663522Y1050989D01*
X662872Y1049419D01*
Y1047721D01*
X663522Y1046151D01*
X664723Y1044950D01*
X666293Y1044300D01*
X667991D01*
X669561Y1044950D01*
X670762Y1046151D01*
X671412Y1047721D01*
Y1049419D01*
X670762Y1050989D01*
X669561Y1052190D01*
X667991Y1052840D01*
D02*
G37*
G36*
X482277D02*
X480579D01*
X479009Y1052190D01*
X477808Y1050989D01*
X477158Y1049419D01*
Y1047721D01*
X477808Y1046151D01*
X479009Y1044950D01*
X480579Y1044300D01*
X482277D01*
X483847Y1044950D01*
X485048Y1046151D01*
X485698Y1047721D01*
Y1049419D01*
X485048Y1050989D01*
X483847Y1052190D01*
X482277Y1052840D01*
D02*
G37*
G36*
X296563D02*
X294865D01*
X293295Y1052190D01*
X292094Y1050989D01*
X291444Y1049419D01*
Y1047721D01*
X292094Y1046151D01*
X293295Y1044950D01*
X294865Y1044300D01*
X296563D01*
X298133Y1044950D01*
X299334Y1046151D01*
X299984Y1047721D01*
Y1049419D01*
X299334Y1050989D01*
X298133Y1052190D01*
X296563Y1052840D01*
D02*
G37*
G36*
X110849D02*
X109151D01*
X107581Y1052190D01*
X106380Y1050989D01*
X105730Y1049419D01*
Y1047721D01*
X106380Y1046151D01*
X107581Y1044950D01*
X109151Y1044300D01*
X110849D01*
X112419Y1044950D01*
X113620Y1046151D01*
X114270Y1047721D01*
Y1049419D01*
X113620Y1050989D01*
X112419Y1052190D01*
X110849Y1052840D01*
D02*
G37*
G36*
X88849Y1052270D02*
X87151D01*
X85581Y1051620D01*
X84380Y1050419D01*
X83730Y1048849D01*
Y1047151D01*
X84380Y1045581D01*
X85581Y1044380D01*
X87151Y1043730D01*
X88849D01*
X90419Y1044380D01*
X91620Y1045581D01*
X92270Y1047151D01*
Y1048849D01*
X91620Y1050419D01*
X90419Y1051620D01*
X88849Y1052270D01*
D02*
G37*
G36*
X1410852Y1014321D02*
X1409154D01*
X1407584Y1013671D01*
X1406383Y1012470D01*
X1405733Y1010900D01*
Y1009202D01*
X1406383Y1007632D01*
X1407584Y1006431D01*
X1409154Y1005781D01*
X1410852D01*
X1412422Y1006431D01*
X1413623Y1007632D01*
X1414273Y1009202D01*
Y1010900D01*
X1413623Y1012470D01*
X1412422Y1013671D01*
X1410852Y1014321D01*
D02*
G37*
G36*
X1225138D02*
X1223440D01*
X1221870Y1013671D01*
X1220669Y1012470D01*
X1220019Y1010900D01*
Y1009202D01*
X1220669Y1007632D01*
X1221870Y1006431D01*
X1223440Y1005781D01*
X1225138D01*
X1226708Y1006431D01*
X1227909Y1007632D01*
X1228559Y1009202D01*
Y1010900D01*
X1227909Y1012470D01*
X1226708Y1013671D01*
X1225138Y1014321D01*
D02*
G37*
G36*
X1039424D02*
X1037726D01*
X1036156Y1013671D01*
X1034955Y1012470D01*
X1034305Y1010900D01*
Y1009202D01*
X1034955Y1007632D01*
X1036156Y1006431D01*
X1037726Y1005781D01*
X1039424D01*
X1040994Y1006431D01*
X1042195Y1007632D01*
X1042845Y1009202D01*
Y1010900D01*
X1042195Y1012470D01*
X1040994Y1013671D01*
X1039424Y1014321D01*
D02*
G37*
G36*
X853710D02*
X852012D01*
X850442Y1013671D01*
X849241Y1012470D01*
X848591Y1010900D01*
Y1009202D01*
X849241Y1007632D01*
X850442Y1006431D01*
X852012Y1005781D01*
X853710D01*
X855280Y1006431D01*
X856481Y1007632D01*
X857131Y1009202D01*
Y1010900D01*
X856481Y1012470D01*
X855280Y1013671D01*
X853710Y1014321D01*
D02*
G37*
G36*
X667996D02*
X666298D01*
X664728Y1013671D01*
X663527Y1012470D01*
X662877Y1010900D01*
Y1009202D01*
X663527Y1007632D01*
X664728Y1006431D01*
X666298Y1005781D01*
X667996D01*
X669566Y1006431D01*
X670767Y1007632D01*
X671417Y1009202D01*
Y1010900D01*
X670767Y1012470D01*
X669566Y1013671D01*
X667996Y1014321D01*
D02*
G37*
G36*
X482282D02*
X480584D01*
X479014Y1013671D01*
X477813Y1012470D01*
X477163Y1010900D01*
Y1009202D01*
X477813Y1007632D01*
X479014Y1006431D01*
X480584Y1005781D01*
X482282D01*
X483852Y1006431D01*
X485053Y1007632D01*
X485703Y1009202D01*
Y1010900D01*
X485053Y1012470D01*
X483852Y1013671D01*
X482282Y1014321D01*
D02*
G37*
G36*
X296568D02*
X294870D01*
X293300Y1013671D01*
X292099Y1012470D01*
X291449Y1010900D01*
Y1009202D01*
X292099Y1007632D01*
X293300Y1006431D01*
X294870Y1005781D01*
X296568D01*
X298138Y1006431D01*
X299339Y1007632D01*
X299989Y1009202D01*
Y1010900D01*
X299339Y1012470D01*
X298138Y1013671D01*
X296568Y1014321D01*
D02*
G37*
G36*
X110854D02*
X109156D01*
X107586Y1013671D01*
X106385Y1012470D01*
X105735Y1010900D01*
Y1009202D01*
X106385Y1007632D01*
X107586Y1006431D01*
X109156Y1005781D01*
X110854D01*
X112424Y1006431D01*
X113625Y1007632D01*
X114275Y1009202D01*
Y1010900D01*
X113625Y1012470D01*
X112424Y1013671D01*
X110854Y1014321D01*
D02*
G37*
G36*
X81849Y1013270D02*
X80151D01*
X78581Y1012620D01*
X77380Y1011419D01*
X76730Y1009849D01*
Y1008151D01*
X77380Y1006581D01*
X78581Y1005380D01*
X80151Y1004730D01*
X81849D01*
X83419Y1005380D01*
X84620Y1006581D01*
X85270Y1008151D01*
Y1009849D01*
X84620Y1011419D01*
X83419Y1012620D01*
X81849Y1013270D01*
D02*
G37*
G36*
X110849Y957270D02*
X109151D01*
X107581Y956620D01*
X106380Y955419D01*
X105730Y953849D01*
Y952151D01*
X106380Y950581D01*
X107581Y949380D01*
X109151Y948730D01*
X110849D01*
X112419Y949380D01*
X113620Y950581D01*
X114270Y952151D01*
Y953849D01*
X113620Y955419D01*
X112419Y956620D01*
X110849Y957270D01*
D02*
G37*
G36*
X81241Y957106D02*
X79542D01*
X77973Y956456D01*
X76771Y955255D01*
X76121Y953686D01*
Y951987D01*
X76771Y950417D01*
X77973Y949216D01*
X79542Y948566D01*
X81241D01*
X82810Y949216D01*
X84011Y950417D01*
X84661Y951987D01*
Y953686D01*
X84011Y955255D01*
X82810Y956456D01*
X81241Y957106D01*
D02*
G37*
G36*
X100849Y942270D02*
X99151D01*
X97581Y941620D01*
X96380Y940419D01*
X95730Y938849D01*
Y937151D01*
X96380Y935581D01*
X97581Y934380D01*
X99151Y933730D01*
X100849D01*
X102419Y934380D01*
X103620Y935581D01*
X104270Y937151D01*
Y938849D01*
X103620Y940419D01*
X102419Y941620D01*
X100849Y942270D01*
D02*
G37*
G36*
X109849Y922270D02*
X108151D01*
X106581Y921620D01*
X105380Y920419D01*
X104730Y918849D01*
Y917151D01*
X105380Y915581D01*
X106581Y914380D01*
X108151Y913730D01*
X109849D01*
X111419Y914380D01*
X112620Y915581D01*
X113270Y917151D01*
Y918849D01*
X112620Y920419D01*
X111419Y921620D01*
X109849Y922270D01*
D02*
G37*
G36*
X1410847Y867126D02*
X1409149D01*
X1407579Y866476D01*
X1406378Y865275D01*
X1405728Y863705D01*
Y862007D01*
X1406378Y860437D01*
X1407579Y859236D01*
X1409149Y858586D01*
X1410847D01*
X1412417Y859236D01*
X1413618Y860437D01*
X1414268Y862007D01*
Y863705D01*
X1413618Y865275D01*
X1412417Y866476D01*
X1410847Y867126D01*
D02*
G37*
G36*
X1225133D02*
X1223435D01*
X1221865Y866476D01*
X1220664Y865275D01*
X1220014Y863705D01*
Y862007D01*
X1220664Y860437D01*
X1221865Y859236D01*
X1223435Y858586D01*
X1225133D01*
X1226703Y859236D01*
X1227904Y860437D01*
X1228554Y862007D01*
Y863705D01*
X1227904Y865275D01*
X1226703Y866476D01*
X1225133Y867126D01*
D02*
G37*
G36*
X1039419D02*
X1037721D01*
X1036151Y866476D01*
X1034950Y865275D01*
X1034300Y863705D01*
Y862007D01*
X1034950Y860437D01*
X1036151Y859236D01*
X1037721Y858586D01*
X1039419D01*
X1040989Y859236D01*
X1042190Y860437D01*
X1042840Y862007D01*
Y863705D01*
X1042190Y865275D01*
X1040989Y866476D01*
X1039419Y867126D01*
D02*
G37*
G36*
X853705D02*
X852007D01*
X850437Y866476D01*
X849236Y865275D01*
X848586Y863705D01*
Y862007D01*
X849236Y860437D01*
X850437Y859236D01*
X852007Y858586D01*
X853705D01*
X855275Y859236D01*
X856476Y860437D01*
X857126Y862007D01*
Y863705D01*
X856476Y865275D01*
X855275Y866476D01*
X853705Y867126D01*
D02*
G37*
G36*
X667991D02*
X666293D01*
X664723Y866476D01*
X663522Y865275D01*
X662872Y863705D01*
Y862007D01*
X663522Y860437D01*
X664723Y859236D01*
X666293Y858586D01*
X667991D01*
X669561Y859236D01*
X670762Y860437D01*
X671412Y862007D01*
Y863705D01*
X670762Y865275D01*
X669561Y866476D01*
X667991Y867126D01*
D02*
G37*
G36*
X482277D02*
X480579D01*
X479009Y866476D01*
X477808Y865275D01*
X477158Y863705D01*
Y862007D01*
X477808Y860437D01*
X479009Y859236D01*
X480579Y858586D01*
X482277D01*
X483847Y859236D01*
X485048Y860437D01*
X485698Y862007D01*
Y863705D01*
X485048Y865275D01*
X483847Y866476D01*
X482277Y867126D01*
D02*
G37*
G36*
X296563D02*
X294865D01*
X293295Y866476D01*
X292094Y865275D01*
X291444Y863705D01*
Y862007D01*
X292094Y860437D01*
X293295Y859236D01*
X294865Y858586D01*
X296563D01*
X298133Y859236D01*
X299334Y860437D01*
X299984Y862007D01*
Y863705D01*
X299334Y865275D01*
X298133Y866476D01*
X296563Y867126D01*
D02*
G37*
G36*
X110849D02*
X109151D01*
X107581Y866476D01*
X106380Y865275D01*
X105730Y863705D01*
Y862007D01*
X106380Y860437D01*
X107581Y859236D01*
X109151Y858586D01*
X110849D01*
X112419Y859236D01*
X113620Y860437D01*
X114270Y862007D01*
Y863705D01*
X113620Y865275D01*
X112419Y866476D01*
X110849Y867126D01*
D02*
G37*
G36*
X88993Y866753D02*
X87294D01*
X85725Y866103D01*
X84524Y864902D01*
X83874Y863333D01*
Y861634D01*
X84524Y860064D01*
X85725Y858863D01*
X87294Y858213D01*
X88993D01*
X90562Y858863D01*
X91764Y860064D01*
X92414Y861634D01*
Y863333D01*
X91764Y864902D01*
X90562Y866103D01*
X88993Y866753D01*
D02*
G37*
G36*
X1410852Y828607D02*
X1409154D01*
X1407584Y827957D01*
X1406383Y826756D01*
X1405733Y825186D01*
Y823488D01*
X1406383Y821918D01*
X1407584Y820717D01*
X1409154Y820067D01*
X1410852D01*
X1412422Y820717D01*
X1413623Y821918D01*
X1414273Y823488D01*
Y825186D01*
X1413623Y826756D01*
X1412422Y827957D01*
X1410852Y828607D01*
D02*
G37*
G36*
X1225138D02*
X1223440D01*
X1221870Y827957D01*
X1220669Y826756D01*
X1220019Y825186D01*
Y823488D01*
X1220669Y821918D01*
X1221870Y820717D01*
X1223440Y820067D01*
X1225138D01*
X1226708Y820717D01*
X1227909Y821918D01*
X1228559Y823488D01*
Y825186D01*
X1227909Y826756D01*
X1226708Y827957D01*
X1225138Y828607D01*
D02*
G37*
G36*
X1039425D02*
X1037726D01*
X1036156Y827957D01*
X1034955Y826756D01*
X1034305Y825186D01*
Y823488D01*
X1034955Y821918D01*
X1036156Y820717D01*
X1037726Y820067D01*
X1039425D01*
X1040994Y820717D01*
X1042195Y821918D01*
X1042845Y823488D01*
Y825186D01*
X1042195Y826756D01*
X1040994Y827957D01*
X1039425Y828607D01*
D02*
G37*
G36*
X853710D02*
X852012D01*
X850442Y827957D01*
X849241Y826756D01*
X848591Y825186D01*
Y823488D01*
X849241Y821918D01*
X850442Y820717D01*
X852012Y820067D01*
X853710D01*
X855280Y820717D01*
X856481Y821918D01*
X857131Y823488D01*
Y825186D01*
X856481Y826756D01*
X855280Y827957D01*
X853710Y828607D01*
D02*
G37*
G36*
X667997D02*
X666298D01*
X664728Y827957D01*
X663527Y826756D01*
X662877Y825186D01*
Y823488D01*
X663527Y821918D01*
X664728Y820717D01*
X666298Y820067D01*
X667997D01*
X669566Y820717D01*
X670767Y821918D01*
X671417Y823488D01*
Y825186D01*
X670767Y826756D01*
X669566Y827957D01*
X667997Y828607D01*
D02*
G37*
G36*
X482282D02*
X480584D01*
X479014Y827957D01*
X477813Y826756D01*
X477163Y825186D01*
Y823488D01*
X477813Y821918D01*
X479014Y820717D01*
X480584Y820067D01*
X482282D01*
X483852Y820717D01*
X485053Y821918D01*
X485703Y823488D01*
Y825186D01*
X485053Y826756D01*
X483852Y827957D01*
X482282Y828607D01*
D02*
G37*
G36*
X296569D02*
X294870D01*
X293300Y827957D01*
X292099Y826756D01*
X291449Y825186D01*
Y823488D01*
X292099Y821918D01*
X293300Y820717D01*
X294870Y820067D01*
X296569D01*
X298138Y820717D01*
X299339Y821918D01*
X299989Y823488D01*
Y825186D01*
X299339Y826756D01*
X298138Y827957D01*
X296569Y828607D01*
D02*
G37*
G36*
X110855D02*
X109156D01*
X107586Y827957D01*
X106385Y826756D01*
X105735Y825186D01*
Y823488D01*
X106385Y821918D01*
X107586Y820717D01*
X109156Y820067D01*
X110855D01*
X112424Y820717D01*
X113625Y821918D01*
X114275Y823488D01*
Y825186D01*
X113625Y826756D01*
X112424Y827957D01*
X110855Y828607D01*
D02*
G37*
G36*
X81255Y828241D02*
X79556D01*
X77987Y827591D01*
X76786Y826390D01*
X76136Y824821D01*
Y823122D01*
X76786Y821553D01*
X77987Y820351D01*
X79556Y819701D01*
X81255D01*
X82825Y820351D01*
X84026Y821553D01*
X84676Y823122D01*
Y824821D01*
X84026Y826390D01*
X82825Y827591D01*
X81255Y828241D01*
D02*
G37*
G36*
X744849Y818270D02*
X743151D01*
X741581Y817620D01*
X740380Y816419D01*
X739730Y814849D01*
Y813151D01*
X740380Y811581D01*
X741581Y810380D01*
X743151Y809730D01*
X744849D01*
X746419Y810380D01*
X747620Y811581D01*
X748270Y813151D01*
Y814849D01*
X747620Y816419D01*
X746419Y817620D01*
X744849Y818270D01*
D02*
G37*
G36*
X849803Y814230D02*
X848104D01*
X846535Y813580D01*
X845334Y812378D01*
X844684Y810809D01*
Y809110D01*
X845334Y807541D01*
X846535Y806340D01*
X848104Y805690D01*
X849803D01*
X851372Y806340D01*
X852574Y807541D01*
X853224Y809110D01*
Y810809D01*
X852574Y812378D01*
X851372Y813580D01*
X849803Y814230D01*
D02*
G37*
G36*
X735849Y813270D02*
X734151D01*
X732581Y812620D01*
X731380Y811419D01*
X730730Y809849D01*
Y808151D01*
X731380Y806581D01*
X732581Y805380D01*
X734151Y804730D01*
X735849D01*
X737419Y805380D01*
X738620Y806581D01*
X739270Y808151D01*
Y809849D01*
X738620Y811419D01*
X737419Y812620D01*
X735849Y813270D01*
D02*
G37*
G36*
X798849Y806270D02*
X797151D01*
X795581Y805620D01*
X794380Y804419D01*
X793730Y802849D01*
Y801151D01*
X794380Y799581D01*
X795581Y798380D01*
X797151Y797730D01*
X798849D01*
X800419Y798380D01*
X801620Y799581D01*
X802270Y801151D01*
Y802849D01*
X801620Y804419D01*
X800419Y805620D01*
X798849Y806270D01*
D02*
G37*
G36*
X830849Y801270D02*
X829151D01*
X827581Y800620D01*
X826380Y799419D01*
X825730Y797849D01*
Y796151D01*
X826380Y794581D01*
X827581Y793380D01*
X829151Y792730D01*
X830849D01*
X832419Y793380D01*
X833620Y794581D01*
X834270Y796151D01*
Y797849D01*
X833620Y799419D01*
X832419Y800620D01*
X830849Y801270D01*
D02*
G37*
G36*
X953403Y781650D02*
X950917D01*
X948620Y780698D01*
X946861Y778940D01*
X945910Y776643D01*
Y774157D01*
X946861Y771860D01*
X948620Y770101D01*
X950917Y769150D01*
X953403D01*
X955700Y770101D01*
X957458Y771860D01*
X958410Y774157D01*
Y776643D01*
X957458Y778940D01*
X955700Y780698D01*
X953403Y781650D01*
D02*
G37*
G36*
X933083D02*
X930597D01*
X928300Y780698D01*
X926542Y778940D01*
X925590Y776643D01*
Y774157D01*
X926542Y771860D01*
X928300Y770101D01*
X930597Y769150D01*
X933083D01*
X935380Y770101D01*
X937139Y771860D01*
X938090Y774157D01*
Y776643D01*
X937139Y778940D01*
X935380Y780698D01*
X933083Y781650D01*
D02*
G37*
G36*
X965849Y767270D02*
X964151D01*
X962581Y766620D01*
X961380Y765419D01*
X960730Y763849D01*
Y762151D01*
X961380Y760581D01*
X962581Y759380D01*
X964151Y758730D01*
X965849D01*
X967419Y759380D01*
X968620Y760581D01*
X969270Y762151D01*
Y763849D01*
X968620Y765419D01*
X967419Y766620D01*
X965849Y767270D01*
D02*
G37*
G36*
X726849Y764270D02*
X725151D01*
X723581Y763620D01*
X722380Y762419D01*
X721730Y760849D01*
Y759151D01*
X722380Y757581D01*
X723581Y756380D01*
X725151Y755730D01*
X726849D01*
X728419Y756380D01*
X729620Y757581D01*
X730270Y759151D01*
Y760849D01*
X729620Y762419D01*
X728419Y763620D01*
X726849Y764270D01*
D02*
G37*
G36*
X886849Y761270D02*
X885151D01*
X883581Y760620D01*
X882380Y759419D01*
X881730Y757849D01*
Y756151D01*
X882380Y754581D01*
X883581Y753380D01*
X885151Y752730D01*
X886849D01*
X888419Y753380D01*
X889620Y754581D01*
X890270Y756151D01*
Y757849D01*
X889620Y759419D01*
X888419Y760620D01*
X886849Y761270D01*
D02*
G37*
G36*
X864849Y770270D02*
X863151D01*
X861581Y769620D01*
X860380Y768419D01*
X859730Y766849D01*
Y765151D01*
X860380Y763581D01*
X861581Y762380D01*
X862734Y761903D01*
X862803Y760557D01*
X861786Y760136D01*
X860585Y758934D01*
X859935Y757365D01*
Y755666D01*
X860585Y754097D01*
X861786Y752896D01*
X863356Y752246D01*
X865054D01*
X866624Y752896D01*
X867825Y754097D01*
X868475Y755666D01*
Y757365D01*
X867825Y758934D01*
X866624Y760136D01*
X865471Y760613D01*
X865402Y761959D01*
X866419Y762380D01*
X867620Y763581D01*
X868270Y765151D01*
Y766849D01*
X867620Y768419D01*
X866419Y769620D01*
X864849Y770270D01*
D02*
G37*
G36*
X965849Y754270D02*
X964151D01*
X962581Y753620D01*
X961380Y752419D01*
X960730Y750849D01*
Y749151D01*
X961380Y747581D01*
X962581Y746380D01*
X964151Y745730D01*
X965849D01*
X967419Y746380D01*
X968620Y747581D01*
X969270Y749151D01*
Y750849D01*
X968620Y752419D01*
X967419Y753620D01*
X965849Y754270D01*
D02*
G37*
G36*
X919849D02*
X918151D01*
X916581Y753620D01*
X915380Y752419D01*
X914730Y750849D01*
Y749151D01*
X915380Y747581D01*
X916581Y746380D01*
X918151Y745730D01*
X919849D01*
X921419Y746380D01*
X922620Y747581D01*
X923270Y749151D01*
Y750849D01*
X922620Y752419D01*
X921419Y753620D01*
X919849Y754270D01*
D02*
G37*
G36*
X796097Y749537D02*
X794398D01*
X792829Y748887D01*
X791628Y747686D01*
X790977Y746117D01*
Y744418D01*
X791628Y742849D01*
X792829Y741647D01*
X794398Y740997D01*
X796097D01*
X797666Y741647D01*
X798867Y742849D01*
X799517Y744418D01*
Y746117D01*
X798867Y747686D01*
X797666Y748887D01*
X796097Y749537D01*
D02*
G37*
G36*
X891349Y748770D02*
X889651D01*
X888081Y748120D01*
X886880Y746919D01*
X886230Y745349D01*
Y743651D01*
X886880Y742081D01*
X888081Y740880D01*
X889651Y740230D01*
X891349D01*
X892919Y740880D01*
X894120Y742081D01*
X894770Y743651D01*
Y745349D01*
X894120Y746919D01*
X892919Y748120D01*
X891349Y748770D01*
D02*
G37*
G36*
X101416Y747550D02*
X99717D01*
X98147Y746900D01*
X96946Y745699D01*
X96296Y744129D01*
Y742431D01*
X96946Y740861D01*
X98147Y739660D01*
X99717Y739010D01*
X101416D01*
X102985Y739660D01*
X104186Y740861D01*
X104836Y742431D01*
Y744129D01*
X104186Y745699D01*
X102985Y746900D01*
X101416Y747550D01*
D02*
G37*
G36*
X965849Y741270D02*
X964151D01*
X962581Y740620D01*
X961380Y739419D01*
X960730Y737849D01*
Y736151D01*
X961380Y734581D01*
X962581Y733380D01*
X964151Y732730D01*
X965849D01*
X967419Y733380D01*
X968620Y734581D01*
X969270Y736151D01*
Y737849D01*
X968620Y739419D01*
X967419Y740620D01*
X965849Y741270D01*
D02*
G37*
G36*
X919849D02*
X918151D01*
X916581Y740620D01*
X915380Y739419D01*
X914730Y737849D01*
Y736151D01*
X915380Y734581D01*
X916581Y733380D01*
X918151Y732730D01*
X919849D01*
X921419Y733380D01*
X922620Y734581D01*
X923270Y736151D01*
Y737849D01*
X922620Y739419D01*
X921419Y740620D01*
X919849Y741270D01*
D02*
G37*
G36*
X807849D02*
X806151D01*
X804581Y740620D01*
X803380Y739419D01*
X802730Y737849D01*
Y736151D01*
X803380Y734581D01*
X804581Y733380D01*
X806151Y732730D01*
X807849D01*
X809419Y733380D01*
X810620Y734581D01*
X811270Y736151D01*
Y737849D01*
X810620Y739419D01*
X809419Y740620D01*
X807849Y741270D01*
D02*
G37*
G36*
X865054Y741161D02*
X863356D01*
X861786Y740511D01*
X860585Y739309D01*
X859935Y737740D01*
Y736041D01*
X860585Y734472D01*
X861786Y733271D01*
X863356Y732621D01*
X865054D01*
X866624Y733271D01*
X867825Y734472D01*
X868475Y736041D01*
Y737740D01*
X867825Y739309D01*
X866624Y740511D01*
X865054Y741161D01*
D02*
G37*
G36*
X741849Y735270D02*
X740151D01*
X738581Y734620D01*
X737380Y733419D01*
X736730Y731849D01*
Y730151D01*
X737380Y728581D01*
X738581Y727380D01*
X740151Y726730D01*
X741849D01*
X743419Y727380D01*
X744620Y728581D01*
X745270Y730151D01*
Y731849D01*
X744620Y733419D01*
X743419Y734620D01*
X741849Y735270D01*
D02*
G37*
G36*
X865054Y730270D02*
X863356D01*
X861786Y729620D01*
X860585Y728419D01*
X859935Y726849D01*
Y725151D01*
X860585Y723581D01*
X861786Y722380D01*
X863356Y721730D01*
X865054D01*
X866624Y722380D01*
X867825Y723581D01*
X868475Y725151D01*
Y726849D01*
X867825Y728419D01*
X866624Y729620D01*
X865054Y730270D01*
D02*
G37*
G36*
X943243Y730850D02*
X940757D01*
X938460Y729899D01*
X936702Y728140D01*
X935750Y725843D01*
Y723357D01*
X936702Y721060D01*
X938460Y719302D01*
X940757Y718350D01*
X943243D01*
X945540Y719302D01*
X947299Y721060D01*
X948250Y723357D01*
Y725843D01*
X947299Y728140D01*
X945540Y729899D01*
X943243Y730850D01*
D02*
G37*
G36*
X824054Y721911D02*
X822356D01*
X820786Y721261D01*
X819585Y720060D01*
X818935Y718490D01*
Y716791D01*
X819585Y715222D01*
X820786Y714021D01*
X822356Y713371D01*
X824054D01*
X825624Y714021D01*
X826825Y715222D01*
X827475Y716791D01*
Y718490D01*
X826825Y720060D01*
X825624Y721261D01*
X824054Y721911D01*
D02*
G37*
G36*
X101246Y735537D02*
X99547D01*
X97978Y734887D01*
X96777Y733685D01*
X96126Y732116D01*
Y730417D01*
X96777Y728848D01*
X97978Y727647D01*
X98970Y727236D01*
Y725861D01*
X97978Y725450D01*
X96777Y724249D01*
X96126Y722680D01*
Y720981D01*
X96777Y719411D01*
X97978Y718210D01*
X99168Y717717D01*
X99169Y716832D01*
X99042Y716395D01*
X97600Y715798D01*
X96399Y714597D01*
X95749Y713027D01*
Y711329D01*
X96399Y709759D01*
X97600Y708558D01*
X99170Y707908D01*
X100868D01*
X102438Y708558D01*
X103639Y709759D01*
X104289Y711329D01*
Y713027D01*
X103639Y714597D01*
X102438Y715798D01*
X101248Y716291D01*
X101246Y717176D01*
X101374Y717613D01*
X102815Y718210D01*
X104016Y719411D01*
X104666Y720981D01*
Y722680D01*
X104016Y724249D01*
X102815Y725450D01*
X101823Y725861D01*
Y727236D01*
X102815Y727647D01*
X104016Y728848D01*
X104666Y730417D01*
Y732116D01*
X104016Y733685D01*
X102815Y734887D01*
X101246Y735537D01*
D02*
G37*
G36*
X923849Y709270D02*
X922151D01*
X920581Y708620D01*
X919380Y707419D01*
X918730Y705849D01*
Y704151D01*
X919380Y702581D01*
X920581Y701380D01*
X922151Y700730D01*
X923849D01*
X925419Y701380D01*
X926620Y702581D01*
X927270Y704151D01*
Y705849D01*
X926620Y707419D01*
X925419Y708620D01*
X923849Y709270D01*
D02*
G37*
G36*
X867769D02*
X866070D01*
X864501Y708620D01*
X863299Y707419D01*
X862649Y705849D01*
Y704151D01*
X863299Y702581D01*
X864501Y701380D01*
X866070Y700730D01*
X867769D01*
X869338Y701380D01*
X870539Y702581D01*
X871189Y704151D01*
Y705849D01*
X870539Y707419D01*
X869338Y708620D01*
X867769Y709270D01*
D02*
G37*
G36*
X74840Y710294D02*
X73142D01*
X71572Y709644D01*
X70371Y708443D01*
X69721Y706873D01*
Y705175D01*
X70371Y703605D01*
X71572Y702404D01*
X72007Y702224D01*
X72104Y702028D01*
X72209Y700766D01*
X71353Y699911D01*
X70703Y698341D01*
Y696643D01*
X71353Y695073D01*
X72554Y693872D01*
X74124Y693222D01*
X75823D01*
X77392Y693872D01*
X78593Y695073D01*
X79243Y696643D01*
Y698341D01*
X78593Y699911D01*
X77392Y701112D01*
X76957Y701292D01*
X76860Y701488D01*
X76756Y702750D01*
X77611Y703605D01*
X78261Y705175D01*
Y706873D01*
X77611Y708443D01*
X76410Y709644D01*
X74840Y710294D01*
D02*
G37*
G36*
X867849Y699239D02*
X866151D01*
X864581Y698589D01*
X863380Y697388D01*
X862730Y695819D01*
Y694120D01*
X863380Y692551D01*
X864581Y691349D01*
X866151Y690699D01*
X867849D01*
X869419Y691349D01*
X870620Y692551D01*
X871270Y694120D01*
Y695819D01*
X870620Y697388D01*
X869419Y698589D01*
X867849Y699239D01*
D02*
G37*
G36*
X826805Y698579D02*
X825107D01*
X823537Y697929D01*
X822336Y696728D01*
X821686Y695159D01*
Y693460D01*
X822336Y691891D01*
X823537Y690689D01*
X825107Y690039D01*
X826805D01*
X828375Y690689D01*
X829576Y691891D01*
X830226Y693460D01*
Y695159D01*
X829576Y696728D01*
X828375Y697929D01*
X826805Y698579D01*
D02*
G37*
G36*
X810849Y693270D02*
X809151D01*
X807581Y692620D01*
X806380Y691419D01*
X805730Y689849D01*
Y688151D01*
X806380Y686581D01*
X807581Y685380D01*
X809151Y684730D01*
X810849D01*
X812419Y685380D01*
X813620Y686581D01*
X814270Y688151D01*
Y689849D01*
X813620Y691419D01*
X812419Y692620D01*
X810849Y693270D01*
D02*
G37*
G36*
X75119Y690699D02*
X73421D01*
X71851Y690049D01*
X70650Y688848D01*
X70000Y687279D01*
Y685580D01*
X70650Y684010D01*
X71851Y682809D01*
X73421Y682159D01*
X75119D01*
X76689Y682809D01*
X77890Y684010D01*
X78540Y685580D01*
Y687279D01*
X77890Y688848D01*
X76689Y690049D01*
X75119Y690699D01*
D02*
G37*
G36*
X1410847Y681412D02*
X1409149D01*
X1407579Y680762D01*
X1406378Y679561D01*
X1405728Y677991D01*
Y676293D01*
X1406378Y674723D01*
X1407579Y673522D01*
X1409149Y672872D01*
X1410847D01*
X1412417Y673522D01*
X1413618Y674723D01*
X1414268Y676293D01*
Y677991D01*
X1413618Y679561D01*
X1412417Y680762D01*
X1410847Y681412D01*
D02*
G37*
G36*
X1225133D02*
X1223435D01*
X1221865Y680762D01*
X1220664Y679561D01*
X1220014Y677991D01*
Y676293D01*
X1220664Y674723D01*
X1221865Y673522D01*
X1223435Y672872D01*
X1225133D01*
X1226703Y673522D01*
X1227904Y674723D01*
X1228554Y676293D01*
Y677991D01*
X1227904Y679561D01*
X1226703Y680762D01*
X1225133Y681412D01*
D02*
G37*
G36*
X1039419D02*
X1037721D01*
X1036151Y680762D01*
X1034950Y679561D01*
X1034300Y677991D01*
Y676293D01*
X1034950Y674723D01*
X1036151Y673522D01*
X1037721Y672872D01*
X1039419D01*
X1040989Y673522D01*
X1042190Y674723D01*
X1042840Y676293D01*
Y677991D01*
X1042190Y679561D01*
X1040989Y680762D01*
X1039419Y681412D01*
D02*
G37*
G36*
X853705D02*
X852007D01*
X850437Y680762D01*
X849236Y679561D01*
X848586Y677991D01*
Y676293D01*
X849236Y674723D01*
X850437Y673522D01*
X852007Y672872D01*
X853705D01*
X855275Y673522D01*
X856476Y674723D01*
X857126Y676293D01*
Y677991D01*
X856476Y679561D01*
X855275Y680762D01*
X853705Y681412D01*
D02*
G37*
G36*
X667991D02*
X666293D01*
X664723Y680762D01*
X663522Y679561D01*
X662872Y677991D01*
Y676293D01*
X663522Y674723D01*
X664723Y673522D01*
X666293Y672872D01*
X667991D01*
X669561Y673522D01*
X670762Y674723D01*
X671412Y676293D01*
Y677991D01*
X670762Y679561D01*
X669561Y680762D01*
X667991Y681412D01*
D02*
G37*
G36*
X482277D02*
X480579D01*
X479009Y680762D01*
X477808Y679561D01*
X477158Y677991D01*
Y676293D01*
X477808Y674723D01*
X479009Y673522D01*
X480579Y672872D01*
X482277D01*
X483847Y673522D01*
X485048Y674723D01*
X485698Y676293D01*
Y677991D01*
X485048Y679561D01*
X483847Y680762D01*
X482277Y681412D01*
D02*
G37*
G36*
X296563D02*
X294865D01*
X293295Y680762D01*
X292094Y679561D01*
X291444Y677991D01*
Y676293D01*
X292094Y674723D01*
X293295Y673522D01*
X294865Y672872D01*
X296563D01*
X298133Y673522D01*
X299334Y674723D01*
X299984Y676293D01*
Y677991D01*
X299334Y679561D01*
X298133Y680762D01*
X296563Y681412D01*
D02*
G37*
G36*
X110849D02*
X109151D01*
X107581Y680762D01*
X106380Y679561D01*
X105730Y677991D01*
Y676293D01*
X106380Y674723D01*
X107581Y673522D01*
X109151Y672872D01*
X110849D01*
X112419Y673522D01*
X113620Y674723D01*
X114270Y676293D01*
Y677991D01*
X113620Y679561D01*
X112419Y680762D01*
X110849Y681412D01*
D02*
G37*
G36*
X89349Y681042D02*
X87650D01*
X86081Y680392D01*
X84880Y679191D01*
X84229Y677622D01*
Y675923D01*
X84880Y674354D01*
X86081Y673153D01*
X87650Y672503D01*
X89349D01*
X90918Y673153D01*
X92120Y674354D01*
X92769Y675923D01*
Y677622D01*
X92120Y679191D01*
X90918Y680392D01*
X89349Y681042D01*
D02*
G37*
G36*
X754849Y680270D02*
X753151D01*
X751581Y679620D01*
X750380Y678419D01*
X749730Y676849D01*
Y675151D01*
X750380Y673581D01*
X751581Y672380D01*
X753151Y671730D01*
X754849D01*
X756419Y672380D01*
X757620Y673581D01*
X758270Y675151D01*
Y676849D01*
X757620Y678419D01*
X756419Y679620D01*
X754849Y680270D01*
D02*
G37*
G36*
X763977Y675670D02*
X762278D01*
X760709Y675020D01*
X759508Y673819D01*
X758858Y672250D01*
Y670551D01*
X759508Y668982D01*
X760709Y667781D01*
X762278Y667131D01*
X763977D01*
X765546Y667781D01*
X766748Y668982D01*
X767398Y670551D01*
Y672250D01*
X766748Y673819D01*
X765546Y675020D01*
X763977Y675670D01*
D02*
G37*
G36*
X81255Y643064D02*
X79556D01*
X77987Y642414D01*
X76786Y641213D01*
X76136Y639644D01*
Y637945D01*
X76786Y636376D01*
X77987Y635174D01*
X79556Y634524D01*
X81255D01*
X82825Y635174D01*
X84026Y636376D01*
X84676Y637945D01*
Y639644D01*
X84026Y641213D01*
X82825Y642414D01*
X81255Y643064D01*
D02*
G37*
G36*
X1410852Y642893D02*
X1409154D01*
X1407584Y642243D01*
X1406383Y641042D01*
X1405733Y639472D01*
Y637774D01*
X1406383Y636204D01*
X1407584Y635003D01*
X1409154Y634353D01*
X1410852D01*
X1412422Y635003D01*
X1413623Y636204D01*
X1414273Y637774D01*
Y639472D01*
X1413623Y641042D01*
X1412422Y642243D01*
X1410852Y642893D01*
D02*
G37*
G36*
X1225138D02*
X1223440D01*
X1221870Y642243D01*
X1220669Y641042D01*
X1220019Y639472D01*
Y637774D01*
X1220669Y636204D01*
X1221870Y635003D01*
X1223440Y634353D01*
X1225138D01*
X1226708Y635003D01*
X1227909Y636204D01*
X1228559Y637774D01*
Y639472D01*
X1227909Y641042D01*
X1226708Y642243D01*
X1225138Y642893D01*
D02*
G37*
G36*
X1039425D02*
X1037726D01*
X1036156Y642243D01*
X1034955Y641042D01*
X1034305Y639472D01*
Y637774D01*
X1034955Y636204D01*
X1036156Y635003D01*
X1037726Y634353D01*
X1039425D01*
X1040994Y635003D01*
X1042195Y636204D01*
X1042845Y637774D01*
Y639472D01*
X1042195Y641042D01*
X1040994Y642243D01*
X1039425Y642893D01*
D02*
G37*
G36*
X853710D02*
X852012D01*
X850442Y642243D01*
X849241Y641042D01*
X848591Y639472D01*
Y637774D01*
X849241Y636204D01*
X850442Y635003D01*
X852012Y634353D01*
X853710D01*
X855280Y635003D01*
X856481Y636204D01*
X857131Y637774D01*
Y639472D01*
X856481Y641042D01*
X855280Y642243D01*
X853710Y642893D01*
D02*
G37*
G36*
X667997D02*
X666298D01*
X664728Y642243D01*
X663527Y641042D01*
X662877Y639472D01*
Y637774D01*
X663527Y636204D01*
X664728Y635003D01*
X666298Y634353D01*
X667997D01*
X669566Y635003D01*
X670767Y636204D01*
X671417Y637774D01*
Y639472D01*
X670767Y641042D01*
X669566Y642243D01*
X667997Y642893D01*
D02*
G37*
G36*
X482282D02*
X480584D01*
X479014Y642243D01*
X477813Y641042D01*
X477163Y639472D01*
Y637774D01*
X477813Y636204D01*
X479014Y635003D01*
X480584Y634353D01*
X482282D01*
X483852Y635003D01*
X485053Y636204D01*
X485703Y637774D01*
Y639472D01*
X485053Y641042D01*
X483852Y642243D01*
X482282Y642893D01*
D02*
G37*
G36*
X296569D02*
X294870D01*
X293300Y642243D01*
X292099Y641042D01*
X291449Y639472D01*
Y637774D01*
X292099Y636204D01*
X293300Y635003D01*
X294870Y634353D01*
X296569D01*
X298138Y635003D01*
X299339Y636204D01*
X299989Y637774D01*
Y639472D01*
X299339Y641042D01*
X298138Y642243D01*
X296569Y642893D01*
D02*
G37*
G36*
X110854D02*
X109156D01*
X107586Y642243D01*
X106385Y641042D01*
X105735Y639472D01*
Y637774D01*
X106385Y636204D01*
X107586Y635003D01*
X109156Y634353D01*
X110854D01*
X112424Y635003D01*
X113625Y636204D01*
X114275Y637774D01*
Y639472D01*
X113625Y641042D01*
X112424Y642243D01*
X110854Y642893D01*
D02*
G37*
G36*
X81344Y588276D02*
X79645D01*
X78076Y587626D01*
X76875Y586425D01*
X76225Y584855D01*
Y583157D01*
X76875Y581587D01*
X78076Y580386D01*
X79645Y579736D01*
X81344D01*
X82914Y580386D01*
X84115Y581587D01*
X84765Y583157D01*
Y584855D01*
X84115Y586425D01*
X82914Y587626D01*
X81344Y588276D01*
D02*
G37*
G36*
X108849Y588270D02*
X107151D01*
X105581Y587620D01*
X104380Y586419D01*
X103730Y584849D01*
Y583151D01*
X104380Y581581D01*
X105581Y580380D01*
X107151Y579730D01*
X108849D01*
X110419Y580380D01*
X111620Y581581D01*
X112270Y583151D01*
Y584849D01*
X111620Y586419D01*
X110419Y587620D01*
X108849Y588270D01*
D02*
G37*
G36*
X100849Y571270D02*
X99151D01*
X97581Y570620D01*
X96380Y569419D01*
X95730Y567849D01*
Y566151D01*
X96380Y564581D01*
X97581Y563380D01*
X99151Y562730D01*
X100849D01*
X102419Y563380D01*
X103620Y564581D01*
X104270Y566151D01*
Y567849D01*
X103620Y569419D01*
X102419Y570620D01*
X100849Y571270D01*
D02*
G37*
G36*
X110849Y555270D02*
X109151D01*
X107581Y554620D01*
X106380Y553419D01*
X105730Y551849D01*
Y550151D01*
X106380Y548581D01*
X107581Y547380D01*
X109151Y546730D01*
X110849D01*
X112419Y547380D01*
X113620Y548581D01*
X114270Y550151D01*
Y551849D01*
X113620Y553419D01*
X112419Y554620D01*
X110849Y555270D01*
D02*
G37*
G36*
X1410847Y495698D02*
X1409149D01*
X1407579Y495048D01*
X1406378Y493847D01*
X1405728Y492277D01*
Y490579D01*
X1406378Y489009D01*
X1407579Y487808D01*
X1409149Y487158D01*
X1410847D01*
X1412417Y487808D01*
X1413618Y489009D01*
X1414268Y490579D01*
Y492277D01*
X1413618Y493847D01*
X1412417Y495048D01*
X1410847Y495698D01*
D02*
G37*
G36*
X1225133D02*
X1223435D01*
X1221865Y495048D01*
X1220664Y493847D01*
X1220014Y492277D01*
Y490579D01*
X1220664Y489009D01*
X1221865Y487808D01*
X1223435Y487158D01*
X1225133D01*
X1226703Y487808D01*
X1227904Y489009D01*
X1228554Y490579D01*
Y492277D01*
X1227904Y493847D01*
X1226703Y495048D01*
X1225133Y495698D01*
D02*
G37*
G36*
X1039419D02*
X1037721D01*
X1036151Y495048D01*
X1034950Y493847D01*
X1034300Y492277D01*
Y490579D01*
X1034950Y489009D01*
X1036151Y487808D01*
X1037721Y487158D01*
X1039419D01*
X1040989Y487808D01*
X1042190Y489009D01*
X1042840Y490579D01*
Y492277D01*
X1042190Y493847D01*
X1040989Y495048D01*
X1039419Y495698D01*
D02*
G37*
G36*
X853705D02*
X852007D01*
X850437Y495048D01*
X849236Y493847D01*
X848586Y492277D01*
Y490579D01*
X849236Y489009D01*
X850437Y487808D01*
X852007Y487158D01*
X853705D01*
X855275Y487808D01*
X856476Y489009D01*
X857126Y490579D01*
Y492277D01*
X856476Y493847D01*
X855275Y495048D01*
X853705Y495698D01*
D02*
G37*
G36*
X667991D02*
X666293D01*
X664723Y495048D01*
X663522Y493847D01*
X662872Y492277D01*
Y490579D01*
X663522Y489009D01*
X664723Y487808D01*
X666293Y487158D01*
X667991D01*
X669561Y487808D01*
X670762Y489009D01*
X671412Y490579D01*
Y492277D01*
X670762Y493847D01*
X669561Y495048D01*
X667991Y495698D01*
D02*
G37*
G36*
X482277D02*
X480579D01*
X479009Y495048D01*
X477808Y493847D01*
X477158Y492277D01*
Y490579D01*
X477808Y489009D01*
X479009Y487808D01*
X480579Y487158D01*
X482277D01*
X483847Y487808D01*
X485048Y489009D01*
X485698Y490579D01*
Y492277D01*
X485048Y493847D01*
X483847Y495048D01*
X482277Y495698D01*
D02*
G37*
G36*
X296563D02*
X294865D01*
X293295Y495048D01*
X292094Y493847D01*
X291444Y492277D01*
Y490579D01*
X292094Y489009D01*
X293295Y487808D01*
X294865Y487158D01*
X296563D01*
X298133Y487808D01*
X299334Y489009D01*
X299984Y490579D01*
Y492277D01*
X299334Y493847D01*
X298133Y495048D01*
X296563Y495698D01*
D02*
G37*
G36*
X110849D02*
X109151D01*
X107581Y495048D01*
X106380Y493847D01*
X105730Y492277D01*
Y490579D01*
X106380Y489009D01*
X107581Y487808D01*
X109151Y487158D01*
X110849D01*
X112419Y487808D01*
X113620Y489009D01*
X114270Y490579D01*
Y492277D01*
X113620Y493847D01*
X112419Y495048D01*
X110849Y495698D01*
D02*
G37*
G36*
X88993Y495154D02*
X87294D01*
X85725Y494504D01*
X84524Y493303D01*
X83874Y491733D01*
Y490034D01*
X84524Y488465D01*
X85725Y487264D01*
X87294Y486614D01*
X88993D01*
X90562Y487264D01*
X91764Y488465D01*
X92414Y490034D01*
Y491733D01*
X91764Y493303D01*
X90562Y494504D01*
X88993Y495154D01*
D02*
G37*
G36*
X81522Y457532D02*
X79823D01*
X78254Y456881D01*
X77053Y455680D01*
X76403Y454111D01*
Y452412D01*
X77053Y450843D01*
X78254Y449642D01*
X79823Y448992D01*
X81522D01*
X83091Y449642D01*
X84293Y450843D01*
X84943Y452412D01*
Y454111D01*
X84293Y455680D01*
X83091Y456881D01*
X81522Y457532D01*
D02*
G37*
G36*
X1410852Y457179D02*
X1409154D01*
X1407584Y456529D01*
X1406383Y455328D01*
X1405733Y453758D01*
Y452060D01*
X1406383Y450490D01*
X1407584Y449289D01*
X1409154Y448639D01*
X1410852D01*
X1412422Y449289D01*
X1413623Y450490D01*
X1414273Y452060D01*
Y453758D01*
X1413623Y455328D01*
X1412422Y456529D01*
X1410852Y457179D01*
D02*
G37*
G36*
X1225138D02*
X1223440D01*
X1221870Y456529D01*
X1220669Y455328D01*
X1220019Y453758D01*
Y452060D01*
X1220669Y450490D01*
X1221870Y449289D01*
X1223440Y448639D01*
X1225138D01*
X1226708Y449289D01*
X1227909Y450490D01*
X1228559Y452060D01*
Y453758D01*
X1227909Y455328D01*
X1226708Y456529D01*
X1225138Y457179D01*
D02*
G37*
G36*
X1039424D02*
X1037726D01*
X1036156Y456529D01*
X1034955Y455328D01*
X1034305Y453758D01*
Y452060D01*
X1034955Y450490D01*
X1036156Y449289D01*
X1037726Y448639D01*
X1039424D01*
X1040994Y449289D01*
X1042195Y450490D01*
X1042845Y452060D01*
Y453758D01*
X1042195Y455328D01*
X1040994Y456529D01*
X1039424Y457179D01*
D02*
G37*
G36*
X853710D02*
X852012D01*
X850442Y456529D01*
X849241Y455328D01*
X848591Y453758D01*
Y452060D01*
X849241Y450490D01*
X850442Y449289D01*
X852012Y448639D01*
X853710D01*
X855280Y449289D01*
X856481Y450490D01*
X857131Y452060D01*
Y453758D01*
X856481Y455328D01*
X855280Y456529D01*
X853710Y457179D01*
D02*
G37*
G36*
X667996D02*
X666298D01*
X664728Y456529D01*
X663527Y455328D01*
X662877Y453758D01*
Y452060D01*
X663527Y450490D01*
X664728Y449289D01*
X666298Y448639D01*
X667996D01*
X669566Y449289D01*
X670767Y450490D01*
X671417Y452060D01*
Y453758D01*
X670767Y455328D01*
X669566Y456529D01*
X667996Y457179D01*
D02*
G37*
G36*
X482282D02*
X480584D01*
X479014Y456529D01*
X477813Y455328D01*
X477163Y453758D01*
Y452060D01*
X477813Y450490D01*
X479014Y449289D01*
X480584Y448639D01*
X482282D01*
X483852Y449289D01*
X485053Y450490D01*
X485703Y452060D01*
Y453758D01*
X485053Y455328D01*
X483852Y456529D01*
X482282Y457179D01*
D02*
G37*
G36*
X296568D02*
X294870D01*
X293300Y456529D01*
X292099Y455328D01*
X291449Y453758D01*
Y452060D01*
X292099Y450490D01*
X293300Y449289D01*
X294870Y448639D01*
X296568D01*
X298138Y449289D01*
X299339Y450490D01*
X299989Y452060D01*
Y453758D01*
X299339Y455328D01*
X298138Y456529D01*
X296568Y457179D01*
D02*
G37*
G36*
X110854D02*
X109156D01*
X107586Y456529D01*
X106385Y455328D01*
X105735Y453758D01*
Y452060D01*
X106385Y450490D01*
X107586Y449289D01*
X109156Y448639D01*
X110854D01*
X112424Y449289D01*
X113625Y450490D01*
X114275Y452060D01*
Y453758D01*
X113625Y455328D01*
X112424Y456529D01*
X110854Y457179D01*
D02*
G37*
G36*
X1410847Y309984D02*
X1409149D01*
X1407579Y309334D01*
X1406378Y308133D01*
X1405728Y306563D01*
Y304865D01*
X1406378Y303295D01*
X1407579Y302094D01*
X1409149Y301444D01*
X1410847D01*
X1412417Y302094D01*
X1413618Y303295D01*
X1414268Y304865D01*
Y306563D01*
X1413618Y308133D01*
X1412417Y309334D01*
X1410847Y309984D01*
D02*
G37*
G36*
X1225133D02*
X1223435D01*
X1221865Y309334D01*
X1220664Y308133D01*
X1220014Y306563D01*
Y304865D01*
X1220664Y303295D01*
X1221865Y302094D01*
X1223435Y301444D01*
X1225133D01*
X1226703Y302094D01*
X1227904Y303295D01*
X1228554Y304865D01*
Y306563D01*
X1227904Y308133D01*
X1226703Y309334D01*
X1225133Y309984D01*
D02*
G37*
G36*
X1039419D02*
X1037721D01*
X1036151Y309334D01*
X1034950Y308133D01*
X1034300Y306563D01*
Y304865D01*
X1034950Y303295D01*
X1036151Y302094D01*
X1037721Y301444D01*
X1039419D01*
X1040989Y302094D01*
X1042190Y303295D01*
X1042840Y304865D01*
Y306563D01*
X1042190Y308133D01*
X1040989Y309334D01*
X1039419Y309984D01*
D02*
G37*
G36*
X853705D02*
X852007D01*
X850437Y309334D01*
X849236Y308133D01*
X848586Y306563D01*
Y304865D01*
X849236Y303295D01*
X850437Y302094D01*
X852007Y301444D01*
X853705D01*
X855275Y302094D01*
X856476Y303295D01*
X857126Y304865D01*
Y306563D01*
X856476Y308133D01*
X855275Y309334D01*
X853705Y309984D01*
D02*
G37*
G36*
X667991D02*
X666293D01*
X664723Y309334D01*
X663522Y308133D01*
X662872Y306563D01*
Y304865D01*
X663522Y303295D01*
X664723Y302094D01*
X666293Y301444D01*
X667991D01*
X669561Y302094D01*
X670762Y303295D01*
X671412Y304865D01*
Y306563D01*
X670762Y308133D01*
X669561Y309334D01*
X667991Y309984D01*
D02*
G37*
G36*
X482277D02*
X480579D01*
X479009Y309334D01*
X477808Y308133D01*
X477158Y306563D01*
Y304865D01*
X477808Y303295D01*
X479009Y302094D01*
X480579Y301444D01*
X482277D01*
X483847Y302094D01*
X485048Y303295D01*
X485698Y304865D01*
Y306563D01*
X485048Y308133D01*
X483847Y309334D01*
X482277Y309984D01*
D02*
G37*
G36*
X296563D02*
X294865D01*
X293295Y309334D01*
X292094Y308133D01*
X291444Y306563D01*
Y304865D01*
X292094Y303295D01*
X293295Y302094D01*
X294865Y301444D01*
X296563D01*
X298133Y302094D01*
X299334Y303295D01*
X299984Y304865D01*
Y306563D01*
X299334Y308133D01*
X298133Y309334D01*
X296563Y309984D01*
D02*
G37*
G36*
X110849D02*
X109151D01*
X107581Y309334D01*
X106380Y308133D01*
X105730Y306563D01*
Y304865D01*
X106380Y303295D01*
X107581Y302094D01*
X109151Y301444D01*
X110849D01*
X112419Y302094D01*
X113620Y303295D01*
X114270Y304865D01*
Y306563D01*
X113620Y308133D01*
X112419Y309334D01*
X110849Y309984D01*
D02*
G37*
G36*
X88849Y309270D02*
X87151D01*
X85581Y308620D01*
X84380Y307419D01*
X83730Y305849D01*
Y304151D01*
X84380Y302581D01*
X85581Y301380D01*
X87151Y300730D01*
X88849D01*
X90419Y301380D01*
X91620Y302581D01*
X92270Y304151D01*
Y305849D01*
X91620Y307419D01*
X90419Y308620D01*
X88849Y309270D01*
D02*
G37*
G36*
X75849Y283270D02*
X74151D01*
X72581Y282620D01*
X71380Y281419D01*
X70730Y279849D01*
Y278151D01*
X71380Y276581D01*
X72581Y275380D01*
X74151Y274730D01*
X75849D01*
X77419Y275380D01*
X78620Y276581D01*
X79270Y278151D01*
Y279849D01*
X78620Y281419D01*
X77419Y282620D01*
X75849Y283270D01*
D02*
G37*
G36*
X1410852Y271465D02*
X1409154D01*
X1407584Y270815D01*
X1406383Y269614D01*
X1405733Y268044D01*
Y266346D01*
X1406383Y264776D01*
X1407584Y263575D01*
X1409154Y262925D01*
X1410852D01*
X1412422Y263575D01*
X1413623Y264776D01*
X1414273Y266346D01*
Y268044D01*
X1413623Y269614D01*
X1412422Y270815D01*
X1410852Y271465D01*
D02*
G37*
G36*
X1225138D02*
X1223440D01*
X1221870Y270815D01*
X1220669Y269614D01*
X1220019Y268044D01*
Y266346D01*
X1220669Y264776D01*
X1221870Y263575D01*
X1223440Y262925D01*
X1225138D01*
X1226708Y263575D01*
X1227909Y264776D01*
X1228559Y266346D01*
Y268044D01*
X1227909Y269614D01*
X1226708Y270815D01*
X1225138Y271465D01*
D02*
G37*
G36*
X1039424D02*
X1037726D01*
X1036156Y270815D01*
X1034955Y269614D01*
X1034305Y268044D01*
Y266346D01*
X1034955Y264776D01*
X1036156Y263575D01*
X1037726Y262925D01*
X1039424D01*
X1040994Y263575D01*
X1042195Y264776D01*
X1042845Y266346D01*
Y268044D01*
X1042195Y269614D01*
X1040994Y270815D01*
X1039424Y271465D01*
D02*
G37*
G36*
X853710D02*
X852012D01*
X850442Y270815D01*
X849241Y269614D01*
X848591Y268044D01*
Y266346D01*
X849241Y264776D01*
X850442Y263575D01*
X852012Y262925D01*
X853710D01*
X855280Y263575D01*
X856481Y264776D01*
X857131Y266346D01*
Y268044D01*
X856481Y269614D01*
X855280Y270815D01*
X853710Y271465D01*
D02*
G37*
G36*
X667996D02*
X666298D01*
X664728Y270815D01*
X663527Y269614D01*
X662877Y268044D01*
Y266346D01*
X663527Y264776D01*
X664728Y263575D01*
X666298Y262925D01*
X667996D01*
X669566Y263575D01*
X670767Y264776D01*
X671417Y266346D01*
Y268044D01*
X670767Y269614D01*
X669566Y270815D01*
X667996Y271465D01*
D02*
G37*
G36*
X482282D02*
X480584D01*
X479014Y270815D01*
X477813Y269614D01*
X477163Y268044D01*
Y266346D01*
X477813Y264776D01*
X479014Y263575D01*
X480584Y262925D01*
X482282D01*
X483852Y263575D01*
X485053Y264776D01*
X485703Y266346D01*
Y268044D01*
X485053Y269614D01*
X483852Y270815D01*
X482282Y271465D01*
D02*
G37*
G36*
X296568D02*
X294870D01*
X293300Y270815D01*
X292099Y269614D01*
X291449Y268044D01*
Y266346D01*
X292099Y264776D01*
X293300Y263575D01*
X294870Y262925D01*
X296568D01*
X298138Y263575D01*
X299339Y264776D01*
X299989Y266346D01*
Y268044D01*
X299339Y269614D01*
X298138Y270815D01*
X296568Y271465D01*
D02*
G37*
G36*
X110854D02*
X109156D01*
X107586Y270815D01*
X106385Y269614D01*
X105735Y268044D01*
Y266346D01*
X106385Y264776D01*
X107586Y263575D01*
X109156Y262925D01*
X110854D01*
X112424Y263575D01*
X113625Y264776D01*
X114275Y266346D01*
Y268044D01*
X113625Y269614D01*
X112424Y270815D01*
X110854Y271465D01*
D02*
G37*
G36*
X69242Y265542D02*
X67543D01*
X65974Y264892D01*
X64772Y263691D01*
X64122Y262122D01*
Y260423D01*
X64772Y258853D01*
X65974Y257652D01*
X67543Y257002D01*
X69242D01*
X70811Y257652D01*
X72012Y258853D01*
X72662Y260423D01*
Y262122D01*
X72012Y263691D01*
X70811Y264892D01*
X69242Y265542D01*
D02*
G37*
G36*
X40648Y235382D02*
X38949D01*
X37380Y234732D01*
X36179Y233531D01*
X35529Y231961D01*
Y230263D01*
X36179Y228693D01*
X37380Y227492D01*
X38949Y226842D01*
X40648D01*
X42217Y227492D01*
X43418Y228693D01*
X44068Y230263D01*
Y231961D01*
X43418Y233531D01*
X42217Y234732D01*
X40648Y235382D01*
D02*
G37*
G36*
X83911Y232770D02*
X82212D01*
X80643Y232120D01*
X79442Y230919D01*
X78791Y229349D01*
Y227651D01*
X79442Y226081D01*
X80643Y224880D01*
X82212Y224230D01*
X83911D01*
X85480Y224880D01*
X86681Y226081D01*
X87331Y227651D01*
Y229349D01*
X86681Y230919D01*
X85480Y232120D01*
X83911Y232770D01*
D02*
G37*
G36*
X110741Y227657D02*
X109042D01*
X107472Y227007D01*
X106271Y225806D01*
X105621Y224237D01*
Y222538D01*
X106271Y220969D01*
X107472Y219767D01*
X109042Y219117D01*
X110741D01*
X112310Y219767D01*
X113511Y220969D01*
X114161Y222538D01*
Y224237D01*
X113511Y225806D01*
X112310Y227007D01*
X110741Y227657D01*
D02*
G37*
G36*
X93249Y219136D02*
X91550D01*
X89981Y218486D01*
X88780Y217284D01*
X88130Y215715D01*
Y214016D01*
X88780Y212447D01*
X89981Y211246D01*
X91550Y210596D01*
X93249D01*
X94818Y211246D01*
X96019Y212447D01*
X96670Y214016D01*
Y215715D01*
X96019Y217284D01*
X94818Y218486D01*
X93249Y219136D01*
D02*
G37*
G36*
X49602Y223596D02*
X47904D01*
X46334Y222946D01*
X45133Y221745D01*
X44483Y220176D01*
Y218477D01*
X45133Y216908D01*
X46334Y215707D01*
X47904Y215056D01*
X48425D01*
X49598Y214714D01*
Y213016D01*
X50248Y211446D01*
X51449Y210245D01*
X53019Y209595D01*
X54717D01*
X56287Y210245D01*
X57488Y211446D01*
X58138Y213016D01*
Y214714D01*
X57488Y216284D01*
X56287Y217485D01*
X54717Y218135D01*
X54196D01*
X53023Y218477D01*
Y220176D01*
X52373Y221745D01*
X51172Y222946D01*
X49602Y223596D01*
D02*
G37*
G36*
X107849Y205270D02*
X106151D01*
X104581Y204620D01*
X103380Y203419D01*
X102730Y201849D01*
Y200151D01*
X103380Y198581D01*
X104581Y197380D01*
X106151Y196730D01*
X107849D01*
X109419Y197380D01*
X110620Y198581D01*
X111270Y200151D01*
Y201849D01*
X110620Y203419D01*
X109419Y204620D01*
X107849Y205270D01*
D02*
G37*
G36*
X52634Y204270D02*
X50935D01*
X49366Y203620D01*
X48165Y202419D01*
X47515Y200849D01*
Y199151D01*
X48165Y197581D01*
X49366Y196380D01*
X50935Y195730D01*
X52634D01*
X54203Y196380D01*
X55404Y197581D01*
X56054Y199151D01*
Y200849D01*
X55404Y202419D01*
X54203Y203620D01*
X52634Y204270D01*
D02*
G37*
G36*
X80983Y152509D02*
X79284D01*
X77715Y151859D01*
X76513Y150658D01*
X75863Y149088D01*
Y147390D01*
X76513Y145820D01*
X77715Y144619D01*
X79284Y143969D01*
X80983D01*
X82552Y144619D01*
X83753Y145820D01*
X84403Y147390D01*
Y149088D01*
X83753Y150658D01*
X82552Y151859D01*
X80983Y152509D01*
D02*
G37*
G36*
X1410847Y124270D02*
X1409149D01*
X1407579Y123620D01*
X1406378Y122419D01*
X1405728Y120849D01*
Y119151D01*
X1406378Y117581D01*
X1407579Y116380D01*
X1409149Y115730D01*
X1410847D01*
X1412417Y116380D01*
X1413618Y117581D01*
X1414268Y119151D01*
Y120849D01*
X1413618Y122419D01*
X1412417Y123620D01*
X1410847Y124270D01*
D02*
G37*
G36*
X1225133D02*
X1223435D01*
X1221865Y123620D01*
X1220664Y122419D01*
X1220014Y120849D01*
Y119151D01*
X1220664Y117581D01*
X1221865Y116380D01*
X1223435Y115730D01*
X1225133D01*
X1226703Y116380D01*
X1227904Y117581D01*
X1228554Y119151D01*
Y120849D01*
X1227904Y122419D01*
X1226703Y123620D01*
X1225133Y124270D01*
D02*
G37*
G36*
X1039419D02*
X1037721D01*
X1036151Y123620D01*
X1034950Y122419D01*
X1034300Y120849D01*
Y119151D01*
X1034950Y117581D01*
X1036151Y116380D01*
X1037721Y115730D01*
X1039419D01*
X1040989Y116380D01*
X1042190Y117581D01*
X1042840Y119151D01*
Y120849D01*
X1042190Y122419D01*
X1040989Y123620D01*
X1039419Y124270D01*
D02*
G37*
G36*
X853705D02*
X852007D01*
X850437Y123620D01*
X849236Y122419D01*
X848586Y120849D01*
Y119151D01*
X849236Y117581D01*
X850437Y116380D01*
X852007Y115730D01*
X853705D01*
X855275Y116380D01*
X856476Y117581D01*
X857126Y119151D01*
Y120849D01*
X856476Y122419D01*
X855275Y123620D01*
X853705Y124270D01*
D02*
G37*
G36*
X667991D02*
X666293D01*
X664723Y123620D01*
X663522Y122419D01*
X662872Y120849D01*
Y119151D01*
X663522Y117581D01*
X664723Y116380D01*
X666293Y115730D01*
X667991D01*
X669561Y116380D01*
X670762Y117581D01*
X671412Y119151D01*
Y120849D01*
X670762Y122419D01*
X669561Y123620D01*
X667991Y124270D01*
D02*
G37*
G36*
X482277D02*
X480579D01*
X479009Y123620D01*
X477808Y122419D01*
X477158Y120849D01*
Y119151D01*
X477808Y117581D01*
X479009Y116380D01*
X480579Y115730D01*
X482277D01*
X483847Y116380D01*
X485048Y117581D01*
X485698Y119151D01*
Y120849D01*
X485048Y122419D01*
X483847Y123620D01*
X482277Y124270D01*
D02*
G37*
G36*
X296563D02*
X294865D01*
X293295Y123620D01*
X292094Y122419D01*
X291444Y120849D01*
Y119151D01*
X292094Y117581D01*
X293295Y116380D01*
X294865Y115730D01*
X296563D01*
X298133Y116380D01*
X299334Y117581D01*
X299984Y119151D01*
Y120849D01*
X299334Y122419D01*
X298133Y123620D01*
X296563Y124270D01*
D02*
G37*
G36*
X110849D02*
X109151D01*
X107581Y123620D01*
X106380Y122419D01*
X105730Y120849D01*
Y119151D01*
X106380Y117581D01*
X107581Y116380D01*
X109151Y115730D01*
X110849D01*
X112419Y116380D01*
X113620Y117581D01*
X114270Y119151D01*
Y120849D01*
X113620Y122419D01*
X112419Y123620D01*
X110849Y124270D01*
D02*
G37*
G36*
X59849Y88270D02*
X58151D01*
X56581Y87620D01*
X55380Y86419D01*
X54730Y84849D01*
Y83151D01*
X55380Y81581D01*
X56581Y80380D01*
X58151Y79730D01*
X59849D01*
X61419Y80380D01*
X62620Y81581D01*
X63270Y83151D01*
Y84849D01*
X62620Y86419D01*
X61419Y87620D01*
X59849Y88270D01*
D02*
G37*
G36*
X1410852Y85751D02*
X1409154D01*
X1407584Y85101D01*
X1406383Y83900D01*
X1405733Y82330D01*
Y80632D01*
X1406383Y79062D01*
X1407584Y77861D01*
X1409154Y77211D01*
X1410852D01*
X1412422Y77861D01*
X1413623Y79062D01*
X1414273Y80632D01*
Y82330D01*
X1413623Y83900D01*
X1412422Y85101D01*
X1410852Y85751D01*
D02*
G37*
G36*
X1225138D02*
X1223440D01*
X1221870Y85101D01*
X1220669Y83900D01*
X1220019Y82330D01*
Y80632D01*
X1220669Y79062D01*
X1221870Y77861D01*
X1223440Y77211D01*
X1225138D01*
X1226708Y77861D01*
X1227909Y79062D01*
X1228559Y80632D01*
Y82330D01*
X1227909Y83900D01*
X1226708Y85101D01*
X1225138Y85751D01*
D02*
G37*
G36*
X1039424D02*
X1037726D01*
X1036156Y85101D01*
X1034955Y83900D01*
X1034305Y82330D01*
Y80632D01*
X1034955Y79062D01*
X1036156Y77861D01*
X1037726Y77211D01*
X1039424D01*
X1040994Y77861D01*
X1042195Y79062D01*
X1042845Y80632D01*
Y82330D01*
X1042195Y83900D01*
X1040994Y85101D01*
X1039424Y85751D01*
D02*
G37*
G36*
X853710D02*
X852012D01*
X850442Y85101D01*
X849241Y83900D01*
X848591Y82330D01*
Y80632D01*
X849241Y79062D01*
X850442Y77861D01*
X852012Y77211D01*
X853710D01*
X855280Y77861D01*
X856481Y79062D01*
X857131Y80632D01*
Y82330D01*
X856481Y83900D01*
X855280Y85101D01*
X853710Y85751D01*
D02*
G37*
G36*
X667996D02*
X666298D01*
X664728Y85101D01*
X663527Y83900D01*
X662877Y82330D01*
Y80632D01*
X663527Y79062D01*
X664728Y77861D01*
X666298Y77211D01*
X667996D01*
X669566Y77861D01*
X670767Y79062D01*
X671417Y80632D01*
Y82330D01*
X670767Y83900D01*
X669566Y85101D01*
X667996Y85751D01*
D02*
G37*
G36*
X482282D02*
X480584D01*
X479014Y85101D01*
X477813Y83900D01*
X477163Y82330D01*
Y80632D01*
X477813Y79062D01*
X479014Y77861D01*
X480584Y77211D01*
X482282D01*
X483852Y77861D01*
X485053Y79062D01*
X485703Y80632D01*
Y82330D01*
X485053Y83900D01*
X483852Y85101D01*
X482282Y85751D01*
D02*
G37*
G36*
X296568D02*
X294870D01*
X293300Y85101D01*
X292099Y83900D01*
X291449Y82330D01*
Y80632D01*
X292099Y79062D01*
X293300Y77861D01*
X294870Y77211D01*
X296568D01*
X298138Y77861D01*
X299339Y79062D01*
X299989Y80632D01*
Y82330D01*
X299339Y83900D01*
X298138Y85101D01*
X296568Y85751D01*
D02*
G37*
G36*
X110854D02*
X109156D01*
X107586Y85101D01*
X106385Y83900D01*
X105735Y82330D01*
Y80632D01*
X106385Y79062D01*
X107586Y77861D01*
X109156Y77211D01*
X110854D01*
X112424Y77861D01*
X113625Y79062D01*
X114275Y80632D01*
Y82330D01*
X113625Y83900D01*
X112424Y85101D01*
X110854Y85751D01*
D02*
G37*
G36*
X60086Y68346D02*
X58387D01*
X56818Y67696D01*
X55617Y66495D01*
X54967Y64925D01*
Y63227D01*
X55388Y62210D01*
X55617Y61657D01*
X54660Y60902D01*
X53928Y61634D01*
X52358Y62284D01*
X50659D01*
X49090Y61634D01*
X47889Y60433D01*
X47239Y58863D01*
Y57165D01*
X47889Y55595D01*
X49090Y54394D01*
X50659Y53744D01*
X52358D01*
X53928Y54394D01*
X55129Y55595D01*
X55779Y57165D01*
Y58863D01*
X55358Y59880D01*
X55129Y60433D01*
X56086Y61188D01*
X56818Y60456D01*
X58387Y59806D01*
X60086D01*
X61655Y60456D01*
X62856Y61657D01*
X63507Y63227D01*
Y64925D01*
X62856Y66495D01*
X61655Y67696D01*
X60086Y68346D01*
D02*
G37*
G36*
X79650Y30151D02*
X70818D01*
Y19653D01*
X79650D01*
Y30151D01*
D02*
G37*
%LPD*%
D14*
X73568Y26568D02*
X74401Y27401D01*
X76067D01*
X76900Y26568D01*
Y25735D01*
X76067Y24902D01*
X75234D01*
X76067D01*
X76900Y24069D01*
Y23236D01*
X76067Y22403D01*
X74401D01*
X73568Y23236D01*
D79*
X58690Y420530D02*
D03*
Y520530D02*
D03*
Y320530D02*
D03*
Y620530D02*
D03*
X869160Y731392D02*
D03*
X1466000Y1420000D02*
D03*
X591000Y70000D02*
D03*
X341000D02*
D03*
X1491000Y570000D02*
D03*
X666000Y20000D02*
D03*
X1466000Y420000D02*
D03*
X941000Y70000D02*
D03*
X741000D02*
D03*
X241000D02*
D03*
X66000Y1220000D02*
D03*
Y1320000D02*
D03*
X491000Y1470000D02*
D03*
X141000Y70000D02*
D03*
X66000Y1020000D02*
D03*
X941000Y1470000D02*
D03*
X1466000Y820000D02*
D03*
X716000Y20000D02*
D03*
X91000Y1470000D02*
D03*
X991000D02*
D03*
X441000Y70000D02*
D03*
X741000Y1470000D02*
D03*
X1491000Y1370000D02*
D03*
Y1270000D02*
D03*
Y870000D02*
D03*
X466000Y20000D02*
D03*
X66000Y920000D02*
D03*
X1216000Y20000D02*
D03*
X1466000Y720000D02*
D03*
X1391000Y1470000D02*
D03*
X66000Y820000D02*
D03*
X1316000Y20000D02*
D03*
X1291000Y1470000D02*
D03*
X1166000Y20000D02*
D03*
X1491000Y70000D02*
D03*
X1191000Y1470000D02*
D03*
X1291000Y70000D02*
D03*
X1266000Y20000D02*
D03*
X1491000Y970000D02*
D03*
X691000Y1470000D02*
D03*
X116000Y520000D02*
D03*
Y320000D02*
D03*
X66000Y120000D02*
D03*
X1141000Y70000D02*
D03*
X366000Y20000D02*
D03*
X1491000Y1170000D02*
D03*
X391000Y1470000D02*
D03*
X91000Y70000D02*
D03*
X1016000Y20000D02*
D03*
X1491000Y770000D02*
D03*
X1366000Y20000D02*
D03*
X1491000Y1470000D02*
D03*
X1391000Y70000D02*
D03*
X116000Y620000D02*
D03*
X1466000Y320000D02*
D03*
X516000Y20000D02*
D03*
X841000Y1470000D02*
D03*
X1041000D02*
D03*
X1491000Y470000D02*
D03*
X1141000Y1470000D02*
D03*
X866000Y20000D02*
D03*
X641000Y1470000D02*
D03*
Y70000D02*
D03*
X541000Y1470000D02*
D03*
X266000Y20000D02*
D03*
X991000Y70000D02*
D03*
X1341000D02*
D03*
X1466000Y1320000D02*
D03*
X116000Y420000D02*
D03*
X1241000Y1470000D02*
D03*
X1491000Y170000D02*
D03*
X1091000Y1470000D02*
D03*
Y70000D02*
D03*
X241000Y1470000D02*
D03*
X566000Y20000D02*
D03*
X116000Y720000D02*
D03*
X391000Y70000D02*
D03*
X1466000Y920000D02*
D03*
X891000Y1470000D02*
D03*
X616000Y20000D02*
D03*
X66000Y720000D02*
D03*
X191000Y70000D02*
D03*
X1191000D02*
D03*
X1491000Y670000D02*
D03*
X916000Y20000D02*
D03*
X341000Y1470000D02*
D03*
X541000Y70000D02*
D03*
X291000Y1470000D02*
D03*
X316000Y20000D02*
D03*
X1116000D02*
D03*
X191000Y1470000D02*
D03*
X1491000Y1070000D02*
D03*
X441000Y1470000D02*
D03*
X1066000Y20000D02*
D03*
X76256Y263419D02*
D03*
M02*
