G04*
G04 #@! TF.GenerationSoftware,Altium Limited,Altium NEXUS,5.8.2 (18)*
G04*
G04 Layer_Physical_Order=2*
G04 Layer_Color=36540*
%FSLAX44Y44*%
%MOMM*%
G71*
G04*
G04 #@! TF.SameCoordinates,3A4C7DAC-53F9-47BC-B828-E3EBBCC91193*
G04*
G04*
G04 #@! TF.FilePolarity,Positive*
G04*
G01*
G75*
%ADD10C,0.2500*%
%ADD14C,0.1500*%
%ADD75C,0.1520*%
%ADD79C,0.6040*%
G36*
X771795Y1494478D02*
X771893Y1493986D01*
X772943Y1491450D01*
X773222Y1491033D01*
X773414Y1490569D01*
X774939Y1488287D01*
X775294Y1487932D01*
X775573Y1487514D01*
X777513Y1485574D01*
X777931Y1485295D01*
X778286Y1484940D01*
X780568Y1483415D01*
X781032Y1483223D01*
X781449Y1482944D01*
X783985Y1481893D01*
X784477Y1481796D01*
X784941Y1481603D01*
X787633Y1481068D01*
X788011D01*
X788377Y1480976D01*
X789749Y1480909D01*
X789999Y1480946D01*
X790250Y1480909D01*
X791622Y1480976D01*
X791988Y1481068D01*
X792366D01*
X795058Y1481603D01*
X795522Y1481796D01*
X796014Y1481893D01*
X798550Y1482944D01*
X798967Y1483223D01*
X799431Y1483415D01*
X801713Y1484940D01*
X802068Y1485295D01*
X802486Y1485574D01*
X804426Y1487514D01*
X804705Y1487932D01*
X805060Y1488287D01*
X806585Y1490569D01*
X806777Y1491033D01*
X807056Y1491450D01*
X808107Y1493986D01*
X808204Y1494478D01*
X808380Y1494903D01*
X1421619Y1494903D01*
X1421795Y1494478D01*
X1421893Y1493986D01*
X1422943Y1491450D01*
X1423222Y1491033D01*
X1423414Y1490569D01*
X1424939Y1488287D01*
X1425294Y1487932D01*
X1425573Y1487514D01*
X1427513Y1485574D01*
X1427931Y1485295D01*
X1428286Y1484940D01*
X1430568Y1483415D01*
X1431032Y1483223D01*
X1431449Y1482944D01*
X1433985Y1481893D01*
X1434477Y1481796D01*
X1434941Y1481603D01*
X1437633Y1481068D01*
X1438011D01*
X1438377Y1480976D01*
X1439749Y1480909D01*
X1440000Y1480946D01*
X1440250Y1480909D01*
X1441622Y1480976D01*
X1441988Y1481068D01*
X1442366D01*
X1445058Y1481603D01*
X1445522Y1481796D01*
X1446014Y1481893D01*
X1448550Y1482944D01*
X1448967Y1483223D01*
X1449431Y1483415D01*
X1451713Y1484940D01*
X1452068Y1485295D01*
X1452486Y1485574D01*
X1454426Y1487514D01*
X1454705Y1487932D01*
X1455060Y1488287D01*
X1456585Y1490569D01*
X1456777Y1491033D01*
X1457056Y1491450D01*
X1458107Y1493986D01*
X1458204Y1494478D01*
X1458380Y1494902D01*
X1470000Y1494902D01*
X1527888D01*
X1534903Y1487888D01*
Y1418381D01*
X1534478Y1418205D01*
X1533986Y1418107D01*
X1531450Y1417057D01*
X1531033Y1416778D01*
X1530569Y1416586D01*
X1528287Y1415061D01*
X1527932Y1414706D01*
X1527514Y1414427D01*
X1525574Y1412487D01*
X1525295Y1412069D01*
X1524940Y1411714D01*
X1523415Y1409432D01*
X1523223Y1408968D01*
X1522944Y1408551D01*
X1521893Y1406015D01*
X1521796Y1405523D01*
X1521603Y1405059D01*
X1521068Y1402367D01*
Y1401989D01*
X1520976Y1401623D01*
X1520909Y1400251D01*
X1520946Y1400000D01*
X1520909Y1399750D01*
X1520976Y1398378D01*
X1521068Y1398012D01*
Y1397634D01*
X1521603Y1394942D01*
X1521796Y1394478D01*
X1521893Y1393986D01*
X1522944Y1391450D01*
X1523223Y1391033D01*
X1523415Y1390569D01*
X1524940Y1388287D01*
X1525295Y1387932D01*
X1525574Y1387514D01*
X1527514Y1385574D01*
X1527932Y1385295D01*
X1528287Y1384940D01*
X1530569Y1383415D01*
X1531033Y1383223D01*
X1531450Y1382944D01*
X1533986Y1381893D01*
X1534478Y1381796D01*
X1534903Y1381620D01*
X1534903Y768381D01*
X1534478Y768205D01*
X1533986Y768107D01*
X1531450Y767057D01*
X1531033Y766778D01*
X1530569Y766586D01*
X1528287Y765061D01*
X1527932Y764706D01*
X1527514Y764427D01*
X1525574Y762487D01*
X1525295Y762069D01*
X1524940Y761714D01*
X1523415Y759432D01*
X1523223Y758968D01*
X1522944Y758551D01*
X1521893Y756015D01*
X1521796Y755523D01*
X1521603Y755059D01*
X1521068Y752367D01*
Y751989D01*
X1520976Y751623D01*
X1520909Y750251D01*
X1520946Y750001D01*
X1520909Y749750D01*
X1520976Y748378D01*
X1521068Y748012D01*
Y747634D01*
X1521603Y744942D01*
X1521796Y744478D01*
X1521893Y743986D01*
X1522944Y741450D01*
X1523223Y741032D01*
X1523415Y740569D01*
X1524940Y738287D01*
X1525295Y737932D01*
X1525574Y737514D01*
X1527514Y735574D01*
X1527932Y735295D01*
X1528287Y734940D01*
X1530569Y733415D01*
X1531033Y733223D01*
X1531450Y732944D01*
X1533986Y731893D01*
X1534478Y731796D01*
X1534903Y731620D01*
X1534903Y118381D01*
X1534478Y118205D01*
X1533986Y118107D01*
X1531450Y117057D01*
X1531033Y116778D01*
X1530569Y116586D01*
X1528287Y115061D01*
X1527932Y114706D01*
X1527514Y114427D01*
X1525574Y112487D01*
X1525295Y112069D01*
X1524940Y111714D01*
X1523415Y109432D01*
X1523223Y108968D01*
X1522944Y108551D01*
X1521893Y106015D01*
X1521796Y105523D01*
X1521603Y105059D01*
X1521068Y102367D01*
Y101989D01*
X1520976Y101623D01*
X1520909Y100251D01*
X1520946Y100000D01*
X1520909Y99750D01*
X1520976Y98378D01*
X1521068Y98012D01*
Y97634D01*
X1521603Y94942D01*
X1521796Y94478D01*
X1521893Y93986D01*
X1522944Y91450D01*
X1523223Y91032D01*
X1523415Y90569D01*
X1524940Y88287D01*
X1525295Y87932D01*
X1525574Y87514D01*
X1527514Y85574D01*
X1527932Y85295D01*
X1528287Y84940D01*
X1530569Y83415D01*
X1531033Y83223D01*
X1531450Y82944D01*
X1533986Y81894D01*
X1534478Y81796D01*
X1534903Y81620D01*
X1534903Y12112D01*
X1527888Y5097D01*
X1458381D01*
X1458205Y5522D01*
X1458107Y6014D01*
X1457057Y8550D01*
X1456778Y8967D01*
X1456586Y9431D01*
X1455061Y11713D01*
X1454706Y12068D01*
X1454427Y12486D01*
X1452487Y14426D01*
X1452069Y14705D01*
X1451714Y15060D01*
X1449432Y16585D01*
X1448968Y16777D01*
X1448551Y17056D01*
X1446015Y18106D01*
X1445523Y18204D01*
X1445059Y18397D01*
X1442367Y18932D01*
X1441989D01*
X1441623Y19024D01*
X1440251Y19091D01*
X1440000Y19054D01*
X1439750Y19091D01*
X1438378Y19024D01*
X1438011Y18932D01*
X1437634D01*
X1434942Y18397D01*
X1434478Y18204D01*
X1433986Y18106D01*
X1431450Y17056D01*
X1431033Y16777D01*
X1430569Y16585D01*
X1428287Y15060D01*
X1427932Y14705D01*
X1427514Y14426D01*
X1425574Y12486D01*
X1425295Y12068D01*
X1424940Y11713D01*
X1423415Y9431D01*
X1423223Y8967D01*
X1422944Y8550D01*
X1421893Y6014D01*
X1421796Y5522D01*
X1421620Y5097D01*
X808381Y5097D01*
X808205Y5522D01*
X808107Y6014D01*
X807057Y8550D01*
X806778Y8967D01*
X806586Y9431D01*
X805061Y11713D01*
X804706Y12068D01*
X804427Y12486D01*
X802487Y14426D01*
X802069Y14705D01*
X801714Y15060D01*
X799432Y16585D01*
X798968Y16777D01*
X798551Y17056D01*
X796015Y18106D01*
X795523Y18204D01*
X795059Y18397D01*
X792367Y18932D01*
X791989D01*
X791623Y19024D01*
X790251Y19091D01*
X790001Y19054D01*
X789750Y19091D01*
X788378Y19024D01*
X788011Y18932D01*
X787634D01*
X784942Y18397D01*
X784478Y18204D01*
X783986Y18106D01*
X781450Y17056D01*
X781033Y16777D01*
X780569Y16585D01*
X778287Y15060D01*
X777932Y14705D01*
X777514Y14426D01*
X775574Y12486D01*
X775295Y12068D01*
X774940Y11713D01*
X773415Y9431D01*
X773223Y8967D01*
X772944Y8550D01*
X771893Y6014D01*
X771796Y5522D01*
X771620Y5097D01*
X158381Y5097D01*
X158205Y5522D01*
X158107Y6014D01*
X157057Y8550D01*
X156778Y8967D01*
X156586Y9431D01*
X155061Y11713D01*
X154706Y12068D01*
X154427Y12486D01*
X152487Y14426D01*
X152069Y14705D01*
X151714Y15060D01*
X149432Y16585D01*
X148968Y16777D01*
X148551Y17056D01*
X146015Y18106D01*
X145523Y18204D01*
X145059Y18397D01*
X142367Y18932D01*
X141989D01*
X141623Y19024D01*
X140251Y19091D01*
X140000Y19054D01*
X139750Y19091D01*
X138378Y19024D01*
X138012Y18932D01*
X137634D01*
X134942Y18397D01*
X134478Y18204D01*
X133986Y18107D01*
X131450Y17056D01*
X131033Y16777D01*
X130569Y16585D01*
X128287Y15061D01*
X127932Y14706D01*
X127514Y14427D01*
X125574Y12486D01*
X125295Y12069D01*
X124940Y11714D01*
X123415Y9432D01*
X123223Y8968D01*
X122944Y8550D01*
X121894Y6015D01*
X121796Y5522D01*
X121620Y5098D01*
X52112Y5098D01*
X45098Y12112D01*
Y45750D01*
X45048Y45998D01*
X45073Y46250D01*
X44977Y47225D01*
X44760Y47942D01*
X44614Y48676D01*
X43867Y50479D01*
X42762Y52133D01*
X41382Y53512D01*
X39729Y54617D01*
X37926Y55364D01*
X37192Y55510D01*
X36475Y55727D01*
X35500Y55823D01*
X35248Y55798D01*
X35000Y55848D01*
X5098Y55848D01*
Y112652D01*
X29000D01*
X29248Y112702D01*
X29500Y112677D01*
X30670Y112792D01*
X31387Y113009D01*
X32122Y113155D01*
X34284Y114051D01*
X35938Y115156D01*
X37594Y116812D01*
X38699Y118466D01*
X39595Y120628D01*
X39741Y121363D01*
X39958Y122080D01*
X40073Y123250D01*
X40024Y123750D01*
X40073Y124250D01*
X39958Y125420D01*
X39741Y126137D01*
X39595Y126872D01*
X38699Y129034D01*
X37594Y130688D01*
X35938Y132344D01*
X34284Y133449D01*
X32121Y134345D01*
X31387Y134491D01*
X30670Y134708D01*
X29500Y134823D01*
X29248Y134798D01*
X29000Y134848D01*
X5098Y134848D01*
Y244152D01*
X35000D01*
X35248Y244202D01*
X35500Y244177D01*
X36475Y244273D01*
X37192Y244490D01*
X37926Y244636D01*
X39729Y245383D01*
X41382Y246488D01*
X42762Y247868D01*
X43867Y249522D01*
X44613Y251324D01*
X44759Y252058D01*
X44977Y252775D01*
X45073Y253750D01*
X45048Y254002D01*
X45097Y254250D01*
X45097Y720000D01*
Y731619D01*
X45522Y731795D01*
X46014Y731893D01*
X48550Y732943D01*
X48967Y733222D01*
X49431Y733414D01*
X51713Y734939D01*
X52068Y735294D01*
X52486Y735573D01*
X54426Y737513D01*
X54705Y737931D01*
X55060Y738286D01*
X56585Y740568D01*
X56777Y741032D01*
X57056Y741449D01*
X58106Y743985D01*
X58204Y744477D01*
X58397Y744941D01*
X58932Y747633D01*
Y748011D01*
X59024Y748377D01*
X59091Y749749D01*
X59054Y749999D01*
X59091Y750250D01*
X59024Y751622D01*
X58932Y751988D01*
Y752366D01*
X58397Y755058D01*
X58204Y755522D01*
X58106Y756014D01*
X57056Y758550D01*
X56777Y758967D01*
X56585Y759431D01*
X55060Y761713D01*
X54705Y762068D01*
X54426Y762486D01*
X52486Y764426D01*
X52068Y764705D01*
X51713Y765060D01*
X49431Y766585D01*
X48967Y766777D01*
X48550Y767056D01*
X46014Y768107D01*
X45522Y768204D01*
X45097Y768380D01*
X45097Y1381619D01*
X45522Y1381795D01*
X46014Y1381893D01*
X48550Y1382943D01*
X48967Y1383222D01*
X49431Y1383414D01*
X51713Y1384939D01*
X52068Y1385294D01*
X52486Y1385573D01*
X54426Y1387513D01*
X54705Y1387931D01*
X55060Y1388286D01*
X56585Y1390568D01*
X56777Y1391032D01*
X57056Y1391449D01*
X58106Y1393985D01*
X58204Y1394477D01*
X58397Y1394941D01*
X58932Y1397633D01*
Y1398011D01*
X59024Y1398377D01*
X59091Y1399749D01*
X59054Y1400000D01*
X59091Y1400250D01*
X59024Y1401622D01*
X58932Y1401988D01*
Y1402366D01*
X58397Y1405058D01*
X58204Y1405522D01*
X58106Y1406014D01*
X57056Y1408550D01*
X56777Y1408967D01*
X56585Y1409431D01*
X55060Y1411713D01*
X54705Y1412068D01*
X54426Y1412486D01*
X52486Y1414426D01*
X52068Y1414705D01*
X51713Y1415060D01*
X49431Y1416585D01*
X48967Y1416777D01*
X48550Y1417056D01*
X46014Y1418107D01*
X45522Y1418204D01*
X45097Y1418380D01*
X45098Y1430000D01*
X45098Y1430000D01*
X45098Y1430000D01*
X45097Y1487888D01*
X52112Y1494903D01*
X121619D01*
X121795Y1494478D01*
X121893Y1493986D01*
X122943Y1491450D01*
X123222Y1491033D01*
X123414Y1490569D01*
X124939Y1488287D01*
X125294Y1487932D01*
X125573Y1487514D01*
X127513Y1485574D01*
X127931Y1485295D01*
X128286Y1484940D01*
X130568Y1483415D01*
X131032Y1483223D01*
X131449Y1482944D01*
X133985Y1481893D01*
X134477Y1481796D01*
X134941Y1481603D01*
X137633Y1481068D01*
X138011D01*
X138377Y1480976D01*
X139749Y1480909D01*
X140000Y1480946D01*
X140250Y1480909D01*
X141622Y1480976D01*
X141988Y1481068D01*
X142366D01*
X145058Y1481603D01*
X145522Y1481796D01*
X146014Y1481893D01*
X148550Y1482944D01*
X148967Y1483223D01*
X149431Y1483415D01*
X151713Y1484940D01*
X152068Y1485295D01*
X152486Y1485574D01*
X154426Y1487514D01*
X154705Y1487932D01*
X155060Y1488287D01*
X156585Y1490569D01*
X156777Y1491033D01*
X157056Y1491450D01*
X158106Y1493986D01*
X158204Y1494478D01*
X158380Y1494902D01*
X170000Y1494902D01*
X759999Y1494903D01*
X771619D01*
X771795Y1494478D01*
D02*
G37*
%LPC*%
G36*
X1491849Y1474270D02*
X1490151D01*
X1488581Y1473620D01*
X1487380Y1472419D01*
X1486730Y1470849D01*
Y1469151D01*
X1487380Y1467581D01*
X1488581Y1466380D01*
X1490151Y1465730D01*
X1491849D01*
X1493419Y1466380D01*
X1494620Y1467581D01*
X1495270Y1469151D01*
Y1470849D01*
X1494620Y1472419D01*
X1493419Y1473620D01*
X1491849Y1474270D01*
D02*
G37*
G36*
X1391849D02*
X1390151D01*
X1388581Y1473620D01*
X1387380Y1472419D01*
X1386730Y1470849D01*
Y1469151D01*
X1387380Y1467581D01*
X1388581Y1466380D01*
X1390151Y1465730D01*
X1391849D01*
X1393419Y1466380D01*
X1394620Y1467581D01*
X1395270Y1469151D01*
Y1470849D01*
X1394620Y1472419D01*
X1393419Y1473620D01*
X1391849Y1474270D01*
D02*
G37*
G36*
X1291849D02*
X1290151D01*
X1288581Y1473620D01*
X1287380Y1472419D01*
X1286730Y1470849D01*
Y1469151D01*
X1287380Y1467581D01*
X1288581Y1466380D01*
X1290151Y1465730D01*
X1291849D01*
X1293419Y1466380D01*
X1294620Y1467581D01*
X1295270Y1469151D01*
Y1470849D01*
X1294620Y1472419D01*
X1293419Y1473620D01*
X1291849Y1474270D01*
D02*
G37*
G36*
X1241849D02*
X1240151D01*
X1238581Y1473620D01*
X1237380Y1472419D01*
X1236730Y1470849D01*
Y1469151D01*
X1237380Y1467581D01*
X1238581Y1466380D01*
X1240151Y1465730D01*
X1241849D01*
X1243419Y1466380D01*
X1244620Y1467581D01*
X1245270Y1469151D01*
Y1470849D01*
X1244620Y1472419D01*
X1243419Y1473620D01*
X1241849Y1474270D01*
D02*
G37*
G36*
X1191849D02*
X1190151D01*
X1188581Y1473620D01*
X1187380Y1472419D01*
X1186730Y1470849D01*
Y1469151D01*
X1187380Y1467581D01*
X1188581Y1466380D01*
X1190151Y1465730D01*
X1191849D01*
X1193419Y1466380D01*
X1194620Y1467581D01*
X1195270Y1469151D01*
Y1470849D01*
X1194620Y1472419D01*
X1193419Y1473620D01*
X1191849Y1474270D01*
D02*
G37*
G36*
X1141849D02*
X1140151D01*
X1138581Y1473620D01*
X1137380Y1472419D01*
X1136730Y1470849D01*
Y1469151D01*
X1137380Y1467581D01*
X1138581Y1466380D01*
X1140151Y1465730D01*
X1141849D01*
X1143419Y1466380D01*
X1144620Y1467581D01*
X1145270Y1469151D01*
Y1470849D01*
X1144620Y1472419D01*
X1143419Y1473620D01*
X1141849Y1474270D01*
D02*
G37*
G36*
X1091849D02*
X1090151D01*
X1088581Y1473620D01*
X1087380Y1472419D01*
X1086730Y1470849D01*
Y1469151D01*
X1087380Y1467581D01*
X1088581Y1466380D01*
X1090151Y1465730D01*
X1091849D01*
X1093419Y1466380D01*
X1094620Y1467581D01*
X1095270Y1469151D01*
Y1470849D01*
X1094620Y1472419D01*
X1093419Y1473620D01*
X1091849Y1474270D01*
D02*
G37*
G36*
X1041849D02*
X1040151D01*
X1038581Y1473620D01*
X1037380Y1472419D01*
X1036730Y1470849D01*
Y1469151D01*
X1037380Y1467581D01*
X1038581Y1466380D01*
X1040151Y1465730D01*
X1041849D01*
X1043419Y1466380D01*
X1044620Y1467581D01*
X1045270Y1469151D01*
Y1470849D01*
X1044620Y1472419D01*
X1043419Y1473620D01*
X1041849Y1474270D01*
D02*
G37*
G36*
X991849D02*
X990151D01*
X988581Y1473620D01*
X987380Y1472419D01*
X986730Y1470849D01*
Y1469151D01*
X987380Y1467581D01*
X988581Y1466380D01*
X990151Y1465730D01*
X991849D01*
X993419Y1466380D01*
X994620Y1467581D01*
X995270Y1469151D01*
Y1470849D01*
X994620Y1472419D01*
X993419Y1473620D01*
X991849Y1474270D01*
D02*
G37*
G36*
X941849D02*
X940151D01*
X938581Y1473620D01*
X937380Y1472419D01*
X936730Y1470849D01*
Y1469151D01*
X937380Y1467581D01*
X938581Y1466380D01*
X940151Y1465730D01*
X941849D01*
X943419Y1466380D01*
X944620Y1467581D01*
X945270Y1469151D01*
Y1470849D01*
X944620Y1472419D01*
X943419Y1473620D01*
X941849Y1474270D01*
D02*
G37*
G36*
X891849D02*
X890151D01*
X888581Y1473620D01*
X887380Y1472419D01*
X886730Y1470849D01*
Y1469151D01*
X887380Y1467581D01*
X888581Y1466380D01*
X890151Y1465730D01*
X891849D01*
X893419Y1466380D01*
X894620Y1467581D01*
X895270Y1469151D01*
Y1470849D01*
X894620Y1472419D01*
X893419Y1473620D01*
X891849Y1474270D01*
D02*
G37*
G36*
X841849D02*
X840151D01*
X838581Y1473620D01*
X837380Y1472419D01*
X836730Y1470849D01*
Y1469151D01*
X837380Y1467581D01*
X838581Y1466380D01*
X840151Y1465730D01*
X841849D01*
X843419Y1466380D01*
X844620Y1467581D01*
X845270Y1469151D01*
Y1470849D01*
X844620Y1472419D01*
X843419Y1473620D01*
X841849Y1474270D01*
D02*
G37*
G36*
X741849D02*
X740151D01*
X738581Y1473620D01*
X737380Y1472419D01*
X736730Y1470849D01*
Y1469151D01*
X737380Y1467581D01*
X738581Y1466380D01*
X740151Y1465730D01*
X741849D01*
X743419Y1466380D01*
X744620Y1467581D01*
X745270Y1469151D01*
Y1470849D01*
X744620Y1472419D01*
X743419Y1473620D01*
X741849Y1474270D01*
D02*
G37*
G36*
X691849D02*
X690151D01*
X688581Y1473620D01*
X687380Y1472419D01*
X686730Y1470849D01*
Y1469151D01*
X687380Y1467581D01*
X688581Y1466380D01*
X690151Y1465730D01*
X691849D01*
X693419Y1466380D01*
X694620Y1467581D01*
X695270Y1469151D01*
Y1470849D01*
X694620Y1472419D01*
X693419Y1473620D01*
X691849Y1474270D01*
D02*
G37*
G36*
X641849D02*
X640151D01*
X638581Y1473620D01*
X637380Y1472419D01*
X636730Y1470849D01*
Y1469151D01*
X637380Y1467581D01*
X638581Y1466380D01*
X640151Y1465730D01*
X641849D01*
X643419Y1466380D01*
X644620Y1467581D01*
X645270Y1469151D01*
Y1470849D01*
X644620Y1472419D01*
X643419Y1473620D01*
X641849Y1474270D01*
D02*
G37*
G36*
X541849D02*
X540151D01*
X538581Y1473620D01*
X537380Y1472419D01*
X536730Y1470849D01*
Y1469151D01*
X537380Y1467581D01*
X538581Y1466380D01*
X540151Y1465730D01*
X541849D01*
X543419Y1466380D01*
X544620Y1467581D01*
X545270Y1469151D01*
Y1470849D01*
X544620Y1472419D01*
X543419Y1473620D01*
X541849Y1474270D01*
D02*
G37*
G36*
X491849D02*
X490151D01*
X488581Y1473620D01*
X487380Y1472419D01*
X486730Y1470849D01*
Y1469151D01*
X487380Y1467581D01*
X488581Y1466380D01*
X490151Y1465730D01*
X491849D01*
X493419Y1466380D01*
X494620Y1467581D01*
X495270Y1469151D01*
Y1470849D01*
X494620Y1472419D01*
X493419Y1473620D01*
X491849Y1474270D01*
D02*
G37*
G36*
X441849D02*
X440151D01*
X438581Y1473620D01*
X437380Y1472419D01*
X436730Y1470849D01*
Y1469151D01*
X437380Y1467581D01*
X438581Y1466380D01*
X440151Y1465730D01*
X441849D01*
X443419Y1466380D01*
X444620Y1467581D01*
X445270Y1469151D01*
Y1470849D01*
X444620Y1472419D01*
X443419Y1473620D01*
X441849Y1474270D01*
D02*
G37*
G36*
X391849D02*
X390151D01*
X388581Y1473620D01*
X387380Y1472419D01*
X386730Y1470849D01*
Y1469151D01*
X387380Y1467581D01*
X388581Y1466380D01*
X390151Y1465730D01*
X391849D01*
X393419Y1466380D01*
X394620Y1467581D01*
X395270Y1469151D01*
Y1470849D01*
X394620Y1472419D01*
X393419Y1473620D01*
X391849Y1474270D01*
D02*
G37*
G36*
X341849D02*
X340151D01*
X338581Y1473620D01*
X337380Y1472419D01*
X336730Y1470849D01*
Y1469151D01*
X337380Y1467581D01*
X338581Y1466380D01*
X340151Y1465730D01*
X341849D01*
X343419Y1466380D01*
X344620Y1467581D01*
X345270Y1469151D01*
Y1470849D01*
X344620Y1472419D01*
X343419Y1473620D01*
X341849Y1474270D01*
D02*
G37*
G36*
X291849D02*
X290151D01*
X288581Y1473620D01*
X287380Y1472419D01*
X286730Y1470849D01*
Y1469151D01*
X287380Y1467581D01*
X288581Y1466380D01*
X290151Y1465730D01*
X291849D01*
X293419Y1466380D01*
X294620Y1467581D01*
X295270Y1469151D01*
Y1470849D01*
X294620Y1472419D01*
X293419Y1473620D01*
X291849Y1474270D01*
D02*
G37*
G36*
X241849D02*
X240151D01*
X238581Y1473620D01*
X237380Y1472419D01*
X236730Y1470849D01*
Y1469151D01*
X237380Y1467581D01*
X238581Y1466380D01*
X240151Y1465730D01*
X241849D01*
X243419Y1466380D01*
X244620Y1467581D01*
X245270Y1469151D01*
Y1470849D01*
X244620Y1472419D01*
X243419Y1473620D01*
X241849Y1474270D01*
D02*
G37*
G36*
X191849D02*
X190151D01*
X188581Y1473620D01*
X187380Y1472419D01*
X186730Y1470849D01*
Y1469151D01*
X187380Y1467581D01*
X188581Y1466380D01*
X190151Y1465730D01*
X191849D01*
X193419Y1466380D01*
X194620Y1467581D01*
X195270Y1469151D01*
Y1470849D01*
X194620Y1472419D01*
X193419Y1473620D01*
X191849Y1474270D01*
D02*
G37*
G36*
X91849D02*
X90151D01*
X88581Y1473620D01*
X87380Y1472419D01*
X86730Y1470849D01*
Y1469151D01*
X87380Y1467581D01*
X88581Y1466380D01*
X90151Y1465730D01*
X91849D01*
X93419Y1466380D01*
X94620Y1467581D01*
X95270Y1469151D01*
Y1470849D01*
X94620Y1472419D01*
X93419Y1473620D01*
X91849Y1474270D01*
D02*
G37*
G36*
X1410847Y1424268D02*
X1409149D01*
X1407579Y1423618D01*
X1406508Y1422547D01*
X1227774D01*
X1226703Y1423618D01*
X1225133Y1424268D01*
X1223435D01*
X1221865Y1423618D01*
X1220794Y1422547D01*
X1042060D01*
X1040989Y1423618D01*
X1039419Y1424268D01*
X1037721D01*
X1036151Y1423618D01*
X1035080Y1422547D01*
X856346D01*
X855275Y1423618D01*
X853705Y1424268D01*
X852007D01*
X850437Y1423618D01*
X849366Y1422547D01*
X670632D01*
X669561Y1423618D01*
X667991Y1424268D01*
X666293D01*
X664723Y1423618D01*
X663652Y1422547D01*
X484918D01*
X483847Y1423618D01*
X482277Y1424268D01*
X480579D01*
X479009Y1423618D01*
X477938Y1422547D01*
X299204D01*
X298133Y1423618D01*
X296563Y1424268D01*
X294865D01*
X293295Y1423618D01*
X292224Y1422547D01*
X113490D01*
X112419Y1423618D01*
X110849Y1424268D01*
X109151D01*
X107581Y1423618D01*
X106380Y1422417D01*
X105730Y1420847D01*
Y1419149D01*
X106380Y1417579D01*
X107581Y1416378D01*
X109151Y1415728D01*
X110849D01*
X112419Y1416378D01*
X113490Y1417449D01*
X292224D01*
X293295Y1416378D01*
X294865Y1415728D01*
X296563D01*
X298133Y1416378D01*
X299204Y1417449D01*
X477938D01*
X479009Y1416378D01*
X480579Y1415728D01*
X482277D01*
X483847Y1416378D01*
X484918Y1417449D01*
X663652D01*
X664723Y1416378D01*
X666293Y1415728D01*
X667991D01*
X669561Y1416378D01*
X670632Y1417449D01*
X849366D01*
X850437Y1416378D01*
X852007Y1415728D01*
X853705D01*
X855275Y1416378D01*
X856346Y1417449D01*
X1035080D01*
X1036151Y1416378D01*
X1037721Y1415728D01*
X1039419D01*
X1040989Y1416378D01*
X1042060Y1417449D01*
X1220794D01*
X1221865Y1416378D01*
X1223435Y1415728D01*
X1225133D01*
X1226703Y1416378D01*
X1227774Y1417449D01*
X1406508D01*
X1407579Y1416378D01*
X1409149Y1415728D01*
X1410847D01*
X1412417Y1416378D01*
X1413618Y1417579D01*
X1414268Y1419149D01*
Y1420847D01*
X1413618Y1422417D01*
X1412417Y1423618D01*
X1410847Y1424268D01*
D02*
G37*
G36*
X1466849Y1424270D02*
X1465151D01*
X1463581Y1423620D01*
X1462380Y1422419D01*
X1461730Y1420849D01*
Y1419151D01*
X1462380Y1417581D01*
X1463581Y1416380D01*
X1465151Y1415730D01*
X1466849D01*
X1468419Y1416380D01*
X1469620Y1417581D01*
X1470270Y1419151D01*
Y1420849D01*
X1469620Y1422419D01*
X1468419Y1423620D01*
X1466849Y1424270D01*
D02*
G37*
G36*
X1410852Y1385749D02*
X1409154D01*
X1407584Y1385099D01*
X1406513Y1384028D01*
X1227779D01*
X1226708Y1385099D01*
X1225138Y1385749D01*
X1223440D01*
X1221870Y1385099D01*
X1220799Y1384028D01*
X1042065D01*
X1040994Y1385099D01*
X1039424Y1385749D01*
X1037726D01*
X1036156Y1385099D01*
X1035085Y1384028D01*
X856351D01*
X855280Y1385099D01*
X853710Y1385749D01*
X852012D01*
X850442Y1385099D01*
X849371Y1384028D01*
X670637D01*
X669566Y1385099D01*
X667996Y1385749D01*
X666298D01*
X664728Y1385099D01*
X663657Y1384028D01*
X484923D01*
X483852Y1385099D01*
X482282Y1385749D01*
X480584D01*
X479014Y1385099D01*
X477943Y1384028D01*
X299209D01*
X298138Y1385099D01*
X296568Y1385749D01*
X294870D01*
X293300Y1385099D01*
X292229Y1384028D01*
X113495D01*
X112424Y1385099D01*
X110854Y1385749D01*
X109156D01*
X107586Y1385099D01*
X106515Y1384028D01*
X83437D01*
X82759Y1383893D01*
X81849Y1384270D01*
X80151D01*
X78581Y1383620D01*
X77380Y1382419D01*
X76730Y1380849D01*
Y1379151D01*
X77380Y1377581D01*
X78581Y1376380D01*
X80151Y1375730D01*
X81849D01*
X83419Y1376380D01*
X84620Y1377581D01*
X85179Y1378930D01*
X106515D01*
X107586Y1377859D01*
X109156Y1377209D01*
X110854D01*
X112424Y1377859D01*
X113495Y1378930D01*
X292229D01*
X293300Y1377859D01*
X294870Y1377209D01*
X296568D01*
X298138Y1377859D01*
X299209Y1378930D01*
X477943D01*
X479014Y1377859D01*
X480584Y1377209D01*
X482282D01*
X483852Y1377859D01*
X484923Y1378930D01*
X663657D01*
X664728Y1377859D01*
X666298Y1377209D01*
X667996D01*
X669566Y1377859D01*
X670637Y1378930D01*
X849371D01*
X850442Y1377859D01*
X852012Y1377209D01*
X853710D01*
X855280Y1377859D01*
X856351Y1378930D01*
X1035085D01*
X1036156Y1377859D01*
X1037726Y1377209D01*
X1039424D01*
X1040994Y1377859D01*
X1042065Y1378930D01*
X1220799D01*
X1221870Y1377859D01*
X1223440Y1377209D01*
X1225138D01*
X1226708Y1377859D01*
X1227779Y1378930D01*
X1406513D01*
X1407584Y1377859D01*
X1409154Y1377209D01*
X1410852D01*
X1412422Y1377859D01*
X1413623Y1379060D01*
X1414273Y1380630D01*
Y1382328D01*
X1413623Y1383898D01*
X1412422Y1385099D01*
X1410852Y1385749D01*
D02*
G37*
G36*
X1491849Y1374270D02*
X1490151D01*
X1488581Y1373620D01*
X1487380Y1372419D01*
X1486730Y1370849D01*
Y1369151D01*
X1487380Y1367581D01*
X1488581Y1366380D01*
X1490151Y1365730D01*
X1491849D01*
X1493419Y1366380D01*
X1494620Y1367581D01*
X1495270Y1369151D01*
Y1370849D01*
X1494620Y1372419D01*
X1493419Y1373620D01*
X1491849Y1374270D01*
D02*
G37*
G36*
X110849Y1332270D02*
X109151D01*
X107581Y1331620D01*
X106460Y1330498D01*
X84057D01*
X83037Y1331518D01*
X81467Y1332168D01*
X79769D01*
X78199Y1331518D01*
X76998Y1330317D01*
X76348Y1328748D01*
Y1327049D01*
X76998Y1325480D01*
X78199Y1324279D01*
X79769Y1323628D01*
X81467D01*
X83037Y1324279D01*
X84158Y1325400D01*
X106561D01*
X107581Y1324380D01*
X109151Y1323730D01*
X110849D01*
X112419Y1324380D01*
X113620Y1325581D01*
X114270Y1327151D01*
Y1328849D01*
X113620Y1330419D01*
X112419Y1331620D01*
X110849Y1332270D01*
D02*
G37*
G36*
X1466849Y1324270D02*
X1465151D01*
X1463581Y1323620D01*
X1462380Y1322419D01*
X1461730Y1320849D01*
Y1319151D01*
X1462380Y1317581D01*
X1463581Y1316380D01*
X1465151Y1315730D01*
X1466849D01*
X1468419Y1316380D01*
X1469620Y1317581D01*
X1470270Y1319151D01*
Y1320849D01*
X1469620Y1322419D01*
X1468419Y1323620D01*
X1466849Y1324270D01*
D02*
G37*
G36*
X66849D02*
X65151D01*
X63581Y1323620D01*
X62380Y1322419D01*
X61730Y1320849D01*
Y1319151D01*
X62380Y1317581D01*
X63581Y1316380D01*
X65151Y1315730D01*
X66849D01*
X68419Y1316380D01*
X69620Y1317581D01*
X70270Y1319151D01*
Y1320849D01*
X69620Y1322419D01*
X68419Y1323620D01*
X66849Y1324270D01*
D02*
G37*
G36*
X1491849Y1274270D02*
X1490151D01*
X1488581Y1273620D01*
X1487380Y1272419D01*
X1486730Y1270849D01*
Y1269151D01*
X1487380Y1267581D01*
X1488581Y1266380D01*
X1490151Y1265730D01*
X1491849D01*
X1493419Y1266380D01*
X1494620Y1267581D01*
X1495270Y1269151D01*
Y1270849D01*
X1494620Y1272419D01*
X1493419Y1273620D01*
X1491849Y1274270D01*
D02*
G37*
G36*
X1410847Y1238554D02*
X1409149D01*
X1407579Y1237904D01*
X1406508Y1236833D01*
X1227774D01*
X1226703Y1237904D01*
X1225133Y1238554D01*
X1223435D01*
X1221865Y1237904D01*
X1220794Y1236833D01*
X1042060D01*
X1040989Y1237904D01*
X1039419Y1238554D01*
X1037721D01*
X1036151Y1237904D01*
X1035080Y1236833D01*
X856346D01*
X855275Y1237904D01*
X853705Y1238554D01*
X852007D01*
X850437Y1237904D01*
X849366Y1236833D01*
X670632D01*
X669561Y1237904D01*
X667991Y1238554D01*
X666293D01*
X664723Y1237904D01*
X663652Y1236833D01*
X484918D01*
X483847Y1237904D01*
X482277Y1238554D01*
X480579D01*
X479009Y1237904D01*
X477938Y1236833D01*
X299204D01*
X298133Y1237904D01*
X296563Y1238554D01*
X294865D01*
X293295Y1237904D01*
X292224Y1236833D01*
X113490D01*
X112419Y1237904D01*
X110849Y1238554D01*
X109151D01*
X107581Y1237904D01*
X106471Y1236793D01*
X91739D01*
X90707Y1237824D01*
X89138Y1238475D01*
X87439D01*
X85870Y1237824D01*
X84669Y1236623D01*
X84018Y1235054D01*
Y1233355D01*
X84669Y1231786D01*
X85870Y1230585D01*
X87439Y1229935D01*
X89138D01*
X90707Y1230585D01*
X91818Y1231695D01*
X106550D01*
X107581Y1230664D01*
X109151Y1230014D01*
X110849D01*
X112419Y1230664D01*
X113490Y1231735D01*
X292224D01*
X293295Y1230664D01*
X294865Y1230014D01*
X296563D01*
X298133Y1230664D01*
X299204Y1231735D01*
X477938D01*
X479009Y1230664D01*
X480579Y1230014D01*
X482277D01*
X483847Y1230664D01*
X484918Y1231735D01*
X663652D01*
X664723Y1230664D01*
X666293Y1230014D01*
X667991D01*
X669561Y1230664D01*
X670632Y1231735D01*
X849366D01*
X850437Y1230664D01*
X852007Y1230014D01*
X853705D01*
X855275Y1230664D01*
X856346Y1231735D01*
X1035080D01*
X1036151Y1230664D01*
X1037721Y1230014D01*
X1039419D01*
X1040989Y1230664D01*
X1042060Y1231735D01*
X1220794D01*
X1221865Y1230664D01*
X1223435Y1230014D01*
X1225133D01*
X1226703Y1230664D01*
X1227774Y1231735D01*
X1406508D01*
X1407579Y1230664D01*
X1409149Y1230014D01*
X1410847D01*
X1412417Y1230664D01*
X1413618Y1231865D01*
X1414268Y1233435D01*
Y1235133D01*
X1413618Y1236703D01*
X1412417Y1237904D01*
X1410847Y1238554D01*
D02*
G37*
G36*
X66849Y1224270D02*
X65151D01*
X63581Y1223620D01*
X62380Y1222419D01*
X61730Y1220849D01*
Y1219151D01*
X62380Y1217581D01*
X63581Y1216380D01*
X65151Y1215730D01*
X66849D01*
X68419Y1216380D01*
X69620Y1217581D01*
X70270Y1219151D01*
Y1220849D01*
X69620Y1222419D01*
X68419Y1223620D01*
X66849Y1224270D01*
D02*
G37*
G36*
X1410852Y1200035D02*
X1409154D01*
X1407584Y1199385D01*
X1406513Y1198314D01*
X1227779D01*
X1226708Y1199385D01*
X1225138Y1200035D01*
X1223440D01*
X1221870Y1199385D01*
X1220799Y1198314D01*
X1042065D01*
X1040994Y1199385D01*
X1039424Y1200035D01*
X1037726D01*
X1036156Y1199385D01*
X1035085Y1198314D01*
X856351D01*
X855280Y1199385D01*
X853710Y1200035D01*
X852012D01*
X850442Y1199385D01*
X849371Y1198314D01*
X670637D01*
X669566Y1199385D01*
X667996Y1200035D01*
X666298D01*
X664728Y1199385D01*
X663657Y1198314D01*
X484923D01*
X483852Y1199385D01*
X482282Y1200035D01*
X480584D01*
X479014Y1199385D01*
X477943Y1198314D01*
X299209D01*
X298138Y1199385D01*
X296568Y1200035D01*
X294870D01*
X293300Y1199385D01*
X292229Y1198314D01*
X113495D01*
X112424Y1199385D01*
X110854Y1200035D01*
X109156D01*
X107586Y1199385D01*
X106385Y1198184D01*
X106340Y1198075D01*
X83959D01*
X83127Y1198907D01*
X81558Y1199557D01*
X79859D01*
X78290Y1198907D01*
X77089Y1197706D01*
X76438Y1196136D01*
Y1194437D01*
X77089Y1192868D01*
X78290Y1191667D01*
X79859Y1191017D01*
X81558D01*
X83127Y1191667D01*
X84328Y1192868D01*
X84374Y1192977D01*
X106755D01*
X107586Y1192145D01*
X109156Y1191495D01*
X110854D01*
X112424Y1192145D01*
X113495Y1193216D01*
X292229D01*
X293300Y1192145D01*
X294870Y1191495D01*
X296568D01*
X298138Y1192145D01*
X299209Y1193216D01*
X477943D01*
X479014Y1192145D01*
X480584Y1191495D01*
X482282D01*
X483852Y1192145D01*
X484923Y1193216D01*
X663657D01*
X664728Y1192145D01*
X666298Y1191495D01*
X667996D01*
X669566Y1192145D01*
X670637Y1193216D01*
X849371D01*
X850442Y1192145D01*
X852012Y1191495D01*
X853710D01*
X855280Y1192145D01*
X856351Y1193216D01*
X1035085D01*
X1036156Y1192145D01*
X1037726Y1191495D01*
X1039424D01*
X1040994Y1192145D01*
X1042065Y1193216D01*
X1220799D01*
X1221870Y1192145D01*
X1223440Y1191495D01*
X1225138D01*
X1226708Y1192145D01*
X1227779Y1193216D01*
X1406513D01*
X1407584Y1192145D01*
X1409154Y1191495D01*
X1410852D01*
X1412422Y1192145D01*
X1413623Y1193346D01*
X1414273Y1194916D01*
Y1196614D01*
X1413623Y1198184D01*
X1412422Y1199385D01*
X1410852Y1200035D01*
D02*
G37*
G36*
X1491849Y1174270D02*
X1490151D01*
X1488581Y1173620D01*
X1487380Y1172419D01*
X1486730Y1170849D01*
Y1169151D01*
X1487380Y1167581D01*
X1488581Y1166380D01*
X1490151Y1165730D01*
X1491849D01*
X1493419Y1166380D01*
X1494620Y1167581D01*
X1495270Y1169151D01*
Y1170849D01*
X1494620Y1172419D01*
X1493419Y1173620D01*
X1491849Y1174270D01*
D02*
G37*
G36*
Y1074270D02*
X1490151D01*
X1488581Y1073620D01*
X1487380Y1072419D01*
X1486730Y1070849D01*
Y1069151D01*
X1487380Y1067581D01*
X1488581Y1066380D01*
X1490151Y1065730D01*
X1491849D01*
X1493419Y1066380D01*
X1494620Y1067581D01*
X1495270Y1069151D01*
Y1070849D01*
X1494620Y1072419D01*
X1493419Y1073620D01*
X1491849Y1074270D01*
D02*
G37*
G36*
X1410847Y1052840D02*
X1409149D01*
X1407579Y1052190D01*
X1406508Y1051119D01*
X1227774D01*
X1226703Y1052190D01*
X1225133Y1052840D01*
X1223435D01*
X1221865Y1052190D01*
X1220794Y1051119D01*
X1042060D01*
X1040989Y1052190D01*
X1039419Y1052840D01*
X1037721D01*
X1036151Y1052190D01*
X1035080Y1051119D01*
X856346D01*
X855275Y1052190D01*
X853705Y1052840D01*
X852007D01*
X850437Y1052190D01*
X849366Y1051119D01*
X670632D01*
X669561Y1052190D01*
X667991Y1052840D01*
X666293D01*
X664723Y1052190D01*
X663652Y1051119D01*
X484918D01*
X483847Y1052190D01*
X482277Y1052840D01*
X480579D01*
X479009Y1052190D01*
X477938Y1051119D01*
X299204D01*
X298133Y1052190D01*
X296563Y1052840D01*
X294865D01*
X293295Y1052190D01*
X292224Y1051119D01*
X113490D01*
X112419Y1052190D01*
X110849Y1052840D01*
X109151D01*
X107581Y1052190D01*
X106380Y1050989D01*
X106316Y1050834D01*
X91205D01*
X90419Y1051620D01*
X88849Y1052270D01*
X87151D01*
X85581Y1051620D01*
X84380Y1050419D01*
X83730Y1048849D01*
Y1047151D01*
X84380Y1045581D01*
X85581Y1044380D01*
X87151Y1043730D01*
X88849D01*
X90419Y1044380D01*
X91620Y1045581D01*
X91684Y1045736D01*
X106795D01*
X107581Y1044950D01*
X109151Y1044300D01*
X110849D01*
X112419Y1044950D01*
X113490Y1046021D01*
X292224D01*
X293295Y1044950D01*
X294865Y1044300D01*
X296563D01*
X298133Y1044950D01*
X299204Y1046021D01*
X477938D01*
X479009Y1044950D01*
X480579Y1044300D01*
X482277D01*
X483847Y1044950D01*
X484918Y1046021D01*
X663652D01*
X664723Y1044950D01*
X666293Y1044300D01*
X667991D01*
X669561Y1044950D01*
X670632Y1046021D01*
X849366D01*
X850437Y1044950D01*
X852007Y1044300D01*
X853705D01*
X855275Y1044950D01*
X856346Y1046021D01*
X1035080D01*
X1036151Y1044950D01*
X1037721Y1044300D01*
X1039419D01*
X1040989Y1044950D01*
X1042060Y1046021D01*
X1220794D01*
X1221865Y1044950D01*
X1223435Y1044300D01*
X1225133D01*
X1226703Y1044950D01*
X1227774Y1046021D01*
X1406508D01*
X1407579Y1044950D01*
X1409149Y1044300D01*
X1410847D01*
X1412417Y1044950D01*
X1413618Y1046151D01*
X1414268Y1047721D01*
Y1049419D01*
X1413618Y1050989D01*
X1412417Y1052190D01*
X1410847Y1052840D01*
D02*
G37*
G36*
X66849Y1024270D02*
X65151D01*
X63581Y1023620D01*
X62380Y1022419D01*
X61730Y1020849D01*
Y1019151D01*
X62380Y1017581D01*
X63581Y1016380D01*
X65151Y1015730D01*
X66849D01*
X68419Y1016380D01*
X69620Y1017581D01*
X70270Y1019151D01*
Y1020849D01*
X69620Y1022419D01*
X68419Y1023620D01*
X66849Y1024270D01*
D02*
G37*
G36*
X1410852Y1014321D02*
X1409154D01*
X1407584Y1013671D01*
X1406513Y1012600D01*
X1227779D01*
X1226708Y1013671D01*
X1225138Y1014321D01*
X1223440D01*
X1221870Y1013671D01*
X1220799Y1012600D01*
X1042065D01*
X1040994Y1013671D01*
X1039424Y1014321D01*
X1037726D01*
X1036156Y1013671D01*
X1035085Y1012600D01*
X856351D01*
X855280Y1013671D01*
X853710Y1014321D01*
X852012D01*
X850442Y1013671D01*
X849371Y1012600D01*
X670637D01*
X669566Y1013671D01*
X667996Y1014321D01*
X666298D01*
X664728Y1013671D01*
X663657Y1012600D01*
X484923D01*
X483852Y1013671D01*
X482282Y1014321D01*
X480584D01*
X479014Y1013671D01*
X477943Y1012600D01*
X299209D01*
X298138Y1013671D01*
X296568Y1014321D01*
X294870D01*
X293300Y1013671D01*
X292229Y1012600D01*
X113495D01*
X112424Y1013671D01*
X110854Y1014321D01*
X109156D01*
X107586Y1013671D01*
X106385Y1012470D01*
X106222Y1012074D01*
X83964D01*
X83419Y1012620D01*
X81849Y1013270D01*
X80151D01*
X78581Y1012620D01*
X77380Y1011419D01*
X76730Y1009849D01*
Y1008151D01*
X77380Y1006581D01*
X78581Y1005380D01*
X80151Y1004730D01*
X81849D01*
X83419Y1005380D01*
X84620Y1006581D01*
X84784Y1006976D01*
X107041D01*
X107586Y1006431D01*
X109156Y1005781D01*
X110854D01*
X112424Y1006431D01*
X113495Y1007502D01*
X292229D01*
X293300Y1006431D01*
X294870Y1005781D01*
X296568D01*
X298138Y1006431D01*
X299209Y1007502D01*
X477943D01*
X479014Y1006431D01*
X480584Y1005781D01*
X482282D01*
X483852Y1006431D01*
X484923Y1007502D01*
X663657D01*
X664728Y1006431D01*
X666298Y1005781D01*
X667996D01*
X669566Y1006431D01*
X670637Y1007502D01*
X849371D01*
X850442Y1006431D01*
X852012Y1005781D01*
X853710D01*
X855280Y1006431D01*
X856351Y1007502D01*
X1035085D01*
X1036156Y1006431D01*
X1037726Y1005781D01*
X1039424D01*
X1040994Y1006431D01*
X1042065Y1007502D01*
X1220799D01*
X1221870Y1006431D01*
X1223440Y1005781D01*
X1225138D01*
X1226708Y1006431D01*
X1227779Y1007502D01*
X1406513D01*
X1407584Y1006431D01*
X1409154Y1005781D01*
X1410852D01*
X1412422Y1006431D01*
X1413623Y1007632D01*
X1414273Y1009202D01*
Y1010900D01*
X1413623Y1012470D01*
X1412422Y1013671D01*
X1410852Y1014321D01*
D02*
G37*
G36*
X1491849Y974270D02*
X1490151D01*
X1488581Y973620D01*
X1487380Y972419D01*
X1486730Y970849D01*
Y969151D01*
X1487380Y967581D01*
X1488581Y966380D01*
X1490151Y965730D01*
X1491849D01*
X1493419Y966380D01*
X1494620Y967581D01*
X1495270Y969151D01*
Y970849D01*
X1494620Y972419D01*
X1493419Y973620D01*
X1491849Y974270D01*
D02*
G37*
G36*
X110849Y957270D02*
X109151D01*
X107581Y956620D01*
X106510Y955549D01*
X83717D01*
X82810Y956456D01*
X81241Y957106D01*
X79542D01*
X77973Y956456D01*
X76771Y955255D01*
X76121Y953686D01*
Y951987D01*
X76771Y950417D01*
X77973Y949216D01*
X79542Y948566D01*
X81241D01*
X82810Y949216D01*
X84011Y950417D01*
X84025Y950451D01*
X106510D01*
X107581Y949380D01*
X109151Y948730D01*
X110849D01*
X112419Y949380D01*
X113620Y950581D01*
X114270Y952151D01*
Y953849D01*
X113620Y955419D01*
X112419Y956620D01*
X110849Y957270D01*
D02*
G37*
G36*
X1466849Y924270D02*
X1465151D01*
X1463581Y923620D01*
X1462380Y922419D01*
X1461730Y920849D01*
Y919151D01*
X1462380Y917581D01*
X1463581Y916380D01*
X1465151Y915730D01*
X1466849D01*
X1468419Y916380D01*
X1469620Y917581D01*
X1470270Y919151D01*
Y920849D01*
X1469620Y922419D01*
X1468419Y923620D01*
X1466849Y924270D01*
D02*
G37*
G36*
X66849D02*
X65151D01*
X63581Y923620D01*
X62380Y922419D01*
X61730Y920849D01*
Y919151D01*
X62380Y917581D01*
X63581Y916380D01*
X65151Y915730D01*
X66849D01*
X68419Y916380D01*
X69620Y917581D01*
X70270Y919151D01*
Y920849D01*
X69620Y922419D01*
X68419Y923620D01*
X66849Y924270D01*
D02*
G37*
G36*
X1491849Y874270D02*
X1490151D01*
X1488581Y873620D01*
X1487380Y872419D01*
X1486730Y870849D01*
Y869151D01*
X1487380Y867581D01*
X1488581Y866380D01*
X1490151Y865730D01*
X1491849D01*
X1493419Y866380D01*
X1494620Y867581D01*
X1495270Y869151D01*
Y870849D01*
X1494620Y872419D01*
X1493419Y873620D01*
X1491849Y874270D01*
D02*
G37*
G36*
X1410847Y867126D02*
X1409149D01*
X1407579Y866476D01*
X1406508Y865405D01*
X1227774D01*
X1226703Y866476D01*
X1225133Y867126D01*
X1223435D01*
X1221865Y866476D01*
X1220794Y865405D01*
X1042060D01*
X1040989Y866476D01*
X1039419Y867126D01*
X1037721D01*
X1036151Y866476D01*
X1035080Y865405D01*
X856346D01*
X855275Y866476D01*
X853705Y867126D01*
X852007D01*
X850437Y866476D01*
X849366Y865405D01*
X670632D01*
X669561Y866476D01*
X667991Y867126D01*
X666293D01*
X664723Y866476D01*
X663652Y865405D01*
X484918D01*
X483847Y866476D01*
X482277Y867126D01*
X480579D01*
X479009Y866476D01*
X477938Y865405D01*
X299204D01*
X298133Y866476D01*
X296563Y867126D01*
X294865D01*
X293295Y866476D01*
X292224Y865405D01*
X113490D01*
X112419Y866476D01*
X110849Y867126D01*
X109151D01*
X107581Y866476D01*
X106380Y865275D01*
X106357Y865219D01*
X91447D01*
X90562Y866103D01*
X88993Y866753D01*
X87294D01*
X85725Y866103D01*
X84524Y864902D01*
X83874Y863333D01*
Y861634D01*
X84524Y860064D01*
X85725Y858863D01*
X87294Y858213D01*
X88993D01*
X90562Y858863D01*
X91764Y860064D01*
X91787Y860121D01*
X106697D01*
X107581Y859236D01*
X109151Y858586D01*
X110849D01*
X112419Y859236D01*
X113490Y860307D01*
X292224D01*
X293295Y859236D01*
X294865Y858586D01*
X296563D01*
X298133Y859236D01*
X299204Y860307D01*
X477938D01*
X479009Y859236D01*
X480579Y858586D01*
X482277D01*
X483847Y859236D01*
X484918Y860307D01*
X663652D01*
X664723Y859236D01*
X666293Y858586D01*
X667991D01*
X669561Y859236D01*
X670632Y860307D01*
X849366D01*
X850437Y859236D01*
X852007Y858586D01*
X853705D01*
X855275Y859236D01*
X856346Y860307D01*
X1035080D01*
X1036151Y859236D01*
X1037721Y858586D01*
X1039419D01*
X1040989Y859236D01*
X1042060Y860307D01*
X1220794D01*
X1221865Y859236D01*
X1223435Y858586D01*
X1225133D01*
X1226703Y859236D01*
X1227774Y860307D01*
X1406508D01*
X1407579Y859236D01*
X1409149Y858586D01*
X1410847D01*
X1412417Y859236D01*
X1413618Y860437D01*
X1414268Y862007D01*
Y863705D01*
X1413618Y865275D01*
X1412417Y866476D01*
X1410847Y867126D01*
D02*
G37*
G36*
X1410852Y828607D02*
X1409154D01*
X1407584Y827957D01*
X1406513Y826886D01*
X1227779D01*
X1226708Y827957D01*
X1225138Y828607D01*
X1223440D01*
X1221870Y827957D01*
X1220799Y826886D01*
X1042065D01*
X1040994Y827957D01*
X1039425Y828607D01*
X1037726D01*
X1036156Y827957D01*
X1035085Y826886D01*
X856351D01*
X855280Y827957D01*
X853710Y828607D01*
X852012D01*
X850442Y827957D01*
X849371Y826886D01*
X670637D01*
X669566Y827957D01*
X667997Y828607D01*
X666298D01*
X664728Y827957D01*
X663657Y826886D01*
X484923D01*
X483852Y827957D01*
X482282Y828607D01*
X480584D01*
X479014Y827957D01*
X477943Y826886D01*
X299209D01*
X298138Y827957D01*
X296569Y828607D01*
X294870D01*
X293300Y827957D01*
X292229Y826886D01*
X113495D01*
X112424Y827957D01*
X110855Y828607D01*
X109156D01*
X107586Y827957D01*
X106385Y826756D01*
X106363Y826703D01*
X83713D01*
X82825Y827591D01*
X81255Y828241D01*
X79556D01*
X77987Y827591D01*
X76786Y826390D01*
X76136Y824821D01*
Y823122D01*
X76786Y821553D01*
X77987Y820351D01*
X79556Y819701D01*
X81255D01*
X82825Y820351D01*
X84026Y821553D01*
X84047Y821605D01*
X106698D01*
X107586Y820717D01*
X109156Y820067D01*
X110855D01*
X112424Y820717D01*
X113495Y821788D01*
X292229D01*
X293300Y820717D01*
X294870Y820067D01*
X296569D01*
X298138Y820717D01*
X299209Y821788D01*
X477943D01*
X479014Y820717D01*
X480584Y820067D01*
X482282D01*
X483852Y820717D01*
X484923Y821788D01*
X663657D01*
X664728Y820717D01*
X666298Y820067D01*
X667997D01*
X669566Y820717D01*
X670637Y821788D01*
X737094D01*
X737620Y820518D01*
X733180Y816079D01*
X732736Y815414D01*
X732580Y814630D01*
Y812619D01*
X731380Y811419D01*
X730730Y809849D01*
Y808151D01*
X731380Y806581D01*
X732581Y805380D01*
X732951Y805227D01*
Y750122D01*
X728551Y745723D01*
X728107Y745058D01*
X727951Y744274D01*
Y691000D01*
X728107Y690216D01*
X728551Y689551D01*
X751295Y666806D01*
X751960Y666362D01*
X752744Y666206D01*
X759983D01*
X760767Y666362D01*
X761432Y666806D01*
X761909Y667284D01*
X762278Y667131D01*
X763977D01*
X765546Y667781D01*
X766748Y668982D01*
X767398Y670551D01*
Y672250D01*
X766748Y673819D01*
X765546Y675020D01*
X763977Y675670D01*
X762278D01*
X760709Y675020D01*
X759508Y673819D01*
X758858Y672250D01*
Y670551D01*
X758693Y670305D01*
X754749D01*
X754645Y670460D01*
X754701Y670806D01*
X755221Y671884D01*
X756419Y672380D01*
X757620Y673581D01*
X758270Y675151D01*
Y676849D01*
X757620Y678419D01*
X756419Y679620D01*
X754849Y680270D01*
X753151D01*
X752781Y680117D01*
X737049Y695849D01*
Y727116D01*
X738319Y727642D01*
X738581Y727380D01*
X740151Y726730D01*
X741849D01*
X743419Y727380D01*
X744620Y728581D01*
X745270Y730151D01*
Y731849D01*
X745117Y732219D01*
X747849Y734951D01*
X803227D01*
X803380Y734581D01*
X804581Y733380D01*
X806151Y732730D01*
X807849D01*
X809419Y733380D01*
X810620Y734581D01*
X811270Y736151D01*
Y737849D01*
X810620Y739419D01*
X809419Y740620D01*
X807849Y741270D01*
X806151D01*
X804581Y740620D01*
X803380Y739419D01*
X803227Y739049D01*
X747000D01*
X746216Y738893D01*
X745551Y738449D01*
X742219Y735117D01*
X741849Y735270D01*
X740151D01*
X738581Y734620D01*
X738319Y734358D01*
X737049Y734884D01*
Y741151D01*
X745449Y749551D01*
X745893Y750216D01*
X746049Y751000D01*
Y810227D01*
X746419Y810380D01*
X747620Y811581D01*
X747773Y811951D01*
X794730D01*
X799237Y807443D01*
X799067Y806929D01*
X798614Y806270D01*
X797151D01*
X795581Y805620D01*
X794380Y804419D01*
X793730Y802849D01*
Y801151D01*
X794380Y799581D01*
X795581Y798380D01*
X797151Y797730D01*
X798849D01*
X799219Y797883D01*
X821156Y775946D01*
Y721414D01*
X820786Y721261D01*
X819585Y720060D01*
X818935Y718490D01*
Y716791D01*
X819585Y715222D01*
X820786Y714021D01*
X822356Y713371D01*
X824054D01*
X825624Y714021D01*
X826825Y715222D01*
X827475Y716791D01*
Y718490D01*
X826825Y720060D01*
X825624Y721261D01*
X825254Y721414D01*
Y776795D01*
X825098Y777579D01*
X824654Y778244D01*
X802117Y800781D01*
X802270Y801151D01*
Y802614D01*
X802929Y803067D01*
X803443Y803237D01*
X851613Y755067D01*
X852278Y754622D01*
X853063Y754466D01*
X860432D01*
X860585Y754097D01*
X861786Y752896D01*
X863356Y752246D01*
X865054D01*
X866624Y752896D01*
X867825Y754097D01*
X868475Y755666D01*
Y757365D01*
X867825Y758934D01*
X866624Y760136D01*
X865471Y760613D01*
X865402Y761959D01*
X866419Y762380D01*
X867620Y763581D01*
X868270Y765151D01*
Y766849D01*
X867620Y768419D01*
X866419Y769620D01*
X864849Y770270D01*
X863151D01*
X861581Y769620D01*
X860380Y768419D01*
X860227Y768049D01*
X850580D01*
X798111Y820518D01*
X798637Y821788D01*
X846904D01*
Y813733D01*
X846535Y813580D01*
X845334Y812378D01*
X844684Y810809D01*
Y809110D01*
X845334Y807541D01*
X846535Y806340D01*
X848104Y805690D01*
X849803D01*
X851372Y806340D01*
X852574Y807541D01*
X853224Y809110D01*
Y810809D01*
X852574Y812378D01*
X851372Y813580D01*
X851003Y813733D01*
Y819393D01*
X852012Y820067D01*
X853710D01*
X855280Y820717D01*
X856351Y821788D01*
X1035085D01*
X1036156Y820717D01*
X1037726Y820067D01*
X1039425D01*
X1040994Y820717D01*
X1042065Y821788D01*
X1220799D01*
X1221870Y820717D01*
X1223440Y820067D01*
X1225138D01*
X1226708Y820717D01*
X1227779Y821788D01*
X1406513D01*
X1407584Y820717D01*
X1409154Y820067D01*
X1410852D01*
X1412422Y820717D01*
X1413623Y821918D01*
X1414273Y823488D01*
Y825186D01*
X1413623Y826756D01*
X1412422Y827957D01*
X1410852Y828607D01*
D02*
G37*
G36*
X1466849Y824270D02*
X1465151D01*
X1463581Y823620D01*
X1462380Y822419D01*
X1461730Y820849D01*
Y819151D01*
X1462380Y817581D01*
X1463581Y816380D01*
X1465151Y815730D01*
X1466849D01*
X1468419Y816380D01*
X1469620Y817581D01*
X1470270Y819151D01*
Y820849D01*
X1469620Y822419D01*
X1468419Y823620D01*
X1466849Y824270D01*
D02*
G37*
G36*
X66849D02*
X65151D01*
X63581Y823620D01*
X62380Y822419D01*
X61730Y820849D01*
Y819151D01*
X62380Y817581D01*
X63581Y816380D01*
X65151Y815730D01*
X66849D01*
X68419Y816380D01*
X69620Y817581D01*
X70270Y819151D01*
Y820849D01*
X69620Y822419D01*
X68419Y823620D01*
X66849Y824270D01*
D02*
G37*
G36*
X953403Y781650D02*
X950917D01*
X948620Y780698D01*
X946861Y778940D01*
X945910Y776643D01*
Y774157D01*
X946861Y771860D01*
X948620Y770101D01*
X950917Y769150D01*
X953403D01*
X955700Y770101D01*
X957458Y771860D01*
X958410Y774157D01*
Y776643D01*
X957458Y778940D01*
X955700Y780698D01*
X953403Y781650D01*
D02*
G37*
G36*
X933083D02*
X930597D01*
X928300Y780698D01*
X926542Y778940D01*
X925590Y776643D01*
Y774157D01*
X926542Y771860D01*
X928300Y770101D01*
X930597Y769150D01*
X933083D01*
X935380Y770101D01*
X937139Y771860D01*
X938090Y774157D01*
Y776643D01*
X937139Y778940D01*
X935380Y780698D01*
X933083Y781650D01*
D02*
G37*
G36*
X1491849Y774270D02*
X1490151D01*
X1488581Y773620D01*
X1487380Y772419D01*
X1486730Y770849D01*
Y769151D01*
X1487380Y767581D01*
X1488581Y766380D01*
X1490151Y765730D01*
X1491849D01*
X1493419Y766380D01*
X1494620Y767581D01*
X1495270Y769151D01*
Y770849D01*
X1494620Y772419D01*
X1493419Y773620D01*
X1491849Y774270D01*
D02*
G37*
G36*
X965849Y767270D02*
X964151D01*
X962581Y766620D01*
X961380Y765419D01*
X961227Y765049D01*
X909000D01*
X908216Y764893D01*
X907551Y764449D01*
X891719Y748617D01*
X891349Y748770D01*
X889651D01*
X888081Y748120D01*
X886880Y746919D01*
X886230Y745349D01*
Y743651D01*
X886383Y743281D01*
X882042Y738940D01*
X867978D01*
X867825Y739309D01*
X866624Y740511D01*
X865054Y741161D01*
X863356D01*
X861786Y740511D01*
X860585Y739309D01*
X859935Y737740D01*
Y736041D01*
X860585Y734472D01*
X861786Y733271D01*
X863356Y732621D01*
X864636D01*
X864890Y732241D01*
Y730543D01*
X864708Y730270D01*
X863356D01*
X861786Y729620D01*
X860585Y728419D01*
X859935Y726849D01*
Y725151D01*
X860585Y723581D01*
X861786Y722380D01*
X863356Y721730D01*
X865054D01*
X866624Y722380D01*
X867825Y723581D01*
X867978Y723951D01*
X881000D01*
X881219Y723994D01*
X881845Y722824D01*
X868138Y709117D01*
X867769Y709270D01*
X866070D01*
X864501Y708620D01*
X863299Y707419D01*
X862649Y705849D01*
Y704151D01*
X863299Y702581D01*
X864501Y701380D01*
X866070Y700730D01*
X867769D01*
X869338Y701380D01*
X870539Y702581D01*
X871189Y704151D01*
Y705849D01*
X871036Y706219D01*
X912768Y747951D01*
X915227D01*
X915380Y747581D01*
X916581Y746380D01*
X918151Y745730D01*
X919849D01*
X921419Y746380D01*
X922620Y747581D01*
X923270Y749151D01*
Y750849D01*
X922620Y752419D01*
X921419Y753620D01*
X920938Y753819D01*
X921191Y755089D01*
X962809D01*
X963062Y753819D01*
X962581Y753620D01*
X961380Y752419D01*
X961227Y752049D01*
X944000D01*
X943216Y751893D01*
X942551Y751449D01*
X888120Y697019D01*
X870773D01*
X870620Y697388D01*
X869419Y698589D01*
X867849Y699239D01*
X866151D01*
X864581Y698589D01*
X863380Y697388D01*
X862730Y695819D01*
Y694120D01*
X863380Y692551D01*
X864581Y691349D01*
X866151Y690699D01*
X867849D01*
X869419Y691349D01*
X870620Y692551D01*
X870773Y692920D01*
X888969D01*
X889754Y693076D01*
X890418Y693520D01*
X944849Y747951D01*
X961227D01*
X961380Y747581D01*
X962581Y746380D01*
X964151Y745730D01*
X965849D01*
X967419Y746380D01*
X968620Y747581D01*
X968888Y748230D01*
X970158Y747977D01*
Y745057D01*
X966219Y741117D01*
X965849Y741270D01*
X964151D01*
X962581Y740620D01*
X961380Y739419D01*
X960730Y737849D01*
Y736151D01*
X961380Y734581D01*
X962581Y733380D01*
X964151Y732730D01*
X965849D01*
X967419Y733380D01*
X968620Y734581D01*
X969270Y736151D01*
Y737849D01*
X969117Y738219D01*
X973657Y742759D01*
X974101Y743423D01*
X974257Y744208D01*
Y752430D01*
X974101Y753214D01*
X973657Y753879D01*
X968949Y758587D01*
X968633Y758798D01*
X968334Y759977D01*
X968352Y760313D01*
X968620Y760581D01*
X969270Y762151D01*
Y763849D01*
X968620Y765419D01*
X967419Y766620D01*
X965849Y767270D01*
D02*
G37*
G36*
X943243Y730850D02*
X940757D01*
X938460Y729899D01*
X936702Y728140D01*
X935750Y725843D01*
Y723357D01*
X936702Y721060D01*
X938460Y719302D01*
X940757Y718350D01*
X943243D01*
X945540Y719302D01*
X947299Y721060D01*
X948250Y723357D01*
Y725843D01*
X947299Y728140D01*
X945540Y729899D01*
X943243Y730850D01*
D02*
G37*
G36*
X1466849Y724270D02*
X1465151D01*
X1463581Y723620D01*
X1462380Y722419D01*
X1461730Y720849D01*
Y719151D01*
X1462380Y717581D01*
X1463581Y716380D01*
X1465151Y715730D01*
X1466849D01*
X1468419Y716380D01*
X1469620Y717581D01*
X1470270Y719151D01*
Y720849D01*
X1469620Y722419D01*
X1468419Y723620D01*
X1466849Y724270D01*
D02*
G37*
G36*
X116849D02*
X115151D01*
X113581Y723620D01*
X112380Y722419D01*
X111730Y720849D01*
Y719151D01*
X112380Y717581D01*
X113581Y716380D01*
X115151Y715730D01*
X116849D01*
X118419Y716380D01*
X119620Y717581D01*
X120270Y719151D01*
Y720849D01*
X119620Y722419D01*
X118419Y723620D01*
X116849Y724270D01*
D02*
G37*
G36*
X66849D02*
X65151D01*
X63581Y723620D01*
X62380Y722419D01*
X61730Y720849D01*
Y719151D01*
X62380Y717581D01*
X63581Y716380D01*
X65151Y715730D01*
X66849D01*
X68419Y716380D01*
X69620Y717581D01*
X70270Y719151D01*
Y720849D01*
X69620Y722419D01*
X68419Y723620D01*
X66849Y724270D01*
D02*
G37*
G36*
X101246Y735537D02*
X99547D01*
X97978Y734887D01*
X96777Y733685D01*
X96126Y732116D01*
Y730476D01*
X75621Y709971D01*
X74840Y710294D01*
X73142D01*
X71572Y709644D01*
X70371Y708443D01*
X69721Y706873D01*
Y705175D01*
X70371Y703605D01*
X71572Y702404D01*
X72007Y702224D01*
X72104Y702028D01*
X72209Y700766D01*
X71353Y699911D01*
X70703Y698341D01*
Y696643D01*
X71353Y695073D01*
X72554Y693872D01*
X74124Y693222D01*
X75823D01*
X76755Y693608D01*
X77474Y692531D01*
X75489Y690546D01*
X75119Y690699D01*
X73421D01*
X71851Y690049D01*
X70650Y688848D01*
X70000Y687279D01*
Y685580D01*
X70650Y684010D01*
X71851Y682809D01*
X73421Y682159D01*
X75119D01*
X76689Y682809D01*
X77890Y684010D01*
X78540Y685580D01*
Y687279D01*
X78387Y687648D01*
X98800Y708061D01*
X99170Y707908D01*
X100868D01*
X102438Y708558D01*
X103639Y709759D01*
X104289Y711329D01*
Y713027D01*
X103639Y714597D01*
X102438Y715798D01*
X101248Y716291D01*
X101246Y717176D01*
X101374Y717613D01*
X102815Y718210D01*
X104016Y719411D01*
X104666Y720981D01*
Y722680D01*
X104016Y724249D01*
X102815Y725450D01*
X101823Y725861D01*
Y727236D01*
X102815Y727647D01*
X104016Y728848D01*
X104666Y730417D01*
Y732116D01*
X104016Y733685D01*
X102815Y734887D01*
X101246Y735537D01*
D02*
G37*
G36*
X1410847Y681412D02*
X1409149D01*
X1407579Y680762D01*
X1406508Y679691D01*
X1227774D01*
X1226703Y680762D01*
X1225133Y681412D01*
X1223435D01*
X1221865Y680762D01*
X1220794Y679691D01*
X1042060D01*
X1040989Y680762D01*
X1039419Y681412D01*
X1037721D01*
X1036151Y680762D01*
X1035080Y679691D01*
X856346D01*
X855275Y680762D01*
X853705Y681412D01*
X852007D01*
X850437Y680762D01*
X849366Y679691D01*
X829000D01*
X828025Y679497D01*
X827198Y678944D01*
X811802Y663549D01*
X741198D01*
X725802Y678944D01*
X724976Y679497D01*
X724000Y679691D01*
X670632D01*
X669561Y680762D01*
X667991Y681412D01*
X666293D01*
X664723Y680762D01*
X663652Y679691D01*
X484918D01*
X483847Y680762D01*
X482277Y681412D01*
X480579D01*
X479009Y680762D01*
X477938Y679691D01*
X299204D01*
X298133Y680762D01*
X296563Y681412D01*
X294865D01*
X293295Y680762D01*
X292224Y679691D01*
X113490D01*
X112419Y680762D01*
X110849Y681412D01*
X109151D01*
X107581Y680762D01*
X106380Y679561D01*
X106357Y679506D01*
X91805D01*
X90918Y680392D01*
X89349Y681042D01*
X87650D01*
X86081Y680392D01*
X84880Y679191D01*
X84229Y677622D01*
Y675923D01*
X84880Y674354D01*
X86081Y673153D01*
X87650Y672503D01*
X89349D01*
X90918Y673153D01*
X92120Y674354D01*
X92142Y674408D01*
X106695D01*
X107581Y673522D01*
X109151Y672872D01*
X110849D01*
X112419Y673522D01*
X113490Y674593D01*
X292224D01*
X293295Y673522D01*
X294865Y672872D01*
X296563D01*
X298133Y673522D01*
X299204Y674593D01*
X477938D01*
X479009Y673522D01*
X480579Y672872D01*
X482277D01*
X483847Y673522D01*
X484918Y674593D01*
X663652D01*
X664723Y673522D01*
X666293Y672872D01*
X667991D01*
X669561Y673522D01*
X670632Y674593D01*
X722944D01*
X738340Y659198D01*
X739167Y658645D01*
X740142Y658451D01*
X812858D01*
X813833Y658645D01*
X814660Y659198D01*
X830056Y674593D01*
X849366D01*
X850437Y673522D01*
X852007Y672872D01*
X853705D01*
X855275Y673522D01*
X856346Y674593D01*
X1035080D01*
X1036151Y673522D01*
X1037721Y672872D01*
X1039419D01*
X1040989Y673522D01*
X1042060Y674593D01*
X1220794D01*
X1221865Y673522D01*
X1223435Y672872D01*
X1225133D01*
X1226703Y673522D01*
X1227774Y674593D01*
X1406508D01*
X1407579Y673522D01*
X1409149Y672872D01*
X1410847D01*
X1412417Y673522D01*
X1413618Y674723D01*
X1414268Y676293D01*
Y677991D01*
X1413618Y679561D01*
X1412417Y680762D01*
X1410847Y681412D01*
D02*
G37*
G36*
X1491849Y674270D02*
X1490151D01*
X1488581Y673620D01*
X1487380Y672419D01*
X1486730Y670849D01*
Y669151D01*
X1487380Y667581D01*
X1488581Y666380D01*
X1490151Y665730D01*
X1491849D01*
X1493419Y666380D01*
X1494620Y667581D01*
X1495270Y669151D01*
Y670849D01*
X1494620Y672419D01*
X1493419Y673620D01*
X1491849Y674270D01*
D02*
G37*
G36*
X81255Y643064D02*
X79556D01*
X77987Y642414D01*
X76786Y641213D01*
X76136Y639644D01*
Y637945D01*
X76786Y636376D01*
X77987Y635174D01*
X79556Y634524D01*
X81255D01*
X82825Y635174D01*
X83810Y636160D01*
X106430D01*
X107586Y635003D01*
X109156Y634353D01*
X110854D01*
X112424Y635003D01*
X113495Y636074D01*
X292229D01*
X293300Y635003D01*
X294870Y634353D01*
X296569D01*
X298138Y635003D01*
X299209Y636074D01*
X477943D01*
X479014Y635003D01*
X480584Y634353D01*
X482282D01*
X483852Y635003D01*
X484923Y636074D01*
X663657D01*
X664728Y635003D01*
X666298Y634353D01*
X667997D01*
X669566Y635003D01*
X670637Y636074D01*
X849371D01*
X850442Y635003D01*
X852012Y634353D01*
X853710D01*
X855280Y635003D01*
X856351Y636074D01*
X1035085D01*
X1036156Y635003D01*
X1037726Y634353D01*
X1039425D01*
X1040994Y635003D01*
X1042065Y636074D01*
X1220799D01*
X1221870Y635003D01*
X1223440Y634353D01*
X1225138D01*
X1226708Y635003D01*
X1227779Y636074D01*
X1406513D01*
X1407584Y635003D01*
X1409154Y634353D01*
X1410852D01*
X1412422Y635003D01*
X1413623Y636204D01*
X1414273Y637774D01*
Y639472D01*
X1413623Y641042D01*
X1412422Y642243D01*
X1410852Y642893D01*
X1409154D01*
X1407584Y642243D01*
X1406513Y641172D01*
X1227779D01*
X1226708Y642243D01*
X1225138Y642893D01*
X1223440D01*
X1221870Y642243D01*
X1220799Y641172D01*
X1042065D01*
X1040994Y642243D01*
X1039425Y642893D01*
X1037726D01*
X1036156Y642243D01*
X1035085Y641172D01*
X856351D01*
X855280Y642243D01*
X853710Y642893D01*
X852012D01*
X850442Y642243D01*
X849371Y641172D01*
X670637D01*
X669566Y642243D01*
X667997Y642893D01*
X666298D01*
X664728Y642243D01*
X663657Y641172D01*
X484923D01*
X483852Y642243D01*
X482282Y642893D01*
X480584D01*
X479014Y642243D01*
X477943Y641172D01*
X299209D01*
X298138Y642243D01*
X296569Y642893D01*
X294870D01*
X293300Y642243D01*
X292229Y641172D01*
X113495D01*
X112424Y642243D01*
X110854Y642893D01*
X109156D01*
X107586Y642243D01*
X106601Y641258D01*
X83981D01*
X82825Y642414D01*
X81255Y643064D01*
D02*
G37*
G36*
X59539Y624800D02*
X57840D01*
X56271Y624150D01*
X55070Y622949D01*
X54420Y621380D01*
Y619681D01*
X55070Y618112D01*
X56271Y616910D01*
X57840Y616260D01*
X59539D01*
X61108Y616910D01*
X62309Y618112D01*
X62960Y619681D01*
Y621380D01*
X62309Y622949D01*
X61108Y624150D01*
X59539Y624800D01*
D02*
G37*
G36*
X116849Y624270D02*
X115151D01*
X113581Y623620D01*
X112380Y622419D01*
X111730Y620849D01*
Y619151D01*
X112380Y617581D01*
X113581Y616380D01*
X115151Y615730D01*
X116849D01*
X118419Y616380D01*
X119620Y617581D01*
X120270Y619151D01*
Y620849D01*
X119620Y622419D01*
X118419Y623620D01*
X116849Y624270D01*
D02*
G37*
G36*
X81344Y588276D02*
X79645D01*
X78076Y587626D01*
X76875Y586425D01*
X76225Y584855D01*
Y583157D01*
X76875Y581587D01*
X78076Y580386D01*
X79645Y579736D01*
X81344D01*
X82914Y580386D01*
X83981Y581454D01*
X104507D01*
X105581Y580380D01*
X107151Y579730D01*
X108849D01*
X110419Y580380D01*
X111620Y581581D01*
X112270Y583151D01*
Y584849D01*
X111620Y586419D01*
X110419Y587620D01*
X108849Y588270D01*
X107151D01*
X105581Y587620D01*
X104513Y586552D01*
X83988D01*
X82914Y587626D01*
X81344Y588276D01*
D02*
G37*
G36*
X1491849Y574270D02*
X1490151D01*
X1488581Y573620D01*
X1487380Y572419D01*
X1486730Y570849D01*
Y569151D01*
X1487380Y567581D01*
X1488581Y566380D01*
X1490151Y565730D01*
X1491849D01*
X1493419Y566380D01*
X1494620Y567581D01*
X1495270Y569151D01*
Y570849D01*
X1494620Y572419D01*
X1493419Y573620D01*
X1491849Y574270D01*
D02*
G37*
G36*
X59539Y524800D02*
X57840D01*
X56271Y524150D01*
X55070Y522949D01*
X54420Y521380D01*
Y519681D01*
X55070Y518112D01*
X56271Y516910D01*
X57840Y516260D01*
X59539D01*
X61108Y516910D01*
X62309Y518112D01*
X62960Y519681D01*
Y521380D01*
X62309Y522949D01*
X61108Y524150D01*
X59539Y524800D01*
D02*
G37*
G36*
X116849Y524270D02*
X115151D01*
X113581Y523620D01*
X112380Y522419D01*
X111730Y520849D01*
Y519151D01*
X112380Y517581D01*
X113581Y516380D01*
X115151Y515730D01*
X116849D01*
X118419Y516380D01*
X119620Y517581D01*
X120270Y519151D01*
Y520849D01*
X119620Y522419D01*
X118419Y523620D01*
X116849Y524270D01*
D02*
G37*
G36*
X1410847Y495698D02*
X1409149D01*
X1407579Y495048D01*
X1406508Y493977D01*
X1227774D01*
X1226703Y495048D01*
X1225133Y495698D01*
X1223435D01*
X1221865Y495048D01*
X1220794Y493977D01*
X1042060D01*
X1040989Y495048D01*
X1039419Y495698D01*
X1037721D01*
X1036151Y495048D01*
X1035080Y493977D01*
X856346D01*
X855275Y495048D01*
X853705Y495698D01*
X852007D01*
X850437Y495048D01*
X849366Y493977D01*
X670632D01*
X669561Y495048D01*
X667991Y495698D01*
X666293D01*
X664723Y495048D01*
X663652Y493977D01*
X484918D01*
X483847Y495048D01*
X482277Y495698D01*
X480579D01*
X479009Y495048D01*
X477938Y493977D01*
X299204D01*
X298133Y495048D01*
X296563Y495698D01*
X294865D01*
X293295Y495048D01*
X292224Y493977D01*
X113490D01*
X112419Y495048D01*
X110849Y495698D01*
X109151D01*
X107581Y495048D01*
X106380Y493847D01*
X106321Y493705D01*
X91361D01*
X90562Y494504D01*
X88993Y495154D01*
X87294D01*
X85725Y494504D01*
X84524Y493303D01*
X83874Y491733D01*
Y490034D01*
X84524Y488465D01*
X85725Y487264D01*
X87294Y486614D01*
X88993D01*
X90562Y487264D01*
X91764Y488465D01*
X91822Y488607D01*
X106782D01*
X107581Y487808D01*
X109151Y487158D01*
X110849D01*
X112419Y487808D01*
X113490Y488879D01*
X292224D01*
X293295Y487808D01*
X294865Y487158D01*
X296563D01*
X298133Y487808D01*
X299204Y488879D01*
X477938D01*
X479009Y487808D01*
X480579Y487158D01*
X482277D01*
X483847Y487808D01*
X484918Y488879D01*
X663652D01*
X664723Y487808D01*
X666293Y487158D01*
X667991D01*
X669561Y487808D01*
X670632Y488879D01*
X849366D01*
X850437Y487808D01*
X852007Y487158D01*
X853705D01*
X855275Y487808D01*
X856346Y488879D01*
X1035080D01*
X1036151Y487808D01*
X1037721Y487158D01*
X1039419D01*
X1040989Y487808D01*
X1042060Y488879D01*
X1220794D01*
X1221865Y487808D01*
X1223435Y487158D01*
X1225133D01*
X1226703Y487808D01*
X1227774Y488879D01*
X1406508D01*
X1407579Y487808D01*
X1409149Y487158D01*
X1410847D01*
X1412417Y487808D01*
X1413618Y489009D01*
X1414268Y490579D01*
Y492277D01*
X1413618Y493847D01*
X1412417Y495048D01*
X1410847Y495698D01*
D02*
G37*
G36*
X1491849Y474270D02*
X1490151D01*
X1488581Y473620D01*
X1487380Y472419D01*
X1486730Y470849D01*
Y469151D01*
X1487380Y467581D01*
X1488581Y466380D01*
X1490151Y465730D01*
X1491849D01*
X1493419Y466380D01*
X1494620Y467581D01*
X1495270Y469151D01*
Y470849D01*
X1494620Y472419D01*
X1493419Y473620D01*
X1491849Y474270D01*
D02*
G37*
G36*
X81522Y457532D02*
X79823D01*
X78254Y456881D01*
X77053Y455680D01*
X76403Y454111D01*
Y452412D01*
X77053Y450843D01*
X78254Y449642D01*
X79823Y448992D01*
X81522D01*
X83091Y449642D01*
X83986Y450536D01*
X106366D01*
X106385Y450490D01*
X107586Y449289D01*
X109156Y448639D01*
X110854D01*
X112424Y449289D01*
X113495Y450360D01*
X292229D01*
X293300Y449289D01*
X294870Y448639D01*
X296568D01*
X298138Y449289D01*
X299209Y450360D01*
X477943D01*
X479014Y449289D01*
X480584Y448639D01*
X482282D01*
X483852Y449289D01*
X484923Y450360D01*
X663657D01*
X664728Y449289D01*
X666298Y448639D01*
X667996D01*
X669566Y449289D01*
X670637Y450360D01*
X849371D01*
X850442Y449289D01*
X852012Y448639D01*
X853710D01*
X855280Y449289D01*
X856351Y450360D01*
X1035085D01*
X1036156Y449289D01*
X1037726Y448639D01*
X1039424D01*
X1040994Y449289D01*
X1042065Y450360D01*
X1220799D01*
X1221870Y449289D01*
X1223440Y448639D01*
X1225138D01*
X1226708Y449289D01*
X1227779Y450360D01*
X1406513D01*
X1407584Y449289D01*
X1409154Y448639D01*
X1410852D01*
X1412422Y449289D01*
X1413623Y450490D01*
X1414273Y452060D01*
Y453758D01*
X1413623Y455328D01*
X1412422Y456529D01*
X1410852Y457179D01*
X1409154D01*
X1407584Y456529D01*
X1406513Y455458D01*
X1227779D01*
X1226708Y456529D01*
X1225138Y457179D01*
X1223440D01*
X1221870Y456529D01*
X1220799Y455458D01*
X1042065D01*
X1040994Y456529D01*
X1039424Y457179D01*
X1037726D01*
X1036156Y456529D01*
X1035085Y455458D01*
X856351D01*
X855280Y456529D01*
X853710Y457179D01*
X852012D01*
X850442Y456529D01*
X849371Y455458D01*
X670637D01*
X669566Y456529D01*
X667996Y457179D01*
X666298D01*
X664728Y456529D01*
X663657Y455458D01*
X484923D01*
X483852Y456529D01*
X482282Y457179D01*
X480584D01*
X479014Y456529D01*
X477943Y455458D01*
X299209D01*
X298138Y456529D01*
X296568Y457179D01*
X294870D01*
X293300Y456529D01*
X292229Y455458D01*
X113495D01*
X112424Y456529D01*
X110854Y457179D01*
X109156D01*
X107586Y456529D01*
X106692Y455634D01*
X84312D01*
X84293Y455680D01*
X83091Y456881D01*
X81522Y457532D01*
D02*
G37*
G36*
X59539Y424800D02*
X57840D01*
X56271Y424150D01*
X55070Y422949D01*
X54420Y421380D01*
Y419681D01*
X55070Y418112D01*
X56271Y416910D01*
X57840Y416260D01*
X59539D01*
X61108Y416910D01*
X62309Y418112D01*
X62960Y419681D01*
Y421380D01*
X62309Y422949D01*
X61108Y424150D01*
X59539Y424800D01*
D02*
G37*
G36*
X1466849Y424270D02*
X1465151D01*
X1463581Y423620D01*
X1462380Y422419D01*
X1461730Y420849D01*
Y419151D01*
X1462380Y417581D01*
X1463581Y416380D01*
X1465151Y415730D01*
X1466849D01*
X1468419Y416380D01*
X1469620Y417581D01*
X1470270Y419151D01*
Y420849D01*
X1469620Y422419D01*
X1468419Y423620D01*
X1466849Y424270D01*
D02*
G37*
G36*
X116849D02*
X115151D01*
X113581Y423620D01*
X112380Y422419D01*
X111730Y420849D01*
Y419151D01*
X112380Y417581D01*
X113581Y416380D01*
X115151Y415730D01*
X116849D01*
X118419Y416380D01*
X119620Y417581D01*
X120270Y419151D01*
Y420849D01*
X119620Y422419D01*
X118419Y423620D01*
X116849Y424270D01*
D02*
G37*
G36*
X59539Y324800D02*
X57840D01*
X56271Y324150D01*
X55070Y322949D01*
X54420Y321380D01*
Y319681D01*
X55070Y318112D01*
X56271Y316910D01*
X57840Y316260D01*
X59539D01*
X61108Y316910D01*
X62309Y318112D01*
X62960Y319681D01*
Y321380D01*
X62309Y322949D01*
X61108Y324150D01*
X59539Y324800D01*
D02*
G37*
G36*
X1466849Y324270D02*
X1465151D01*
X1463581Y323620D01*
X1462380Y322419D01*
X1461730Y320849D01*
Y319151D01*
X1462380Y317581D01*
X1463581Y316380D01*
X1465151Y315730D01*
X1466849D01*
X1468419Y316380D01*
X1469620Y317581D01*
X1470270Y319151D01*
Y320849D01*
X1469620Y322419D01*
X1468419Y323620D01*
X1466849Y324270D01*
D02*
G37*
G36*
X116849D02*
X115151D01*
X113581Y323620D01*
X112380Y322419D01*
X111730Y320849D01*
Y319151D01*
X112380Y317581D01*
X113581Y316380D01*
X115151Y315730D01*
X116849D01*
X118419Y316380D01*
X119620Y317581D01*
X120270Y319151D01*
Y320849D01*
X119620Y322419D01*
X118419Y323620D01*
X116849Y324270D01*
D02*
G37*
G36*
X1410847Y309984D02*
X1409149D01*
X1407579Y309334D01*
X1406508Y308263D01*
X1227774D01*
X1226703Y309334D01*
X1225133Y309984D01*
X1223435D01*
X1221865Y309334D01*
X1220794Y308263D01*
X1042060D01*
X1040989Y309334D01*
X1039419Y309984D01*
X1037721D01*
X1036151Y309334D01*
X1035080Y308263D01*
X856346D01*
X855275Y309334D01*
X853705Y309984D01*
X852007D01*
X850437Y309334D01*
X849366Y308263D01*
X670632D01*
X669561Y309334D01*
X667991Y309984D01*
X666293D01*
X664723Y309334D01*
X663652Y308263D01*
X484918D01*
X483847Y309334D01*
X482277Y309984D01*
X480579D01*
X479009Y309334D01*
X477938Y308263D01*
X299204D01*
X298133Y309334D01*
X296563Y309984D01*
X294865D01*
X293295Y309334D01*
X292224Y308263D01*
X113490D01*
X112419Y309334D01*
X110849Y309984D01*
X109151D01*
X107581Y309334D01*
X106380Y308133D01*
X106286Y307906D01*
X91133D01*
X90419Y308620D01*
X88849Y309270D01*
X87151D01*
X85581Y308620D01*
X84380Y307419D01*
X83730Y305849D01*
Y304151D01*
X84380Y302581D01*
X85581Y301380D01*
X87151Y300730D01*
X88849D01*
X90419Y301380D01*
X91620Y302581D01*
X91714Y302808D01*
X106867D01*
X107581Y302094D01*
X109151Y301444D01*
X110849D01*
X112419Y302094D01*
X113490Y303165D01*
X292224D01*
X293295Y302094D01*
X294865Y301444D01*
X296563D01*
X298133Y302094D01*
X299204Y303165D01*
X477938D01*
X479009Y302094D01*
X480579Y301444D01*
X482277D01*
X483847Y302094D01*
X484918Y303165D01*
X663652D01*
X664723Y302094D01*
X666293Y301444D01*
X667991D01*
X669561Y302094D01*
X670632Y303165D01*
X849366D01*
X850437Y302094D01*
X852007Y301444D01*
X853705D01*
X855275Y302094D01*
X856346Y303165D01*
X1035080D01*
X1036151Y302094D01*
X1037721Y301444D01*
X1039419D01*
X1040989Y302094D01*
X1042060Y303165D01*
X1220794D01*
X1221865Y302094D01*
X1223435Y301444D01*
X1225133D01*
X1226703Y302094D01*
X1227774Y303165D01*
X1406508D01*
X1407579Y302094D01*
X1409149Y301444D01*
X1410847D01*
X1412417Y302094D01*
X1413618Y303295D01*
X1414268Y304865D01*
Y306563D01*
X1413618Y308133D01*
X1412417Y309334D01*
X1410847Y309984D01*
D02*
G37*
G36*
X75849Y283270D02*
X74151D01*
X72581Y282620D01*
X71380Y281419D01*
X70730Y279849D01*
Y278151D01*
X71380Y276581D01*
X72581Y275380D01*
X74151Y274730D01*
X75665D01*
X85003Y265393D01*
X85830Y264840D01*
X86805Y264646D01*
X106515D01*
X107399Y263762D01*
Y226934D01*
X106271Y225806D01*
X105621Y224237D01*
Y222722D01*
X97940Y215040D01*
X96670Y215566D01*
Y215715D01*
X96019Y217284D01*
X94818Y218486D01*
X93249Y219136D01*
X91550D01*
X89981Y218486D01*
X88780Y217284D01*
X88130Y215715D01*
Y214016D01*
X88780Y212447D01*
X89981Y211246D01*
X91550Y210596D01*
X92375D01*
X93436Y209512D01*
X93451Y209422D01*
Y95486D01*
X93645Y94511D01*
X94198Y93684D01*
X105735Y82146D01*
Y80632D01*
X106385Y79062D01*
X107586Y77861D01*
X109156Y77211D01*
X110854D01*
X112424Y77861D01*
X113495Y78932D01*
X292229D01*
X293300Y77861D01*
X294870Y77211D01*
X296568D01*
X298138Y77861D01*
X299209Y78932D01*
X477943D01*
X479014Y77861D01*
X480584Y77211D01*
X482282D01*
X483852Y77861D01*
X484923Y78932D01*
X663657D01*
X664728Y77861D01*
X666298Y77211D01*
X667996D01*
X669566Y77861D01*
X670637Y78932D01*
X849371D01*
X850442Y77861D01*
X852012Y77211D01*
X853710D01*
X855280Y77861D01*
X856351Y78932D01*
X1035085D01*
X1036156Y77861D01*
X1037726Y77211D01*
X1039424D01*
X1040994Y77861D01*
X1042065Y78932D01*
X1220799D01*
X1221870Y77861D01*
X1223440Y77211D01*
X1225138D01*
X1226708Y77861D01*
X1227779Y78932D01*
X1406513D01*
X1407584Y77861D01*
X1409154Y77211D01*
X1410852D01*
X1412422Y77861D01*
X1413623Y79062D01*
X1414273Y80632D01*
Y82330D01*
X1413623Y83900D01*
X1412422Y85101D01*
X1410852Y85751D01*
X1409154D01*
X1407584Y85101D01*
X1406513Y84030D01*
X1227779D01*
X1226708Y85101D01*
X1225138Y85751D01*
X1223440D01*
X1221870Y85101D01*
X1220799Y84030D01*
X1042065D01*
X1040994Y85101D01*
X1039424Y85751D01*
X1037726D01*
X1036156Y85101D01*
X1035085Y84030D01*
X856351D01*
X855280Y85101D01*
X853710Y85751D01*
X852012D01*
X850442Y85101D01*
X849371Y84030D01*
X670637D01*
X669566Y85101D01*
X667996Y85751D01*
X666298D01*
X664728Y85101D01*
X663657Y84030D01*
X484923D01*
X483852Y85101D01*
X482282Y85751D01*
X480584D01*
X479014Y85101D01*
X477943Y84030D01*
X299209D01*
X298138Y85101D01*
X296568Y85751D01*
X294870D01*
X293300Y85101D01*
X292229Y84030D01*
X113495D01*
X112424Y85101D01*
X110854Y85751D01*
X109340D01*
X98549Y96542D01*
Y208440D01*
X109226Y219117D01*
X110741D01*
X112310Y219767D01*
X113511Y220969D01*
X114161Y222538D01*
Y224237D01*
X113511Y225806D01*
X112497Y226820D01*
Y263648D01*
X113495Y264646D01*
X292229D01*
X293300Y263575D01*
X294870Y262925D01*
X296568D01*
X298138Y263575D01*
X299209Y264646D01*
X477943D01*
X479014Y263575D01*
X480584Y262925D01*
X482282D01*
X483852Y263575D01*
X484923Y264646D01*
X663657D01*
X664728Y263575D01*
X666298Y262925D01*
X667996D01*
X669566Y263575D01*
X670637Y264646D01*
X849371D01*
X850442Y263575D01*
X852012Y262925D01*
X853710D01*
X855280Y263575D01*
X856351Y264646D01*
X1035085D01*
X1036156Y263575D01*
X1037726Y262925D01*
X1039424D01*
X1040994Y263575D01*
X1042065Y264646D01*
X1220799D01*
X1221870Y263575D01*
X1223440Y262925D01*
X1225138D01*
X1226708Y263575D01*
X1227779Y264646D01*
X1406513D01*
X1407584Y263575D01*
X1409154Y262925D01*
X1410852D01*
X1412422Y263575D01*
X1413623Y264776D01*
X1414273Y266346D01*
Y268044D01*
X1413623Y269614D01*
X1412422Y270815D01*
X1410852Y271465D01*
X1409154D01*
X1407584Y270815D01*
X1406513Y269744D01*
X1227779D01*
X1226708Y270815D01*
X1225138Y271465D01*
X1223440D01*
X1221870Y270815D01*
X1220799Y269744D01*
X1042065D01*
X1040994Y270815D01*
X1039424Y271465D01*
X1037726D01*
X1036156Y270815D01*
X1035085Y269744D01*
X856351D01*
X855280Y270815D01*
X853710Y271465D01*
X852012D01*
X850442Y270815D01*
X849371Y269744D01*
X670637D01*
X669566Y270815D01*
X667996Y271465D01*
X666298D01*
X664728Y270815D01*
X663657Y269744D01*
X484923D01*
X483852Y270815D01*
X482282Y271465D01*
X480584D01*
X479014Y270815D01*
X477943Y269744D01*
X299209D01*
X298138Y270815D01*
X296568Y271465D01*
X294870D01*
X293300Y270815D01*
X292229Y269744D01*
X113495D01*
X112424Y270815D01*
X110854Y271465D01*
X109156D01*
X107586Y270815D01*
X106515Y269744D01*
X87861D01*
X79270Y278335D01*
Y279849D01*
X78620Y281419D01*
X77419Y282620D01*
X75849Y283270D01*
D02*
G37*
G36*
X77106Y267689D02*
X75407D01*
X73838Y267038D01*
X72636Y265837D01*
X71986Y264268D01*
Y262569D01*
X72636Y261000D01*
X73838Y259799D01*
X75407Y259149D01*
X77106D01*
X78675Y259799D01*
X79876Y261000D01*
X80526Y262569D01*
Y264268D01*
X79876Y265837D01*
X78675Y267038D01*
X77106Y267689D01*
D02*
G37*
G36*
X49602Y223596D02*
X47904D01*
X46334Y222946D01*
X45133Y221745D01*
X44483Y220176D01*
Y218477D01*
X45133Y216908D01*
X46334Y215707D01*
X47904Y215056D01*
X48425D01*
X49598Y214714D01*
Y213016D01*
X50248Y211446D01*
X51449Y210245D01*
X53019Y209595D01*
X54717D01*
X56287Y210245D01*
X57488Y211446D01*
X58138Y213016D01*
Y214714D01*
X57488Y216284D01*
X56287Y217485D01*
X54717Y218135D01*
X54196D01*
X53023Y218477D01*
Y220176D01*
X52373Y221745D01*
X51172Y222946D01*
X49602Y223596D01*
D02*
G37*
G36*
X52634Y204270D02*
X50935D01*
X49366Y203620D01*
X48165Y202419D01*
X47515Y200849D01*
Y199151D01*
X48165Y197581D01*
X49366Y196380D01*
X50935Y195730D01*
X52634D01*
X54203Y196380D01*
X55404Y197581D01*
X56054Y199151D01*
Y200849D01*
X55404Y202419D01*
X54203Y203620D01*
X52634Y204270D01*
D02*
G37*
G36*
X1491849Y174270D02*
X1490151D01*
X1488581Y173620D01*
X1487380Y172419D01*
X1486730Y170849D01*
Y169151D01*
X1487380Y167581D01*
X1488581Y166380D01*
X1490151Y165730D01*
X1491849D01*
X1493419Y166380D01*
X1494620Y167581D01*
X1495270Y169151D01*
Y170849D01*
X1494620Y172419D01*
X1493419Y173620D01*
X1491849Y174270D01*
D02*
G37*
G36*
X1410847Y124270D02*
X1409149D01*
X1407579Y123620D01*
X1406508Y122549D01*
X1227774D01*
X1226703Y123620D01*
X1225133Y124270D01*
X1223435D01*
X1221865Y123620D01*
X1220794Y122549D01*
X1042060D01*
X1040989Y123620D01*
X1039419Y124270D01*
X1037721D01*
X1036151Y123620D01*
X1035080Y122549D01*
X856346D01*
X855275Y123620D01*
X853705Y124270D01*
X852007D01*
X850437Y123620D01*
X849366Y122549D01*
X670632D01*
X669561Y123620D01*
X667991Y124270D01*
X666293D01*
X664723Y123620D01*
X663652Y122549D01*
X484918D01*
X483847Y123620D01*
X482277Y124270D01*
X480579D01*
X479009Y123620D01*
X477938Y122549D01*
X299204D01*
X298133Y123620D01*
X296563Y124270D01*
X294865D01*
X293295Y123620D01*
X292224Y122549D01*
X113490D01*
X112419Y123620D01*
X110849Y124270D01*
X109151D01*
X107581Y123620D01*
X106380Y122419D01*
X105730Y120849D01*
Y119151D01*
X106380Y117581D01*
X107581Y116380D01*
X109151Y115730D01*
X110849D01*
X112419Y116380D01*
X113490Y117451D01*
X292224D01*
X293295Y116380D01*
X294865Y115730D01*
X296563D01*
X298133Y116380D01*
X299204Y117451D01*
X477938D01*
X479009Y116380D01*
X480579Y115730D01*
X482277D01*
X483847Y116380D01*
X484918Y117451D01*
X663652D01*
X664723Y116380D01*
X666293Y115730D01*
X667991D01*
X669561Y116380D01*
X670632Y117451D01*
X849366D01*
X850437Y116380D01*
X852007Y115730D01*
X853705D01*
X855275Y116380D01*
X856346Y117451D01*
X1035080D01*
X1036151Y116380D01*
X1037721Y115730D01*
X1039419D01*
X1040989Y116380D01*
X1042060Y117451D01*
X1220794D01*
X1221865Y116380D01*
X1223435Y115730D01*
X1225133D01*
X1226703Y116380D01*
X1227774Y117451D01*
X1406508D01*
X1407579Y116380D01*
X1409149Y115730D01*
X1410847D01*
X1412417Y116380D01*
X1413618Y117581D01*
X1414268Y119151D01*
Y120849D01*
X1413618Y122419D01*
X1412417Y123620D01*
X1410847Y124270D01*
D02*
G37*
G36*
X66849D02*
X65151D01*
X63581Y123620D01*
X62380Y122419D01*
X61730Y120849D01*
Y119151D01*
X62380Y117581D01*
X63581Y116380D01*
X65151Y115730D01*
X66849D01*
X68419Y116380D01*
X69620Y117581D01*
X70270Y119151D01*
Y120849D01*
X69620Y122419D01*
X68419Y123620D01*
X66849Y124270D01*
D02*
G37*
G36*
X59849Y88270D02*
X58151D01*
X56581Y87620D01*
X55380Y86419D01*
X54730Y84849D01*
Y83151D01*
X55380Y81581D01*
X56581Y80380D01*
X58151Y79730D01*
X59849D01*
X61419Y80380D01*
X62620Y81581D01*
X63270Y83151D01*
Y84849D01*
X62620Y86419D01*
X61419Y87620D01*
X59849Y88270D01*
D02*
G37*
G36*
X1491849Y74270D02*
X1490151D01*
X1488581Y73620D01*
X1487380Y72419D01*
X1486730Y70849D01*
Y69151D01*
X1487380Y67581D01*
X1488581Y66380D01*
X1490151Y65730D01*
X1491849D01*
X1493419Y66380D01*
X1494620Y67581D01*
X1495270Y69151D01*
Y70849D01*
X1494620Y72419D01*
X1493419Y73620D01*
X1491849Y74270D01*
D02*
G37*
G36*
X1391849D02*
X1390151D01*
X1388581Y73620D01*
X1387380Y72419D01*
X1386730Y70849D01*
Y69151D01*
X1387380Y67581D01*
X1388581Y66380D01*
X1390151Y65730D01*
X1391849D01*
X1393419Y66380D01*
X1394620Y67581D01*
X1395270Y69151D01*
Y70849D01*
X1394620Y72419D01*
X1393419Y73620D01*
X1391849Y74270D01*
D02*
G37*
G36*
X1341849D02*
X1340151D01*
X1338581Y73620D01*
X1337380Y72419D01*
X1336730Y70849D01*
Y69151D01*
X1337380Y67581D01*
X1338581Y66380D01*
X1340151Y65730D01*
X1341849D01*
X1343419Y66380D01*
X1344620Y67581D01*
X1345270Y69151D01*
Y70849D01*
X1344620Y72419D01*
X1343419Y73620D01*
X1341849Y74270D01*
D02*
G37*
G36*
X1291849D02*
X1290151D01*
X1288581Y73620D01*
X1287380Y72419D01*
X1286730Y70849D01*
Y69151D01*
X1287380Y67581D01*
X1288581Y66380D01*
X1290151Y65730D01*
X1291849D01*
X1293419Y66380D01*
X1294620Y67581D01*
X1295270Y69151D01*
Y70849D01*
X1294620Y72419D01*
X1293419Y73620D01*
X1291849Y74270D01*
D02*
G37*
G36*
X1191849D02*
X1190151D01*
X1188581Y73620D01*
X1187380Y72419D01*
X1186730Y70849D01*
Y69151D01*
X1187380Y67581D01*
X1188581Y66380D01*
X1190151Y65730D01*
X1191849D01*
X1193419Y66380D01*
X1194620Y67581D01*
X1195270Y69151D01*
Y70849D01*
X1194620Y72419D01*
X1193419Y73620D01*
X1191849Y74270D01*
D02*
G37*
G36*
X1141849D02*
X1140151D01*
X1138581Y73620D01*
X1137380Y72419D01*
X1136730Y70849D01*
Y69151D01*
X1137380Y67581D01*
X1138581Y66380D01*
X1140151Y65730D01*
X1141849D01*
X1143419Y66380D01*
X1144620Y67581D01*
X1145270Y69151D01*
Y70849D01*
X1144620Y72419D01*
X1143419Y73620D01*
X1141849Y74270D01*
D02*
G37*
G36*
X1091849D02*
X1090151D01*
X1088581Y73620D01*
X1087380Y72419D01*
X1086730Y70849D01*
Y69151D01*
X1087380Y67581D01*
X1088581Y66380D01*
X1090151Y65730D01*
X1091849D01*
X1093419Y66380D01*
X1094620Y67581D01*
X1095270Y69151D01*
Y70849D01*
X1094620Y72419D01*
X1093419Y73620D01*
X1091849Y74270D01*
D02*
G37*
G36*
X991849D02*
X990151D01*
X988581Y73620D01*
X987380Y72419D01*
X986730Y70849D01*
Y69151D01*
X987380Y67581D01*
X988581Y66380D01*
X990151Y65730D01*
X991849D01*
X993419Y66380D01*
X994620Y67581D01*
X995270Y69151D01*
Y70849D01*
X994620Y72419D01*
X993419Y73620D01*
X991849Y74270D01*
D02*
G37*
G36*
X941849D02*
X940151D01*
X938581Y73620D01*
X937380Y72419D01*
X936730Y70849D01*
Y69151D01*
X937380Y67581D01*
X938581Y66380D01*
X940151Y65730D01*
X941849D01*
X943419Y66380D01*
X944620Y67581D01*
X945270Y69151D01*
Y70849D01*
X944620Y72419D01*
X943419Y73620D01*
X941849Y74270D01*
D02*
G37*
G36*
X741849D02*
X740151D01*
X738581Y73620D01*
X737380Y72419D01*
X736730Y70849D01*
Y69151D01*
X737380Y67581D01*
X738581Y66380D01*
X740151Y65730D01*
X741849D01*
X743419Y66380D01*
X744620Y67581D01*
X745270Y69151D01*
Y70849D01*
X744620Y72419D01*
X743419Y73620D01*
X741849Y74270D01*
D02*
G37*
G36*
X641849D02*
X640151D01*
X638581Y73620D01*
X637380Y72419D01*
X636730Y70849D01*
Y69151D01*
X637380Y67581D01*
X638581Y66380D01*
X640151Y65730D01*
X641849D01*
X643419Y66380D01*
X644620Y67581D01*
X645270Y69151D01*
Y70849D01*
X644620Y72419D01*
X643419Y73620D01*
X641849Y74270D01*
D02*
G37*
G36*
X591849D02*
X590151D01*
X588581Y73620D01*
X587380Y72419D01*
X586730Y70849D01*
Y69151D01*
X587380Y67581D01*
X588581Y66380D01*
X590151Y65730D01*
X591849D01*
X593419Y66380D01*
X594620Y67581D01*
X595270Y69151D01*
Y70849D01*
X594620Y72419D01*
X593419Y73620D01*
X591849Y74270D01*
D02*
G37*
G36*
X541849D02*
X540151D01*
X538581Y73620D01*
X537380Y72419D01*
X536730Y70849D01*
Y69151D01*
X537380Y67581D01*
X538581Y66380D01*
X540151Y65730D01*
X541849D01*
X543419Y66380D01*
X544620Y67581D01*
X545270Y69151D01*
Y70849D01*
X544620Y72419D01*
X543419Y73620D01*
X541849Y74270D01*
D02*
G37*
G36*
X441849D02*
X440151D01*
X438581Y73620D01*
X437380Y72419D01*
X436730Y70849D01*
Y69151D01*
X437380Y67581D01*
X438581Y66380D01*
X440151Y65730D01*
X441849D01*
X443419Y66380D01*
X444620Y67581D01*
X445270Y69151D01*
Y70849D01*
X444620Y72419D01*
X443419Y73620D01*
X441849Y74270D01*
D02*
G37*
G36*
X391849D02*
X390151D01*
X388581Y73620D01*
X387380Y72419D01*
X386730Y70849D01*
Y69151D01*
X387380Y67581D01*
X388581Y66380D01*
X390151Y65730D01*
X391849D01*
X393419Y66380D01*
X394620Y67581D01*
X395270Y69151D01*
Y70849D01*
X394620Y72419D01*
X393419Y73620D01*
X391849Y74270D01*
D02*
G37*
G36*
X341849D02*
X340151D01*
X338581Y73620D01*
X337380Y72419D01*
X336730Y70849D01*
Y69151D01*
X337380Y67581D01*
X338581Y66380D01*
X340151Y65730D01*
X341849D01*
X343419Y66380D01*
X344620Y67581D01*
X345270Y69151D01*
Y70849D01*
X344620Y72419D01*
X343419Y73620D01*
X341849Y74270D01*
D02*
G37*
G36*
X241849D02*
X240151D01*
X238581Y73620D01*
X237380Y72419D01*
X236730Y70849D01*
Y69151D01*
X237380Y67581D01*
X238581Y66380D01*
X240151Y65730D01*
X241849D01*
X243419Y66380D01*
X244620Y67581D01*
X245270Y69151D01*
Y70849D01*
X244620Y72419D01*
X243419Y73620D01*
X241849Y74270D01*
D02*
G37*
G36*
X191849D02*
X190151D01*
X188581Y73620D01*
X187380Y72419D01*
X186730Y70849D01*
Y69151D01*
X187380Y67581D01*
X188581Y66380D01*
X190151Y65730D01*
X191849D01*
X193419Y66380D01*
X194620Y67581D01*
X195270Y69151D01*
Y70849D01*
X194620Y72419D01*
X193419Y73620D01*
X191849Y74270D01*
D02*
G37*
G36*
X141849D02*
X140151D01*
X138581Y73620D01*
X137380Y72419D01*
X136730Y70849D01*
Y69151D01*
X137380Y67581D01*
X138581Y66380D01*
X140151Y65730D01*
X141849D01*
X143419Y66380D01*
X144620Y67581D01*
X145270Y69151D01*
Y70849D01*
X144620Y72419D01*
X143419Y73620D01*
X141849Y74270D01*
D02*
G37*
G36*
X91849D02*
X90151D01*
X88581Y73620D01*
X87380Y72419D01*
X86730Y70849D01*
Y69151D01*
X87380Y67581D01*
X88581Y66380D01*
X90151Y65730D01*
X91849D01*
X93419Y66380D01*
X94620Y67581D01*
X95270Y69151D01*
Y70849D01*
X94620Y72419D01*
X93419Y73620D01*
X91849Y74270D01*
D02*
G37*
G36*
X72221Y30151D02*
X63389D01*
Y19653D01*
X72221D01*
Y30151D01*
D02*
G37*
G36*
X1366849Y24270D02*
X1365151D01*
X1363581Y23620D01*
X1362380Y22419D01*
X1361730Y20849D01*
Y19151D01*
X1362380Y17581D01*
X1363581Y16380D01*
X1365151Y15730D01*
X1366849D01*
X1368419Y16380D01*
X1369620Y17581D01*
X1370270Y19151D01*
Y20849D01*
X1369620Y22419D01*
X1368419Y23620D01*
X1366849Y24270D01*
D02*
G37*
G36*
X1316849D02*
X1315151D01*
X1313581Y23620D01*
X1312380Y22419D01*
X1311730Y20849D01*
Y19151D01*
X1312380Y17581D01*
X1313581Y16380D01*
X1315151Y15730D01*
X1316849D01*
X1318419Y16380D01*
X1319620Y17581D01*
X1320270Y19151D01*
Y20849D01*
X1319620Y22419D01*
X1318419Y23620D01*
X1316849Y24270D01*
D02*
G37*
G36*
X1266849D02*
X1265151D01*
X1263581Y23620D01*
X1262380Y22419D01*
X1261730Y20849D01*
Y19151D01*
X1262380Y17581D01*
X1263581Y16380D01*
X1265151Y15730D01*
X1266849D01*
X1268419Y16380D01*
X1269620Y17581D01*
X1270270Y19151D01*
Y20849D01*
X1269620Y22419D01*
X1268419Y23620D01*
X1266849Y24270D01*
D02*
G37*
G36*
X1216849D02*
X1215151D01*
X1213581Y23620D01*
X1212380Y22419D01*
X1211730Y20849D01*
Y19151D01*
X1212380Y17581D01*
X1213581Y16380D01*
X1215151Y15730D01*
X1216849D01*
X1218419Y16380D01*
X1219620Y17581D01*
X1220270Y19151D01*
Y20849D01*
X1219620Y22419D01*
X1218419Y23620D01*
X1216849Y24270D01*
D02*
G37*
G36*
X1166849D02*
X1165151D01*
X1163581Y23620D01*
X1162380Y22419D01*
X1161730Y20849D01*
Y19151D01*
X1162380Y17581D01*
X1163581Y16380D01*
X1165151Y15730D01*
X1166849D01*
X1168419Y16380D01*
X1169620Y17581D01*
X1170270Y19151D01*
Y20849D01*
X1169620Y22419D01*
X1168419Y23620D01*
X1166849Y24270D01*
D02*
G37*
G36*
X1116849D02*
X1115151D01*
X1113581Y23620D01*
X1112380Y22419D01*
X1111730Y20849D01*
Y19151D01*
X1112380Y17581D01*
X1113581Y16380D01*
X1115151Y15730D01*
X1116849D01*
X1118419Y16380D01*
X1119620Y17581D01*
X1120270Y19151D01*
Y20849D01*
X1119620Y22419D01*
X1118419Y23620D01*
X1116849Y24270D01*
D02*
G37*
G36*
X1066849D02*
X1065151D01*
X1063581Y23620D01*
X1062380Y22419D01*
X1061730Y20849D01*
Y19151D01*
X1062380Y17581D01*
X1063581Y16380D01*
X1065151Y15730D01*
X1066849D01*
X1068419Y16380D01*
X1069620Y17581D01*
X1070270Y19151D01*
Y20849D01*
X1069620Y22419D01*
X1068419Y23620D01*
X1066849Y24270D01*
D02*
G37*
G36*
X1016849D02*
X1015151D01*
X1013581Y23620D01*
X1012380Y22419D01*
X1011730Y20849D01*
Y19151D01*
X1012380Y17581D01*
X1013581Y16380D01*
X1015151Y15730D01*
X1016849D01*
X1018419Y16380D01*
X1019620Y17581D01*
X1020270Y19151D01*
Y20849D01*
X1019620Y22419D01*
X1018419Y23620D01*
X1016849Y24270D01*
D02*
G37*
G36*
X916849D02*
X915151D01*
X913581Y23620D01*
X912380Y22419D01*
X911730Y20849D01*
Y19151D01*
X912380Y17581D01*
X913581Y16380D01*
X915151Y15730D01*
X916849D01*
X918419Y16380D01*
X919620Y17581D01*
X920270Y19151D01*
Y20849D01*
X919620Y22419D01*
X918419Y23620D01*
X916849Y24270D01*
D02*
G37*
G36*
X866849D02*
X865151D01*
X863581Y23620D01*
X862380Y22419D01*
X861730Y20849D01*
Y19151D01*
X862380Y17581D01*
X863581Y16380D01*
X865151Y15730D01*
X866849D01*
X868419Y16380D01*
X869620Y17581D01*
X870270Y19151D01*
Y20849D01*
X869620Y22419D01*
X868419Y23620D01*
X866849Y24270D01*
D02*
G37*
G36*
X716849D02*
X715151D01*
X713581Y23620D01*
X712380Y22419D01*
X711730Y20849D01*
Y19151D01*
X712380Y17581D01*
X713581Y16380D01*
X715151Y15730D01*
X716849D01*
X718419Y16380D01*
X719620Y17581D01*
X720270Y19151D01*
Y20849D01*
X719620Y22419D01*
X718419Y23620D01*
X716849Y24270D01*
D02*
G37*
G36*
X666849D02*
X665151D01*
X663581Y23620D01*
X662380Y22419D01*
X661730Y20849D01*
Y19151D01*
X662380Y17581D01*
X663581Y16380D01*
X665151Y15730D01*
X666849D01*
X668419Y16380D01*
X669620Y17581D01*
X670270Y19151D01*
Y20849D01*
X669620Y22419D01*
X668419Y23620D01*
X666849Y24270D01*
D02*
G37*
G36*
X616849D02*
X615151D01*
X613581Y23620D01*
X612380Y22419D01*
X611730Y20849D01*
Y19151D01*
X612380Y17581D01*
X613581Y16380D01*
X615151Y15730D01*
X616849D01*
X618419Y16380D01*
X619620Y17581D01*
X620270Y19151D01*
Y20849D01*
X619620Y22419D01*
X618419Y23620D01*
X616849Y24270D01*
D02*
G37*
G36*
X566849D02*
X565151D01*
X563581Y23620D01*
X562380Y22419D01*
X561730Y20849D01*
Y19151D01*
X562380Y17581D01*
X563581Y16380D01*
X565151Y15730D01*
X566849D01*
X568419Y16380D01*
X569620Y17581D01*
X570270Y19151D01*
Y20849D01*
X569620Y22419D01*
X568419Y23620D01*
X566849Y24270D01*
D02*
G37*
G36*
X516849D02*
X515151D01*
X513581Y23620D01*
X512380Y22419D01*
X511730Y20849D01*
Y19151D01*
X512380Y17581D01*
X513581Y16380D01*
X515151Y15730D01*
X516849D01*
X518419Y16380D01*
X519620Y17581D01*
X520270Y19151D01*
Y20849D01*
X519620Y22419D01*
X518419Y23620D01*
X516849Y24270D01*
D02*
G37*
G36*
X466849D02*
X465151D01*
X463581Y23620D01*
X462380Y22419D01*
X461730Y20849D01*
Y19151D01*
X462380Y17581D01*
X463581Y16380D01*
X465151Y15730D01*
X466849D01*
X468419Y16380D01*
X469620Y17581D01*
X470270Y19151D01*
Y20849D01*
X469620Y22419D01*
X468419Y23620D01*
X466849Y24270D01*
D02*
G37*
G36*
X366849D02*
X365151D01*
X363581Y23620D01*
X362380Y22419D01*
X361730Y20849D01*
Y19151D01*
X362380Y17581D01*
X363581Y16380D01*
X365151Y15730D01*
X366849D01*
X368419Y16380D01*
X369620Y17581D01*
X370270Y19151D01*
Y20849D01*
X369620Y22419D01*
X368419Y23620D01*
X366849Y24270D01*
D02*
G37*
G36*
X316849D02*
X315151D01*
X313581Y23620D01*
X312380Y22419D01*
X311730Y20849D01*
Y19151D01*
X312380Y17581D01*
X313581Y16380D01*
X315151Y15730D01*
X316849D01*
X318419Y16380D01*
X319620Y17581D01*
X320270Y19151D01*
Y20849D01*
X319620Y22419D01*
X318419Y23620D01*
X316849Y24270D01*
D02*
G37*
G36*
X266849D02*
X265151D01*
X263581Y23620D01*
X262380Y22419D01*
X261730Y20849D01*
Y19151D01*
X262380Y17581D01*
X263581Y16380D01*
X265151Y15730D01*
X266849D01*
X268419Y16380D01*
X269620Y17581D01*
X270270Y19151D01*
Y20849D01*
X269620Y22419D01*
X268419Y23620D01*
X266849Y24270D01*
D02*
G37*
%LPD*%
G36*
X739862Y815167D02*
X739730Y814849D01*
Y813151D01*
X740380Y811581D01*
X741581Y810380D01*
X741951Y810227D01*
Y751849D01*
X738381Y748279D01*
X738137Y748325D01*
X737049Y749274D01*
Y805227D01*
X737419Y805380D01*
X738620Y806581D01*
X739270Y808151D01*
Y809849D01*
X738620Y811419D01*
X737419Y812620D01*
X737181Y812719D01*
X736998Y814100D01*
X738785Y815887D01*
X739862Y815167D01*
D02*
G37*
D10*
X80406Y638794D02*
X80492Y638709D01*
X109919D01*
X110005Y638623D01*
X295719D01*
X96000Y95486D02*
Y209496D01*
Y95486D02*
X110005Y81481D01*
X96000Y209496D02*
X109891Y223387D01*
X109948Y223444D02*
Y267138D01*
X110005Y267195D01*
X109891Y223387D02*
X109948Y223444D01*
X86805Y267195D02*
X110005D01*
X83437Y1381479D02*
X110005D01*
X81958Y1380000D02*
X83437Y1381479D01*
X81000Y1380000D02*
X81958D01*
X80618Y1327898D02*
X80669Y1327949D01*
X109949D02*
X110000Y1328000D01*
X80669Y1327949D02*
X109949D01*
X109960Y1234244D02*
X110000Y1234284D01*
X88328Y1234244D02*
X109960D01*
X88288Y1234205D02*
X88328Y1234244D01*
X109766Y1195526D02*
X110005Y1195765D01*
X80948Y1195526D02*
X109766D01*
X80709Y1195287D02*
X80948Y1195526D01*
X109715Y1048285D02*
X110000Y1048570D01*
X88285Y1048285D02*
X109715D01*
X88000Y1048000D02*
X88285Y1048285D01*
X109480Y1009526D02*
X110005Y1010051D01*
X81525Y1009526D02*
X109480D01*
X81000Y1009000D02*
X81525Y1009526D01*
X80391Y952836D02*
X80555Y953000D01*
X110000D01*
X88144Y862483D02*
X88330Y862670D01*
X109813D02*
X110000Y862856D01*
X88330Y862670D02*
X109813D01*
X80589Y824154D02*
X109822D01*
X110005Y824337D01*
X80406Y823971D02*
X80589Y824154D01*
X295714Y677142D02*
X481428D01*
X110000D02*
X295714D01*
X88499Y676773D02*
X88684Y676957D01*
X109815D02*
X110000Y677142D01*
X88684Y676957D02*
X109815D01*
X80498Y584003D02*
X107997D01*
X80495Y584006D02*
X80498Y584003D01*
X107997D02*
X108000Y584000D01*
X109728Y491156D02*
X110000Y491428D01*
X88416Y491156D02*
X109728D01*
X88144Y490884D02*
X88416Y491156D01*
X80849Y453085D02*
X109829D01*
X80673Y453261D02*
X80849Y453085D01*
X109829D02*
X110005Y452909D01*
X88000Y305000D02*
X88357Y305357D01*
X109643D02*
X110000Y305714D01*
X88357Y305357D02*
X109643D01*
X75000Y279000D02*
X86805Y267195D01*
X1224289Y452909D02*
X1410003D01*
X1038575D02*
X1224289D01*
X481433Y824337D02*
X667147D01*
X295719D02*
X481433D01*
X852861Y452909D02*
X1038575D01*
X667147D02*
X852861D01*
X1224289Y638623D02*
X1410003D01*
X1038575D02*
X1224289D01*
X852861D02*
X1038575D01*
X667147D02*
X852861D01*
X481433D02*
X667147D01*
X295719D02*
X481433D01*
X848954Y824337D02*
X852861D01*
X667147D02*
X848954D01*
X481428Y677142D02*
X724000D01*
X812858Y661000D02*
X829000Y677142D01*
X740142Y661000D02*
X812858D01*
X724000Y677142D02*
X740142Y661000D01*
X852856Y1419998D02*
X1038570D01*
X1224284D02*
X1409998D01*
X1038570D02*
X1224284D01*
X667142D02*
X852856D01*
X481428D02*
X667142D01*
X110000D02*
X295714D01*
X481428D01*
X852856Y1234284D02*
X1038570D01*
X1224284D02*
X1409998D01*
X1038570D02*
X1224284D01*
X667142D02*
X852856D01*
X481428D02*
X667142D01*
X110000D02*
X295714D01*
X481428D01*
X852856Y1048570D02*
X1038570D01*
X1224284D02*
X1409998D01*
X1038570D02*
X1224284D01*
X667142D02*
X852856D01*
X481428D02*
X667142D01*
X110000D02*
X295714D01*
X481428D01*
X852856Y862856D02*
X1038570D01*
X1224284D02*
X1409998D01*
X1038570D02*
X1224284D01*
X667142D02*
X852856D01*
X295714D02*
X667142D01*
X110000D02*
X295714D01*
X829000Y677142D02*
X1409998D01*
X852856Y305714D02*
X1038570D01*
X1224284D02*
X1409998D01*
X1038570D02*
X1224284D01*
X667142D02*
X852856D01*
X481428D02*
X667142D01*
X110000D02*
X295714D01*
X481428D01*
X667142Y491428D02*
X1038570D01*
X1409998D01*
X481428D02*
X667142D01*
X110000D02*
X295714D01*
X481428D01*
X1224284Y120000D02*
X1409998D01*
X667142D02*
X852856D01*
X1038570D01*
X1224284D01*
X110000D02*
X295714D01*
X481428D02*
X667142D01*
X295714D02*
X481428D01*
X852861Y1381479D02*
X1038575D01*
X1224289D02*
X1410003D01*
X1038575D02*
X1224289D01*
X667147D02*
X852861D01*
X481433D02*
X667147D01*
X110005D02*
X295719D01*
X481433D01*
X852861Y1195765D02*
X1038575D01*
X1224289D02*
X1410003D01*
X1038575D02*
X1224289D01*
X667147D02*
X852861D01*
X481433D02*
X667147D01*
X110005D02*
X295719D01*
X481433D01*
X852861Y1010051D02*
X1038575D01*
X1224289D02*
X1410003D01*
X1038575D02*
X1224289D01*
X667147D02*
X852861D01*
X481433D02*
X667147D01*
X110005D02*
X295719D01*
X481433D01*
X852861Y824337D02*
X1038575D01*
X1224289D02*
X1410003D01*
X1038575D02*
X1224289D01*
X110005D02*
X295719D01*
X481433Y452909D02*
X667147D01*
X110005D02*
X295719D01*
X481433D01*
X1038575Y81481D02*
X1224289D01*
X295719Y267195D02*
X481433D01*
X1224289Y81481D02*
X1410003D01*
X110005Y267195D02*
X295719D01*
X110005Y81481D02*
X295719D01*
X481433Y267195D02*
X667147D01*
X852861D01*
X1038575D02*
X1224289D01*
X1410003D01*
X667147Y81481D02*
X852861D01*
X295719D02*
X481433D01*
X852861Y267195D02*
X1038575D01*
X481433Y81481D02*
X667147D01*
X852861D02*
X1038575D01*
D14*
X69471Y22403D02*
X66139D01*
X69471Y25735D01*
Y26568D01*
X68638Y27401D01*
X66972D01*
X66139Y26568D01*
D75*
X864205Y736891D02*
X882891D01*
X890500Y744500D01*
X909000Y763000D01*
X864205Y726000D02*
X881000D01*
X912138Y757138D01*
X73991Y706024D02*
X74573D01*
X99815Y731267D02*
X100396D01*
X74573Y706024D02*
X99815Y731267D01*
X99854Y721830D02*
X100396D01*
X75516Y697492D02*
X99854Y721830D01*
X74973Y697492D02*
X75516D01*
X74270Y686429D02*
X100019Y712178D01*
X72785Y684945D02*
X74270Y686429D01*
X72785Y684837D02*
Y684945D01*
X965000Y737000D02*
X972208Y744208D01*
Y752430D01*
X967499Y757138D02*
X972208Y752430D01*
X912138Y757138D02*
X967499D01*
X909000Y763000D02*
X965000D01*
X867000Y694969D02*
X888969D01*
X944000Y750000D02*
X965000D01*
X888969Y694969D02*
X944000Y750000D01*
X866919Y705000D02*
X911919Y750000D01*
X919000D01*
X735000Y749274D02*
Y809000D01*
X730000Y744274D02*
X735000Y749274D01*
X730000Y691000D02*
Y744274D01*
Y691000D02*
X752744Y668256D01*
X759983D02*
X763128Y671401D01*
X752744Y668256D02*
X759983D01*
X735000Y695000D02*
Y742000D01*
Y695000D02*
X754000Y676000D01*
X735000Y742000D02*
X744000Y751000D01*
X741000Y731000D02*
X747000Y737000D01*
X744000Y751000D02*
Y814000D01*
X849731Y766000D02*
X864000D01*
X795932Y819799D02*
X849731Y766000D01*
X739799Y819799D02*
X795932D01*
X744000Y814000D02*
X795578D01*
X853063Y756516D02*
X864205D01*
X795578Y814000D02*
X853063Y756516D01*
X734630Y814630D02*
X739799Y819799D01*
X734630Y809370D02*
X735000Y809000D01*
X734630Y809370D02*
Y814630D01*
X823205Y717641D02*
Y776795D01*
X798000Y802000D02*
X823205Y776795D01*
X848954Y809960D02*
Y824337D01*
X747000Y737000D02*
X807000D01*
D79*
X890500Y744500D02*
D03*
X864205Y726000D02*
D03*
X825956Y694309D02*
D03*
X73991Y706024D02*
D03*
X74973Y697492D02*
D03*
X41457Y242432D02*
D03*
X39799Y231112D02*
D03*
X74270Y686429D02*
D03*
X100019Y712178D02*
D03*
X100396Y721830D02*
D03*
Y731267D02*
D03*
X80406Y638794D02*
D03*
X100566Y743280D02*
D03*
X864205Y736891D02*
D03*
X108417Y1283642D02*
D03*
X108000Y1294000D02*
D03*
X99000Y1310000D02*
D03*
X109000Y918000D02*
D03*
X100000Y938000D02*
D03*
Y567000D02*
D03*
X110000Y551000D02*
D03*
X107000Y201000D02*
D03*
X109891Y223387D02*
D03*
X80133Y148239D02*
D03*
X51509Y58014D02*
D03*
X59237Y64076D02*
D03*
X80618Y1327898D02*
D03*
X110000Y1328000D02*
D03*
X81000Y1380000D02*
D03*
X88288Y1234205D02*
D03*
X80709Y1195287D02*
D03*
X88000Y1048000D02*
D03*
X81000Y1009000D02*
D03*
X80391Y952836D02*
D03*
X110000Y953000D02*
D03*
X88144Y862483D02*
D03*
X80406Y823971D02*
D03*
X88499Y676773D02*
D03*
X80495Y584006D02*
D03*
X108000Y584000D02*
D03*
X88144Y490884D02*
D03*
X80673Y453261D02*
D03*
X88000Y305000D02*
D03*
X75000Y279000D02*
D03*
X83062Y228500D02*
D03*
X68392Y261272D02*
D03*
X867000Y694969D02*
D03*
X866919Y705000D02*
D03*
X965000Y737000D02*
D03*
Y763000D02*
D03*
Y750000D02*
D03*
X919000D02*
D03*
X741000Y731000D02*
D03*
X919000Y737000D02*
D03*
X886000Y757000D02*
D03*
X830000Y797000D02*
D03*
X848954Y809960D02*
D03*
X864000Y766000D02*
D03*
X864205Y756516D02*
D03*
X735000Y809000D02*
D03*
X744000Y814000D02*
D03*
X763128Y671401D02*
D03*
X754000Y676000D02*
D03*
X923000Y705000D02*
D03*
X810000Y689000D02*
D03*
X807000Y737000D02*
D03*
X726000Y760000D02*
D03*
X795247Y745267D02*
D03*
X823205Y717641D02*
D03*
X798000Y802000D02*
D03*
X1409998Y1419998D02*
D03*
Y1048570D02*
D03*
Y1234284D02*
D03*
X1224284Y1419998D02*
D03*
Y1048570D02*
D03*
Y1234284D02*
D03*
X1409998Y862856D02*
D03*
X1224284D02*
D03*
X1038570Y1419998D02*
D03*
Y1048570D02*
D03*
Y1234284D02*
D03*
X852856Y1419998D02*
D03*
Y1048570D02*
D03*
Y1234284D02*
D03*
X1038570Y862856D02*
D03*
X852856D02*
D03*
X1409998Y677142D02*
D03*
Y491428D02*
D03*
Y305714D02*
D03*
X1224284Y677142D02*
D03*
Y491428D02*
D03*
X1224284Y305714D02*
D03*
X1409998Y120000D02*
D03*
X1224284D02*
D03*
X1038570Y677142D02*
D03*
X1038570Y491428D02*
D03*
Y305714D02*
D03*
X852856Y677142D02*
D03*
Y491428D02*
D03*
X1038570Y120000D02*
D03*
X852856Y305714D02*
D03*
Y120000D02*
D03*
X667142Y1419998D02*
D03*
Y1048570D02*
D03*
Y1234284D02*
D03*
X481428Y1419998D02*
D03*
Y1048570D02*
D03*
Y1234284D02*
D03*
X667142Y862856D02*
D03*
X481428D02*
D03*
X295714Y1419998D02*
D03*
Y1234284D02*
D03*
X110000Y1419998D02*
D03*
Y1234284D02*
D03*
X295714Y1048570D02*
D03*
X295714Y862856D02*
D03*
X110000Y1048570D02*
D03*
X110000Y862856D02*
D03*
X667142Y677142D02*
D03*
X667142Y491428D02*
D03*
Y305714D02*
D03*
X481428Y491428D02*
D03*
Y677142D02*
D03*
Y305714D02*
D03*
X667142Y120000D02*
D03*
X481428D02*
D03*
X295714Y677142D02*
D03*
X295714Y491428D02*
D03*
X110000Y677142D02*
D03*
Y491428D02*
D03*
X295714Y305714D02*
D03*
Y120000D02*
D03*
X110000Y305714D02*
D03*
Y120000D02*
D03*
X295719Y267195D02*
D03*
X481433D02*
D03*
X1410003D02*
D03*
X1038575Y824337D02*
D03*
X110005Y267195D02*
D03*
Y1381479D02*
D03*
X295719D02*
D03*
X481433D02*
D03*
X667147D02*
D03*
X852861D02*
D03*
X1038575D02*
D03*
X1224289D02*
D03*
X1410003D02*
D03*
Y1195765D02*
D03*
X1224289D02*
D03*
X1038575D02*
D03*
X852861D02*
D03*
X667147D02*
D03*
X481433D02*
D03*
X295719D02*
D03*
X110005D02*
D03*
Y1010051D02*
D03*
X295719D02*
D03*
X481433D02*
D03*
X667147D02*
D03*
X852861D02*
D03*
X1038575D02*
D03*
X1224289D02*
D03*
X1410003D02*
D03*
Y824337D02*
D03*
X1224289D02*
D03*
X852861D02*
D03*
X667147D02*
D03*
X481433D02*
D03*
X295719D02*
D03*
X110005D02*
D03*
X110005Y638623D02*
D03*
X295719D02*
D03*
X481433D02*
D03*
X667147D02*
D03*
X852861D02*
D03*
X1038575D02*
D03*
X1224289D02*
D03*
X1410003D02*
D03*
Y452909D02*
D03*
X1224289D02*
D03*
X1038575D02*
D03*
X852861D02*
D03*
X667147D02*
D03*
X481433D02*
D03*
X295719D02*
D03*
X110005D02*
D03*
X667147Y267195D02*
D03*
X852861D02*
D03*
X1038575D02*
D03*
X1224289D02*
D03*
X1410003Y81481D02*
D03*
X1224289D02*
D03*
X1038575D02*
D03*
X852861D02*
D03*
X667147D02*
D03*
X481433D02*
D03*
X295719D02*
D03*
X110005D02*
D03*
M02*
