M48
;Layer_Color=9474304
;FILE_FORMAT=4:4
METRIC,LZ
;TYPE=PLATED
T1F00S00C0.3000
T2F00S00C1.0000
;TYPE=NON_PLATED
%
T01
X00029689Y00057
Y00072
X00039496Y000655
Y0008
X00066Y0012
X00116
X00141Y0007
X00191
X00091Y0017
X00102419Y002
X00111278Y00211996
X00116732Y00224
X001Y0024
X000495Y002315
X00029689Y00227
Y00212
Y00242
Y001675
Y00151651
X00066Y0032
X00241Y0007
X00291
X00341
X00391
X00441
X00491
X00541
X00591
X00566Y0002
X00516
X00466
X00416
X00366
X00316
X00266
X00216
X00616
X00666
X00716
X00741Y0007
X00791
X00841
X00891
X00941
X00991
X00966Y0002
X00916
X00866
X00691Y0007
X00641
X01041
X01091
X01141
X01191
X01241
X01291
X01341
X01391
X01366Y0002
X01316
X01266
X01216
X01166
X01116
X01066
X01016
X01441Y0007
X01466Y0012
X01491Y0017
X01466Y0022
X01491Y0027
X01466Y0032
Y0042
Y0052
Y0062
X01491Y0067
X01466Y0072
X00066
Y0062
Y0052
Y0042
X00099983Y00773977
X00116Y0082
X00066
Y0092
X00116
Y0102
X00066
Y0112
X00116
X01466
X01491Y0107
X01466Y0102
X01491Y0097
X01466Y0092
X01491Y0087
X01466Y0082
X01491Y0077
Y0117
X01466Y0122
X01491Y0127
X01466Y0132
X01491Y0137
X01466Y0142
X01416
X01491Y0147
X01391
X01341
X01291
X01241
X01191
X01141
X01091
X01041
X01066Y0142
X01116
X01166
X01216
X01266
X01316
X01366
X01016
X00966
X00916
X00866
X00816
X00766
X00716
X00666
X00616
X00641Y0147
X00691
X00741
X00841
X00891
X00941
X00991
X00591
X00541
X00491
X00441
X00391
X00341
X00291
X00241
X00266Y0142
X00316
X00366
X00416
X00466
X00516
X00566
X00216
X00166
X00116
X00091Y0147
X00191
X00116Y0132
X00066
Y0122
X00116
T02
X001Y001
X0148
Y014
X001
M30
