M48
;Layer_Color=9474304
;FILE_FORMAT=4:4
METRIC,LZ
T3F00S00C2.4000
%
G90
G05
T03
G00X01533445Y-00011495
M15
G01X015366Y-00010022
G01X01538485Y-00008486
G01X01548486Y00001515
G01X01550565Y00004309
G01X01551754Y00007582
G01X01552Y0001
G01X01552Y0008588
G01X01551495Y00089325
G01X01550022Y00092481
G01X01547704Y0009508
G01X01544738Y00096905
G01X01541567Y00097777
G01X01539478Y00098052
G01X01538992Y00098253
G01X01538574Y00098574
G01X01538254Y00098992
G01X01538052Y00099478
G01X01537983Y001
G01X01538052Y00100523
G01X01538254Y00101009
G01X01538574Y00101427
G01X01538992Y00101747
G01X01539478Y00101949
G01X01541567Y00102224
G01X01544917Y00103175
G01X01547853Y00105047
G01X01550128Y00107684
G01X0155155Y00110863
G01X01552Y00114121
G01X01552Y0073588
G01X01551495Y00739325
G01X01550022Y00742481
G01X01547704Y0074508
G01X01544738Y00746905
G01X01541567Y00747777
G01X01539478Y00748052
G01X01538992Y00748254
G01X01538574Y00748574
G01X01538254Y00748992
G01X01538052Y00749478
G01X01537983Y0075
G01X01538052Y00750523
G01X01538254Y00751009
G01X01538574Y00751427
G01X01538992Y00751748
G01X01539478Y00751949
G01X01541567Y00752224
G01X01544917Y00753175
G01X01547853Y00755047
G01X01550128Y00757684
G01X0155155Y00760863
G01X01552Y00764121
G01X01552Y0138588
G01X01551495Y01389325
G01X01550022Y01392481
G01X01547704Y0139508
G01X01544738Y01396905
G01X01541567Y01397777
G01X01539478Y01398052
G01X01538992Y01398254
G01X01538574Y01398574
G01X01538254Y01398992
G01X01538052Y01399478
G01X01537983Y014
G01X01538052Y01400523
G01X01538254Y01401009
G01X01538574Y01401427
G01X01538992Y01401747
G01X01539478Y01401949
G01X01541567Y01402224
G01X01544917Y01403175
G01X01547853Y01405047
G01X01550128Y01407684
G01X0155155Y01410863
G01X01552Y01414121
G01X01552Y0149
G01X01551495Y01493445
G01X01550022Y014966
G01X01548486Y01498485
G01X01538485Y01508485
G01X01535692Y01510564
G01X01532418Y01511754
G01X0153Y01512
G01X0145412Y01512
G01X01450675Y01511495
G01X01447519Y01510022
G01X0144492Y01507704
G01X01443095Y01504738
G01X01442223Y01501567
G01X01441948Y01499478
G01X01441746Y01498992
G01X01441426Y01498574
G01X01441008Y01498254
G01X01440522Y01498052
G01X0144Y01497983
G01X01439477Y01498052
G01X01438991Y01498254
G01X01438573Y01498574
G01X01438253Y01498992
G01X01438051Y01499478
G01X01437776Y01501567
G01X01436825Y01504917
G01X01434953Y01507853
G01X01432316Y01510128
G01X01429137Y0151155
G01X01425879Y01512
G01X0080412Y01512
G01X00800675Y01511495
G01X00797519Y01510022
G01X0079492Y01507704
G01X00793095Y01504738
G01X00792223Y01501567
G01X00791948Y01499478
G01X00791746Y01498992
G01X00791426Y01498574
G01X00791008Y01498254
G01X00790522Y01498052
G01X0079Y01497983
G01X00789477Y01498052
G01X00788991Y01498254
G01X00788573Y01498574
G01X00788253Y01498992
G01X00788051Y01499478
G01X00787776Y01501567
G01X00786825Y01504917
G01X00784953Y01507853
G01X00782316Y01510128
G01X00779137Y0151155
G01X00775879Y01512
G01X0015412Y01512
G01X00150675Y01511495
G01X00147519Y01510022
G01X0014492Y01507704
G01X00143095Y01504738
G01X00142223Y01501567
G01X00141948Y01499478
G01X00141747Y01498992
G01X00141426Y01498574
G01X00141008Y01498254
G01X00140522Y01498052
G01X0014Y01497983
G01X00139477Y01498052
G01X00138991Y01498254
G01X00138573Y01498574
G01X00138253Y01498992
G01X00138051Y01499478
G01X00137776Y01501567
G01X00136825Y01504917
G01X00134953Y01507853
G01X00132316Y01510128
G01X00129137Y0151155
G01X00125879Y01512
G01X0005Y01512
G01X00046555Y01511495
G01X00043399Y01510022
G01X00041515Y01508486
G01X00031514Y01498485
G01X00029435Y01495691
G01X00028246Y01492418
G01X00028Y0149
G01X00028Y0141412
G01X00028505Y01410675
G01X00029978Y01407519
G01X00032296Y0140492
G01X00035262Y01403095
G01X00038433Y01402223
G01X00040522Y01401948
G01X00041008Y01401746
G01X00041426Y01401426
G01X00041747Y01401008
G01X00041948Y01400522
G01X00042017Y014
G01X00041948Y01399477
G01X00041747Y01398991
G01X00041426Y01398573
G01X00041008Y01398253
G01X00040522Y01398051
G01X00038433Y01397776
G01X00035083Y01396825
G01X00032147Y01394953
G01X00029872Y01392316
G01X0002845Y01389137
G01X00028Y01385879
G01X00028Y0076412
G01X00028505Y00760675
G01X00029978Y00757519
G01X00032296Y0075492
G01X00035262Y00753095
G01X00038433Y00752223
G01X00040522Y00751948
G01X00041008Y00751746
G01X00041426Y00751426
G01X00041747Y00751008
G01X00041948Y00750522
G01X00042017Y00749999
G01X00041948Y00749477
G01X00041747Y00748991
G01X00041426Y00748573
G01X00041008Y00748252
G01X00040522Y00748051
G01X00038433Y00747776
G01X00035083Y00746825
G01X00032147Y00744953
G01X00029872Y00742316
G01X0002845Y00739137
G01X00028Y00735879
G01X00028Y00719997
G01X00028096Y0026125
G01X0Y0026125
G01X-00003446Y00260745
G01X-00006601Y00259271
G01X-000092Y00256954
G01X-00011025Y00253988
G01X-00012Y0024925
G01X-00012Y0012975
G01X-00011495Y00126304
G01X-00010279Y00123701
G01X-00011025Y00122488
G01X-00012Y0011775
G01X-00012Y0005075
G01X-00011495Y00047304
G01X-00010021Y00044149
G01X-00007704Y00041549
G01X-00004738Y00039725
G01X00000034Y0003875
G01X00028Y00038828
G01X00028Y0001
G01X00028505Y00006554
G01X00029979Y00003399
G01X00031515Y00001515
G01X00041515Y-00008485
G01X00044308Y-00010564
G01X00047581Y-00011754
G01X0005Y-00012
G01X0012588Y-00012
G01X00129325Y-00011495
G01X00132481Y-00010021
G01X0013508Y-00007704
G01X00136905Y-00004738
G01X00137777Y-00001566
G01X00138052Y00000522
G01X00138253Y00001008
G01X00138574Y00001426
G01X00138992Y00001747
G01X00139478Y00001948
G01X0014Y00002017
G01X00140523Y00001948
G01X00141009Y00001747
G01X00141427Y00001426
G01X00141747Y00001008
G01X00141949Y00000522
G01X00142224Y-00001567
G01X00143175Y-00004917
G01X00145047Y-00007853
G01X00147684Y-00010128
G01X00150863Y-0001155
G01X00154121Y-00012
G01X0077588Y-00012
G01X00779325Y-00011495
G01X00782481Y-00010022
G01X0078508Y-00007704
G01X00786905Y-00004738
G01X00787777Y-00001567
G01X00788052Y00000522
G01X00788253Y00001008
G01X00788574Y00001426
G01X00788992Y00001747
G01X00789478Y00001948
G01X00790001Y00002017
G01X00790523Y00001948
G01X00791009Y00001747
G01X00791427Y00001426
G01X00791747Y00001008
G01X00791949Y00000522
G01X00792224Y-00001567
G01X00793175Y-00004917
G01X00795047Y-00007853
G01X00797684Y-00010128
G01X00800863Y-0001155
G01X00804121Y-00012
G01X0142588Y-00012
G01X01429325Y-00011495
G01X01432481Y-00010022
G01X0143508Y-00007704
G01X01436905Y-00004738
G01X01437777Y-00001567
G01X01438052Y00000522
G01X01438254Y00001008
G01X01438574Y00001426
G01X01438992Y00001747
G01X01439478Y00001948
G01X0144Y00002017
G01X01440523Y00001948
G01X01441009Y00001747
G01X01441427Y00001426
G01X01441747Y00001008
G01X01441949Y00000522
G01X01442224Y-00001567
G01X01443175Y-00004917
G01X01445047Y-00007853
G01X01447684Y-00010128
G01X01450863Y-0001155
G01X01454121Y-00012
G01X0153Y-00012
G01X01533445Y-00011495
M16
M17
M30
