G04*
G04 #@! TF.GenerationSoftware,Altium Limited,Altium NEXUS,5.8.2 (18)*
G04*
G04 Layer_Color=32896*
%FSLAX44Y44*%
%MOMM*%
G71*
G04*
G04 #@! TF.SameCoordinates,7010C59B-F468-4F27-83F9-F03C6C8D88C1*
G04*
G04*
G04 #@! TF.FilePolarity,Positive*
G04*
G01*
G75*
%ADD157C,0.0000*%
D157*
X1007500Y1030000D02*
G03*
X1027500Y1010000I20000J0D01*
G01*
X2407500D02*
G03*
X2427500Y1030000I0J20000D01*
G01*
Y2410000D02*
G03*
X2407500Y2430000I-20000J0D01*
G01*
X1027500D02*
G03*
X1007500Y2410000I0J-20000D01*
G01*
X3150000Y3380000D02*
G03*
X3050000Y3380000I-50000J0D01*
G01*
Y3340000D02*
G03*
X3150000Y3340000I50000J0D01*
G01*
X390000Y3380000D02*
G03*
X290000Y3380000I-50000J0D01*
G01*
Y3340000D02*
G03*
X390000Y3340000I50000J0D01*
G01*
X2850000Y2330000D02*
G03*
X2840000Y2320000I0J-10000D01*
G01*
X2860000D02*
G03*
X2850000Y2330000I-10000J0D01*
G01*
Y2279000D02*
G03*
X2860000Y2289000I0J10000D01*
G01*
X2840000D02*
G03*
X2850000Y2279000I10000J0D01*
G01*
X2850000Y1325001D02*
G03*
X2840000Y1315001I0J-10000D01*
G01*
X2860000D02*
G03*
X2850000Y1325001I-10000J0D01*
G01*
Y1274001D02*
G03*
X2860000Y1284001I0J10000D01*
G01*
X2840000D02*
G03*
X2850000Y1274001I10000J0D01*
G01*
X590000Y1134001D02*
G03*
X600000Y1144001I0J10000D01*
G01*
Y1175001D02*
G03*
X590000Y1185001I-10000J0D01*
G01*
D02*
G03*
X580000Y1175001I0J-10000D01*
G01*
Y1144001D02*
G03*
X590000Y1134001I10000J0D01*
G01*
X590000Y2139000D02*
G03*
X600000Y2149000I0J10000D01*
G01*
Y2180000D02*
G03*
X590000Y2190000I-10000J0D01*
G01*
D02*
G03*
X580000Y2180000I0J-10000D01*
G01*
Y2149000D02*
G03*
X590000Y2139000I10000J0D01*
G01*
X3440000Y3460001D02*
G03*
X3460000Y3440001I20000J0D01*
G01*
X-20000Y3440001D02*
G03*
X0Y3460000I0J20000D01*
G01*
X1027500Y1010000D02*
X2407500D01*
X2427500Y1030000D02*
Y2410000D01*
X1027500Y2430000D02*
X2407500D01*
X1007500Y1030000D02*
X1007500Y2410000D01*
X3050000Y3340000D02*
Y3380000D01*
X3150000Y3340000D02*
Y3380000D01*
X290000Y3340000D02*
Y3380000D01*
X390000Y3340000D02*
Y3380000D01*
X2840000Y2289000D02*
Y2320000D01*
X2860000Y2289000D02*
Y2320000D01*
X2840000Y1284001D02*
Y1315001D01*
X2860000Y1284001D02*
Y1315001D01*
X600000Y1144001D02*
Y1175001D01*
X580000Y1144001D02*
Y1175001D01*
X600000Y2149000D02*
Y2180000D01*
X580000Y2149000D02*
Y2180000D01*
X-130000Y0D02*
X-110000Y-20000D01*
X3550000D01*
X3570000Y0D01*
X3570000Y130000D01*
X3570000Y3310000D02*
X3570000Y130000D01*
X3570000Y3310000D02*
Y3420000D01*
X3549999Y3440001D02*
X3570000Y3420000D01*
X3460000Y3440001D02*
X3549999D01*
X3440000Y3460001D02*
Y3550000D01*
X3420000Y3570000D02*
X3440000Y3550000D01*
X20000Y3570000D02*
X3420000D01*
X-0Y3549999D02*
X20000Y3570000D01*
X-0Y3549999D02*
X0Y3460000D01*
X-109999Y3440001D02*
X-20000D01*
X-130000Y3420000D02*
X-109999Y3440001D01*
X-130000Y3330001D02*
X-130000Y3420000D01*
X-130000Y3330001D02*
X-130000Y0D01*
M02*
