G04*
G04 #@! TF.GenerationSoftware,Altium Limited,Altium NEXUS,5.8.2 (18)*
G04*
G04 Layer_Color=32896*
%FSLAX44Y44*%
%MOMM*%
G71*
G04*
G04 #@! TF.SameCoordinates,7010C59B-F468-4F27-83F9-F03C6C8D88C1*
G04*
G04*
G04 #@! TF.FilePolarity,Positive*
G04*
G01*
G75*
%ADD10C,0.2000*%
G36*
X453217Y40329D02*
X453453Y40314D01*
X453674Y40291D01*
X453880Y40261D01*
X454063Y40222D01*
X454238Y40177D01*
X454390Y40139D01*
X454527Y40093D01*
X454649Y40040D01*
X454756Y40002D01*
X454847Y39956D01*
X454924Y39918D01*
X454977Y39887D01*
X455023Y39864D01*
X455046Y39849D01*
X455053Y39841D01*
X455183Y39742D01*
X455297Y39636D01*
X455404Y39521D01*
X455503Y39399D01*
X455594Y39270D01*
X455670Y39148D01*
X455747Y39018D01*
X455807Y38897D01*
X455861Y38782D01*
X455907Y38676D01*
X455952Y38577D01*
X455983Y38493D01*
X456006Y38424D01*
X456021Y38371D01*
X456036Y38340D01*
Y38325D01*
X454337Y38020D01*
X454268Y38188D01*
X454192Y38333D01*
X454123Y38455D01*
X454047Y38546D01*
X453986Y38615D01*
X453933Y38668D01*
X453903Y38698D01*
X453887Y38706D01*
X453773Y38775D01*
X453643Y38820D01*
X453514Y38858D01*
X453392Y38881D01*
X453278Y38897D01*
X453194Y38904D01*
X452973D01*
X452851Y38897D01*
X452737Y38881D01*
X452638Y38866D01*
X452546Y38851D01*
X452462Y38828D01*
X452386Y38805D01*
X452325Y38790D01*
X452264Y38767D01*
X452219Y38744D01*
X452180Y38721D01*
X452150Y38706D01*
X452112Y38676D01*
X452097Y38668D01*
X452005Y38569D01*
X451944Y38455D01*
X451898Y38325D01*
X451860Y38203D01*
X451845Y38089D01*
X451838Y37990D01*
X451830Y37959D01*
Y37929D01*
Y37914D01*
Y37906D01*
Y37723D01*
X451937Y37685D01*
X452051Y37639D01*
X452188Y37601D01*
X452333Y37563D01*
X452630Y37479D01*
X452935Y37411D01*
X453072Y37380D01*
X453209Y37350D01*
X453331Y37327D01*
X453438Y37304D01*
X453529Y37281D01*
X453590Y37273D01*
X453636Y37258D01*
X453651D01*
X453826Y37220D01*
X453994Y37190D01*
X454154Y37152D01*
X454299Y37113D01*
X454428Y37075D01*
X454550Y37037D01*
X454664Y37007D01*
X454764Y36976D01*
X454855Y36938D01*
X454931Y36915D01*
X454992Y36885D01*
X455046Y36870D01*
X455091Y36847D01*
X455122Y36832D01*
X455137Y36824D01*
X455145D01*
X455327Y36717D01*
X455488Y36603D01*
X455625Y36481D01*
X455739Y36367D01*
X455823Y36260D01*
X455891Y36176D01*
X455914Y36146D01*
X455929Y36123D01*
X455945Y36108D01*
Y36100D01*
X456036Y35925D01*
X456105Y35734D01*
X456158Y35559D01*
X456189Y35391D01*
X456211Y35247D01*
X456219Y35186D01*
Y35132D01*
X456227Y35094D01*
Y35064D01*
Y35041D01*
Y35033D01*
X456219Y34866D01*
X456196Y34706D01*
X456166Y34561D01*
X456128Y34416D01*
X456082Y34286D01*
X456029Y34157D01*
X455975Y34043D01*
X455914Y33944D01*
X455853Y33852D01*
X455800Y33768D01*
X455747Y33700D01*
X455701Y33639D01*
X455663Y33593D01*
X455625Y33563D01*
X455609Y33540D01*
X455602Y33532D01*
X455480Y33425D01*
X455343Y33342D01*
X455206Y33258D01*
X455068Y33197D01*
X454924Y33136D01*
X454779Y33090D01*
X454642Y33052D01*
X454505Y33022D01*
X454375Y32991D01*
X454261Y32976D01*
X454154Y32961D01*
X454063Y32953D01*
X453986D01*
X453925Y32945D01*
X453880D01*
X453651Y32953D01*
X453430Y32983D01*
X453240Y33022D01*
X453064Y33060D01*
X452988Y33082D01*
X452920Y33105D01*
X452859Y33121D01*
X452805Y33136D01*
X452767Y33151D01*
X452737Y33166D01*
X452721Y33174D01*
X452714D01*
X452508Y33273D01*
X452318Y33380D01*
X452150Y33502D01*
X451990Y33616D01*
X451929Y33669D01*
X451868Y33715D01*
X451815Y33761D01*
X451769Y33799D01*
X451731Y33829D01*
X451708Y33852D01*
X451693Y33867D01*
X451685Y33875D01*
X451678Y33852D01*
X451662Y33822D01*
X451639Y33745D01*
X451632Y33707D01*
X451624Y33684D01*
X451617Y33662D01*
Y33654D01*
X451578Y33524D01*
X451540Y33418D01*
X451510Y33319D01*
X451487Y33242D01*
X451464Y33182D01*
X451449Y33143D01*
X451434Y33113D01*
Y33105D01*
X449582D01*
X449666Y33288D01*
X449742Y33463D01*
X449803Y33623D01*
X449849Y33768D01*
X449879Y33883D01*
X449894Y33936D01*
X449910Y33974D01*
X449917Y34004D01*
Y34027D01*
X449925Y34043D01*
Y34050D01*
X449940Y34142D01*
X449955Y34233D01*
X449971Y34454D01*
X449986Y34675D01*
X450001Y34904D01*
Y35010D01*
Y35102D01*
X450009Y35193D01*
Y35269D01*
Y35330D01*
Y35384D01*
Y35414D01*
Y35422D01*
X449978Y37609D01*
Y37830D01*
X449986Y38028D01*
X450001Y38218D01*
X450016Y38386D01*
X450039Y38538D01*
X450054Y38676D01*
X450077Y38798D01*
X450100Y38904D01*
X450131Y38996D01*
X450154Y39079D01*
X450169Y39140D01*
X450192Y39194D01*
X450207Y39232D01*
X450222Y39262D01*
X450230Y39278D01*
Y39285D01*
X450283Y39369D01*
X450336Y39453D01*
X450474Y39598D01*
X450618Y39727D01*
X450756Y39834D01*
X450893Y39925D01*
X450946Y39956D01*
X450999Y39986D01*
X451037Y40009D01*
X451068Y40024D01*
X451091Y40040D01*
X451098D01*
X451220Y40093D01*
X451357Y40139D01*
X451502Y40177D01*
X451647Y40215D01*
X451959Y40268D01*
X452264Y40299D01*
X452401Y40314D01*
X452539Y40321D01*
X452653Y40329D01*
X452760D01*
X452843Y40337D01*
X452965D01*
X453217Y40329D01*
D02*
G37*
G36*
X512416Y40329D02*
X512660Y40291D01*
X512889Y40245D01*
X513110Y40184D01*
X513316Y40108D01*
X513506Y40024D01*
X513681Y39933D01*
X513842Y39841D01*
X513986Y39742D01*
X514116Y39651D01*
X514222Y39567D01*
X514314Y39499D01*
X514390Y39430D01*
X514436Y39384D01*
X514474Y39354D01*
X514482Y39339D01*
X514642Y39140D01*
X514786Y38935D01*
X514908Y38714D01*
X515007Y38485D01*
X515099Y38256D01*
X515175Y38028D01*
X515236Y37807D01*
X515282Y37586D01*
X515320Y37388D01*
X515350Y37197D01*
X515365Y37022D01*
X515381Y36877D01*
X515388Y36755D01*
X515396Y36710D01*
Y36664D01*
Y36634D01*
Y36611D01*
Y36595D01*
Y36588D01*
X515388Y36313D01*
X515365Y36062D01*
X515335Y35810D01*
X515289Y35582D01*
X515236Y35368D01*
X515175Y35170D01*
X515114Y34980D01*
X515045Y34812D01*
X514985Y34667D01*
X514924Y34530D01*
X514863Y34416D01*
X514809Y34325D01*
X514763Y34248D01*
X514733Y34195D01*
X514710Y34157D01*
X514702Y34149D01*
X514527Y33936D01*
X514329Y33753D01*
X514116Y33593D01*
X513902Y33456D01*
X513674Y33334D01*
X513445Y33243D01*
X513217Y33159D01*
X513003Y33098D01*
X512790Y33044D01*
X512599Y33006D01*
X512424Y32984D01*
X512272Y32968D01*
X512203Y32961D01*
X512142Y32953D01*
X512089D01*
X512051Y32945D01*
X511967D01*
X511754Y32953D01*
X511548Y32968D01*
X511357Y32991D01*
X511175Y33029D01*
X510999Y33067D01*
X510839Y33113D01*
X510694Y33166D01*
X510565Y33212D01*
X510443Y33265D01*
X510336Y33311D01*
X510245Y33357D01*
X510169Y33395D01*
X510108Y33433D01*
X510070Y33456D01*
X510039Y33471D01*
X510032Y33479D01*
X509887Y33586D01*
X509757Y33700D01*
X509635Y33822D01*
X509521Y33951D01*
X509422Y34081D01*
X509330Y34210D01*
X509247Y34340D01*
X509170Y34469D01*
X509102Y34584D01*
X509049Y34698D01*
X508995Y34797D01*
X508957Y34881D01*
X508927Y34949D01*
X508904Y35003D01*
X508896Y35033D01*
X508889Y35048D01*
X510755Y35361D01*
X510824Y35178D01*
X510892Y35018D01*
X510969Y34881D01*
X511045Y34774D01*
X511114Y34690D01*
X511167Y34629D01*
X511197Y34599D01*
X511213Y34584D01*
X511327Y34508D01*
X511456Y34446D01*
X511578Y34408D01*
X511693Y34378D01*
X511799Y34363D01*
X511875Y34355D01*
X511906Y34348D01*
X511952D01*
X512066Y34355D01*
X512180Y34370D01*
X512287Y34393D01*
X512386Y34416D01*
X512569Y34492D01*
X512729Y34576D01*
X512798Y34622D01*
X512859Y34660D01*
X512904Y34698D01*
X512950Y34736D01*
X512980Y34759D01*
X513003Y34782D01*
X513018Y34797D01*
X513026Y34805D01*
X513102Y34896D01*
X513171Y34995D01*
X513232Y35094D01*
X513278Y35201D01*
X513361Y35422D01*
X513415Y35628D01*
X513430Y35727D01*
X513445Y35810D01*
X513461Y35894D01*
X513468Y35963D01*
Y36024D01*
X513476Y36062D01*
Y36092D01*
Y36100D01*
X508789D01*
Y36489D01*
X508812Y36854D01*
X508858Y37190D01*
X508911Y37502D01*
X508972Y37792D01*
X509049Y38058D01*
X509132Y38295D01*
X509216Y38500D01*
X509300Y38691D01*
X509376Y38851D01*
X509452Y38988D01*
X509521Y39095D01*
X509582Y39186D01*
X509628Y39247D01*
X509658Y39278D01*
X509666Y39293D01*
X509841Y39476D01*
X510032Y39636D01*
X510237Y39780D01*
X510443Y39895D01*
X510649Y40002D01*
X510854Y40085D01*
X511060Y40154D01*
X511251Y40207D01*
X511441Y40253D01*
X511609Y40283D01*
X511761Y40306D01*
X511898Y40321D01*
X512005Y40329D01*
X512089Y40337D01*
X512157D01*
X512416Y40329D01*
D02*
G37*
G36*
X546600Y41221D02*
X543704D01*
Y33105D01*
X541731D01*
Y41221D01*
X538843D01*
Y42874D01*
X546600D01*
Y41221D01*
D02*
G37*
G36*
X537570Y33105D02*
X533753D01*
X533608Y33113D01*
X533326D01*
X533082Y33121D01*
X532861D01*
X532671Y33128D01*
X532495Y33136D01*
X532350D01*
X532229Y33143D01*
X532130Y33151D01*
X532046D01*
X531977Y33159D01*
X531931D01*
X531893Y33166D01*
X531870D01*
X531588Y33212D01*
X531329Y33281D01*
X531215Y33311D01*
X531108Y33357D01*
X531009Y33395D01*
X530918Y33433D01*
X530834Y33471D01*
X530765Y33509D01*
X530697Y33540D01*
X530651Y33570D01*
X530606Y33593D01*
X530575Y33616D01*
X530560Y33624D01*
X530552Y33631D01*
X530362Y33784D01*
X530194Y33951D01*
X530042Y34119D01*
X529920Y34279D01*
X529828Y34416D01*
X529790Y34477D01*
X529752Y34530D01*
X529729Y34576D01*
X529714Y34606D01*
X529699Y34629D01*
Y34637D01*
X529592Y34873D01*
X529516Y35110D01*
X529463Y35330D01*
X529424Y35529D01*
X529409Y35612D01*
X529402Y35696D01*
X529394Y35765D01*
Y35826D01*
X529386Y35872D01*
Y35910D01*
Y35932D01*
Y35940D01*
X529394Y36092D01*
X529409Y36245D01*
X529432Y36390D01*
X529463Y36527D01*
X529501Y36656D01*
X529539Y36778D01*
X529584Y36892D01*
X529622Y36992D01*
X529668Y37083D01*
X529714Y37167D01*
X529752Y37243D01*
X529790Y37296D01*
X529821Y37350D01*
X529843Y37380D01*
X529859Y37403D01*
X529866Y37411D01*
X529958Y37525D01*
X530064Y37632D01*
X530171Y37731D01*
X530285Y37815D01*
X530400Y37898D01*
X530514Y37975D01*
X530621Y38036D01*
X530735Y38096D01*
X530834Y38142D01*
X530933Y38188D01*
X531017Y38226D01*
X531093Y38249D01*
X531154Y38272D01*
X531200Y38287D01*
X531230Y38302D01*
X531238D01*
X531017Y38417D01*
X530811Y38554D01*
X530644Y38698D01*
X530499Y38836D01*
X530438Y38897D01*
X530392Y38958D01*
X530346Y39018D01*
X530308Y39064D01*
X530278Y39102D01*
X530255Y39133D01*
X530247Y39148D01*
X530240Y39156D01*
X530171Y39262D01*
X530118Y39377D01*
X530064Y39483D01*
X530026Y39590D01*
X529958Y39803D01*
X529912Y40002D01*
X529897Y40085D01*
X529889Y40169D01*
X529874Y40238D01*
Y40299D01*
X529866Y40344D01*
Y40382D01*
Y40405D01*
Y40413D01*
X529882Y40642D01*
X529912Y40855D01*
X529965Y41053D01*
X530019Y41221D01*
X530049Y41297D01*
X530072Y41358D01*
X530103Y41419D01*
X530125Y41465D01*
X530141Y41503D01*
X530156Y41533D01*
X530171Y41548D01*
Y41556D01*
X530285Y41739D01*
X530415Y41899D01*
X530537Y42036D01*
X530659Y42158D01*
X530758Y42249D01*
X530842Y42318D01*
X530872Y42341D01*
X530895Y42356D01*
X530910Y42371D01*
X530918D01*
X531093Y42478D01*
X531268Y42562D01*
X531436Y42630D01*
X531596Y42691D01*
X531733Y42730D01*
X531794Y42745D01*
X531840Y42752D01*
X531886Y42768D01*
X531916D01*
X531931Y42775D01*
X531939D01*
X532053Y42790D01*
X532175Y42806D01*
X532312Y42821D01*
X532449Y42836D01*
X532739Y42851D01*
X533021Y42859D01*
X533150Y42867D01*
X533273D01*
X533379Y42874D01*
X537570D01*
Y33105D01*
D02*
G37*
G36*
X503478Y40321D02*
X503722Y40283D01*
X503951Y40230D01*
X504172Y40154D01*
X504377Y40062D01*
X504568Y39956D01*
X504743Y39849D01*
X504903Y39742D01*
X505048Y39628D01*
X505177Y39521D01*
X505284Y39415D01*
X505376Y39331D01*
X505452Y39255D01*
X505498Y39194D01*
X505536Y39156D01*
X505543Y39140D01*
Y40184D01*
X507281D01*
Y33105D01*
X505406D01*
Y36306D01*
Y36519D01*
X505398Y36717D01*
X505391Y36892D01*
X505383Y37060D01*
X505376Y37205D01*
X505360Y37342D01*
X505353Y37456D01*
X505337Y37563D01*
X505322Y37647D01*
X505315Y37731D01*
X505299Y37792D01*
X505292Y37845D01*
X505284Y37883D01*
X505277Y37906D01*
X505269Y37921D01*
Y37929D01*
X505208Y38089D01*
X505124Y38226D01*
X505040Y38348D01*
X504949Y38447D01*
X504873Y38531D01*
X504804Y38592D01*
X504758Y38622D01*
X504751Y38637D01*
X504743D01*
X504591Y38729D01*
X504438Y38790D01*
X504294Y38836D01*
X504156Y38874D01*
X504042Y38889D01*
X503989Y38897D01*
X503951D01*
X503913Y38904D01*
X503867D01*
X503730Y38897D01*
X503608Y38874D01*
X503501Y38843D01*
X503410Y38813D01*
X503334Y38775D01*
X503273Y38744D01*
X503242Y38721D01*
X503227Y38714D01*
X503128Y38637D01*
X503051Y38554D01*
X502983Y38470D01*
X502922Y38386D01*
X502884Y38310D01*
X502853Y38241D01*
X502838Y38203D01*
X502831Y38196D01*
Y38188D01*
X502808Y38119D01*
X502793Y38028D01*
X502777Y37929D01*
X502762Y37815D01*
X502739Y37571D01*
X502724Y37327D01*
X502716Y37205D01*
Y37091D01*
X502709Y36984D01*
Y36892D01*
Y36816D01*
Y36763D01*
Y36725D01*
Y36710D01*
Y33105D01*
X500834D01*
Y37494D01*
Y37647D01*
X500842Y37784D01*
Y37914D01*
X500849Y38036D01*
X500857Y38150D01*
X500865Y38256D01*
X500880Y38348D01*
X500887Y38432D01*
X500895Y38508D01*
X500910Y38569D01*
X500918Y38630D01*
X500926Y38668D01*
X500933Y38706D01*
Y38729D01*
X500941Y38744D01*
Y38752D01*
X500987Y38912D01*
X501048Y39064D01*
X501108Y39194D01*
X501169Y39308D01*
X501223Y39407D01*
X501269Y39476D01*
X501299Y39521D01*
X501314Y39537D01*
X501421Y39659D01*
X501543Y39773D01*
X501672Y39872D01*
X501794Y39956D01*
X501908Y40017D01*
X502000Y40070D01*
X502038Y40085D01*
X502061Y40101D01*
X502076Y40108D01*
X502084D01*
X502282Y40184D01*
X502480Y40238D01*
X502671Y40283D01*
X502846Y40306D01*
X502922Y40321D01*
X502991D01*
X503059Y40329D01*
X503112Y40337D01*
X503219D01*
X503478Y40321D01*
D02*
G37*
G36*
X479910Y40329D02*
X480062Y40299D01*
X480199Y40268D01*
X480321Y40222D01*
X480420Y40184D01*
X480496Y40146D01*
X480542Y40116D01*
X480550Y40108D01*
X480557D01*
X480626Y40062D01*
X480695Y40002D01*
X480763Y39941D01*
X480832Y39872D01*
X480969Y39720D01*
X481091Y39560D01*
X481197Y39415D01*
X481243Y39346D01*
X481281Y39293D01*
X481312Y39247D01*
X481334Y39209D01*
X481350Y39186D01*
X481357Y39179D01*
Y40184D01*
X483095D01*
Y33105D01*
X481220D01*
Y35285D01*
Y35612D01*
X481213Y35902D01*
X481205Y36176D01*
X481197Y36420D01*
X481182Y36633D01*
X481175Y36832D01*
X481159Y36999D01*
X481144Y37144D01*
X481129Y37273D01*
X481114Y37380D01*
X481106Y37472D01*
X481091Y37540D01*
X481083Y37594D01*
X481076Y37624D01*
X481068Y37647D01*
Y37655D01*
X481037Y37761D01*
X481007Y37853D01*
X480969Y37936D01*
X480931Y38020D01*
X480862Y38157D01*
X480793Y38264D01*
X480733Y38340D01*
X480687Y38394D01*
X480656Y38432D01*
X480641Y38439D01*
X480534Y38516D01*
X480420Y38569D01*
X480306Y38607D01*
X480199Y38630D01*
X480108Y38653D01*
X480039Y38660D01*
X479971D01*
X479818Y38645D01*
X479666Y38615D01*
X479513Y38561D01*
X479384Y38508D01*
X479262Y38447D01*
X479216Y38424D01*
X479170Y38394D01*
X479140Y38378D01*
X479117Y38363D01*
X479102Y38348D01*
X479094D01*
X478507Y39979D01*
X478622Y40040D01*
X478728Y40100D01*
X478950Y40184D01*
X479163Y40253D01*
X479353Y40291D01*
X479437Y40306D01*
X479513Y40321D01*
X479582Y40329D01*
X479635D01*
X479689Y40337D01*
X479750D01*
X479910Y40329D01*
D02*
G37*
G36*
X473897Y33105D02*
X470080D01*
X469935Y33113D01*
X469653D01*
X469409Y33121D01*
X469188D01*
X468998Y33128D01*
X468823Y33136D01*
X468678D01*
X468556Y33143D01*
X468457Y33151D01*
X468373D01*
X468304Y33159D01*
X468259D01*
X468220Y33166D01*
X468198D01*
X467916Y33212D01*
X467657Y33281D01*
X467542Y33311D01*
X467436Y33357D01*
X467337Y33395D01*
X467245Y33433D01*
X467161Y33471D01*
X467093Y33509D01*
X467024Y33540D01*
X466978Y33570D01*
X466933Y33593D01*
X466902Y33616D01*
X466887Y33623D01*
X466879Y33631D01*
X466689Y33784D01*
X466521Y33951D01*
X466369Y34119D01*
X466247Y34279D01*
X466156Y34416D01*
X466117Y34477D01*
X466079Y34530D01*
X466056Y34576D01*
X466041Y34606D01*
X466026Y34629D01*
Y34637D01*
X465919Y34873D01*
X465843Y35109D01*
X465790Y35330D01*
X465752Y35529D01*
X465736Y35612D01*
X465729Y35696D01*
X465721Y35765D01*
Y35826D01*
X465714Y35871D01*
Y35910D01*
Y35932D01*
Y35940D01*
X465721Y36092D01*
X465736Y36245D01*
X465759Y36390D01*
X465790Y36527D01*
X465828Y36656D01*
X465866Y36778D01*
X465912Y36892D01*
X465950Y36992D01*
X465995Y37083D01*
X466041Y37167D01*
X466079Y37243D01*
X466117Y37296D01*
X466148Y37350D01*
X466171Y37380D01*
X466186Y37403D01*
X466194Y37411D01*
X466285Y37525D01*
X466392Y37632D01*
X466498Y37731D01*
X466613Y37815D01*
X466727Y37898D01*
X466841Y37975D01*
X466948Y38036D01*
X467062Y38096D01*
X467161Y38142D01*
X467260Y38188D01*
X467344Y38226D01*
X467420Y38249D01*
X467481Y38272D01*
X467527Y38287D01*
X467558Y38302D01*
X467565D01*
X467344Y38417D01*
X467138Y38554D01*
X466971Y38698D01*
X466826Y38836D01*
X466765Y38897D01*
X466719Y38958D01*
X466674Y39018D01*
X466636Y39064D01*
X466605Y39102D01*
X466582Y39133D01*
X466575Y39148D01*
X466567Y39156D01*
X466498Y39262D01*
X466445Y39377D01*
X466392Y39483D01*
X466354Y39590D01*
X466285Y39803D01*
X466239Y40002D01*
X466224Y40085D01*
X466217Y40169D01*
X466201Y40238D01*
Y40299D01*
X466194Y40344D01*
Y40382D01*
Y40405D01*
Y40413D01*
X466209Y40641D01*
X466239Y40855D01*
X466293Y41053D01*
X466346Y41221D01*
X466376Y41297D01*
X466399Y41358D01*
X466430Y41419D01*
X466453Y41465D01*
X466468Y41503D01*
X466483Y41533D01*
X466498Y41548D01*
Y41556D01*
X466613Y41739D01*
X466742Y41899D01*
X466864Y42036D01*
X466986Y42158D01*
X467085Y42249D01*
X467169Y42318D01*
X467199Y42341D01*
X467222Y42356D01*
X467238Y42371D01*
X467245D01*
X467420Y42478D01*
X467596Y42562D01*
X467763Y42630D01*
X467923Y42691D01*
X468060Y42729D01*
X468121Y42745D01*
X468167Y42752D01*
X468213Y42768D01*
X468243D01*
X468259Y42775D01*
X468266D01*
X468381Y42790D01*
X468503Y42806D01*
X468640Y42821D01*
X468777Y42836D01*
X469066Y42851D01*
X469348Y42859D01*
X469478Y42867D01*
X469600D01*
X469706Y42874D01*
X473897D01*
Y33105D01*
D02*
G37*
G36*
X445041Y40329D02*
X445193Y40299D01*
X445330Y40268D01*
X445452Y40222D01*
X445551Y40184D01*
X445627Y40146D01*
X445673Y40116D01*
X445681Y40108D01*
X445688D01*
X445757Y40062D01*
X445825Y40002D01*
X445894Y39941D01*
X445962Y39872D01*
X446100Y39720D01*
X446222Y39560D01*
X446328Y39415D01*
X446374Y39346D01*
X446412Y39293D01*
X446443Y39247D01*
X446465Y39209D01*
X446481Y39186D01*
X446488Y39179D01*
Y40184D01*
X448226D01*
Y33105D01*
X446351D01*
Y35285D01*
Y35612D01*
X446343Y35902D01*
X446336Y36176D01*
X446328Y36420D01*
X446313Y36633D01*
X446305Y36832D01*
X446290Y36999D01*
X446275Y37144D01*
X446260Y37273D01*
X446244Y37380D01*
X446237Y37472D01*
X446222Y37540D01*
X446214Y37594D01*
X446206Y37624D01*
X446199Y37647D01*
Y37655D01*
X446168Y37761D01*
X446138Y37853D01*
X446100Y37936D01*
X446062Y38020D01*
X445993Y38157D01*
X445924Y38264D01*
X445863Y38340D01*
X445818Y38394D01*
X445787Y38432D01*
X445772Y38439D01*
X445665Y38516D01*
X445551Y38569D01*
X445437Y38607D01*
X445330Y38630D01*
X445239Y38653D01*
X445170Y38660D01*
X445101D01*
X444949Y38645D01*
X444797Y38615D01*
X444644Y38561D01*
X444515Y38508D01*
X444393Y38447D01*
X444347Y38424D01*
X444301Y38394D01*
X444271Y38378D01*
X444248Y38363D01*
X444233Y38348D01*
X444225D01*
X443638Y39979D01*
X443753Y40040D01*
X443859Y40100D01*
X444080Y40184D01*
X444294Y40253D01*
X444484Y40291D01*
X444568Y40306D01*
X444644Y40321D01*
X444713Y40329D01*
X444766D01*
X444819Y40337D01*
X444880D01*
X445041Y40329D01*
D02*
G37*
G36*
X496636Y40329D02*
X496895Y40306D01*
X497131Y40276D01*
X497352Y40238D01*
X497557Y40192D01*
X497740Y40139D01*
X497908Y40078D01*
X498053Y40024D01*
X498190Y39963D01*
X498297Y39902D01*
X498396Y39849D01*
X498472Y39803D01*
X498533Y39765D01*
X498571Y39735D01*
X498601Y39712D01*
X498609Y39704D01*
X498739Y39582D01*
X498845Y39460D01*
X498944Y39331D01*
X499028Y39201D01*
X499097Y39072D01*
X499158Y38942D01*
X499203Y38813D01*
X499241Y38698D01*
X499272Y38584D01*
X499295Y38485D01*
X499310Y38394D01*
X499318Y38310D01*
X499325Y38249D01*
X499333Y38196D01*
Y38165D01*
Y38157D01*
X499325Y37975D01*
X499295Y37799D01*
X499257Y37632D01*
X499203Y37479D01*
X499135Y37342D01*
X499066Y37205D01*
X498990Y37091D01*
X498914Y36984D01*
X498838Y36885D01*
X498761Y36801D01*
X498685Y36732D01*
X498624Y36672D01*
X498571Y36626D01*
X498533Y36595D01*
X498502Y36572D01*
X498495Y36565D01*
X498434Y36527D01*
X498365Y36489D01*
X498281Y36451D01*
X498198Y36405D01*
X498007Y36329D01*
X497794Y36253D01*
X497565Y36176D01*
X497321Y36100D01*
X496834Y35955D01*
X496597Y35894D01*
X496369Y35833D01*
X496163Y35788D01*
X495988Y35742D01*
X495904Y35727D01*
X495835Y35704D01*
X495774Y35696D01*
X495721Y35681D01*
X495675Y35673D01*
X495645Y35666D01*
X495630Y35658D01*
X495622D01*
X495538Y35635D01*
X495454Y35612D01*
X495317Y35574D01*
X495211Y35529D01*
X495127Y35491D01*
X495066Y35460D01*
X495028Y35429D01*
X495005Y35414D01*
X494997Y35407D01*
X494952Y35353D01*
X494921Y35292D01*
X494891Y35239D01*
X494875Y35178D01*
X494868Y35132D01*
X494860Y35094D01*
Y35064D01*
Y35056D01*
X494868Y34942D01*
X494898Y34843D01*
X494936Y34759D01*
X494982Y34690D01*
X495035Y34629D01*
X495073Y34591D01*
X495104Y34561D01*
X495112Y34553D01*
X495180Y34508D01*
X495264Y34469D01*
X495439Y34401D01*
X495622Y34355D01*
X495797Y34325D01*
X495957Y34309D01*
X496026Y34302D01*
X496087D01*
X496140Y34294D01*
X496209D01*
X496437Y34309D01*
X496643Y34340D01*
X496818Y34386D01*
X496902Y34408D01*
X496971Y34439D01*
X497032Y34462D01*
X497085Y34485D01*
X497131Y34508D01*
X497169Y34530D01*
X497199Y34553D01*
X497222Y34561D01*
X497230Y34576D01*
X497238D01*
X497359Y34690D01*
X497466Y34827D01*
X497550Y34965D01*
X497611Y35094D01*
X497664Y35216D01*
X497679Y35269D01*
X497695Y35315D01*
X497702Y35353D01*
X497710Y35384D01*
X497718Y35399D01*
Y35407D01*
X499592Y35117D01*
X499539Y34934D01*
X499470Y34759D01*
X499394Y34599D01*
X499310Y34446D01*
X499226Y34302D01*
X499127Y34172D01*
X499036Y34050D01*
X498944Y33944D01*
X498861Y33844D01*
X498777Y33761D01*
X498700Y33692D01*
X498632Y33631D01*
X498571Y33586D01*
X498533Y33555D01*
X498502Y33532D01*
X498495Y33524D01*
X498327Y33425D01*
X498152Y33334D01*
X497969Y33258D01*
X497779Y33189D01*
X497588Y33136D01*
X497397Y33090D01*
X497215Y33052D01*
X497032Y33022D01*
X496864Y32991D01*
X496712Y32976D01*
X496567Y32961D01*
X496445Y32953D01*
X496346D01*
X496270Y32945D01*
X496209D01*
X495919Y32953D01*
X495645Y32976D01*
X495393Y33006D01*
X495157Y33052D01*
X494944Y33105D01*
X494746Y33166D01*
X494571Y33227D01*
X494411Y33296D01*
X494266Y33357D01*
X494144Y33418D01*
X494037Y33479D01*
X493953Y33532D01*
X493885Y33578D01*
X493839Y33608D01*
X493809Y33631D01*
X493801Y33639D01*
X493656Y33776D01*
X493534Y33913D01*
X493420Y34050D01*
X493328Y34195D01*
X493252Y34340D01*
X493184Y34477D01*
X493130Y34606D01*
X493085Y34736D01*
X493054Y34858D01*
X493031Y34965D01*
X493008Y35064D01*
X493001Y35148D01*
X492993Y35216D01*
X492985Y35262D01*
Y35300D01*
Y35308D01*
X492993Y35468D01*
X493008Y35620D01*
X493039Y35765D01*
X493077Y35902D01*
X493123Y36024D01*
X493168Y36138D01*
X493222Y36245D01*
X493275Y36336D01*
X493336Y36420D01*
X493389Y36496D01*
X493435Y36557D01*
X493481Y36611D01*
X493519Y36649D01*
X493549Y36679D01*
X493565Y36694D01*
X493572Y36702D01*
X493694Y36793D01*
X493831Y36877D01*
X493984Y36961D01*
X494151Y37037D01*
X494494Y37182D01*
X494845Y37304D01*
X495005Y37350D01*
X495165Y37396D01*
X495302Y37441D01*
X495424Y37472D01*
X495523Y37494D01*
X495599Y37517D01*
X495630Y37525D01*
X495653Y37533D01*
X495668D01*
X495934Y37594D01*
X496171Y37655D01*
X496384Y37708D01*
X496567Y37761D01*
X496735Y37807D01*
X496879Y37853D01*
X497001Y37891D01*
X497100Y37921D01*
X497184Y37959D01*
X497253Y37982D01*
X497306Y38005D01*
X497352Y38028D01*
X497382Y38043D01*
X497397Y38051D01*
X497413Y38058D01*
X497474Y38112D01*
X497519Y38173D01*
X497550Y38226D01*
X497573Y38279D01*
X497588Y38333D01*
X497596Y38371D01*
Y38394D01*
Y38401D01*
X497588Y38485D01*
X497565Y38554D01*
X497527Y38622D01*
X497489Y38676D01*
X497458Y38714D01*
X497420Y38752D01*
X497397Y38767D01*
X497390Y38775D01*
X497321Y38813D01*
X497253Y38843D01*
X497085Y38897D01*
X496910Y38935D01*
X496735Y38965D01*
X496575Y38980D01*
X496506D01*
X496445Y38988D01*
X496323D01*
X496117Y38980D01*
X495934Y38958D01*
X495782Y38919D01*
X495653Y38881D01*
X495554Y38836D01*
X495485Y38805D01*
X495439Y38775D01*
X495424Y38767D01*
X495310Y38676D01*
X495218Y38577D01*
X495142Y38470D01*
X495089Y38371D01*
X495043Y38279D01*
X495012Y38203D01*
X495005Y38173D01*
X494997Y38150D01*
X494990Y38142D01*
Y38135D01*
X493222Y38462D01*
X493275Y38630D01*
X493344Y38790D01*
X493412Y38935D01*
X493488Y39072D01*
X493565Y39194D01*
X493648Y39308D01*
X493732Y39415D01*
X493809Y39506D01*
X493885Y39590D01*
X493961Y39659D01*
X494022Y39720D01*
X494083Y39765D01*
X494128Y39811D01*
X494167Y39834D01*
X494189Y39849D01*
X494197Y39857D01*
X494334Y39941D01*
X494494Y40017D01*
X494662Y40078D01*
X494837Y40131D01*
X495012Y40184D01*
X495195Y40223D01*
X495371Y40253D01*
X495546Y40276D01*
X495706Y40299D01*
X495866Y40314D01*
X496003Y40321D01*
X496125Y40329D01*
X496224Y40337D01*
X496361D01*
X496636Y40329D01*
D02*
G37*
G36*
X488330D02*
X488520Y40314D01*
X488695Y40291D01*
X488871Y40268D01*
X489038Y40230D01*
X489191Y40192D01*
X489336Y40146D01*
X489465Y40108D01*
X489587Y40062D01*
X489701Y40017D01*
X489793Y39979D01*
X489869Y39948D01*
X489938Y39918D01*
X489983Y39895D01*
X490014Y39880D01*
X490021Y39872D01*
X490174Y39780D01*
X490318Y39681D01*
X490456Y39582D01*
X490578Y39468D01*
X490692Y39361D01*
X490799Y39247D01*
X490898Y39140D01*
X490981Y39034D01*
X491058Y38935D01*
X491126Y38843D01*
X491187Y38759D01*
X491233Y38683D01*
X491271Y38622D01*
X491294Y38577D01*
X491309Y38546D01*
X491317Y38538D01*
X491401Y38378D01*
X491469Y38211D01*
X491530Y38051D01*
X491583Y37891D01*
X491622Y37738D01*
X491660Y37586D01*
X491690Y37449D01*
X491713Y37312D01*
X491736Y37190D01*
X491751Y37083D01*
X491759Y36984D01*
X491766Y36900D01*
X491774Y36832D01*
Y36778D01*
Y36748D01*
Y36740D01*
X491766Y36519D01*
X491751Y36298D01*
X491728Y36100D01*
X491705Y35902D01*
X491667Y35719D01*
X491629Y35551D01*
X491591Y35391D01*
X491545Y35247D01*
X491500Y35117D01*
X491461Y35003D01*
X491423Y34904D01*
X491385Y34820D01*
X491362Y34751D01*
X491340Y34706D01*
X491324Y34675D01*
X491317Y34667D01*
X491225Y34515D01*
X491126Y34370D01*
X491027Y34233D01*
X490913Y34111D01*
X490806Y33997D01*
X490692Y33890D01*
X490585Y33791D01*
X490479Y33707D01*
X490379Y33631D01*
X490288Y33563D01*
X490197Y33509D01*
X490128Y33463D01*
X490067Y33425D01*
X490021Y33403D01*
X489991Y33387D01*
X489983Y33380D01*
X489816Y33303D01*
X489648Y33235D01*
X489480Y33182D01*
X489320Y33128D01*
X489160Y33090D01*
X489008Y33052D01*
X488863Y33022D01*
X488718Y32999D01*
X488596Y32984D01*
X488482Y32968D01*
X488375Y32961D01*
X488292Y32953D01*
X488223Y32945D01*
X488124D01*
X487834Y32961D01*
X487560Y32991D01*
X487301Y33044D01*
X487057Y33113D01*
X486821Y33189D01*
X486608Y33281D01*
X486409Y33372D01*
X486234Y33471D01*
X486074Y33570D01*
X485929Y33662D01*
X485807Y33753D01*
X485701Y33829D01*
X485625Y33898D01*
X485564Y33951D01*
X485533Y33982D01*
X485518Y33997D01*
X485335Y34203D01*
X485175Y34416D01*
X485038Y34637D01*
X484916Y34858D01*
X484817Y35087D01*
X484733Y35308D01*
X484664Y35521D01*
X484611Y35727D01*
X484565Y35917D01*
X484535Y36092D01*
X484512Y36252D01*
X484497Y36390D01*
X484489Y36504D01*
X484482Y36550D01*
Y36588D01*
Y36618D01*
Y36641D01*
Y36649D01*
Y36656D01*
X484489Y36946D01*
X484527Y37228D01*
X484573Y37494D01*
X484642Y37738D01*
X484718Y37975D01*
X484809Y38188D01*
X484901Y38394D01*
X484992Y38569D01*
X485091Y38737D01*
X485183Y38881D01*
X485274Y39003D01*
X485350Y39102D01*
X485419Y39186D01*
X485465Y39247D01*
X485495Y39278D01*
X485510Y39293D01*
X485708Y39476D01*
X485914Y39636D01*
X486135Y39780D01*
X486348Y39895D01*
X486570Y40002D01*
X486791Y40085D01*
X487004Y40154D01*
X487210Y40207D01*
X487400Y40253D01*
X487575Y40283D01*
X487735Y40306D01*
X487873Y40321D01*
X487987Y40329D01*
X488032Y40337D01*
X488139D01*
X488330Y40329D01*
D02*
G37*
G36*
X461050Y40329D02*
X461241Y40314D01*
X461416Y40291D01*
X461591Y40268D01*
X461759Y40230D01*
X461911Y40192D01*
X462056Y40146D01*
X462186Y40108D01*
X462307Y40062D01*
X462422Y40017D01*
X462513Y39979D01*
X462589Y39948D01*
X462658Y39918D01*
X462704Y39895D01*
X462734Y39880D01*
X462742Y39872D01*
X462894Y39780D01*
X463039Y39681D01*
X463176Y39582D01*
X463298Y39468D01*
X463412Y39361D01*
X463519Y39247D01*
X463618Y39140D01*
X463702Y39034D01*
X463778Y38935D01*
X463847Y38843D01*
X463908Y38759D01*
X463953Y38683D01*
X463991Y38622D01*
X464014Y38577D01*
X464030Y38546D01*
X464037Y38538D01*
X464121Y38378D01*
X464189Y38211D01*
X464250Y38051D01*
X464304Y37891D01*
X464342Y37738D01*
X464380Y37586D01*
X464411Y37449D01*
X464433Y37312D01*
X464456Y37190D01*
X464472Y37083D01*
X464479Y36984D01*
X464487Y36900D01*
X464494Y36832D01*
Y36778D01*
Y36748D01*
Y36740D01*
X464487Y36519D01*
X464472Y36298D01*
X464449Y36100D01*
X464426Y35902D01*
X464388Y35719D01*
X464350Y35551D01*
X464311Y35391D01*
X464266Y35247D01*
X464220Y35117D01*
X464182Y35003D01*
X464144Y34904D01*
X464106Y34820D01*
X464083Y34751D01*
X464060Y34706D01*
X464045Y34675D01*
X464037Y34667D01*
X463946Y34515D01*
X463847Y34370D01*
X463748Y34233D01*
X463633Y34111D01*
X463527Y33997D01*
X463412Y33890D01*
X463306Y33791D01*
X463199Y33707D01*
X463100Y33631D01*
X463008Y33563D01*
X462917Y33509D01*
X462848Y33463D01*
X462788Y33425D01*
X462742Y33403D01*
X462711Y33387D01*
X462704Y33380D01*
X462536Y33303D01*
X462368Y33235D01*
X462201Y33182D01*
X462041Y33128D01*
X461881Y33090D01*
X461728Y33052D01*
X461584Y33022D01*
X461439Y32999D01*
X461317Y32983D01*
X461203Y32968D01*
X461096Y32961D01*
X461012Y32953D01*
X460943Y32945D01*
X460844D01*
X460555Y32961D01*
X460280Y32991D01*
X460021Y33044D01*
X459778Y33113D01*
X459541Y33189D01*
X459328Y33281D01*
X459130Y33372D01*
X458955Y33471D01*
X458795Y33570D01*
X458650Y33662D01*
X458528Y33753D01*
X458421Y33829D01*
X458345Y33898D01*
X458284Y33951D01*
X458254Y33982D01*
X458238Y33997D01*
X458055Y34203D01*
X457895Y34416D01*
X457758Y34637D01*
X457636Y34858D01*
X457537Y35087D01*
X457453Y35308D01*
X457385Y35521D01*
X457332Y35727D01*
X457286Y35917D01*
X457255Y36092D01*
X457233Y36252D01*
X457217Y36390D01*
X457210Y36504D01*
X457202Y36550D01*
Y36588D01*
Y36618D01*
Y36641D01*
Y36649D01*
Y36656D01*
X457210Y36946D01*
X457248Y37228D01*
X457293Y37494D01*
X457362Y37738D01*
X457438Y37975D01*
X457530Y38188D01*
X457621Y38394D01*
X457713Y38569D01*
X457812Y38737D01*
X457903Y38881D01*
X457994Y39003D01*
X458071Y39102D01*
X458139Y39186D01*
X458185Y39247D01*
X458215Y39278D01*
X458231Y39293D01*
X458429Y39476D01*
X458635Y39636D01*
X458856Y39780D01*
X459069Y39895D01*
X459290Y40002D01*
X459511Y40085D01*
X459724Y40154D01*
X459930Y40207D01*
X460121Y40253D01*
X460296Y40283D01*
X460456Y40306D01*
X460593Y40321D01*
X460707Y40329D01*
X460753Y40337D01*
X460860D01*
X461050Y40329D01*
D02*
G37*
G36*
X438228Y39346D02*
X438396Y39521D01*
X438563Y39674D01*
X438739Y39803D01*
X438914Y39918D01*
X439089Y40017D01*
X439257Y40093D01*
X439425Y40161D01*
X439577Y40215D01*
X439722Y40253D01*
X439859Y40283D01*
X439981Y40306D01*
X440080Y40321D01*
X440164Y40329D01*
X440225Y40337D01*
X440278D01*
X440514Y40329D01*
X440743Y40299D01*
X440956Y40253D01*
X441162Y40192D01*
X441345Y40123D01*
X441528Y40040D01*
X441688Y39956D01*
X441833Y39872D01*
X441970Y39780D01*
X442084Y39697D01*
X442183Y39620D01*
X442267Y39544D01*
X442335Y39483D01*
X442381Y39438D01*
X442412Y39407D01*
X442419Y39399D01*
X442564Y39217D01*
X442693Y39011D01*
X442808Y38798D01*
X442907Y38577D01*
X442983Y38348D01*
X443052Y38119D01*
X443105Y37898D01*
X443151Y37677D01*
X443189Y37472D01*
X443212Y37281D01*
X443234Y37113D01*
X443242Y36961D01*
X443250Y36892D01*
Y36839D01*
X443257Y36786D01*
Y36740D01*
Y36710D01*
Y36687D01*
Y36672D01*
Y36664D01*
X443250Y36344D01*
X443219Y36039D01*
X443174Y35757D01*
X443120Y35490D01*
X443059Y35247D01*
X442983Y35026D01*
X442907Y34820D01*
X442823Y34629D01*
X442739Y34469D01*
X442663Y34325D01*
X442587Y34203D01*
X442526Y34104D01*
X442465Y34020D01*
X442427Y33966D01*
X442396Y33936D01*
X442389Y33921D01*
X442221Y33753D01*
X442053Y33601D01*
X441871Y33471D01*
X441695Y33357D01*
X441520Y33265D01*
X441345Y33182D01*
X441185Y33121D01*
X441025Y33067D01*
X440872Y33029D01*
X440735Y32999D01*
X440613Y32976D01*
X440514Y32961D01*
X440423Y32953D01*
X440362Y32945D01*
X440308D01*
X440088Y32961D01*
X439866Y32991D01*
X439668Y33037D01*
X439486Y33090D01*
X439409Y33121D01*
X439333Y33143D01*
X439272Y33166D01*
X439219Y33189D01*
X439181Y33212D01*
X439143Y33220D01*
X439127Y33235D01*
X439120D01*
X438906Y33357D01*
X438708Y33502D01*
X438533Y33654D01*
X438381Y33799D01*
X438320Y33867D01*
X438259Y33936D01*
X438213Y33989D01*
X438167Y34043D01*
X438137Y34081D01*
X438114Y34119D01*
X438099Y34134D01*
X438091Y34142D01*
Y33105D01*
X436354D01*
Y42874D01*
X438228D01*
Y39346D01*
D02*
G37*
G36*
X551995Y43019D02*
X552185Y43004D01*
X552368Y42981D01*
X552536Y42958D01*
X552696Y42928D01*
X552841Y42897D01*
X552970Y42867D01*
X553092Y42828D01*
X553199Y42798D01*
X553290Y42768D01*
X553366Y42745D01*
X553427Y42722D01*
X553473Y42707D01*
X553504Y42699D01*
X553511Y42691D01*
X553656Y42623D01*
X553793Y42554D01*
X553915Y42470D01*
X554037Y42394D01*
X554144Y42310D01*
X554243Y42227D01*
X554334Y42143D01*
X554418Y42066D01*
X554487Y41990D01*
X554555Y41922D01*
X554608Y41861D01*
X554654Y41807D01*
X554685Y41762D01*
X554707Y41731D01*
X554723Y41708D01*
X554730Y41701D01*
X554807Y41579D01*
X554868Y41457D01*
X554921Y41335D01*
X554974Y41213D01*
X555050Y40977D01*
X555096Y40764D01*
X555111Y40664D01*
X555127Y40581D01*
X555134Y40497D01*
X555142Y40436D01*
X555149Y40382D01*
Y40337D01*
Y40314D01*
Y40306D01*
X555142Y40093D01*
X555111Y39887D01*
X555066Y39697D01*
X555012Y39514D01*
X554944Y39339D01*
X554868Y39179D01*
X554784Y39026D01*
X554700Y38889D01*
X554616Y38767D01*
X554532Y38660D01*
X554456Y38561D01*
X554388Y38485D01*
X554334Y38424D01*
X554288Y38378D01*
X554258Y38348D01*
X554250Y38340D01*
X554121Y38234D01*
X553976Y38135D01*
X553808Y38036D01*
X553633Y37952D01*
X553267Y37784D01*
X552902Y37639D01*
X552726Y37578D01*
X552559Y37525D01*
X552414Y37479D01*
X552284Y37441D01*
X552178Y37411D01*
X552094Y37388D01*
X552063Y37380D01*
X552040D01*
X552033Y37373D01*
X552025D01*
X551804Y37319D01*
X551606Y37266D01*
X551423Y37220D01*
X551263Y37174D01*
X551119Y37136D01*
X550989Y37106D01*
X550875Y37075D01*
X550776Y37045D01*
X550692Y37022D01*
X550623Y36999D01*
X550570Y36984D01*
X550524Y36969D01*
X550486Y36961D01*
X550463Y36953D01*
X550456Y36946D01*
X550448D01*
X550273Y36877D01*
X550128Y36809D01*
X550006Y36740D01*
X549907Y36672D01*
X549831Y36611D01*
X549777Y36565D01*
X549747Y36534D01*
X549739Y36527D01*
X549671Y36428D01*
X549617Y36329D01*
X549587Y36230D01*
X549556Y36138D01*
X549541Y36054D01*
X549534Y35993D01*
Y35948D01*
Y35940D01*
Y35932D01*
X549541Y35833D01*
X549556Y35734D01*
X549579Y35643D01*
X549610Y35559D01*
X549686Y35399D01*
X549777Y35254D01*
X549869Y35148D01*
X549907Y35094D01*
X549945Y35056D01*
X549976Y35026D01*
X549998Y35003D01*
X550014Y34995D01*
X550021Y34987D01*
X550113Y34919D01*
X550219Y34858D01*
X550334Y34805D01*
X550448Y34759D01*
X550684Y34690D01*
X550920Y34645D01*
X551027Y34622D01*
X551126Y34614D01*
X551218Y34606D01*
X551294Y34599D01*
X551362Y34591D01*
X551454D01*
X551621Y34599D01*
X551774Y34614D01*
X551919Y34629D01*
X552056Y34660D01*
X552185Y34698D01*
X552300Y34736D01*
X552406Y34774D01*
X552505Y34820D01*
X552597Y34858D01*
X552673Y34896D01*
X552734Y34934D01*
X552787Y34972D01*
X552833Y35003D01*
X552864Y35018D01*
X552879Y35033D01*
X552886Y35041D01*
X552978Y35132D01*
X553069Y35231D01*
X553145Y35346D01*
X553214Y35460D01*
X553336Y35696D01*
X553427Y35925D01*
X553465Y36031D01*
X553496Y36138D01*
X553526Y36230D01*
X553542Y36306D01*
X553557Y36374D01*
X553572Y36420D01*
X553580Y36458D01*
Y36466D01*
X555500Y36283D01*
X555454Y35986D01*
X555393Y35704D01*
X555317Y35437D01*
X555233Y35201D01*
X555142Y34972D01*
X555043Y34767D01*
X554944Y34584D01*
X554837Y34416D01*
X554738Y34264D01*
X554639Y34134D01*
X554555Y34027D01*
X554479Y33936D01*
X554410Y33867D01*
X554365Y33814D01*
X554327Y33784D01*
X554319Y33776D01*
X554121Y33624D01*
X553915Y33494D01*
X553686Y33380D01*
X553458Y33281D01*
X553222Y33197D01*
X552985Y33128D01*
X552749Y33075D01*
X552528Y33029D01*
X552315Y32991D01*
X552117Y32968D01*
X551934Y32945D01*
X551781Y32938D01*
X551713Y32930D01*
X551652D01*
X551599Y32922D01*
X551477D01*
X551240Y32930D01*
X551019Y32938D01*
X550806Y32953D01*
X550608Y32976D01*
X550418Y33006D01*
X550242Y33037D01*
X550082Y33067D01*
X549937Y33098D01*
X549808Y33128D01*
X549686Y33159D01*
X549587Y33189D01*
X549503Y33220D01*
X549435Y33243D01*
X549389Y33258D01*
X549358Y33273D01*
X549351D01*
X549198Y33342D01*
X549046Y33425D01*
X548909Y33509D01*
X548787Y33593D01*
X548665Y33684D01*
X548558Y33776D01*
X548459Y33867D01*
X548368Y33951D01*
X548292Y34035D01*
X548223Y34111D01*
X548170Y34180D01*
X548116Y34241D01*
X548078Y34294D01*
X548055Y34332D01*
X548040Y34355D01*
X548032Y34363D01*
X547949Y34500D01*
X547880Y34645D01*
X547811Y34782D01*
X547758Y34919D01*
X547712Y35056D01*
X547674Y35186D01*
X547644Y35315D01*
X547621Y35429D01*
X547598Y35536D01*
X547583Y35635D01*
X547575Y35727D01*
X547568Y35795D01*
X547560Y35856D01*
Y35902D01*
Y35932D01*
Y35940D01*
X547568Y36108D01*
X547575Y36275D01*
X547598Y36428D01*
X547621Y36572D01*
X547651Y36710D01*
X547682Y36839D01*
X547720Y36961D01*
X547758Y37068D01*
X547796Y37159D01*
X547834Y37251D01*
X547865Y37319D01*
X547895Y37380D01*
X547918Y37434D01*
X547941Y37464D01*
X547949Y37487D01*
X547956Y37494D01*
X548116Y37715D01*
X548292Y37921D01*
X548467Y38089D01*
X548642Y38234D01*
X548726Y38295D01*
X548794Y38340D01*
X548863Y38386D01*
X548924Y38424D01*
X548970Y38455D01*
X549008Y38477D01*
X549031Y38485D01*
X549038Y38493D01*
X549175Y38561D01*
X549328Y38630D01*
X549488Y38691D01*
X549663Y38759D01*
X550014Y38874D01*
X550189Y38927D01*
X550356Y38980D01*
X550524Y39026D01*
X550669Y39072D01*
X550806Y39102D01*
X550928Y39133D01*
X551027Y39163D01*
X551103Y39179D01*
X551126Y39186D01*
X551149Y39194D01*
X551164D01*
X551423Y39255D01*
X551652Y39323D01*
X551865Y39384D01*
X552056Y39438D01*
X552223Y39499D01*
X552368Y39552D01*
X552498Y39605D01*
X552612Y39651D01*
X552704Y39697D01*
X552780Y39735D01*
X552848Y39765D01*
X552894Y39796D01*
X552932Y39819D01*
X552955Y39834D01*
X552970Y39849D01*
X552978D01*
X553077Y39948D01*
X553145Y40047D01*
X553199Y40146D01*
X553229Y40238D01*
X553252Y40321D01*
X553260Y40382D01*
X553267Y40428D01*
Y40444D01*
X553252Y40581D01*
X553222Y40695D01*
X553168Y40802D01*
X553107Y40885D01*
X553054Y40954D01*
X553001Y41007D01*
X552970Y41038D01*
X552955Y41045D01*
X552864Y41106D01*
X552757Y41167D01*
X552543Y41251D01*
X552323Y41320D01*
X552102Y41358D01*
X552002Y41373D01*
X551911Y41388D01*
X551827Y41396D01*
X551759D01*
X551698Y41404D01*
X551461D01*
X551317Y41388D01*
X551187Y41373D01*
X551065Y41350D01*
X550951Y41327D01*
X550852Y41297D01*
X550760Y41266D01*
X550676Y41236D01*
X550600Y41206D01*
X550539Y41175D01*
X550486Y41144D01*
X550440Y41122D01*
X550410Y41099D01*
X550387Y41083D01*
X550372Y41076D01*
X550364Y41068D01*
X550288Y41000D01*
X550219Y40931D01*
X550105Y40764D01*
X550006Y40588D01*
X549930Y40405D01*
X549876Y40245D01*
X549861Y40177D01*
X549838Y40116D01*
X549831Y40062D01*
X549823Y40024D01*
X549815Y40002D01*
Y39994D01*
X547842Y40078D01*
X547865Y40321D01*
X547903Y40558D01*
X547949Y40771D01*
X548017Y40977D01*
X548093Y41167D01*
X548177Y41350D01*
X548261Y41510D01*
X548352Y41655D01*
X548444Y41785D01*
X548528Y41899D01*
X548604Y41998D01*
X548680Y42082D01*
X548741Y42143D01*
X548787Y42188D01*
X548817Y42219D01*
X548825Y42227D01*
X549008Y42371D01*
X549213Y42493D01*
X549427Y42600D01*
X549648Y42691D01*
X549876Y42775D01*
X550105Y42836D01*
X550334Y42889D01*
X550555Y42935D01*
X550768Y42966D01*
X550959Y42989D01*
X551134Y43011D01*
X551286Y43019D01*
X551355Y43027D01*
X551416D01*
X551469Y43034D01*
X551797D01*
X551995Y43019D01*
D02*
G37*
G36*
X520928D02*
X521119Y43004D01*
X521301Y42981D01*
X521469Y42958D01*
X521629Y42928D01*
X521774Y42897D01*
X521903Y42867D01*
X522025Y42828D01*
X522132Y42798D01*
X522224Y42768D01*
X522300Y42745D01*
X522361Y42722D01*
X522406Y42707D01*
X522437Y42699D01*
X522444Y42691D01*
X522589Y42623D01*
X522726Y42554D01*
X522848Y42470D01*
X522970Y42394D01*
X523077Y42310D01*
X523176Y42227D01*
X523267Y42143D01*
X523351Y42066D01*
X523420Y41990D01*
X523488Y41922D01*
X523542Y41861D01*
X523587Y41807D01*
X523618Y41762D01*
X523641Y41731D01*
X523656Y41708D01*
X523664Y41701D01*
X523740Y41579D01*
X523801Y41457D01*
X523854Y41335D01*
X523908Y41213D01*
X523984Y40977D01*
X524029Y40764D01*
X524045Y40664D01*
X524060Y40581D01*
X524067Y40497D01*
X524075Y40436D01*
X524083Y40382D01*
Y40337D01*
Y40314D01*
Y40306D01*
X524075Y40093D01*
X524045Y39887D01*
X523999Y39697D01*
X523946Y39514D01*
X523877Y39339D01*
X523801Y39179D01*
X523717Y39026D01*
X523633Y38889D01*
X523549Y38767D01*
X523465Y38660D01*
X523389Y38561D01*
X523321Y38485D01*
X523267Y38424D01*
X523222Y38378D01*
X523191Y38348D01*
X523184Y38340D01*
X523054Y38234D01*
X522909Y38135D01*
X522742Y38036D01*
X522566Y37952D01*
X522201Y37784D01*
X521835Y37639D01*
X521660Y37578D01*
X521492Y37525D01*
X521347Y37479D01*
X521218Y37441D01*
X521111Y37411D01*
X521027Y37388D01*
X520997Y37380D01*
X520974D01*
X520966Y37373D01*
X520959D01*
X520738Y37319D01*
X520539Y37266D01*
X520357Y37220D01*
X520196Y37174D01*
X520052Y37136D01*
X519922Y37106D01*
X519808Y37075D01*
X519709Y37045D01*
X519625Y37022D01*
X519557Y36999D01*
X519503Y36984D01*
X519457Y36969D01*
X519419Y36961D01*
X519396Y36953D01*
X519389Y36946D01*
X519381D01*
X519206Y36877D01*
X519061Y36809D01*
X518939Y36740D01*
X518840Y36672D01*
X518764Y36611D01*
X518711Y36565D01*
X518680Y36534D01*
X518672Y36527D01*
X518604Y36428D01*
X518551Y36329D01*
X518520Y36230D01*
X518490Y36138D01*
X518474Y36054D01*
X518467Y35993D01*
Y35948D01*
Y35940D01*
Y35932D01*
X518474Y35833D01*
X518490Y35734D01*
X518512Y35643D01*
X518543Y35559D01*
X518619Y35399D01*
X518711Y35254D01*
X518802Y35148D01*
X518840Y35094D01*
X518878Y35056D01*
X518909Y35026D01*
X518932Y35003D01*
X518947Y34995D01*
X518955Y34987D01*
X519046Y34919D01*
X519153Y34858D01*
X519267Y34805D01*
X519381Y34759D01*
X519617Y34690D01*
X519854Y34645D01*
X519960Y34622D01*
X520059Y34614D01*
X520151Y34606D01*
X520227Y34599D01*
X520296Y34591D01*
X520387D01*
X520555Y34599D01*
X520707Y34614D01*
X520852Y34629D01*
X520989Y34660D01*
X521119Y34698D01*
X521233Y34736D01*
X521339Y34774D01*
X521439Y34820D01*
X521530Y34858D01*
X521606Y34896D01*
X521667Y34934D01*
X521721Y34972D01*
X521766Y35003D01*
X521797Y35018D01*
X521812Y35033D01*
X521820Y35041D01*
X521911Y35132D01*
X522002Y35231D01*
X522079Y35346D01*
X522147Y35460D01*
X522269Y35696D01*
X522361Y35925D01*
X522399Y36031D01*
X522429Y36138D01*
X522460Y36230D01*
X522475Y36306D01*
X522490Y36374D01*
X522505Y36420D01*
X522513Y36458D01*
Y36466D01*
X524433Y36283D01*
X524388Y35986D01*
X524327Y35704D01*
X524250Y35437D01*
X524167Y35201D01*
X524075Y34972D01*
X523976Y34767D01*
X523877Y34584D01*
X523770Y34416D01*
X523671Y34264D01*
X523572Y34134D01*
X523488Y34027D01*
X523412Y33936D01*
X523344Y33867D01*
X523298Y33814D01*
X523260Y33784D01*
X523252Y33776D01*
X523054Y33624D01*
X522848Y33494D01*
X522620Y33380D01*
X522391Y33281D01*
X522155Y33197D01*
X521919Y33128D01*
X521682Y33075D01*
X521461Y33029D01*
X521248Y32991D01*
X521050Y32968D01*
X520867Y32945D01*
X520715Y32938D01*
X520646Y32930D01*
X520585D01*
X520532Y32922D01*
X520410D01*
X520174Y32930D01*
X519953Y32938D01*
X519739Y32953D01*
X519541Y32976D01*
X519351Y33006D01*
X519175Y33037D01*
X519015Y33067D01*
X518871Y33098D01*
X518741Y33128D01*
X518619Y33159D01*
X518520Y33189D01*
X518436Y33220D01*
X518368Y33243D01*
X518322Y33258D01*
X518292Y33273D01*
X518284D01*
X518131Y33342D01*
X517979Y33425D01*
X517842Y33509D01*
X517720Y33593D01*
X517598Y33684D01*
X517491Y33776D01*
X517392Y33867D01*
X517301Y33951D01*
X517225Y34035D01*
X517156Y34111D01*
X517103Y34180D01*
X517049Y34241D01*
X517011Y34294D01*
X516988Y34332D01*
X516973Y34355D01*
X516966Y34363D01*
X516882Y34500D01*
X516813Y34645D01*
X516745Y34782D01*
X516691Y34919D01*
X516646Y35056D01*
X516608Y35186D01*
X516577Y35315D01*
X516554Y35429D01*
X516531Y35536D01*
X516516Y35635D01*
X516508Y35727D01*
X516501Y35795D01*
X516493Y35856D01*
Y35902D01*
Y35932D01*
Y35940D01*
X516501Y36108D01*
X516508Y36275D01*
X516531Y36428D01*
X516554Y36572D01*
X516585Y36710D01*
X516615Y36839D01*
X516653Y36961D01*
X516691Y37068D01*
X516729Y37159D01*
X516768Y37251D01*
X516798Y37319D01*
X516828Y37380D01*
X516851Y37434D01*
X516874Y37464D01*
X516882Y37487D01*
X516889Y37494D01*
X517049Y37715D01*
X517225Y37921D01*
X517400Y38089D01*
X517575Y38234D01*
X517659Y38295D01*
X517728Y38340D01*
X517796Y38386D01*
X517857Y38424D01*
X517903Y38455D01*
X517941Y38477D01*
X517964Y38485D01*
X517971Y38493D01*
X518109Y38561D01*
X518261Y38630D01*
X518421Y38691D01*
X518596Y38759D01*
X518947Y38874D01*
X519122Y38927D01*
X519290Y38980D01*
X519457Y39026D01*
X519602Y39072D01*
X519739Y39102D01*
X519861Y39133D01*
X519960Y39163D01*
X520037Y39179D01*
X520059Y39186D01*
X520082Y39194D01*
X520098D01*
X520357Y39255D01*
X520585Y39323D01*
X520798Y39384D01*
X520989Y39438D01*
X521157Y39499D01*
X521301Y39552D01*
X521431Y39605D01*
X521545Y39651D01*
X521637Y39697D01*
X521713Y39735D01*
X521782Y39765D01*
X521827Y39796D01*
X521865Y39819D01*
X521888Y39834D01*
X521903Y39849D01*
X521911D01*
X522010Y39948D01*
X522079Y40047D01*
X522132Y40146D01*
X522163Y40238D01*
X522185Y40321D01*
X522193Y40382D01*
X522201Y40428D01*
Y40444D01*
X522185Y40581D01*
X522155Y40695D01*
X522102Y40802D01*
X522041Y40885D01*
X521987Y40954D01*
X521934Y41007D01*
X521903Y41038D01*
X521888Y41045D01*
X521797Y41106D01*
X521690Y41167D01*
X521477Y41251D01*
X521256Y41320D01*
X521035Y41358D01*
X520936Y41373D01*
X520844Y41388D01*
X520760Y41396D01*
X520692D01*
X520631Y41404D01*
X520395D01*
X520250Y41388D01*
X520120Y41373D01*
X519998Y41350D01*
X519884Y41327D01*
X519785Y41297D01*
X519694Y41266D01*
X519610Y41236D01*
X519534Y41206D01*
X519473Y41175D01*
X519419Y41144D01*
X519374Y41122D01*
X519343Y41099D01*
X519320Y41083D01*
X519305Y41076D01*
X519297Y41068D01*
X519221Y41000D01*
X519153Y40931D01*
X519038Y40764D01*
X518939Y40588D01*
X518863Y40405D01*
X518810Y40245D01*
X518795Y40177D01*
X518772Y40116D01*
X518764Y40062D01*
X518756Y40024D01*
X518749Y40002D01*
Y39994D01*
X516775Y40078D01*
X516798Y40321D01*
X516836Y40558D01*
X516882Y40771D01*
X516950Y40977D01*
X517027Y41167D01*
X517110Y41350D01*
X517194Y41510D01*
X517286Y41655D01*
X517377Y41785D01*
X517461Y41899D01*
X517537Y41998D01*
X517613Y42082D01*
X517674Y42143D01*
X517720Y42188D01*
X517751Y42219D01*
X517758Y42227D01*
X517941Y42371D01*
X518147Y42493D01*
X518360Y42600D01*
X518581Y42691D01*
X518810Y42775D01*
X519038Y42836D01*
X519267Y42889D01*
X519488Y42935D01*
X519701Y42966D01*
X519892Y42989D01*
X520067Y43011D01*
X520219Y43019D01*
X520288Y43027D01*
X520349D01*
X520402Y43034D01*
X520730D01*
X520928Y43019D01*
D02*
G37*
G36*
X542622Y30801D02*
X542698Y30641D01*
X542782Y30489D01*
X542874Y30344D01*
X542973Y30207D01*
X543064Y30077D01*
X543163Y29955D01*
X543262Y29849D01*
X543354Y29750D01*
X543445Y29658D01*
X543521Y29582D01*
X543598Y29521D01*
X543651Y29468D01*
X543697Y29430D01*
X543727Y29407D01*
X543735Y29399D01*
X543895Y29277D01*
X544047Y29170D01*
X544199Y29071D01*
X544344Y28980D01*
X544482Y28896D01*
X544611Y28820D01*
X544733Y28759D01*
X544847Y28698D01*
X544954Y28652D01*
X545045Y28607D01*
X545122Y28576D01*
X545190Y28546D01*
X545243Y28523D01*
X545289Y28515D01*
X545312Y28500D01*
X545320D01*
Y26801D01*
X545061Y26892D01*
X544817Y26991D01*
X544580Y27098D01*
X544360Y27212D01*
X544146Y27334D01*
X543948Y27448D01*
X543758Y27570D01*
X543590Y27685D01*
X543438Y27791D01*
X543300Y27890D01*
X543186Y27982D01*
X543087Y28058D01*
X543011Y28126D01*
X542950Y28180D01*
X542919Y28210D01*
X542904Y28218D01*
Y21162D01*
X541030D01*
Y30969D01*
X542554D01*
X542622Y30801D01*
D02*
G37*
G36*
X522879Y23768D02*
X519206D01*
Y25642D01*
X522879D01*
Y23768D01*
D02*
G37*
G36*
X552002Y21162D02*
X549884D01*
X546409Y30931D01*
X548512D01*
X550890Y23699D01*
X553366Y30931D01*
X555500D01*
X552002Y21162D01*
D02*
G37*
G36*
X537837D02*
X535962D01*
Y23036D01*
X537837D01*
Y21162D01*
D02*
G37*
G36*
X515320D02*
X513232D01*
X512424Y23379D01*
X508523D01*
X507677Y21162D01*
X505528D01*
X509430Y30931D01*
X511533D01*
X515320Y21162D01*
D02*
G37*
G36*
X531543Y30961D02*
X531787Y30923D01*
X532015Y30877D01*
X532229Y30809D01*
X532427Y30733D01*
X532602Y30649D01*
X532770Y30557D01*
X532922Y30466D01*
X533051Y30374D01*
X533166Y30283D01*
X533265Y30199D01*
X533349Y30123D01*
X533410Y30054D01*
X533455Y30009D01*
X533486Y29978D01*
X533493Y29963D01*
X533577Y29849D01*
X533661Y29719D01*
X533814Y29445D01*
X533935Y29148D01*
X534050Y28835D01*
X534141Y28507D01*
X534217Y28172D01*
X534286Y27845D01*
X534332Y27524D01*
X534370Y27220D01*
X534400Y26930D01*
X534416Y26793D01*
X534423Y26671D01*
X534431Y26549D01*
X534438Y26442D01*
X534446Y26343D01*
Y26252D01*
Y26176D01*
X534454Y26115D01*
Y26061D01*
Y26023D01*
Y26000D01*
Y25993D01*
Y25734D01*
X534446Y25482D01*
X534431Y25246D01*
X534416Y25017D01*
X534393Y24797D01*
X534370Y24591D01*
X534347Y24385D01*
X534316Y24195D01*
X534286Y24012D01*
X534255Y23844D01*
X534217Y23676D01*
X534179Y23524D01*
X534141Y23372D01*
X534103Y23234D01*
X534057Y23105D01*
X534019Y22983D01*
X533981Y22869D01*
X533935Y22770D01*
X533897Y22671D01*
X533859Y22579D01*
X533821Y22495D01*
X533783Y22427D01*
X533722Y22297D01*
X533661Y22206D01*
X533623Y22137D01*
X533592Y22099D01*
X533585Y22084D01*
X533417Y21893D01*
X533234Y21726D01*
X533044Y21581D01*
X532853Y21451D01*
X532663Y21345D01*
X532472Y21261D01*
X532282Y21185D01*
X532107Y21131D01*
X531939Y21086D01*
X531779Y21055D01*
X531642Y21025D01*
X531520Y21009D01*
X531421Y21002D01*
X531345Y20994D01*
X531284D01*
X531025Y21009D01*
X530781Y21040D01*
X530552Y21086D01*
X530339Y21154D01*
X530141Y21223D01*
X529958Y21307D01*
X529790Y21398D01*
X529645Y21497D01*
X529508Y21588D01*
X529394Y21680D01*
X529295Y21764D01*
X529211Y21840D01*
X529150Y21901D01*
X529104Y21947D01*
X529074Y21985D01*
X529066Y21992D01*
X528982Y22114D01*
X528899Y22236D01*
X528746Y22510D01*
X528624Y22808D01*
X528510Y23128D01*
X528419Y23455D01*
X528342Y23783D01*
X528274Y24118D01*
X528228Y24438D01*
X528190Y24751D01*
X528159Y25033D01*
X528144Y25170D01*
X528137Y25299D01*
X528129Y25414D01*
X528121Y25528D01*
X528114Y25627D01*
Y25711D01*
X528106Y25795D01*
Y25856D01*
Y25909D01*
Y25947D01*
Y25970D01*
Y25978D01*
Y26237D01*
X528114Y26481D01*
X528129Y26717D01*
X528144Y26945D01*
X528167Y27166D01*
X528198Y27372D01*
X528220Y27578D01*
X528259Y27768D01*
X528289Y27951D01*
X528327Y28126D01*
X528365Y28294D01*
X528411Y28454D01*
X528449Y28607D01*
X528495Y28751D01*
X528540Y28881D01*
X528586Y29010D01*
X528632Y29125D01*
X528678Y29231D01*
X528716Y29338D01*
X528761Y29430D01*
X528807Y29513D01*
X528845Y29590D01*
X528883Y29658D01*
X528914Y29727D01*
X528975Y29826D01*
X529028Y29902D01*
X529059Y29940D01*
X529066Y29955D01*
X529226Y30131D01*
X529394Y30291D01*
X529569Y30428D01*
X529752Y30542D01*
X529935Y30641D01*
X530118Y30725D01*
X530301Y30786D01*
X530476Y30839D01*
X530644Y30885D01*
X530796Y30915D01*
X530933Y30938D01*
X531047Y30954D01*
X531147Y30961D01*
X531223Y30969D01*
X531284D01*
X531543Y30961D01*
D02*
G37*
G36*
X552284Y19033D02*
X552513Y19010D01*
X552734Y18979D01*
X552940Y18934D01*
X553138Y18880D01*
X553313Y18827D01*
X553481Y18766D01*
X553633Y18705D01*
X553770Y18636D01*
X553892Y18576D01*
X553999Y18522D01*
X554083Y18469D01*
X554151Y18423D01*
X554205Y18393D01*
X554235Y18370D01*
X554243Y18362D01*
X554395Y18225D01*
X554540Y18073D01*
X554662Y17905D01*
X554776Y17730D01*
X554868Y17555D01*
X554959Y17364D01*
X555028Y17181D01*
X555089Y17006D01*
X555142Y16831D01*
X555180Y16671D01*
X555218Y16526D01*
X555241Y16396D01*
X555256Y16290D01*
X555271Y16213D01*
Y16183D01*
X555279Y16160D01*
Y16152D01*
Y16145D01*
X553412Y15962D01*
X553397Y16107D01*
X553382Y16244D01*
X553359Y16373D01*
X553328Y16488D01*
X553298Y16594D01*
X553260Y16686D01*
X553229Y16777D01*
X553191Y16853D01*
X553161Y16914D01*
X553130Y16975D01*
X553100Y17021D01*
X553069Y17059D01*
X553046Y17090D01*
X553031Y17112D01*
X553016Y17120D01*
Y17128D01*
X552947Y17189D01*
X552879Y17250D01*
X552726Y17334D01*
X552574Y17402D01*
X552421Y17440D01*
X552292Y17471D01*
X552231Y17478D01*
X552185D01*
X552140Y17486D01*
X551980D01*
X551873Y17471D01*
X551690Y17433D01*
X551530Y17379D01*
X551400Y17318D01*
X551294Y17250D01*
X551218Y17196D01*
X551195Y17174D01*
X551172Y17158D01*
X551157Y17151D01*
Y17143D01*
X551096Y17074D01*
X551042Y17006D01*
X550959Y16853D01*
X550897Y16693D01*
X550859Y16541D01*
X550829Y16396D01*
X550821Y16335D01*
Y16290D01*
X550814Y16244D01*
Y16213D01*
Y16191D01*
Y16183D01*
X550821Y16076D01*
X550829Y15970D01*
X550875Y15764D01*
X550936Y15573D01*
X551004Y15398D01*
X551042Y15322D01*
X551080Y15253D01*
X551111Y15192D01*
X551141Y15139D01*
X551164Y15101D01*
X551187Y15063D01*
X551195Y15048D01*
X551202Y15040D01*
X551271Y14956D01*
X551355Y14849D01*
X551454Y14735D01*
X551568Y14613D01*
X551690Y14484D01*
X551819Y14346D01*
X552086Y14080D01*
X552216Y13958D01*
X552338Y13836D01*
X552452Y13729D01*
X552551Y13630D01*
X552635Y13554D01*
X552704Y13493D01*
X552742Y13455D01*
X552757Y13440D01*
X553039Y13173D01*
X553298Y12922D01*
X553534Y12685D01*
X553755Y12457D01*
X553946Y12251D01*
X554121Y12061D01*
X554273Y11885D01*
X554403Y11725D01*
X554517Y11580D01*
X554616Y11458D01*
X554692Y11352D01*
X554761Y11260D01*
X554807Y11192D01*
X554845Y11138D01*
X554860Y11108D01*
X554868Y11100D01*
X554959Y10933D01*
X555043Y10765D01*
X555119Y10597D01*
X555188Y10437D01*
X555248Y10277D01*
X555302Y10125D01*
X555340Y9973D01*
X555378Y9835D01*
X555409Y9706D01*
X555439Y9592D01*
X555462Y9485D01*
X555477Y9401D01*
X555485Y9333D01*
X555492Y9279D01*
X555500Y9249D01*
Y9233D01*
X548939D01*
Y10971D01*
X552665D01*
X552604Y11062D01*
X552543Y11161D01*
X552482Y11245D01*
X552421Y11321D01*
X552368Y11390D01*
X552323Y11443D01*
X552292Y11474D01*
X552284Y11489D01*
X552231Y11542D01*
X552162Y11611D01*
X552086Y11687D01*
X552002Y11771D01*
X551819Y11946D01*
X551629Y12129D01*
X551446Y12297D01*
X551370Y12365D01*
X551301Y12434D01*
X551240Y12487D01*
X551195Y12525D01*
X551164Y12556D01*
X551157Y12563D01*
X550997Y12716D01*
X550844Y12853D01*
X550715Y12982D01*
X550585Y13104D01*
X550478Y13211D01*
X550379Y13318D01*
X550288Y13409D01*
X550212Y13493D01*
X550143Y13569D01*
X550082Y13630D01*
X550037Y13691D01*
X549998Y13729D01*
X549968Y13767D01*
X549945Y13790D01*
X549930Y13806D01*
Y13813D01*
X549754Y14057D01*
X549594Y14286D01*
X549473Y14499D01*
X549412Y14590D01*
X549366Y14682D01*
X549320Y14766D01*
X549282Y14842D01*
X549252Y14903D01*
X549229Y14964D01*
X549206Y15002D01*
X549191Y15040D01*
X549183Y15055D01*
Y15063D01*
X549099Y15291D01*
X549038Y15512D01*
X549000Y15726D01*
X548970Y15916D01*
X548962Y16000D01*
X548954Y16076D01*
X548947Y16145D01*
X548939Y16206D01*
Y16251D01*
Y16290D01*
Y16312D01*
Y16320D01*
X548947Y16533D01*
X548977Y16739D01*
X549015Y16930D01*
X549069Y17112D01*
X549130Y17280D01*
X549198Y17440D01*
X549274Y17585D01*
X549351Y17722D01*
X549435Y17844D01*
X549503Y17951D01*
X549579Y18042D01*
X549640Y18118D01*
X549694Y18179D01*
X549732Y18217D01*
X549762Y18248D01*
X549770Y18255D01*
X549930Y18393D01*
X550105Y18515D01*
X550288Y18621D01*
X550471Y18713D01*
X550661Y18789D01*
X550852Y18850D01*
X551035Y18903D01*
X551210Y18941D01*
X551385Y18972D01*
X551538Y19002D01*
X551682Y19017D01*
X551804Y19025D01*
X551903Y19033D01*
X551980Y19040D01*
X552040D01*
X552284Y19033D01*
D02*
G37*
G36*
X537105D02*
X537334Y19010D01*
X537555Y18979D01*
X537761Y18934D01*
X537959Y18880D01*
X538134Y18827D01*
X538302Y18766D01*
X538454Y18705D01*
X538591Y18636D01*
X538713Y18576D01*
X538820Y18522D01*
X538904Y18469D01*
X538972Y18423D01*
X539026Y18393D01*
X539056Y18370D01*
X539064Y18362D01*
X539216Y18225D01*
X539361Y18073D01*
X539483Y17905D01*
X539597Y17730D01*
X539688Y17555D01*
X539780Y17364D01*
X539849Y17181D01*
X539910Y17006D01*
X539963Y16831D01*
X540001Y16671D01*
X540039Y16526D01*
X540062Y16396D01*
X540077Y16290D01*
X540092Y16213D01*
Y16183D01*
X540100Y16160D01*
Y16152D01*
Y16145D01*
X538233Y15962D01*
X538218Y16107D01*
X538203Y16244D01*
X538180Y16373D01*
X538149Y16488D01*
X538119Y16594D01*
X538081Y16686D01*
X538050Y16777D01*
X538012Y16853D01*
X537982Y16914D01*
X537951Y16975D01*
X537921Y17021D01*
X537890Y17059D01*
X537867Y17090D01*
X537852Y17112D01*
X537837Y17120D01*
Y17128D01*
X537768Y17189D01*
X537700Y17250D01*
X537547Y17334D01*
X537395Y17402D01*
X537243Y17440D01*
X537113Y17471D01*
X537052Y17478D01*
X537006D01*
X536960Y17486D01*
X536800D01*
X536694Y17471D01*
X536511Y17433D01*
X536351Y17379D01*
X536221Y17318D01*
X536115Y17250D01*
X536039Y17196D01*
X536016Y17174D01*
X535993Y17158D01*
X535978Y17151D01*
Y17143D01*
X535917Y17074D01*
X535863Y17006D01*
X535779Y16853D01*
X535718Y16693D01*
X535680Y16541D01*
X535650Y16396D01*
X535642Y16335D01*
Y16290D01*
X535635Y16244D01*
Y16213D01*
Y16191D01*
Y16183D01*
X535642Y16076D01*
X535650Y15970D01*
X535696Y15764D01*
X535757Y15573D01*
X535825Y15398D01*
X535863Y15322D01*
X535901Y15253D01*
X535932Y15192D01*
X535962Y15139D01*
X535985Y15101D01*
X536008Y15063D01*
X536016Y15048D01*
X536023Y15040D01*
X536092Y14956D01*
X536176Y14849D01*
X536275Y14735D01*
X536389Y14613D01*
X536511Y14484D01*
X536641Y14346D01*
X536907Y14080D01*
X537037Y13958D01*
X537159Y13836D01*
X537273Y13729D01*
X537372Y13630D01*
X537456Y13554D01*
X537524Y13493D01*
X537562Y13455D01*
X537578Y13440D01*
X537860Y13173D01*
X538119Y12922D01*
X538355Y12685D01*
X538576Y12457D01*
X538767Y12251D01*
X538942Y12061D01*
X539094Y11885D01*
X539224Y11725D01*
X539338Y11580D01*
X539437Y11458D01*
X539513Y11352D01*
X539582Y11260D01*
X539627Y11192D01*
X539666Y11138D01*
X539681Y11108D01*
X539688Y11100D01*
X539780Y10933D01*
X539864Y10765D01*
X539940Y10597D01*
X540009Y10437D01*
X540070Y10277D01*
X540123Y10125D01*
X540161Y9973D01*
X540199Y9835D01*
X540229Y9706D01*
X540260Y9592D01*
X540283Y9485D01*
X540298Y9401D01*
X540306Y9333D01*
X540313Y9279D01*
X540321Y9249D01*
Y9233D01*
X533760D01*
Y10971D01*
X537486D01*
X537425Y11062D01*
X537364Y11161D01*
X537303Y11245D01*
X537243Y11321D01*
X537189Y11390D01*
X537143Y11443D01*
X537113Y11474D01*
X537105Y11489D01*
X537052Y11542D01*
X536983Y11611D01*
X536907Y11687D01*
X536823Y11771D01*
X536641Y11946D01*
X536450Y12129D01*
X536267Y12297D01*
X536191Y12365D01*
X536122Y12434D01*
X536061Y12487D01*
X536016Y12525D01*
X535985Y12556D01*
X535978Y12563D01*
X535817Y12716D01*
X535665Y12853D01*
X535536Y12982D01*
X535406Y13104D01*
X535299Y13211D01*
X535200Y13318D01*
X535109Y13409D01*
X535033Y13493D01*
X534964Y13569D01*
X534903Y13630D01*
X534857Y13691D01*
X534819Y13729D01*
X534789Y13767D01*
X534766Y13790D01*
X534751Y13806D01*
Y13813D01*
X534576Y14057D01*
X534416Y14286D01*
X534294Y14499D01*
X534233Y14590D01*
X534187Y14682D01*
X534141Y14766D01*
X534103Y14842D01*
X534073Y14903D01*
X534050Y14964D01*
X534027Y15002D01*
X534012Y15040D01*
X534004Y15055D01*
Y15063D01*
X533920Y15291D01*
X533859Y15512D01*
X533821Y15726D01*
X533791Y15916D01*
X533783Y16000D01*
X533775Y16076D01*
X533768Y16145D01*
X533760Y16206D01*
Y16251D01*
Y16290D01*
Y16312D01*
Y16320D01*
X533768Y16533D01*
X533798Y16739D01*
X533836Y16930D01*
X533890Y17112D01*
X533951Y17280D01*
X534019Y17440D01*
X534095Y17585D01*
X534172Y17722D01*
X534255Y17844D01*
X534324Y17951D01*
X534400Y18042D01*
X534461Y18118D01*
X534515Y18179D01*
X534553Y18217D01*
X534583Y18248D01*
X534591Y18255D01*
X534751Y18393D01*
X534926Y18515D01*
X535109Y18621D01*
X535292Y18713D01*
X535482Y18789D01*
X535673Y18850D01*
X535856Y18903D01*
X536031Y18941D01*
X536206Y18972D01*
X536359Y19002D01*
X536503Y19017D01*
X536625Y19025D01*
X536724Y19033D01*
X536800Y19040D01*
X536861D01*
X537105Y19033D01*
D02*
G37*
G36*
X529516D02*
X529744Y19010D01*
X529965Y18979D01*
X530171Y18934D01*
X530369Y18880D01*
X530545Y18827D01*
X530712Y18766D01*
X530864Y18705D01*
X531002Y18636D01*
X531124Y18576D01*
X531230Y18522D01*
X531314Y18469D01*
X531383Y18423D01*
X531436Y18393D01*
X531466Y18370D01*
X531474Y18362D01*
X531627Y18225D01*
X531771Y18073D01*
X531893Y17905D01*
X532007Y17730D01*
X532099Y17555D01*
X532190Y17364D01*
X532259Y17181D01*
X532320Y17006D01*
X532373Y16831D01*
X532411Y16671D01*
X532449Y16526D01*
X532472Y16396D01*
X532488Y16290D01*
X532503Y16213D01*
Y16183D01*
X532510Y16160D01*
Y16152D01*
Y16145D01*
X530644Y15962D01*
X530628Y16107D01*
X530613Y16244D01*
X530590Y16373D01*
X530560Y16488D01*
X530529Y16594D01*
X530491Y16686D01*
X530461Y16777D01*
X530423Y16853D01*
X530392Y16914D01*
X530362Y16975D01*
X530331Y17021D01*
X530301Y17059D01*
X530278Y17090D01*
X530263Y17112D01*
X530247Y17120D01*
Y17128D01*
X530179Y17189D01*
X530110Y17250D01*
X529958Y17334D01*
X529805Y17402D01*
X529653Y17440D01*
X529523Y17471D01*
X529463Y17478D01*
X529417D01*
X529371Y17486D01*
X529211D01*
X529104Y17471D01*
X528921Y17433D01*
X528761Y17379D01*
X528632Y17318D01*
X528525Y17250D01*
X528449Y17196D01*
X528426Y17174D01*
X528403Y17158D01*
X528388Y17151D01*
Y17143D01*
X528327Y17074D01*
X528274Y17006D01*
X528190Y16853D01*
X528129Y16693D01*
X528091Y16541D01*
X528060Y16396D01*
X528053Y16335D01*
Y16290D01*
X528045Y16244D01*
Y16213D01*
Y16191D01*
Y16183D01*
X528053Y16076D01*
X528060Y15970D01*
X528106Y15764D01*
X528167Y15573D01*
X528236Y15398D01*
X528274Y15322D01*
X528312Y15253D01*
X528342Y15192D01*
X528373Y15139D01*
X528396Y15101D01*
X528419Y15063D01*
X528426Y15048D01*
X528434Y15040D01*
X528502Y14956D01*
X528586Y14849D01*
X528685Y14735D01*
X528800Y14613D01*
X528921Y14484D01*
X529051Y14346D01*
X529318Y14080D01*
X529447Y13958D01*
X529569Y13836D01*
X529683Y13729D01*
X529782Y13630D01*
X529866Y13554D01*
X529935Y13493D01*
X529973Y13455D01*
X529988Y13440D01*
X530270Y13173D01*
X530529Y12922D01*
X530765Y12685D01*
X530987Y12457D01*
X531177Y12251D01*
X531352Y12061D01*
X531505Y11885D01*
X531634Y11725D01*
X531749Y11580D01*
X531847Y11458D01*
X531924Y11352D01*
X531992Y11260D01*
X532038Y11192D01*
X532076Y11138D01*
X532091Y11108D01*
X532099Y11100D01*
X532190Y10933D01*
X532274Y10765D01*
X532350Y10597D01*
X532419Y10437D01*
X532480Y10277D01*
X532533Y10125D01*
X532571Y9973D01*
X532609Y9835D01*
X532640Y9706D01*
X532671Y9592D01*
X532693Y9485D01*
X532709Y9401D01*
X532716Y9333D01*
X532724Y9279D01*
X532731Y9249D01*
Y9233D01*
X526171D01*
Y10971D01*
X529897D01*
X529836Y11062D01*
X529775Y11161D01*
X529714Y11245D01*
X529653Y11321D01*
X529600Y11390D01*
X529554Y11443D01*
X529523Y11474D01*
X529516Y11489D01*
X529463Y11542D01*
X529394Y11611D01*
X529318Y11687D01*
X529234Y11771D01*
X529051Y11946D01*
X528861Y12129D01*
X528678Y12297D01*
X528601Y12365D01*
X528533Y12434D01*
X528472Y12487D01*
X528426Y12525D01*
X528396Y12556D01*
X528388Y12563D01*
X528228Y12716D01*
X528076Y12853D01*
X527946Y12982D01*
X527817Y13104D01*
X527710Y13211D01*
X527611Y13318D01*
X527519Y13409D01*
X527443Y13493D01*
X527375Y13569D01*
X527314Y13630D01*
X527268Y13691D01*
X527230Y13729D01*
X527199Y13767D01*
X527177Y13790D01*
X527161Y13806D01*
Y13813D01*
X526986Y14057D01*
X526826Y14286D01*
X526704Y14499D01*
X526643Y14590D01*
X526597Y14682D01*
X526552Y14766D01*
X526513Y14842D01*
X526483Y14903D01*
X526460Y14964D01*
X526437Y15002D01*
X526422Y15040D01*
X526414Y15055D01*
Y15063D01*
X526331Y15291D01*
X526270Y15512D01*
X526232Y15726D01*
X526201Y15916D01*
X526194Y16000D01*
X526186Y16076D01*
X526178Y16145D01*
X526171Y16206D01*
Y16251D01*
Y16290D01*
Y16312D01*
Y16320D01*
X526178Y16533D01*
X526209Y16739D01*
X526247Y16930D01*
X526300Y17112D01*
X526361Y17280D01*
X526430Y17440D01*
X526506Y17585D01*
X526582Y17722D01*
X526666Y17844D01*
X526735Y17951D01*
X526811Y18042D01*
X526872Y18118D01*
X526925Y18179D01*
X526963Y18217D01*
X526994Y18248D01*
X527001Y18255D01*
X527161Y18393D01*
X527337Y18515D01*
X527519Y18621D01*
X527702Y18713D01*
X527893Y18789D01*
X528083Y18850D01*
X528266Y18903D01*
X528441Y18941D01*
X528617Y18972D01*
X528769Y19002D01*
X528914Y19017D01*
X529036Y19025D01*
X529135Y19033D01*
X529211Y19040D01*
X529272D01*
X529516Y19033D01*
D02*
G37*
G36*
X544771D02*
X545015Y18995D01*
X545243Y18949D01*
X545457Y18880D01*
X545655Y18804D01*
X545830Y18720D01*
X545998Y18629D01*
X546150Y18537D01*
X546280Y18446D01*
X546394Y18355D01*
X546493Y18271D01*
X546577Y18195D01*
X546638Y18126D01*
X546684Y18080D01*
X546714Y18050D01*
X546722Y18035D01*
X546806Y17920D01*
X546889Y17791D01*
X547042Y17516D01*
X547164Y17219D01*
X547278Y16907D01*
X547369Y16579D01*
X547446Y16244D01*
X547514Y15916D01*
X547560Y15596D01*
X547598Y15291D01*
X547629Y15002D01*
X547644Y14865D01*
X547651Y14743D01*
X547659Y14621D01*
X547667Y14514D01*
X547674Y14415D01*
Y14324D01*
Y14247D01*
X547682Y14187D01*
Y14133D01*
Y14095D01*
Y14072D01*
Y14065D01*
Y13806D01*
X547674Y13554D01*
X547659Y13318D01*
X547644Y13089D01*
X547621Y12868D01*
X547598Y12663D01*
X547575Y12457D01*
X547545Y12266D01*
X547514Y12083D01*
X547484Y11916D01*
X547446Y11748D01*
X547408Y11596D01*
X547369Y11443D01*
X547331Y11306D01*
X547286Y11177D01*
X547248Y11055D01*
X547209Y10940D01*
X547164Y10841D01*
X547126Y10742D01*
X547088Y10651D01*
X547049Y10567D01*
X547011Y10498D01*
X546950Y10369D01*
X546889Y10277D01*
X546851Y10209D01*
X546821Y10171D01*
X546813Y10156D01*
X546646Y9965D01*
X546463Y9797D01*
X546272Y9653D01*
X546082Y9523D01*
X545891Y9416D01*
X545701Y9333D01*
X545510Y9256D01*
X545335Y9203D01*
X545167Y9157D01*
X545007Y9127D01*
X544870Y9096D01*
X544748Y9081D01*
X544649Y9073D01*
X544573Y9066D01*
X544512D01*
X544253Y9081D01*
X544009Y9111D01*
X543780Y9157D01*
X543567Y9226D01*
X543369Y9294D01*
X543186Y9378D01*
X543018Y9470D01*
X542874Y9569D01*
X542737Y9660D01*
X542622Y9752D01*
X542523Y9835D01*
X542439Y9912D01*
X542378Y9973D01*
X542333Y10018D01*
X542302Y10056D01*
X542295Y10064D01*
X542211Y10186D01*
X542127Y10308D01*
X541974Y10582D01*
X541853Y10879D01*
X541738Y11199D01*
X541647Y11527D01*
X541571Y11855D01*
X541502Y12190D01*
X541456Y12510D01*
X541418Y12823D01*
X541388Y13104D01*
X541372Y13242D01*
X541365Y13371D01*
X541357Y13485D01*
X541350Y13600D01*
X541342Y13699D01*
Y13783D01*
X541334Y13866D01*
Y13927D01*
Y13981D01*
Y14019D01*
Y14042D01*
Y14049D01*
Y14308D01*
X541342Y14552D01*
X541357Y14788D01*
X541372Y15017D01*
X541395Y15238D01*
X541426Y15444D01*
X541449Y15649D01*
X541487Y15840D01*
X541517Y16023D01*
X541555Y16198D01*
X541594Y16366D01*
X541639Y16526D01*
X541677Y16678D01*
X541723Y16823D01*
X541769Y16953D01*
X541814Y17082D01*
X541860Y17196D01*
X541906Y17303D01*
X541944Y17410D01*
X541990Y17501D01*
X542035Y17585D01*
X542074Y17661D01*
X542112Y17730D01*
X542142Y17798D01*
X542203Y17897D01*
X542256Y17974D01*
X542287Y18012D01*
X542295Y18027D01*
X542455Y18202D01*
X542622Y18362D01*
X542798Y18499D01*
X542980Y18614D01*
X543163Y18713D01*
X543346Y18797D01*
X543529Y18858D01*
X543704Y18911D01*
X543872Y18957D01*
X544024Y18987D01*
X544161Y19010D01*
X544276Y19025D01*
X544375Y19033D01*
X544451Y19040D01*
X544512D01*
X544771Y19033D01*
D02*
G37*
%LPC*%
G36*
X451838Y36504D02*
X451830D01*
Y36130D01*
Y36009D01*
Y35894D01*
X451838Y35795D01*
X451845Y35704D01*
Y35620D01*
X451853Y35544D01*
X451860Y35475D01*
X451868Y35422D01*
X451876Y35368D01*
X451883Y35330D01*
X451891Y35262D01*
X451906Y35231D01*
Y35216D01*
X451959Y35087D01*
X452020Y34965D01*
X452097Y34858D01*
X452173Y34766D01*
X452241Y34690D01*
X452302Y34637D01*
X452340Y34606D01*
X452348Y34591D01*
X452356D01*
X452439Y34530D01*
X452531Y34485D01*
X452699Y34401D01*
X452859Y34347D01*
X453003Y34302D01*
X453133Y34279D01*
X453186Y34271D01*
X453232D01*
X453262Y34264D01*
X453316D01*
X453476Y34279D01*
X453628Y34309D01*
X453750Y34355D01*
X453857Y34408D01*
X453948Y34454D01*
X454009Y34500D01*
X454047Y34530D01*
X454063Y34546D01*
X454162Y34660D01*
X454230Y34774D01*
X454283Y34888D01*
X454314Y34995D01*
X454337Y35087D01*
X454344Y35155D01*
X454352Y35186D01*
Y35208D01*
Y35216D01*
Y35224D01*
X454344Y35300D01*
X454337Y35368D01*
X454291Y35498D01*
X454238Y35612D01*
X454169Y35704D01*
X454101Y35780D01*
X454040Y35841D01*
X454002Y35871D01*
X453994Y35887D01*
X453986D01*
X453933Y35917D01*
X453872Y35948D01*
X453803Y35978D01*
X453727Y36009D01*
X453560Y36062D01*
X453392Y36108D01*
X453232Y36153D01*
X453163Y36169D01*
X453095Y36184D01*
X453049Y36199D01*
X453003Y36207D01*
X452980Y36214D01*
X452973D01*
X452828Y36245D01*
X452699Y36275D01*
X452577Y36306D01*
X452462Y36329D01*
X452363Y36359D01*
X452272Y36382D01*
X452188Y36405D01*
X452112Y36420D01*
X452043Y36443D01*
X451990Y36458D01*
X451937Y36473D01*
X451898Y36481D01*
X451868Y36489D01*
X451845Y36496D01*
X451838Y36504D01*
D02*
G37*
G36*
X512104Y38904D02*
X512043D01*
X511936Y38897D01*
X511837Y38889D01*
X511647Y38836D01*
X511487Y38767D01*
X511342Y38691D01*
X511228Y38615D01*
X511182Y38577D01*
X511144Y38546D01*
X511114Y38516D01*
X511091Y38493D01*
X511083Y38485D01*
X511075Y38477D01*
X511007Y38394D01*
X510938Y38302D01*
X510885Y38203D01*
X510839Y38104D01*
X510763Y37898D01*
X510710Y37700D01*
X510694Y37609D01*
X510679Y37525D01*
X510664Y37441D01*
X510656Y37373D01*
Y37319D01*
X510649Y37281D01*
Y37251D01*
Y37243D01*
X513445D01*
Y37380D01*
X513430Y37517D01*
X513415Y37639D01*
X513384Y37754D01*
X513361Y37860D01*
X513323Y37959D01*
X513293Y38051D01*
X513255Y38135D01*
X513217Y38211D01*
X513178Y38272D01*
X513148Y38325D01*
X513118Y38371D01*
X513095Y38409D01*
X513072Y38432D01*
X513064Y38447D01*
X513057Y38455D01*
X512980Y38531D01*
X512897Y38607D01*
X512813Y38660D01*
X512729Y38714D01*
X512645Y38759D01*
X512561Y38798D01*
X512401Y38851D01*
X512257Y38881D01*
X512196Y38889D01*
X512142Y38897D01*
X512104Y38904D01*
D02*
G37*
G36*
X535597Y41251D02*
X533798D01*
X533615Y41244D01*
X533463D01*
X533326Y41236D01*
X533105D01*
X533021Y41228D01*
X532952D01*
X532892Y41221D01*
X532853D01*
X532823Y41213D01*
X532785D01*
X532609Y41183D01*
X532457Y41137D01*
X532328Y41076D01*
X532229Y41023D01*
X532145Y40962D01*
X532084Y40916D01*
X532053Y40885D01*
X532038Y40870D01*
X531954Y40756D01*
X531893Y40634D01*
X531847Y40512D01*
X531817Y40398D01*
X531802Y40299D01*
X531787Y40215D01*
Y40184D01*
Y40161D01*
Y40146D01*
Y40139D01*
X531802Y39971D01*
X531832Y39819D01*
X531878Y39689D01*
X531931Y39582D01*
X531992Y39491D01*
X532038Y39430D01*
X532068Y39392D01*
X532084Y39377D01*
X532198Y39278D01*
X532328Y39201D01*
X532465Y39140D01*
X532587Y39095D01*
X532701Y39064D01*
X532792Y39041D01*
X532831Y39034D01*
X532853Y39026D01*
X532876D01*
X532937Y39018D01*
X533021D01*
X533112Y39011D01*
X533219D01*
X533333Y39003D01*
X533699D01*
X533814Y38996D01*
X535597D01*
Y41251D01*
D02*
G37*
G36*
Y37373D02*
X533760D01*
X533539Y37365D01*
X533341Y37357D01*
X533166Y37350D01*
X532998Y37342D01*
X532861Y37327D01*
X532731Y37312D01*
X532625Y37304D01*
X532533Y37289D01*
X532457Y37273D01*
X532388Y37258D01*
X532343Y37251D01*
X532305Y37243D01*
X532282Y37235D01*
X532267Y37228D01*
X532259D01*
X532114Y37167D01*
X531992Y37098D01*
X531886Y37022D01*
X531802Y36953D01*
X531733Y36885D01*
X531680Y36832D01*
X531649Y36793D01*
X531642Y36778D01*
X531566Y36656D01*
X531512Y36534D01*
X531474Y36412D01*
X531451Y36298D01*
X531428Y36191D01*
X531421Y36115D01*
Y36085D01*
Y36062D01*
Y36047D01*
Y36039D01*
X531436Y35849D01*
X531466Y35689D01*
X531512Y35544D01*
X531558Y35422D01*
X531611Y35330D01*
X531657Y35262D01*
X531688Y35216D01*
X531703Y35201D01*
X531809Y35094D01*
X531931Y35010D01*
X532053Y34942D01*
X532160Y34896D01*
X532267Y34858D01*
X532343Y34827D01*
X532373Y34820D01*
X532396D01*
X532411Y34812D01*
X532419D01*
X532480Y34805D01*
X532564Y34797D01*
X532655Y34789D01*
X532754Y34782D01*
X532975Y34774D01*
X533204Y34767D01*
X533318D01*
X533425Y34759D01*
X535597D01*
Y37373D01*
D02*
G37*
G36*
X471924Y41251D02*
X470126D01*
X469943Y41244D01*
X469790D01*
X469653Y41236D01*
X469432D01*
X469348Y41228D01*
X469280D01*
X469219Y41221D01*
X469181D01*
X469150Y41213D01*
X469112D01*
X468937Y41183D01*
X468784Y41137D01*
X468655Y41076D01*
X468556Y41023D01*
X468472Y40962D01*
X468411Y40916D01*
X468381Y40885D01*
X468365Y40870D01*
X468282Y40756D01*
X468220Y40634D01*
X468175Y40512D01*
X468144Y40398D01*
X468129Y40299D01*
X468114Y40215D01*
Y40184D01*
Y40161D01*
Y40146D01*
Y40139D01*
X468129Y39971D01*
X468160Y39819D01*
X468205Y39689D01*
X468259Y39582D01*
X468320Y39491D01*
X468365Y39430D01*
X468396Y39392D01*
X468411Y39377D01*
X468525Y39278D01*
X468655Y39201D01*
X468792Y39140D01*
X468914Y39095D01*
X469028Y39064D01*
X469120Y39041D01*
X469158Y39034D01*
X469181Y39026D01*
X469203D01*
X469264Y39018D01*
X469348D01*
X469440Y39011D01*
X469546D01*
X469661Y39003D01*
X470027D01*
X470141Y38996D01*
X471924D01*
Y41251D01*
D02*
G37*
G36*
Y37373D02*
X470087D01*
X469866Y37365D01*
X469668Y37357D01*
X469493Y37350D01*
X469325Y37342D01*
X469188Y37327D01*
X469059Y37312D01*
X468952Y37304D01*
X468861Y37289D01*
X468784Y37273D01*
X468716Y37258D01*
X468670Y37251D01*
X468632Y37243D01*
X468609Y37235D01*
X468594Y37228D01*
X468586D01*
X468442Y37167D01*
X468320Y37098D01*
X468213Y37022D01*
X468129Y36953D01*
X468060Y36885D01*
X468007Y36832D01*
X467977Y36793D01*
X467969Y36778D01*
X467893Y36656D01*
X467840Y36534D01*
X467801Y36412D01*
X467779Y36298D01*
X467756Y36191D01*
X467748Y36115D01*
Y36085D01*
Y36062D01*
Y36047D01*
Y36039D01*
X467763Y35849D01*
X467794Y35689D01*
X467840Y35544D01*
X467885Y35422D01*
X467939Y35330D01*
X467984Y35262D01*
X468015Y35216D01*
X468030Y35201D01*
X468137Y35094D01*
X468259Y35010D01*
X468381Y34942D01*
X468487Y34896D01*
X468594Y34858D01*
X468670Y34827D01*
X468701Y34820D01*
X468723D01*
X468739Y34812D01*
X468746D01*
X468807Y34805D01*
X468891Y34797D01*
X468983Y34789D01*
X469082Y34782D01*
X469303Y34774D01*
X469531Y34766D01*
X469646D01*
X469752Y34759D01*
X471924D01*
Y37373D01*
D02*
G37*
G36*
X488200Y38813D02*
X488132D01*
X487994Y38805D01*
X487865Y38790D01*
X487743Y38759D01*
X487629Y38721D01*
X487522Y38683D01*
X487423Y38637D01*
X487332Y38584D01*
X487240Y38531D01*
X487164Y38477D01*
X487103Y38424D01*
X487042Y38378D01*
X486996Y38340D01*
X486958Y38302D01*
X486928Y38272D01*
X486912Y38256D01*
X486905Y38249D01*
X486821Y38142D01*
X486745Y38020D01*
X486676Y37898D01*
X486615Y37761D01*
X486570Y37632D01*
X486531Y37502D01*
X486470Y37243D01*
X486448Y37121D01*
X486432Y37007D01*
X486425Y36908D01*
X486417Y36824D01*
X486409Y36748D01*
Y36694D01*
Y36664D01*
Y36649D01*
X486417Y36458D01*
X486432Y36275D01*
X486455Y36100D01*
X486486Y35948D01*
X486524Y35803D01*
X486570Y35666D01*
X486608Y35544D01*
X486653Y35437D01*
X486707Y35338D01*
X486745Y35262D01*
X486791Y35186D01*
X486829Y35132D01*
X486859Y35087D01*
X486882Y35048D01*
X486897Y35033D01*
X486905Y35026D01*
X486996Y34927D01*
X487103Y34843D01*
X487202Y34767D01*
X487309Y34706D01*
X487408Y34652D01*
X487507Y34606D01*
X487606Y34568D01*
X487705Y34538D01*
X487789Y34515D01*
X487873Y34500D01*
X487949Y34485D01*
X488010Y34477D01*
X488063D01*
X488101Y34469D01*
X488132D01*
X488269Y34477D01*
X488391Y34492D01*
X488513Y34523D01*
X488634Y34553D01*
X488741Y34599D01*
X488840Y34645D01*
X488932Y34698D01*
X489016Y34751D01*
X489092Y34797D01*
X489160Y34850D01*
X489221Y34896D01*
X489267Y34942D01*
X489305Y34972D01*
X489336Y35003D01*
X489351Y35018D01*
X489358Y35026D01*
X489442Y35132D01*
X489518Y35254D01*
X489587Y35384D01*
X489648Y35513D01*
X489694Y35650D01*
X489732Y35780D01*
X489793Y36039D01*
X489816Y36161D01*
X489831Y36275D01*
X489838Y36382D01*
X489846Y36466D01*
X489854Y36542D01*
Y36595D01*
Y36626D01*
Y36641D01*
X489846Y36832D01*
X489831Y37015D01*
X489808Y37182D01*
X489777Y37334D01*
X489739Y37479D01*
X489694Y37609D01*
X489656Y37731D01*
X489602Y37837D01*
X489557Y37936D01*
X489518Y38020D01*
X489473Y38089D01*
X489435Y38142D01*
X489404Y38188D01*
X489381Y38226D01*
X489366Y38241D01*
X489358Y38249D01*
X489259Y38348D01*
X489160Y38432D01*
X489061Y38508D01*
X488955Y38577D01*
X488856Y38630D01*
X488749Y38676D01*
X488650Y38714D01*
X488558Y38744D01*
X488467Y38767D01*
X488391Y38782D01*
X488315Y38798D01*
X488254Y38805D01*
X488200Y38813D01*
D02*
G37*
G36*
X460921Y38813D02*
X460852D01*
X460715Y38805D01*
X460585Y38790D01*
X460463Y38759D01*
X460349Y38721D01*
X460242Y38683D01*
X460143Y38637D01*
X460052Y38584D01*
X459960Y38531D01*
X459884Y38477D01*
X459823Y38424D01*
X459762Y38378D01*
X459717Y38340D01*
X459678Y38302D01*
X459648Y38272D01*
X459633Y38256D01*
X459625Y38249D01*
X459541Y38142D01*
X459465Y38020D01*
X459397Y37898D01*
X459336Y37761D01*
X459290Y37632D01*
X459252Y37502D01*
X459191Y37243D01*
X459168Y37121D01*
X459153Y37007D01*
X459145Y36908D01*
X459137Y36824D01*
X459130Y36748D01*
Y36694D01*
Y36664D01*
Y36649D01*
X459137Y36458D01*
X459153Y36275D01*
X459176Y36100D01*
X459206Y35948D01*
X459244Y35803D01*
X459290Y35666D01*
X459328Y35544D01*
X459374Y35437D01*
X459427Y35338D01*
X459465Y35262D01*
X459511Y35186D01*
X459549Y35132D01*
X459579Y35087D01*
X459602Y35048D01*
X459618Y35033D01*
X459625Y35026D01*
X459717Y34927D01*
X459823Y34843D01*
X459922Y34766D01*
X460029Y34706D01*
X460128Y34652D01*
X460227Y34606D01*
X460326Y34568D01*
X460425Y34538D01*
X460509Y34515D01*
X460593Y34500D01*
X460669Y34485D01*
X460730Y34477D01*
X460783D01*
X460821Y34469D01*
X460852D01*
X460989Y34477D01*
X461111Y34492D01*
X461233Y34523D01*
X461355Y34553D01*
X461462Y34599D01*
X461561Y34645D01*
X461652Y34698D01*
X461736Y34751D01*
X461812Y34797D01*
X461881Y34850D01*
X461942Y34896D01*
X461987Y34942D01*
X462025Y34972D01*
X462056Y35003D01*
X462071Y35018D01*
X462079Y35026D01*
X462163Y35132D01*
X462239Y35254D01*
X462307Y35384D01*
X462368Y35513D01*
X462414Y35650D01*
X462452Y35780D01*
X462513Y36039D01*
X462536Y36161D01*
X462551Y36275D01*
X462559Y36382D01*
X462566Y36466D01*
X462574Y36542D01*
Y36595D01*
Y36626D01*
Y36641D01*
X462566Y36832D01*
X462551Y37014D01*
X462528Y37182D01*
X462498Y37334D01*
X462460Y37479D01*
X462414Y37609D01*
X462376Y37731D01*
X462323Y37837D01*
X462277Y37936D01*
X462239Y38020D01*
X462193Y38089D01*
X462155Y38142D01*
X462124Y38188D01*
X462102Y38226D01*
X462086Y38241D01*
X462079Y38249D01*
X461980Y38348D01*
X461881Y38432D01*
X461782Y38508D01*
X461675Y38577D01*
X461576Y38630D01*
X461469Y38676D01*
X461370Y38714D01*
X461279Y38744D01*
X461187Y38767D01*
X461111Y38782D01*
X461035Y38798D01*
X460974Y38805D01*
X460921Y38813D01*
D02*
G37*
G36*
X439844Y38904D02*
X439783D01*
X439653Y38897D01*
X439539Y38881D01*
X439425Y38851D01*
X439318Y38820D01*
X439127Y38737D01*
X439044Y38683D01*
X438967Y38637D01*
X438899Y38584D01*
X438838Y38531D01*
X438784Y38485D01*
X438739Y38447D01*
X438708Y38417D01*
X438685Y38386D01*
X438670Y38371D01*
X438662Y38363D01*
X438586Y38256D01*
X438518Y38135D01*
X438457Y38005D01*
X438404Y37868D01*
X438365Y37723D01*
X438327Y37571D01*
X438274Y37289D01*
X438259Y37152D01*
X438243Y37022D01*
X438236Y36908D01*
X438228Y36809D01*
X438221Y36725D01*
Y36664D01*
Y36626D01*
Y36611D01*
X438228Y36412D01*
X438243Y36230D01*
X438266Y36054D01*
X438289Y35894D01*
X438327Y35749D01*
X438365Y35612D01*
X438404Y35490D01*
X438449Y35384D01*
X438495Y35285D01*
X438533Y35201D01*
X438571Y35132D01*
X438609Y35079D01*
X438632Y35033D01*
X438655Y34995D01*
X438670Y34980D01*
X438678Y34972D01*
X438762Y34873D01*
X438853Y34789D01*
X438945Y34721D01*
X439036Y34652D01*
X439127Y34599D01*
X439219Y34561D01*
X439310Y34523D01*
X439394Y34492D01*
X439470Y34469D01*
X439539Y34454D01*
X439607Y34439D01*
X439661Y34431D01*
X439706D01*
X439737Y34424D01*
X439767D01*
X439912Y34431D01*
X440057Y34454D01*
X440187Y34492D01*
X440308Y34538D01*
X440415Y34591D01*
X440522Y34652D01*
X440621Y34721D01*
X440705Y34789D01*
X440781Y34858D01*
X440842Y34927D01*
X440903Y34987D01*
X440948Y35041D01*
X440987Y35087D01*
X441009Y35125D01*
X441025Y35148D01*
X441032Y35155D01*
X441086Y35254D01*
X441131Y35368D01*
X441177Y35490D01*
X441208Y35620D01*
X441261Y35894D01*
X441299Y36161D01*
X441314Y36291D01*
X441322Y36405D01*
X441329Y36511D01*
Y36611D01*
X441337Y36687D01*
Y36748D01*
Y36778D01*
Y36793D01*
X441329Y36984D01*
X441314Y37167D01*
X441299Y37327D01*
X441269Y37487D01*
X441238Y37624D01*
X441200Y37754D01*
X441154Y37875D01*
X441116Y37975D01*
X441078Y38066D01*
X441032Y38150D01*
X440994Y38218D01*
X440964Y38272D01*
X440933Y38317D01*
X440910Y38348D01*
X440903Y38363D01*
X440895Y38371D01*
X440811Y38462D01*
X440720Y38546D01*
X440629Y38615D01*
X440529Y38683D01*
X440438Y38729D01*
X440347Y38775D01*
X440255Y38813D01*
X440171Y38836D01*
X440088Y38858D01*
X440019Y38874D01*
X439950Y38889D01*
X439889Y38897D01*
X439844Y38904D01*
D02*
G37*
G36*
X510504Y28652D02*
X509155Y25033D01*
X511822D01*
X510504Y28652D01*
D02*
G37*
G36*
X531345Y29414D02*
X531284D01*
X531162Y29407D01*
X531047Y29384D01*
X530941Y29346D01*
X530857Y29308D01*
X530781Y29262D01*
X530727Y29231D01*
X530697Y29201D01*
X530682Y29193D01*
X530636Y29148D01*
X530583Y29094D01*
X530499Y28972D01*
X530423Y28828D01*
X530362Y28683D01*
X530308Y28546D01*
X530285Y28492D01*
X530270Y28439D01*
X530255Y28393D01*
X530247Y28363D01*
X530240Y28340D01*
Y28332D01*
X530209Y28203D01*
X530179Y28050D01*
X530156Y27875D01*
X530141Y27692D01*
X530118Y27502D01*
X530110Y27304D01*
X530087Y26915D01*
X530080Y26732D01*
X530072Y26557D01*
Y26397D01*
X530064Y26260D01*
Y26138D01*
Y26092D01*
Y26054D01*
Y26023D01*
Y26000D01*
Y25985D01*
Y25978D01*
Y25665D01*
X530072Y25376D01*
X530080Y25117D01*
X530095Y24873D01*
X530110Y24652D01*
X530125Y24446D01*
X530148Y24271D01*
X530163Y24111D01*
X530179Y23974D01*
X530202Y23859D01*
X530217Y23760D01*
X530232Y23676D01*
X530247Y23615D01*
X530255Y23577D01*
X530263Y23547D01*
Y23539D01*
X530293Y23440D01*
X530323Y23341D01*
X530354Y23257D01*
X530384Y23181D01*
X530453Y23044D01*
X530522Y22937D01*
X530583Y22861D01*
X530628Y22808D01*
X530659Y22770D01*
X530674Y22762D01*
X530773Y22693D01*
X530880Y22640D01*
X530987Y22602D01*
X531078Y22579D01*
X531162Y22564D01*
X531223Y22549D01*
X531284D01*
X531406Y22556D01*
X531520Y22579D01*
X531627Y22617D01*
X531718Y22655D01*
X531794Y22686D01*
X531847Y22724D01*
X531878Y22747D01*
X531893Y22754D01*
X531939Y22800D01*
X531985Y22853D01*
X532068Y22975D01*
X532145Y23120D01*
X532206Y23265D01*
X532259Y23394D01*
X532282Y23455D01*
X532297Y23501D01*
X532312Y23547D01*
X532320Y23577D01*
X532328Y23600D01*
Y23608D01*
X532358Y23745D01*
X532381Y23897D01*
X532404Y24065D01*
X532427Y24248D01*
X532442Y24446D01*
X532457Y24644D01*
X532472Y25033D01*
X532480Y25223D01*
X532488Y25398D01*
Y25559D01*
X532495Y25696D01*
Y25818D01*
Y25863D01*
Y25901D01*
Y25932D01*
Y25955D01*
Y25970D01*
Y25978D01*
Y26290D01*
X532488Y26572D01*
X532480Y26839D01*
X532465Y27083D01*
X532449Y27304D01*
X532434Y27502D01*
X532419Y27685D01*
X532396Y27837D01*
X532381Y27982D01*
X532366Y28096D01*
X532350Y28195D01*
X532335Y28279D01*
X532320Y28340D01*
X532312Y28386D01*
X532305Y28408D01*
Y28416D01*
X532274Y28515D01*
X532244Y28614D01*
X532213Y28698D01*
X532183Y28774D01*
X532114Y28911D01*
X532046Y29018D01*
X531985Y29094D01*
X531939Y29155D01*
X531908Y29186D01*
X531893Y29193D01*
X531787Y29269D01*
X531688Y29323D01*
X531581Y29361D01*
X531489Y29384D01*
X531406Y29407D01*
X531345Y29414D01*
D02*
G37*
G36*
X544573Y17486D02*
X544512D01*
X544390Y17478D01*
X544276Y17455D01*
X544169Y17417D01*
X544085Y17379D01*
X544009Y17334D01*
X543956Y17303D01*
X543925Y17273D01*
X543910Y17265D01*
X543864Y17219D01*
X543811Y17166D01*
X543727Y17044D01*
X543651Y16899D01*
X543590Y16754D01*
X543537Y16617D01*
X543514Y16564D01*
X543498Y16511D01*
X543483Y16465D01*
X543476Y16434D01*
X543468Y16411D01*
Y16404D01*
X543438Y16274D01*
X543407Y16122D01*
X543384Y15947D01*
X543369Y15764D01*
X543346Y15573D01*
X543339Y15375D01*
X543316Y14987D01*
X543308Y14804D01*
X543300Y14628D01*
Y14468D01*
X543293Y14331D01*
Y14209D01*
Y14164D01*
Y14125D01*
Y14095D01*
Y14072D01*
Y14057D01*
Y14049D01*
Y13737D01*
X543300Y13447D01*
X543308Y13188D01*
X543323Y12944D01*
X543339Y12723D01*
X543354Y12518D01*
X543377Y12342D01*
X543392Y12182D01*
X543407Y12045D01*
X543430Y11931D01*
X543445Y11832D01*
X543460Y11748D01*
X543476Y11687D01*
X543483Y11649D01*
X543491Y11618D01*
Y11611D01*
X543521Y11512D01*
X543552Y11413D01*
X543582Y11329D01*
X543613Y11253D01*
X543681Y11116D01*
X543750Y11009D01*
X543811Y10933D01*
X543857Y10879D01*
X543887Y10841D01*
X543902Y10834D01*
X544001Y10765D01*
X544108Y10712D01*
X544215Y10674D01*
X544306Y10651D01*
X544390Y10635D01*
X544451Y10620D01*
X544512D01*
X544634Y10628D01*
X544748Y10651D01*
X544855Y10689D01*
X544946Y10727D01*
X545023Y10757D01*
X545076Y10796D01*
X545106Y10818D01*
X545122Y10826D01*
X545167Y10872D01*
X545213Y10925D01*
X545297Y11047D01*
X545373Y11192D01*
X545434Y11337D01*
X545487Y11466D01*
X545510Y11527D01*
X545525Y11573D01*
X545541Y11618D01*
X545548Y11649D01*
X545556Y11672D01*
Y11680D01*
X545586Y11817D01*
X545609Y11969D01*
X545632Y12137D01*
X545655Y12320D01*
X545670Y12518D01*
X545685Y12716D01*
X545701Y13104D01*
X545708Y13295D01*
X545716Y13470D01*
Y13630D01*
X545723Y13767D01*
Y13889D01*
Y13935D01*
Y13973D01*
Y14004D01*
Y14026D01*
Y14042D01*
Y14049D01*
Y14362D01*
X545716Y14644D01*
X545708Y14910D01*
X545693Y15154D01*
X545678Y15375D01*
X545663Y15573D01*
X545647Y15756D01*
X545625Y15909D01*
X545609Y16053D01*
X545594Y16168D01*
X545579Y16267D01*
X545564Y16351D01*
X545548Y16411D01*
X545541Y16457D01*
X545533Y16480D01*
Y16488D01*
X545503Y16587D01*
X545472Y16686D01*
X545442Y16770D01*
X545411Y16846D01*
X545342Y16983D01*
X545274Y17090D01*
X545213Y17166D01*
X545167Y17227D01*
X545137Y17257D01*
X545122Y17265D01*
X545015Y17341D01*
X544916Y17394D01*
X544809Y17433D01*
X544718Y17455D01*
X544634Y17478D01*
X544573Y17486D01*
D02*
G37*
%LPD*%
D10*
X650300Y370000D02*
G03*
X650300Y370000I-30300J0D01*
G01*
X650300Y1370000D02*
G03*
X650300Y1370000I-30300J0D01*
G01*
X650300Y2370000D02*
G03*
X650300Y2370000I-30300J0D01*
G01*
X750300Y2470000D02*
G03*
X750300Y2470000I-30300J0D01*
G01*
X2850300Y1370000D02*
G03*
X2850300Y1370000I-30300J0D01*
G01*
Y370000D02*
G03*
X2850300Y370000I-30300J0D01*
G01*
X2750300Y270000D02*
G03*
X2750300Y270000I-30300J0D01*
G01*
X1750300D02*
G03*
X1750300Y270000I-30300J0D01*
G01*
X750300D02*
G03*
X750300Y270000I-30300J0D01*
G01*
X2750300Y2470000D02*
G03*
X2750300Y2470000I-30300J0D01*
G01*
X2850300Y2370000D02*
G03*
X2850300Y2370000I-30300J0D01*
G01*
X1000300Y1070000D02*
G03*
X1000300Y1070000I-30300J0D01*
G01*
X1000300Y1720000D02*
G03*
X1000300Y1720000I-30300J0D01*
G01*
X1000300Y2370000D02*
G03*
X1000300Y2370000I-30300J0D01*
G01*
X2400300Y970000D02*
G03*
X2400300Y970000I-30300J0D01*
G01*
X1750300D02*
G03*
X1750300Y970000I-30300J0D01*
G01*
X1100300D02*
G03*
X1100300Y970000I-30300J0D01*
G01*
X2500300Y2368769D02*
G03*
X2500300Y2368769I-30300J0D01*
G01*
Y1720000D02*
G03*
X2500300Y1720000I-30300J0D01*
G01*
Y1070000D02*
G03*
X2500300Y1070000I-30300J0D01*
G01*
X1750300Y2470000D02*
G03*
X1750300Y2470000I-30300J0D01*
G01*
X2400300D02*
G03*
X2400300Y2470000I-30300J0D01*
G01*
M02*
