G04*
G04 #@! TF.GenerationSoftware,Altium Limited,Altium NEXUS,5.8.2 (18)*
G04*
G04 Layer_Color=8388736*
%FSLAX44Y44*%
%MOMM*%
G71*
G04*
G04 #@! TF.SameCoordinates,7010C59B-F468-4F27-83F9-F03C6C8D88C1*
G04*
G04*
G04 #@! TF.FilePolarity,Negative*
G04*
G01*
G75*
%ADD16C,0.5000*%
%ADD30R,0.2425X0.8096*%
G04:AMPARAMS|DCode=31|XSize=0.8096mm|YSize=0.2425mm|CornerRadius=0.1212mm|HoleSize=0mm|Usage=FLASHONLY|Rotation=90.000|XOffset=0mm|YOffset=0mm|HoleType=Round|Shape=RoundedRectangle|*
%AMROUNDEDRECTD31*
21,1,0.8096,0.0000,0,0,90.0*
21,1,0.5672,0.2425,0,0,90.0*
1,1,0.2425,0.0000,0.2836*
1,1,0.2425,0.0000,-0.2836*
1,1,0.2425,0.0000,-0.2836*
1,1,0.2425,0.0000,0.2836*
%
%ADD31ROUNDEDRECTD31*%
G04:AMPARAMS|DCode=32|XSize=0.2425mm|YSize=0.8096mm|CornerRadius=0.1212mm|HoleSize=0mm|Usage=FLASHONLY|Rotation=90.000|XOffset=0mm|YOffset=0mm|HoleType=Round|Shape=RoundedRectangle|*
%AMROUNDEDRECTD32*
21,1,0.2425,0.5672,0,0,90.0*
21,1,0.0000,0.8096,0,0,90.0*
1,1,0.2425,0.2836,0.0000*
1,1,0.2425,0.2836,0.0000*
1,1,0.2425,-0.2836,0.0000*
1,1,0.2425,-0.2836,0.0000*
%
%ADD32ROUNDEDRECTD32*%
%ADD35R,0.8096X0.2425*%
G04:AMPARAMS|DCode=36|XSize=0.8096mm|YSize=0.2425mm|CornerRadius=0.1212mm|HoleSize=0mm|Usage=FLASHONLY|Rotation=0.000|XOffset=0mm|YOffset=0mm|HoleType=Round|Shape=RoundedRectangle|*
%AMROUNDEDRECTD36*
21,1,0.8096,0.0000,0,0,0.0*
21,1,0.5672,0.2425,0,0,0.0*
1,1,0.2425,0.2836,0.0000*
1,1,0.2425,-0.2836,0.0000*
1,1,0.2425,-0.2836,0.0000*
1,1,0.2425,0.2836,0.0000*
%
%ADD36ROUNDEDRECTD36*%
G04:AMPARAMS|DCode=37|XSize=0.2425mm|YSize=0.8096mm|CornerRadius=0.1212mm|HoleSize=0mm|Usage=FLASHONLY|Rotation=0.000|XOffset=0mm|YOffset=0mm|HoleType=Round|Shape=RoundedRectangle|*
%AMROUNDEDRECTD37*
21,1,0.2425,0.5672,0,0,0.0*
21,1,0.0000,0.8096,0,0,0.0*
1,1,0.2425,0.0000,-0.2836*
1,1,0.2425,0.0000,-0.2836*
1,1,0.2425,0.0000,0.2836*
1,1,0.2425,0.0000,0.2836*
%
%ADD37ROUNDEDRECTD37*%
%ADD46R,0.5500X0.4000*%
%ADD47R,0.4000X0.5500*%
G04:AMPARAMS|DCode=53|XSize=0.4mm|YSize=0.55mm|CornerRadius=0mm|HoleSize=0mm|Usage=FLASHONLY|Rotation=30.000|XOffset=0mm|YOffset=0mm|HoleType=Round|Shape=Rectangle|*
%AMROTATEDRECTD53*
4,1,4,-0.0357,-0.3382,-0.3107,0.1382,0.0357,0.3382,0.3107,-0.1382,-0.0357,-0.3382,0.0*
%
%ADD53ROTATEDRECTD53*%

G04:AMPARAMS|DCode=54|XSize=0.55mm|YSize=0.4mm|CornerRadius=0mm|HoleSize=0mm|Usage=FLASHONLY|Rotation=30.000|XOffset=0mm|YOffset=0mm|HoleType=Round|Shape=Rectangle|*
%AMROTATEDRECTD54*
4,1,4,-0.1382,-0.3107,-0.3382,0.0357,0.1382,0.3107,0.3382,-0.0357,-0.1382,-0.3107,0.0*
%
%ADD54ROTATEDRECTD54*%

G04:AMPARAMS|DCode=55|XSize=0.55mm|YSize=0.4mm|CornerRadius=0mm|HoleSize=0mm|Usage=FLASHONLY|Rotation=60.000|XOffset=0mm|YOffset=0mm|HoleType=Round|Shape=Rectangle|*
%AMROTATEDRECTD55*
4,1,4,0.0357,-0.3382,-0.3107,-0.1382,-0.0357,0.3382,0.3107,0.1382,0.0357,-0.3382,0.0*
%
%ADD55ROTATEDRECTD55*%

G04:AMPARAMS|DCode=56|XSize=0.4mm|YSize=0.55mm|CornerRadius=0mm|HoleSize=0mm|Usage=FLASHONLY|Rotation=60.000|XOffset=0mm|YOffset=0mm|HoleType=Round|Shape=Rectangle|*
%AMROTATEDRECTD56*
4,1,4,0.1382,-0.3107,-0.3382,-0.0357,-0.1382,0.3107,0.3382,0.0357,0.1382,-0.3107,0.0*
%
%ADD56ROTATEDRECTD56*%

%ADD68R,0.4725X0.5153*%
G04:AMPARAMS|DCode=71|XSize=0.45mm|YSize=0.3mm|CornerRadius=0.0495mm|HoleSize=0mm|Usage=FLASHONLY|Rotation=90.000|XOffset=0mm|YOffset=0mm|HoleType=Round|Shape=RoundedRectangle|*
%AMROUNDEDRECTD71*
21,1,0.4500,0.2010,0,0,90.0*
21,1,0.3510,0.3000,0,0,90.0*
1,1,0.0990,0.1005,0.1755*
1,1,0.0990,0.1005,-0.1755*
1,1,0.0990,-0.1005,-0.1755*
1,1,0.0990,-0.1005,0.1755*
%
%ADD71ROUNDEDRECTD71*%
%ADD72C,1.9000*%
%ADD73C,0.4500*%
%ADD74R,0.6600X0.6200*%
%ADD75R,1.1000X3.2000*%
%ADD76R,0.8600X0.8200*%
%ADD77R,0.8000X1.0000*%
%ADD78R,0.6000X0.5500*%
%ADD79C,1.1000*%
%ADD80R,2.3000X1.1500*%
%ADD81R,1.1000X1.1000*%
%ADD82R,0.4600X0.3500*%
%ADD83R,0.5500X0.5500*%
%ADD84R,0.6200X0.6600*%
%ADD85R,1.0000X0.9500*%
%ADD86R,1.0000X0.8000*%
%ADD87R,0.5500X0.6000*%
%ADD88O,1.8000X0.4500*%
%ADD89R,0.5500X0.5500*%
%ADD90R,2.6000X1.5000*%
%ADD91O,1.1000X0.3000*%
%ADD92O,0.3000X1.1000*%
%ADD93R,2.1000X5.4000*%
%ADD94C,0.8874*%
G04:AMPARAMS|DCode=95|XSize=0.75mm|YSize=1.45mm|CornerRadius=0.0988mm|HoleSize=0mm|Usage=FLASHONLY|Rotation=0.000|XOffset=0mm|YOffset=0mm|HoleType=Round|Shape=RoundedRectangle|*
%AMROUNDEDRECTD95*
21,1,0.7500,1.2525,0,0,0.0*
21,1,0.5525,1.4500,0,0,0.0*
1,1,0.1975,0.2763,-0.6262*
1,1,0.1975,-0.2763,-0.6262*
1,1,0.1975,-0.2763,0.6262*
1,1,0.1975,0.2763,0.6262*
%
%ADD95ROUNDEDRECTD95*%
G04:AMPARAMS|DCode=96|XSize=0.35mm|YSize=0.6mm|CornerRadius=0.1mm|HoleSize=0mm|Usage=FLASHONLY|Rotation=270.000|XOffset=0mm|YOffset=0mm|HoleType=Round|Shape=RoundedRectangle|*
%AMROUNDEDRECTD96*
21,1,0.3500,0.4000,0,0,270.0*
21,1,0.1500,0.6000,0,0,270.0*
1,1,0.2000,-0.2000,-0.0750*
1,1,0.2000,-0.2000,0.0750*
1,1,0.2000,0.2000,0.0750*
1,1,0.2000,0.2000,-0.0750*
%
%ADD96ROUNDEDRECTD96*%
%ADD97R,0.9500X0.8900*%
%ADD98R,0.8900X0.9500*%
%ADD99R,0.6700X0.6800*%
%ADD100R,0.9500X1.0000*%
%ADD101R,0.9240X0.4540*%
%ADD102R,0.4040X1.8040*%
%ADD103R,1.1500X1.2500*%
G04:AMPARAMS|DCode=104|XSize=0.62mm|YSize=0.66mm|CornerRadius=0mm|HoleSize=0mm|Usage=FLASHONLY|Rotation=30.000|XOffset=0mm|YOffset=0mm|HoleType=Round|Shape=Rectangle|*
%AMROTATEDRECTD104*
4,1,4,-0.1035,-0.4408,-0.4335,0.1308,0.1035,0.4408,0.4335,-0.1308,-0.1035,-0.4408,0.0*
%
%ADD104ROTATEDRECTD104*%

G04:AMPARAMS|DCode=105|XSize=0.62mm|YSize=0.66mm|CornerRadius=0mm|HoleSize=0mm|Usage=FLASHONLY|Rotation=330.000|XOffset=0mm|YOffset=0mm|HoleType=Round|Shape=Rectangle|*
%AMROTATEDRECTD105*
4,1,4,-0.4335,-0.1308,-0.1035,0.4408,0.4335,0.1308,0.1035,-0.4408,-0.4335,-0.1308,0.0*
%
%ADD105ROTATEDRECTD105*%

G04:AMPARAMS|DCode=106|XSize=1mm|YSize=0.95mm|CornerRadius=0mm|HoleSize=0mm|Usage=FLASHONLY|Rotation=300.000|XOffset=0mm|YOffset=0mm|HoleType=Round|Shape=Rectangle|*
%AMROTATEDRECTD106*
4,1,4,-0.6614,0.1955,0.1614,0.6705,0.6614,-0.1955,-0.1614,-0.6705,-0.6614,0.1955,0.0*
%
%ADD106ROTATEDRECTD106*%

G04:AMPARAMS|DCode=107|XSize=1mm|YSize=0.95mm|CornerRadius=0mm|HoleSize=0mm|Usage=FLASHONLY|Rotation=60.000|XOffset=0mm|YOffset=0mm|HoleType=Round|Shape=Rectangle|*
%AMROTATEDRECTD107*
4,1,4,0.1614,-0.6705,-0.6614,-0.1955,-0.1614,0.6705,0.6614,0.1955,0.1614,-0.6705,0.0*
%
%ADD107ROTATEDRECTD107*%

%ADD108R,6.0700X1.8800*%
%ADD109O,2.2000X0.4500*%
%ADD110R,0.6400X0.6800*%
%ADD111R,1.5000X2.6000*%
%ADD112C,0.2850*%
%ADD113R,2.1000X1.1000*%
%ADD114R,0.4000X1.6500*%
%ADD115R,1.3000X2.8500*%
G04:AMPARAMS|DCode=116|XSize=1mm|YSize=1.6mm|CornerRadius=0.05mm|HoleSize=0mm|Usage=FLASHONLY|Rotation=90.000|XOffset=0mm|YOffset=0mm|HoleType=Round|Shape=RoundedRectangle|*
%AMROUNDEDRECTD116*
21,1,1.0000,1.5000,0,0,90.0*
21,1,0.9000,1.6000,0,0,90.0*
1,1,0.1000,0.7500,0.4500*
1,1,0.1000,0.7500,-0.4500*
1,1,0.1000,-0.7500,-0.4500*
1,1,0.1000,-0.7500,0.4500*
%
%ADD116ROUNDEDRECTD116*%
%ADD117C,5.4000*%
%ADD118C,0.6080*%
%ADD119C,3.3000*%
%ADD120C,2.6000*%
%ADD121C,1.1000*%
%ADD122C,1.6000*%
G36*
X1072912Y68933D02*
X1074472D01*
Y68710D01*
X1075587D01*
Y68487D01*
X1076256D01*
Y68264D01*
X1076702D01*
Y68041D01*
X1077371D01*
Y67818D01*
X1077594D01*
Y67595D01*
X1078039D01*
Y67372D01*
X1078262D01*
Y67150D01*
X1078708D01*
Y66927D01*
X1078931D01*
Y66704D01*
X1079154D01*
Y66481D01*
X1079377D01*
Y66258D01*
X1079600D01*
Y66035D01*
X1079823D01*
Y65812D01*
X1080046D01*
Y65589D01*
Y65366D01*
X1080269D01*
Y65143D01*
Y64920D01*
X1080492D01*
Y64697D01*
X1080715D01*
Y64474D01*
Y64251D01*
Y64028D01*
X1080938D01*
Y63805D01*
Y63582D01*
X1081161D01*
Y63359D01*
Y63136D01*
Y62913D01*
Y62691D01*
X1081384D01*
Y62468D01*
Y62245D01*
Y62022D01*
Y61799D01*
Y61576D01*
Y61353D01*
X1081607D01*
Y61130D01*
Y60907D01*
Y60684D01*
Y60461D01*
Y60238D01*
Y60015D01*
Y59792D01*
Y59569D01*
Y59346D01*
Y59123D01*
Y58900D01*
Y58735D01*
X1081384D01*
Y58678D01*
Y58454D01*
Y58232D01*
Y58009D01*
Y57786D01*
Y57563D01*
Y57398D01*
X1081161D01*
Y57340D01*
Y57117D01*
Y56894D01*
Y56671D01*
Y56506D01*
X1080938D01*
Y56448D01*
Y56225D01*
Y56060D01*
X1080715D01*
Y56002D01*
Y55779D01*
Y55556D01*
Y55391D01*
X1080492D01*
Y55333D01*
Y55168D01*
X1080269D01*
Y55110D01*
Y54887D01*
Y54722D01*
X1080046D01*
Y54664D01*
Y54441D01*
Y54276D01*
X1079823D01*
Y54219D01*
Y54053D01*
X1079600D01*
Y53995D01*
Y53830D01*
X1079377D01*
Y53773D01*
Y53608D01*
X1079154D01*
Y53550D01*
Y53384D01*
X1078931D01*
Y53327D01*
Y53162D01*
X1078708D01*
Y53104D01*
Y52939D01*
X1078485D01*
Y52881D01*
Y52716D01*
X1078039D01*
Y52658D01*
Y52493D01*
X1077816D01*
Y52435D01*
Y52270D01*
X1077371D01*
Y52212D01*
Y52047D01*
X1076925D01*
Y51989D01*
Y51824D01*
X1076256D01*
Y51766D01*
Y51601D01*
X1075587D01*
Y51543D01*
Y51378D01*
X1074695D01*
Y51320D01*
Y51155D01*
X1061541D01*
Y51320D01*
Y51543D01*
Y51766D01*
Y51989D01*
Y52212D01*
Y52435D01*
Y52658D01*
Y52881D01*
Y53104D01*
Y53162D01*
X1061318D01*
Y53327D01*
Y53550D01*
X1073580D01*
Y53773D01*
X1074472D01*
Y53995D01*
X1075141D01*
Y54219D01*
X1075587D01*
Y54441D01*
X1076033D01*
Y54664D01*
X1076256D01*
Y54887D01*
X1076702D01*
Y55110D01*
X1076925D01*
Y55333D01*
X1077148D01*
Y55556D01*
X1077371D01*
Y55779D01*
X1077594D01*
Y56002D01*
X1077816D01*
Y56225D01*
Y56448D01*
X1078039D01*
Y56671D01*
Y56894D01*
X1078262D01*
Y57117D01*
Y57340D01*
X1078485D01*
Y57563D01*
Y57786D01*
Y58009D01*
X1078708D01*
Y58232D01*
Y58454D01*
Y58678D01*
Y58900D01*
Y59123D01*
Y59346D01*
X1078931D01*
Y59569D01*
Y59792D01*
Y60015D01*
Y60238D01*
Y60461D01*
Y60684D01*
Y60742D01*
X1078708D01*
Y60907D01*
Y61130D01*
Y61353D01*
Y61576D01*
Y61799D01*
Y62022D01*
Y62080D01*
X1078485D01*
Y62245D01*
Y62468D01*
Y62691D01*
Y62748D01*
X1078262D01*
Y62913D01*
Y63136D01*
Y63194D01*
X1078039D01*
Y63359D01*
Y63582D01*
Y63640D01*
X1077816D01*
Y63805D01*
Y63863D01*
X1077594D01*
Y64028D01*
Y64251D01*
Y64309D01*
X1077371D01*
Y64474D01*
Y64532D01*
X1077148D01*
Y64697D01*
Y64755D01*
X1076925D01*
Y64920D01*
Y64978D01*
X1076702D01*
Y65143D01*
Y65201D01*
X1076256D01*
Y65366D01*
Y65424D01*
X1076033D01*
Y65589D01*
Y65647D01*
X1075587D01*
Y65812D01*
Y65870D01*
X1075141D01*
Y66035D01*
Y66093D01*
X1074472D01*
Y66258D01*
Y66316D01*
X1073580D01*
Y66481D01*
Y66539D01*
X1061318D01*
Y66704D01*
Y66927D01*
X1061541D01*
Y67150D01*
Y67372D01*
Y67595D01*
Y67818D01*
Y68041D01*
Y68264D01*
Y68487D01*
Y68710D01*
Y68933D01*
Y69156D01*
X1072912D01*
Y68933D01*
D02*
G37*
G36*
X908250Y10000D02*
X889800D01*
X894300Y29175D01*
X881500D01*
X877000Y10000D01*
X858550D01*
X867225Y47000D01*
X850750D01*
X842050Y10000D01*
X822500D01*
X831225Y47000D01*
X788225D01*
X786825Y41100D01*
X813400D01*
X810575Y29100D01*
X784025D01*
X782600Y23000D01*
X810350D01*
X807300Y10000D01*
X760000D01*
X771750Y60000D01*
X888725D01*
X884325Y41175D01*
X897125D01*
X901550Y60000D01*
X920000D01*
X908250Y10000D01*
D02*
G37*
G36*
X986000Y27850D02*
X986900Y27525D01*
X986100Y23900D01*
X985400Y24100D01*
X984900Y24200D01*
X983800Y24300D01*
X982600D01*
X981800Y24200D01*
X981000Y23900D01*
X980200Y23400D01*
X979300Y22300D01*
X978700Y21400D01*
X978200Y20300D01*
X977800Y19000D01*
X977600Y17700D01*
Y16800D01*
X977700Y16100D01*
X977900Y15400D01*
X978200Y14800D01*
X978600Y14400D01*
X979300Y14000D01*
X980100Y13800D01*
X980800D01*
X981800Y13900D01*
X983100Y14200D01*
X984025Y14525D01*
X983600Y10600D01*
X983125Y10475D01*
X982000Y10200D01*
X980200Y10000D01*
X979200D01*
X977200Y10200D01*
X976300Y10400D01*
X975400Y10800D01*
X974600Y11400D01*
X974000Y12200D01*
X973500Y13200D01*
X973200Y14200D01*
X973000Y15700D01*
Y17400D01*
X973200Y18700D01*
X973500Y20000D01*
X974000Y21400D01*
X974500Y22600D01*
X975200Y23800D01*
X976000Y24800D01*
X976800Y25600D01*
X978100Y26600D01*
X979700Y27400D01*
X981600Y27850D01*
X983400Y28000D01*
X985000D01*
X986000Y27850D01*
D02*
G37*
G36*
X964000Y28000D02*
X963075Y23825D01*
X962400Y24000D01*
X961900D01*
X961200Y23700D01*
X960500Y23200D01*
X959650Y22350D01*
X958400Y20700D01*
X957500Y19000D01*
X956400Y16300D01*
X955450Y13225D01*
X954825Y10400D01*
X950725D01*
X954600Y27850D01*
X958700D01*
X957625Y23000D01*
X958400Y24600D01*
X959200Y25800D01*
X959900Y26500D01*
X960700Y27200D01*
X961300Y27600D01*
X962200Y28000D01*
X962800Y28100D01*
X963400D01*
X964000Y28000D01*
D02*
G37*
G36*
X1058197Y53327D02*
Y53104D01*
Y52881D01*
Y52658D01*
Y52435D01*
Y52212D01*
Y51989D01*
Y51766D01*
Y51543D01*
Y51320D01*
Y51155D01*
X1046827D01*
Y51097D01*
Y50932D01*
X1045266D01*
Y50874D01*
Y50709D01*
X1044374D01*
Y50651D01*
Y50486D01*
X1043928D01*
Y50428D01*
Y50263D01*
X1043482D01*
Y50205D01*
Y50040D01*
X1043036D01*
Y49983D01*
Y49817D01*
X1042591D01*
Y49759D01*
Y49594D01*
X1042368D01*
Y49537D01*
Y49372D01*
X1042145D01*
Y49314D01*
Y49149D01*
X1041922D01*
Y49091D01*
Y48926D01*
X1041699D01*
Y48868D01*
Y48645D01*
Y48480D01*
X1041476D01*
Y48422D01*
Y48257D01*
X1041253D01*
Y48199D01*
Y47976D01*
Y47811D01*
X1041030D01*
Y47753D01*
Y47530D01*
Y47307D01*
Y47142D01*
X1040807D01*
Y47084D01*
Y46861D01*
Y46638D01*
Y46415D01*
Y46192D01*
Y46027D01*
X1040584D01*
Y45969D01*
Y45746D01*
Y45524D01*
Y45300D01*
Y45078D01*
Y44855D01*
Y44632D01*
Y44409D01*
X1040807D01*
Y44186D01*
Y43963D01*
Y43740D01*
Y43517D01*
Y43294D01*
X1041030D01*
Y43071D01*
Y42848D01*
X1041253D01*
Y42625D01*
Y42402D01*
X1041476D01*
Y42179D01*
X1041699D01*
Y41956D01*
X1041922D01*
Y41733D01*
X1042145D01*
Y41510D01*
X1042368D01*
Y41287D01*
X1042591D01*
Y41065D01*
X1042813D01*
Y40841D01*
X1043259D01*
Y40619D01*
X1043705D01*
Y40396D01*
X1044151D01*
Y40173D01*
X1044820D01*
Y39950D01*
X1045712D01*
Y39727D01*
X1058197D01*
Y39504D01*
Y39281D01*
Y39058D01*
Y38835D01*
Y38612D01*
Y38389D01*
Y38166D01*
Y37943D01*
Y37720D01*
Y37497D01*
Y37274D01*
Y37109D01*
X1045043D01*
Y37051D01*
Y36886D01*
X1044151D01*
Y36828D01*
Y36663D01*
X1043259D01*
Y36606D01*
Y36440D01*
X1042813D01*
Y36383D01*
Y36218D01*
X1042368D01*
Y36160D01*
Y35995D01*
X1041922D01*
Y35937D01*
Y35772D01*
X1041699D01*
Y35714D01*
Y35549D01*
X1041253D01*
Y35491D01*
Y35326D01*
X1041030D01*
Y35268D01*
Y35103D01*
X1040807D01*
Y35045D01*
Y34880D01*
X1040584D01*
Y34822D01*
Y34599D01*
Y34434D01*
X1040361D01*
Y34376D01*
Y34211D01*
X1040138D01*
Y34153D01*
Y33930D01*
Y33765D01*
X1039915D01*
Y33707D01*
Y33484D01*
Y33319D01*
X1039692D01*
Y33261D01*
Y33038D01*
Y32815D01*
Y32592D01*
Y32427D01*
X1039469D01*
Y32369D01*
Y32146D01*
Y31924D01*
Y31701D01*
Y31478D01*
Y31255D01*
Y31032D01*
Y30809D01*
Y30586D01*
Y30363D01*
Y30140D01*
Y29917D01*
Y29694D01*
Y29471D01*
X1039692D01*
Y29248D01*
Y29025D01*
Y28802D01*
Y28579D01*
X1039915D01*
Y28356D01*
Y28133D01*
X1040138D01*
Y27910D01*
Y27687D01*
X1040361D01*
Y27465D01*
Y27242D01*
X1040584D01*
Y27019D01*
X1040807D01*
Y26796D01*
X1041030D01*
Y26573D01*
X1041253D01*
Y26350D01*
X1041476D01*
Y26127D01*
X1041699D01*
Y25904D01*
X1042145D01*
Y25681D01*
X1042368D01*
Y25458D01*
X1042813D01*
Y25235D01*
X1043482D01*
Y25012D01*
X1044151D01*
Y24789D01*
X1045266D01*
Y24566D01*
X1047495D01*
Y24343D01*
X1058197D01*
Y24120D01*
Y23897D01*
Y23674D01*
Y23451D01*
Y23229D01*
Y23006D01*
Y22783D01*
Y22560D01*
Y22337D01*
Y22114D01*
Y21949D01*
X1046381D01*
Y22114D01*
Y22172D01*
X1044374D01*
Y22337D01*
Y22395D01*
X1043259D01*
Y22560D01*
Y22618D01*
X1042591D01*
Y22783D01*
Y22840D01*
X1041922D01*
Y23006D01*
Y23063D01*
X1041253D01*
Y23229D01*
Y23286D01*
X1040807D01*
Y23451D01*
Y23509D01*
X1040361D01*
Y23674D01*
Y23732D01*
X1040138D01*
Y23897D01*
Y23955D01*
X1039692D01*
Y24120D01*
Y24178D01*
X1039469D01*
Y24343D01*
Y24401D01*
X1039246D01*
Y24566D01*
Y24624D01*
X1039023D01*
Y24789D01*
Y24847D01*
X1038800D01*
Y25012D01*
Y25070D01*
X1038577D01*
Y25235D01*
Y25293D01*
X1038354D01*
Y25458D01*
Y25516D01*
X1038132D01*
Y25681D01*
Y25904D01*
Y25962D01*
X1037909D01*
Y26127D01*
Y26185D01*
X1037686D01*
Y26350D01*
Y26573D01*
Y26631D01*
X1037463D01*
Y26796D01*
Y27019D01*
Y27242D01*
Y27299D01*
X1037240D01*
Y27465D01*
Y27687D01*
Y27910D01*
Y27968D01*
X1037017D01*
Y28133D01*
Y28356D01*
Y28579D01*
Y28802D01*
Y28860D01*
X1036794D01*
Y29025D01*
Y29248D01*
Y29471D01*
Y29694D01*
Y29917D01*
Y30140D01*
Y30363D01*
Y30586D01*
Y30644D01*
X1036571D01*
Y30809D01*
Y31032D01*
Y31255D01*
X1036794D01*
Y31478D01*
Y31701D01*
Y31924D01*
Y32146D01*
Y32369D01*
Y32592D01*
Y32815D01*
X1037017D01*
Y33038D01*
Y33261D01*
Y33484D01*
Y33707D01*
X1037240D01*
Y33930D01*
Y34153D01*
X1037463D01*
Y34376D01*
Y34599D01*
Y34822D01*
X1037686D01*
Y35045D01*
Y35268D01*
X1037909D01*
Y35491D01*
X1038132D01*
Y35714D01*
X1038354D01*
Y35937D01*
Y36160D01*
X1038577D01*
Y36383D01*
X1038800D01*
Y36606D01*
X1039023D01*
Y36828D01*
X1039246D01*
Y37051D01*
X1039692D01*
Y37274D01*
X1039915D01*
Y37497D01*
X1040361D01*
Y37720D01*
X1040584D01*
Y37943D01*
X1041253D01*
Y38166D01*
X1041922D01*
Y38389D01*
X1042813D01*
Y38612D01*
X1043482D01*
Y38835D01*
Y38893D01*
X1042591D01*
Y39058D01*
Y39116D01*
X1041922D01*
Y39281D01*
Y39339D01*
X1041476D01*
Y39504D01*
Y39562D01*
X1041253D01*
Y39727D01*
Y39785D01*
X1040807D01*
Y39950D01*
Y40008D01*
X1040584D01*
Y40173D01*
Y40230D01*
X1040361D01*
Y40396D01*
Y40454D01*
X1040138D01*
Y40619D01*
Y40676D01*
X1039915D01*
Y40841D01*
Y40899D01*
X1039692D01*
Y41065D01*
Y41122D01*
X1039469D01*
Y41287D01*
Y41345D01*
X1039246D01*
Y41510D01*
Y41733D01*
Y41791D01*
X1039023D01*
Y41956D01*
Y42014D01*
X1038800D01*
Y42179D01*
Y42402D01*
Y42460D01*
X1038577D01*
Y42625D01*
Y42848D01*
Y42906D01*
X1038354D01*
Y43071D01*
Y43294D01*
Y43517D01*
Y43575D01*
X1038132D01*
Y43740D01*
Y43963D01*
Y44186D01*
Y44409D01*
Y44632D01*
Y44689D01*
X1037909D01*
Y44855D01*
Y45078D01*
Y45300D01*
Y45524D01*
Y45746D01*
Y45969D01*
Y46192D01*
Y46415D01*
Y46638D01*
Y46861D01*
Y47084D01*
X1038132D01*
Y47307D01*
Y47530D01*
Y47753D01*
Y47976D01*
Y48199D01*
X1038354D01*
Y48422D01*
Y48645D01*
Y48868D01*
X1038577D01*
Y49091D01*
Y49314D01*
Y49537D01*
X1038800D01*
Y49759D01*
X1039023D01*
Y49983D01*
Y50205D01*
X1039246D01*
Y50428D01*
X1039469D01*
Y50651D01*
X1039692D01*
Y50874D01*
X1039915D01*
Y51097D01*
Y51320D01*
X1040361D01*
Y51543D01*
X1040584D01*
Y51766D01*
X1041030D01*
Y51989D01*
X1041253D01*
Y52212D01*
X1041699D01*
Y52435D01*
X1042145D01*
Y52658D01*
X1042813D01*
Y52881D01*
X1043482D01*
Y53104D01*
X1044597D01*
Y53327D01*
X1045935D01*
Y53550D01*
X1058197D01*
Y53327D01*
D02*
G37*
G36*
X946100Y10400D02*
X941500D01*
X942200Y13600D01*
X941050Y12250D01*
X940000Y11200D01*
X938600Y10400D01*
X937000Y10000D01*
X935400D01*
X934600Y10200D01*
X933600Y10800D01*
X932800Y11600D01*
X932400Y12800D01*
X932200Y14200D01*
X932275Y15700D01*
X933000Y19000D01*
X934925Y27850D01*
X939375D01*
X936800Y16300D01*
X936700Y15600D01*
Y14800D01*
X936800Y14200D01*
X937200Y13800D01*
X937800Y13600D01*
X938400D01*
X939200Y14000D01*
X940000Y14550D01*
X941000Y15600D01*
X942000Y17200D01*
X943000Y19000D01*
X943850Y21025D01*
X945350Y27850D01*
X949975D01*
X946100Y10400D01*
D02*
G37*
G36*
X994150Y24650D02*
X995300Y26000D01*
X996350Y27050D01*
X997750Y27850D01*
X999350Y28250D01*
X1000950D01*
X1001750Y28050D01*
X1002750Y27450D01*
X1003550Y26650D01*
X1003950Y25450D01*
X1004150Y24050D01*
X1004075Y22550D01*
X1003350Y19250D01*
X1001425Y10400D01*
X996975D01*
X999550Y21950D01*
X999650Y22650D01*
Y23450D01*
X999550Y24050D01*
X999150Y24450D01*
X998550Y24650D01*
X997950D01*
X997150Y24250D01*
X996350Y23700D01*
X995350Y22650D01*
X994350Y21050D01*
X993350Y19250D01*
X992500Y17225D01*
X991000Y10400D01*
X986900D01*
X992575Y36025D01*
X996675D01*
X994150Y24650D01*
D02*
G37*
G36*
X967300Y10400D02*
X963200D01*
X967075Y27850D01*
X971175D01*
X967300Y10400D01*
D02*
G37*
G36*
X932075Y31400D02*
X919150Y14550D01*
X928325D01*
X927400Y10400D01*
X912300D01*
X912875Y13075D01*
X925750Y29850D01*
X916600D01*
X917525Y34000D01*
X932650D01*
X932075Y31400D01*
D02*
G37*
G36*
X1078708Y8291D02*
Y8068D01*
Y7845D01*
Y7622D01*
Y7399D01*
Y7176D01*
Y6953D01*
Y6730D01*
Y6507D01*
Y6284D01*
Y6119D01*
X1061318D01*
Y6284D01*
Y6507D01*
Y6730D01*
Y6953D01*
Y7176D01*
Y7399D01*
Y7622D01*
Y7845D01*
Y8068D01*
Y8291D01*
Y8514D01*
X1078708D01*
Y8291D01*
D02*
G37*
G36*
X1149850Y56482D02*
X1149949D01*
X1150079Y56467D01*
X1150223Y56452D01*
X1150391Y56429D01*
X1150566Y56398D01*
X1150757Y56360D01*
X1150955Y56307D01*
X1151161Y56246D01*
X1151366Y56177D01*
X1151572Y56086D01*
X1151778Y55987D01*
X1151984Y55872D01*
X1152174Y55743D01*
X1152189Y55735D01*
X1152220Y55705D01*
X1152266Y55667D01*
X1152334Y55606D01*
X1152418Y55529D01*
X1152509Y55438D01*
X1152616Y55324D01*
X1152723Y55202D01*
X1152837Y55057D01*
X1152951Y54905D01*
X1153073Y54729D01*
X1153188Y54539D01*
X1153294Y54341D01*
X1153393Y54120D01*
X1153485Y53884D01*
X1153569Y53640D01*
X1153516Y53628D01*
X1153569Y53475D01*
X1152296Y53177D01*
Y53193D01*
X1152281Y53223D01*
X1152258Y53277D01*
X1152235Y53353D01*
X1152197Y53437D01*
X1152151Y53543D01*
X1152105Y53650D01*
X1152045Y53772D01*
X1151907Y54023D01*
X1151732Y54282D01*
X1151641Y54404D01*
X1151534Y54526D01*
X1151420Y54633D01*
X1151305Y54732D01*
X1151298Y54740D01*
X1151275Y54755D01*
X1151237Y54778D01*
X1151191Y54808D01*
X1151123Y54846D01*
X1151046Y54884D01*
X1150963Y54930D01*
X1150863Y54976D01*
X1150749Y55022D01*
X1150627Y55067D01*
X1150490Y55105D01*
X1150345Y55143D01*
X1150193Y55174D01*
X1150033Y55197D01*
X1149865Y55212D01*
X1149682Y55220D01*
X1149576D01*
X1149492Y55212D01*
X1149400Y55204D01*
X1149286Y55189D01*
X1149164Y55174D01*
X1149027Y55151D01*
X1148882Y55121D01*
X1148730Y55090D01*
X1148570Y55044D01*
X1148410Y54991D01*
X1148257Y54930D01*
X1148097Y54854D01*
X1147945Y54778D01*
X1147800Y54679D01*
X1147793Y54671D01*
X1147770Y54656D01*
X1147732Y54625D01*
X1147678Y54580D01*
X1147617Y54526D01*
X1147549Y54458D01*
X1147465Y54381D01*
X1147389Y54298D01*
X1147297Y54199D01*
X1147214Y54084D01*
X1147122Y53970D01*
X1147038Y53840D01*
X1146954Y53696D01*
X1146871Y53551D01*
X1146802Y53391D01*
X1146741Y53223D01*
Y53216D01*
X1146726Y53185D01*
X1146711Y53132D01*
X1146695Y53063D01*
X1146673Y52987D01*
X1146642Y52888D01*
X1146619Y52774D01*
X1146589Y52652D01*
X1146558Y52515D01*
X1146535Y52370D01*
X1146505Y52210D01*
X1146482Y52050D01*
X1146451Y51707D01*
X1146438Y51378D01*
X1146444Y51308D01*
Y51194D01*
X1146459Y51072D01*
X1146467Y50927D01*
X1146482Y50775D01*
X1146497Y50607D01*
X1146528Y50432D01*
X1146589Y50066D01*
X1146680Y49693D01*
X1146733Y49510D01*
X1146794Y49335D01*
X1146802Y49327D01*
X1146810Y49296D01*
X1146833Y49243D01*
X1146863Y49182D01*
X1146901Y49106D01*
X1146947Y49014D01*
X1147008Y48915D01*
X1147076Y48816D01*
X1147145Y48702D01*
X1147229Y48588D01*
X1147320Y48473D01*
X1147427Y48359D01*
X1147533Y48245D01*
X1147655Y48138D01*
X1147785Y48039D01*
X1147922Y47948D01*
X1147930Y47940D01*
X1147960Y47925D01*
X1147998Y47902D01*
X1148059Y47879D01*
X1148128Y47841D01*
X1148212Y47803D01*
X1148311Y47765D01*
X1148418Y47719D01*
X1148539Y47673D01*
X1148669Y47635D01*
X1148806Y47597D01*
X1148951Y47559D01*
X1149096Y47536D01*
X1149256Y47513D01*
X1149416Y47498D01*
X1149583Y47490D01*
X1149629D01*
X1149690Y47498D01*
X1149766D01*
X1149858Y47513D01*
X1149964Y47521D01*
X1150086Y47544D01*
X1150216Y47567D01*
X1150361Y47605D01*
X1150505Y47643D01*
X1150658Y47696D01*
X1150818Y47757D01*
X1150970Y47826D01*
X1151123Y47909D01*
X1151275Y48009D01*
X1151420Y48115D01*
X1151427Y48123D01*
X1151450Y48146D01*
X1151488Y48184D01*
X1151542Y48230D01*
X1151603Y48298D01*
X1151671Y48382D01*
X1151747Y48473D01*
X1151831Y48580D01*
X1151915Y48710D01*
X1151999Y48847D01*
X1152083Y48999D01*
X1152167Y49167D01*
X1152250Y49342D01*
X1152319Y49540D01*
X1152387Y49754D01*
X1152441Y49975D01*
X1153736Y49647D01*
Y49639D01*
X1153729Y49632D01*
Y49609D01*
X1153713Y49578D01*
X1153690Y49495D01*
X1153690Y49493D01*
X1153736Y49482D01*
Y49474D01*
X1153729Y49467D01*
Y49444D01*
X1153713Y49413D01*
X1153690Y49329D01*
X1153652Y49223D01*
X1153607Y49086D01*
X1153553Y48933D01*
X1153477Y48766D01*
X1153401Y48583D01*
X1153302Y48384D01*
X1153195Y48186D01*
X1153073Y47988D01*
X1152944Y47783D01*
X1152791Y47584D01*
X1152631Y47394D01*
X1152456Y47219D01*
X1152266Y47051D01*
X1152250Y47043D01*
X1152220Y47013D01*
X1152159Y46975D01*
X1152075Y46922D01*
X1151976Y46860D01*
X1151854Y46792D01*
X1151709Y46716D01*
X1151549Y46639D01*
X1151374Y46556D01*
X1151176Y46487D01*
X1150963Y46411D01*
X1150734Y46350D01*
X1150490Y46297D01*
X1150239Y46259D01*
X1149972Y46228D01*
X1149690Y46220D01*
X1149583D01*
X1149538Y46228D01*
X1149431D01*
X1149294Y46243D01*
X1149141Y46251D01*
X1148966Y46274D01*
X1148776Y46304D01*
X1148577Y46335D01*
X1148372Y46381D01*
X1148158Y46426D01*
X1147945Y46487D01*
X1147724Y46563D01*
X1147518Y46647D01*
X1147313Y46746D01*
X1147122Y46860D01*
X1147114Y46868D01*
X1147076Y46891D01*
X1147031Y46929D01*
X1146962Y46982D01*
X1146878Y47043D01*
X1146779Y47127D01*
X1146673Y47226D01*
X1146566Y47333D01*
X1146444Y47455D01*
X1146322Y47600D01*
X1146192Y47752D01*
X1146070Y47912D01*
X1145949Y48095D01*
X1145827Y48293D01*
X1145712Y48499D01*
X1145613Y48720D01*
X1145606Y48735D01*
X1145590Y48773D01*
X1145568Y48842D01*
X1145537Y48933D01*
X1145491Y49047D01*
X1145453Y49177D01*
X1145408Y49337D01*
X1145362Y49505D01*
X1145309Y49695D01*
X1145263Y49893D01*
X1145225Y50114D01*
X1145187Y50343D01*
X1145148Y50579D01*
X1145126Y50823D01*
X1145110Y51082D01*
X1145103Y51341D01*
Y51349D01*
Y51356D01*
Y51379D01*
Y51410D01*
X1145105Y51432D01*
X1145103Y51506D01*
Y51514D01*
Y51521D01*
Y51544D01*
Y51575D01*
X1145110Y51651D01*
Y51765D01*
X1145118Y51895D01*
X1145133Y52047D01*
X1145148Y52222D01*
X1145179Y52413D01*
X1145209Y52611D01*
X1145247Y52824D01*
X1145293Y53045D01*
X1145347Y53274D01*
X1145415Y53495D01*
X1145491Y53724D01*
X1145583Y53952D01*
X1145682Y54166D01*
X1145689Y54181D01*
X1145712Y54219D01*
X1145743Y54272D01*
X1145789Y54356D01*
X1145850Y54447D01*
X1145926Y54562D01*
X1146010Y54676D01*
X1146109Y54813D01*
X1146215Y54950D01*
X1146337Y55088D01*
X1146474Y55232D01*
X1146627Y55377D01*
X1146787Y55514D01*
X1146954Y55651D01*
X1147137Y55781D01*
X1147335Y55895D01*
X1147351Y55903D01*
X1147381Y55918D01*
X1147442Y55949D01*
X1147526Y55987D01*
X1147625Y56033D01*
X1147747Y56086D01*
X1147884Y56139D01*
X1148036Y56192D01*
X1148204Y56246D01*
X1148387Y56299D01*
X1148585Y56353D01*
X1148791Y56398D01*
X1149012Y56436D01*
X1149233Y56467D01*
X1149469Y56482D01*
X1149705Y56490D01*
X1149774D01*
X1149850Y56482D01*
D02*
G37*
G36*
X1134267Y56157D02*
Y49497D01*
Y49482D01*
Y49444D01*
Y49383D01*
X1134259Y49291D01*
Y49192D01*
X1134252Y49070D01*
X1134244Y48941D01*
X1134229Y48796D01*
X1134214Y48651D01*
X1134199Y48491D01*
X1134145Y48179D01*
X1134107Y48019D01*
X1134069Y47866D01*
X1134023Y47729D01*
X1133970Y47592D01*
Y47584D01*
X1133955Y47562D01*
X1133940Y47531D01*
X1133917Y47485D01*
X1133878Y47424D01*
X1133840Y47363D01*
X1133741Y47211D01*
X1133680Y47135D01*
X1133612Y47051D01*
X1133528Y46960D01*
X1133444Y46876D01*
X1133353Y46792D01*
X1133254Y46716D01*
X1133139Y46639D01*
X1133025Y46571D01*
X1133017D01*
X1132995Y46556D01*
X1132964Y46540D01*
X1132911Y46518D01*
X1132850Y46487D01*
X1132774Y46457D01*
X1132690Y46426D01*
X1132598Y46396D01*
X1132492Y46365D01*
X1132377Y46335D01*
X1132255Y46304D01*
X1132118Y46274D01*
X1131981Y46251D01*
X1131836Y46236D01*
X1131684Y46228D01*
X1131524Y46220D01*
X1131471D01*
X1131402Y46228D01*
X1131311Y46236D01*
X1131204Y46243D01*
X1131082Y46259D01*
X1130945Y46281D01*
X1130792Y46312D01*
X1130640Y46350D01*
X1130480Y46396D01*
X1130312Y46457D01*
X1130145Y46533D01*
X1129985Y46617D01*
X1129832Y46708D01*
X1129688Y46822D01*
X1129550Y46952D01*
X1129543Y46960D01*
X1129520Y46990D01*
X1129489Y47028D01*
X1129444Y47089D01*
X1129398Y47165D01*
X1129337Y47264D01*
X1129276Y47379D01*
X1129215Y47508D01*
X1129154Y47653D01*
X1129093Y47813D01*
X1129040Y47996D01*
X1128994Y48194D01*
X1128948Y48407D01*
X1128925Y48636D01*
X1128903Y48887D01*
Y49053D01*
Y49154D01*
D01*
Y49319D01*
X1130069Y49479D01*
Y49464D01*
Y49433D01*
X1130076Y49373D01*
X1130084Y49296D01*
X1130091Y49205D01*
X1130099Y49106D01*
X1130114Y48992D01*
X1130137Y48870D01*
X1130190Y48611D01*
X1130259Y48359D01*
X1130305Y48245D01*
X1130358Y48130D01*
X1130419Y48032D01*
X1130480Y47948D01*
X1130488Y47940D01*
X1130495Y47932D01*
X1130518Y47909D01*
X1130549Y47887D01*
X1130587Y47856D01*
X1130632Y47818D01*
X1130686Y47780D01*
X1130747Y47742D01*
X1130823Y47704D01*
X1130899Y47666D01*
X1131074Y47597D01*
X1131280Y47551D01*
X1131394Y47544D01*
X1131516Y47536D01*
X1131600D01*
X1131638Y47544D01*
X1131684Y47551D01*
X1131798Y47567D01*
X1131928Y47590D01*
X1132073Y47628D01*
X1132210Y47681D01*
X1132347Y47757D01*
X1132355D01*
X1132362Y47765D01*
X1132408Y47795D01*
X1132469Y47849D01*
X1132545Y47917D01*
X1132621Y48001D01*
X1132705Y48108D01*
X1132774Y48222D01*
X1132835Y48359D01*
Y48367D01*
X1132842Y48374D01*
X1132850Y48397D01*
X1132857Y48435D01*
X1132865Y48473D01*
X1132880Y48527D01*
X1132888Y48588D01*
X1132903Y48656D01*
X1132918Y48740D01*
X1132926Y48832D01*
X1132941Y48931D01*
X1132949Y49037D01*
X1132956Y49159D01*
X1132964Y49296D01*
X1132972Y49433D01*
Y56157D01*
Y56322D01*
X1134267D01*
Y56157D01*
D02*
G37*
G36*
X1162339Y55171D02*
Y55006D01*
X1159108D01*
Y46553D01*
Y46388D01*
X1157813D01*
Y46553D01*
Y55006D01*
X1154597D01*
Y55171D01*
Y56322D01*
X1162339D01*
Y55171D01*
D02*
G37*
G36*
X1143465D02*
Y55006D01*
X1137704D01*
Y52184D01*
X1143099D01*
Y51034D01*
Y50869D01*
X1137704D01*
Y47704D01*
X1143693D01*
Y46553D01*
Y46388D01*
X1136408D01*
Y46553D01*
Y56322D01*
X1143465D01*
Y55171D01*
D02*
G37*
G36*
X1113663Y56314D02*
X1113769D01*
X1113899Y56307D01*
X1114036Y56299D01*
X1114188Y56291D01*
X1114341Y56276D01*
X1114509Y56253D01*
X1114836Y56208D01*
X1114996Y56177D01*
X1115148Y56147D01*
X1115293Y56101D01*
X1115431Y56055D01*
X1115438D01*
X1115461Y56040D01*
X1115499Y56025D01*
X1115545Y56002D01*
X1115598Y55971D01*
X1115667Y55933D01*
X1115743Y55888D01*
X1115819Y55842D01*
X1115903Y55781D01*
X1115994Y55712D01*
X1116086Y55636D01*
X1116170Y55545D01*
X1116261Y55453D01*
X1116352Y55354D01*
X1116436Y55240D01*
X1116513Y55118D01*
X1116520Y55110D01*
X1116528Y55088D01*
X1116551Y55050D01*
X1116573Y55004D01*
X1116612Y54943D01*
X1116642Y54867D01*
X1116680Y54783D01*
X1116718Y54684D01*
X1116756Y54585D01*
X1116795Y54470D01*
X1116833Y54348D01*
X1116863Y54219D01*
X1116909Y53945D01*
X1116916Y53800D01*
X1116924Y53655D01*
Y53640D01*
Y53609D01*
X1116919Y53577D01*
X1116924Y53490D01*
Y53475D01*
Y53444D01*
X1116916Y53391D01*
Y53315D01*
X1116901Y53223D01*
X1116886Y53124D01*
X1116871Y53002D01*
X1116840Y52880D01*
X1116802Y52743D01*
X1116756Y52598D01*
X1116703Y52454D01*
X1116634Y52309D01*
X1116558Y52156D01*
X1116467Y52012D01*
X1116368Y51867D01*
X1116246Y51730D01*
X1116238Y51722D01*
X1116215Y51699D01*
X1116177Y51661D01*
X1116116Y51615D01*
X1116048Y51562D01*
X1115956Y51494D01*
X1115857Y51425D01*
X1115735Y51349D01*
X1115598Y51273D01*
X1115446Y51196D01*
X1115278Y51120D01*
X1115088Y51052D01*
X1114882Y50983D01*
X1114669Y50922D01*
X1114425Y50869D01*
X1114417Y50868D01*
X1114463Y50843D01*
X1114585Y50767D01*
X1114714Y50683D01*
X1114844Y50599D01*
X1114950Y50508D01*
X1114958Y50500D01*
X1114973Y50485D01*
X1115004Y50455D01*
X1115050Y50416D01*
X1115095Y50363D01*
X1115156Y50302D01*
X1115225Y50234D01*
X1115293Y50150D01*
X1115377Y50058D01*
X1115461Y49959D01*
X1115545Y49853D01*
X1115636Y49738D01*
X1115735Y49616D01*
X1115827Y49487D01*
X1116017Y49205D01*
X1117709Y46553D01*
X1117604D01*
X1117709Y46388D01*
X1116093D01*
X1114806Y48415D01*
X1114798Y48423D01*
X1114783Y48453D01*
X1114752Y48499D01*
X1114714Y48560D01*
X1114661Y48636D01*
X1114607Y48720D01*
X1114547Y48811D01*
X1114478Y48910D01*
X1114333Y49131D01*
X1114173Y49352D01*
X1114021Y49566D01*
X1113945Y49665D01*
X1113876Y49756D01*
X1113868Y49764D01*
X1113861Y49779D01*
X1113838Y49802D01*
X1113815Y49832D01*
X1113746Y49916D01*
X1113655Y50015D01*
X1113556Y50122D01*
X1113449Y50229D01*
X1113335Y50328D01*
X1113221Y50411D01*
X1113205Y50419D01*
X1113167Y50442D01*
X1113114Y50472D01*
X1113038Y50518D01*
X1112946Y50556D01*
X1112847Y50602D01*
X1112741Y50640D01*
X1112626Y50670D01*
X1112619D01*
X1112581Y50678D01*
X1112527Y50686D01*
X1112451Y50701D01*
X1112352Y50709D01*
X1112230Y50716D01*
X1112085Y50724D01*
X1110416D01*
Y46553D01*
Y46388D01*
X1109121D01*
Y46553D01*
Y56322D01*
X1113571D01*
X1113663Y56314D01*
D02*
G37*
G36*
X1104016D02*
X1104115D01*
X1104229Y56307D01*
X1104465Y56299D01*
X1104717Y56284D01*
X1104953Y56253D01*
X1105067Y56238D01*
X1105166Y56223D01*
X1105174D01*
X1105197Y56215D01*
X1105235Y56208D01*
X1105288Y56200D01*
X1105349Y56185D01*
X1105418Y56170D01*
X1105502Y56147D01*
X1105585Y56124D01*
X1105776Y56063D01*
X1105974Y55979D01*
X1106180Y55888D01*
X1106370Y55766D01*
X1106378D01*
X1106393Y55750D01*
X1106416Y55728D01*
X1106454Y55705D01*
X1106538Y55629D01*
X1106652Y55522D01*
X1106774Y55385D01*
X1106904Y55225D01*
X1107033Y55034D01*
X1107155Y54821D01*
Y54813D01*
X1107170Y54790D01*
X1107186Y54760D01*
X1107201Y54714D01*
X1107224Y54661D01*
X1107247Y54592D01*
X1107277Y54516D01*
X1107308Y54432D01*
X1107330Y54333D01*
X1107361Y54234D01*
X1107407Y54005D01*
X1107437Y53762D01*
X1107452Y53495D01*
Y53480D01*
Y53442D01*
X1107448Y53404D01*
X1107452Y53330D01*
Y53315D01*
Y53277D01*
X1107445Y53208D01*
X1107437Y53124D01*
X1107430Y53018D01*
X1107414Y52888D01*
X1107384Y52751D01*
X1107353Y52598D01*
X1107315Y52438D01*
X1107262Y52263D01*
X1107193Y52088D01*
X1107117Y51913D01*
X1107026Y51737D01*
X1106919Y51554D01*
X1106797Y51387D01*
X1106660Y51219D01*
X1106652Y51212D01*
X1106622Y51181D01*
X1106576Y51143D01*
X1106507Y51082D01*
X1106416Y51021D01*
X1106302Y50945D01*
X1106165Y50869D01*
X1106004Y50792D01*
X1105822Y50709D01*
X1105616Y50632D01*
X1105380Y50556D01*
X1105121Y50495D01*
X1104831Y50434D01*
X1104511Y50396D01*
X1104168Y50366D01*
X1103795Y50358D01*
X1101295D01*
Y46553D01*
Y46388D01*
X1100000D01*
Y46553D01*
Y56322D01*
X1103924D01*
X1104016Y56314D01*
D02*
G37*
G36*
X1123363Y56482D02*
X1123462D01*
X1123576Y56467D01*
X1123721Y56459D01*
X1123873Y56436D01*
X1124041Y56406D01*
X1124224Y56375D01*
X1124422Y56330D01*
X1124620Y56276D01*
X1124826Y56215D01*
X1125039Y56139D01*
X1125253Y56055D01*
X1125458Y55956D01*
X1125664Y55842D01*
X1125679Y55834D01*
X1125710Y55812D01*
X1125771Y55773D01*
X1125847Y55720D01*
X1125931Y55659D01*
X1126038Y55575D01*
X1126152Y55484D01*
X1126281Y55377D01*
X1126411Y55255D01*
X1126548Y55118D01*
X1126685Y54966D01*
X1126822Y54806D01*
X1126960Y54630D01*
X1127089Y54447D01*
X1127211Y54249D01*
X1127325Y54036D01*
X1127333Y54021D01*
X1127348Y53983D01*
X1127379Y53922D01*
X1127417Y53830D01*
X1127455Y53724D01*
X1127508Y53594D01*
X1127561Y53442D01*
X1127615Y53274D01*
X1127668Y53091D01*
X1127714Y52893D01*
X1127767Y52672D01*
X1127805Y52443D01*
X1127843Y52200D01*
X1127874Y51948D01*
X1127889Y51689D01*
X1127897Y51415D01*
Y51407D01*
Y51399D01*
Y51377D01*
Y51346D01*
Y51270D01*
X1127896Y51264D01*
X1127897Y51250D01*
Y51242D01*
Y51234D01*
Y51212D01*
Y51181D01*
Y51105D01*
X1127889Y50998D01*
X1127882Y50869D01*
X1127866Y50716D01*
X1127843Y50549D01*
X1127821Y50358D01*
X1127790Y50160D01*
X1127752Y49947D01*
X1127699Y49726D01*
X1127645Y49505D01*
X1127577Y49268D01*
X1127493Y49040D01*
X1127402Y48811D01*
X1127295Y48590D01*
X1127287Y48575D01*
X1127264Y48537D01*
X1127234Y48476D01*
X1127180Y48400D01*
X1127120Y48301D01*
X1127043Y48186D01*
X1126960Y48064D01*
X1126861Y47935D01*
X1126746Y47790D01*
X1126617Y47645D01*
X1126479Y47501D01*
X1126327Y47356D01*
X1126159Y47211D01*
X1125984Y47074D01*
X1125794Y46944D01*
X1125596Y46822D01*
X1125580Y46815D01*
X1125550Y46800D01*
X1125489Y46769D01*
X1125405Y46731D01*
X1125306Y46685D01*
X1125184Y46632D01*
X1125039Y46579D01*
X1124887Y46525D01*
X1124719Y46464D01*
X1124536Y46411D01*
X1124338Y46358D01*
X1124133Y46312D01*
X1123919Y46274D01*
X1123691Y46243D01*
X1123462Y46228D01*
X1123226Y46220D01*
X1123165D01*
X1123089Y46228D01*
X1122997D01*
X1122875Y46243D01*
X1122730Y46259D01*
X1122570Y46274D01*
X1122403Y46304D01*
X1122212Y46342D01*
X1122014Y46381D01*
X1121816Y46434D01*
X1121603Y46502D01*
X1121389Y46579D01*
X1121176Y46662D01*
X1120963Y46769D01*
X1120757Y46883D01*
X1120742Y46891D01*
X1120711Y46914D01*
X1120650Y46952D01*
X1120582Y47005D01*
X1120490Y47074D01*
X1120384Y47158D01*
X1120269Y47249D01*
X1120147Y47356D01*
X1120018Y47485D01*
X1119881Y47615D01*
X1119743Y47767D01*
X1119606Y47927D01*
X1119477Y48103D01*
X1119347Y48285D01*
X1119225Y48484D01*
X1119119Y48697D01*
X1119111Y48712D01*
X1119096Y48750D01*
X1119065Y48811D01*
X1119035Y48895D01*
X1118989Y49002D01*
X1118943Y49131D01*
X1118890Y49276D01*
X1118844Y49436D01*
X1118791Y49611D01*
X1118738Y49802D01*
X1118692Y50000D01*
X1118646Y50213D01*
X1118616Y50434D01*
X1118585Y50663D01*
X1118570Y50899D01*
X1118562Y51135D01*
Y51143D01*
Y51166D01*
Y51196D01*
Y51242D01*
X1118564Y51254D01*
X1118562Y51300D01*
Y51308D01*
Y51331D01*
Y51361D01*
Y51407D01*
X1118570Y51468D01*
Y51537D01*
X1118577Y51613D01*
X1118585Y51704D01*
X1118593Y51803D01*
X1118600Y51910D01*
X1118616Y52024D01*
X1118631Y52146D01*
X1118669Y52405D01*
X1118722Y52695D01*
X1118791Y52992D01*
X1118882Y53305D01*
X1118989Y53617D01*
X1119111Y53937D01*
X1119263Y54249D01*
X1119439Y54554D01*
X1119637Y54844D01*
X1119743Y54981D01*
X1119865Y55110D01*
X1119873Y55118D01*
X1119881Y55126D01*
X1119926Y55171D01*
X1120003Y55240D01*
X1120101Y55324D01*
X1120231Y55430D01*
X1120384Y55545D01*
X1120566Y55674D01*
X1120772Y55804D01*
X1121008Y55926D01*
X1121260Y56055D01*
X1121534Y56170D01*
X1121839Y56276D01*
X1122159Y56360D01*
X1122494Y56429D01*
X1122852Y56474D01*
X1123043Y56490D01*
X1123294D01*
X1123363Y56482D01*
D02*
G37*
G36*
X1121793Y43482D02*
X1121892D01*
X1121999Y43474D01*
X1122121Y43459D01*
X1122258Y43444D01*
X1122403Y43429D01*
X1122555Y43406D01*
X1122883Y43345D01*
X1123211Y43253D01*
X1123371Y43200D01*
X1123531Y43139D01*
X1123538Y43131D01*
X1123569Y43124D01*
X1123607Y43101D01*
X1123668Y43071D01*
X1123736Y43040D01*
X1123820Y42994D01*
X1123904Y42941D01*
X1124003Y42880D01*
X1124102Y42811D01*
X1124209Y42735D01*
X1124315Y42644D01*
X1124415Y42552D01*
X1124521Y42453D01*
X1124620Y42347D01*
X1124719Y42225D01*
X1124803Y42103D01*
X1124811Y42095D01*
X1124826Y42072D01*
X1124849Y42034D01*
X1124872Y41981D01*
X1124910Y41920D01*
X1124948Y41844D01*
X1124986Y41752D01*
X1125032Y41661D01*
X1125077Y41547D01*
X1125123Y41432D01*
X1125161Y41303D01*
X1125199Y41173D01*
X1125260Y40884D01*
X1125275Y40731D01*
X1125291Y40571D01*
X1125275Y40570D01*
X1125275Y40566D01*
X1125291Y40406D01*
X1124049Y40315D01*
Y40322D01*
X1124041Y40353D01*
X1124034Y40406D01*
X1124026Y40467D01*
X1124003Y40543D01*
X1123988Y40635D01*
X1123957Y40726D01*
X1123927Y40833D01*
X1123881Y40947D01*
X1123835Y41061D01*
X1123782Y41176D01*
X1123713Y41290D01*
X1123645Y41404D01*
X1123561Y41511D01*
X1123470Y41618D01*
X1123363Y41709D01*
X1123355Y41717D01*
X1123340Y41732D01*
X1123302Y41755D01*
X1123256Y41785D01*
X1123195Y41823D01*
X1123119Y41862D01*
X1123035Y41907D01*
X1122936Y41953D01*
X1122822Y41991D01*
X1122700Y42037D01*
X1122555Y42075D01*
X1122403Y42113D01*
X1122243Y42144D01*
X1122060Y42166D01*
X1121869Y42182D01*
X1121664Y42189D01*
X1121549D01*
X1121473Y42182D01*
X1121374Y42174D01*
X1121267Y42166D01*
X1121138Y42151D01*
X1121008Y42136D01*
X1120726Y42083D01*
X1120589Y42052D01*
X1120444Y42006D01*
X1120307Y41953D01*
X1120178Y41900D01*
X1120056Y41831D01*
X1119949Y41755D01*
X1119941Y41747D01*
X1119926Y41732D01*
X1119903Y41709D01*
X1119865Y41679D01*
X1119827Y41633D01*
X1119781Y41587D01*
X1119736Y41526D01*
X1119682Y41465D01*
X1119583Y41313D01*
X1119500Y41138D01*
X1119462Y41039D01*
X1119439Y40939D01*
X1119423Y40833D01*
X1119422Y40807D01*
X1119423Y40800D01*
X1119431Y40754D01*
X1119439Y40701D01*
X1119462Y40579D01*
X1119507Y40442D01*
X1119576Y40297D01*
X1119614Y40221D01*
X1119667Y40152D01*
X1119721Y40083D01*
X1119789Y40015D01*
X1119797D01*
X1119812Y40000D01*
X1119835Y39985D01*
X1119873Y39954D01*
X1119926Y39924D01*
X1119995Y39885D01*
X1120079Y39847D01*
X1120178Y39802D01*
X1120300Y39748D01*
X1120437Y39695D01*
X1120597Y39634D01*
X1120780Y39573D01*
X1120978Y39512D01*
X1121214Y39443D01*
X1121466Y39383D01*
X1121748Y39314D01*
X1121755D01*
X1121763Y39306D01*
X1121786D01*
X1121816Y39299D01*
X1121900Y39276D01*
X1122007Y39253D01*
X1122129Y39223D01*
X1122281Y39184D01*
X1122441Y39146D01*
X1122608Y39100D01*
X1122967Y39002D01*
X1123149Y38956D01*
X1123325Y38902D01*
X1123492Y38849D01*
X1123652Y38796D01*
X1123790Y38742D01*
X1123912Y38689D01*
X1123919Y38681D01*
X1123950Y38674D01*
X1123995Y38651D01*
X1124049Y38621D01*
X1124125Y38582D01*
X1124201Y38537D01*
X1124293Y38483D01*
X1124392Y38422D01*
X1124597Y38278D01*
X1124803Y38110D01*
X1125001Y37912D01*
X1125085Y37813D01*
X1125169Y37699D01*
X1125176Y37691D01*
X1125184Y37668D01*
X1125207Y37638D01*
X1125230Y37592D01*
X1125268Y37538D01*
X1125298Y37470D01*
X1125337Y37386D01*
X1125375Y37302D01*
X1125413Y37203D01*
X1125451Y37097D01*
X1125489Y36982D01*
X1125519Y36860D01*
X1125565Y36594D01*
X1125573Y36449D01*
X1125580Y36304D01*
Y36296D01*
Y36266D01*
Y36228D01*
X1125577Y36204D01*
X1125580Y36139D01*
Y36131D01*
Y36101D01*
Y36063D01*
X1125573Y36009D01*
X1125565Y35941D01*
X1125557Y35857D01*
X1125542Y35766D01*
X1125527Y35666D01*
X1125504Y35552D01*
X1125474Y35438D01*
X1125435Y35316D01*
X1125390Y35194D01*
X1125337Y35064D01*
X1125283Y34927D01*
X1125207Y34798D01*
X1125131Y34668D01*
X1125123Y34661D01*
X1125108Y34638D01*
X1125085Y34600D01*
X1125047Y34554D01*
X1125001Y34501D01*
X1124948Y34432D01*
X1124879Y34356D01*
X1124803Y34280D01*
X1124712Y34196D01*
X1124620Y34104D01*
X1124513Y34021D01*
X1124399Y33929D01*
X1124270Y33845D01*
X1124140Y33754D01*
X1123995Y33678D01*
X1123843Y33601D01*
X1123835Y33594D01*
X1123805Y33586D01*
X1123759Y33563D01*
X1123698Y33540D01*
X1123622Y33510D01*
X1123523Y33479D01*
X1123416Y33449D01*
X1123294Y33411D01*
X1123165Y33373D01*
X1123020Y33342D01*
X1122868Y33312D01*
X1122700Y33281D01*
X1122532Y33259D01*
X1122349Y33236D01*
X1122159Y33228D01*
X1121968Y33220D01*
X1121839D01*
X1121748Y33228D01*
X1121633Y33236D01*
X1121504Y33243D01*
X1121351Y33251D01*
X1121191Y33266D01*
X1121024Y33289D01*
X1120841Y33312D01*
X1120467Y33380D01*
X1120284Y33426D01*
X1120094Y33479D01*
X1119919Y33533D01*
X1119743Y33601D01*
X1119736Y33609D01*
X1119705Y33617D01*
X1119660Y33640D01*
X1119599Y33678D01*
X1119522Y33716D01*
X1119431Y33769D01*
X1119340Y33822D01*
X1119233Y33891D01*
X1119126Y33967D01*
X1119012Y34059D01*
X1118890Y34150D01*
X1118776Y34257D01*
X1118661Y34371D01*
X1118547Y34493D01*
X1118440Y34630D01*
X1118341Y34767D01*
X1118334Y34775D01*
X1118318Y34805D01*
X1118296Y34843D01*
X1118265Y34904D01*
X1118219Y34981D01*
X1118181Y35064D01*
X1118136Y35164D01*
X1118082Y35278D01*
X1118036Y35407D01*
X1117983Y35537D01*
X1117945Y35682D01*
X1117899Y35842D01*
X1117869Y36002D01*
X1117838Y36169D01*
X1117815Y36345D01*
X1117808Y36528D01*
X1117815Y36528D01*
X1117808Y36693D01*
X1119027Y36799D01*
Y36792D01*
X1119035Y36769D01*
Y36731D01*
X1119042Y36677D01*
X1119058Y36616D01*
X1119073Y36540D01*
X1119088Y36456D01*
X1119111Y36373D01*
X1119164Y36182D01*
X1119233Y35976D01*
X1119317Y35778D01*
X1119423Y35588D01*
X1119431Y35580D01*
X1119439Y35565D01*
X1119454Y35542D01*
X1119484Y35512D01*
X1119515Y35466D01*
X1119560Y35420D01*
X1119606Y35374D01*
X1119667Y35313D01*
X1119728Y35252D01*
X1119804Y35192D01*
X1119888Y35131D01*
X1119972Y35070D01*
X1120071Y35001D01*
X1120178Y34940D01*
X1120284Y34879D01*
X1120406Y34826D01*
X1120414D01*
X1120437Y34811D01*
X1120475Y34803D01*
X1120521Y34780D01*
X1120589Y34757D01*
X1120665Y34734D01*
X1120749Y34711D01*
X1120848Y34681D01*
X1120955Y34650D01*
X1121069Y34628D01*
X1121191Y34605D01*
X1121321Y34582D01*
X1121603Y34551D01*
X1121908Y34536D01*
X1122029D01*
X1122098Y34544D01*
X1122174Y34551D01*
X1122258D01*
X1122349Y34567D01*
X1122548Y34590D01*
X1122768Y34628D01*
X1122990Y34681D01*
X1123211Y34757D01*
X1123218D01*
X1123233Y34765D01*
X1123264Y34780D01*
X1123302Y34795D01*
X1123355Y34818D01*
X1123409Y34849D01*
X1123531Y34917D01*
X1123668Y35001D01*
X1123812Y35108D01*
X1123942Y35222D01*
X1124056Y35359D01*
Y35367D01*
X1124072Y35374D01*
X1124079Y35397D01*
X1124102Y35428D01*
X1124148Y35504D01*
X1124201Y35611D01*
X1124247Y35733D01*
X1124293Y35877D01*
X1124323Y36030D01*
X1124330Y36111D01*
X1124323Y36192D01*
X1124308Y36307D01*
X1124270Y36428D01*
X1124224Y36566D01*
X1124155Y36703D01*
X1124064Y36832D01*
Y36840D01*
X1124049Y36848D01*
X1124011Y36893D01*
X1123950Y36954D01*
X1123851Y37030D01*
X1123729Y37122D01*
X1123660Y37175D01*
X1123576Y37221D01*
X1123492Y37274D01*
X1123393Y37320D01*
X1123294Y37366D01*
X1123180Y37411D01*
X1123172D01*
X1123157Y37419D01*
X1123134Y37427D01*
X1123096Y37442D01*
X1123051Y37457D01*
X1122990Y37480D01*
X1122906Y37503D01*
X1122814Y37526D01*
X1122708Y37556D01*
X1122586Y37594D01*
X1122441Y37632D01*
X1122281Y37678D01*
X1122106Y37724D01*
X1121908Y37770D01*
X1121686Y37823D01*
X1121443Y37884D01*
X1121427Y37891D01*
X1121382Y37899D01*
X1121313Y37914D01*
X1121222Y37937D01*
X1121115Y37968D01*
X1120985Y38006D01*
X1120848Y38044D01*
X1120704Y38082D01*
X1120391Y38181D01*
X1120079Y38280D01*
X1119926Y38333D01*
X1119789Y38394D01*
X1119667Y38448D01*
X1119553Y38501D01*
X1119545Y38509D01*
X1119522Y38516D01*
X1119484Y38539D01*
X1119439Y38570D01*
X1119378Y38600D01*
X1119317Y38646D01*
X1119157Y38753D01*
X1118989Y38882D01*
X1118814Y39035D01*
X1118654Y39217D01*
X1118577Y39309D01*
X1118509Y39408D01*
Y39416D01*
X1118494Y39431D01*
X1118478Y39461D01*
X1118456Y39507D01*
X1118433Y39553D01*
X1118402Y39614D01*
X1118372Y39690D01*
X1118341Y39766D01*
X1118311Y39850D01*
X1118280Y39949D01*
X1118227Y40155D01*
X1118189Y40383D01*
X1118181Y40505D01*
X1118174Y40627D01*
Y40635D01*
Y40658D01*
Y40703D01*
X1118177Y40730D01*
X1118174Y40792D01*
Y40800D01*
Y40823D01*
Y40868D01*
X1118181Y40922D01*
X1118189Y40983D01*
X1118196Y41059D01*
X1118212Y41150D01*
X1118227Y41242D01*
X1118273Y41455D01*
X1118349Y41684D01*
X1118402Y41806D01*
X1118456Y41928D01*
X1118517Y42049D01*
X1118593Y42171D01*
X1118600Y42179D01*
X1118616Y42202D01*
X1118639Y42232D01*
X1118669Y42278D01*
X1118715Y42331D01*
X1118768Y42392D01*
X1118829Y42461D01*
X1118905Y42537D01*
X1118989Y42613D01*
X1119081Y42697D01*
X1119180Y42781D01*
X1119286Y42857D01*
X1119408Y42941D01*
X1119538Y43017D01*
X1119675Y43086D01*
X1119820Y43154D01*
X1119827Y43162D01*
X1119858Y43170D01*
X1119903Y43185D01*
X1119964Y43208D01*
X1120041Y43231D01*
X1120124Y43261D01*
X1120231Y43292D01*
X1120345Y43322D01*
X1120475Y43352D01*
X1120612Y43383D01*
X1120757Y43414D01*
X1120917Y43436D01*
X1121077Y43459D01*
X1121252Y43474D01*
X1121427Y43490D01*
X1121717D01*
X1121793Y43482D01*
D02*
G37*
G36*
X1140089Y43314D02*
X1140203D01*
X1140325Y43307D01*
X1140455D01*
X1140736Y43284D01*
X1141026Y43261D01*
X1141163Y43246D01*
X1141300Y43223D01*
X1141430Y43200D01*
X1141544Y43177D01*
X1141552D01*
X1141582Y43170D01*
X1141628Y43154D01*
X1141689Y43139D01*
X1141758Y43116D01*
X1141841Y43093D01*
X1141941Y43055D01*
X1142039Y43017D01*
X1142268Y42926D01*
X1142504Y42804D01*
X1142748Y42652D01*
X1142977Y42476D01*
X1142984Y42469D01*
X1143015Y42446D01*
X1143053Y42408D01*
X1143106Y42362D01*
X1143167Y42293D01*
X1143243Y42217D01*
X1143327Y42126D01*
X1143411Y42027D01*
X1143503Y41912D01*
X1143602Y41783D01*
X1143701Y41646D01*
X1143792Y41501D01*
X1143884Y41341D01*
X1143975Y41173D01*
X1144059Y40998D01*
X1144135Y40807D01*
X1144143Y40792D01*
X1144150Y40762D01*
X1144173Y40708D01*
X1144196Y40632D01*
X1144227Y40533D01*
X1144257Y40419D01*
X1144295Y40289D01*
X1144333Y40137D01*
X1144364Y39977D01*
X1144402Y39794D01*
X1144432Y39604D01*
X1144463Y39405D01*
X1144485Y39192D01*
X1144508Y38963D01*
X1144516Y38735D01*
X1144524Y38491D01*
Y38476D01*
Y38438D01*
Y38384D01*
X1144522Y38369D01*
X1144524Y38326D01*
Y38311D01*
Y38273D01*
Y38219D01*
X1144516Y38135D01*
Y38036D01*
X1144508Y37930D01*
X1144501Y37800D01*
X1144493Y37655D01*
X1144478Y37510D01*
X1144455Y37350D01*
X1144409Y37015D01*
X1144348Y36680D01*
X1144257Y36345D01*
Y36337D01*
X1144242Y36307D01*
X1144234Y36261D01*
X1144211Y36200D01*
X1144188Y36131D01*
X1144150Y36047D01*
X1144120Y35948D01*
X1144074Y35849D01*
X1143983Y35621D01*
X1143868Y35385D01*
X1143739Y35148D01*
X1143594Y34927D01*
X1143586Y34920D01*
X1143579Y34904D01*
X1143556Y34874D01*
X1143525Y34836D01*
X1143487Y34790D01*
X1143442Y34729D01*
X1143335Y34607D01*
X1143198Y34462D01*
X1143045Y34310D01*
X1142878Y34165D01*
X1142702Y34036D01*
X1142695D01*
X1142680Y34021D01*
X1142657Y34005D01*
X1142619Y33982D01*
X1142573Y33960D01*
X1142512Y33929D01*
X1142451Y33891D01*
X1142375Y33853D01*
X1142299Y33815D01*
X1142207Y33777D01*
X1142009Y33693D01*
X1141780Y33617D01*
X1141537Y33548D01*
X1141529D01*
X1141506Y33540D01*
X1141468Y33533D01*
X1141415Y33525D01*
X1141354Y33510D01*
X1141270Y33495D01*
X1141186Y33479D01*
X1141087Y33472D01*
X1140973Y33457D01*
X1140851Y33441D01*
X1140721Y33426D01*
X1140584Y33411D01*
X1140287Y33396D01*
X1139967Y33388D01*
X1136446D01*
Y33553D01*
Y43322D01*
X1139997D01*
X1140089Y43314D01*
D02*
G37*
G36*
X1134435Y42171D02*
Y42006D01*
X1128674D01*
Y39184D01*
X1134069D01*
Y38034D01*
Y37869D01*
X1128674D01*
Y34704D01*
X1134663D01*
Y33553D01*
Y33388D01*
X1127379D01*
Y33553D01*
Y43322D01*
X1134435D01*
Y42171D01*
D02*
G37*
G36*
X1117214Y33553D02*
X1117146D01*
X1117214Y33388D01*
X1115743D01*
X1114607Y36345D01*
X1110516D01*
X1109449Y33388D01*
X1108085D01*
X1108148Y33553D01*
X1108085D01*
X1111826Y43322D01*
X1113221D01*
X1117214Y33553D01*
D02*
G37*
G36*
X1103840Y43314D02*
X1103940D01*
X1104046Y43307D01*
X1104168Y43299D01*
X1104305Y43284D01*
X1104442Y43269D01*
X1104587Y43253D01*
X1104892Y43200D01*
X1105182Y43124D01*
X1105326Y43078D01*
X1105456Y43025D01*
X1105463D01*
X1105486Y43010D01*
X1105525Y42994D01*
X1105570Y42972D01*
X1105623Y42941D01*
X1105692Y42895D01*
X1105844Y42796D01*
X1106012Y42674D01*
X1106187Y42514D01*
X1106363Y42324D01*
X1106515Y42110D01*
X1106523Y42103D01*
X1106530Y42080D01*
X1106553Y42049D01*
X1106576Y42004D01*
X1106607Y41950D01*
X1106637Y41882D01*
X1106675Y41806D01*
X1106713Y41722D01*
X1106744Y41623D01*
X1106782Y41524D01*
X1106843Y41310D01*
X1106889Y41074D01*
X1106896Y40945D01*
X1106904Y40823D01*
Y40815D01*
Y40792D01*
Y40762D01*
X1106899Y40733D01*
X1106904Y40658D01*
Y40650D01*
Y40627D01*
Y40597D01*
X1106896Y40551D01*
Y40497D01*
X1106889Y40429D01*
X1106873Y40353D01*
X1106858Y40269D01*
X1106820Y40086D01*
X1106759Y39888D01*
X1106675Y39682D01*
X1106622Y39576D01*
X1106561Y39469D01*
Y39461D01*
X1106546Y39446D01*
X1106523Y39416D01*
X1106500Y39377D01*
X1106462Y39332D01*
X1106416Y39278D01*
X1106363Y39217D01*
X1106302Y39156D01*
X1106233Y39080D01*
X1106157Y39012D01*
X1106073Y38935D01*
X1105982Y38867D01*
X1105883Y38791D01*
X1105776Y38722D01*
X1105708Y38684D01*
X1105753Y38666D01*
X1105837Y38636D01*
X1105936Y38590D01*
X1106035Y38537D01*
X1106256Y38415D01*
X1106370Y38346D01*
X1106485Y38262D01*
X1106591Y38171D01*
X1106706Y38080D01*
X1106805Y37973D01*
X1106896Y37859D01*
X1106904Y37851D01*
X1106919Y37828D01*
X1106942Y37798D01*
X1106972Y37744D01*
X1107010Y37691D01*
X1107048Y37615D01*
X1107094Y37531D01*
X1107140Y37439D01*
X1107178Y37333D01*
X1107224Y37226D01*
X1107262Y37104D01*
X1107300Y36975D01*
X1107330Y36837D01*
X1107353Y36693D01*
X1107368Y36540D01*
X1107376Y36380D01*
Y36373D01*
Y36350D01*
Y36312D01*
X1107373Y36290D01*
X1107376Y36215D01*
Y36207D01*
Y36185D01*
Y36147D01*
X1107368Y36101D01*
Y36040D01*
X1107361Y35964D01*
X1107353Y35887D01*
X1107338Y35796D01*
X1107308Y35598D01*
X1107254Y35385D01*
X1107178Y35164D01*
X1107079Y34935D01*
Y34927D01*
X1107064Y34912D01*
X1107048Y34882D01*
X1107026Y34836D01*
X1107003Y34790D01*
X1106965Y34729D01*
X1106881Y34600D01*
X1106774Y34455D01*
X1106652Y34302D01*
X1106515Y34158D01*
X1106363Y34028D01*
X1106355D01*
X1106347Y34013D01*
X1106317Y33998D01*
X1106286Y33975D01*
X1106248Y33952D01*
X1106195Y33921D01*
X1106142Y33883D01*
X1106073Y33845D01*
X1105921Y33769D01*
X1105738Y33693D01*
X1105525Y33617D01*
X1105296Y33548D01*
X1105288D01*
X1105265Y33540D01*
X1105227Y33533D01*
X1105182Y33525D01*
X1105121Y33510D01*
X1105044Y33495D01*
X1104961Y33479D01*
X1104862Y33472D01*
X1104747Y33457D01*
X1104633Y33441D01*
X1104503Y33426D01*
X1104359Y33411D01*
X1104214Y33403D01*
X1104054Y33396D01*
X1103894Y33388D01*
X1100000D01*
Y33553D01*
Y43322D01*
X1103764D01*
X1103840Y43314D01*
D02*
G37*
G36*
X1163924Y30262D02*
X1164016D01*
X1164122Y30254D01*
X1164244Y30239D01*
X1164381Y30224D01*
X1164519Y30208D01*
X1164671Y30185D01*
X1164999Y30124D01*
X1165326Y30033D01*
X1165494Y29980D01*
X1165654Y29919D01*
X1165661D01*
X1165692Y29904D01*
X1165738Y29881D01*
X1165799Y29858D01*
X1165867Y29820D01*
X1165951Y29782D01*
X1166042Y29728D01*
X1166142Y29667D01*
X1166355Y29530D01*
X1166583Y29370D01*
X1166797Y29180D01*
X1166904Y29073D01*
X1166995Y28959D01*
X1167003Y28951D01*
X1167018Y28928D01*
X1167041Y28898D01*
X1167079Y28852D01*
X1167117Y28791D01*
X1167163Y28715D01*
X1167216Y28631D01*
X1167269Y28532D01*
X1167330Y28425D01*
X1167391Y28303D01*
X1167452Y28174D01*
X1167513Y28029D01*
X1167574Y27877D01*
X1167627Y27717D01*
X1167688Y27549D01*
X1167734Y27366D01*
X1167695Y27355D01*
X1167734Y27201D01*
X1166568Y26881D01*
Y26888D01*
X1166561Y26911D01*
X1166545Y26950D01*
X1166530Y27003D01*
X1166507Y27064D01*
X1166485Y27140D01*
X1166454Y27224D01*
X1166423Y27308D01*
X1166340Y27498D01*
X1166248Y27689D01*
X1166142Y27879D01*
X1166027Y28054D01*
Y28062D01*
X1166012Y28077D01*
X1165997Y28093D01*
X1165966Y28123D01*
X1165890Y28207D01*
X1165791Y28298D01*
X1165654Y28412D01*
X1165494Y28527D01*
X1165303Y28633D01*
X1165090Y28740D01*
X1165082D01*
X1165060Y28748D01*
X1165029Y28763D01*
X1164983Y28778D01*
X1164930Y28801D01*
X1164861Y28824D01*
X1164785Y28847D01*
X1164694Y28870D01*
X1164602Y28893D01*
X1164496Y28915D01*
X1164267Y28961D01*
X1164016Y28992D01*
X1163749Y28999D01*
X1163665D01*
X1163604Y28992D01*
X1163528D01*
X1163437Y28984D01*
X1163337Y28976D01*
X1163223Y28969D01*
X1162987Y28931D01*
X1162728Y28885D01*
X1162469Y28816D01*
X1162217Y28725D01*
X1162210D01*
X1162187Y28710D01*
X1162156Y28694D01*
X1162111Y28679D01*
X1162057Y28649D01*
X1161989Y28618D01*
X1161844Y28534D01*
X1161676Y28435D01*
X1161501Y28313D01*
X1161333Y28176D01*
X1161173Y28016D01*
X1161166Y28009D01*
X1161158Y27993D01*
X1161135Y27970D01*
X1161105Y27940D01*
X1161074Y27894D01*
X1161036Y27849D01*
X1160945Y27727D01*
X1160846Y27589D01*
X1160747Y27422D01*
X1160648Y27239D01*
X1160556Y27048D01*
X1160548Y27041D01*
X1160541Y27010D01*
X1160526Y26957D01*
X1160503Y26888D01*
X1160472Y26805D01*
X1160442Y26706D01*
X1160411Y26591D01*
X1160373Y26462D01*
X1160343Y26325D01*
X1160305Y26172D01*
X1160274Y26005D01*
X1160251Y25837D01*
X1160221Y25654D01*
X1160206Y25471D01*
X1160198Y25281D01*
X1160191Y25107D01*
X1160198Y25027D01*
X1160206Y24920D01*
X1160213Y24783D01*
X1160229Y24638D01*
X1160244Y24486D01*
X1160267Y24310D01*
X1160297Y24135D01*
X1160335Y23952D01*
X1160381Y23769D01*
X1160427Y23586D01*
X1160488Y23404D01*
X1160556Y23221D01*
X1160632Y23053D01*
X1160640Y23045D01*
X1160655Y23015D01*
X1160678Y22969D01*
X1160716Y22908D01*
X1160762Y22840D01*
X1160823Y22756D01*
X1160884Y22664D01*
X1160968Y22565D01*
X1161051Y22459D01*
X1161151Y22352D01*
X1161257Y22245D01*
X1161372Y22131D01*
X1161501Y22032D01*
X1161638Y21925D01*
X1161783Y21834D01*
X1161943Y21750D01*
X1161951Y21742D01*
X1161981Y21735D01*
X1162027Y21712D01*
X1162095Y21681D01*
X1162172Y21651D01*
X1162263Y21621D01*
X1162377Y21582D01*
X1162492Y21544D01*
X1162629Y21499D01*
X1162766Y21460D01*
X1162918Y21430D01*
X1163078Y21400D01*
X1163414Y21346D01*
X1163589Y21339D01*
X1163772Y21331D01*
X1163856D01*
X1163916Y21339D01*
X1163993D01*
X1164077Y21346D01*
X1164176Y21361D01*
X1164290Y21369D01*
X1164412Y21392D01*
X1164541Y21407D01*
X1164816Y21468D01*
X1165105Y21544D01*
X1165402Y21651D01*
X1165410Y21659D01*
X1165441Y21666D01*
X1165479Y21681D01*
X1165532Y21704D01*
X1165601Y21735D01*
X1165677Y21773D01*
X1165761Y21811D01*
X1165852Y21857D01*
X1166050Y21956D01*
X1166256Y22078D01*
X1166446Y22200D01*
X1166538Y22268D01*
X1166622Y22337D01*
Y23993D01*
X1163756D01*
Y24158D01*
Y25309D01*
X1167887D01*
Y25143D01*
Y21516D01*
X1167879Y21509D01*
X1167841Y21486D01*
X1167795Y21448D01*
X1167719Y21395D01*
X1167635Y21333D01*
X1167528Y21257D01*
X1167414Y21181D01*
X1167285Y21090D01*
X1167140Y20998D01*
X1166987Y20907D01*
X1166827Y20815D01*
X1166652Y20716D01*
X1166294Y20541D01*
X1166111Y20457D01*
X1165921Y20381D01*
X1165913Y20373D01*
X1165875Y20366D01*
X1165822Y20343D01*
X1165745Y20320D01*
X1165654Y20290D01*
X1165547Y20259D01*
X1165418Y20229D01*
X1165281Y20190D01*
X1165128Y20152D01*
X1164968Y20122D01*
X1164793Y20092D01*
X1164618Y20061D01*
X1164237Y20015D01*
X1164038Y20008D01*
X1163840Y20000D01*
X1163779D01*
X1163703Y20008D01*
X1163596D01*
X1163467Y20015D01*
X1163322Y20031D01*
X1163155Y20053D01*
X1162972Y20076D01*
X1162774Y20107D01*
X1162568Y20152D01*
X1162354Y20198D01*
X1162133Y20259D01*
X1161905Y20328D01*
X1161676Y20412D01*
X1161448Y20503D01*
X1161227Y20610D01*
X1161211Y20617D01*
X1161173Y20640D01*
X1161112Y20678D01*
X1161036Y20724D01*
X1160937Y20785D01*
X1160823Y20869D01*
X1160701Y20960D01*
X1160564Y21067D01*
X1160427Y21181D01*
X1160274Y21318D01*
X1160129Y21463D01*
X1159985Y21623D01*
X1159840Y21798D01*
X1159703Y21981D01*
X1159573Y22179D01*
X1159451Y22393D01*
X1159444Y22408D01*
X1159428Y22446D01*
X1159398Y22507D01*
X1159360Y22598D01*
X1159314Y22705D01*
X1159261Y22835D01*
X1159207Y22987D01*
X1159154Y23155D01*
X1159101Y23338D01*
X1159047Y23543D01*
X1158994Y23757D01*
X1158948Y23985D01*
X1158910Y24221D01*
X1158880Y24473D01*
X1158865Y24732D01*
X1158857Y24999D01*
Y25006D01*
Y25014D01*
Y25037D01*
Y25060D01*
X1158859Y25083D01*
X1158857Y25164D01*
Y25171D01*
Y25179D01*
Y25202D01*
Y25225D01*
X1158865Y25301D01*
Y25408D01*
X1158872Y25537D01*
X1158887Y25682D01*
X1158910Y25850D01*
X1158933Y26033D01*
X1158963Y26231D01*
X1159002Y26444D01*
X1159047Y26665D01*
X1159108Y26894D01*
X1159177Y27130D01*
X1159253Y27358D01*
X1159344Y27595D01*
X1159451Y27831D01*
X1159459Y27846D01*
X1159482Y27884D01*
X1159512Y27953D01*
X1159566Y28037D01*
X1159626Y28136D01*
X1159695Y28250D01*
X1159787Y28387D01*
X1159886Y28524D01*
X1160000Y28669D01*
X1160129Y28821D01*
X1160274Y28974D01*
X1160427Y29126D01*
X1160594Y29271D01*
X1160770Y29416D01*
X1160960Y29545D01*
X1161166Y29667D01*
X1161181Y29675D01*
X1161219Y29690D01*
X1161280Y29721D01*
X1161364Y29759D01*
X1161470Y29804D01*
X1161600Y29858D01*
X1161745Y29911D01*
X1161905Y29972D01*
X1162088Y30025D01*
X1162286Y30079D01*
X1162499Y30132D01*
X1162728Y30178D01*
X1162964Y30216D01*
X1163215Y30246D01*
X1163475Y30262D01*
X1163741Y30269D01*
X1163848D01*
X1163924Y30262D01*
D02*
G37*
G36*
X1157013Y20333D02*
Y20168D01*
X1155679D01*
X1150559Y27833D01*
Y20333D01*
Y20168D01*
X1149317D01*
Y20333D01*
Y30102D01*
X1150642D01*
X1155771Y22428D01*
Y30102D01*
X1157013D01*
Y20333D01*
D02*
G37*
G36*
X1143373D02*
Y20168D01*
X1142039D01*
X1136919Y27833D01*
Y20333D01*
Y20168D01*
X1135677D01*
Y20333D01*
Y30102D01*
X1137003D01*
X1142131Y22428D01*
Y30102D01*
X1143373D01*
Y20333D01*
D02*
G37*
G36*
X1147061D02*
Y20168D01*
X1145766D01*
Y20333D01*
Y30102D01*
X1147061D01*
Y20333D01*
D02*
G37*
G36*
X1130404Y30094D02*
X1130510D01*
X1130640Y30086D01*
X1130777Y30079D01*
X1130930Y30071D01*
X1131082Y30056D01*
X1131250Y30033D01*
X1131577Y29987D01*
X1131737Y29957D01*
X1131890Y29926D01*
X1132035Y29881D01*
X1132172Y29835D01*
X1132179D01*
X1132202Y29820D01*
X1132240Y29804D01*
X1132286Y29782D01*
X1132339Y29751D01*
X1132408Y29713D01*
X1132484Y29667D01*
X1132560Y29622D01*
X1132644Y29561D01*
X1132736Y29492D01*
X1132827Y29416D01*
X1132911Y29324D01*
X1133002Y29233D01*
X1133094Y29134D01*
X1133177Y29020D01*
X1133254Y28898D01*
X1133261Y28890D01*
X1133269Y28867D01*
X1133292Y28829D01*
X1133315Y28783D01*
X1133353Y28722D01*
X1133383Y28646D01*
X1133421Y28562D01*
X1133459Y28463D01*
X1133497Y28364D01*
X1133536Y28250D01*
X1133574Y28128D01*
X1133604Y27998D01*
X1133650Y27724D01*
X1133658Y27579D01*
X1133665Y27435D01*
Y27419D01*
Y27389D01*
X1133661Y27357D01*
X1133665Y27269D01*
Y27254D01*
Y27224D01*
X1133658Y27170D01*
Y27094D01*
X1133642Y27003D01*
X1133627Y26904D01*
X1133612Y26782D01*
X1133581Y26660D01*
X1133543Y26523D01*
X1133497Y26378D01*
X1133444Y26233D01*
X1133376Y26088D01*
X1133299Y25936D01*
X1133208Y25791D01*
X1133109Y25646D01*
X1132987Y25509D01*
X1132979Y25502D01*
X1132956Y25479D01*
X1132918Y25441D01*
X1132857Y25395D01*
X1132789Y25342D01*
X1132697Y25273D01*
X1132598Y25205D01*
X1132476Y25128D01*
X1132339Y25052D01*
X1132187Y24976D01*
X1132019Y24900D01*
X1131829Y24831D01*
X1131623Y24762D01*
X1131410Y24702D01*
X1131166Y24648D01*
X1131158Y24647D01*
X1131204Y24623D01*
X1131326Y24547D01*
X1131455Y24463D01*
X1131585Y24379D01*
X1131692Y24288D01*
X1131699Y24280D01*
X1131714Y24265D01*
X1131745Y24234D01*
X1131791Y24196D01*
X1131836Y24143D01*
X1131897Y24082D01*
X1131966Y24013D01*
X1132035Y23929D01*
X1132118Y23838D01*
X1132202Y23739D01*
X1132286Y23632D01*
X1132377Y23518D01*
X1132476Y23396D01*
X1132568Y23266D01*
X1132758Y22984D01*
X1134450Y20333D01*
X1134345D01*
X1134450Y20168D01*
X1132835D01*
X1131547Y22195D01*
X1131539Y22202D01*
X1131524Y22233D01*
X1131493Y22278D01*
X1131455Y22339D01*
X1131402Y22416D01*
X1131349Y22499D01*
X1131288Y22591D01*
X1131219Y22690D01*
X1131074Y22911D01*
X1130914Y23132D01*
X1130762Y23345D01*
X1130686Y23444D01*
X1130617Y23536D01*
X1130610Y23543D01*
X1130602Y23559D01*
X1130579Y23581D01*
X1130556Y23612D01*
X1130488Y23696D01*
X1130396Y23795D01*
X1130297Y23902D01*
X1130190Y24008D01*
X1130076Y24107D01*
X1129962Y24191D01*
X1129947Y24199D01*
X1129909Y24221D01*
X1129855Y24252D01*
X1129779Y24298D01*
X1129688Y24336D01*
X1129588Y24381D01*
X1129482Y24420D01*
X1129368Y24450D01*
X1129360D01*
X1129322Y24458D01*
X1129268Y24465D01*
X1129192Y24481D01*
X1129093Y24488D01*
X1128971Y24496D01*
X1128826Y24503D01*
X1127158D01*
Y20333D01*
Y20168D01*
X1125862D01*
Y20333D01*
Y30102D01*
X1130312D01*
X1130404Y30094D01*
D02*
G37*
G36*
X1124803Y20333D02*
X1124736D01*
X1124803Y20168D01*
X1123332D01*
X1122197Y23124D01*
X1118105D01*
X1117038Y20168D01*
X1115674D01*
X1115738Y20333D01*
X1115674D01*
X1119416Y30102D01*
X1120810D01*
X1124803Y20333D01*
D02*
G37*
G36*
X1114729Y28951D02*
Y28786D01*
X1108969D01*
Y25964D01*
X1114364D01*
Y24813D01*
Y24648D01*
X1108969D01*
Y21483D01*
X1114958D01*
Y20333D01*
Y20168D01*
X1107673D01*
Y20333D01*
Y30102D01*
X1114729D01*
Y28951D01*
D02*
G37*
G36*
X1101295Y21483D02*
X1106104D01*
Y20333D01*
Y20168D01*
X1100000D01*
Y20333D01*
Y30102D01*
X1101295D01*
Y21483D01*
D02*
G37*
%LPC*%
G36*
X1113503Y55075D02*
X1110416D01*
Y52009D01*
X1113335D01*
X1113411Y52017D01*
X1113495D01*
X1113594Y52024D01*
X1113693Y52032D01*
X1113914Y52055D01*
X1114143Y52085D01*
X1114371Y52131D01*
X1114470Y52161D01*
X1114569Y52192D01*
X1114577D01*
X1114592Y52200D01*
X1114615Y52215D01*
X1114653Y52230D01*
X1114745Y52268D01*
X1114851Y52337D01*
X1114973Y52413D01*
X1115103Y52512D01*
X1115225Y52634D01*
X1115331Y52771D01*
Y52779D01*
X1115339Y52786D01*
X1115354Y52809D01*
X1115369Y52840D01*
X1115415Y52923D01*
X1115461Y53030D01*
X1115507Y53160D01*
X1115552Y53312D01*
X1115583Y53472D01*
X1115587Y53571D01*
X1115583Y53597D01*
X1115575Y53658D01*
X1115568Y53726D01*
X1115552Y53802D01*
X1115529Y53886D01*
X1115469Y54069D01*
X1115431Y54160D01*
X1115377Y54260D01*
X1115324Y54351D01*
X1115255Y54450D01*
X1115179Y54542D01*
X1115088Y54625D01*
X1115080Y54633D01*
X1115065Y54648D01*
X1115034Y54663D01*
X1114996Y54694D01*
X1114935Y54732D01*
X1114874Y54770D01*
X1114790Y54808D01*
X1114699Y54854D01*
X1114600Y54892D01*
X1114478Y54930D01*
X1114348Y54968D01*
X1114204Y55006D01*
X1114051Y55037D01*
X1113884Y55052D01*
X1113701Y55067D01*
X1113503Y55075D01*
D02*
G37*
G36*
X1104092Y55006D02*
X1101295D01*
Y51674D01*
X1103932D01*
X1104016Y51681D01*
X1104115Y51689D01*
X1104237Y51697D01*
X1104366Y51712D01*
X1104503Y51735D01*
X1104801Y51788D01*
X1104945Y51826D01*
X1105090Y51872D01*
X1105235Y51925D01*
X1105365Y51986D01*
X1105486Y52055D01*
X1105593Y52139D01*
X1105601Y52146D01*
X1105616Y52161D01*
X1105639Y52184D01*
X1105677Y52222D01*
X1105715Y52276D01*
X1105761Y52329D01*
X1105806Y52398D01*
X1105860Y52474D01*
X1105906Y52565D01*
X1105951Y52664D01*
X1105997Y52771D01*
X1106035Y52885D01*
X1106073Y53015D01*
X1106096Y53152D01*
X1106111Y53297D01*
X1106115Y53369D01*
X1106111Y53391D01*
Y53444D01*
X1106104Y53505D01*
X1106081Y53650D01*
X1106043Y53810D01*
X1105989Y53985D01*
X1105913Y54168D01*
X1105806Y54336D01*
Y54343D01*
X1105791Y54359D01*
X1105776Y54381D01*
X1105753Y54404D01*
X1105685Y54481D01*
X1105585Y54572D01*
X1105471Y54671D01*
X1105334Y54770D01*
X1105174Y54854D01*
X1104991Y54915D01*
X1104976Y54922D01*
X1104953D01*
X1104930Y54930D01*
X1104892Y54938D01*
X1104839Y54945D01*
X1104785Y54953D01*
X1104717Y54961D01*
X1104641Y54968D01*
X1104557Y54976D01*
X1104458Y54983D01*
X1104343Y54991D01*
X1104221Y54999D01*
X1104092Y55006D01*
D02*
G37*
G36*
X1123241Y55212D02*
X1123180D01*
X1123111Y55204D01*
X1123012Y55197D01*
X1122890Y55182D01*
X1122753Y55159D01*
X1122601Y55136D01*
X1122433Y55098D01*
X1122250Y55044D01*
X1122060Y54983D01*
X1121869Y54907D01*
X1121664Y54816D01*
X1121466Y54709D01*
X1121267Y54580D01*
X1121069Y54435D01*
X1120879Y54267D01*
X1120871Y54260D01*
X1120833Y54221D01*
X1120787Y54168D01*
X1120726Y54084D01*
X1120650Y53978D01*
X1120566Y53856D01*
X1120482Y53696D01*
X1120391Y53520D01*
X1120300Y53315D01*
X1120208Y53086D01*
X1120124Y52827D01*
X1120048Y52537D01*
X1119987Y52225D01*
X1119941Y51890D01*
X1119903Y51516D01*
X1119897Y51200D01*
X1119903Y51163D01*
Y51118D01*
X1119911Y50996D01*
X1119926Y50843D01*
X1119949Y50676D01*
X1119972Y50485D01*
X1120018Y50272D01*
X1120063Y50058D01*
X1120124Y49830D01*
X1120201Y49601D01*
X1120292Y49365D01*
X1120406Y49136D01*
X1120528Y48915D01*
X1120673Y48702D01*
X1120841Y48504D01*
X1120848Y48496D01*
X1120886Y48458D01*
X1120940Y48412D01*
X1121008Y48344D01*
X1121107Y48268D01*
X1121214Y48184D01*
X1121344Y48092D01*
X1121496Y48001D01*
X1121656Y47902D01*
X1121839Y47811D01*
X1122029Y47727D01*
X1122243Y47650D01*
X1122464Y47582D01*
X1122708Y47536D01*
X1122959Y47506D01*
X1123218Y47490D01*
X1123279D01*
X1123355Y47498D01*
X1123462Y47506D01*
X1123584Y47521D01*
X1123729Y47544D01*
X1123889Y47574D01*
X1124064Y47620D01*
X1124247Y47673D01*
X1124445Y47742D01*
X1124643Y47826D01*
X1124849Y47925D01*
X1125047Y48039D01*
X1125245Y48176D01*
X1125435Y48329D01*
X1125618Y48512D01*
X1125626Y48527D01*
X1125657Y48557D01*
X1125702Y48618D01*
X1125763Y48702D01*
X1125839Y48809D01*
X1125916Y48938D01*
X1125999Y49091D01*
X1126091Y49258D01*
X1126182Y49456D01*
X1126266Y49677D01*
X1126342Y49914D01*
X1126419Y50173D01*
X1126479Y50455D01*
X1126525Y50759D01*
X1126556Y51080D01*
X1126562Y51382D01*
X1126556Y51455D01*
X1126548Y51562D01*
X1126540Y51684D01*
X1126533Y51821D01*
X1126510Y51966D01*
X1126495Y52126D01*
X1126464Y52294D01*
X1126396Y52636D01*
X1126350Y52819D01*
X1126297Y52995D01*
X1126228Y53170D01*
X1126159Y53337D01*
X1126152Y53345D01*
X1126144Y53376D01*
X1126114Y53421D01*
X1126083Y53482D01*
X1126045Y53559D01*
X1125992Y53642D01*
X1125931Y53741D01*
X1125862Y53848D01*
X1125778Y53955D01*
X1125695Y54069D01*
X1125596Y54183D01*
X1125489Y54298D01*
X1125375Y54412D01*
X1125253Y54519D01*
X1125123Y54618D01*
X1124978Y54717D01*
X1124971Y54724D01*
X1124940Y54740D01*
X1124902Y54763D01*
X1124841Y54793D01*
X1124773Y54831D01*
X1124681Y54877D01*
X1124582Y54915D01*
X1124468Y54968D01*
X1124346Y55014D01*
X1124216Y55052D01*
X1124072Y55098D01*
X1123919Y55136D01*
X1123759Y55166D01*
X1123592Y55189D01*
X1123416Y55204D01*
X1123241Y55212D01*
D02*
G37*
G36*
X1139997Y42006D02*
X1137742D01*
Y34704D01*
X1139982D01*
X1140066Y34711D01*
X1140157D01*
X1140264Y34719D01*
X1140378Y34727D01*
X1140615Y34750D01*
X1140874Y34780D01*
X1141117Y34818D01*
X1141232Y34849D01*
X1141339Y34879D01*
X1141346D01*
X1141361Y34887D01*
X1141392Y34902D01*
X1141430Y34910D01*
X1141476Y34932D01*
X1141529Y34955D01*
X1141651Y35009D01*
X1141796Y35085D01*
X1141941Y35169D01*
X1142085Y35275D01*
X1142215Y35390D01*
X1142222Y35397D01*
X1142238Y35412D01*
X1142261Y35435D01*
X1142291Y35473D01*
X1142329Y35519D01*
X1142375Y35573D01*
X1142421Y35641D01*
X1142474Y35717D01*
X1142535Y35801D01*
X1142588Y35893D01*
X1142649Y35992D01*
X1142710Y36106D01*
X1142771Y36220D01*
X1142824Y36350D01*
X1142878Y36479D01*
X1142931Y36624D01*
Y36632D01*
X1142939Y36662D01*
X1142954Y36700D01*
X1142969Y36761D01*
X1142992Y36837D01*
X1143015Y36929D01*
X1143038Y37036D01*
X1143061Y37150D01*
X1143083Y37279D01*
X1143106Y37424D01*
X1143129Y37576D01*
X1143152Y37744D01*
X1143167Y37919D01*
X1143183Y38110D01*
X1143190Y38300D01*
Y38341D01*
Y38349D01*
Y38356D01*
Y38379D01*
Y38410D01*
Y38486D01*
D01*
X1143183Y38593D01*
X1143175Y38722D01*
X1143167Y38867D01*
X1143152Y39035D01*
X1143129Y39210D01*
X1143099Y39393D01*
X1143068Y39591D01*
X1143030Y39789D01*
X1142977Y39979D01*
X1142923Y40170D01*
X1142855Y40360D01*
X1142779Y40536D01*
X1142687Y40696D01*
X1142680Y40703D01*
X1142664Y40734D01*
X1142634Y40772D01*
X1142596Y40833D01*
X1142550Y40894D01*
X1142489Y40970D01*
X1142421Y41054D01*
X1142344Y41145D01*
X1142261Y41237D01*
X1142169Y41328D01*
X1142062Y41420D01*
X1141956Y41511D01*
X1141841Y41595D01*
X1141720Y41671D01*
X1141590Y41740D01*
X1141460Y41801D01*
X1141453D01*
X1141438Y41808D01*
X1141407Y41823D01*
X1141361Y41831D01*
X1141308Y41846D01*
X1141239Y41869D01*
X1141156Y41884D01*
X1141057Y41907D01*
X1140950Y41922D01*
X1140828Y41938D01*
X1140691Y41961D01*
X1140538Y41976D01*
X1140371Y41991D01*
X1140195Y41999D01*
X1139997Y42006D01*
D02*
G37*
G36*
X1112489Y42128D02*
Y42121D01*
X1112482Y42083D01*
X1112466Y42037D01*
X1112451Y41968D01*
X1112436Y41884D01*
X1112413Y41778D01*
X1112383Y41663D01*
X1112352Y41542D01*
X1112314Y41404D01*
X1112276Y41259D01*
X1112238Y41100D01*
X1112184Y40939D01*
X1112085Y40604D01*
X1111963Y40261D01*
X1110951Y37561D01*
X1114141D01*
X1113183Y40101D01*
X1113175Y40117D01*
X1113160Y40155D01*
X1113137Y40223D01*
X1113106Y40307D01*
X1113068Y40414D01*
X1113023Y40536D01*
X1112977Y40665D01*
X1112924Y40818D01*
X1112870Y40970D01*
X1112809Y41138D01*
X1112695Y41473D01*
X1112588Y41808D01*
X1112535Y41976D01*
X1112489Y42128D01*
D02*
G37*
G36*
X1103437Y42006D02*
X1101295D01*
Y39215D01*
X1103620D01*
X1103696Y39223D01*
X1103787D01*
X1103879Y39230D01*
X1104084Y39238D01*
X1104282Y39261D01*
X1104473Y39283D01*
X1104557Y39306D01*
X1104633Y39321D01*
X1104641D01*
X1104656Y39329D01*
X1104679Y39337D01*
X1104717Y39352D01*
X1104801Y39390D01*
X1104915Y39443D01*
X1105037Y39504D01*
X1105159Y39588D01*
X1105273Y39695D01*
X1105380Y39809D01*
Y39817D01*
X1105387Y39824D01*
X1105418Y39870D01*
X1105456Y39946D01*
X1105509Y40045D01*
X1105555Y40167D01*
X1105593Y40312D01*
X1105623Y40480D01*
X1105628Y40595D01*
X1105623Y40620D01*
X1105616Y40673D01*
X1105601Y40787D01*
X1105570Y40924D01*
X1105532Y41069D01*
X1105471Y41214D01*
X1105395Y41359D01*
Y41366D01*
X1105387Y41374D01*
X1105349Y41420D01*
X1105296Y41480D01*
X1105220Y41564D01*
X1105128Y41648D01*
X1105014Y41732D01*
X1104877Y41808D01*
X1104724Y41869D01*
X1104717D01*
X1104702Y41877D01*
X1104679Y41884D01*
X1104641Y41892D01*
X1104595Y41900D01*
X1104534Y41915D01*
X1104465Y41922D01*
X1104381Y41938D01*
X1104282Y41953D01*
X1104176Y41961D01*
X1104054Y41976D01*
X1103924Y41983D01*
X1103772Y41991D01*
X1103612Y41999D01*
X1103437Y42006D01*
D02*
G37*
G36*
X1103718Y37899D02*
X1101295D01*
Y34704D01*
X1103940D01*
X1104069Y34711D01*
X1104214D01*
X1104359Y34727D01*
X1104496Y34734D01*
X1104549Y34742D01*
X1104603Y34750D01*
X1104610D01*
X1104625Y34757D01*
X1104648D01*
X1104679Y34765D01*
X1104762Y34780D01*
X1104862Y34811D01*
X1104984Y34849D01*
X1105105Y34894D01*
X1105235Y34948D01*
X1105349Y35009D01*
X1105365Y35016D01*
X1105403Y35047D01*
X1105456Y35085D01*
X1105525Y35146D01*
X1105601Y35230D01*
X1105685Y35321D01*
X1105768Y35428D01*
X1105844Y35557D01*
Y35565D01*
X1105852Y35573D01*
X1105860Y35595D01*
X1105875Y35618D01*
X1105906Y35694D01*
X1105944Y35793D01*
X1105982Y35915D01*
X1106012Y36052D01*
X1106035Y36213D01*
X1106039Y36289D01*
X1106035Y36307D01*
Y36352D01*
X1106027Y36413D01*
X1106004Y36543D01*
X1105974Y36688D01*
X1105921Y36848D01*
X1105852Y37008D01*
X1105753Y37168D01*
Y37175D01*
X1105738Y37183D01*
X1105700Y37236D01*
X1105639Y37305D01*
X1105547Y37389D01*
X1105441Y37480D01*
X1105303Y37579D01*
X1105151Y37663D01*
X1104976Y37731D01*
X1104968D01*
X1104953Y37739D01*
X1104922Y37747D01*
X1104884Y37754D01*
X1104831Y37770D01*
X1104770Y37785D01*
X1104694Y37800D01*
X1104610Y37815D01*
X1104519Y37831D01*
X1104412Y37846D01*
X1104290Y37861D01*
X1104168Y37876D01*
X1104031Y37884D01*
X1103879Y37891D01*
X1103718Y37899D01*
D02*
G37*
G36*
X1130244Y28854D02*
X1127158D01*
Y25789D01*
X1130076D01*
X1130152Y25796D01*
X1130236D01*
X1130335Y25804D01*
X1130434Y25812D01*
X1130655Y25834D01*
X1130884Y25865D01*
X1131112Y25911D01*
X1131211Y25941D01*
X1131311Y25972D01*
X1131318D01*
X1131333Y25979D01*
X1131356Y25994D01*
X1131394Y26010D01*
X1131486Y26048D01*
X1131592Y26116D01*
X1131714Y26193D01*
X1131844Y26292D01*
X1131966Y26414D01*
X1132073Y26551D01*
Y26558D01*
X1132080Y26566D01*
X1132095Y26589D01*
X1132111Y26619D01*
X1132156Y26703D01*
X1132202Y26810D01*
X1132248Y26939D01*
X1132293Y27092D01*
X1132324Y27252D01*
X1132328Y27350D01*
X1132324Y27376D01*
X1132316Y27437D01*
X1132309Y27506D01*
X1132293Y27582D01*
X1132271Y27666D01*
X1132210Y27849D01*
X1132172Y27940D01*
X1132118Y28039D01*
X1132065Y28131D01*
X1131996Y28230D01*
X1131920Y28321D01*
X1131829Y28405D01*
X1131821Y28412D01*
X1131806Y28428D01*
X1131775Y28443D01*
X1131737Y28473D01*
X1131676Y28512D01*
X1131615Y28550D01*
X1131532Y28588D01*
X1131440Y28633D01*
X1131341Y28672D01*
X1131219Y28710D01*
X1131090Y28748D01*
X1130945Y28786D01*
X1130792Y28816D01*
X1130625Y28832D01*
X1130442Y28847D01*
X1130244Y28854D01*
D02*
G37*
G36*
X1120079Y28908D02*
Y28900D01*
X1120071Y28862D01*
X1120056Y28816D01*
X1120041Y28748D01*
X1120025Y28664D01*
X1120003Y28557D01*
X1119972Y28443D01*
X1119941Y28321D01*
X1119903Y28184D01*
X1119865Y28039D01*
X1119827Y27879D01*
X1119774Y27719D01*
X1119675Y27384D01*
X1119553Y27041D01*
X1118540Y24341D01*
X1121731D01*
X1120772Y26881D01*
X1120764Y26896D01*
X1120749Y26934D01*
X1120726Y27003D01*
X1120696Y27087D01*
X1120658Y27193D01*
X1120612Y27315D01*
X1120566Y27445D01*
X1120513Y27597D01*
X1120460Y27750D01*
X1120399Y27917D01*
X1120284Y28252D01*
X1120178Y28588D01*
X1120124Y28755D01*
X1120079Y28908D01*
D02*
G37*
%LPD*%
D16*
X969985Y32875D02*
G03*
X969985Y32875I-10J0D01*
G01*
D30*
X1838860Y2972487D02*
D03*
D31*
X1843860D02*
D03*
X1848860D02*
D03*
X1853860D02*
D03*
Y2999513D02*
D03*
X1848860D02*
D03*
X1843860D02*
D03*
X1838860D02*
D03*
D32*
X1859872Y2978500D02*
D03*
Y2983500D02*
D03*
Y2988500D02*
D03*
Y2993500D02*
D03*
X1832847D02*
D03*
Y2988500D02*
D03*
Y2983500D02*
D03*
Y2978500D02*
D03*
D35*
X1571487Y2992000D02*
D03*
D36*
Y2987000D02*
D03*
Y2982000D02*
D03*
Y2977000D02*
D03*
X1598513D02*
D03*
Y2982000D02*
D03*
Y2987000D02*
D03*
Y2992000D02*
D03*
D37*
X1577500Y2970988D02*
D03*
X1582500D02*
D03*
X1587500D02*
D03*
X1592500D02*
D03*
Y2998012D02*
D03*
X1587500D02*
D03*
X1582500D02*
D03*
X1577500D02*
D03*
D46*
X1740250Y2602000D02*
D03*
Y2608500D02*
D03*
Y2615000D02*
D03*
Y2621500D02*
D03*
Y2628000D02*
D03*
X1699750D02*
D03*
Y2621500D02*
D03*
Y2615000D02*
D03*
Y2608500D02*
D03*
Y2602000D02*
D03*
D47*
X1733000Y2634250D02*
D03*
X1726500D02*
D03*
X1720000D02*
D03*
X1713500D02*
D03*
X1707000D02*
D03*
Y2595750D02*
D03*
X1713500D02*
D03*
X1720000D02*
D03*
X1726500D02*
D03*
X1733000D02*
D03*
D53*
X1638294Y2532623D02*
D03*
X1643923Y2535874D02*
D03*
X1649553Y2539123D02*
D03*
X1668803Y2505782D02*
D03*
X1674432Y2509032D02*
D03*
X1663173Y2502531D02*
D03*
X1655182Y2542374D02*
D03*
X1660811Y2545623D02*
D03*
X1680061Y2512281D02*
D03*
X1657544Y2499281D02*
D03*
D54*
X1635141Y2523586D02*
D03*
X1648141Y2501069D02*
D03*
X1683215Y2521319D02*
D03*
X1670215Y2543836D02*
D03*
X1673465Y2538207D02*
D03*
X1638391Y2517957D02*
D03*
X1644891Y2506698D02*
D03*
X1679965Y2526948D02*
D03*
X1676715Y2532578D02*
D03*
X1641641Y2512328D02*
D03*
D55*
X1758617Y2513049D02*
D03*
X1764246Y2509799D02*
D03*
X1769875Y2506549D02*
D03*
X1775504Y2503299D02*
D03*
X1781133Y2500049D02*
D03*
X1801383Y2535123D02*
D03*
X1795754Y2538373D02*
D03*
X1790125Y2541623D02*
D03*
X1784496Y2544873D02*
D03*
X1778867Y2548123D02*
D03*
D56*
X1790171Y2503202D02*
D03*
X1793421Y2508832D02*
D03*
X1796671Y2514461D02*
D03*
X1799921Y2520090D02*
D03*
X1803171Y2525719D02*
D03*
X1769829Y2544969D02*
D03*
X1766579Y2539340D02*
D03*
X1763329Y2533711D02*
D03*
X1760079Y2528082D02*
D03*
X1756829Y2522453D02*
D03*
D68*
X700000Y1716214D02*
D03*
Y1723786D02*
D03*
X2733250Y1716215D02*
D03*
Y1723786D02*
D03*
D71*
X1263462Y2519750D02*
D03*
X1269962D02*
D03*
X1276462D02*
D03*
Y2500250D02*
D03*
X1269962D02*
D03*
X1263462D02*
D03*
D72*
X629500Y370000D02*
G03*
X629500Y370000I-9500J0D01*
G01*
X629500Y1370000D02*
G03*
X629500Y1370000I-9500J0D01*
G01*
X629500Y2370000D02*
G03*
X629500Y2370000I-9500J0D01*
G01*
X729500Y2470000D02*
G03*
X729500Y2470000I-9500J0D01*
G01*
X2829500Y1370000D02*
G03*
X2829500Y1370000I-9500J0D01*
G01*
Y370000D02*
G03*
X2829500Y370000I-9500J0D01*
G01*
X2729500Y270000D02*
G03*
X2729500Y270000I-9500J0D01*
G01*
X1729500D02*
G03*
X1729500Y270000I-9500J0D01*
G01*
X729500D02*
G03*
X729500Y270000I-9500J0D01*
G01*
X2729500Y2470000D02*
G03*
X2729500Y2470000I-9500J0D01*
G01*
X2829500Y2370000D02*
G03*
X2829500Y2370000I-9500J0D01*
G01*
X979500Y1070000D02*
G03*
X979500Y1070000I-9500J0D01*
G01*
X979500Y1720000D02*
G03*
X979500Y1720000I-9500J0D01*
G01*
X979500Y2370000D02*
G03*
X979500Y2370000I-9500J0D01*
G01*
X2379500Y970000D02*
G03*
X2379500Y970000I-9500J0D01*
G01*
X1729500D02*
G03*
X1729500Y970000I-9500J0D01*
G01*
X1079500D02*
G03*
X1079500Y970000I-9500J0D01*
G01*
X2479500Y2368769D02*
G03*
X2479500Y2368769I-9500J0D01*
G01*
Y1720000D02*
G03*
X2479500Y1720000I-9500J0D01*
G01*
Y1070000D02*
G03*
X2479500Y1070000I-9500J0D01*
G01*
X1729500Y2470000D02*
G03*
X1729500Y2470000I-9500J0D01*
G01*
X2379500D02*
G03*
X2379500Y2470000I-9500J0D01*
G01*
D73*
X939410Y33150D02*
G03*
X939410Y33150I-10J0D01*
G01*
X946560D02*
G03*
X946560Y33150I-10J0D01*
G01*
D74*
X1773918Y2610636D02*
D03*
X1766118D02*
D03*
X2407916Y3540930D02*
D03*
X2400116D02*
D03*
X2709744Y3541954D02*
D03*
X2717544D02*
D03*
X1726600Y3021414D02*
D03*
X1734400D02*
D03*
X1884127Y2992900D02*
D03*
X1876327D02*
D03*
X1884128Y2983500D02*
D03*
X1876328D02*
D03*
X2984900Y1163967D02*
D03*
X2977100D02*
D03*
Y2164267D02*
D03*
X2984900D02*
D03*
X462900Y2305733D02*
D03*
X455100D02*
D03*
X2953900Y502500D02*
D03*
X2946100D02*
D03*
X483900Y2972500D02*
D03*
X476100D02*
D03*
X2946100D02*
D03*
X2953900D02*
D03*
X483900Y502500D02*
D03*
X476100D02*
D03*
X1713179Y2580126D02*
D03*
X1705379D02*
D03*
X455101Y1305733D02*
D03*
X462901D02*
D03*
X1734650Y3071724D02*
D03*
X1726850D02*
D03*
X1773932Y3295725D02*
D03*
X1766133D02*
D03*
X1270842Y2529975D02*
D03*
X1263042D02*
D03*
D75*
X2445700Y3483000D02*
D03*
X2471100D02*
D03*
X2445700Y3537000D02*
D03*
X2471100D02*
D03*
X2496500Y3483000D02*
D03*
Y3537000D02*
D03*
X2521900Y3483000D02*
D03*
Y3537000D02*
D03*
X2572700Y3483000D02*
D03*
Y3537000D02*
D03*
X2598100Y3483000D02*
D03*
Y3537000D02*
D03*
X2674300D02*
D03*
Y3483000D02*
D03*
X2648900Y3537000D02*
D03*
Y3483000D02*
D03*
X2623500Y3537000D02*
D03*
Y3483000D02*
D03*
X2547300Y3537000D02*
D03*
Y3483000D02*
D03*
D76*
X2398750Y3529000D02*
D03*
X2408549D02*
D03*
X2708850Y3528916D02*
D03*
X2718650D02*
D03*
D77*
X2397000Y3469000D02*
D03*
X2411000D02*
D03*
X2410999Y3484000D02*
D03*
X2397000D02*
D03*
X2396500Y3499000D02*
D03*
X2410500D02*
D03*
X2411000Y3514000D02*
D03*
X2397000D02*
D03*
X2720750Y3469250D02*
D03*
X2706750D02*
D03*
X2720750Y3484250D02*
D03*
X2706750D02*
D03*
X2720750Y3499250D02*
D03*
X2706750D02*
D03*
X2720750Y3514250D02*
D03*
X2706750D02*
D03*
X2946865Y1261742D02*
D03*
X2960865D02*
D03*
X2946865Y1247700D02*
D03*
X2960865D02*
D03*
X2960865Y2262042D02*
D03*
X2946865D02*
D03*
X2960865Y2248000D02*
D03*
X2946865D02*
D03*
X479135Y2207958D02*
D03*
X493135D02*
D03*
X479135Y2222000D02*
D03*
X493135D02*
D03*
X493135Y1207958D02*
D03*
X479135D02*
D03*
X493135Y1222001D02*
D03*
X479135D02*
D03*
D78*
X1766283Y3313375D02*
D03*
X1773783D02*
D03*
X1617774Y3003175D02*
D03*
X1625274D02*
D03*
X1617774Y2992000D02*
D03*
X1625274D02*
D03*
X1617774Y2971750D02*
D03*
X1625274D02*
D03*
X1617774Y2982000D02*
D03*
X1625274D02*
D03*
X1766532Y3322000D02*
D03*
X1774032D02*
D03*
Y3330875D02*
D03*
X1766532D02*
D03*
Y3340000D02*
D03*
X1774032D02*
D03*
D79*
X1883177Y2971000D02*
D03*
X520000Y2955000D02*
D03*
X3402128Y2715000D02*
D03*
Y2685000D02*
D03*
X2674300Y3450023D02*
D03*
X2445700Y3450000D02*
D03*
X2648900Y3450074D02*
D03*
X1582250Y3032000D02*
D03*
X1568245Y2955938D02*
D03*
X2623500Y3450000D02*
D03*
X2585537Y3440083D02*
D03*
X2598100Y3450000D02*
D03*
X2559999Y3440000D02*
D03*
X2534000Y3440000D02*
D03*
X2483811Y3439970D02*
D03*
X2496500Y3450000D02*
D03*
X2510000Y3440000D02*
D03*
X2522405Y3450000D02*
D03*
X2547300D02*
D03*
X2572700D02*
D03*
X1668951Y3011431D02*
D03*
X1819227Y2970892D02*
D03*
X1826727Y3013664D02*
D03*
X2981000Y1285000D02*
D03*
Y1315001D02*
D03*
X458285Y2179862D02*
D03*
Y2149862D02*
D03*
X2988000Y2955000D02*
D03*
X508790Y465000D02*
D03*
X2976625Y506500D02*
D03*
X2981867Y2290000D02*
D03*
Y2320000D02*
D03*
X2610970Y3440083D02*
D03*
X456560Y1175297D02*
D03*
Y1145297D02*
D03*
X3505000Y163000D02*
D03*
D80*
X3460000Y2614750D02*
D03*
Y2585250D02*
D03*
Y2544750D02*
D03*
Y2515250D02*
D03*
X2299999Y2660237D02*
D03*
Y2630737D02*
D03*
X2300000Y2709750D02*
D03*
Y2680250D02*
D03*
D81*
X3475000Y2600000D02*
D03*
X3445000D02*
D03*
X3475000Y2530000D02*
D03*
X3445000D02*
D03*
X2314999Y2645487D02*
D03*
X2284999D02*
D03*
X2315000Y2695000D02*
D03*
X2285000D02*
D03*
D82*
X3514961Y3192567D02*
D03*
X3523361D02*
D03*
X3514662Y3157567D02*
D03*
X3523062D02*
D03*
X3514961Y3122567D02*
D03*
X3523361D02*
D03*
X3514662Y3087567D02*
D03*
X3523062D02*
D03*
X3514961Y3052567D02*
D03*
X3523361D02*
D03*
X3514961Y3017567D02*
D03*
X3523361D02*
D03*
X3514761Y2842567D02*
D03*
X3523161D02*
D03*
X3514662Y2877467D02*
D03*
X3523062D02*
D03*
X3514661Y2912567D02*
D03*
X3523061D02*
D03*
D83*
X1582500Y3016000D02*
D03*
X1574500D02*
D03*
X1668899Y2999760D02*
D03*
X1660899D02*
D03*
X1668951Y2971117D02*
D03*
X1660951D02*
D03*
X1668899Y2961683D02*
D03*
X1660899D02*
D03*
X1811228Y2983499D02*
D03*
X1819227D02*
D03*
X1660899Y2981000D02*
D03*
X1668899D02*
D03*
X1660951Y2990433D02*
D03*
X1668951D02*
D03*
X1780198Y2979387D02*
D03*
X1772198D02*
D03*
X1772250Y2958420D02*
D03*
X1780250D02*
D03*
Y2988820D02*
D03*
X1772250D02*
D03*
Y2968859D02*
D03*
X1780250D02*
D03*
X2985000Y1154377D02*
D03*
X2977000D02*
D03*
Y2154678D02*
D03*
X2985000D02*
D03*
X463000Y2315323D02*
D03*
X455000D02*
D03*
X2984000Y485000D02*
D03*
X2976000D02*
D03*
X1728248Y2579904D02*
D03*
X1736248D02*
D03*
X516500Y485000D02*
D03*
X508500D02*
D03*
X1766100Y2593085D02*
D03*
X1774100D02*
D03*
X1765829Y2602000D02*
D03*
X1773829D02*
D03*
X455000Y1315323D02*
D03*
X463000D02*
D03*
X1774032Y3274960D02*
D03*
X1766033D02*
D03*
X1774032Y3287717D02*
D03*
X1766033D02*
D03*
D84*
X1553181Y2992910D02*
D03*
Y3000710D02*
D03*
X1582500Y2956730D02*
D03*
Y2948930D02*
D03*
X2958640Y1120535D02*
D03*
Y1128335D02*
D03*
X2928089Y1144624D02*
D03*
Y1152424D02*
D03*
X2958640Y2128635D02*
D03*
Y2120835D02*
D03*
X2928089Y2152724D02*
D03*
Y2144924D02*
D03*
X481360Y2341365D02*
D03*
Y2349165D02*
D03*
X511911Y2317276D02*
D03*
Y2325076D02*
D03*
X1696672Y2544075D02*
D03*
Y2551875D02*
D03*
X1812803Y2656662D02*
D03*
Y2648862D02*
D03*
X511911Y1325076D02*
D03*
Y1317276D02*
D03*
X481361Y1349165D02*
D03*
Y1341365D02*
D03*
X1252473Y2508050D02*
D03*
Y2500250D02*
D03*
D85*
X1823467Y2643297D02*
D03*
Y2656297D02*
D03*
X1681000Y2592336D02*
D03*
Y2605336D02*
D03*
D86*
X1241783Y2499724D02*
D03*
Y2513724D02*
D03*
X2912462Y1176085D02*
D03*
Y1162085D02*
D03*
X2926573Y1176085D02*
D03*
Y1162085D02*
D03*
X2912462Y2162385D02*
D03*
Y2176385D02*
D03*
X2926573Y2162385D02*
D03*
Y2176385D02*
D03*
X527538Y2307615D02*
D03*
Y2293615D02*
D03*
X513427Y2307615D02*
D03*
Y2293615D02*
D03*
X527538Y1293616D02*
D03*
Y1307616D02*
D03*
X513428Y1293616D02*
D03*
Y1307616D02*
D03*
D87*
X1279650Y2529854D02*
D03*
Y2537354D02*
D03*
X1842035Y3021164D02*
D03*
Y3013664D02*
D03*
X1861336Y3021164D02*
D03*
Y3013664D02*
D03*
X1671239Y3285693D02*
D03*
Y3293193D02*
D03*
Y3268750D02*
D03*
Y3276250D02*
D03*
X1269943Y2483207D02*
D03*
Y2490707D02*
D03*
D88*
X1692000Y3010750D02*
D03*
Y3004250D02*
D03*
Y2997750D02*
D03*
Y2991250D02*
D03*
Y2984750D02*
D03*
Y2978250D02*
D03*
Y2971750D02*
D03*
Y2965250D02*
D03*
X1749000Y3010750D02*
D03*
Y3004250D02*
D03*
Y2997750D02*
D03*
Y2991250D02*
D03*
Y2984750D02*
D03*
Y2978250D02*
D03*
Y2971750D02*
D03*
Y2965250D02*
D03*
D89*
X1851360Y3021414D02*
D03*
Y3013414D02*
D03*
X2975745Y2946804D02*
D03*
Y2954803D02*
D03*
X504982Y2962830D02*
D03*
Y2954830D02*
D03*
X1702220Y2656263D02*
D03*
Y2664262D02*
D03*
X1710946Y2656263D02*
D03*
Y2664263D02*
D03*
X1720000Y2656262D02*
D03*
Y2664262D02*
D03*
X1726788Y2894000D02*
D03*
Y2886000D02*
D03*
D90*
X3449000Y2685000D02*
D03*
Y2715000D02*
D03*
X3511000Y2685000D02*
D03*
Y2715000D02*
D03*
X2958327Y1315000D02*
D03*
X2896327D02*
D03*
X2958327Y1285000D02*
D03*
X2896327D02*
D03*
X541000Y2180000D02*
D03*
Y2150000D02*
D03*
X479000Y2180000D02*
D03*
Y2150000D02*
D03*
X2899000Y2290000D02*
D03*
Y2320000D02*
D03*
X2961000Y2290000D02*
D03*
Y2320000D02*
D03*
X479000Y1145297D02*
D03*
X541000D02*
D03*
X479000Y1175297D02*
D03*
X541000D02*
D03*
X429000Y3345000D02*
D03*
Y3375000D02*
D03*
X491000Y3345000D02*
D03*
Y3375000D02*
D03*
X3001000D02*
D03*
Y3345000D02*
D03*
X2939000Y3375000D02*
D03*
Y3345000D02*
D03*
D91*
X480310Y2316297D02*
D03*
Y2312297D02*
D03*
Y2308297D02*
D03*
Y2304297D02*
D03*
X497310D02*
D03*
Y2308297D02*
D03*
Y2312297D02*
D03*
Y2316297D02*
D03*
X2959690Y1153402D02*
D03*
Y1157402D02*
D03*
Y1161403D02*
D03*
Y1165403D02*
D03*
X2942690D02*
D03*
Y1161403D02*
D03*
Y1157402D02*
D03*
Y1153402D02*
D03*
Y2153703D02*
D03*
Y2157703D02*
D03*
Y2161703D02*
D03*
Y2165703D02*
D03*
X2959690D02*
D03*
Y2161703D02*
D03*
Y2157703D02*
D03*
Y2153703D02*
D03*
X480310Y1316298D02*
D03*
Y1312298D02*
D03*
Y1308298D02*
D03*
Y1304298D02*
D03*
X497310D02*
D03*
Y1308298D02*
D03*
Y1312298D02*
D03*
Y1316298D02*
D03*
D92*
X482810Y2296797D02*
D03*
X486810D02*
D03*
X490810D02*
D03*
X494810D02*
D03*
Y2323797D02*
D03*
X490810D02*
D03*
X486810D02*
D03*
X482810D02*
D03*
X2957190Y1172903D02*
D03*
X2953190D02*
D03*
X2949190D02*
D03*
X2945190D02*
D03*
Y1145902D02*
D03*
X2949190D02*
D03*
X2953190D02*
D03*
X2957190D02*
D03*
Y2146203D02*
D03*
X2953190D02*
D03*
X2949190D02*
D03*
X2945190D02*
D03*
Y2173203D02*
D03*
X2949190D02*
D03*
X2953190D02*
D03*
X2957190D02*
D03*
X482810Y1296798D02*
D03*
X486810D02*
D03*
X490810D02*
D03*
X494810D02*
D03*
Y1323798D02*
D03*
X490810D02*
D03*
X486810D02*
D03*
X482810D02*
D03*
D93*
X2927615Y1211377D02*
D03*
X2962615D02*
D03*
Y2211678D02*
D03*
X2927615D02*
D03*
X477385Y2258322D02*
D03*
X512385D02*
D03*
X477385Y1258323D02*
D03*
X512385D02*
D03*
D94*
X1802449Y2694700D02*
D03*
Y2682000D02*
D03*
X1789749Y2694700D02*
D03*
X1777049D02*
D03*
Y2682000D02*
D03*
X1789749D02*
D03*
D95*
X485000Y485000D02*
D03*
X2955000D02*
D03*
X485000Y2955000D02*
D03*
X2955000D02*
D03*
D96*
X494500Y478500D02*
D03*
Y485000D02*
D03*
Y491500D02*
D03*
X475500Y478450D02*
D03*
Y485000D02*
D03*
Y492500D02*
D03*
X2964500Y478500D02*
D03*
Y485000D02*
D03*
Y491500D02*
D03*
X2945500Y478450D02*
D03*
Y485000D02*
D03*
Y491500D02*
D03*
X494500Y2948500D02*
D03*
Y2955000D02*
D03*
Y2961500D02*
D03*
X475500Y2948450D02*
D03*
Y2955000D02*
D03*
Y2961500D02*
D03*
X2964500Y2948500D02*
D03*
Y2955000D02*
D03*
Y2961500D02*
D03*
X2945500Y2948450D02*
D03*
Y2955000D02*
D03*
Y2961500D02*
D03*
D97*
X1720000Y2546164D02*
D03*
Y2566864D02*
D03*
D98*
X1731450Y2550514D02*
D03*
X1708550D02*
D03*
X1731450Y2562514D02*
D03*
X1708550D02*
D03*
D99*
X1715800Y2519348D02*
D03*
X1724200D02*
D03*
D100*
X1713500Y2532002D02*
D03*
X1726500D02*
D03*
D101*
X1766133Y2652839D02*
D03*
Y2647839D02*
D03*
Y2642839D02*
D03*
X1796133Y2657839D02*
D03*
Y2652839D02*
D03*
Y2647839D02*
D03*
Y2642839D02*
D03*
X1766133Y2657839D02*
D03*
D102*
X1781133Y2650339D02*
D03*
D103*
X1790054Y2586886D02*
D03*
Y2620386D02*
D03*
X1804554D02*
D03*
Y2586886D02*
D03*
D104*
X1686425Y2547366D02*
D03*
X1682525Y2554121D02*
D03*
D105*
X1752929Y2545956D02*
D03*
X1756829Y2552711D02*
D03*
D106*
X1655629Y2563436D02*
D03*
X1644371Y2556936D02*
D03*
D107*
X1781279Y2566685D02*
D03*
X1792537Y2560186D02*
D03*
D108*
X195350Y3321900D02*
D03*
X234650Y3398100D02*
D03*
Y3347300D02*
D03*
X195350Y3372700D02*
D03*
X3239650Y3398100D02*
D03*
X3200350Y3321900D02*
D03*
Y3372700D02*
D03*
X3239650Y3347300D02*
D03*
D109*
X1693500Y3319725D02*
D03*
Y3313375D02*
D03*
Y3307025D02*
D03*
Y3300675D02*
D03*
Y3294325D02*
D03*
Y3287975D02*
D03*
Y3281625D02*
D03*
Y3275275D02*
D03*
X1746500Y3319725D02*
D03*
Y3313375D02*
D03*
Y3307025D02*
D03*
Y3300675D02*
D03*
Y3294325D02*
D03*
Y3287975D02*
D03*
Y3281625D02*
D03*
Y3275275D02*
D03*
D110*
X1660990Y3268600D02*
D03*
Y3276400D02*
D03*
Y3293843D02*
D03*
Y3286043D02*
D03*
D111*
X3535000Y69000D02*
D03*
X3505000D02*
D03*
X3535000Y131000D02*
D03*
X3505000D02*
D03*
D112*
X1732750Y3052224D02*
D03*
X1728750D02*
D03*
X1732750Y3056224D02*
D03*
X1728750D02*
D03*
D113*
X3347500Y-5000D02*
D03*
X3232500D02*
D03*
D114*
X1189500Y2472250D02*
D03*
X1184500D02*
D03*
X1179500D02*
D03*
X1174500D02*
D03*
X1209500D02*
D03*
X1204500D02*
D03*
X1199500D02*
D03*
X1194500D02*
D03*
X1169500D02*
D03*
X1164500D02*
D03*
X1159500D02*
D03*
X1154500D02*
D03*
X1149500D02*
D03*
X1144500D02*
D03*
X1139500D02*
D03*
X1134500D02*
D03*
X1129500D02*
D03*
X1124500D02*
D03*
X1119500D02*
D03*
X1114500D02*
D03*
X1109500D02*
D03*
X1104500D02*
D03*
X1079500D02*
D03*
X1074500D02*
D03*
X1069500D02*
D03*
X1064500D02*
D03*
X1059500D02*
D03*
X1054500D02*
D03*
X1049500D02*
D03*
X1044500D02*
D03*
X1039500D02*
D03*
X1034500D02*
D03*
X1029500D02*
D03*
X1027000Y2547750D02*
D03*
X1032000D02*
D03*
X1037000D02*
D03*
X1042000D02*
D03*
X1047000D02*
D03*
X1052000D02*
D03*
X1057000D02*
D03*
X1062000D02*
D03*
X1067000D02*
D03*
X1072000D02*
D03*
X1077000D02*
D03*
X1082000D02*
D03*
X1107000D02*
D03*
X1112000D02*
D03*
X1117000D02*
D03*
X1122000D02*
D03*
X1127000D02*
D03*
X1132000D02*
D03*
X1137000D02*
D03*
X1142000D02*
D03*
X1147000D02*
D03*
X1152000D02*
D03*
X1157000D02*
D03*
X1162000D02*
D03*
X1167000D02*
D03*
X1192000D02*
D03*
X1197000D02*
D03*
X1202000D02*
D03*
X1207000D02*
D03*
X1212000D02*
D03*
X1172000D02*
D03*
X1177000D02*
D03*
X1182000D02*
D03*
X1187000D02*
D03*
D115*
X1223000Y2540000D02*
D03*
X1016000D02*
D03*
D116*
X1269962Y2510000D02*
D03*
D117*
X620000Y370000D02*
D03*
X620000Y1370000D02*
D03*
X620000Y2370000D02*
D03*
X720000Y2470000D02*
D03*
X2820000Y1370000D02*
D03*
Y370000D02*
D03*
X2720000Y270000D02*
D03*
X1720000D02*
D03*
X720000D02*
D03*
X2720000Y2470000D02*
D03*
X2820000Y2370000D02*
D03*
X970000Y1070000D02*
D03*
X970000Y1720000D02*
D03*
X970000Y2370000D02*
D03*
X2370000Y970000D02*
D03*
X1720000D02*
D03*
X1070000D02*
D03*
X2470000Y2368769D02*
D03*
Y1720000D02*
D03*
Y1070000D02*
D03*
X1720000Y2470000D02*
D03*
X2370000D02*
D03*
D118*
X1815149Y2688350D02*
D03*
X1764349Y2698510D02*
D03*
Y2678190D02*
D03*
D119*
X3400000Y1720000D02*
D03*
X930087Y930000D02*
D03*
X40000Y40000D02*
D03*
X930000Y2510000D02*
D03*
X1395087D02*
D03*
X2045087D02*
D03*
X2510000D02*
D03*
Y2045000D02*
D03*
Y1395000D02*
D03*
X2510000Y930000D02*
D03*
X2045087Y930000D02*
D03*
X1395087Y930000D02*
D03*
X930000Y1395000D02*
D03*
X930000Y2045000D02*
D03*
X40000Y1720000D02*
D03*
X1720000Y40000D02*
D03*
X3400000D02*
D03*
Y3400000D02*
D03*
X1720000D02*
D03*
X40000D02*
D03*
D120*
X3549999Y2807501D02*
D03*
Y2842501D02*
D03*
Y2877501D02*
D03*
Y2912501D02*
D03*
Y2947501D02*
D03*
Y2982501D02*
D03*
Y3017501D02*
D03*
Y3052501D02*
D03*
Y3087501D02*
D03*
Y3122501D02*
D03*
Y3157501D02*
D03*
Y3192501D02*
D03*
D121*
X1019500Y2495000D02*
D03*
D122*
X1219500D02*
D03*
M02*
