G04*
G04 #@! TF.GenerationSoftware,Altium Limited,Altium NEXUS,5.8.2 (18)*
G04*
G04 Layer_Color=16711935*
%FSLAX44Y44*%
%MOMM*%
G71*
G04*
G04 #@! TF.SameCoordinates,7010C59B-F468-4F27-83F9-F03C6C8D88C1*
G04*
G04*
G04 #@! TF.FilePolarity,Negative*
G04*
G01*
G75*
%ADD72C,1.9000*%
%ADD117C,5.4000*%
%ADD118C,0.6080*%
%ADD119C,3.3000*%
%ADD120C,2.6000*%
%ADD121C,1.1000*%
%ADD122C,1.6000*%
D72*
X629500Y370000D02*
G03*
X629500Y370000I-9500J0D01*
G01*
X629500Y1370000D02*
G03*
X629500Y1370000I-9500J0D01*
G01*
X629500Y2370000D02*
G03*
X629500Y2370000I-9500J0D01*
G01*
X729500Y2470000D02*
G03*
X729500Y2470000I-9500J0D01*
G01*
X2829500Y1370000D02*
G03*
X2829500Y1370000I-9500J0D01*
G01*
Y370000D02*
G03*
X2829500Y370000I-9500J0D01*
G01*
X2729500Y270000D02*
G03*
X2729500Y270000I-9500J0D01*
G01*
X1729500D02*
G03*
X1729500Y270000I-9500J0D01*
G01*
X729500D02*
G03*
X729500Y270000I-9500J0D01*
G01*
X2729500Y2470000D02*
G03*
X2729500Y2470000I-9500J0D01*
G01*
X2829500Y2370000D02*
G03*
X2829500Y2370000I-9500J0D01*
G01*
X979500Y1070000D02*
G03*
X979500Y1070000I-9500J0D01*
G01*
X979500Y1720000D02*
G03*
X979500Y1720000I-9500J0D01*
G01*
X979500Y2370000D02*
G03*
X979500Y2370000I-9500J0D01*
G01*
X2379500Y970000D02*
G03*
X2379500Y970000I-9500J0D01*
G01*
X1729500D02*
G03*
X1729500Y970000I-9500J0D01*
G01*
X1079500D02*
G03*
X1079500Y970000I-9500J0D01*
G01*
X2479500Y2368769D02*
G03*
X2479500Y2368769I-9500J0D01*
G01*
Y1720000D02*
G03*
X2479500Y1720000I-9500J0D01*
G01*
Y1070000D02*
G03*
X2479500Y1070000I-9500J0D01*
G01*
X1729500Y2470000D02*
G03*
X1729500Y2470000I-9500J0D01*
G01*
X2379500D02*
G03*
X2379500Y2470000I-9500J0D01*
G01*
D117*
X620000Y370000D02*
D03*
X620000Y1370000D02*
D03*
X620000Y2370000D02*
D03*
X720000Y2470000D02*
D03*
X2820000Y1370000D02*
D03*
Y370000D02*
D03*
X2720000Y270000D02*
D03*
X1720000D02*
D03*
X720000D02*
D03*
X2720000Y2470000D02*
D03*
X2820000Y2370000D02*
D03*
X970000Y1070000D02*
D03*
X970000Y1720000D02*
D03*
X970000Y2370000D02*
D03*
X2370000Y970000D02*
D03*
X1720000D02*
D03*
X1070000D02*
D03*
X2470000Y2368769D02*
D03*
Y1720000D02*
D03*
Y1070000D02*
D03*
X1720000Y2470000D02*
D03*
X2370000D02*
D03*
D118*
X1815149Y2688350D02*
D03*
X1764349Y2698510D02*
D03*
Y2678190D02*
D03*
D119*
X3400000Y1720000D02*
D03*
X930087Y930000D02*
D03*
X40000Y40000D02*
D03*
X930000Y2510000D02*
D03*
X1395087D02*
D03*
X2045087D02*
D03*
X2510000D02*
D03*
Y2045000D02*
D03*
Y1395000D02*
D03*
X2510000Y930000D02*
D03*
X2045087Y930000D02*
D03*
X1395087Y930000D02*
D03*
X930000Y1395000D02*
D03*
X930000Y2045000D02*
D03*
X40000Y1720000D02*
D03*
X1720000Y40000D02*
D03*
X3400000D02*
D03*
Y3400000D02*
D03*
X1720000D02*
D03*
X40000D02*
D03*
D120*
X3549999Y2807501D02*
D03*
Y2842501D02*
D03*
Y2877501D02*
D03*
Y2912501D02*
D03*
Y2947501D02*
D03*
Y2982501D02*
D03*
Y3017501D02*
D03*
Y3052501D02*
D03*
Y3087501D02*
D03*
Y3122501D02*
D03*
Y3157501D02*
D03*
Y3192501D02*
D03*
D121*
X1019500Y2495000D02*
D03*
D122*
X1219500D02*
D03*
M02*
