G04*
G04 #@! TF.GenerationSoftware,Altium Limited,Altium NEXUS,5.8.2 (18)*
G04*
G04 Layer_Color=32896*
%FSLAX44Y44*%
%MOMM*%
G71*
G04*
G04 #@! TF.SameCoordinates,C1470836-D727-4164-8CC3-3A288218422B*
G04*
G04*
G04 #@! TF.FilePolarity,Positive*
G04*
G01*
G75*
%ADD11C,0.2500*%
G36*
X778708Y43183D02*
X778936Y43158D01*
X779139Y43132D01*
X779317Y43094D01*
X779495Y43043D01*
X779647Y43005D01*
X779787Y42954D01*
X779901Y42904D01*
X780016Y42866D01*
X780105Y42815D01*
X780181Y42777D01*
X780232Y42751D01*
X780270Y42726D01*
X780295Y42700D01*
X780308D01*
X780549Y42497D01*
X780752Y42256D01*
X780930Y42002D01*
X781057Y41748D01*
X781159Y41532D01*
X781197Y41430D01*
X781235Y41342D01*
X781260Y41278D01*
X781273Y41227D01*
X781286Y41189D01*
Y41176D01*
X779597Y40872D01*
X779533Y41049D01*
X779457Y41189D01*
X779381Y41316D01*
X779317Y41405D01*
X779254Y41481D01*
X779203Y41532D01*
X779165Y41557D01*
X779152Y41570D01*
X779038Y41634D01*
X778911Y41684D01*
X778784Y41722D01*
X778657Y41748D01*
X778542Y41761D01*
X778454Y41773D01*
X778365D01*
X778111Y41761D01*
X777895Y41735D01*
X777717Y41697D01*
X777590Y41659D01*
X777488Y41608D01*
X777412Y41570D01*
X777374Y41545D01*
X777361Y41532D01*
X777272Y41430D01*
X777196Y41316D01*
X777145Y41189D01*
X777120Y41049D01*
X777095Y40935D01*
X777082Y40834D01*
Y40770D01*
Y40757D01*
Y40745D01*
Y40567D01*
X777184Y40529D01*
X777311Y40491D01*
X777438Y40440D01*
X777577Y40402D01*
X777882Y40325D01*
X778187Y40249D01*
X778466Y40186D01*
X778593Y40160D01*
X778695Y40135D01*
X778784Y40122D01*
X778847Y40110D01*
X778898Y40097D01*
X778911D01*
X779254Y40033D01*
X779546Y39957D01*
X779800Y39881D01*
X780016Y39818D01*
X780181Y39754D01*
X780295Y39703D01*
X780371Y39678D01*
X780397Y39665D01*
X780574Y39564D01*
X780740Y39449D01*
X780867Y39335D01*
X780981Y39221D01*
X781083Y39119D01*
X781146Y39030D01*
X781184Y38979D01*
X781197Y38954D01*
X781286Y38776D01*
X781362Y38586D01*
X781413Y38408D01*
X781438Y38243D01*
X781463Y38103D01*
X781476Y37989D01*
Y37912D01*
Y37900D01*
Y37887D01*
X781463Y37722D01*
X781451Y37570D01*
X781375Y37278D01*
X781273Y37011D01*
X781159Y36795D01*
X781044Y36630D01*
X780956Y36490D01*
X780905Y36452D01*
X780879Y36414D01*
X780867Y36401D01*
X780854Y36388D01*
X780727Y36287D01*
X780600Y36198D01*
X780321Y36046D01*
X780028Y35944D01*
X779749Y35880D01*
X779508Y35830D01*
X779393Y35817D01*
X779305D01*
X779228Y35804D01*
X779127D01*
X778898Y35817D01*
X778682Y35842D01*
X778492Y35880D01*
X778314Y35919D01*
X778174Y35957D01*
X778060Y35995D01*
X777996Y36020D01*
X777971Y36033D01*
X777768Y36135D01*
X777577Y36236D01*
X777400Y36350D01*
X777247Y36465D01*
X777120Y36566D01*
X777031Y36655D01*
X776968Y36706D01*
X776942Y36731D01*
X776917Y36681D01*
X776904Y36604D01*
X776879Y36541D01*
Y36528D01*
Y36516D01*
X776841Y36388D01*
X776803Y36274D01*
X776765Y36185D01*
X776739Y36109D01*
X776714Y36046D01*
X776701Y36007D01*
X776688Y35982D01*
Y35969D01*
X774834D01*
X774923Y36147D01*
X774999Y36325D01*
X775050Y36490D01*
X775101Y36630D01*
X775139Y36744D01*
X775164Y36833D01*
X775177Y36884D01*
Y36909D01*
X775202Y37100D01*
X775228Y37316D01*
X775240Y37544D01*
X775253Y37773D01*
X775266Y37976D01*
Y38065D01*
Y38141D01*
Y38205D01*
Y38255D01*
Y38281D01*
Y38293D01*
X775240Y40478D01*
Y40694D01*
X775253Y40897D01*
X775266Y41087D01*
X775279Y41253D01*
X775304Y41405D01*
X775317Y41545D01*
X775342Y41672D01*
X775368Y41773D01*
X775393Y41862D01*
X775418Y41951D01*
X775431Y42015D01*
X775456Y42065D01*
X775482Y42129D01*
X775495Y42154D01*
X775609Y42319D01*
X775736Y42459D01*
X775875Y42599D01*
X776015Y42700D01*
X776155Y42789D01*
X776256Y42853D01*
X776333Y42891D01*
X776345Y42904D01*
X776358D01*
X776485Y42954D01*
X776612Y43005D01*
X776904Y43081D01*
X777222Y43132D01*
X777514Y43170D01*
X777666Y43183D01*
X777793Y43196D01*
X777920D01*
X778022Y43208D01*
X778479D01*
X778708Y43183D01*
D02*
G37*
G36*
X847580Y45901D02*
X847935Y45850D01*
X848278Y45787D01*
X848596Y45698D01*
X848888Y45596D01*
X849155Y45482D01*
X849408Y45367D01*
X849624Y45241D01*
X849828Y45114D01*
X850005Y44987D01*
X850158Y44872D01*
X850285Y44771D01*
X850386Y44682D01*
X850450Y44618D01*
X850501Y44567D01*
X850513Y44555D01*
X850729Y44288D01*
X850932Y44009D01*
X851098Y43704D01*
X851237Y43399D01*
X851364Y43081D01*
X851466Y42764D01*
X851542Y42459D01*
X851618Y42154D01*
X851669Y41875D01*
X851707Y41608D01*
X851733Y41380D01*
X851745Y41177D01*
X851758Y40999D01*
X851771Y40872D01*
Y40834D01*
Y40795D01*
Y40783D01*
Y40770D01*
X851758Y40351D01*
X851720Y39945D01*
X851656Y39576D01*
X851580Y39221D01*
X851479Y38903D01*
X851377Y38598D01*
X851263Y38332D01*
X851148Y38078D01*
X851034Y37862D01*
X850920Y37671D01*
X850818Y37506D01*
X850717Y37366D01*
X850640Y37265D01*
X850577Y37189D01*
X850539Y37138D01*
X850526Y37125D01*
X850285Y36897D01*
X850031Y36693D01*
X849764Y36516D01*
X849497Y36363D01*
X849231Y36236D01*
X848964Y36122D01*
X848697Y36046D01*
X848456Y35970D01*
X848215Y35919D01*
X848011Y35881D01*
X847808Y35842D01*
X847643Y35830D01*
X847516Y35817D01*
X847415Y35804D01*
X847326D01*
X847034Y35817D01*
X846767Y35842D01*
X846500Y35881D01*
X846259Y35931D01*
X846030Y35982D01*
X845814Y36046D01*
X845611Y36122D01*
X845433Y36198D01*
X845281Y36262D01*
X845141Y36338D01*
X845014Y36401D01*
X844913Y36465D01*
X844837Y36503D01*
X844786Y36541D01*
X844748Y36566D01*
X844735Y36579D01*
X844544Y36732D01*
X844379Y36909D01*
X844214Y37087D01*
X844074Y37290D01*
X843935Y37481D01*
X843820Y37684D01*
X843617Y38078D01*
X843528Y38256D01*
X843452Y38433D01*
X843401Y38586D01*
X843351Y38713D01*
X843313Y38827D01*
X843287Y38903D01*
X843262Y38967D01*
Y38979D01*
X845179Y39576D01*
X845230Y39386D01*
X845294Y39195D01*
X845344Y39030D01*
X845421Y38878D01*
X845484Y38725D01*
X845548Y38598D01*
X845624Y38484D01*
X845687Y38382D01*
X845814Y38205D01*
X845916Y38090D01*
X845980Y38014D01*
X845992Y38001D01*
X846005Y37989D01*
X846221Y37824D01*
X846449Y37697D01*
X846678Y37620D01*
X846881Y37557D01*
X847072Y37519D01*
X847224Y37506D01*
X847275Y37494D01*
X847351D01*
X847542Y37506D01*
X847732Y37532D01*
X847910Y37570D01*
X848075Y37620D01*
X848367Y37735D01*
X848608Y37887D01*
X848723Y37951D01*
X848812Y38027D01*
X848888Y38090D01*
X848964Y38154D01*
X849015Y38192D01*
X849053Y38230D01*
X849066Y38256D01*
X849078Y38268D01*
X849193Y38433D01*
X849294Y38611D01*
X849383Y38802D01*
X849459Y39018D01*
X849574Y39449D01*
X849650Y39881D01*
X849688Y40084D01*
X849701Y40287D01*
X849713Y40453D01*
X849726Y40605D01*
X849739Y40732D01*
Y40834D01*
Y40884D01*
Y40910D01*
X849726Y41227D01*
X849713Y41519D01*
X849675Y41799D01*
X849637Y42040D01*
X849586Y42269D01*
X849523Y42485D01*
X849459Y42662D01*
X849396Y42828D01*
X849345Y42980D01*
X849281Y43094D01*
X849218Y43208D01*
X849167Y43285D01*
X849129Y43348D01*
X849091Y43399D01*
X849078Y43424D01*
X849066Y43437D01*
X848939Y43577D01*
X848799Y43691D01*
X848659Y43805D01*
X848507Y43894D01*
X848354Y43970D01*
X848215Y44034D01*
X847935Y44123D01*
X847694Y44186D01*
X847580Y44199D01*
X847491Y44212D01*
X847415Y44225D01*
X847313D01*
X847034Y44212D01*
X846767Y44161D01*
X846538Y44085D01*
X846348Y44009D01*
X846195Y43920D01*
X846081Y43856D01*
X846005Y43805D01*
X845980Y43780D01*
X845789Y43602D01*
X845624Y43412D01*
X845497Y43208D01*
X845395Y43018D01*
X845332Y42853D01*
X845281Y42713D01*
X845268Y42662D01*
X845256Y42624D01*
X845243Y42599D01*
Y42586D01*
X843287Y43056D01*
X843351Y43272D01*
X843427Y43475D01*
X843503Y43653D01*
X843592Y43831D01*
X843668Y43996D01*
X843757Y44136D01*
X843833Y44275D01*
X843922Y44390D01*
X843998Y44491D01*
X844062Y44593D01*
X844125Y44669D01*
X844176Y44732D01*
X844227Y44783D01*
X844265Y44821D01*
X844278Y44834D01*
X844290Y44847D01*
X844506Y45037D01*
X844735Y45202D01*
X844976Y45342D01*
X845218Y45469D01*
X845459Y45571D01*
X845700Y45660D01*
X845941Y45723D01*
X846170Y45787D01*
X846386Y45825D01*
X846576Y45863D01*
X846754Y45876D01*
X846907Y45901D01*
X847034D01*
X847135Y45914D01*
X847211D01*
X847580Y45901D01*
D02*
G37*
G36*
X824834Y44453D02*
Y43043D01*
X825698D01*
Y41557D01*
X824834D01*
Y38459D01*
Y38281D01*
Y38116D01*
Y37963D01*
X824821Y37836D01*
Y37709D01*
Y37608D01*
X824809Y37430D01*
X824796Y37290D01*
Y37201D01*
X824783Y37151D01*
Y37138D01*
X824745Y36973D01*
X824707Y36833D01*
X824669Y36706D01*
X824618Y36604D01*
X824580Y36516D01*
X824542Y36452D01*
X824529Y36414D01*
X824517Y36401D01*
X824440Y36312D01*
X824339Y36223D01*
X824148Y36084D01*
X824059Y36033D01*
X823983Y35995D01*
X823932Y35982D01*
X823920Y35970D01*
X823767Y35919D01*
X823602Y35881D01*
X823450Y35842D01*
X823310Y35830D01*
X823196Y35817D01*
X823107Y35804D01*
X823018D01*
X822713Y35817D01*
X822434Y35842D01*
X822180Y35893D01*
X821964Y35944D01*
X821786Y35982D01*
X821646Y36033D01*
X821596Y36046D01*
X821557Y36058D01*
X821545Y36071D01*
X821532D01*
X821697Y37532D01*
X821875Y37468D01*
X822027Y37430D01*
X822154Y37392D01*
X822256Y37379D01*
X822345Y37366D01*
X822396Y37354D01*
X822446D01*
X822573Y37366D01*
X822688Y37405D01*
X822751Y37430D01*
X822764Y37443D01*
X822777D01*
X822853Y37519D01*
X822904Y37595D01*
X822929Y37646D01*
X822942Y37671D01*
Y37709D01*
X822954Y37760D01*
Y37900D01*
Y38065D01*
X822967Y38243D01*
Y38408D01*
Y38548D01*
Y38611D01*
Y38649D01*
Y38675D01*
Y38687D01*
Y41557D01*
X821684D01*
Y43043D01*
X822967D01*
Y45558D01*
X824834Y44453D01*
D02*
G37*
G36*
X874085Y44085D02*
X871189D01*
Y35970D01*
X869221D01*
Y44085D01*
X866338D01*
Y45736D01*
X874085D01*
Y44085D01*
D02*
G37*
G36*
X865055Y35970D02*
X861397D01*
X861093Y35982D01*
X860572D01*
X860356Y35995D01*
X859988D01*
X859848Y36008D01*
X859721D01*
X859619Y36020D01*
X859467D01*
X859416Y36033D01*
X859365D01*
X859086Y36084D01*
X858832Y36147D01*
X858603Y36211D01*
X858413Y36300D01*
X858260Y36363D01*
X858133Y36427D01*
X858070Y36477D01*
X858045Y36490D01*
X857854Y36643D01*
X857676Y36808D01*
X857536Y36973D01*
X857410Y37138D01*
X857321Y37278D01*
X857244Y37392D01*
X857206Y37468D01*
X857194Y37481D01*
Y37494D01*
X857092Y37735D01*
X857016Y37963D01*
X856952Y38179D01*
X856914Y38382D01*
X856889Y38548D01*
X856876Y38675D01*
Y38725D01*
Y38763D01*
Y38776D01*
Y38789D01*
X856901Y39094D01*
X856952Y39373D01*
X857029Y39627D01*
X857117Y39843D01*
X857206Y40021D01*
X857282Y40148D01*
X857308Y40199D01*
X857333Y40237D01*
X857359Y40249D01*
Y40262D01*
X857562Y40478D01*
X857778Y40669D01*
X858006Y40821D01*
X858222Y40935D01*
X858426Y41037D01*
X858514Y41075D01*
X858578Y41100D01*
X858641Y41126D01*
X858692Y41138D01*
X858718Y41151D01*
X858730D01*
X858502Y41278D01*
X858311Y41405D01*
X858133Y41557D01*
X857994Y41697D01*
X857879Y41824D01*
X857791Y41926D01*
X857740Y41989D01*
X857727Y42015D01*
X857600Y42231D01*
X857511Y42446D01*
X857448Y42662D01*
X857410Y42853D01*
X857371Y43031D01*
X857359Y43158D01*
Y43208D01*
Y43247D01*
Y43259D01*
Y43272D01*
X857371Y43501D01*
X857410Y43717D01*
X857460Y43907D01*
X857511Y44085D01*
X857562Y44225D01*
X857613Y44326D01*
X857651Y44390D01*
X857663Y44415D01*
X857778Y44593D01*
X857905Y44758D01*
X858032Y44898D01*
X858146Y45012D01*
X858260Y45101D01*
X858337Y45177D01*
X858387Y45215D01*
X858413Y45228D01*
X858578Y45329D01*
X858756Y45418D01*
X858933Y45494D01*
X859086Y45545D01*
X859226Y45583D01*
X859327Y45609D01*
X859403Y45634D01*
X859429D01*
X859543Y45647D01*
X859670Y45672D01*
X859937Y45698D01*
X860229Y45710D01*
X860508Y45723D01*
X860762Y45736D01*
X865055D01*
Y35970D01*
D02*
G37*
G36*
X829457Y43196D02*
X829711Y43158D01*
X829939Y43094D01*
X830168Y43018D01*
X830371Y42929D01*
X830562Y42828D01*
X830740Y42713D01*
X830905Y42612D01*
X831044Y42497D01*
X831171Y42383D01*
X831286Y42281D01*
X831375Y42193D01*
X831451Y42116D01*
X831501Y42053D01*
X831527Y42015D01*
X831540Y42002D01*
Y43043D01*
X833279D01*
Y35970D01*
X831413D01*
Y39170D01*
Y39386D01*
X831400Y39576D01*
Y39754D01*
X831387Y39919D01*
X831375Y40072D01*
X831362Y40199D01*
X831349Y40326D01*
X831336Y40427D01*
X831324Y40516D01*
X831311Y40592D01*
Y40656D01*
X831298Y40707D01*
X831273Y40770D01*
Y40795D01*
X831209Y40948D01*
X831133Y41100D01*
X831044Y41215D01*
X830955Y41316D01*
X830866Y41405D01*
X830803Y41456D01*
X830752Y41494D01*
X830740Y41507D01*
X830587Y41596D01*
X830435Y41659D01*
X830295Y41710D01*
X830155Y41735D01*
X830041Y41761D01*
X829939Y41773D01*
X829863D01*
X829724Y41761D01*
X829596Y41748D01*
X829482Y41710D01*
X829381Y41684D01*
X829304Y41646D01*
X829254Y41608D01*
X829215Y41596D01*
X829203Y41583D01*
X829114Y41507D01*
X829025Y41418D01*
X828961Y41329D01*
X828911Y41240D01*
X828860Y41164D01*
X828835Y41100D01*
X828809Y41062D01*
Y41049D01*
X828784Y40973D01*
X828771Y40897D01*
X828746Y40795D01*
X828733Y40681D01*
X828708Y40440D01*
X828695Y40186D01*
X828682Y39957D01*
Y39856D01*
Y39767D01*
Y39691D01*
Y39627D01*
Y39589D01*
Y39576D01*
Y35970D01*
X826815D01*
Y40364D01*
Y40656D01*
X826828Y40910D01*
X826853Y41113D01*
X826866Y41304D01*
X826891Y41443D01*
X826917Y41545D01*
X826929Y41596D01*
Y41621D01*
X826980Y41786D01*
X827031Y41926D01*
X827095Y42066D01*
X827145Y42180D01*
X827209Y42281D01*
X827260Y42345D01*
X827285Y42396D01*
X827298Y42408D01*
X827399Y42535D01*
X827526Y42637D01*
X827653Y42739D01*
X827780Y42828D01*
X827895Y42891D01*
X827984Y42942D01*
X828047Y42967D01*
X828073Y42980D01*
X828263Y43056D01*
X828466Y43107D01*
X828657Y43158D01*
X828822Y43183D01*
X828974Y43196D01*
X829101Y43208D01*
X829203D01*
X829457Y43196D01*
D02*
G37*
G36*
X817278D02*
X817430Y43170D01*
X817557Y43132D01*
X817684Y43094D01*
X817773Y43043D01*
X817849Y43005D01*
X817900Y42980D01*
X817913Y42967D01*
X818052Y42866D01*
X818192Y42726D01*
X818319Y42573D01*
X818446Y42408D01*
X818548Y42269D01*
X818636Y42142D01*
X818674Y42091D01*
X818687Y42053D01*
X818713Y42040D01*
Y43043D01*
X820452D01*
Y35970D01*
X818586D01*
Y38154D01*
Y38484D01*
X818573Y38776D01*
Y39043D01*
X818560Y39284D01*
X818548Y39500D01*
X818535Y39691D01*
X818522Y39868D01*
X818509Y40008D01*
X818497Y40135D01*
X818484Y40249D01*
X818471Y40326D01*
X818459Y40402D01*
X818446Y40453D01*
X818433Y40491D01*
Y40516D01*
X818370Y40719D01*
X818306Y40884D01*
X818230Y41011D01*
X818167Y41126D01*
X818103Y41202D01*
X818052Y41265D01*
X818027Y41291D01*
X818014Y41304D01*
X817900Y41380D01*
X817785Y41431D01*
X817671Y41481D01*
X817570Y41507D01*
X817468Y41519D01*
X817392Y41532D01*
X817328D01*
X817176Y41519D01*
X817023Y41481D01*
X816871Y41431D01*
X816731Y41380D01*
X816617Y41316D01*
X816528Y41265D01*
X816477Y41227D01*
X816452Y41215D01*
X815868Y42853D01*
X816096Y42967D01*
X816312Y43056D01*
X816528Y43120D01*
X816719Y43170D01*
X816871Y43196D01*
X816998Y43208D01*
X817112D01*
X817278Y43196D01*
D02*
G37*
G36*
X806737Y35969D02*
X804870D01*
Y45736D01*
X806737D01*
Y35969D01*
D02*
G37*
G36*
X799142D02*
X795484D01*
X795180Y35982D01*
X794659D01*
X794443Y35995D01*
X794075D01*
X793935Y36007D01*
X793808D01*
X793706Y36020D01*
X793554D01*
X793503Y36033D01*
X793452D01*
X793173Y36084D01*
X792919Y36147D01*
X792690Y36211D01*
X792500Y36300D01*
X792347Y36363D01*
X792220Y36427D01*
X792157Y36477D01*
X792132Y36490D01*
X791941Y36642D01*
X791763Y36808D01*
X791624Y36973D01*
X791497Y37138D01*
X791408Y37278D01*
X791331Y37392D01*
X791293Y37468D01*
X791281Y37481D01*
Y37493D01*
X791179Y37735D01*
X791103Y37963D01*
X791039Y38179D01*
X791001Y38382D01*
X790976Y38547D01*
X790963Y38674D01*
Y38725D01*
Y38763D01*
Y38776D01*
Y38789D01*
X790988Y39094D01*
X791039Y39373D01*
X791115Y39627D01*
X791204Y39843D01*
X791293Y40021D01*
X791369Y40148D01*
X791395Y40198D01*
X791420Y40237D01*
X791446Y40249D01*
Y40262D01*
X791649Y40478D01*
X791865Y40668D01*
X792093Y40821D01*
X792309Y40935D01*
X792513Y41037D01*
X792601Y41075D01*
X792665Y41100D01*
X792728Y41126D01*
X792779Y41138D01*
X792805Y41151D01*
X792817D01*
X792589Y41278D01*
X792398Y41405D01*
X792220Y41557D01*
X792081Y41697D01*
X791966Y41824D01*
X791878Y41926D01*
X791827Y41989D01*
X791814Y42015D01*
X791687Y42231D01*
X791598Y42446D01*
X791535Y42662D01*
X791497Y42853D01*
X791458Y43031D01*
X791446Y43158D01*
Y43208D01*
Y43246D01*
Y43259D01*
Y43272D01*
X791458Y43500D01*
X791497Y43716D01*
X791547Y43907D01*
X791598Y44085D01*
X791649Y44224D01*
X791700Y44326D01*
X791738Y44390D01*
X791750Y44415D01*
X791865Y44593D01*
X791992Y44758D01*
X792119Y44897D01*
X792233Y45012D01*
X792347Y45101D01*
X792424Y45177D01*
X792474Y45215D01*
X792500Y45228D01*
X792665Y45329D01*
X792843Y45418D01*
X793020Y45494D01*
X793173Y45545D01*
X793313Y45583D01*
X793414Y45609D01*
X793490Y45634D01*
X793516D01*
X793630Y45647D01*
X793757Y45672D01*
X794024Y45698D01*
X794316Y45710D01*
X794595Y45723D01*
X794849Y45736D01*
X799142D01*
Y35969D01*
D02*
G37*
G36*
X770300Y43196D02*
X770453Y43170D01*
X770580Y43132D01*
X770707Y43094D01*
X770796Y43043D01*
X770872Y43005D01*
X770922Y42980D01*
X770935Y42967D01*
X771075Y42866D01*
X771215Y42726D01*
X771342Y42573D01*
X771469Y42408D01*
X771570Y42269D01*
X771659Y42142D01*
X771697Y42091D01*
X771710Y42053D01*
X771735Y42040D01*
Y43043D01*
X773475D01*
Y35969D01*
X771608D01*
Y38154D01*
Y38484D01*
X771596Y38776D01*
Y39043D01*
X771583Y39284D01*
X771570Y39500D01*
X771557Y39690D01*
X771545Y39868D01*
X771532Y40008D01*
X771519Y40135D01*
X771507Y40249D01*
X771494Y40325D01*
X771481Y40402D01*
X771469Y40452D01*
X771456Y40491D01*
Y40516D01*
X771392Y40719D01*
X771329Y40884D01*
X771253Y41011D01*
X771189Y41126D01*
X771126Y41202D01*
X771075Y41265D01*
X771049Y41291D01*
X771037Y41303D01*
X770922Y41380D01*
X770808Y41430D01*
X770694Y41481D01*
X770592Y41507D01*
X770491Y41519D01*
X770415Y41532D01*
X770351D01*
X770199Y41519D01*
X770046Y41481D01*
X769894Y41430D01*
X769754Y41380D01*
X769640Y41316D01*
X769551Y41265D01*
X769500Y41227D01*
X769475Y41214D01*
X768891Y42853D01*
X769119Y42967D01*
X769335Y43056D01*
X769551Y43120D01*
X769741Y43170D01*
X769894Y43196D01*
X770021Y43208D01*
X770135D01*
X770300Y43196D01*
D02*
G37*
G36*
X838766Y43183D02*
X839109Y43132D01*
X839426Y43056D01*
X839706Y42980D01*
X839833Y42929D01*
X839934Y42891D01*
X840036Y42853D01*
X840112Y42815D01*
X840176Y42777D01*
X840226Y42764D01*
X840252Y42739D01*
X840265D01*
X840557Y42548D01*
X840823Y42332D01*
X841039Y42116D01*
X841230Y41900D01*
X841369Y41710D01*
X841433Y41621D01*
X841471Y41545D01*
X841509Y41494D01*
X841535Y41443D01*
X841560Y41418D01*
Y41405D01*
X841712Y41075D01*
X841827Y40757D01*
X841903Y40453D01*
X841954Y40173D01*
X841979Y40059D01*
X841992Y39945D01*
X842004Y39843D01*
Y39767D01*
X842017Y39691D01*
Y39640D01*
Y39614D01*
Y39602D01*
X841992Y39157D01*
X841941Y38763D01*
X841916Y38586D01*
X841877Y38408D01*
X841827Y38256D01*
X841788Y38116D01*
X841750Y37976D01*
X841700Y37862D01*
X841662Y37773D01*
X841636Y37684D01*
X841598Y37620D01*
X841585Y37570D01*
X841560Y37544D01*
Y37532D01*
X841369Y37227D01*
X841153Y36973D01*
X840938Y36744D01*
X840722Y36566D01*
X840531Y36427D01*
X840442Y36363D01*
X840366Y36325D01*
X840315Y36287D01*
X840265Y36262D01*
X840239Y36236D01*
X840226D01*
X839896Y36096D01*
X839553Y35982D01*
X839249Y35906D01*
X838956Y35855D01*
X838829Y35842D01*
X838715Y35830D01*
X838614Y35817D01*
X838525D01*
X838461Y35804D01*
X838360D01*
X838067Y35817D01*
X837801Y35855D01*
X837534Y35906D01*
X837293Y35970D01*
X837064Y36046D01*
X836848Y36135D01*
X836658Y36236D01*
X836467Y36338D01*
X836315Y36427D01*
X836162Y36528D01*
X836048Y36617D01*
X835947Y36693D01*
X835858Y36757D01*
X835807Y36808D01*
X835769Y36846D01*
X835756Y36858D01*
X835578Y37062D01*
X835413Y37278D01*
X835273Y37494D01*
X835159Y37722D01*
X835058Y37951D01*
X834969Y38167D01*
X834905Y38382D01*
X834842Y38586D01*
X834803Y38776D01*
X834765Y38954D01*
X834740Y39119D01*
X834727Y39259D01*
Y39373D01*
X834715Y39449D01*
Y39513D01*
Y39525D01*
X834727Y39818D01*
X834753Y40097D01*
X834803Y40364D01*
X834880Y40605D01*
X834956Y40834D01*
X835045Y41049D01*
X835134Y41253D01*
X835223Y41431D01*
X835324Y41596D01*
X835413Y41735D01*
X835502Y41862D01*
X835578Y41964D01*
X835642Y42053D01*
X835693Y42104D01*
X835731Y42142D01*
X835743Y42154D01*
X835947Y42345D01*
X836150Y42497D01*
X836366Y42650D01*
X836594Y42764D01*
X836810Y42866D01*
X837026Y42955D01*
X837242Y43018D01*
X837445Y43081D01*
X837648Y43120D01*
X837826Y43158D01*
X837979Y43170D01*
X838118Y43196D01*
X838232D01*
X838309Y43208D01*
X838385D01*
X838766Y43183D01*
D02*
G37*
G36*
X812248Y43183D02*
X812591Y43132D01*
X812909Y43056D01*
X813188Y42980D01*
X813315Y42929D01*
X813417Y42891D01*
X813518Y42853D01*
X813595Y42815D01*
X813658Y42777D01*
X813709Y42764D01*
X813734Y42739D01*
X813747D01*
X814039Y42548D01*
X814306Y42332D01*
X814522Y42116D01*
X814712Y41900D01*
X814852Y41710D01*
X814915Y41621D01*
X814953Y41545D01*
X814992Y41494D01*
X815017Y41443D01*
X815042Y41418D01*
Y41405D01*
X815195Y41075D01*
X815309Y40757D01*
X815385Y40453D01*
X815436Y40173D01*
X815461Y40059D01*
X815474Y39945D01*
X815487Y39843D01*
Y39767D01*
X815499Y39691D01*
Y39640D01*
Y39614D01*
Y39602D01*
X815474Y39157D01*
X815423Y38763D01*
X815398Y38586D01*
X815360Y38408D01*
X815309Y38256D01*
X815271Y38116D01*
X815233Y37976D01*
X815182Y37862D01*
X815144Y37773D01*
X815118Y37684D01*
X815080Y37620D01*
X815068Y37570D01*
X815042Y37544D01*
Y37532D01*
X814852Y37227D01*
X814636Y36973D01*
X814420Y36744D01*
X814204Y36566D01*
X814014Y36427D01*
X813925Y36363D01*
X813848Y36325D01*
X813798Y36287D01*
X813747Y36262D01*
X813721Y36236D01*
X813709D01*
X813379Y36096D01*
X813036Y35982D01*
X812731Y35906D01*
X812439Y35855D01*
X812312Y35842D01*
X812197Y35830D01*
X812096Y35817D01*
X812007D01*
X811944Y35804D01*
X811842D01*
X811550Y35817D01*
X811283Y35855D01*
X811016Y35906D01*
X810775Y35969D01*
X810546Y36046D01*
X810331Y36135D01*
X810140Y36236D01*
X809950Y36338D01*
X809797Y36427D01*
X809645Y36528D01*
X809530Y36617D01*
X809429Y36693D01*
X809340Y36757D01*
X809289Y36808D01*
X809251Y36846D01*
X809238Y36858D01*
X809061Y37062D01*
X808895Y37278D01*
X808756Y37493D01*
X808642Y37722D01*
X808540Y37951D01*
X808451Y38166D01*
X808388Y38382D01*
X808324Y38586D01*
X808286Y38776D01*
X808248Y38954D01*
X808222Y39119D01*
X808210Y39259D01*
Y39373D01*
X808197Y39449D01*
Y39513D01*
Y39525D01*
X808210Y39818D01*
X808235Y40097D01*
X808286Y40364D01*
X808362Y40605D01*
X808438Y40834D01*
X808527Y41049D01*
X808616Y41253D01*
X808705Y41430D01*
X808807Y41596D01*
X808895Y41735D01*
X808984Y41862D01*
X809061Y41964D01*
X809124Y42053D01*
X809175Y42104D01*
X809213Y42142D01*
X809226Y42154D01*
X809429Y42345D01*
X809632Y42497D01*
X809848Y42650D01*
X810077Y42764D01*
X810293Y42866D01*
X810508Y42954D01*
X810724Y43018D01*
X810928Y43081D01*
X811131Y43120D01*
X811309Y43158D01*
X811461Y43170D01*
X811601Y43196D01*
X811715D01*
X811791Y43208D01*
X811867D01*
X812248Y43183D01*
D02*
G37*
G36*
X786493D02*
X786836Y43132D01*
X787153Y43056D01*
X787432Y42980D01*
X787560Y42929D01*
X787661Y42891D01*
X787763Y42853D01*
X787839Y42815D01*
X787902Y42777D01*
X787953Y42764D01*
X787979Y42738D01*
X787991D01*
X788283Y42548D01*
X788550Y42332D01*
X788766Y42116D01*
X788957Y41900D01*
X789096Y41710D01*
X789160Y41621D01*
X789198Y41545D01*
X789236Y41494D01*
X789261Y41443D01*
X789287Y41418D01*
Y41405D01*
X789439Y41075D01*
X789553Y40757D01*
X789630Y40452D01*
X789680Y40173D01*
X789706Y40059D01*
X789718Y39945D01*
X789731Y39843D01*
Y39767D01*
X789744Y39690D01*
Y39640D01*
Y39614D01*
Y39602D01*
X789718Y39157D01*
X789668Y38763D01*
X789642Y38586D01*
X789604Y38408D01*
X789553Y38255D01*
X789515Y38116D01*
X789477Y37976D01*
X789426Y37862D01*
X789388Y37773D01*
X789363Y37684D01*
X789325Y37620D01*
X789312Y37570D01*
X789287Y37544D01*
Y37531D01*
X789096Y37227D01*
X788880Y36973D01*
X788664Y36744D01*
X788448Y36566D01*
X788258Y36427D01*
X788169Y36363D01*
X788093Y36325D01*
X788042Y36287D01*
X787991Y36261D01*
X787966Y36236D01*
X787953D01*
X787623Y36096D01*
X787280Y35982D01*
X786975Y35906D01*
X786683Y35855D01*
X786556Y35842D01*
X786442Y35830D01*
X786340Y35817D01*
X786251D01*
X786188Y35804D01*
X786086D01*
X785794Y35817D01*
X785527Y35855D01*
X785261Y35906D01*
X785020Y35969D01*
X784791Y36046D01*
X784575Y36135D01*
X784385Y36236D01*
X784194Y36338D01*
X784042Y36427D01*
X783889Y36528D01*
X783775Y36617D01*
X783673Y36693D01*
X783584Y36757D01*
X783534Y36808D01*
X783495Y36846D01*
X783483Y36858D01*
X783305Y37062D01*
X783140Y37278D01*
X783000Y37493D01*
X782886Y37722D01*
X782784Y37951D01*
X782695Y38166D01*
X782632Y38382D01*
X782568Y38586D01*
X782530Y38776D01*
X782492Y38954D01*
X782467Y39119D01*
X782454Y39259D01*
Y39373D01*
X782441Y39449D01*
Y39513D01*
Y39525D01*
X782454Y39818D01*
X782479Y40097D01*
X782530Y40364D01*
X782607Y40605D01*
X782683Y40834D01*
X782772Y41049D01*
X782860Y41253D01*
X782949Y41430D01*
X783051Y41596D01*
X783140Y41735D01*
X783229Y41862D01*
X783305Y41964D01*
X783369Y42053D01*
X783419Y42104D01*
X783457Y42142D01*
X783470Y42154D01*
X783673Y42345D01*
X783876Y42497D01*
X784092Y42650D01*
X784321Y42764D01*
X784537Y42866D01*
X784753Y42954D01*
X784969Y43018D01*
X785172Y43081D01*
X785375Y43120D01*
X785553Y43158D01*
X785705Y43170D01*
X785845Y43196D01*
X785959D01*
X786036Y43208D01*
X786112D01*
X786493Y43183D01*
D02*
G37*
G36*
X763468Y42218D02*
X763633Y42396D01*
X763811Y42548D01*
X763988Y42675D01*
X764153Y42789D01*
X764331Y42891D01*
X764509Y42967D01*
X764674Y43031D01*
X764827Y43081D01*
X764966Y43120D01*
X765106Y43158D01*
X765220Y43183D01*
X765322Y43196D01*
X765411Y43208D01*
X765525D01*
X765766Y43196D01*
X765995Y43170D01*
X766198Y43120D01*
X766401Y43056D01*
X766592Y42993D01*
X766770Y42916D01*
X766935Y42827D01*
X767087Y42738D01*
X767214Y42650D01*
X767328Y42561D01*
X767430Y42484D01*
X767519Y42421D01*
X767582Y42358D01*
X767633Y42307D01*
X767659Y42281D01*
X767671Y42269D01*
X767824Y42078D01*
X767951Y41888D01*
X768065Y41672D01*
X768154Y41443D01*
X768243Y41214D01*
X768306Y40986D01*
X768408Y40541D01*
X768433Y40338D01*
X768459Y40148D01*
X768484Y39970D01*
X768497Y39818D01*
X768510Y39703D01*
Y39602D01*
Y39551D01*
Y39525D01*
X768497Y39208D01*
X768471Y38903D01*
X768433Y38611D01*
X768370Y38357D01*
X768306Y38103D01*
X768230Y37887D01*
X768154Y37671D01*
X768078Y37493D01*
X768001Y37328D01*
X767913Y37189D01*
X767849Y37062D01*
X767786Y36960D01*
X767722Y36884D01*
X767684Y36833D01*
X767659Y36795D01*
X767646Y36782D01*
X767481Y36604D01*
X767303Y36465D01*
X767138Y36325D01*
X766960Y36223D01*
X766782Y36122D01*
X766605Y36046D01*
X766439Y35982D01*
X766274Y35931D01*
X766135Y35880D01*
X765995Y35855D01*
X765868Y35830D01*
X765766Y35817D01*
X765677D01*
X765614Y35804D01*
X765563D01*
X765334Y35817D01*
X765119Y35855D01*
X764915Y35893D01*
X764738Y35957D01*
X764585Y36007D01*
X764471Y36046D01*
X764395Y36084D01*
X764369Y36096D01*
X764153Y36223D01*
X763963Y36363D01*
X763785Y36516D01*
X763633Y36668D01*
X763506Y36795D01*
X763417Y36897D01*
X763366Y36973D01*
X763341Y36985D01*
Y35969D01*
X761601D01*
Y45736D01*
X763468D01*
Y42218D01*
D02*
G37*
G36*
X879495Y45901D02*
X879863Y45863D01*
X880181Y45799D01*
X880333Y45774D01*
X880460Y45749D01*
X880587Y45710D01*
X880689Y45685D01*
X880790Y45647D01*
X880866Y45622D01*
X880930Y45609D01*
X880968Y45583D01*
X880993Y45571D01*
X881006D01*
X881285Y45431D01*
X881527Y45266D01*
X881730Y45101D01*
X881908Y44936D01*
X882035Y44796D01*
X882136Y44682D01*
X882187Y44593D01*
X882213Y44580D01*
Y44567D01*
X882352Y44326D01*
X882454Y44072D01*
X882530Y43843D01*
X882581Y43628D01*
X882606Y43450D01*
X882619Y43310D01*
X882632Y43259D01*
Y43221D01*
Y43196D01*
Y43183D01*
X882619Y42967D01*
X882594Y42764D01*
X882555Y42561D01*
X882492Y42383D01*
X882352Y42040D01*
X882263Y41888D01*
X882187Y41761D01*
X882098Y41634D01*
X882022Y41519D01*
X881946Y41431D01*
X881882Y41342D01*
X881819Y41291D01*
X881781Y41240D01*
X881755Y41215D01*
X881743Y41202D01*
X881616Y41100D01*
X881463Y40999D01*
X881298Y40897D01*
X881133Y40808D01*
X880765Y40643D01*
X880396Y40503D01*
X880219Y40440D01*
X880054Y40389D01*
X879901Y40351D01*
X879774Y40313D01*
X879673Y40275D01*
X879584Y40249D01*
X879533Y40237D01*
X879520D01*
X879304Y40186D01*
X879101Y40135D01*
X878923Y40084D01*
X878758Y40046D01*
X878606Y40008D01*
X878479Y39970D01*
X878364Y39932D01*
X878276Y39906D01*
X878187Y39881D01*
X878123Y39856D01*
X878060Y39843D01*
X878022Y39830D01*
X877958Y39818D01*
X877945Y39805D01*
X877768Y39741D01*
X877615Y39665D01*
X877501Y39589D01*
X877399Y39525D01*
X877323Y39475D01*
X877272Y39424D01*
X877247Y39399D01*
X877234Y39386D01*
X877171Y39297D01*
X877120Y39195D01*
X877082Y39094D01*
X877056Y38992D01*
X877044Y38916D01*
X877031Y38852D01*
Y38802D01*
Y38789D01*
X877056Y38598D01*
X877107Y38421D01*
X877183Y38256D01*
X877272Y38116D01*
X877374Y38001D01*
X877450Y37925D01*
X877501Y37862D01*
X877526Y37849D01*
X877729Y37722D01*
X877958Y37620D01*
X878187Y37557D01*
X878428Y37506D01*
X878631Y37481D01*
X878720Y37468D01*
X878809D01*
X878873Y37455D01*
X878961D01*
X879279Y37481D01*
X879558Y37532D01*
X879800Y37595D01*
X880003Y37684D01*
X880168Y37760D01*
X880282Y37836D01*
X880358Y37887D01*
X880384Y37900D01*
X880562Y38090D01*
X880714Y38319D01*
X880841Y38548D01*
X880930Y38789D01*
X881006Y38992D01*
X881031Y39081D01*
X881044Y39170D01*
X881057Y39233D01*
X881070Y39284D01*
X881082Y39310D01*
Y39322D01*
X883000Y39132D01*
X882949Y38840D01*
X882898Y38560D01*
X882822Y38294D01*
X882733Y38052D01*
X882644Y37824D01*
X882543Y37620D01*
X882441Y37443D01*
X882340Y37278D01*
X882238Y37125D01*
X882136Y36998D01*
X882060Y36897D01*
X881971Y36808D01*
X881908Y36732D01*
X881857Y36681D01*
X881832Y36655D01*
X881819Y36643D01*
X881628Y36490D01*
X881413Y36363D01*
X881184Y36249D01*
X880955Y36147D01*
X880714Y36071D01*
X880485Y35995D01*
X880028Y35893D01*
X879812Y35868D01*
X879609Y35842D01*
X879431Y35817D01*
X879279Y35804D01*
X879152Y35792D01*
X878974D01*
X878517Y35804D01*
X878111Y35842D01*
X877920Y35881D01*
X877742Y35906D01*
X877590Y35931D01*
X877437Y35970D01*
X877310Y36008D01*
X877183Y36033D01*
X877094Y36071D01*
X877006Y36096D01*
X876942Y36109D01*
X876891Y36135D01*
X876866Y36147D01*
X876853D01*
X876548Y36300D01*
X876282Y36465D01*
X876066Y36643D01*
X875875Y36820D01*
X875723Y36985D01*
X875621Y37113D01*
X875583Y37163D01*
X875558Y37201D01*
X875532Y37214D01*
Y37227D01*
X875380Y37506D01*
X875266Y37786D01*
X875177Y38052D01*
X875126Y38294D01*
X875088Y38510D01*
X875075Y38598D01*
Y38675D01*
X875062Y38725D01*
Y38776D01*
Y38802D01*
Y38814D01*
X875075Y39144D01*
X875126Y39449D01*
X875190Y39716D01*
X875253Y39932D01*
X875329Y40122D01*
X875367Y40186D01*
X875393Y40249D01*
X875418Y40300D01*
X875443Y40338D01*
X875456Y40351D01*
Y40364D01*
X875621Y40592D01*
X875786Y40783D01*
X875964Y40961D01*
X876142Y41100D01*
X876294Y41215D01*
X876421Y41304D01*
X876472Y41329D01*
X876510Y41354D01*
X876523Y41367D01*
X876536D01*
X876675Y41431D01*
X876828Y41507D01*
X877158Y41634D01*
X877514Y41748D01*
X877857Y41862D01*
X878009Y41913D01*
X878161Y41951D01*
X878301Y41989D01*
X878415Y42015D01*
X878517Y42040D01*
X878593Y42066D01*
X878644Y42078D01*
X878657D01*
X878911Y42142D01*
X879152Y42205D01*
X879355Y42269D01*
X879546Y42319D01*
X879711Y42383D01*
X879863Y42434D01*
X879990Y42485D01*
X880092Y42535D01*
X880193Y42573D01*
X880269Y42612D01*
X880333Y42650D01*
X880384Y42675D01*
X880422Y42701D01*
X880447Y42713D01*
X880460Y42726D01*
X880562Y42828D01*
X880625Y42929D01*
X880676Y43031D01*
X880714Y43120D01*
X880739Y43196D01*
X880752Y43272D01*
Y43310D01*
Y43323D01*
X880739Y43463D01*
X880701Y43577D01*
X880650Y43678D01*
X880600Y43767D01*
X880549Y43843D01*
X880498Y43894D01*
X880460Y43920D01*
X880447Y43932D01*
X880257Y44047D01*
X880028Y44136D01*
X879812Y44199D01*
X879596Y44250D01*
X879393Y44275D01*
X879317D01*
X879241Y44288D01*
X879101D01*
X878809Y44275D01*
X878555Y44237D01*
X878339Y44186D01*
X878174Y44123D01*
X878034Y44059D01*
X877933Y44009D01*
X877882Y43970D01*
X877857Y43958D01*
X877717Y43818D01*
X877590Y43653D01*
X877501Y43475D01*
X877425Y43297D01*
X877374Y43132D01*
X877336Y43005D01*
X877323Y42955D01*
X877310Y42916D01*
Y42891D01*
Y42878D01*
X875342Y42955D01*
X875355Y43196D01*
X875393Y43437D01*
X875456Y43653D01*
X875520Y43856D01*
X875596Y44047D01*
X875672Y44225D01*
X875761Y44390D01*
X875850Y44529D01*
X875939Y44669D01*
X876028Y44783D01*
X876104Y44872D01*
X876167Y44961D01*
X876231Y45025D01*
X876282Y45063D01*
X876307Y45088D01*
X876320Y45101D01*
X876498Y45241D01*
X876701Y45367D01*
X876917Y45482D01*
X877145Y45571D01*
X877374Y45647D01*
X877602Y45710D01*
X878047Y45812D01*
X878263Y45850D01*
X878453Y45876D01*
X878631Y45888D01*
X878784Y45901D01*
X878911Y45914D01*
X879088D01*
X879495Y45901D01*
D02*
G37*
G36*
X870135Y33673D02*
X870211Y33508D01*
X870389Y33216D01*
X870579Y32949D01*
X870783Y32708D01*
X870960Y32530D01*
X871037Y32441D01*
X871113Y32378D01*
X871176Y32327D01*
X871214Y32289D01*
X871240Y32276D01*
X871253Y32264D01*
X871570Y32035D01*
X871862Y31844D01*
X872129Y31679D01*
X872357Y31565D01*
X872548Y31476D01*
X872637Y31438D01*
X872700Y31413D01*
X872751Y31387D01*
X872789Y31375D01*
X872815Y31362D01*
X872827D01*
Y29660D01*
X872332Y29851D01*
X871862Y30079D01*
X871659Y30194D01*
X871456Y30308D01*
X871265Y30422D01*
X871100Y30536D01*
X870948Y30651D01*
X870808Y30740D01*
X870694Y30841D01*
X870592Y30917D01*
X870516Y30981D01*
X870465Y31032D01*
X870427Y31057D01*
X870414Y31070D01*
Y24021D01*
X868547D01*
Y33838D01*
X870071D01*
X870135Y33673D01*
D02*
G37*
G36*
X850412Y26625D02*
X846729D01*
Y28492D01*
X850412D01*
Y26625D01*
D02*
G37*
G36*
X879520Y24021D02*
X877412D01*
X873907Y33788D01*
X876002D01*
X878403Y26561D01*
X880866Y33788D01*
X883000D01*
X879520Y24021D01*
D02*
G37*
G36*
X865347D02*
X863480D01*
Y25888D01*
X865347D01*
Y24021D01*
D02*
G37*
G36*
X841839D02*
X838182D01*
X837877Y24034D01*
X837356D01*
X837140Y24047D01*
X836772D01*
X836632Y24059D01*
X836505D01*
X836404Y24072D01*
X836251D01*
X836200Y24085D01*
X836150D01*
X835870Y24136D01*
X835616Y24199D01*
X835388Y24263D01*
X835197Y24351D01*
X835045Y24415D01*
X834918Y24478D01*
X834854Y24529D01*
X834829Y24542D01*
X834638Y24694D01*
X834461Y24859D01*
X834321Y25025D01*
X834194Y25190D01*
X834105Y25329D01*
X834029Y25444D01*
X833991Y25520D01*
X833978Y25533D01*
Y25545D01*
X833876Y25787D01*
X833800Y26015D01*
X833737Y26231D01*
X833699Y26434D01*
X833673Y26599D01*
X833661Y26726D01*
Y26777D01*
Y26815D01*
Y26828D01*
Y26841D01*
X833686Y27146D01*
X833737Y27425D01*
X833813Y27679D01*
X833902Y27895D01*
X833991Y28073D01*
X834067Y28200D01*
X834092Y28250D01*
X834118Y28289D01*
X834143Y28301D01*
Y28314D01*
X834346Y28530D01*
X834562Y28720D01*
X834791Y28873D01*
X835007Y28987D01*
X835210Y29089D01*
X835299Y29127D01*
X835362Y29152D01*
X835426Y29177D01*
X835477Y29190D01*
X835502Y29203D01*
X835515D01*
X835286Y29330D01*
X835096Y29457D01*
X834918Y29609D01*
X834778Y29749D01*
X834664Y29876D01*
X834575Y29978D01*
X834524Y30041D01*
X834511Y30066D01*
X834384Y30282D01*
X834296Y30498D01*
X834232Y30714D01*
X834194Y30905D01*
X834156Y31082D01*
X834143Y31209D01*
Y31260D01*
Y31298D01*
Y31311D01*
Y31324D01*
X834156Y31552D01*
X834194Y31768D01*
X834245Y31959D01*
X834296Y32137D01*
X834346Y32276D01*
X834397Y32378D01*
X834435Y32441D01*
X834448Y32467D01*
X834562Y32645D01*
X834689Y32810D01*
X834816Y32949D01*
X834930Y33064D01*
X835045Y33153D01*
X835121Y33229D01*
X835172Y33267D01*
X835197Y33280D01*
X835362Y33381D01*
X835540Y33470D01*
X835718Y33546D01*
X835870Y33597D01*
X836010Y33635D01*
X836112Y33661D01*
X836188Y33686D01*
X836213D01*
X836328Y33699D01*
X836454Y33724D01*
X836721Y33749D01*
X837013Y33762D01*
X837293Y33775D01*
X837547Y33788D01*
X841839D01*
Y24021D01*
D02*
G37*
G36*
X859061Y33826D02*
X859314Y33800D01*
X859543Y33749D01*
X859746Y33686D01*
X859949Y33610D01*
X860127Y33521D01*
X860292Y33432D01*
X860445Y33343D01*
X860572Y33242D01*
X860686Y33153D01*
X860788Y33064D01*
X860877Y32987D01*
X860940Y32924D01*
X860978Y32873D01*
X861004Y32848D01*
X861016Y32835D01*
X861181Y32594D01*
X861334Y32314D01*
X861461Y32010D01*
X861562Y31692D01*
X861664Y31375D01*
X861740Y31032D01*
X861804Y30701D01*
X861854Y30384D01*
X861893Y30079D01*
X861918Y29787D01*
X861943Y29533D01*
X861956Y29304D01*
Y29114D01*
X861969Y29038D01*
Y28974D01*
Y28911D01*
Y28885D01*
Y28860D01*
Y28847D01*
X861956Y28339D01*
X861931Y27869D01*
X861893Y27438D01*
X861829Y27044D01*
X861766Y26688D01*
X861689Y26371D01*
X861613Y26091D01*
X861537Y25837D01*
X861461Y25622D01*
X861372Y25431D01*
X861308Y25279D01*
X861245Y25152D01*
X861181Y25050D01*
X861143Y24987D01*
X861118Y24948D01*
X861105Y24936D01*
X860940Y24745D01*
X860750Y24580D01*
X860572Y24428D01*
X860381Y24301D01*
X860178Y24199D01*
X859988Y24110D01*
X859810Y24034D01*
X859632Y23983D01*
X859454Y23932D01*
X859302Y23907D01*
X859162Y23882D01*
X859048Y23856D01*
X858946D01*
X858870Y23844D01*
X858807D01*
X858552Y23856D01*
X858298Y23882D01*
X858070Y23932D01*
X857867Y23996D01*
X857663Y24072D01*
X857486Y24161D01*
X857321Y24250D01*
X857168Y24339D01*
X857041Y24428D01*
X856914Y24517D01*
X856825Y24606D01*
X856736Y24682D01*
X856673Y24745D01*
X856635Y24796D01*
X856609Y24821D01*
X856597Y24834D01*
X856432Y25075D01*
X856279Y25355D01*
X856152Y25660D01*
X856038Y25977D01*
X855949Y26307D01*
X855873Y26637D01*
X855797Y26968D01*
X855746Y27298D01*
X855708Y27603D01*
X855682Y27895D01*
X855657Y28149D01*
X855644Y28377D01*
X855631Y28568D01*
Y28644D01*
Y28708D01*
Y28771D01*
Y28809D01*
Y28822D01*
Y28835D01*
X855644Y29343D01*
X855670Y29800D01*
X855720Y30232D01*
X855784Y30625D01*
X855847Y30994D01*
X855936Y31324D01*
X856012Y31616D01*
X856101Y31870D01*
X856190Y32099D01*
X856279Y32289D01*
X856368Y32454D01*
X856432Y32594D01*
X856495Y32695D01*
X856546Y32772D01*
X856571Y32810D01*
X856584Y32822D01*
X856736Y33000D01*
X856914Y33153D01*
X857092Y33292D01*
X857270Y33407D01*
X857448Y33508D01*
X857638Y33597D01*
X857816Y33661D01*
X857994Y33711D01*
X858159Y33749D01*
X858311Y33788D01*
X858451Y33813D01*
X858565Y33826D01*
X858667Y33838D01*
X858807D01*
X859061Y33826D01*
D02*
G37*
G36*
X879787Y21878D02*
X880015Y21865D01*
X880244Y21827D01*
X880447Y21789D01*
X880638Y21738D01*
X880816Y21674D01*
X880993Y21611D01*
X881133Y21560D01*
X881273Y21497D01*
X881400Y21433D01*
X881501Y21370D01*
X881590Y21319D01*
X881654Y21281D01*
X881705Y21243D01*
X881730Y21230D01*
X881743Y21217D01*
X881895Y21077D01*
X882035Y20925D01*
X882162Y20760D01*
X882276Y20582D01*
X882378Y20404D01*
X882454Y20214D01*
X882594Y19858D01*
X882644Y19681D01*
X882682Y19515D01*
X882721Y19376D01*
X882746Y19249D01*
X882759Y19147D01*
X882771Y19058D01*
X882784Y19007D01*
Y18995D01*
X880917Y18817D01*
X880879Y19096D01*
X880828Y19338D01*
X880765Y19541D01*
X880701Y19706D01*
X880638Y19833D01*
X880574Y19922D01*
X880536Y19973D01*
X880524Y19985D01*
X880384Y20100D01*
X880231Y20189D01*
X880079Y20252D01*
X879927Y20303D01*
X879800Y20328D01*
X879698Y20341D01*
X879596D01*
X879380Y20328D01*
X879203Y20290D01*
X879038Y20227D01*
X878911Y20176D01*
X878809Y20112D01*
X878733Y20049D01*
X878682Y20011D01*
X878669Y19998D01*
X878555Y19858D01*
X878466Y19706D01*
X878415Y19541D01*
X878364Y19388D01*
X878339Y19249D01*
X878326Y19134D01*
Y19058D01*
Y19045D01*
Y19033D01*
X878339Y18817D01*
X878390Y18614D01*
X878453Y18423D01*
X878517Y18245D01*
X878593Y18106D01*
X878657Y17991D01*
X878707Y17915D01*
X878720Y17902D01*
Y17890D01*
X878784Y17801D01*
X878873Y17699D01*
X878961Y17585D01*
X879076Y17458D01*
X879330Y17204D01*
X879596Y16937D01*
X879850Y16683D01*
X879965Y16582D01*
X880066Y16480D01*
X880155Y16404D01*
X880219Y16340D01*
X880257Y16302D01*
X880269Y16290D01*
X880549Y16023D01*
X880803Y15769D01*
X881044Y15528D01*
X881260Y15312D01*
X881451Y15096D01*
X881616Y14905D01*
X881768Y14727D01*
X881908Y14562D01*
X882022Y14423D01*
X882111Y14296D01*
X882187Y14194D01*
X882251Y14105D01*
X882301Y14029D01*
X882340Y13978D01*
X882352Y13953D01*
X882365Y13940D01*
X882543Y13610D01*
X882682Y13280D01*
X882797Y12962D01*
X882886Y12670D01*
X882911Y12543D01*
X882936Y12429D01*
X882962Y12327D01*
X882975Y12238D01*
X882987Y12175D01*
X883000Y12111D01*
Y12086D01*
Y12073D01*
X876447D01*
Y13813D01*
X880168D01*
X880054Y13991D01*
X879927Y14156D01*
X879876Y14219D01*
X879825Y14270D01*
X879800Y14308D01*
X879787Y14321D01*
X879736Y14372D01*
X879673Y14448D01*
X879508Y14600D01*
X879330Y14778D01*
X879139Y14956D01*
X878961Y15134D01*
X878809Y15274D01*
X878745Y15324D01*
X878707Y15362D01*
X878682Y15388D01*
X878669Y15401D01*
X878504Y15553D01*
X878364Y15693D01*
X878098Y15947D01*
X877895Y16163D01*
X877717Y16340D01*
X877590Y16480D01*
X877501Y16582D01*
X877450Y16632D01*
X877437Y16658D01*
X877260Y16899D01*
X877107Y17128D01*
X876980Y17331D01*
X876866Y17522D01*
X876790Y17674D01*
X876739Y17801D01*
X876701Y17877D01*
X876688Y17890D01*
Y17902D01*
X876612Y18131D01*
X876548Y18347D01*
X876510Y18563D01*
X876472Y18753D01*
X876460Y18918D01*
X876447Y19045D01*
Y19096D01*
Y19134D01*
Y19147D01*
Y19160D01*
X876460Y19376D01*
X876485Y19579D01*
X876523Y19769D01*
X876574Y19960D01*
X876713Y20290D01*
X876777Y20430D01*
X876853Y20570D01*
X876942Y20696D01*
X877006Y20798D01*
X877082Y20887D01*
X877145Y20963D01*
X877196Y21027D01*
X877234Y21065D01*
X877260Y21090D01*
X877272Y21103D01*
X877437Y21243D01*
X877602Y21357D01*
X877793Y21471D01*
X877971Y21560D01*
X878161Y21636D01*
X878352Y21700D01*
X878720Y21789D01*
X878885Y21827D01*
X879038Y21852D01*
X879190Y21865D01*
X879304Y21878D01*
X879406Y21890D01*
X879546D01*
X879787Y21878D01*
D02*
G37*
G36*
X864623D02*
X864852Y21865D01*
X865080Y21827D01*
X865284Y21789D01*
X865474Y21738D01*
X865652Y21674D01*
X865830Y21611D01*
X865969Y21560D01*
X866109Y21497D01*
X866236Y21433D01*
X866338Y21370D01*
X866426Y21319D01*
X866490Y21281D01*
X866541Y21243D01*
X866566Y21230D01*
X866579Y21217D01*
X866731Y21077D01*
X866871Y20925D01*
X866998Y20760D01*
X867112Y20582D01*
X867214Y20404D01*
X867290Y20214D01*
X867430Y19858D01*
X867481Y19681D01*
X867519Y19515D01*
X867557Y19376D01*
X867582Y19249D01*
X867595Y19147D01*
X867608Y19058D01*
X867620Y19007D01*
Y18995D01*
X865753Y18817D01*
X865715Y19096D01*
X865665Y19338D01*
X865601Y19541D01*
X865537Y19706D01*
X865474Y19833D01*
X865411Y19922D01*
X865372Y19973D01*
X865360Y19985D01*
X865220Y20100D01*
X865068Y20189D01*
X864915Y20252D01*
X864763Y20303D01*
X864636Y20328D01*
X864534Y20341D01*
X864433D01*
X864217Y20328D01*
X864039Y20290D01*
X863874Y20227D01*
X863747Y20176D01*
X863645Y20112D01*
X863569Y20049D01*
X863518Y20011D01*
X863505Y19998D01*
X863391Y19858D01*
X863302Y19706D01*
X863251Y19541D01*
X863201Y19388D01*
X863175Y19249D01*
X863163Y19134D01*
Y19058D01*
Y19045D01*
Y19033D01*
X863175Y18817D01*
X863226Y18614D01*
X863290Y18423D01*
X863353Y18245D01*
X863429Y18106D01*
X863493Y17991D01*
X863544Y17915D01*
X863556Y17902D01*
Y17890D01*
X863620Y17801D01*
X863709Y17699D01*
X863798Y17585D01*
X863912Y17458D01*
X864166Y17204D01*
X864433Y16937D01*
X864687Y16683D01*
X864801Y16582D01*
X864902Y16480D01*
X864991Y16404D01*
X865055Y16340D01*
X865093Y16302D01*
X865106Y16290D01*
X865385Y16023D01*
X865639Y15769D01*
X865880Y15528D01*
X866096Y15312D01*
X866287Y15096D01*
X866452Y14905D01*
X866604Y14727D01*
X866744Y14562D01*
X866858Y14423D01*
X866947Y14296D01*
X867023Y14194D01*
X867087Y14105D01*
X867138Y14029D01*
X867176Y13978D01*
X867188Y13953D01*
X867201Y13940D01*
X867379Y13610D01*
X867519Y13280D01*
X867633Y12962D01*
X867722Y12670D01*
X867747Y12543D01*
X867773Y12429D01*
X867798Y12327D01*
X867811Y12238D01*
X867823Y12175D01*
X867836Y12111D01*
Y12086D01*
Y12073D01*
X861283D01*
Y13813D01*
X865004D01*
X864890Y13991D01*
X864763Y14156D01*
X864712Y14219D01*
X864661Y14270D01*
X864636Y14308D01*
X864623Y14321D01*
X864572Y14372D01*
X864509Y14448D01*
X864344Y14600D01*
X864166Y14778D01*
X863975Y14956D01*
X863798Y15134D01*
X863645Y15274D01*
X863582Y15324D01*
X863544Y15362D01*
X863518Y15388D01*
X863505Y15401D01*
X863340Y15553D01*
X863201Y15693D01*
X862934Y15947D01*
X862731Y16163D01*
X862553Y16340D01*
X862426Y16480D01*
X862337Y16582D01*
X862286Y16632D01*
X862274Y16658D01*
X862096Y16899D01*
X861943Y17128D01*
X861816Y17331D01*
X861702Y17522D01*
X861626Y17674D01*
X861575Y17801D01*
X861537Y17877D01*
X861524Y17890D01*
Y17902D01*
X861448Y18131D01*
X861385Y18347D01*
X861347Y18563D01*
X861308Y18753D01*
X861296Y18918D01*
X861283Y19045D01*
Y19096D01*
Y19134D01*
Y19147D01*
Y19160D01*
X861296Y19376D01*
X861321Y19579D01*
X861359Y19769D01*
X861410Y19960D01*
X861550Y20290D01*
X861613Y20430D01*
X861689Y20570D01*
X861778Y20696D01*
X861842Y20798D01*
X861918Y20887D01*
X861982Y20963D01*
X862032Y21027D01*
X862070Y21065D01*
X862096Y21090D01*
X862109Y21103D01*
X862274Y21243D01*
X862439Y21357D01*
X862629Y21471D01*
X862807Y21560D01*
X862998Y21636D01*
X863188Y21700D01*
X863556Y21789D01*
X863721Y21827D01*
X863874Y21852D01*
X864026Y21865D01*
X864140Y21878D01*
X864242Y21890D01*
X864382D01*
X864623Y21878D01*
D02*
G37*
G36*
X857041D02*
X857270Y21865D01*
X857498Y21827D01*
X857702Y21789D01*
X857892Y21738D01*
X858070Y21674D01*
X858248Y21611D01*
X858387Y21560D01*
X858527Y21497D01*
X858654Y21433D01*
X858756Y21370D01*
X858845Y21319D01*
X858908Y21281D01*
X858959Y21243D01*
X858984Y21230D01*
X858997Y21217D01*
X859149Y21077D01*
X859289Y20925D01*
X859416Y20760D01*
X859530Y20582D01*
X859632Y20404D01*
X859708Y20214D01*
X859848Y19858D01*
X859899Y19681D01*
X859937Y19515D01*
X859975Y19376D01*
X860000Y19249D01*
X860013Y19147D01*
X860026Y19058D01*
X860038Y19007D01*
Y18995D01*
X858171Y18817D01*
X858133Y19096D01*
X858083Y19338D01*
X858019Y19541D01*
X857956Y19706D01*
X857892Y19833D01*
X857829Y19922D01*
X857791Y19973D01*
X857778Y19985D01*
X857638Y20100D01*
X857486Y20189D01*
X857333Y20252D01*
X857181Y20303D01*
X857054Y20328D01*
X856952Y20341D01*
X856851D01*
X856635Y20328D01*
X856457Y20290D01*
X856292Y20227D01*
X856165Y20176D01*
X856063Y20112D01*
X855987Y20049D01*
X855936Y20011D01*
X855924Y19998D01*
X855809Y19858D01*
X855720Y19706D01*
X855670Y19541D01*
X855619Y19388D01*
X855593Y19249D01*
X855581Y19134D01*
Y19058D01*
Y19045D01*
Y19033D01*
X855593Y18817D01*
X855644Y18614D01*
X855708Y18423D01*
X855771Y18245D01*
X855847Y18106D01*
X855911Y17991D01*
X855962Y17915D01*
X855974Y17902D01*
Y17890D01*
X856038Y17801D01*
X856127Y17699D01*
X856216Y17585D01*
X856330Y17458D01*
X856584Y17204D01*
X856851Y16937D01*
X857105Y16683D01*
X857219Y16582D01*
X857321Y16480D01*
X857410Y16404D01*
X857473Y16340D01*
X857511Y16302D01*
X857524Y16290D01*
X857803Y16023D01*
X858057Y15769D01*
X858298Y15528D01*
X858514Y15312D01*
X858705Y15096D01*
X858870Y14905D01*
X859022Y14727D01*
X859162Y14562D01*
X859276Y14423D01*
X859365Y14296D01*
X859442Y14194D01*
X859505Y14105D01*
X859556Y14029D01*
X859594Y13978D01*
X859607Y13953D01*
X859619Y13940D01*
X859797Y13610D01*
X859937Y13280D01*
X860051Y12962D01*
X860140Y12670D01*
X860165Y12543D01*
X860191Y12429D01*
X860216Y12327D01*
X860229Y12238D01*
X860242Y12175D01*
X860254Y12111D01*
Y12086D01*
Y12073D01*
X853701D01*
Y13813D01*
X857422D01*
X857308Y13991D01*
X857181Y14156D01*
X857130Y14219D01*
X857079Y14270D01*
X857054Y14308D01*
X857041Y14321D01*
X856990Y14372D01*
X856927Y14448D01*
X856762Y14600D01*
X856584Y14778D01*
X856394Y14956D01*
X856216Y15134D01*
X856063Y15274D01*
X856000Y15324D01*
X855962Y15362D01*
X855936Y15388D01*
X855924Y15401D01*
X855759Y15553D01*
X855619Y15693D01*
X855352Y15947D01*
X855149Y16163D01*
X854971Y16340D01*
X854844Y16480D01*
X854755Y16582D01*
X854704Y16632D01*
X854692Y16658D01*
X854514Y16899D01*
X854361Y17128D01*
X854234Y17331D01*
X854120Y17522D01*
X854044Y17674D01*
X853993Y17801D01*
X853955Y17877D01*
X853942Y17890D01*
Y17902D01*
X853866Y18131D01*
X853803Y18347D01*
X853765Y18563D01*
X853727Y18753D01*
X853714Y18918D01*
X853701Y19045D01*
Y19096D01*
Y19134D01*
Y19147D01*
Y19160D01*
X853714Y19376D01*
X853739Y19579D01*
X853777Y19769D01*
X853828Y19960D01*
X853968Y20290D01*
X854031Y20430D01*
X854108Y20570D01*
X854196Y20696D01*
X854260Y20798D01*
X854336Y20887D01*
X854400Y20963D01*
X854450Y21027D01*
X854489Y21065D01*
X854514Y21090D01*
X854527Y21103D01*
X854692Y21243D01*
X854857Y21357D01*
X855047Y21471D01*
X855225Y21560D01*
X855416Y21636D01*
X855606Y21700D01*
X855974Y21789D01*
X856140Y21827D01*
X856292Y21852D01*
X856444Y21865D01*
X856559Y21878D01*
X856660Y21890D01*
X856800D01*
X857041Y21878D01*
D02*
G37*
G36*
X872281D02*
X872535Y21852D01*
X872764Y21801D01*
X872967Y21738D01*
X873170Y21662D01*
X873348Y21573D01*
X873513Y21484D01*
X873665Y21395D01*
X873792Y21293D01*
X873907Y21205D01*
X874008Y21116D01*
X874097Y21039D01*
X874161Y20976D01*
X874199Y20925D01*
X874224Y20900D01*
X874237Y20887D01*
X874402Y20646D01*
X874555Y20366D01*
X874681Y20062D01*
X874783Y19744D01*
X874885Y19426D01*
X874961Y19084D01*
X875024Y18753D01*
X875075Y18436D01*
X875113Y18131D01*
X875139Y17839D01*
X875164Y17585D01*
X875177Y17356D01*
Y17166D01*
X875190Y17090D01*
Y17026D01*
Y16963D01*
Y16937D01*
Y16912D01*
Y16899D01*
X875177Y16391D01*
X875151Y15921D01*
X875113Y15489D01*
X875050Y15096D01*
X874986Y14740D01*
X874910Y14423D01*
X874834Y14143D01*
X874758Y13889D01*
X874681Y13673D01*
X874593Y13483D01*
X874529Y13331D01*
X874466Y13204D01*
X874402Y13102D01*
X874364Y13038D01*
X874339Y13000D01*
X874326Y12988D01*
X874161Y12797D01*
X873970Y12632D01*
X873792Y12480D01*
X873602Y12353D01*
X873399Y12251D01*
X873208Y12162D01*
X873030Y12086D01*
X872853Y12035D01*
X872675Y11984D01*
X872523Y11959D01*
X872383Y11933D01*
X872269Y11908D01*
X872167D01*
X872091Y11895D01*
X872027D01*
X871773Y11908D01*
X871519Y11933D01*
X871291Y11984D01*
X871087Y12048D01*
X870884Y12124D01*
X870706Y12213D01*
X870541Y12302D01*
X870389Y12391D01*
X870262Y12480D01*
X870135Y12569D01*
X870046Y12657D01*
X869957Y12734D01*
X869894Y12797D01*
X869855Y12848D01*
X869830Y12873D01*
X869817Y12886D01*
X869652Y13127D01*
X869500Y13407D01*
X869373Y13712D01*
X869259Y14029D01*
X869170Y14359D01*
X869093Y14689D01*
X869017Y15020D01*
X868967Y15350D01*
X868928Y15655D01*
X868903Y15947D01*
X868878Y16201D01*
X868865Y16429D01*
X868852Y16620D01*
Y16696D01*
Y16760D01*
Y16823D01*
Y16861D01*
Y16874D01*
Y16887D01*
X868865Y17394D01*
X868890Y17852D01*
X868941Y18283D01*
X869005Y18677D01*
X869068Y19045D01*
X869157Y19376D01*
X869233Y19668D01*
X869322Y19922D01*
X869411Y20150D01*
X869500Y20341D01*
X869589Y20506D01*
X869652Y20646D01*
X869716Y20747D01*
X869767Y20824D01*
X869792Y20862D01*
X869805Y20874D01*
X869957Y21052D01*
X870135Y21205D01*
X870313Y21344D01*
X870490Y21458D01*
X870668Y21560D01*
X870859Y21649D01*
X871037Y21713D01*
X871214Y21763D01*
X871379Y21801D01*
X871532Y21839D01*
X871672Y21865D01*
X871786Y21878D01*
X871888Y21890D01*
X872027D01*
X872281Y21878D01*
D02*
G37*
%LPC*%
G36*
X777095Y39348D02*
X777082D01*
Y38967D01*
Y38738D01*
X777095Y38547D01*
X777107Y38395D01*
X777120Y38268D01*
X777133Y38179D01*
X777145Y38116D01*
X777158Y38078D01*
Y38065D01*
X777209Y37938D01*
X777272Y37811D01*
X777349Y37709D01*
X777425Y37620D01*
X777488Y37557D01*
X777552Y37493D01*
X777590Y37468D01*
X777603Y37455D01*
X777781Y37341D01*
X777958Y37265D01*
X778123Y37201D01*
X778263Y37163D01*
X778390Y37138D01*
X778492Y37125D01*
X778581D01*
X778746Y37138D01*
X778885Y37163D01*
X779012Y37214D01*
X779114Y37265D01*
X779203Y37316D01*
X779266Y37366D01*
X779305Y37392D01*
X779317Y37404D01*
X779419Y37519D01*
X779482Y37633D01*
X779533Y37735D01*
X779571Y37849D01*
X779597Y37938D01*
X779609Y38014D01*
Y38065D01*
Y38078D01*
X779597Y38217D01*
X779558Y38344D01*
X779495Y38459D01*
X779432Y38560D01*
X779368Y38636D01*
X779305Y38687D01*
X779266Y38725D01*
X779254Y38738D01*
X779139Y38802D01*
X778987Y38852D01*
X778822Y38903D01*
X778657Y38954D01*
X778492Y38992D01*
X778365Y39030D01*
X778314Y39043D01*
X778276D01*
X778250Y39056D01*
X778238D01*
X777958Y39119D01*
X777730Y39170D01*
X777526Y39221D01*
X777361Y39259D01*
X777234Y39297D01*
X777145Y39322D01*
X777095Y39348D01*
D02*
G37*
G36*
X863086Y44110D02*
X861105D01*
X860953Y44097D01*
X860597D01*
X860508Y44085D01*
X860343D01*
X860292Y44072D01*
X860280D01*
X860102Y44034D01*
X859949Y43996D01*
X859822Y43932D01*
X859721Y43882D01*
X859632Y43818D01*
X859581Y43780D01*
X859543Y43742D01*
X859530Y43729D01*
X859442Y43615D01*
X859378Y43501D01*
X859340Y43374D01*
X859302Y43259D01*
X859289Y43158D01*
X859276Y43069D01*
Y43018D01*
Y42993D01*
X859289Y42828D01*
X859327Y42675D01*
X859365Y42548D01*
X859416Y42434D01*
X859480Y42345D01*
X859518Y42281D01*
X859556Y42243D01*
X859568Y42231D01*
X859683Y42129D01*
X859822Y42053D01*
X859949Y41989D01*
X860077Y41939D01*
X860191Y41913D01*
X860280Y41888D01*
X860343Y41875D01*
X860432D01*
X860508Y41862D01*
X860940D01*
X861194Y41850D01*
X863086D01*
Y44110D01*
D02*
G37*
G36*
Y40224D02*
X861042D01*
X860838Y40211D01*
X860661Y40199D01*
X860496Y40186D01*
X860356D01*
X860229Y40173D01*
X860115Y40160D01*
X860026Y40148D01*
X859949Y40135D01*
X859886Y40122D01*
X859835Y40110D01*
X859772Y40097D01*
X859746Y40084D01*
X859607Y40021D01*
X859480Y39957D01*
X859365Y39881D01*
X859276Y39805D01*
X859213Y39741D01*
X859162Y39678D01*
X859137Y39640D01*
X859124Y39627D01*
X859048Y39513D01*
X858997Y39386D01*
X858959Y39259D01*
X858933Y39144D01*
X858921Y39043D01*
X858908Y38967D01*
Y38916D01*
Y38891D01*
X858921Y38700D01*
X858946Y38535D01*
X858997Y38395D01*
X859048Y38281D01*
X859099Y38179D01*
X859149Y38116D01*
X859175Y38065D01*
X859187Y38052D01*
X859302Y37951D01*
X859416Y37862D01*
X859543Y37798D01*
X859657Y37747D01*
X859759Y37709D01*
X859835Y37684D01*
X859886Y37671D01*
X859911D01*
X859975Y37659D01*
X860051D01*
X860140Y37646D01*
X860242D01*
X860458Y37633D01*
X860686D01*
X860902Y37620D01*
X863086D01*
Y40224D01*
D02*
G37*
G36*
X797173Y44110D02*
X795192D01*
X795040Y44097D01*
X794684D01*
X794595Y44085D01*
X794430D01*
X794379Y44072D01*
X794367D01*
X794189Y44034D01*
X794036Y43996D01*
X793910Y43932D01*
X793808Y43882D01*
X793719Y43818D01*
X793668Y43780D01*
X793630Y43742D01*
X793617Y43729D01*
X793529Y43615D01*
X793465Y43500D01*
X793427Y43373D01*
X793389Y43259D01*
X793376Y43158D01*
X793363Y43069D01*
Y43018D01*
Y42993D01*
X793376Y42827D01*
X793414Y42675D01*
X793452Y42548D01*
X793503Y42434D01*
X793567Y42345D01*
X793605Y42281D01*
X793643Y42243D01*
X793655Y42231D01*
X793770Y42129D01*
X793910Y42053D01*
X794036Y41989D01*
X794164Y41938D01*
X794278Y41913D01*
X794367Y41888D01*
X794430Y41875D01*
X794519D01*
X794595Y41862D01*
X795027D01*
X795281Y41849D01*
X797173D01*
Y44110D01*
D02*
G37*
G36*
Y40224D02*
X795129D01*
X794926Y40211D01*
X794748Y40198D01*
X794583Y40186D01*
X794443D01*
X794316Y40173D01*
X794202Y40160D01*
X794113Y40148D01*
X794036Y40135D01*
X793973Y40122D01*
X793922Y40110D01*
X793859Y40097D01*
X793833Y40084D01*
X793694Y40021D01*
X793567Y39957D01*
X793452Y39881D01*
X793363Y39805D01*
X793300Y39741D01*
X793249Y39678D01*
X793224Y39640D01*
X793211Y39627D01*
X793135Y39513D01*
X793084Y39386D01*
X793046Y39259D01*
X793020Y39144D01*
X793008Y39043D01*
X792995Y38967D01*
Y38916D01*
Y38890D01*
X793008Y38700D01*
X793033Y38535D01*
X793084Y38395D01*
X793135Y38281D01*
X793186Y38179D01*
X793236Y38116D01*
X793262Y38065D01*
X793275Y38052D01*
X793389Y37951D01*
X793503Y37862D01*
X793630Y37798D01*
X793744Y37747D01*
X793846Y37709D01*
X793922Y37684D01*
X793973Y37671D01*
X793998D01*
X794062Y37659D01*
X794138D01*
X794227Y37646D01*
X794329D01*
X794545Y37633D01*
X794773D01*
X794989Y37620D01*
X797173D01*
Y40224D01*
D02*
G37*
G36*
X838448Y41684D02*
X838232D01*
X838105Y41659D01*
X837877Y41596D01*
X837674Y41507D01*
X837496Y41405D01*
X837344Y41291D01*
X837242Y41202D01*
X837178Y41138D01*
X837153Y41126D01*
Y41113D01*
X836988Y40884D01*
X836861Y40630D01*
X836772Y40364D01*
X836709Y40110D01*
X836670Y39868D01*
X836658Y39767D01*
Y39691D01*
X836645Y39614D01*
Y39564D01*
Y39525D01*
Y39513D01*
X836670Y39132D01*
X836721Y38814D01*
X836810Y38535D01*
X836899Y38306D01*
X836988Y38116D01*
X837039Y38052D01*
X837077Y37989D01*
X837102Y37951D01*
X837128Y37913D01*
X837153Y37900D01*
Y37887D01*
X837242Y37786D01*
X837344Y37709D01*
X837547Y37570D01*
X837750Y37468D01*
X837953Y37405D01*
X838118Y37354D01*
X838245Y37341D01*
X838296Y37328D01*
X838372D01*
X838512Y37341D01*
X838639Y37354D01*
X838880Y37417D01*
X839083Y37506D01*
X839261Y37608D01*
X839414Y37709D01*
X839515Y37798D01*
X839579Y37862D01*
X839604Y37887D01*
X839769Y38116D01*
X839896Y38370D01*
X839972Y38649D01*
X840036Y38903D01*
X840074Y39132D01*
X840087Y39233D01*
Y39322D01*
X840099Y39399D01*
Y39449D01*
Y39487D01*
Y39500D01*
X840074Y39868D01*
X840023Y40199D01*
X839947Y40478D01*
X839845Y40707D01*
X839756Y40884D01*
X839718Y40948D01*
X839680Y41011D01*
X839655Y41049D01*
X839630Y41088D01*
X839604Y41113D01*
X839502Y41215D01*
X839414Y41304D01*
X839198Y41443D01*
X838995Y41545D01*
X838804Y41608D01*
X838626Y41659D01*
X838499Y41672D01*
X838448Y41684D01*
D02*
G37*
G36*
X811931Y41684D02*
X811715D01*
X811588Y41659D01*
X811359Y41596D01*
X811156Y41507D01*
X810978Y41405D01*
X810826Y41291D01*
X810724Y41202D01*
X810661Y41138D01*
X810635Y41126D01*
Y41113D01*
X810470Y40884D01*
X810343Y40630D01*
X810254Y40364D01*
X810191Y40110D01*
X810153Y39868D01*
X810140Y39767D01*
Y39690D01*
X810127Y39614D01*
Y39564D01*
Y39525D01*
Y39513D01*
X810153Y39132D01*
X810204Y38814D01*
X810293Y38535D01*
X810381Y38306D01*
X810470Y38116D01*
X810521Y38052D01*
X810559Y37989D01*
X810585Y37951D01*
X810610Y37912D01*
X810635Y37900D01*
Y37887D01*
X810724Y37785D01*
X810826Y37709D01*
X811029Y37570D01*
X811232Y37468D01*
X811435Y37404D01*
X811601Y37354D01*
X811728Y37341D01*
X811778Y37328D01*
X811855D01*
X811994Y37341D01*
X812121Y37354D01*
X812363Y37417D01*
X812566Y37506D01*
X812744Y37608D01*
X812896Y37709D01*
X812998Y37798D01*
X813061Y37862D01*
X813086Y37887D01*
X813252Y38116D01*
X813379Y38370D01*
X813455Y38649D01*
X813518Y38903D01*
X813556Y39132D01*
X813569Y39233D01*
Y39322D01*
X813582Y39399D01*
Y39449D01*
Y39487D01*
Y39500D01*
X813556Y39868D01*
X813506Y40199D01*
X813429Y40478D01*
X813328Y40707D01*
X813239Y40884D01*
X813201Y40948D01*
X813163Y41011D01*
X813137Y41049D01*
X813112Y41088D01*
X813086Y41113D01*
X812985Y41215D01*
X812896Y41304D01*
X812680Y41443D01*
X812477Y41545D01*
X812286Y41608D01*
X812109Y41659D01*
X811982Y41672D01*
X811931Y41684D01*
D02*
G37*
G36*
X786175D02*
X785959D01*
X785832Y41659D01*
X785604Y41596D01*
X785400Y41507D01*
X785223Y41405D01*
X785070Y41291D01*
X784969Y41202D01*
X784905Y41138D01*
X784880Y41126D01*
Y41113D01*
X784715Y40884D01*
X784588Y40630D01*
X784499Y40364D01*
X784435Y40110D01*
X784397Y39868D01*
X784385Y39767D01*
Y39690D01*
X784372Y39614D01*
Y39564D01*
Y39525D01*
Y39513D01*
X784397Y39132D01*
X784448Y38814D01*
X784537Y38535D01*
X784626Y38306D01*
X784715Y38116D01*
X784765Y38052D01*
X784804Y37989D01*
X784829Y37951D01*
X784854Y37912D01*
X784880Y37900D01*
Y37887D01*
X784969Y37785D01*
X785070Y37709D01*
X785274Y37570D01*
X785477Y37468D01*
X785680Y37404D01*
X785845Y37354D01*
X785972Y37341D01*
X786023Y37328D01*
X786099D01*
X786239Y37341D01*
X786366Y37354D01*
X786607Y37417D01*
X786810Y37506D01*
X786988Y37608D01*
X787140Y37709D01*
X787242Y37798D01*
X787306Y37862D01*
X787331Y37887D01*
X787496Y38116D01*
X787623Y38370D01*
X787699Y38649D01*
X787763Y38903D01*
X787801Y39132D01*
X787813Y39233D01*
Y39322D01*
X787826Y39398D01*
Y39449D01*
Y39487D01*
Y39500D01*
X787801Y39868D01*
X787750Y40198D01*
X787674Y40478D01*
X787572Y40707D01*
X787483Y40884D01*
X787445Y40948D01*
X787407Y41011D01*
X787382Y41049D01*
X787356Y41087D01*
X787331Y41113D01*
X787229Y41214D01*
X787140Y41303D01*
X786925Y41443D01*
X786721Y41545D01*
X786531Y41608D01*
X786353Y41659D01*
X786226Y41672D01*
X786175Y41684D01*
D02*
G37*
G36*
X765093Y41773D02*
X764903D01*
X764788Y41748D01*
X764560Y41684D01*
X764369Y41596D01*
X764204Y41507D01*
X764077Y41405D01*
X763976Y41316D01*
X763925Y41253D01*
X763899Y41240D01*
Y41227D01*
X763823Y41126D01*
X763747Y40999D01*
X763645Y40732D01*
X763569Y40440D01*
X763506Y40148D01*
X763480Y39894D01*
X763468Y39779D01*
Y39678D01*
X763455Y39589D01*
Y39525D01*
Y39487D01*
Y39475D01*
Y39271D01*
X763480Y39081D01*
X763493Y38916D01*
X763531Y38751D01*
X763557Y38598D01*
X763595Y38471D01*
X763645Y38344D01*
X763683Y38230D01*
X763722Y38141D01*
X763772Y38052D01*
X763811Y37989D01*
X763836Y37925D01*
X763874Y37887D01*
X763887Y37849D01*
X763912Y37836D01*
Y37824D01*
X764001Y37722D01*
X764090Y37646D01*
X764280Y37506D01*
X764458Y37417D01*
X764636Y37341D01*
X764788Y37303D01*
X764903Y37290D01*
X764954Y37278D01*
X765017D01*
X765169Y37290D01*
X765309Y37303D01*
X765436Y37341D01*
X765563Y37392D01*
X765779Y37506D01*
X765957Y37646D01*
X766096Y37773D01*
X766198Y37887D01*
X766236Y37938D01*
X766262Y37976D01*
X766287Y37989D01*
Y38001D01*
X766338Y38103D01*
X766389Y38217D01*
X766465Y38471D01*
X766516Y38751D01*
X766554Y39017D01*
X766579Y39259D01*
Y39373D01*
X766592Y39462D01*
Y39538D01*
Y39602D01*
Y39640D01*
Y39652D01*
X766566Y40021D01*
X766516Y40351D01*
X766452Y40618D01*
X766363Y40846D01*
X766287Y41011D01*
X766211Y41138D01*
X766160Y41214D01*
X766147Y41240D01*
X765969Y41418D01*
X765779Y41545D01*
X765601Y41646D01*
X765423Y41710D01*
X765271Y41748D01*
X765144Y41761D01*
X765093Y41773D01*
D02*
G37*
G36*
X839871Y32162D02*
X837890D01*
X837737Y32149D01*
X837382D01*
X837293Y32137D01*
X837128D01*
X837077Y32124D01*
X837064D01*
X836886Y32086D01*
X836734Y32048D01*
X836607Y31984D01*
X836505Y31933D01*
X836416Y31870D01*
X836366Y31832D01*
X836328Y31794D01*
X836315Y31781D01*
X836226Y31667D01*
X836162Y31552D01*
X836124Y31425D01*
X836086Y31311D01*
X836074Y31209D01*
X836061Y31121D01*
Y31070D01*
Y31044D01*
X836074Y30879D01*
X836112Y30727D01*
X836150Y30600D01*
X836200Y30486D01*
X836264Y30397D01*
X836302Y30333D01*
X836340Y30295D01*
X836353Y30282D01*
X836467Y30181D01*
X836607Y30105D01*
X836734Y30041D01*
X836861Y29990D01*
X836975Y29965D01*
X837064Y29939D01*
X837128Y29927D01*
X837216D01*
X837293Y29914D01*
X837725D01*
X837979Y29901D01*
X839871D01*
Y32162D01*
D02*
G37*
G36*
Y28276D02*
X837826D01*
X837623Y28263D01*
X837445Y28250D01*
X837280Y28238D01*
X837140D01*
X837013Y28225D01*
X836899Y28212D01*
X836810Y28200D01*
X836734Y28187D01*
X836670Y28174D01*
X836620Y28161D01*
X836556Y28149D01*
X836531Y28136D01*
X836391Y28073D01*
X836264Y28009D01*
X836150Y27933D01*
X836061Y27857D01*
X835997Y27793D01*
X835947Y27730D01*
X835921Y27692D01*
X835908Y27679D01*
X835832Y27565D01*
X835781Y27438D01*
X835743Y27311D01*
X835718Y27196D01*
X835705Y27095D01*
X835693Y27018D01*
Y26968D01*
Y26942D01*
X835705Y26752D01*
X835731Y26587D01*
X835781Y26447D01*
X835832Y26333D01*
X835883Y26231D01*
X835934Y26168D01*
X835959Y26117D01*
X835972Y26104D01*
X836086Y26003D01*
X836200Y25914D01*
X836328Y25850D01*
X836442Y25799D01*
X836543Y25761D01*
X836620Y25736D01*
X836670Y25723D01*
X836696D01*
X836759Y25710D01*
X836835D01*
X836924Y25698D01*
X837026D01*
X837242Y25685D01*
X837470D01*
X837686Y25672D01*
X839871D01*
Y28276D01*
D02*
G37*
G36*
X858870Y32289D02*
X858807D01*
X858680Y32276D01*
X858565Y32251D01*
X858464Y32213D01*
X858375Y32175D01*
X858311Y32137D01*
X858260Y32099D01*
X858222Y32073D01*
X858210Y32060D01*
X858108Y31959D01*
X858032Y31832D01*
X857956Y31692D01*
X857892Y31552D01*
X857841Y31413D01*
X857791Y31298D01*
X857778Y31222D01*
X857765Y31209D01*
Y31197D01*
X857740Y31070D01*
X857702Y30917D01*
X857676Y30740D01*
X857663Y30562D01*
X857625Y30168D01*
X857613Y29774D01*
X857600Y29597D01*
Y29419D01*
X857587Y29254D01*
Y29114D01*
Y29000D01*
Y28911D01*
Y28860D01*
Y28835D01*
Y28517D01*
X857600Y28238D01*
Y27971D01*
X857613Y27730D01*
X857638Y27501D01*
X857651Y27298D01*
X857663Y27120D01*
X857689Y26968D01*
X857702Y26828D01*
X857727Y26701D01*
X857740Y26599D01*
X857752Y26523D01*
X857765Y26460D01*
X857778Y26422D01*
X857791Y26396D01*
Y26384D01*
X857854Y26193D01*
X857917Y26028D01*
X857981Y25888D01*
X858045Y25787D01*
X858108Y25710D01*
X858159Y25647D01*
X858184Y25622D01*
X858197Y25609D01*
X858298Y25533D01*
X858400Y25482D01*
X858502Y25444D01*
X858603Y25418D01*
X858680Y25406D01*
X858743Y25393D01*
X858807D01*
X858933Y25406D01*
X859048Y25431D01*
X859149Y25456D01*
X859238Y25494D01*
X859314Y25533D01*
X859365Y25571D01*
X859403Y25583D01*
X859416Y25596D01*
X859505Y25698D01*
X859594Y25825D01*
X859670Y25964D01*
X859721Y26104D01*
X859772Y26244D01*
X859810Y26358D01*
X859835Y26434D01*
X859848Y26447D01*
Y26460D01*
X859873Y26599D01*
X859899Y26752D01*
X859924Y26917D01*
X859937Y27107D01*
X859975Y27501D01*
X859988Y27895D01*
X860000Y28073D01*
Y28250D01*
X860013Y28416D01*
Y28555D01*
Y28670D01*
Y28758D01*
Y28809D01*
Y28835D01*
Y29152D01*
X860000Y29432D01*
Y29698D01*
X859988Y29952D01*
X859962Y30168D01*
X859949Y30371D01*
X859937Y30549D01*
X859911Y30714D01*
X859899Y30841D01*
X859886Y30968D01*
X859861Y31070D01*
X859848Y31146D01*
X859835Y31209D01*
Y31248D01*
X859822Y31273D01*
Y31286D01*
X859759Y31476D01*
X859696Y31641D01*
X859632Y31781D01*
X859568Y31883D01*
X859505Y31959D01*
X859454Y32022D01*
X859429Y32048D01*
X859416Y32060D01*
X859314Y32137D01*
X859213Y32187D01*
X859111Y32238D01*
X859010Y32264D01*
X858933Y32276D01*
X858870Y32289D01*
D02*
G37*
G36*
X872091Y20341D02*
X872027D01*
X871900Y20328D01*
X871786Y20303D01*
X871684Y20265D01*
X871595Y20227D01*
X871532Y20189D01*
X871481Y20150D01*
X871443Y20125D01*
X871430Y20112D01*
X871329Y20011D01*
X871253Y19884D01*
X871176Y19744D01*
X871113Y19604D01*
X871062Y19465D01*
X871011Y19350D01*
X870999Y19274D01*
X870986Y19261D01*
Y19249D01*
X870960Y19122D01*
X870922Y18969D01*
X870897Y18792D01*
X870884Y18614D01*
X870846Y18220D01*
X870833Y17826D01*
X870821Y17649D01*
Y17471D01*
X870808Y17306D01*
Y17166D01*
Y17052D01*
Y16963D01*
Y16912D01*
Y16887D01*
Y16569D01*
X870821Y16290D01*
Y16023D01*
X870833Y15782D01*
X870859Y15553D01*
X870872Y15350D01*
X870884Y15172D01*
X870910Y15020D01*
X870922Y14880D01*
X870948Y14753D01*
X870960Y14651D01*
X870973Y14575D01*
X870986Y14512D01*
X870999Y14474D01*
X871011Y14448D01*
Y14435D01*
X871075Y14245D01*
X871138Y14080D01*
X871202Y13940D01*
X871265Y13838D01*
X871329Y13762D01*
X871379Y13699D01*
X871405Y13673D01*
X871418Y13661D01*
X871519Y13585D01*
X871621Y13534D01*
X871722Y13496D01*
X871824Y13470D01*
X871900Y13457D01*
X871964Y13445D01*
X872027D01*
X872154Y13457D01*
X872269Y13483D01*
X872370Y13508D01*
X872459Y13546D01*
X872535Y13585D01*
X872586Y13623D01*
X872624Y13635D01*
X872637Y13648D01*
X872726Y13750D01*
X872815Y13877D01*
X872891Y14016D01*
X872942Y14156D01*
X872992Y14296D01*
X873030Y14410D01*
X873056Y14486D01*
X873069Y14499D01*
Y14512D01*
X873094Y14651D01*
X873119Y14804D01*
X873145Y14969D01*
X873158Y15159D01*
X873196Y15553D01*
X873208Y15947D01*
X873221Y16125D01*
Y16302D01*
X873234Y16467D01*
Y16607D01*
Y16721D01*
Y16810D01*
Y16861D01*
Y16887D01*
Y17204D01*
X873221Y17483D01*
Y17750D01*
X873208Y18004D01*
X873183Y18220D01*
X873170Y18423D01*
X873158Y18601D01*
X873132Y18766D01*
X873119Y18893D01*
X873107Y19020D01*
X873081Y19122D01*
X873069Y19198D01*
X873056Y19261D01*
Y19299D01*
X873043Y19325D01*
Y19338D01*
X872980Y19528D01*
X872916Y19693D01*
X872853Y19833D01*
X872789Y19935D01*
X872726Y20011D01*
X872675Y20074D01*
X872650Y20100D01*
X872637Y20112D01*
X872535Y20189D01*
X872434Y20239D01*
X872332Y20290D01*
X872230Y20315D01*
X872154Y20328D01*
X872091Y20341D01*
D02*
G37*
%LPD*%
D11*
X780000Y235000D02*
Y295000D01*
X880000Y235000D02*
X880000Y605000D01*
X780000Y235000D02*
X880000D01*
Y600000D02*
Y660000D01*
X780000D02*
X780000Y295000D01*
X780000Y660000D02*
X880000D01*
X20000D02*
X120000D01*
X20000D02*
X20000Y295000D01*
X120000Y600000D02*
Y660000D01*
X20000Y235000D02*
X120000D01*
X120000Y605000D01*
X20000Y235000D02*
Y295000D01*
M02*
