M48
;Layer_Color=9474304
;FILE_FORMAT=4:4
METRIC,LZ
;TYPE=PLATED
T1F00S00C0.3000
;TYPE=NON_PLATED
T2F00S00C1.0000
%
T01
X00051509Y00058014
X00059237Y00064076
X00059Y00084
X00066Y0012
X00080133Y00148239
X0011Y0012
X00110005Y00081481
X00091Y0007
X00141
X00191
X00107Y00201
X00109891Y00223387
X000924Y00214866
X00083062Y002285
X00076256Y00263419
X00068392Y00261272
X00075Y00279
X00088Y00305
X0011Y00305714
X00116Y0032
X0005869Y0032053
X00041457Y00242432
X00039799Y00231112
X00048753Y00219326
X00053868Y00213865
X00051785Y002
X00110005Y00267195
X00295719
X00295714Y00305714
X00481428
X00481433Y00267195
X00481428Y0012
X00481433Y00081481
X00441Y0007
X00391
X00341
X00295719Y00081481
X00295714Y0012
X00241Y0007
X00266Y0002
X00316
X00366
X00466
X00516
X00566
X00591Y0007
X00541
X00641
X00667147Y00081481
X00667142Y0012
X00666Y0002
X00716
X00741Y0007
X00852861Y00081481
X00852856Y0012
X00866Y0002
X00916
X00941Y0007
X00991
X00852861Y00267195
X00852856Y00305714
X00667142
X00667147Y00267195
X00616Y0002
X01016
X01066
X01116
X01166
X01216
X01266
X01316
X01366
X01391Y0007
X01341
X01291
X01224289Y00081481
X01224284Y0012
X01191Y0007
X01141
X01091
X01038575Y00081481
X0103857Y0012
X01038575Y00267195
X0103857Y00305714
X01224284
X01224289Y00267195
X01410003
X01409998Y00305714
X01466Y0032
X01491Y0017
Y0007
X01410003Y00081481
X01409998Y0012
X01410003Y00452909
X01409998Y00491428
X01491Y0047
X01466Y0042
X01491Y0057
Y0067
X01466Y0072
X01409998Y00677142
X01410003Y00638623
X01224289
X01224284Y00677142
Y00491428
X01224289Y00452909
X01038575
X0103857Y00491428
X01038575Y00638623
X0103857Y00677142
X00965Y00737
Y0075
Y00763
X00919Y0075
Y00737
X008905Y007445
X00886Y00757
X00864205Y00756516
Y00736891
X0086916Y00731392
X00864205Y00726
X00866919Y00705
X00867Y00694969
X00852856Y00677142
X00852861Y00638623
X00825956Y00694309
X0081Y00689
X00823205Y00717641
X00807Y00737
X00795247Y00745267
X00741Y00731
X00726Y0076
X00754Y00676
X00763128Y00671401
X00667142Y00677142
X00667147Y00638623
X00667142Y00491428
X00667147Y00452909
X00852861
X00852856Y00491428
X00923Y00705
X00481428Y00677142
X00481433Y00638623
X00481428Y00491428
X00481433Y00452909
X00295719
X00295714Y00491428
X00295719Y00638623
X00295714Y00677142
X0011
X00088499Y00676773
X0007427Y00686429
X00074973Y00697492
X00073991Y00706024
X00066Y0072
X00100396Y0072183
Y00731267
X00100566Y0074328
X00100019Y00712178
X00116Y0072
X00110005Y00638623
X00116Y0062
X00108Y00584
X001Y00567
X0011Y00551
X00116Y0052
X0011Y00491428
X00088144Y00490884
X00080673Y00453261
X00110005Y00452909
X00116Y0042
X0005869Y0042053
Y0052053
X00080495Y00584006
X00080406Y00638794
X0005869Y0062053
X00066Y0082
X00080406Y00823971
X00110005Y00824337
X0011Y00862856
X00088144Y00862483
X00109Y00918
X001Y00938
X0011Y00953
X00080391Y00952836
X00066Y0092
Y0102
X00081Y01009
X00110005Y01010051
X0011Y0104857
X00088Y01048
X00295714Y0104857
X00295719Y01010051
X00295714Y00862856
X00295719Y00824337
X00481433
X00481428Y00862856
X00481433Y01010051
X00481428Y0104857
X00667142
X00667147Y01010051
X00667142Y00862856
X00667147Y00824337
X00735Y00809
X00744Y00814
X00798Y00802
X0083Y00797
X00848954Y0080996
X00852861Y00824337
X00852856Y00862856
X00864Y00766
X00852861Y01010051
X00852856Y0104857
X0103857
X01038575Y01010051
X0103857Y00862856
X01038575Y00824337
X01224289
X01224284Y00862856
X01224289Y01010051
X01224284Y0104857
X01409998
X01410003Y01010051
X01491Y0097
X01466Y0092
X01491Y0087
X01466Y0082
X01410003Y00824337
X01409998Y00862856
X01491Y0077
Y0107
Y0117
Y0127
X01466Y0132
X01491Y0137
X01466Y0142
X01409998Y01419998
X01410003Y01381479
X01409998Y01234284
X01410003Y01195765
X01491Y0147
X01391
X01291
X01241
X01191
X01141
X01091
X01041
X0103857Y01419998
X01038575Y01381479
X0103857Y01234284
X01038575Y01195765
X01224289
X01224284Y01234284
X01224289Y01381479
X01224284Y01419998
X00991Y0147
X00941
X00891
X00841
X00852856Y01419998
X00852861Y01381479
X00852856Y01234284
X00852861Y01195765
X00667147
X00667142Y01234284
X00667147Y01381479
X00667142Y01419998
X00691Y0147
X00741
X00641
X00541
X00491
X00441
X00391
X00341
X00291
X00241
X00295714Y01419998
X00295719Y01381479
X00295714Y01234284
X00295719Y01195765
X00481433
X00481428Y01234284
X00481433Y01381479
X00481428Y01419998
X00191Y0147
X00091
X0011Y01419998
X00110005Y01381479
X00081Y0138
X00080618Y01327898
X00066Y0132
X00099Y0131
X00108Y01294
X00108417Y01283642
X0011Y01328
X0011Y01234284
X00088288Y01234205
X00066Y0122
X00080709Y01195287
X00110005Y01195765
T02
X00942Y007246
X0093184Y007754
X0095216
M30
