M48
;Layer_Color=9474304
;FILE_FORMAT=4:4
METRIC,LZ
;TYPE=PLATED
T1F00S00C0.2000
T3F00S00C0.7000
T4F00S00C0.7112
T5F00S00C0.8890
T6F00S00C1.0200
T7F00S00C1.1000
T8F00S00C1.3000
T9F00S00C2.7500
T10F00S00C4.6000
;TYPE=NON_PLATED
%
T01
X00662647Y00026103
X0002642Y000324
X0005142Y000824
Y003824
X0010142
X0015142
X0020142
X00206575Y00377234
X00218871Y003728
X00223607Y0035165
X0022642Y003324
X0017642
X0012642
X0015142Y002824
X0020142
X002102Y00298535
X00215249Y00271198
X0022642Y002324
X0017642
X00141Y0018375
X0013Y00174
X00119
X00109543Y00196133
X00090919Y00154925
X0007642Y001324
X0012642
X00133882Y00137
X00141Y00160133
X00192Y00151853
X002027Y00131
X0022642Y001324
X0017642
X00180561Y00123411
X0010142Y000824
X0007642Y002324
X0032642
X003274Y00253698
X00348Y00271198
X00343333Y00277155
X0034Y00285274
X00335723Y00294
X00332099Y00303785
X0030142Y002824
X0039143Y00274698
X00387Y00263698
X0037642Y002324
X00362Y00218
X0040142Y001824
X0045142
X0042642Y002324
X0042308Y00253748
X00426258Y00276198
X00432207Y00283698
X00438965Y00286046
X0045142Y00288785
X00459043Y00290647
X0042239Y00291625
X00413298Y00294
X00414037Y00303569
X00421227Y00316924
X00415138Y0035165
X00431151Y003728
X00447122Y003763
X00452415Y00381333
X00435957Y00411811
X0040142Y003824
X0037642Y003324
X00344145Y00361019
X00328192Y00386573
X0030142Y003824
X00332099Y00421783
X0034655Y00409283
X00466207Y00324226
X0045142Y000824
X0040142
X00378975Y00086272
X00361464Y0007754
X0037642Y000324
X0042642
X0032642
Y001324
X0030142Y001824
X00471525Y00208833
X0047642Y002324
X00485128Y00234
Y00226505
X00481507Y00241198
X00489043
X00500667Y00240641
X00507918Y00241198
X00505896Y00268791
X00511543Y00268698
X00516543Y00278698
X00510864Y00291198
X00504427Y00295695
X00498229Y00294864
X0049767Y00299841
X00491863Y00294273
X00495198Y00290548
X004914Y00285891
X004844Y00285089
X00484043Y00280096
X00501147Y00286172
X00485253Y00319453
X00544152Y00330876
X00544052Y00338876
X00555408Y00326277
X00561482Y00322101
X00567329Y00319012
X00574614Y00315225
X00579121Y0030797
X0058403Y00301952
X00588341Y0029525
X00607013
X0060678Y00263096
X00592Y00265346
X00596Y00272346
X00570954Y00284824
X00559829Y00296796
X00552117Y00297941
X00545117Y00297285
X00551701Y00274548
X00542346Y00270145
X00538691Y00208833
X00525478Y00215812
X0055142Y001824
X00561005Y00166294
X00561Y00141632
X00563338Y00131079
X00565615Y00119
X00575447Y00122744
X00570989Y00138636
X005884Y00146132
X0060142Y001824
X00624Y0020215
X00651583Y00186
X00661255Y00172
X006725Y00179
X0067642Y001324
X006742Y0011425
X006725Y00071879
X00677191Y00067636
X00659Y00063
X00662647Y00054013
X00652427Y0005405
X00645383Y00063
X00640817Y00073005
X00640612Y00078345
X006448Y00086405
X00652455Y00087328
X0070142Y000824
X0075142
X0080142
X00783Y00107049
X00783111Y00119248
X00847726Y00118846
X00848294Y00106974
X0085142Y001824
X0082642Y002324
X0077642
X0075142Y001824
X00656078Y002279
X0065Y00259596
X00646583Y00265401
X00642086Y0025617
X00634757Y00268481
X00638382Y00273797
X0063Y0028456
X0070142Y002824
X0072642Y003324
X0077642
X0080142Y003824
X0085142
X0075142
X006246Y0039925
X00630223Y0040695
X00634757Y00412408
X00638283Y00419
X0060142Y003824
X00586957Y00373244
X00559694Y00377385
X0055142Y003824
X00548112Y00369465
X00547941Y00408613
X00540046Y00408178
X00531543Y00399165
X00511268Y00372965
X00494206Y00384958
X00478253Y00386582
X00473835Y00241198
X00496283Y00140832
X00489043Y00120129
X00508416Y00121218
X00511543Y00125119
X00516568Y00128744
X00526726Y00132694
X00521853Y00154857
X00545485Y0012056
X00554694Y00123869
X00555617Y00114879
X0055142Y000824
X005208Y00078958
X0050142Y000824
X0052642Y000324
X0057642
X00611392Y00055662
X0060142Y000824
X0062642Y001324
X00644954Y00030275
X0077642Y000324
X0047642
X0057642Y003324
X00872524Y00393267
X00875076Y00502697
X00870021Y005077
X00875Y00746
X00838Y0074
X0082642Y007324
X0077642
X0080142Y007824
X00782758Y00806877
Y00818975
X00847726Y00818349
Y00806349
X0075142Y007824
X0070142
X0065142
X0060142
X0055142
X0050142
X004733Y00767712
X0052642Y007324
X0057642
X0060142Y006824
X00624023Y006595
X00644193Y00654
X0065475Y00652551
X00675177Y00659318
X00675176Y00619662
X00643198Y00613118
X00624023Y00605118
X00607247Y00617
X0060142Y005824
X00593Y0056604
X00586717Y005408
X0057642Y005324
X0052642
X005399Y00493244
X0054817Y00492983
X00548617Y00449951
X00547747Y00432233
X0054042Y00433203
X0057642Y004324
X00596Y00425
X00591932Y00450428
X0060142Y004824
X006506Y00483098
X00656122Y00474076
X00661108Y00429951
X006742Y00434928
X0072642Y004324
X0077642
X00783507Y00483854
X0075142Y004824
X0077642Y005324
X0072642
X0067642
X00645726Y00551385
X0065142Y005824
X00666114Y00576683
X0070142Y005824
X0075142
X0077642Y006324
X0082642
X00799Y006675
X0075142Y006824
X0070142
X0072642Y006324
X0057642
X0052642
X00490798Y00624625
X00472921Y00627975
X00486343Y00645783
X0055142Y006824
Y005824
X00531585Y00465359
X00499207Y00493244
X00486654
X0045142Y004824
X00435585Y00484348
X00428545Y00464972
X00429438Y0043574
X00447329Y00445756
X00452415Y00451776
X00440915Y00506124
X00437044Y00548961
X00450808Y00572296
X00429438Y00601631
X0042642Y006324
X0037642
X0040142Y006824
X0045142
X0042642Y007324
X00424038Y00758543
X004279Y00762962
X00418838Y00753886
X00414667Y00750163
X0032642Y007324
X003125Y00774375
X00297098Y0078
X0028721Y00776669
X0025142Y007824
X0020142
X00181836Y00780327
X00184854Y00804517
X0015142Y007824
X0010142
X00118526Y00765043
X00126588Y00751902
X001275Y00736
X001385
X00141Y0072
X001265
X00118526Y00711117
X0010142Y006824
X0015142
X00183998Y00696867
X00199Y00688142
X00208
X002162Y0073796
X0022642Y007324
X00189998Y0073816
X00153Y00729237
X0007642Y007324
Y006324
X0012642
X0017642
X0020142Y005824
X0025142
X0030142
X0035142
X0037642Y005324
X00387Y00473848
X0039143Y0046986
X0040142Y004824
X0035142
X0034Y00474722
X00335723Y0044804
X0037642Y004324
X0030142Y004824
X0020142
X0015142
X0017642Y005324
X0012642
X0015142Y005824
X0027642Y006324
X0030142Y006824
X0017642Y004324
X0012642
X0002642Y005324
Y006324
X0005142Y006824
Y007824
X0002642Y008324
T03
X007327Y0024
Y002527
Y002654
Y002781
Y002908
X007454
Y002781
Y002654
Y002527
Y0024
T04
X0046572Y00354911
X00534785Y00517737
X005346Y00652104
X00389202Y0073625
T05
X004192Y00042037
Y00067437
X004446
Y00042037
X0047
Y00067437
X004954
X005208
Y00042037
X004954
X006292Y007146
Y0074
X006546
X0068
X007054
X007308
Y007146
X007054
X0068
X006546
T06
X00260141Y00208833
Y00234233
Y00259633
Y00285033
Y00310433
Y00335833
Y00361233
Y00386633
Y00412033
X00285541
Y00386633
Y00361233
Y00335833
Y00310433
Y00285033
Y00259633
Y00234233
Y00208833
Y00437433
X00260141
Y00462833
Y00488233
Y00513633
Y00539033
Y00564433
Y00589833
Y00615233
Y00640633
Y00666033
Y00691433
X00285541
Y00666033
Y00640633
Y00615233
Y00589833
Y00564433
Y00539033
Y00513633
Y00488233
Y00462833
T07
X000757Y000423
Y000677
X001011
X001265
X001519
Y000423
X001773
X002027
Y000677
X001773
X002281
Y000423
X002535
Y000677
X002789
Y000423
X003043
Y000677
X001265Y000423
X001011
X0071Y003884
X007354
Y004138
X0071
Y004392
X007354
Y004646
X0071
Y0049
X007354
Y005154
X0071
Y005408
Y005662
Y005916
Y00617
X007354
Y005916
Y005662
Y005408
X003043Y008323
Y008577
X002789
Y008323
X002535
Y008577
X002281
Y008323
X002027
Y008577
X001773
Y008323
X001519
X001265
X001011
X000757
Y008577
X001011
X001265
X001519
T08
X003976Y00822
X004484
X004992
X0055
X006008
X006516
X007024
X007532
T09
X00042841Y00160133
X00272841
Y00740133
X00042841
T10
X0007Y00325
X0083
Y0045
Y00575
X0007
Y0045
M30
