M48
;Layer_Color=9474304
;FILE_FORMAT=4:4
METRIC,LZ
T11F00S00C2.4000
%
G90
G05
T11
G00X00893446Y-00011495
M15
G01X00896601Y-00010021
G01X00898485Y-00008485
G01X00908485Y00001515
G01X00910564Y00004308
G01X00911754Y00007581
G01X00912Y0001
G01X00912Y00886237
G01X00911495Y00889682
G01X0090937Y00893733
G01X0089836Y00907496
G01X00895813Y00909871
G01X00892691Y00911415
G01X00888989Y00912
G01X0001Y00912
G01X00006554Y00911495
G01X00003399Y00910021
G01X00001515Y00908485
G01X-00008485Y00898485
G01X-00010564Y00895692
G01X-00011754Y00892418
G01X-00012Y0089
G01X-00012Y0001
G01X-00011495Y00006554
G01X-00010021Y00003399
G01X-00008485Y00001515
G01X00001515Y-00008485
G01X00004308Y-00010564
G01X00007581Y-00011754
G01X0001Y-00012
G01X0089Y-00012
G01X00893446Y-00011495
M16
M17
M30
