M48
;Layer_Color=9474304
;FILE_FORMAT=4:4
METRIC,LZ
;TYPE=PLATED
T1F00S00C0.3000
T2F00S00C1.2000
T3F00S00C3.0000
;TYPE=NON_PLATED
T4F00S00C1.0000
T5F00S00C1.1000
T6F00S00C1.6000
T8F00S00C3.2000
%
T01
X0010142Y002324
X0015142
X0020142
X0025142
X0030142
X0035142
X0040142
X0045142
X0042642Y001824
X0037642
X0032642
X0027642
X0022642
X0017642
Y002824
X0012642
X0007642
X0010142Y003324
X0015142
X0020142
X0025142
X0030142
X0035142
X0040142
X0045142
X0042642Y003824
X0037642
X0032642
X0027642
X0022642
X0017642
X0012642
X0007642
X0022642Y002824
X0027642
X0032642
X0037642
X0042642
X0047642
X0052642
X0057642
X0062642
X0067642
X0070142Y002324
X0075142
X0080142
X0085142
X0082642Y001824
X0077642
X0072642
X0067642
X0062642
X0057642
X0052642
X0047642
X0050142Y002324
X0055142
X0060142
X0065142
Y003324
X0060142
X0055142
X0050142
X0052642Y003824
X0047642
X0057642
X0067642
X0072642
X0077642
X0082642
X0085142Y003324
X0080142
X0075142
X0070142
X0077642Y002824
X0082642
X0087642
X0092642
X0097642
X0102642
X0107642
X0112642
X0117642
X0122642
X0120142Y003324
X0115142
X0110142
X0105142
X0100142
X0095142
X0090142
X0087642Y003824
X0092642
X0097642
X0102642
X0107642
X0112642
X0117642
X0122642
X0125142Y003324
Y002324
X0120142
X0115142
X0110142
X0105142
X0100142
X0095142
X0090142
X0092642Y001824
X0097642
X0102642
X0107642
X0112642
X0117642
X0122642
X0087642
X0127642
X0132642
X0137642
X0142642
X0147642
X0152642
X0157642
X0162642
X0165142Y002324
X0160142
X0155142
X0150142
X0145142
X0140142
X0135142
X0130142
X0132642Y002824
X0137642
X0142642
X0147642
X0152642
X0157642
X0162642
X0160142Y003324
X0165142
X0162642Y003824
X0157642
X0152642
X0147642
X0142642
X0137642
X0132642
X0127642
X0130142Y003324
X0135142
X0140142
X0145142
X0150142
X0155142
X0127642Y002824
X0167642
X0170142Y003324
X0175142
X0180142
X0185142
X0190142
X0195142
X0200142
X0205142
X0202642Y003824
X0197642
X0192642
X0187642
X0182642
X0177642
X0172642
X0167642
X0170142Y002324
X0175142
X0180142
X0185142
X0190142
X0195142
X0200142
X0205142
X0202642Y001824
X0197642
X0192642
X0187642
X0182642
X0177642
X0172642
X0167642
X0177642Y002824
X0182642
X0187642
X0192642
X0197642
X0202642
X0207642
X0212642
X0217642
X0222642
X0227642
X0232642
X0237642
X0242642
X0240142Y003324
X0235142
X0230142
X0225142
X0220142
X0215142
X0210142
X0212642Y003824
X0217642
X0222642
X0227642
X0232642
X0237642
X0242642
X0240142Y002324
X0235142
X0230142
X0225142
X0220142
X0215142
X0210142
X0212642Y001824
X0207642
X0217642
X0222642
X0227642
X0232642
X0237642
X0242642
X0207642Y003824
X0247642
X0252642
X0257642
X0262642
X0267642
X0272642
X0277642
X0275142Y003324
X0270142
X0265142
X0260142
X0255142
X0250142
X0245142
X0247642Y002824
X0252642
X0257642
X0262642
X0267642
X0270142Y002324
X0275142
X0280142
X0282642Y002824
X0277642
X0280142Y003324
X0282642Y001824
X0277642
X0272642
X0267642
X0262642
X0257642
X0252642
X0247642
X0245142Y002324
X0250142
X0255142
X0260142
X0265142
X0285142
X0290142
X0295142
X0300142
X0305142
X0310142
X0315142
X0320142
X0317642Y001824
X0312642
X0307642
X0302642
X0297642
X0292642
X0287642
Y002824
X0292642
X0297642
X0302642
X0307642
X0312642
X0317642
X0322642
X0320142Y003324
X0315142
X0310142
X0305142
X0300142
X0295142
X0290142
X0285142
X0287642Y003824
X0292642
X0297642
X0302642
X0307642
X0312642
X0317642
X0322642
Y001824
X0325142Y002324
X0327642Y002824
X0332642
X0330142Y003324
X0335142
X0332642Y003824
X0327642
X0325142Y003324
Y004324
X0330142
X0335142
X0332642Y004824
X0327642
X0330142Y005324
X0325142
X0327642Y005824
X0332642
X0330142Y006324
X0325142
X0327642Y006824
X0332642
X0335142Y006324
Y007324
X0330142
X0325142
X0327642Y007824
X0332642
X0335142Y005324
X0320142
X0315142
X0310142
X0305142
X03016135Y00519033
X0300142Y005324
X0295142
X02941089Y00507408
X0296425Y005025
X02955Y00485
X02935728Y00484616
X0292642Y004824
X0287642
X0285142Y005324
X0290142
X0287642Y005824
X0292642
X0297642
X0302642
X0307642
X0312642
X0317642
X0322642
X0320142Y006324
X0315142
X0310142
X0305142
X0300142
X0295142
X0290142
X0285142
X0287642Y006824
X0292642
X0297642
X0302642
X0307642
X0312642
X0317642
X0322642
X0320142Y007324
X0315142
X0310142
X0305142
X0300142
X0295142
X0290142
X0285142
X0287642Y007824
X0292642
X0297642
X0302642
X0307642
X0312642
X0317642
X0322642
Y004824
X0317642
X0312642
X0307642
X0302642
X0300142Y004324
X0305142
X0310142
X0315142
X0320142
X0295142
X0290142
X0285142
X0280142
X0275142
X0270142
X0265142
X0260142
X0255142
X0250142
X0245142
X0247642Y004824
X0252642
X0257642
X0262642
X0267642
X0272642
X0277642
X0282642
X0280142Y005324
X0275142
X0270142
X0265142
X0260142
X0255142
X0250142
X0245142
X0247642Y005824
X0252642
X0257642
X0262642
X0267642
X0272642
X0277642
X0282642
X0280142Y006324
X0275142
X0270142
X0265142
X0260142
X0255142
X0250142
X0245142
X0247642Y006824
X0252642
X0257642
X0262642
X0267642
X0272642
X0277642
X0282642
X0280142Y007324
X0275142
X0270142
X0265142
X0260142
X0255142
X0250142
X0245142
X0247642Y007824
X0252642
X0257642
X0262642
X0267642
X0272642
X0277642
X0282642
X0242642
X0237642
X0232642
X0227642
X0222642
X0217642
X0212642
X0207642
X0210142Y007324
X0215142
X0220142
X0225142
X0230142
X0235142
X0240142
X0242642Y006824
X0237642
X0232642
X0227642
X0222642
X0217642
X0212642
X0207642
X0210142Y006324
X0215142
X0220142
X0225142
X0230142
X0235142
X0240142
X0237642Y005824
X0232642
X0227642
X0222642
X0217642
X0212642
X0207642
X0210142Y005324
X0215142
X0220142
X0225142
X0230142
X0235142
X0240142
X0242642Y004824
X0237642
X0232642
X0227642
X0222642
X0217642
X0212642
X0207642
X0210142Y004324
X0215142
X0220142
X0225142
X0230142
X0235142
X0240142
X0242642Y005824
X0202642
X0197642
X0192642
X0187642
X0182642
X0177642
X0172642
X0167642
X0170142Y005324
X0175142
X0180142
X0185142
X0190142
X0195142
X0200142
X0205142
X0202642Y004824
X0197642
X0192642
X0187642
X0182642
X0177642
X0172642
X0167642
X0170142Y004324
X0175142
X0180142
X0185142
X0190142
X0195142
X0200142
X0205142
Y006324
X0200142
X0195142
X0190142
X0185142
X0180142
X0175142
X0170142
X0172642Y006824
X0177642
X0182642
X0187642
X0192642
X0197642
X0202642
X0200142Y007324
X0195142
X0190142
X0185142
X0180142
X0175142
X0170142
X0167642Y007824
X0172642
X0177642
X0182642
X0187642
X0192642
X0197642
X0202642
X0205142Y007324
X0167642Y006824
X0162642
X0157642
X0152642
X0147642
X0142642
X0137642
X0132642
X0127642
X0130142Y006324
X0135142
X0140142
X0145142
X0150142
X0155142
X0160142
X0165142
X0162642Y005824
X0157642
X0152642
X0147642
X0142642
X0137642
X0132642
X0127642
X0130142Y005324
X0135142
X0140142
X0145142
X0150142
X0155142
X0160142
X0165142
X0162642Y004824
X0157642
X0152642
X0147642
X0142642
X0137642
X0132642
X0127642
X0130142Y004324
X0135142
X0140142
X0145142
X0150142
X0155142
X0160142
X0165142
Y007324
X0160142
X0155142
X0150142
X0145142
X0140142
X0135142
X0130142
X0132642Y007824
X0137642
X0142642
X0147642
X0152642
X0157642
X0162642
X0127642
X0122642
X0117642
X0112642
X0107642
X0102642
X0097642
X0092642
X0087642
X0090142Y007324
X0095142
X0100142
X0105142
X0110142
X0115142
X0120142
X0125142
X0122642Y006824
X0117642
X0112642
X0107642
X0102642
X0097642
X0092642
X0087642
X0090142Y006324
X0095142
X0100142
X0105142
X0110142
X0115142
X0120142
X0125142
X0122642Y005824
X0117642
X0112642
X0107642
X0102642
X0097642
X0092642
X0087642
X0090142Y005324
X0095142
X0100142
X0105142
X0110142
X0115142
X0120142
X0125142
X0122642Y004824
X0117642
X0112642
X0107642
X0102642
X0097642
X0092642
X0087642
X0090142Y004324
X0095142
X0100142
X0105142
X0110142
X0115142
X0120142
X0125142
X0085142
X0080142
X0075142
X0070142
X0065142
X0060142
X0055142
X0050142
X00502117Y00478447
X00505Y004965
X00510069Y00505
X0052642Y004824
X00485Y00485
X0057642Y004824
X0062642
X0067642
X0072642
X0077642
X0082642
X0080142Y005324
X0085142
X0082642Y005824
X0077642
X0072642
X0067642
X0062642
X0057642
X0052642
X0047642
Y006824
X0052642
X0057642
X0062642
X0067642
X0072642
X0077642
X0082642
X0085142Y007324
X0080142
X0075142
X0070142
X0065142
X0060142
X0055142
X0057642Y007824
X0062642
X0067642
X0072642
X0077642
X0082642
X0085142Y006324
X0080142
X0075142
X0070142
X0065142
X0060142
X0055142
Y005324
X0060142
X0065142
X0070142
X0075142
X0052642Y007824
X0047642
X0042642
X0037642
X0032642
X0027642
X0022642
X0017642
X0012642
X0007642
X0010142Y007324
X0015142
X0020142
X0025142
X0030142
X0035142
X0040142
X0045142
X0042642Y006824
X0037642
X0032642
X0027642
X0022642
X0017642
X0012642
X0007642
X0010142Y006324
X0015142
X0020142
X0025142
X0030142
X0035142
X0040142
X0045142
X0042642Y005824
X0037642
X0032642
X0027642
X0022642
X0017642
X0012642
X0007642
X0010142Y005324
X0015142
X0020142
X0025142
X0030142
X0035142
X0040142
X0045142
X0042642Y004824
X0037642
X0032642
X0027642
X0022642
X0017642
X0012642
X0007642
X0010142Y004324
X0015142
X0020142
X0025142
X0030142
X0035142
X0040142
X0045142
Y008324
X0040142
X0035142
X0030142
X0025142
X0020142
X0015142
X0010142
X0012642Y008824
X0017642
X0022642
X0027642
X0032642
X0037642
X0042642
X0045142Y009324
X0040142
X0035142
X0030142
X0025142
X0020142
X0015142
X0010142
X0012642Y009824
X0017642
X0022642
X0027642
X0032642
X0037642
X0042642
X0040142Y010324
X0045142
X0042642Y010824
X0037642
X0032642
X0027642
X0022642
X0017642
X0012642
X0007642
X0010142Y010324
X0015142
X0020142
X0025142
X0030142
X0035142
Y011324
X0040142
X0037642Y011824
X0032642
X0027642
X0022642
X0017642
X0012642
X0007642
X0010142Y011324
X0015142
X0020142
X0025142
X0030142
X0007642Y009824
Y008824
X0047642
X0052642
X0057642
X0062642
X0067642
X0072642
X0077642
X0082642
X0085142Y009324
X0080142
X0075142
X0070142
X0065142
X0060142
X0055142
X0057642Y009824
X0062642
X0067642
X0072642
X0077642
X0082642
X0085142Y010324
X0080142
X0075142
X0070142
X0065142
X0067642Y010824
X0072642
X0077642
X0082642
X0080142Y011324
X0075142
X0077642Y011824
X0082642
X0085142Y011324
X0065142
X0067642Y011824
X0062642
X00503132Y01207958
X0052642Y010824
X0057642
X0055142Y010324
X0050142
X0047642Y009824
Y010824
X0055142Y008324
X0060142
X0065142
X0070142
X0075142
X0080142
X0085142
X0090142
X0095142
X0100142
X0105142
X0110142
X0115142
X0120142
X0125142
X0122642Y008824
X0117642
X0112642
X0107642
X0102642
X0097642
X0092642
X0087642
Y009824
X0092642
X0097642
X0102642
X0100142Y009324
X0105142
X0110142
X0115142
X0120142
X0125142
X0122642Y009824
X0117642
X0112642
X0095142Y010324
X0090142
X0087642Y010824
X0092642
X0090142Y011324
X0095142
X0097642Y011824
X0092642
X0087642
X0127642Y009824
X0132642
X0137642
X0142642
X0147642
X0152642
X0157642
X0162642
X0160142Y009324
X0155142
X0150142
X0145142
X0142642Y008824
X0137642
X0132642
X0127642
X0130142Y008324
X0135142
X0140142
X0145142
X0150142
X0155142
X0160142
X0165142
X0162642Y008824
X0157642
X0152642
X0147642
X0135142Y009324
X0130142
X0165142
X0170142
X0175142
X0180142
X0185142
X0190142
X0195142
X0200142
X0202642Y009824
X0197642
X0192642
X0187642
X0182642
X0177642
Y008824
X0182642
X0187642
X0192642
X0197642
X0202642
X0205142Y008324
X0200142
X0195142
X0190142
X0185142
X0180142
X0175142
X0170142
X0172642Y008824
X0167642
Y009824
X0207642
X0212642
X0217642
X0222642
X0227642
X0232642
X0235142Y009324
X0240142
X0237642Y008824
X0242642
X0240142Y008324
X0235142
X0230142
X0225142
X0220142
X0215142
X0210142
X0212642Y008824
X0217642
X0222642
X0227642
X0232642
X0230142Y009324
X0225142
X0220142
X0215142
X0210142
X0207642Y008824
X0242642Y009824
X0247642
X0252642
X0257642
X0262642
X0267642
X0272642
X0277642
X0282642
X0280142Y009324
X0275142
X0270142
X0265142
X0260142
X0257642Y008824
X0252642
X0247642
X0250142Y008324
X0245142
Y009324
Y010324
X0250142
X0255142
X0260142
X0265142
X0270142
X0275142
X0280142
X0277642Y010824
X0282642
X0280142Y011324
X0275142
X0270142
X0265142
X0260142
X0255142
X0250142
X0245142
X0247642Y011824
X0252642
X0257642
X0262642
X0267642
X0272642
X0277642
X0282642
X0272642Y010824
X0267642
X0262642
X0257642
X0252642
X0255142Y008324
X0260142
X0265142
X0270142
X0275142
X0280142
X0282642Y008824
X0277642
X0272642
X0267642
X0262642
X0287642
X0292642
X0297642
X0302642
X0307642
X0312642
X0317642
X0322642
X0320142Y009324
X0315142
X0310142
X0305142
X0300142
X0295142
X0290142
X0285142
X0287642Y009824
X0292642
X0297642
X0302642
X0307642
X0312642
X0317642
X0322642
X0320142Y010324
X0315142
X0310142
X0305142
X0300142
X0295142
X0290142
X0285142
X0287642Y010824
X0292642
X0297642
X02958615Y01112377
X02967327Y01133415
X02949051Y01134905
X02939981
X02928089Y01135112
X0290142Y011324
X02901198Y01162656
X02894065Y01162126
X02901198Y01186377
X02912615
X02945183Y01185706
X02980755Y01182637
X02984654Y0117554
X02975505Y01176468
X029851Y01148402
X0300142Y011324
X0305142
X0310142
X0315142
X0320142
X0317642Y011824
X0322642
Y010824
X0317642
X0312642
X0307642
X0302642
Y011824
X0307642
X0312642
X0285142Y011324
Y008324
X0290142
X0295142
X0300142
X0305142
X0310142
X0315142
X0320142
X0325142
X0330142
X0335142
X0332642Y008824
X0327642
X0330142Y009324
X0335142
X0332642Y009824
X0327642
X0330142Y010324
X0335142
X0332642Y010824
X0327642
X0330142Y011324
X0335142
X0332642Y011824
X0327642
X0325142Y011324
Y010324
Y009324
Y012324
X0330142
X0335142
X0332642Y012824
X0327642
X0330142Y013324
X0335142
X0332642Y013824
X0327642
X0325142Y014324
X0330142
X0335142
X0332642Y014824
X0327642
X0325142Y015324
X0330142
X0335142
X0332642Y015824
X0327642
X0325142Y013324
X0320142
X0315142
X0310142
X0305142
X0300142
X0295142
X0290142
X0292642Y013824
X0297642
X0302642
X0307642
X0312642
X0317642
X0322642
X0320142Y014324
X0315142
X0310142
X0305142
X0300142
X0295142
X0290142
X0285142
X0287642Y014824
X0292642
X0297642
X0302642
X0307642
X0312642
X0317642
X0322642
X0320142Y015324
X0315142
X0310142
X0305142
X0300142
X0295142
X0290142
X0285142
X0287642Y015824
X0292642
X0297642
X0302642
X0307642
X0312642
X0317642
X0322642
Y012824
X0317642
X0312642
X0307642
X0302642
X0300142Y012324
X0305142
X0310142
X0315142
X0320142
X02936868Y012477
Y01261742
X0290142Y012324
X0285142
X0287642Y013824
X0277642
X0272642
X0270142Y014324
X0265142
X0267642Y014824
X0262642
X0257642
X0252642
X0247642
X0250142Y015324
X0255142
X0257642Y015824
X0252642
X0247642
X0245142Y015324
Y014324
X0255142
X0257642Y013824
X0262642
X0260142Y013324
X0255142
X0250142
X0245142
X0247642Y012824
X0252642
X0257642
X0262642
X0267642
X0272642
X0275142Y012324
X0270142
X0265142
X0260142
X0255142
X0250142
X0245142
X0265142Y013324
X0275142
X0280142
X0282642Y012824
X0280142Y014324
X0275142
X0277642Y014824
X0282642
X0280142Y015324
X0275142
X0270142
X0265142
X0267642Y015824
X0272642
X0277642
X0282642
X0262642
X0272642Y014824
X0097642
X0092642
X0090142Y014324
X0095142
X0097642Y013824
X0095142Y013324
X0090142
X0092642Y012824
X0097642
X0095142Y012324
X0090142
X0087642Y012824
X0090142Y015324
X0095142
X0092642Y015824
X0097642
X0082642
X0077642
X0072642
X0075142Y015324
X0080142
X0082642Y014824
X0077642
X0072642
X0067642
X0062642
X0065142Y014324
X0070142
X0075142
X0080142
X0082642Y013824
X0077642
X0072642
X0067642
X0070142Y013324
X0075142
X0080142
X0077642Y012824
X0072642
X0067642
X0062642
X0057642
X00531987Y01281
X00537971Y01293616
X00536494Y01307289
X00544875Y01307676
X0055142Y013324
X00511911Y01334796
X0050002
X00490949
X00470343Y01335746
X00481385Y01357323
X0052642Y013824
X0057642
X0060142Y014324
X0055142
X0052642Y014824
X0047642
X0050142Y015324
X0055142
X0052642Y015824
X0047642
X0057642
X0062642
X0065142Y015324
X0070142
X0065142Y013324
X0060142
Y012324
X0065142
X0070142
X0075142
X0085142
X00503132Y01222001
X0045142Y012324
X0040142
X0035142
X0030142
X0025142
X0020142
X0015142
X0010142
X0012642Y012824
X0007642
X0010142Y013324
X0015142
X0020142
X0025142
X0030142
X0035142
X0040142
X00436571Y0133535
X0045142Y013324
X00455Y01321198
X00445965Y01321298
X00431009Y01319932
X0042642Y013824
X0037642
X0032642
X0027642
X0022642
X0017642
X0012642
X0007642
X0010142Y014324
X0015142
X0020142
X0025142
X0030142
X0035142
X0040142
X0045142
X0042642Y014824
X0037642
X0032642
X0027642
X0022642
X0017642
X0012642
X0007642
X0010142Y015324
X0015142
X0020142
X0025142
X0030142
X0035142
X0040142
X0045142
X0042642Y015824
X0037642
X0032642
X0027642
X0022642
X0017642
X0012642
X0007642
X0017642Y012824
X0022642
X0027642
X0032642
X0037642
X0040142Y016324
X0045142
X0042642Y016824
X0037642
X0032642
X0027642
X0022642
X0017642
X0012642
X0007642
X0010142Y016324
X0015142
X0020142
X0025142
X0030142
X0035142
Y017324
X0040142
X0045142
X0042642Y017824
X0037642
X0032642
X0027642
X0022642
X0017642
X0012642
X0007642
X0010142Y017324
X0015142
X0020142
X0025142
X0030142
Y018324
X0025142
X0020142
X0015142
X0010142
X0012642Y018824
X0017642
X0022642
X0027642
X0032642
X0037642
X0042642
X0040142Y019324
X0035142
X0030142
X0025142
X0020142
X0015142
X0010142
X0007642Y019824
X0012642
X0017642
X0022642
X0027642
X0032642
X0037642
X0042642
X0045142Y019324
Y018324
X0040142
X0035142
X0007642Y018824
X0047642
X0052642
X0057642
X0062642
X0067642
X0072642
X0075142Y019324
X0070142
X0065142
X0060142
X0055142
X0050142
X0047642Y019824
X0052642
X0057642
X0062642
X0067642
X0072642
X0082642
Y018824
Y017824
Y016824
X0080142Y016324
X0075142
X0072642Y016824
X0067642
X0062642
X0057642
X0052642
X0047642
X0050142Y016324
X0055142
X0060142
X0065142
Y017324
X007Y01732
X0075142Y017324
X0072642Y017824
X0067642
X0062642
X0057642
X0052642
X0047642
X0050142Y017324
X0055142
X0060142
Y018324
X0055142
X0050142
X0065142
X0070142
X0075142
X0090142
X0095142
X0097642Y018824
X0092642
X0090142Y019324
X0095142
X0097642Y019824
X0092642
Y017824
X0097642
Y016824
X0092642
X0090142Y016324
X0095142
X0090142Y017324
X0250142
X0255142
X0257642Y017824
X0262642
X0265142Y018324
X0270142
X0275142
X0280142
X0282642Y018824
X0277642
X0272642
X0267642
X0262642
X0257642
X0252642
X0247642
X0250142Y019324
X0245142
X0247642Y019824
X0252642
X0257642
X0262642
X0267642
X0272642
X0277642
X0282642
X0280142Y019324
X0275142
X0270142
X0265142
X0255142
Y018324
X0250142
X0245142
X0247642Y017824
X0252642
Y016824
X0257642
X0262642
X0267642
X0272642
X0277642
X0282642
X0280142Y017324
X0275142
X0273325Y01732
X0270142Y017324
X0265142
Y016324
X0270142
X0275142
X0280142
X0277642Y017824
X0272642
X0282642
X0255142Y016324
X0250142
X0245142
X0247642Y016824
X0287642
X0292642
X0297642
X0302642
X0307642
X0312642
X0317642
X0322642
X0320142Y017324
X0315142
X0310142
X0305142
X0300142
X0295142
X0290142
X0285142
X0287642Y017824
X0292642
X0297642
X0302642
X0307642
X0312642
X0317642
X0322642
X0320142Y018324
X0315142
X0310142
X0305142
X0300142
X0295142
X0290142
X0285142
X0287642Y018824
X0292642
X0297642
X0302642
X0307642
X0312642
X0317642
X0322642
X0320142Y019324
X0315142
X0310142
X0305142
X0300142
X0295142
X0290142
X0285142
X0287642Y019824
X0292642
X0297642
X0302642
X0307642
X0312642
X0317642
X0322642
X0320142Y016324
X0315142
X0310142
X0305142
X0300142
X0295142
X0290142
X0285142
X0325142
X0330142
X0335142
X0332642Y016824
X0327642
X0325142Y017324
X0330142
X0335142
X0332642Y017824
X0327642
X0325142Y018324
X0330142
X0335142
X0332642Y018824
X0327642
X0330142Y019324
X0335142
X0332642Y019824
X0327642
X0325142Y019324
Y020324
X0330142
X0335142
X0332642Y020824
X0327642
X0330142Y021324
X0335142
X0332642Y021824
X0327642
X0325142Y022324
X0330142
X0335142
X0332642Y022824
X0327642
X0325142Y023324
X0330142
X0335142
X0332642Y023824
X0327642
X0325142Y021324
X0320142
X0315142
X0310142
X0305142
X0300142
X02991542Y02154074
X029849Y02175213
X02977287Y02176021
X02971678Y02180678
X02944928Y0218728
X02908172Y0218778
X02897076Y02186574
X02894371Y02162303
X02902115Y02162385
X0290142Y021324
X02928146Y0213588
X02939981Y02135205
X02949051
X02965564Y02135147
X02958615Y02112678
X0297642Y020824
X0292642
X0287642
X0290142Y020324
X0285142
X0295142
X0300142
X0305142
X0310142
X0315142
X0320142
X0317642Y020824
X0322642
X0312642
X0307642
X0302642
Y021824
X0307642
X0312642
X0317642
X0322642
X0320142Y022324
X0315142
X0310142
X0305142
X0300142
X0302642Y022824
X0307642
X0312642
X0317642
X0322642
X0320142Y023324
X0315142
X0310142
X0305142
X0300142
X0295142
X0290142
X0292642Y023824
X0297642
X0302642
X0307642
X0312642
X0317642
X0322642
X0287642
X0290142Y022324
X0285142
Y021324
X02936868Y02248
Y02262043
X0282642Y022824
X0280142Y023324
X0275142
X0277642Y023824
X0272642
X0262642
X0257642
X0252642
X0255142Y023324
X0250142
X0245142
X0247642Y022824
X0252642
X0257642
X0262642
X0267642
X0272642
X0270142Y022324
X0265142
X0267642Y021824
X0262642
X0257642
X0252642
X0247642
X0250142Y021324
X0255142
X0257642Y020824
X0262642
X0267642
X0272642
X0277642
X0282642
X0280142Y020324
X0275142
X0270142
X0265142
X0255142
X0245142
X0247642Y020824
X0245142Y021324
Y022324
X0250142
X0255142
X0265142Y021324
X0270142
X0275142
X0280142
X0277642Y021824
X0282642
X0272642
X0275142Y022324
X0265142Y023324
X0095142
X0090142
X0092642Y022824
X0097642
X0095142Y022324
X0090142
X0092642Y021824
X0097642
X0095142Y021324
X0090142
X0097642Y020824
X0092642Y023824
X0082642
X0072642
X0067642
X0070142Y023324
X0075142
X0072642Y022824
X0067642
X0062642
X0057642
X00557709Y02307599
X00549125
X00541Y02292797
X00527385Y0228323
X00512385Y02334795
X00500019
X00490949
X00470959Y02332533
X00481385Y02357323
X0052642Y023824
X0057642
X0060142Y023324
X0065142
Y022324
X0070142
X0075142
X0072642Y021824
X0067642
X0062642
X0060142Y022324
X0055142
X00503132Y02222
Y02207957
X0052642Y020824
X0047642
X0050142Y020324
X0055142
X0060142
X0065142
X0070142
X0075142
X0072642Y020824
X0067642
X0062642
X0057642
X0065142Y021324
X0070142
X0075142
X0082642Y021824
Y020824
Y022824
X0055142Y023324
X0045142
X00455196Y02321811
X00446286Y02320694
X00434189Y02326259
X00439478Y02339511
X0040142Y023324
X0035142
X0030142
X0025142
X0020142
X0015142
X0010142
X0007642Y023824
X0012642
X0017642
X0022642
X0027642
X0032642
X0037642
X0042642
X0037642Y022824
X0032642
X0027642
X0022642
X0017642
X0012642
X0007642
X0010142Y022324
X0015142
X0020142
X0025142
X0030142
X0035142
X0040142
X0045142
X0037642Y021824
X0032642
X0027642
X0022642
X0017642
X0012642
X0007642
X0010142Y021324
X0015142
X0020142
X0025142
X0030142
X0035142
X0040142
X0037642Y020824
X0042642
X0040142Y020324
X0045142
X0035142
X0030142
X0025142
X0020142
X0015142
X0010142
X0007642Y020824
X0012642
X0017642
X0022642
X0027642
X0032642
X0005142Y023324
X0000142
X-0004858
X-0007358Y023824
X-0002358
X0002642
X0005142Y024324
X0000142
X-0004858
X-0002358Y024824
X-0007358
X-0004858Y025324
X0000142
X0005142
X0002642Y025824
X-0002358
X-0007358
X-0004858Y026324
X0000142
X0005142
X0002642Y026824
X-0002358
X-0007358
X-0004858Y027324
X0000142
X0005142
X0002642Y027824
X-0002358
X-0007358
X0002642Y024824
X0007642
X0012642
X0017642
X0022642
X0027642
X0032642
X0037642
X0042642
X0040142Y025324
X0035142
X0030142
X0025142
X0020142
X0015142
X0010142
X0012642Y025824
X0007642
X0010142Y026324
X0015142
X0020142
X0025142
X0030142
X0035142
X0040142
X0045142
X0042642Y026824
X0037642
X0032642
X0027642
X0022642
X0017642
X0012642
X0007642
X0010142Y027324
X0015142
X0020142
X0025142
X0030142
X0035142
X0040142
X0045142
X0042642Y027824
X0037642
X0032642
X0027642
X0022642
X0017642
X0012642
X0007642
X0017642Y025824
X0022642
X0027642
X0032642
X0037642
X0042642
X0045142Y025324
X0040142Y024324
X0035142
X0030142
X0025142
X0020142
X0015142
X0010142
X0050142
X0055142
X0060142
X0065142
X0070142
X0075142
Y025324
X0070142
X0065142
X0060142
X0057642Y025824
X0052642
X0047642
X0050142Y025324
X0047642Y024824
X0057642
X0062642
X0067642
Y025824
X0072642
X0075142Y026324
X0070142
X0067642Y026824
X0062642
X0057642
X0052642
X0047642
X0050142Y027324
X0055142
X0060142
X0065142
X0070142
X0072642Y027824
X0077642
X00854211Y0276146
X00859829Y02754549
X0082642Y026824
Y025824
Y024824
X00854211Y02447222
X00860061Y02452662
X0060142Y026324
X0055142
X0050142
X0047642Y027824
X0052642
X0057642
X0067642
X0087642
X00875535Y02767144
X00866773Y02747072
X0090142Y027324
X0095142
X0100142
X0105142
X0110142
X0115142
X0120142
X0117642Y027824
X0112642
X0107642
X0102642
X0097642
X0092642
Y026824
X0097642
X0102642
X0107642
X0112642
X0110142Y026324
X0105142
X0100142
X0095142
X0090142
X0092642Y025824
X0097642
X0102642
X0107642
X0105142Y025324
X01042Y02533975
X0100142Y025324
X0097642Y024824
X010295Y02485054
X01034429Y0245933
X0106874Y02459365
X010695Y0248565
X01122Y02533604
X01137Y02534083
X01152
X01167Y02533975
X01182
X01197179Y02533994
X01212Y02533975
X0125142Y025324
X01241695Y02491848
X012095Y02485155
X011795
X012045Y02458262
X0122642Y025824
X0100142Y024324
X0095142
X0090142
X01264462Y0251
X01275462
X01279394Y02544641
X01262842Y0254
X0130142Y025324
X0135142
X0132642Y025824
X0127642
X0130142Y026324
X0135142
X0140142
X0145142
X0150142
X0155142
X0152642Y025824
X0147642
X0142642
X0137642
Y026824
X0142642
X0147642
X0152642
X0157642
X0162642
X0165142Y027324
X0160142
X0155142
X0150142
X0145142
X0140142
X0132642Y026824
X01263119Y02784279
X0132642Y024824
X0147642
X0152642
X0157642
X0162642
X01637041Y02552529
X0157642Y025824
X0155142Y025324
X0150142
X0145142
X0165142Y026324
X01683568Y02627012
X01681Y02613511
X01711683Y02614705
X0172875Y026215
X017535Y02602
X01760073Y02593504
X0177642Y025824
X01744Y02579891
X01720365Y02580207
X0169762Y02562822
X01689237Y02541646
X0170142Y025324
X01730814Y02519337
X01741251Y02552462
X01759387Y02501251
X01806775Y02486814
X01814387Y02492978
X0182642Y024824
X0187642
X0192642
X0197642
X0195142Y025324
X0190142
X0185142
X0187642Y025824
X0192642
X0197642
X0200142Y025324
X0195142Y026324
X0190142
X0185142
X01804219Y02647839
X01789695Y02635612
X01758542Y02639478
X01757706Y02646755
X017661Y02665513
X01775504
X01789526Y02671317
X01789749Y0270435
X0180245
X0177693
X0180142Y027324
X0185142
X0182642Y026824
X0187642
X01751687Y02671428
X01726742Y02670568
X01709449Y02650289
X01702149Y02650233
X0167642Y026824
X0170142Y027324
X0175142
X0182642Y025824
X01664627Y02568195
X01668388Y02521471
X0168702Y02500048
X01682206Y02494171
X0167642Y024824
X0202642Y026824
X0200142Y027324
X0205142
X0210142
X0215142
X0220142
X0225142
X0230142
X0235142
X0240142
X0227642Y026824
X0222642
X0217642
X0212642
X0207642
X0210142Y026324
X0215142
X0220142
X0225142
Y025324
X0230142
X0235142
X0240142
X0242642Y024824
X0232642
X0227642
X0222642
X0217642
X0212642
X0210142Y025324
X0215142
X0220142
X0245142
X0247642Y024824
X0245142Y024324
X0250142
X0255142
X0257642Y024824
X0267642
X0270142Y024324
X0265142
X0275142
X0280142
X0282642Y024824
X0277642
X0280142Y025324
X0275142
X0270142
X0265142
X0267642Y025824
X0272642
X0277642
X0282642
X0280142Y027324
X0275142
X0270142
X0265142
X0260142
X0255142
X0250142
X0245142
X0262642Y025824
X0287642
X0292642
X0297642
X0302642
X0307642
X0312642
X0310142Y025324
X0305142
X0300142
X0295142
X0290142
X0285142
X0287642Y024824
X0292642
X0297642
X0302642
X0307642
X0312642
X0317642
X0322642
X0320142Y024324
X0315142
X0310142
X0305142
X0300142
X0295142
X0290142
X0285142
Y027324
X0290142
X0295142
X0300142
X0305142
X0310142
X0315142
X0320142
X0322642Y026824
Y025824
X0320142Y025324
X0315142
X0327642Y024824
X0332642
X0337642
X0342642
X0340142Y024324
X0335142
X0330142
X0325142
Y026324
X0330142
X0335142
X0340142
X0345142
X03340531Y02732606
Y02740951
X03348258Y02740854
X03332804Y02741049
X03340628Y02749491
X03293795Y02737991
X03293698Y02729451
X03301425Y02729354
X03286019Y02729597
X03293698Y02721106
X0325142Y027324
X0327642Y026824
X03290114Y0281258
X03295264Y02819266
X03313Y02823441
X03318Y02829321
X03307278Y02850732
X03301425Y0285627
X03381Y0287877
X03334727Y02939058
Y02947403
X03327Y02947501
X03334825Y02955943
X03357403Y02974058
X03357501Y02982501
X03349676
X03357501Y02990943
X03323Y03008
X0330142Y030324
X03344029Y03035
X03349Y03071
X0332642Y030824
X0327642
X0330142Y031324
X0325142
X0327642Y031824
X0332642
X03365Y03152317
X03359211Y03130956
X0335142Y031324
X03354Y0311
X0325142Y030324
X0327642Y029824
X0325142Y029324
X0320142
X0315142
X0310142
X0305142
X0300142
X02976Y0294
X0296425
X02955Y02955
X02972995Y0296175
X0297642Y029824
X029455Y0298
X0292642Y029824
X0287642
X0290142Y029324
X0285142
Y030324
X0290142
X0295142
X0300142
X0305142
X0310142
X0315142
X0320142
X0322642Y029824
X0317642
X0312642
X0307642
X0302642
Y030824
X0297642
X0292642
X0287642
X0290142Y031324
X0295142
X0300142
X0305142
X0310142
X0315142
X0320142
X0322642Y030824
X0317642
X0312642
X0307642
Y031824
X0312642
X0317642
X0322642
X0302642
X0297642
X0292642
X0287642
X0285142Y031324
X02955Y02851
X0296425Y02856
X02976Y02842382
X0280142Y029324
X0275142
X0270142
X0265142
X0267642Y029824
X0272642
X0277642
X0282642
X0280142Y030324
X0275142
X0270142
X0265142
X0267642Y030824
X0272642
X0277642
X0282642
X0280142Y031324
X0275142
X0270142
X0265142
X0267642Y031824
X0272642
X0277642
X0282642
X0252642
X0247642
X0250142Y031324
X0247642Y030824
X0252642
X0250142Y030324
X0247642Y029824
X0252642
X0250142Y029324
X02533969Y02851052
X02547814Y02861649
X0256Y02856379
X02573062Y02866055
X02598Y02872809
X02623312Y02885374
X0261176Y02823441
X02586142Y02829321
X0251Y0281273
X02483926Y02818479
X02452812Y02842466
X0240142Y029324
X0235142
X0230142
X0225142
X0220142
X0215142
X0210142
X0212642Y029824
X0217642
X0222642
X0227642
X0232642
X0237642
X0242642
X0240142Y030324
X0235142
X0230142
X0225142
X0220142
X0215142
X0210142
X0207642Y030824
X0212642
X0217642
X0222642
X0227642
X0232642
X0237642
X0242642
X0240142Y031324
X0235142
X0230142
X0225142
X0220142
X0215142
X0210142
X0212642Y031824
X0217642
X0222642
X0227642
X0232642
X0237642
X0242642
X0207642
Y029824
X0202642
X0197642
X0192642
X0187Y029985
X01870254Y0300768
X01851485Y03028476
X01836368Y03013664
X0180142Y030324
X0175142
X01726805Y03027251
X01713599Y03021909
X0172Y03045
X01733821
Y030045
X0172Y0299775
X01676629Y029905
X01676782Y0298295
X0167606Y02971412
X01676144Y02962659
X0170142Y029324
X01726805Y0295148
X0175142Y029324
X0176504Y0295954
X01765509Y02968325
X01765157Y0298203
X01765392Y02990347
X0177642Y030824
X0182642
X0187642
X0192642
X0197642
X0202642
X0205142Y030324
X0200142
X0195142
X0190142
X01882501Y02953605
X0185413Y0296025
X01845649Y02951255
X01849509Y02944006
X0190142Y029324
X0195142
X0200142
X0205142
Y031324
X0200142
X0195142
X0190142
X0187642Y031824
X0182642
X0177642
X0175142Y031324
X0170142
X0167642Y030824
X017268Y03078724
X0180142Y031324
X0167642Y031824
X0192642
X0197642
X0202642
X01872302Y0283404
X01726834Y02842361
X01733821Y02850817
X01714164Y028564
X0172Y02867
X01712359Y02878279
X017395Y02872809
X01726788Y02901
X0167642Y028824
X0162642
X0157642
X0152642
X0147642
X0142642
X0137642
X0132642
X0127642
X0130142Y029324
X0135142
X0140142
X0145142
X0150142
X0155142
X01555226Y02965002
X01546079Y02992943
X01522906Y02995137
X01526593Y03002227
X01518899Y02988039
X0150142Y030324
X0145142
X0140142
X0135142
X0130142
X0132642Y030824
X0137642
X0142642
X0147642
X0152642
X0157642
X0162642
X01648Y03035
X01654202Y02999384
X01633329Y02991559
X01632952Y02982009
X01648Y02968325
X0165142Y029324
X0160142
X01592496Y02962722
X01609884Y02963444
X01597084Y03009404
X01587963Y0300974
X01576944Y0300778
X0160142Y030324
X0155142
Y031324
X0160142
X0165142
X0162642Y031824
X0157642
X0152642
X0147642
X0142642
X0137642
X0132642
X0127642
X0130142Y031324
X0135142
X0140142
X0145142
X0150142
X0127642Y030824
X0122642
X0117642
X0112642
X0107642
X0102642
X0097642
X0092642
X0087642
X0090142Y031324
X0095142
X0100142
X0105142
X0110142
X0115142
X0120142
X0125142
X0122642Y031824
X0117642
X0112642
X0107642
X0102642
X0097642
X0092642
X0087642
X0090142Y030324
X0095142
X0100142
X0105142
X0110142
X0115142
X0120142
X0125142
Y029324
X0120142
X0115142
X0110142
X0105142
X0102642Y028824
X0097642
X0100142Y028324
X0095142
X0105142
X0110142
X0115142
X0120142
X0125142
X01258041Y02809005
X0122642Y028824
X0117642
X0112642
X0107642
X0097642Y029824
X0092642
X0087642
X0090142Y029324
X0087642Y028824
X0082642
X0077642
X0072642
X0067642
X0062642
X0057642
X0060142Y029324
X0065142
X0070142
X0075142
X0080142
X0085142
X0082642Y029824
X0077642
X0072642
X0067642
X0062642
X0057642
X0052642
X00495089Y02971304
X00485Y02955
X0050142Y029324
X0055142
Y030324
X0060142
X0065142
X0070142
X0075142
X0080142
X0085142
X0082642Y030824
X0077642
X0072642
X0067642
X0062642
X0057642
X0052642
X0047642
X0050142Y031324
X0055142
X0060142
X0065142
X0070142
X0075142
X0080142
X0085142
X0082642Y031824
X0077642
X0072642
X0067642
X0062642
X0057642
X0052642
X0047642
X0050142Y030324
X0047642Y028824
X0050142Y028324
X0055142
X0060142
X0065142
X0070142
X0075142
X0080142
X0045142
X0040142
X0035142
X0030142
X0025142
X0020142
X0015142
X0010142
X0012642Y028824
X0007642
X0010142Y029324
X0015142
X0020142
X0025142
X0030142
X0035142
X0040142
X0045142
X00466768Y02954593
X0042642Y029824
X0037642
X0032642
X0027642
X0022642
X0017642
X0012642
X0007642
X0010142Y030324
X0015142
X0020142
X0025142
X0030142
X0035142
X0040142
X0045142
X0042642Y030824
X0037642
X0032642
X0027642
X0022642
X0017642
X0012642
X0007642
X0010142Y031324
X0015142
X0020142
X0025142
X0030142
X0035142
X0040142
X0045142
X0042642Y031824
X0037642
X0032642
X0027642
X0022642
X0017642
X0012642
X0007642
X0017642Y028824
X0022642
X0027642
X0032642
X0037642
X0042642
X0002642
X-0002358
X-0007358
X-0004858Y028324
X0000142
X0005142
Y029324
X0000142
X-0004858
X-0002358Y029824
X-0007358
X-0004858Y030324
X0000142
X0005142
X0002642Y030824
X-0002358
X-0007358
X-0004858Y031324
X0000142
X0005142
X0002642Y031824
X-0002358
X-0007358
X0002642Y029824
X0005142Y032324
X0000142
X-0004858
X-0007358Y032824
X-0002358
X0002642
X0005142Y033324
X0000142
X-0004858
X-0007358Y033824
X-0002358
X0000142Y034324
X0002642Y034824
X0005142Y035324
X0010142
X0007642Y034824
X0012642
X0010142Y034324
X0012642Y033824
X00160648Y03372558
X0019535Y0336
Y03386526
X0023Y033727
X0027642Y033824
X0030142Y034324
X0025142
X0027642Y034824
X0032642
X0037642
X0042642
X0045142Y034324
X0040142
X0045142Y033324
X0042642Y032824
X0037642
X0035142Y032324
X0030142
X0025142
X0020142
X0015142
X0010142
X0007642Y032824
X0012642
X0017642
X0022642
X0027642
X0025142Y033324
X0015142
X0010142
X0040142Y032324
X0045142
X0050142
X0055142
X0060142
X0065142
X0070142
X0075142
X0080142
X0085142
X0082642Y032824
X0077642
X0072642
X0067642
X0062642
X0057642
X0052642
X0047642
X0050142Y033324
X0055142
X0060142
X0065142
X0070142
X0075142
X0080142
X0085142
X0082642Y033824
X0077642
X0072642
X0067642
X0062642
X0057642
X0052642
X0050142Y034324
X0052642Y034824
X0047642
X0057642
X0062642
X0067642
X0072642
X0077642
X0082642
X0080142Y034324
X0075142
X0070142
X0065142
X0060142
X0085142
X0090142
X0095142
X0100142
X0105142
X0110142
X0115142
X0120142
X0125142
X0122642Y033824
X0117642
X0112642
X0107642
X0102642
X0097642
X0092642
X0087642
X0090142Y033324
X0095142
X0100142
X0105142
X0110142
X0115142
X0120142
X0125142
X0122642Y032824
X0117642
X0112642
X0107642
X0102642
X0097642
X0092642
X0087642
X0090142Y032324
X0095142
X0100142
X0105142
X0110142
X0115142
X0120142
X0125142
X0122642Y034824
X0117642
X0112642
X0107642
X0102642
X0097642
X0092642
X0087642
X0127642
X0132642
X0137642
X0142642
X0147642
X0152642
X0157642
X0162642
X0165142Y034324
X0160142
X0155142
X0150142
X0145142
X0140142
X0135142
X0130142
X0127642Y033824
X0132642
X0137642
X0142642
X0147642
X0152642
X0155142Y033324
X0150142
X0145142
X0140142
X0135142
X0130142
X0127642Y032824
X0132642
X0137642
X0142642
X0147642
X0152642
X0157642
X0162642
X01654157Y03300675
X0165142Y033324
X0160142
X0162642Y033824
X0160142Y032324
X0155142
X0150142
X0145142
X0140142
X0135142
X0130142
X0165142
X01711973Y03241273
X0170554Y03247889
X01733584Y03258741
X01743Y03234
X0180142Y032324
X01782251Y0327496
X01782251Y03287717
X01766133Y033023
X01726805Y03307025
X01726848Y03314315
X0172679Y03321605
X0170142Y033324
X0167642Y033824
Y034824
X0172642
X0175142Y034324
X0180142
X0185142
X0190142
X0195142
X0200142
X0205142
X0202642Y033824
X0197642
X0192642
X0187642
X0182642
X0180142Y033324
X01774283Y03347
X0190142Y033324
X0195142
X0200142
X0205142
X0202642Y032824
X0197642
X0192642
X0187642
X0190142Y032324
X0195142
X0200142
X0205142
X0202642Y034824
X0197642
X0192642
X0187642
X0182642
X0207642
X0212642
X0217642
X0222642
X0227642
X0232642
X0237642
X0240142Y034324
X0235142
X0230142
X0225142
X0220142
X0215142
X0210142
X0207642Y033824
X0212642
X0217642
X0222642
X0227642
X0232642
X0237642
X0242642
X0240142Y033324
X0235142
X0230142
X0225142
X0220142
X0215142
X0210142
X0207642Y032824
X0212642
X0217642
X0222642
X0227642
X0232642
X0237642
X0242642
X0240142Y032324
X0235142
X0230142
X0225142
X0220142
X0215142
X0210142
X02445813Y03516894
X0243775Y0353565
X024457Y035545
X02453763Y03535744
X02452644Y0344
X02483811Y0343
X024965
X0251
X025219
X02534
X025473
X02559999
X025727Y03430252
X02585537Y0343
X025981
X0261097
X026235
X0265142Y034324
X02670297Y03434253
X02680376
X02690468
X027005
X02710694Y03434753
X0271325Y0344602
Y03456544
X0272642Y033824
X0267642
X0265142Y033324
X0270142
X0275142
X0280142
X0282642Y032824
X0277642
X0272642
X0267642
X0265142Y032324
X0270142
X0275142
X0280142
X0277642Y033824
X025219Y03367954
X024965Y03362589
X0250142Y033324
X0247642Y033824
Y032824
X0252642
X0250142Y032324
X0285142
X0290142
X0295142
X0300142
X0305142
X0297642Y032824
X0292642
X0287642
X0290142Y033324
X0295142
X0285142
X0287642Y033824
X03206308Y03346443
X0323965Y03335289
Y03360139
X0327343Y033473
T02
X03549999Y02807501
Y02842501
Y02877501
Y02912501
Y02947501
Y02982501
Y03017501
Y03052501
Y03087501
Y03122501
Y03157501
Y03192501
T03
X0072Y0027
X0062Y0037
X0172Y0027
X0272
X0282Y0037
X0107Y0097
X0097Y0107
X0172Y0097
X0237
X0247Y0107
X0282Y0137
X0062Y0137
X0097Y0172
X0247Y0172
Y02368769
X0282Y0237
X0097Y0237
X0062Y0237
X0072Y0247
X0172Y0247
X0237
X0272Y0247
T04
X01764349Y0267819
Y0269851
X01815149Y0268835
T05
X010195Y02495
T06
X012195Y02495
T08
X0004Y0004
X0172
X034
X00930087Y0093
X01395087Y0093
X02045087Y0093
X0251Y0093
X0251Y01395
X0093Y01395
X0004Y0172
X034Y0172
X0251Y02045
X0093Y02045
X0093Y0251
X01395087
X02045087
X0251
X0004Y034
X0172
X034
M30
