M48
;Layer_Color=9474304
;FILE_FORMAT=4:4
METRIC,LZ
T7F00S00C2.4000
%
G90
G05
T07
G00X00347429Y0330265
M15
G01X00352241Y0330394
G01X00356843Y03305846
G01X00361157Y03308336
G01X00365109Y03311369
G01X00368631Y03314891
G01X00371664Y03318843
G01X00374154Y03323157
G01X00376061Y03327759
G01X0037735Y03332571
G01X00378Y03337509
G01X00378Y0338249
G01X0037735Y03387429
G01X00376061Y03392241
G01X00374154Y03396843
G01X00371664Y03401157
G01X00368631Y03405109
G01X00365109Y03408631
G01X00361157Y03411664
G01X00356843Y03414154
G01X00352241Y0341606
G01X00347429Y0341735
G01X00342491Y03418
G01X00337509Y03418
G01X00332571Y0341735
G01X00327759Y0341606
G01X00323157Y03414154
G01X00318843Y03411664
G01X00314891Y03408631
G01X00311369Y03405109
G01X00308336Y03401157
G01X00305846Y03396843
G01X00303939Y03392241
G01X0030265Y03387429
G01X00302Y03382491
G01X00302Y03337509
G01X0030265Y03332571
G01X00303939Y03327759
G01X00305846Y03323157
G01X00308336Y03318843
G01X00311369Y03314891
G01X00314891Y03311369
G01X00318843Y03308336
G01X00323157Y03305846
G01X00327759Y0330394
G01X00332571Y0330265
G01X00337509Y03302
G01X00342491Y03302
G01X00347429Y0330265
M16
G00X03107429Y0330265
M15
G01X03112241Y0330394
G01X03116843Y03305846
G01X03121157Y03308336
G01X03125109Y03311369
G01X03128631Y03314891
G01X03131664Y03318843
G01X03134154Y03323157
G01X0313606Y03327759
G01X0313735Y03332571
G01X03138Y03337509
G01X03138Y0338249
G01X0313735Y03387429
G01X0313606Y03392241
G01X03134154Y03396843
G01X03131664Y03401157
G01X03128631Y03405109
G01X03125109Y03408631
G01X03121157Y03411664
G01X03116843Y03414154
G01X03112241Y0341606
G01X03107429Y0341735
G01X0310249Y03418
G01X03097509Y03418
G01X03092571Y0341735
G01X03087759Y0341606
G01X03083157Y03414154
G01X03078843Y03411664
G01X03074891Y03408631
G01X03071369Y03405109
G01X03068336Y03401157
G01X03065846Y03396843
G01X0306394Y03392241
G01X0306265Y03387429
G01X03062Y03382491
G01X03062Y03337509
G01X0306265Y03332571
G01X0306394Y03327759
G01X03065846Y03323157
G01X03068336Y03318843
G01X03071369Y03314891
G01X03074891Y03311369
G01X03078843Y03308336
G01X03083157Y03305846
G01X03087759Y0330394
G01X03092571Y0330265
G01X03097509Y03302
G01X03102491Y03302
G01X03107429Y0330265
M16
G00X02409833Y01022307
M15
G01X02411289Y01022911
G01X024126Y01023786
G01X02413714Y010249
G01X0241459Y0102621
G01X02415192Y01027667
G01X024155Y01029212
G01X024155Y02410788
G01X02415192Y02412333
G01X0241459Y0241379
G01X02413714Y024151
G01X024126Y02416214
G01X02411289Y0241709
G01X02409833Y02417692
G01X02408288Y02418
G01X01026712Y02418
G01X01025166Y02417692
G01X0102371Y0241709
G01X010224Y02416214
G01X01021286Y024151
G01X01020411Y0241379
G01X01019807Y02412333
G01X010195Y02410788
G01X010195Y01029212
G01X01019807Y01027667
G01X0102041Y0102621
G01X01021286Y010249
G01X010224Y01023786
G01X0102371Y01022911
G01X01025167Y01022307
G01X01026712Y01022
G01X02408288Y01022
G01X02409833Y01022307
M16
G00X03553446Y-00031495
M15
G01X03556601Y-00030021
G01X03558486Y-00028485
G01X03578486Y-00008485
G01X03580564Y-00005692
G01X03581754Y-00002419
G01X03582Y0
G01X03582Y0342
G01X03581495Y03423446
G01X03580021Y03426601
G01X03578486Y03428486
G01X03558485Y03448486
G01X03555691Y03450565
G01X03552418Y03451754
G01X0355Y03452
G01X0346Y03452
G01X03459842Y03451977
G01X03458432Y03452116
G01X03456924Y03452574
G01X03455534Y03453317
G01X03454316Y03454316
G01X03453316Y03455534
G01X03452573Y03456924
G01X03452116Y03458432
G01X03451904Y03460584
G01X03452Y03549987
G01X03451498Y03553433
G01X03450028Y0355659
G01X03448485Y03558486
G01X03428486Y03578486
G01X03425692Y03580564
G01X03422418Y03581754
G01X0342Y03582
G01X0002Y03582
G01X00016554Y03581495
G01X00013399Y03580021
G01X00011515Y03578486
G01X-00008486Y03558485
G01X-00010565Y03555691
G01X-00011754Y03552418
G01X-00012001Y0355
G01X-00012Y0346
G01X-00011977Y03459842
G01X-00012116Y03458432
G01X-00012573Y03456924
G01X-00013316Y03455535
G01X-00014316Y03454317
G01X-00015534Y03453317
G01X-00016923Y03452574
G01X-00018431Y03452117
G01X-00020583Y03451905
G01X-00109986Y03452001
G01X-00113432Y03451499
G01X-00116589Y03450029
G01X-00118484Y03448486
G01X-00138485Y03428486
G01X-00140564Y03425692
G01X-00141754Y03422418
G01X-00142Y0342
G01X-00142Y0
G01X-00141495Y-00003446
G01X-00140021Y-00006601
G01X-00138485Y-00008485
G01X-00118485Y-00028485
G01X-00115692Y-00030564
G01X-00112418Y-00031754
G01X-0011Y-00032
G01X0355Y-00032
G01X03553446Y-00031495
M16
M17
M30
