G04*
G04 #@! TF.GenerationSoftware,Altium Limited,Altium NEXUS,5.8.2 (18)*
G04*
G04 Layer_Color=8421504*
%FSLAX44Y44*%
%MOMM*%
G71*
G04*
G04 #@! TF.SameCoordinates,4BB16690-FE69-4B49-A9BB-B7C6A01283A8*
G04*
G04*
G04 #@! TF.FilePolarity,Positive*
G04*
G01*
G75*
%ADD13R,1.5000X0.3500*%
G04:AMPARAMS|DCode=14|XSize=0.45mm|YSize=0.3mm|CornerRadius=0.0495mm|HoleSize=0mm|Usage=FLASHONLY|Rotation=180.000|XOffset=0mm|YOffset=0mm|HoleType=Round|Shape=RoundedRectangle|*
%AMROUNDEDRECTD14*
21,1,0.4500,0.2010,0,0,180.0*
21,1,0.3510,0.3000,0,0,180.0*
1,1,0.0990,-0.1755,0.1005*
1,1,0.0990,0.1755,0.1005*
1,1,0.0990,0.1755,-0.1005*
1,1,0.0990,-0.1755,-0.1005*
%
%ADD14ROUNDEDRECTD14*%
%ADD15R,0.5200X0.5600*%
%ADD16R,0.4500X0.5000*%
D13*
X12000Y57500D02*
D03*
Y62500D02*
D03*
Y67500D02*
D03*
Y72500D02*
D03*
Y77500D02*
D03*
Y82500D02*
D03*
Y87500D02*
D03*
Y92500D02*
D03*
Y97500D02*
D03*
Y102500D02*
D03*
Y107500D02*
D03*
Y112500D02*
D03*
Y137500D02*
D03*
Y142500D02*
D03*
Y147500D02*
D03*
Y152500D02*
D03*
Y157500D02*
D03*
Y162500D02*
D03*
Y167500D02*
D03*
Y172500D02*
D03*
Y177500D02*
D03*
Y182500D02*
D03*
Y187500D02*
D03*
Y192500D02*
D03*
Y197500D02*
D03*
Y202500D02*
D03*
Y207500D02*
D03*
Y212500D02*
D03*
Y217500D02*
D03*
Y222500D02*
D03*
Y227500D02*
D03*
Y232500D02*
D03*
Y237500D02*
D03*
Y242500D02*
D03*
D14*
X112889Y743285D02*
D03*
Y749785D02*
D03*
Y756285D02*
D03*
X132389D02*
D03*
Y749785D02*
D03*
Y743285D02*
D03*
D15*
X99983Y757389D02*
D03*
Y749589D02*
D03*
D16*
X57000Y76250D02*
D03*
Y68750D02*
D03*
M02*
