G04*
G04 #@! TF.GenerationSoftware,Altium Limited,Altium NEXUS,5.8.2 (18)*
G04*
G04 Layer_Physical_Order=1*
G04 Layer_Color=255*
%FSLAX44Y44*%
%MOMM*%
G71*
G04*
G04 #@! TF.SameCoordinates,4BB16690-FE69-4B49-A9BB-B7C6A01283A8*
G04*
G04*
G04 #@! TF.FilePolarity,Positive*
G04*
G01*
G75*
%ADD11C,0.2000*%
%ADD12C,0.1500*%
%ADD13R,1.5000X0.3500*%
G04:AMPARAMS|DCode=14|XSize=0.45mm|YSize=0.3mm|CornerRadius=0.0495mm|HoleSize=0mm|Usage=FLASHONLY|Rotation=180.000|XOffset=0mm|YOffset=0mm|HoleType=Round|Shape=RoundedRectangle|*
%AMROUNDEDRECTD14*
21,1,0.4500,0.2010,0,0,180.0*
21,1,0.3510,0.3000,0,0,180.0*
1,1,0.0990,-0.1755,0.1005*
1,1,0.0990,0.1755,0.1005*
1,1,0.0990,0.1755,-0.1005*
1,1,0.0990,-0.1755,-0.1005*
%
%ADD14ROUNDEDRECTD14*%
%ADD15R,0.5200X0.5600*%
%ADD16R,0.4500X0.5000*%
%ADD17C,0.5000*%
%ADD18C,0.4500*%
G04:AMPARAMS|DCode=26|XSize=2mm|YSize=2mm|CornerRadius=0.5mm|HoleSize=0mm|Usage=FLASHONLY|Rotation=180.000|XOffset=0mm|YOffset=0mm|HoleType=Round|Shape=RoundedRectangle|*
%AMROUNDEDRECTD26*
21,1,2.0000,1.0000,0,0,180.0*
21,1,1.0000,2.0000,0,0,180.0*
1,1,1.0000,-0.5000,0.5000*
1,1,1.0000,0.5000,0.5000*
1,1,1.0000,0.5000,-0.5000*
1,1,1.0000,-0.5000,-0.5000*
%
%ADD26ROUNDEDRECTD26*%
%ADD27C,1.0000*%
%ADD28C,2.0000*%
%ADD29C,0.6040*%
G36*
X1410074Y1497901D02*
Y1497901D01*
X1423634D01*
Y1497899D01*
X1423642Y1497859D01*
X1424037D01*
X1424503Y1495519D01*
X1424583Y1495324D01*
X1424624Y1495117D01*
X1425675Y1492582D01*
X1425792Y1492406D01*
X1425872Y1492211D01*
X1427397Y1489930D01*
X1427546Y1489780D01*
X1427664Y1489605D01*
X1429604Y1487664D01*
X1429780Y1487547D01*
X1429928Y1487398D01*
X1432211Y1485873D01*
X1432405Y1485793D01*
X1432581Y1485676D01*
X1435116Y1484625D01*
X1435323Y1484584D01*
X1435518Y1484503D01*
X1438210Y1483968D01*
X1438368D01*
X1438522Y1483929D01*
X1439895Y1483862D01*
X1440000Y1483878D01*
X1440105Y1483862D01*
X1441477Y1483929D01*
X1441631Y1483968D01*
X1441790D01*
X1444481Y1484503D01*
X1444676Y1484584D01*
X1444883Y1484625D01*
X1447418Y1485675D01*
X1447594Y1485793D01*
X1447789Y1485873D01*
X1450070Y1487398D01*
X1450220Y1487547D01*
X1450395Y1487664D01*
X1452336Y1489605D01*
X1452453Y1489780D01*
X1452602Y1489929D01*
X1454127Y1492211D01*
X1454207Y1492406D01*
X1454324Y1492581D01*
X1455375Y1495117D01*
X1455416Y1495324D01*
X1455497Y1495519D01*
X1455962Y1497859D01*
X1456358Y1497859D01*
X1456366Y1497901D01*
X1456366D01*
X1469926Y1497900D01*
X1469924Y1497859D01*
X1470000D01*
X1529113D01*
X1537859Y1489113D01*
Y1429924D01*
X1537901Y1429926D01*
Y1429927D01*
X1537901Y1429926D01*
X1537901D01*
X1537901D01*
Y1416366D01*
X1537899Y1416366D01*
X1537859Y1416358D01*
Y1415963D01*
X1535519Y1415497D01*
X1535324Y1415417D01*
X1535117Y1415376D01*
X1532582Y1414325D01*
X1532406Y1414208D01*
X1532211Y1414128D01*
X1529930Y1412603D01*
X1529780Y1412454D01*
X1529605Y1412336D01*
X1527664Y1410396D01*
X1527547Y1410220D01*
X1527398Y1410071D01*
X1525873Y1407789D01*
X1525793Y1407595D01*
X1525676Y1407419D01*
X1524625Y1404884D01*
X1524584Y1404677D01*
X1524503Y1404482D01*
X1523968Y1401790D01*
Y1401632D01*
X1523929Y1401478D01*
X1523862Y1400105D01*
X1523878Y1400000D01*
X1523862Y1399895D01*
X1523929Y1398523D01*
X1523968Y1398369D01*
Y1398210D01*
X1524503Y1395519D01*
X1524584Y1395324D01*
X1524625Y1395117D01*
X1525676Y1392581D01*
X1525793Y1392406D01*
X1525873Y1392211D01*
X1527398Y1389929D01*
X1527547Y1389780D01*
X1527664Y1389605D01*
X1529605Y1387664D01*
X1529780Y1387547D01*
X1529929Y1387398D01*
X1532211Y1385873D01*
X1532406Y1385793D01*
X1532581Y1385676D01*
X1535117Y1384625D01*
X1535324Y1384584D01*
X1535519Y1384503D01*
X1537859Y1384038D01*
Y1383642D01*
X1537901Y1383634D01*
X1537900Y1370074D01*
X1537859Y1370076D01*
X1537859Y779924D01*
X1537901Y779926D01*
Y779927D01*
X1537901Y779926D01*
X1537901D01*
X1537901D01*
Y766366D01*
X1537899Y766366D01*
X1537859Y766358D01*
Y765963D01*
X1535519Y765498D01*
X1535324Y765417D01*
X1535117Y765376D01*
X1532582Y764325D01*
X1532406Y764208D01*
X1532211Y764128D01*
X1529930Y762603D01*
X1529780Y762454D01*
X1529605Y762337D01*
X1527664Y760396D01*
X1527547Y760220D01*
X1527398Y760071D01*
X1525873Y757790D01*
X1525793Y757595D01*
X1525676Y757419D01*
X1524625Y754884D01*
X1524584Y754677D01*
X1524503Y754482D01*
X1523968Y751790D01*
Y751632D01*
X1523929Y751478D01*
X1523862Y750106D01*
X1523878Y750001D01*
X1523862Y749895D01*
X1523929Y748523D01*
X1523968Y748369D01*
Y748211D01*
X1524503Y745519D01*
X1524584Y745324D01*
X1524625Y745117D01*
X1525676Y742581D01*
X1525793Y742406D01*
X1525873Y742211D01*
X1527398Y739929D01*
X1527547Y739780D01*
X1527664Y739605D01*
X1529605Y737664D01*
X1529780Y737547D01*
X1529929Y737398D01*
X1532211Y735873D01*
X1532406Y735793D01*
X1532581Y735676D01*
X1535117Y734625D01*
X1535324Y734584D01*
X1535519Y734503D01*
X1537859Y734038D01*
Y733642D01*
X1537901Y733634D01*
X1537900Y720073D01*
X1537859Y720076D01*
X1537859Y129924D01*
X1537901Y129926D01*
Y129927D01*
X1537901Y129926D01*
X1537901D01*
X1537901D01*
Y116366D01*
X1537899Y116366D01*
X1537859Y116358D01*
Y115963D01*
X1535519Y115498D01*
X1535324Y115417D01*
X1535117Y115376D01*
X1532582Y114325D01*
X1532406Y114208D01*
X1532211Y114128D01*
X1529930Y112603D01*
X1529780Y112454D01*
X1529605Y112337D01*
X1527664Y110396D01*
X1527547Y110220D01*
X1527398Y110071D01*
X1525873Y107789D01*
X1525793Y107595D01*
X1525676Y107419D01*
X1524625Y104884D01*
X1524584Y104677D01*
X1524503Y104482D01*
X1523968Y101790D01*
Y101632D01*
X1523929Y101478D01*
X1523862Y100105D01*
X1523878Y100000D01*
X1523862Y99895D01*
X1523929Y98523D01*
X1523968Y98369D01*
Y98210D01*
X1524503Y95519D01*
X1524584Y95324D01*
X1524625Y95117D01*
X1525676Y92582D01*
X1525793Y92406D01*
X1525873Y92211D01*
X1527398Y89929D01*
X1527547Y89780D01*
X1527664Y89605D01*
X1529605Y87664D01*
X1529780Y87547D01*
X1529929Y87398D01*
X1532211Y85873D01*
X1532406Y85793D01*
X1532581Y85675D01*
X1535117Y84625D01*
X1535324Y84584D01*
X1535519Y84503D01*
X1537859Y84038D01*
Y83642D01*
X1537901Y83634D01*
X1537900Y70073D01*
X1537859Y70076D01*
X1537859Y10887D01*
X1529113Y2141D01*
X1469924D01*
X1469926Y2100D01*
X1456366D01*
X1456366Y2101D01*
X1456358Y2141D01*
X1455963D01*
X1455497Y4481D01*
X1455417Y4676D01*
X1455376Y4883D01*
X1454325Y7418D01*
X1454208Y7594D01*
X1454128Y7789D01*
X1452603Y10071D01*
X1452454Y10220D01*
X1452336Y10395D01*
X1450396Y12336D01*
X1450220Y12453D01*
X1450071Y12602D01*
X1447789Y14127D01*
X1447595Y14207D01*
X1447419Y14325D01*
X1444884Y15375D01*
X1444677Y15416D01*
X1444482Y15497D01*
X1441790Y16032D01*
X1441632D01*
X1441478Y16070D01*
X1440106Y16138D01*
X1440000Y16122D01*
X1439895Y16138D01*
X1438523Y16070D01*
X1438369Y16032D01*
X1438210D01*
X1435519Y15496D01*
X1435324Y15416D01*
X1435117Y15375D01*
X1432582Y14325D01*
X1432406Y14207D01*
X1432211Y14127D01*
X1429929Y12602D01*
X1429780Y12453D01*
X1429605Y12336D01*
X1427664Y10395D01*
X1427547Y10220D01*
X1427398Y10071D01*
X1425873Y7789D01*
X1425793Y7594D01*
X1425675Y7418D01*
X1424625Y4883D01*
X1424584Y4676D01*
X1424503Y4481D01*
X1424038Y2140D01*
X1423642D01*
X1423634Y2100D01*
Y2100D01*
X1410074D01*
X1410076Y2140D01*
X819924Y2141D01*
X819926Y2100D01*
X806366D01*
X806366Y2101D01*
X806358Y2141D01*
X805963D01*
X805498Y4481D01*
X805417Y4676D01*
X805376Y4883D01*
X804325Y7418D01*
X804208Y7594D01*
X804128Y7789D01*
X802603Y10071D01*
X802454Y10220D01*
X802337Y10395D01*
X800396Y12336D01*
X800220Y12453D01*
X800071Y12602D01*
X797790Y14127D01*
X797595Y14207D01*
X797419Y14325D01*
X794884Y15375D01*
X794677Y15416D01*
X794482Y15497D01*
X791790Y16032D01*
X791632D01*
X791478Y16070D01*
X790106Y16138D01*
X790001Y16122D01*
X789895Y16138D01*
X788523Y16070D01*
X788369Y16032D01*
X788211D01*
X785519Y15496D01*
X785324Y15416D01*
X785117Y15375D01*
X782582Y14325D01*
X782406Y14207D01*
X782211Y14127D01*
X779929Y12602D01*
X779780Y12453D01*
X779605Y12336D01*
X777664Y10395D01*
X777547Y10220D01*
X777398Y10071D01*
X775873Y7789D01*
X775793Y7594D01*
X775675Y7418D01*
X774625Y4883D01*
X774584Y4676D01*
X774503Y4481D01*
X774038Y2140D01*
X773642D01*
X773634Y2100D01*
Y2100D01*
X760073D01*
X760076Y2140D01*
X169924Y2141D01*
X169926Y2100D01*
X156366D01*
X156366Y2101D01*
X156358Y2141D01*
X155963D01*
X155498Y4481D01*
X155417Y4676D01*
X155376Y4883D01*
X154325Y7418D01*
X154208Y7594D01*
X154128Y7789D01*
X152603Y10071D01*
X152454Y10220D01*
X152337Y10395D01*
X150396Y12336D01*
X150220Y12453D01*
X150071Y12602D01*
X147789Y14127D01*
X147595Y14207D01*
X147419Y14325D01*
X144884Y15375D01*
X144677Y15416D01*
X144482Y15497D01*
X141790Y16032D01*
X141632D01*
X141478Y16070D01*
X140106Y16138D01*
X140000Y16122D01*
X139895Y16138D01*
X138523Y16071D01*
X138369Y16032D01*
X138211D01*
X135519Y15497D01*
X135324Y15416D01*
X135117Y15375D01*
X132582Y14325D01*
X132406Y14208D01*
X132212Y14127D01*
X129930Y12602D01*
X129780Y12453D01*
X129605Y12336D01*
X127664Y10395D01*
X127547Y10220D01*
X127398Y10071D01*
X125873Y7789D01*
X125793Y7594D01*
X125676Y7419D01*
X124625Y4883D01*
X124584Y4676D01*
X124503Y4482D01*
X124038Y2141D01*
X123642D01*
X123634Y2100D01*
Y2100D01*
X110073D01*
X110077Y2141D01*
X50887Y2141D01*
X42141Y10887D01*
Y45750D01*
X42120Y45854D01*
X42131Y45960D01*
X42035Y46935D01*
X41943Y47236D01*
X41882Y47545D01*
X41135Y49347D01*
X40671Y50042D01*
X39292Y51421D01*
X38597Y51885D01*
X36795Y52632D01*
X36486Y52693D01*
X36185Y52785D01*
X35210Y52881D01*
X35104Y52870D01*
X35000Y52891D01*
X23178D01*
X22040Y53210D01*
Y56230D01*
X12000D01*
Y58770D01*
X22040D01*
Y61790D01*
X20750D01*
Y68210D01*
X22040D01*
Y71230D01*
X12000D01*
Y73770D01*
X22040D01*
Y76790D01*
X20750D01*
Y84500D01*
Y94500D01*
Y104500D01*
Y115500D01*
X21975Y115609D01*
X29000D01*
X29104Y115630D01*
X29210Y115619D01*
X30380Y115735D01*
X30681Y115826D01*
X30990Y115887D01*
X33153Y116783D01*
X33847Y117247D01*
X35503Y118903D01*
X35967Y119597D01*
X36863Y121760D01*
X36924Y122069D01*
X37015Y122370D01*
X37131Y123540D01*
X37110Y123750D01*
X37131Y123960D01*
X37015Y125130D01*
X36924Y125431D01*
X36863Y125740D01*
X35967Y127903D01*
X35503Y128597D01*
X33847Y130253D01*
X33153Y130717D01*
X30990Y131613D01*
X30681Y131674D01*
X30380Y131765D01*
X29210Y131881D01*
X29104Y131870D01*
X29000Y131891D01*
X13973Y131891D01*
X13126Y133161D01*
X13147Y133210D01*
X22040D01*
Y138647D01*
X41000D01*
X41957Y139043D01*
X42353Y140000D01*
Y153628D01*
X76503D01*
X78628Y151503D01*
Y115000D01*
X79113Y112561D01*
X80494Y110494D01*
X88628Y102360D01*
Y95000D01*
X89113Y92561D01*
X90494Y90494D01*
X92561Y89113D01*
X95000Y88628D01*
X105000D01*
X107439Y89113D01*
X109506Y90494D01*
X110887Y92561D01*
X111099Y93628D01*
X118900D01*
X119113Y92561D01*
X120494Y90494D01*
X122561Y89113D01*
X125000Y88628D01*
X135000D01*
X137439Y89113D01*
X139506Y90494D01*
X140887Y92561D01*
X141099Y93628D01*
X148900D01*
X149113Y92561D01*
X150494Y90494D01*
X152561Y89113D01*
X155000Y88628D01*
X165000D01*
X167439Y89113D01*
X169506Y90494D01*
X170887Y92561D01*
X171099Y93628D01*
X178901D01*
X179113Y92561D01*
X180494Y90494D01*
X182561Y89113D01*
X185000Y88628D01*
X195000D01*
X197439Y89113D01*
X199506Y90494D01*
X200887Y92561D01*
X201099Y93628D01*
X208901D01*
X209113Y92561D01*
X210494Y90494D01*
X212561Y89113D01*
X215000Y88628D01*
X225000D01*
X227439Y89113D01*
X229506Y90494D01*
X230887Y92561D01*
X231099Y93628D01*
X238901D01*
X239113Y92561D01*
X240494Y90494D01*
X242561Y89113D01*
X245000Y88628D01*
X255000D01*
X257439Y89113D01*
X259506Y90494D01*
X260887Y92561D01*
X261099Y93628D01*
X268901D01*
X269113Y92561D01*
X270494Y90494D01*
X272561Y89113D01*
X275000Y88628D01*
X285000D01*
X287439Y89113D01*
X289506Y90494D01*
X290887Y92561D01*
X291099Y93628D01*
X298901D01*
X299113Y92561D01*
X300494Y90494D01*
X302561Y89113D01*
X305000Y88628D01*
X315000D01*
X317439Y89113D01*
X319506Y90494D01*
X320887Y92561D01*
X321099Y93628D01*
X328900D01*
X329113Y92561D01*
X330494Y90494D01*
X332561Y89113D01*
X335000Y88628D01*
X345000D01*
X347439Y89113D01*
X349506Y90494D01*
X350887Y92561D01*
X351100Y93628D01*
X358900D01*
X359113Y92561D01*
X360494Y90494D01*
X362561Y89113D01*
X365000Y88628D01*
X375000D01*
X377439Y89113D01*
X379506Y90494D01*
X380887Y92561D01*
X381099Y93628D01*
X389678D01*
X389764Y93196D01*
X391145Y91129D01*
X393213Y89747D01*
X395651Y89263D01*
X405651D01*
X408090Y89747D01*
X410157Y91129D01*
X411539Y93196D01*
X411624Y93628D01*
X419678D01*
X419764Y93196D01*
X421145Y91129D01*
X423213Y89747D01*
X425651Y89263D01*
X435651D01*
X438090Y89747D01*
X440157Y91129D01*
X441539Y93196D01*
X441624Y93628D01*
X449678D01*
X449764Y93196D01*
X451145Y91129D01*
X453213Y89747D01*
X455651Y89263D01*
X465651D01*
X468090Y89747D01*
X470157Y91129D01*
X471539Y93196D01*
X471624Y93628D01*
X479678D01*
X479764Y93196D01*
X481145Y91129D01*
X483213Y89747D01*
X485651Y89263D01*
X495651D01*
X498090Y89747D01*
X500157Y91129D01*
X501539Y93196D01*
X501624Y93628D01*
X509678D01*
X509764Y93196D01*
X511145Y91129D01*
X513213Y89747D01*
X515651Y89263D01*
X525651D01*
X528090Y89747D01*
X530157Y91129D01*
X531539Y93196D01*
X531624Y93628D01*
X539678D01*
X539764Y93196D01*
X541145Y91129D01*
X543213Y89747D01*
X545651Y89263D01*
X555651D01*
X558090Y89747D01*
X560157Y91129D01*
X561539Y93196D01*
X561624Y93628D01*
X569678D01*
X569764Y93196D01*
X571145Y91129D01*
X573213Y89747D01*
X575651Y89263D01*
X585651D01*
X588090Y89747D01*
X590157Y91129D01*
X591539Y93196D01*
X591624Y93628D01*
X599678D01*
X599764Y93196D01*
X601145Y91129D01*
X603213Y89747D01*
X605651Y89263D01*
X615651D01*
X618090Y89747D01*
X620157Y91129D01*
X621539Y93196D01*
X621624Y93628D01*
X629678D01*
X629764Y93196D01*
X631145Y91129D01*
X633213Y89747D01*
X635651Y89263D01*
X645651D01*
X648090Y89747D01*
X650157Y91129D01*
X651539Y93196D01*
X651624Y93628D01*
X659678D01*
X659764Y93196D01*
X661145Y91129D01*
X663213Y89747D01*
X665651Y89263D01*
X675651D01*
X678090Y89747D01*
X680157Y91129D01*
X681539Y93196D01*
X681624Y93628D01*
X689678D01*
X689764Y93196D01*
X691145Y91129D01*
X693213Y89747D01*
X695651Y89263D01*
X705651D01*
X708090Y89747D01*
X710157Y91129D01*
X711539Y93196D01*
X711624Y93628D01*
X719678D01*
X719764Y93196D01*
X721145Y91129D01*
X723213Y89747D01*
X725651Y89263D01*
X735651D01*
X738090Y89747D01*
X740157Y91129D01*
X741539Y93196D01*
X741624Y93628D01*
X749678D01*
X749764Y93196D01*
X751145Y91129D01*
X753213Y89747D01*
X755651Y89263D01*
X765651D01*
X768090Y89747D01*
X770157Y91129D01*
X771539Y93196D01*
X771624Y93628D01*
X779678D01*
X779764Y93196D01*
X781145Y91129D01*
X783213Y89747D01*
X785651Y89263D01*
X795651D01*
X798090Y89747D01*
X800157Y91129D01*
X801539Y93196D01*
X801624Y93628D01*
X809678D01*
X809764Y93196D01*
X811145Y91129D01*
X813213Y89747D01*
X815651Y89263D01*
X825651D01*
X828090Y89747D01*
X830157Y91129D01*
X831539Y93196D01*
X831624Y93628D01*
X839678D01*
X839764Y93196D01*
X841145Y91129D01*
X843213Y89747D01*
X845651Y89263D01*
X855651D01*
X858090Y89747D01*
X860157Y91129D01*
X861539Y93196D01*
X861624Y93628D01*
X869678D01*
X869764Y93196D01*
X871145Y91129D01*
X873213Y89747D01*
X875651Y89263D01*
X885651D01*
X888090Y89747D01*
X890157Y91129D01*
X891539Y93196D01*
X891624Y93628D01*
X899678D01*
X899764Y93196D01*
X901145Y91129D01*
X903213Y89747D01*
X905651Y89263D01*
X915651D01*
X918090Y89747D01*
X920157Y91129D01*
X921539Y93196D01*
X921624Y93628D01*
X929678D01*
X929764Y93196D01*
X931145Y91129D01*
X933213Y89747D01*
X935651Y89263D01*
X945651D01*
X948090Y89747D01*
X950157Y91129D01*
X951539Y93196D01*
X951624Y93628D01*
X959678D01*
X959764Y93196D01*
X961145Y91129D01*
X963213Y89747D01*
X965651Y89263D01*
X975651D01*
X978090Y89747D01*
X980157Y91129D01*
X981539Y93196D01*
X981624Y93628D01*
X989678D01*
X989764Y93196D01*
X991145Y91129D01*
X993213Y89747D01*
X995651Y89263D01*
X1005651D01*
X1008090Y89747D01*
X1010157Y91129D01*
X1011539Y93196D01*
X1011624Y93628D01*
X1019678D01*
X1019764Y93196D01*
X1021145Y91129D01*
X1023213Y89747D01*
X1025651Y89263D01*
X1035651D01*
X1038090Y89747D01*
X1040157Y91129D01*
X1041539Y93196D01*
X1041624Y93628D01*
X1049678D01*
X1049764Y93196D01*
X1051145Y91129D01*
X1053213Y89747D01*
X1055651Y89263D01*
X1065651D01*
X1068090Y89747D01*
X1070157Y91129D01*
X1071539Y93196D01*
X1071624Y93628D01*
X1079678D01*
X1079764Y93196D01*
X1081145Y91129D01*
X1083213Y89747D01*
X1085651Y89263D01*
X1095651D01*
X1098090Y89747D01*
X1100157Y91129D01*
X1101539Y93196D01*
X1101624Y93628D01*
X1109678D01*
X1109764Y93196D01*
X1111145Y91129D01*
X1113213Y89747D01*
X1115651Y89263D01*
X1125651D01*
X1128090Y89747D01*
X1130157Y91129D01*
X1131539Y93196D01*
X1131624Y93628D01*
X1139678D01*
X1139764Y93196D01*
X1141145Y91129D01*
X1143213Y89747D01*
X1145651Y89263D01*
X1155651D01*
X1158090Y89747D01*
X1160157Y91129D01*
X1161539Y93196D01*
X1161624Y93628D01*
X1169678D01*
X1169764Y93196D01*
X1171145Y91129D01*
X1173213Y89747D01*
X1175651Y89263D01*
X1185651D01*
X1188090Y89747D01*
X1190157Y91129D01*
X1191539Y93196D01*
X1191624Y93628D01*
X1199678D01*
X1199764Y93196D01*
X1201145Y91129D01*
X1203213Y89747D01*
X1205651Y89263D01*
X1215651D01*
X1218090Y89747D01*
X1220157Y91129D01*
X1221539Y93196D01*
X1221624Y93628D01*
X1229678D01*
X1229764Y93196D01*
X1231145Y91129D01*
X1233213Y89747D01*
X1235651Y89263D01*
X1245651D01*
X1248090Y89747D01*
X1250157Y91129D01*
X1251539Y93196D01*
X1251624Y93628D01*
X1259678D01*
X1259764Y93196D01*
X1261145Y91129D01*
X1263213Y89747D01*
X1265651Y89263D01*
X1275651D01*
X1278090Y89747D01*
X1280157Y91129D01*
X1281539Y93196D01*
X1281624Y93628D01*
X1289678D01*
X1289764Y93196D01*
X1291145Y91129D01*
X1293213Y89748D01*
X1295651Y89263D01*
X1305651D01*
X1308090Y89748D01*
X1310157Y91129D01*
X1311539Y93196D01*
X1311624Y93628D01*
X1319678D01*
X1319764Y93196D01*
X1321145Y91129D01*
X1323213Y89748D01*
X1325651Y89263D01*
X1335651D01*
X1338090Y89748D01*
X1340157Y91129D01*
X1341539Y93196D01*
X1341624Y93628D01*
X1349678D01*
X1349764Y93196D01*
X1351145Y91129D01*
X1353213Y89748D01*
X1355651Y89263D01*
X1365651D01*
X1368090Y89748D01*
X1370157Y91129D01*
X1371539Y93196D01*
X1371624Y93628D01*
X1379678D01*
X1379764Y93196D01*
X1381145Y91129D01*
X1383213Y89748D01*
X1385651Y89263D01*
X1395651D01*
X1398090Y89748D01*
X1400157Y91129D01*
X1401539Y93196D01*
X1401624Y93628D01*
X1409678D01*
X1409764Y93196D01*
X1411145Y91129D01*
X1413213Y89748D01*
X1415651Y89263D01*
X1425651D01*
X1428090Y89748D01*
X1430157Y91129D01*
X1431539Y93196D01*
X1431624Y93628D01*
X1439678D01*
X1439764Y93196D01*
X1441145Y91129D01*
X1443213Y89748D01*
X1445651Y89263D01*
X1455651D01*
X1458090Y89748D01*
X1460157Y91129D01*
X1461539Y93196D01*
X1461624Y93628D01*
X1468900D01*
X1469113Y92561D01*
X1470494Y90494D01*
X1472561Y89113D01*
X1475000Y88628D01*
X1485000D01*
X1487439Y89113D01*
X1489506Y90494D01*
X1490887Y92561D01*
X1491373Y95000D01*
Y105000D01*
X1490887Y107439D01*
X1489506Y109506D01*
X1487439Y110887D01*
X1485000Y111372D01*
X1475000D01*
X1472561Y110887D01*
X1470494Y109506D01*
X1469113Y107439D01*
X1468900Y106372D01*
X1461877D01*
X1461539Y108074D01*
X1460157Y110141D01*
X1458090Y111522D01*
X1455651Y112007D01*
X1445651D01*
X1443213Y111522D01*
X1441145Y110141D01*
X1439764Y108074D01*
X1439425Y106372D01*
X1431877D01*
X1431539Y108074D01*
X1430157Y110141D01*
X1428090Y111522D01*
X1425651Y112007D01*
X1415651D01*
X1413213Y111522D01*
X1411145Y110141D01*
X1409764Y108074D01*
X1409425Y106372D01*
X1401877D01*
X1401539Y108074D01*
X1400157Y110141D01*
X1398090Y111522D01*
X1395651Y112007D01*
X1385651D01*
X1383213Y111522D01*
X1381145Y110141D01*
X1379764Y108074D01*
X1379425Y106372D01*
X1371877D01*
X1371539Y108074D01*
X1370157Y110141D01*
X1368090Y111522D01*
X1365651Y112007D01*
X1355651D01*
X1353213Y111522D01*
X1351145Y110141D01*
X1349764Y108074D01*
X1349425Y106372D01*
X1341877D01*
X1341539Y108074D01*
X1340157Y110141D01*
X1338090Y111522D01*
X1335651Y112007D01*
X1325651D01*
X1323213Y111522D01*
X1321145Y110141D01*
X1319764Y108074D01*
X1319425Y106372D01*
X1311877D01*
X1311539Y108074D01*
X1310157Y110141D01*
X1308090Y111522D01*
X1305651Y112007D01*
X1295651D01*
X1293213Y111522D01*
X1291145Y110141D01*
X1289764Y108074D01*
X1289425Y106372D01*
X1281877D01*
X1281539Y108074D01*
X1280157Y110141D01*
X1278090Y111522D01*
X1275651Y112007D01*
X1265651D01*
X1263213Y111522D01*
X1261145Y110141D01*
X1259764Y108074D01*
X1259425Y106372D01*
X1251877D01*
X1251539Y108074D01*
X1250157Y110141D01*
X1248090Y111522D01*
X1245651Y112007D01*
X1235651D01*
X1233213Y111522D01*
X1231145Y110141D01*
X1229764Y108074D01*
X1229425Y106372D01*
X1221877D01*
X1221539Y108074D01*
X1220157Y110141D01*
X1218090Y111522D01*
X1215651Y112007D01*
X1205651D01*
X1203213Y111522D01*
X1201145Y110141D01*
X1199764Y108074D01*
X1199425Y106372D01*
X1191877D01*
X1191539Y108074D01*
X1190157Y110141D01*
X1188090Y111522D01*
X1185651Y112007D01*
X1175651D01*
X1173213Y111522D01*
X1171145Y110141D01*
X1169764Y108074D01*
X1169425Y106372D01*
X1161877D01*
X1161539Y108074D01*
X1160157Y110141D01*
X1158090Y111522D01*
X1155651Y112007D01*
X1145651D01*
X1143213Y111522D01*
X1141145Y110141D01*
X1139764Y108074D01*
X1139425Y106372D01*
X1131877D01*
X1131539Y108074D01*
X1130157Y110141D01*
X1128090Y111522D01*
X1125651Y112007D01*
X1115651D01*
X1113213Y111522D01*
X1111145Y110141D01*
X1109764Y108074D01*
X1109425Y106372D01*
X1101877D01*
X1101539Y108074D01*
X1100157Y110141D01*
X1098090Y111522D01*
X1095651Y112007D01*
X1085651D01*
X1083213Y111522D01*
X1081145Y110141D01*
X1079764Y108074D01*
X1079425Y106372D01*
X1071877D01*
X1071539Y108074D01*
X1070157Y110141D01*
X1068090Y111522D01*
X1065651Y112007D01*
X1055651D01*
X1053213Y111522D01*
X1051145Y110141D01*
X1049764Y108074D01*
X1049425Y106372D01*
X1041877D01*
X1041539Y108074D01*
X1040157Y110141D01*
X1038090Y111522D01*
X1035651Y112007D01*
X1025651D01*
X1023213Y111522D01*
X1021145Y110141D01*
X1019764Y108074D01*
X1019425Y106372D01*
X1011877D01*
X1011539Y108074D01*
X1010157Y110141D01*
X1008090Y111522D01*
X1005651Y112007D01*
X995651D01*
X993213Y111522D01*
X991145Y110141D01*
X989764Y108074D01*
X989425Y106372D01*
X981877D01*
X981539Y108074D01*
X980157Y110141D01*
X978090Y111522D01*
X975651Y112007D01*
X965651D01*
X963213Y111522D01*
X961145Y110141D01*
X959764Y108074D01*
X959425Y106372D01*
X951877D01*
X951539Y108074D01*
X950157Y110141D01*
X948090Y111522D01*
X945651Y112007D01*
X935651D01*
X933213Y111522D01*
X931145Y110141D01*
X929764Y108074D01*
X929425Y106372D01*
X921877D01*
X921539Y108074D01*
X920157Y110141D01*
X918090Y111522D01*
X915651Y112007D01*
X905651D01*
X903213Y111522D01*
X901145Y110141D01*
X899764Y108074D01*
X899425Y106372D01*
X891877D01*
X891539Y108074D01*
X890157Y110141D01*
X888090Y111522D01*
X885651Y112007D01*
X875651D01*
X873213Y111522D01*
X871145Y110141D01*
X869764Y108074D01*
X869425Y106372D01*
X861877D01*
X861539Y108074D01*
X860157Y110141D01*
X858090Y111522D01*
X855651Y112007D01*
X845651D01*
X843213Y111522D01*
X841145Y110141D01*
X839764Y108074D01*
X839425Y106372D01*
X831877D01*
X831539Y108074D01*
X830157Y110141D01*
X828090Y111522D01*
X825651Y112007D01*
X815651D01*
X813213Y111522D01*
X811145Y110141D01*
X809764Y108074D01*
X809425Y106372D01*
X801877D01*
X801539Y108074D01*
X800157Y110141D01*
X798090Y111522D01*
X795651Y112007D01*
X785651D01*
X783213Y111522D01*
X781145Y110141D01*
X779764Y108074D01*
X779425Y106372D01*
X771877D01*
X771539Y108074D01*
X770157Y110141D01*
X768090Y111522D01*
X765651Y112007D01*
X755651D01*
X753213Y111522D01*
X751145Y110141D01*
X749764Y108074D01*
X749425Y106372D01*
X741877D01*
X741539Y108074D01*
X740157Y110141D01*
X738090Y111522D01*
X735651Y112007D01*
X725651D01*
X723213Y111522D01*
X721145Y110141D01*
X719764Y108074D01*
X719425Y106372D01*
X711877D01*
X711539Y108074D01*
X710157Y110141D01*
X708090Y111522D01*
X705651Y112007D01*
X695651D01*
X693213Y111522D01*
X691145Y110141D01*
X689764Y108074D01*
X689425Y106372D01*
X681877D01*
X681539Y108074D01*
X680157Y110141D01*
X678090Y111522D01*
X675651Y112007D01*
X665651D01*
X663213Y111522D01*
X661145Y110141D01*
X659764Y108074D01*
X659425Y106372D01*
X651877D01*
X651539Y108074D01*
X650157Y110141D01*
X648090Y111522D01*
X645651Y112007D01*
X635651D01*
X633213Y111522D01*
X631145Y110141D01*
X629764Y108074D01*
X629425Y106372D01*
X621877D01*
X621539Y108074D01*
X620157Y110141D01*
X618090Y111522D01*
X615651Y112007D01*
X605651D01*
X603213Y111522D01*
X601145Y110141D01*
X599764Y108074D01*
X599425Y106372D01*
X591877D01*
X591539Y108074D01*
X590157Y110141D01*
X588090Y111522D01*
X585651Y112007D01*
X575651D01*
X573213Y111522D01*
X571145Y110141D01*
X569764Y108074D01*
X569425Y106372D01*
X561877D01*
X561539Y108074D01*
X560157Y110141D01*
X558090Y111522D01*
X555651Y112007D01*
X545651D01*
X543213Y111522D01*
X541145Y110141D01*
X539764Y108074D01*
X539425Y106372D01*
X531877D01*
X531539Y108074D01*
X530157Y110141D01*
X528090Y111522D01*
X525651Y112007D01*
X515651D01*
X513213Y111522D01*
X511145Y110141D01*
X509764Y108074D01*
X509425Y106372D01*
X501877D01*
X501539Y108074D01*
X500157Y110141D01*
X498090Y111522D01*
X495651Y112007D01*
X485651D01*
X483213Y111522D01*
X481145Y110141D01*
X479764Y108074D01*
X479425Y106372D01*
X471877D01*
X471539Y108074D01*
X470157Y110141D01*
X468090Y111522D01*
X465651Y112007D01*
X455651D01*
X453213Y111522D01*
X451145Y110141D01*
X449764Y108074D01*
X449425Y106372D01*
X441877D01*
X441539Y108074D01*
X440157Y110141D01*
X438090Y111522D01*
X435651Y112007D01*
X425651D01*
X423213Y111522D01*
X421145Y110141D01*
X419764Y108074D01*
X419425Y106372D01*
X411877D01*
X411539Y108074D01*
X410157Y110141D01*
X408090Y111522D01*
X405651Y112007D01*
X395651D01*
X393213Y111522D01*
X391145Y110141D01*
X389764Y108074D01*
X389425Y106372D01*
X381099D01*
X380887Y107439D01*
X379506Y109506D01*
X377439Y110887D01*
X375000Y111372D01*
X365000D01*
X362561Y110887D01*
X360494Y109506D01*
X359113Y107439D01*
X358900Y106372D01*
X351100D01*
X350887Y107439D01*
X349506Y109506D01*
X347439Y110887D01*
X345000Y111372D01*
X335000D01*
X332561Y110887D01*
X330494Y109506D01*
X329113Y107439D01*
X328900Y106372D01*
X321099D01*
X320887Y107439D01*
X319506Y109506D01*
X317439Y110887D01*
X315000Y111372D01*
X305000D01*
X302561Y110887D01*
X300494Y109506D01*
X299113Y107439D01*
X298901Y106372D01*
X291099D01*
X290887Y107439D01*
X289506Y109506D01*
X287439Y110887D01*
X285000Y111372D01*
X275000D01*
X272561Y110887D01*
X270494Y109506D01*
X269113Y107439D01*
X268901Y106372D01*
X261099D01*
X260887Y107439D01*
X259506Y109506D01*
X257439Y110887D01*
X255000Y111372D01*
X245000D01*
X242561Y110887D01*
X240494Y109506D01*
X239113Y107439D01*
X238901Y106372D01*
X231099D01*
X230887Y107439D01*
X229506Y109506D01*
X227439Y110887D01*
X225000Y111372D01*
X215000D01*
X212561Y110887D01*
X210494Y109506D01*
X209113Y107439D01*
X208901Y106372D01*
X201099D01*
X200887Y107439D01*
X199506Y109506D01*
X197439Y110887D01*
X195000Y111372D01*
X185000D01*
X182561Y110887D01*
X180494Y109506D01*
X179113Y107439D01*
X178901Y106372D01*
X171099D01*
X170887Y107439D01*
X169506Y109506D01*
X167439Y110887D01*
X165000Y111372D01*
X155000D01*
X152561Y110887D01*
X150494Y109506D01*
X149113Y107439D01*
X148900Y106372D01*
X141099D01*
X140887Y107439D01*
X139506Y109506D01*
X137439Y110887D01*
X135000Y111372D01*
X125000D01*
X122561Y110887D01*
X120494Y109506D01*
X119113Y107439D01*
X118900Y106372D01*
X111099D01*
X110887Y107439D01*
X109506Y109506D01*
X107439Y110887D01*
X105000Y111372D01*
X97640D01*
X91372Y117640D01*
Y154142D01*
X90887Y156581D01*
X89506Y158648D01*
X83648Y164506D01*
X81581Y165887D01*
X79142Y166373D01*
X42353D01*
Y180000D01*
X41957Y180957D01*
X41000Y181353D01*
X29660D01*
X29532Y181300D01*
X29396Y181327D01*
X29306Y181309D01*
X22040D01*
Y186790D01*
X20750D01*
Y193210D01*
X22040D01*
Y196230D01*
X12000D01*
Y198770D01*
X22040D01*
Y199147D01*
X41496D01*
X42452Y199543D01*
X42849Y200500D01*
Y213878D01*
X79088D01*
X81527Y214363D01*
X83594Y215744D01*
X89452Y221602D01*
X90834Y223669D01*
X91319Y226108D01*
Y1382307D01*
X97640Y1388627D01*
X105000D01*
X107439Y1389113D01*
X109506Y1390494D01*
X110887Y1392561D01*
X111099Y1393627D01*
X118900D01*
X119113Y1392561D01*
X120494Y1390494D01*
X122561Y1389113D01*
X125000Y1388627D01*
X135000D01*
X137439Y1389113D01*
X139506Y1390494D01*
X140887Y1392561D01*
X141099Y1393627D01*
X148900D01*
X149113Y1392561D01*
X150494Y1390494D01*
X152561Y1389113D01*
X155000Y1388627D01*
X165000D01*
X167439Y1389113D01*
X169506Y1390494D01*
X170887Y1392561D01*
X171099Y1393627D01*
X178901D01*
X179113Y1392561D01*
X180494Y1390494D01*
X182561Y1389113D01*
X185000Y1388627D01*
X195000D01*
X197439Y1389113D01*
X199506Y1390494D01*
X200887Y1392561D01*
X201099Y1393627D01*
X208901D01*
X209113Y1392561D01*
X210494Y1390494D01*
X212561Y1389113D01*
X215000Y1388627D01*
X225000D01*
X227439Y1389113D01*
X229506Y1390494D01*
X230887Y1392561D01*
X231099Y1393627D01*
X238901D01*
X239113Y1392561D01*
X240494Y1390494D01*
X242561Y1389113D01*
X245000Y1388627D01*
X255000D01*
X257439Y1389113D01*
X259506Y1390494D01*
X260887Y1392561D01*
X261099Y1393627D01*
X268901D01*
X269113Y1392561D01*
X270494Y1390494D01*
X272561Y1389113D01*
X275000Y1388627D01*
X285000D01*
X287439Y1389113D01*
X289506Y1390494D01*
X290887Y1392561D01*
X291099Y1393627D01*
X298901D01*
X299113Y1392561D01*
X300494Y1390494D01*
X302561Y1389113D01*
X305000Y1388627D01*
X315000D01*
X317439Y1389113D01*
X319506Y1390494D01*
X320887Y1392561D01*
X321099Y1393627D01*
X328900D01*
X329113Y1392561D01*
X330494Y1390494D01*
X332561Y1389113D01*
X335000Y1388627D01*
X345000D01*
X347439Y1389113D01*
X349506Y1390494D01*
X350887Y1392561D01*
X351100Y1393627D01*
X358900D01*
X359113Y1392561D01*
X360494Y1390494D01*
X362561Y1389113D01*
X365000Y1388627D01*
X375000D01*
X377439Y1389113D01*
X379506Y1390494D01*
X380887Y1392561D01*
X381099Y1393627D01*
X389678D01*
X389764Y1393196D01*
X391145Y1391129D01*
X393213Y1389747D01*
X395651Y1389263D01*
X405651D01*
X408090Y1389747D01*
X410157Y1391129D01*
X411539Y1393196D01*
X411624Y1393627D01*
X419678D01*
X419764Y1393196D01*
X421145Y1391129D01*
X423213Y1389747D01*
X425651Y1389263D01*
X435651D01*
X438090Y1389747D01*
X440157Y1391129D01*
X441539Y1393196D01*
X441624Y1393627D01*
X449678D01*
X449764Y1393196D01*
X451145Y1391129D01*
X453213Y1389747D01*
X455651Y1389263D01*
X465651D01*
X468090Y1389747D01*
X470157Y1391129D01*
X471539Y1393196D01*
X471624Y1393627D01*
X479678D01*
X479764Y1393196D01*
X481145Y1391129D01*
X483213Y1389747D01*
X485651Y1389263D01*
X495651D01*
X498090Y1389747D01*
X500157Y1391129D01*
X501539Y1393196D01*
X501624Y1393627D01*
X509678D01*
X509764Y1393196D01*
X511145Y1391129D01*
X513213Y1389747D01*
X515651Y1389263D01*
X525651D01*
X528090Y1389747D01*
X530157Y1391129D01*
X531539Y1393196D01*
X531624Y1393627D01*
X539678D01*
X539764Y1393196D01*
X541145Y1391129D01*
X543213Y1389747D01*
X545651Y1389263D01*
X555651D01*
X558090Y1389747D01*
X560157Y1391129D01*
X561539Y1393196D01*
X561624Y1393627D01*
X569678D01*
X569764Y1393196D01*
X571145Y1391129D01*
X573213Y1389747D01*
X575651Y1389263D01*
X585651D01*
X588090Y1389747D01*
X590157Y1391129D01*
X591539Y1393196D01*
X591624Y1393627D01*
X599678D01*
X599764Y1393196D01*
X601145Y1391129D01*
X603213Y1389747D01*
X605651Y1389263D01*
X615651D01*
X618090Y1389747D01*
X620157Y1391129D01*
X621539Y1393196D01*
X621624Y1393627D01*
X629678D01*
X629764Y1393196D01*
X631145Y1391129D01*
X633213Y1389747D01*
X635651Y1389263D01*
X645651D01*
X648090Y1389747D01*
X650157Y1391129D01*
X651539Y1393196D01*
X651624Y1393627D01*
X659678D01*
X659764Y1393196D01*
X661145Y1391129D01*
X663213Y1389747D01*
X665651Y1389263D01*
X675651D01*
X678090Y1389747D01*
X680157Y1391129D01*
X681539Y1393196D01*
X681624Y1393627D01*
X689678D01*
X689764Y1393196D01*
X691145Y1391129D01*
X693213Y1389747D01*
X695651Y1389263D01*
X705651D01*
X708090Y1389747D01*
X710157Y1391129D01*
X711539Y1393196D01*
X711624Y1393627D01*
X719678D01*
X719764Y1393196D01*
X721145Y1391129D01*
X723213Y1389747D01*
X725651Y1389263D01*
X735651D01*
X738090Y1389747D01*
X740157Y1391129D01*
X741539Y1393196D01*
X741624Y1393627D01*
X749678D01*
X749764Y1393196D01*
X751145Y1391129D01*
X753213Y1389747D01*
X755651Y1389263D01*
X765651D01*
X768090Y1389747D01*
X770157Y1391129D01*
X771539Y1393196D01*
X771624Y1393627D01*
X779678D01*
X779764Y1393196D01*
X781145Y1391129D01*
X783213Y1389747D01*
X785651Y1389263D01*
X795651D01*
X798090Y1389747D01*
X800157Y1391129D01*
X801539Y1393196D01*
X801624Y1393627D01*
X809678D01*
X809764Y1393196D01*
X811145Y1391129D01*
X813213Y1389747D01*
X815651Y1389263D01*
X825651D01*
X828090Y1389747D01*
X830157Y1391129D01*
X831539Y1393196D01*
X831624Y1393627D01*
X839678D01*
X839764Y1393196D01*
X841145Y1391129D01*
X843213Y1389747D01*
X845651Y1389263D01*
X855651D01*
X858090Y1389747D01*
X860157Y1391129D01*
X861539Y1393196D01*
X861624Y1393627D01*
X869678D01*
X869764Y1393196D01*
X871145Y1391129D01*
X873213Y1389747D01*
X875651Y1389263D01*
X885651D01*
X888090Y1389747D01*
X890157Y1391129D01*
X891539Y1393196D01*
X891624Y1393627D01*
X899678D01*
X899764Y1393196D01*
X901145Y1391129D01*
X903213Y1389747D01*
X905651Y1389263D01*
X915651D01*
X918090Y1389747D01*
X920157Y1391129D01*
X921539Y1393196D01*
X921624Y1393627D01*
X929678D01*
X929764Y1393196D01*
X931145Y1391129D01*
X933213Y1389747D01*
X935651Y1389263D01*
X945651D01*
X948090Y1389747D01*
X950157Y1391129D01*
X951539Y1393196D01*
X951624Y1393627D01*
X959678D01*
X959764Y1393196D01*
X961145Y1391129D01*
X963213Y1389747D01*
X965651Y1389263D01*
X975651D01*
X978090Y1389747D01*
X980157Y1391129D01*
X981539Y1393196D01*
X981624Y1393627D01*
X989678D01*
X989764Y1393196D01*
X991145Y1391129D01*
X993213Y1389747D01*
X995651Y1389263D01*
X1005651D01*
X1008090Y1389747D01*
X1010157Y1391129D01*
X1011539Y1393196D01*
X1011624Y1393627D01*
X1019678D01*
X1019764Y1393196D01*
X1021145Y1391129D01*
X1023213Y1389747D01*
X1025651Y1389263D01*
X1035651D01*
X1038090Y1389747D01*
X1040157Y1391129D01*
X1041539Y1393196D01*
X1041624Y1393627D01*
X1049678D01*
X1049764Y1393196D01*
X1051145Y1391129D01*
X1053213Y1389747D01*
X1055651Y1389263D01*
X1065651D01*
X1068090Y1389747D01*
X1070157Y1391129D01*
X1071539Y1393196D01*
X1071624Y1393627D01*
X1079678D01*
X1079764Y1393196D01*
X1081145Y1391129D01*
X1083213Y1389747D01*
X1085651Y1389263D01*
X1095651D01*
X1098090Y1389747D01*
X1100157Y1391129D01*
X1101539Y1393196D01*
X1101624Y1393627D01*
X1109678D01*
X1109764Y1393196D01*
X1111145Y1391129D01*
X1113213Y1389747D01*
X1115651Y1389263D01*
X1125651D01*
X1128090Y1389747D01*
X1130157Y1391129D01*
X1131539Y1393196D01*
X1131624Y1393627D01*
X1139678D01*
X1139764Y1393196D01*
X1141145Y1391129D01*
X1143213Y1389747D01*
X1145651Y1389263D01*
X1155651D01*
X1158090Y1389747D01*
X1160157Y1391129D01*
X1161539Y1393196D01*
X1161624Y1393627D01*
X1169678D01*
X1169764Y1393196D01*
X1171145Y1391129D01*
X1173213Y1389747D01*
X1175651Y1389263D01*
X1185651D01*
X1188090Y1389747D01*
X1190157Y1391129D01*
X1191539Y1393196D01*
X1191624Y1393627D01*
X1199678D01*
X1199764Y1393196D01*
X1201145Y1391129D01*
X1203213Y1389747D01*
X1205651Y1389263D01*
X1215651D01*
X1218090Y1389747D01*
X1220157Y1391129D01*
X1221539Y1393196D01*
X1221624Y1393627D01*
X1229678D01*
X1229764Y1393196D01*
X1231145Y1391129D01*
X1233213Y1389747D01*
X1235651Y1389263D01*
X1245651D01*
X1248090Y1389747D01*
X1250157Y1391129D01*
X1251539Y1393196D01*
X1251624Y1393627D01*
X1259678D01*
X1259764Y1393196D01*
X1261145Y1391129D01*
X1263213Y1389747D01*
X1265651Y1389263D01*
X1275651D01*
X1278090Y1389747D01*
X1280157Y1391129D01*
X1281539Y1393196D01*
X1281624Y1393627D01*
X1289678D01*
X1289764Y1393196D01*
X1291145Y1391129D01*
X1293213Y1389748D01*
X1295651Y1389263D01*
X1305651D01*
X1308090Y1389748D01*
X1310157Y1391129D01*
X1311539Y1393196D01*
X1311624Y1393627D01*
X1319678D01*
X1319764Y1393196D01*
X1321145Y1391129D01*
X1323213Y1389748D01*
X1325651Y1389263D01*
X1335651D01*
X1338090Y1389748D01*
X1340157Y1391129D01*
X1341539Y1393196D01*
X1341624Y1393627D01*
X1349678D01*
X1349764Y1393196D01*
X1351145Y1391129D01*
X1353213Y1389748D01*
X1355651Y1389263D01*
X1365651D01*
X1368090Y1389748D01*
X1370157Y1391129D01*
X1371539Y1393196D01*
X1371624Y1393627D01*
X1379678D01*
X1379764Y1393196D01*
X1381145Y1391129D01*
X1383213Y1389748D01*
X1385651Y1389263D01*
X1395651D01*
X1398090Y1389748D01*
X1400157Y1391129D01*
X1401539Y1393196D01*
X1401624Y1393627D01*
X1409678D01*
X1409764Y1393196D01*
X1411145Y1391129D01*
X1413213Y1389748D01*
X1415651Y1389263D01*
X1425651D01*
X1428090Y1389748D01*
X1430157Y1391129D01*
X1431539Y1393196D01*
X1431624Y1393627D01*
X1439678D01*
X1439764Y1393196D01*
X1441145Y1391129D01*
X1443213Y1389748D01*
X1445651Y1389263D01*
X1455651D01*
X1458090Y1389748D01*
X1460157Y1391129D01*
X1461539Y1393196D01*
X1461624Y1393627D01*
X1468900D01*
X1469113Y1392561D01*
X1470494Y1390494D01*
X1472561Y1389113D01*
X1475000Y1388627D01*
X1485000D01*
X1487439Y1389113D01*
X1489506Y1390494D01*
X1490887Y1392561D01*
X1491373Y1395000D01*
Y1405000D01*
X1490887Y1407439D01*
X1489506Y1409506D01*
X1487439Y1410887D01*
X1485000Y1411373D01*
X1475000D01*
X1472561Y1410887D01*
X1470494Y1409506D01*
X1469113Y1407439D01*
X1468900Y1406372D01*
X1461877D01*
X1461539Y1408074D01*
X1460157Y1410141D01*
X1458090Y1411522D01*
X1455651Y1412007D01*
X1445651D01*
X1443213Y1411522D01*
X1441145Y1410141D01*
X1439764Y1408074D01*
X1439425Y1406372D01*
X1431877D01*
X1431539Y1408074D01*
X1430157Y1410141D01*
X1428090Y1411522D01*
X1425651Y1412007D01*
X1415651D01*
X1413213Y1411522D01*
X1411145Y1410141D01*
X1409764Y1408074D01*
X1409425Y1406372D01*
X1401877D01*
X1401539Y1408074D01*
X1400157Y1410141D01*
X1398090Y1411522D01*
X1395651Y1412007D01*
X1385651D01*
X1383213Y1411522D01*
X1381145Y1410141D01*
X1379764Y1408074D01*
X1379425Y1406372D01*
X1371877D01*
X1371539Y1408074D01*
X1370157Y1410141D01*
X1368090Y1411522D01*
X1365651Y1412007D01*
X1355651D01*
X1353213Y1411522D01*
X1351145Y1410141D01*
X1349764Y1408074D01*
X1349425Y1406372D01*
X1341877D01*
X1341539Y1408074D01*
X1340157Y1410141D01*
X1338090Y1411522D01*
X1335651Y1412007D01*
X1325651D01*
X1323213Y1411522D01*
X1321145Y1410141D01*
X1319764Y1408074D01*
X1319425Y1406372D01*
X1311877D01*
X1311539Y1408074D01*
X1310157Y1410141D01*
X1308090Y1411522D01*
X1305651Y1412007D01*
X1295651D01*
X1293213Y1411522D01*
X1291145Y1410141D01*
X1289764Y1408074D01*
X1289425Y1406372D01*
X1281877D01*
X1281539Y1408074D01*
X1280157Y1410141D01*
X1278090Y1411522D01*
X1275651Y1412007D01*
X1265651D01*
X1263213Y1411522D01*
X1261145Y1410141D01*
X1259764Y1408074D01*
X1259425Y1406372D01*
X1251877D01*
X1251539Y1408074D01*
X1250157Y1410141D01*
X1248090Y1411522D01*
X1245651Y1412007D01*
X1235651D01*
X1233213Y1411522D01*
X1231145Y1410141D01*
X1229764Y1408074D01*
X1229425Y1406372D01*
X1221877D01*
X1221539Y1408074D01*
X1220157Y1410141D01*
X1218090Y1411522D01*
X1215651Y1412007D01*
X1205651D01*
X1203213Y1411522D01*
X1201145Y1410141D01*
X1199764Y1408074D01*
X1199425Y1406372D01*
X1191877D01*
X1191539Y1408074D01*
X1190157Y1410141D01*
X1188090Y1411522D01*
X1185651Y1412007D01*
X1175651D01*
X1173213Y1411522D01*
X1171145Y1410141D01*
X1169764Y1408074D01*
X1169425Y1406372D01*
X1161877D01*
X1161539Y1408074D01*
X1160157Y1410141D01*
X1158090Y1411522D01*
X1155651Y1412007D01*
X1145651D01*
X1143213Y1411522D01*
X1141145Y1410141D01*
X1139764Y1408074D01*
X1139425Y1406372D01*
X1131877D01*
X1131539Y1408074D01*
X1130157Y1410141D01*
X1128090Y1411522D01*
X1125651Y1412007D01*
X1115651D01*
X1113213Y1411522D01*
X1111145Y1410141D01*
X1109764Y1408074D01*
X1109425Y1406372D01*
X1101877D01*
X1101539Y1408074D01*
X1100157Y1410141D01*
X1098090Y1411522D01*
X1095651Y1412007D01*
X1085651D01*
X1083213Y1411522D01*
X1081145Y1410141D01*
X1079764Y1408074D01*
X1079425Y1406372D01*
X1071877D01*
X1071539Y1408074D01*
X1070157Y1410141D01*
X1068090Y1411522D01*
X1065651Y1412007D01*
X1055651D01*
X1053213Y1411522D01*
X1051145Y1410141D01*
X1049764Y1408074D01*
X1049425Y1406372D01*
X1041877D01*
X1041539Y1408074D01*
X1040157Y1410141D01*
X1038090Y1411522D01*
X1035651Y1412007D01*
X1025651D01*
X1023213Y1411522D01*
X1021145Y1410141D01*
X1019764Y1408074D01*
X1019425Y1406372D01*
X1011877D01*
X1011539Y1408074D01*
X1010157Y1410141D01*
X1008090Y1411522D01*
X1005651Y1412007D01*
X995651D01*
X993213Y1411522D01*
X991145Y1410141D01*
X989764Y1408074D01*
X989425Y1406372D01*
X981877D01*
X981539Y1408074D01*
X980157Y1410141D01*
X978090Y1411522D01*
X975651Y1412007D01*
X965651D01*
X963213Y1411522D01*
X961145Y1410141D01*
X959764Y1408074D01*
X959425Y1406372D01*
X951877D01*
X951539Y1408074D01*
X950157Y1410141D01*
X948090Y1411522D01*
X945651Y1412007D01*
X935651D01*
X933213Y1411522D01*
X931145Y1410141D01*
X929764Y1408074D01*
X929425Y1406372D01*
X921877D01*
X921539Y1408074D01*
X920157Y1410141D01*
X918090Y1411522D01*
X915651Y1412007D01*
X905651D01*
X903213Y1411522D01*
X901145Y1410141D01*
X899764Y1408074D01*
X899425Y1406372D01*
X891877D01*
X891539Y1408074D01*
X890157Y1410141D01*
X888090Y1411522D01*
X885651Y1412007D01*
X875651D01*
X873213Y1411522D01*
X871145Y1410141D01*
X869764Y1408074D01*
X869425Y1406372D01*
X861877D01*
X861539Y1408074D01*
X860157Y1410141D01*
X858090Y1411522D01*
X855651Y1412007D01*
X845651D01*
X843213Y1411522D01*
X841145Y1410141D01*
X839764Y1408074D01*
X839425Y1406372D01*
X831877D01*
X831539Y1408074D01*
X830157Y1410141D01*
X828090Y1411522D01*
X825651Y1412007D01*
X815651D01*
X813213Y1411522D01*
X811145Y1410141D01*
X809764Y1408074D01*
X809425Y1406372D01*
X801877D01*
X801539Y1408074D01*
X800157Y1410141D01*
X798090Y1411522D01*
X795651Y1412007D01*
X785651D01*
X783213Y1411522D01*
X781145Y1410141D01*
X779764Y1408074D01*
X779425Y1406372D01*
X771877D01*
X771539Y1408074D01*
X770157Y1410141D01*
X768090Y1411522D01*
X765651Y1412007D01*
X755651D01*
X753213Y1411522D01*
X751145Y1410141D01*
X749764Y1408074D01*
X749425Y1406372D01*
X741877D01*
X741539Y1408074D01*
X740157Y1410141D01*
X738090Y1411522D01*
X735651Y1412007D01*
X725651D01*
X723213Y1411522D01*
X721145Y1410141D01*
X719764Y1408074D01*
X719425Y1406372D01*
X711877D01*
X711539Y1408074D01*
X710157Y1410141D01*
X708090Y1411522D01*
X705651Y1412007D01*
X695651D01*
X693213Y1411522D01*
X691145Y1410141D01*
X689764Y1408074D01*
X689425Y1406372D01*
X681877D01*
X681539Y1408074D01*
X680157Y1410141D01*
X678090Y1411522D01*
X675651Y1412007D01*
X665651D01*
X663213Y1411522D01*
X661145Y1410141D01*
X659764Y1408074D01*
X659425Y1406372D01*
X651877D01*
X651539Y1408074D01*
X650157Y1410141D01*
X648090Y1411522D01*
X645651Y1412007D01*
X635651D01*
X633213Y1411522D01*
X631145Y1410141D01*
X629764Y1408074D01*
X629425Y1406372D01*
X621877D01*
X621539Y1408074D01*
X620157Y1410141D01*
X618090Y1411522D01*
X615651Y1412007D01*
X605651D01*
X603213Y1411522D01*
X601145Y1410141D01*
X599764Y1408074D01*
X599425Y1406372D01*
X591877D01*
X591539Y1408074D01*
X590157Y1410141D01*
X588090Y1411522D01*
X585651Y1412007D01*
X575651D01*
X573213Y1411522D01*
X571145Y1410141D01*
X569764Y1408074D01*
X569425Y1406372D01*
X561877D01*
X561539Y1408074D01*
X560157Y1410141D01*
X558090Y1411522D01*
X555651Y1412007D01*
X545651D01*
X543213Y1411522D01*
X541145Y1410141D01*
X539764Y1408074D01*
X539425Y1406372D01*
X531877D01*
X531539Y1408074D01*
X530157Y1410141D01*
X528090Y1411522D01*
X525651Y1412007D01*
X515651D01*
X513213Y1411522D01*
X511145Y1410141D01*
X509764Y1408074D01*
X509425Y1406372D01*
X501877D01*
X501539Y1408074D01*
X500157Y1410141D01*
X498090Y1411522D01*
X495651Y1412007D01*
X485651D01*
X483213Y1411522D01*
X481145Y1410141D01*
X479764Y1408074D01*
X479425Y1406372D01*
X471877D01*
X471539Y1408074D01*
X470157Y1410141D01*
X468090Y1411522D01*
X465651Y1412007D01*
X455651D01*
X453213Y1411522D01*
X451145Y1410141D01*
X449764Y1408074D01*
X449425Y1406372D01*
X441877D01*
X441539Y1408074D01*
X440157Y1410141D01*
X438090Y1411522D01*
X435651Y1412007D01*
X425651D01*
X423213Y1411522D01*
X421145Y1410141D01*
X419764Y1408074D01*
X419425Y1406372D01*
X411877D01*
X411539Y1408074D01*
X410157Y1410141D01*
X408090Y1411522D01*
X405651Y1412007D01*
X395651D01*
X393213Y1411522D01*
X391145Y1410141D01*
X389764Y1408074D01*
X389425Y1406372D01*
X381099D01*
X380887Y1407439D01*
X379506Y1409506D01*
X377439Y1410887D01*
X375000Y1411373D01*
X365000D01*
X362561Y1410887D01*
X360494Y1409506D01*
X359113Y1407439D01*
X358900Y1406372D01*
X351100D01*
X350887Y1407439D01*
X349506Y1409506D01*
X347439Y1410887D01*
X345000Y1411373D01*
X335000D01*
X332561Y1410887D01*
X330494Y1409506D01*
X329113Y1407439D01*
X328900Y1406372D01*
X321099D01*
X320887Y1407439D01*
X319506Y1409506D01*
X317439Y1410887D01*
X315000Y1411373D01*
X305000D01*
X302561Y1410887D01*
X300494Y1409506D01*
X299113Y1407439D01*
X298901Y1406372D01*
X291099D01*
X290887Y1407439D01*
X289506Y1409506D01*
X287439Y1410887D01*
X285000Y1411373D01*
X275000D01*
X272561Y1410887D01*
X270494Y1409506D01*
X269113Y1407439D01*
X268901Y1406372D01*
X261099D01*
X260887Y1407439D01*
X259506Y1409506D01*
X257439Y1410887D01*
X255000Y1411373D01*
X245000D01*
X242561Y1410887D01*
X240494Y1409506D01*
X239113Y1407439D01*
X238901Y1406372D01*
X231099D01*
X230887Y1407439D01*
X229506Y1409506D01*
X227439Y1410887D01*
X225000Y1411373D01*
X215000D01*
X212561Y1410887D01*
X210494Y1409506D01*
X209113Y1407439D01*
X208901Y1406372D01*
X201099D01*
X200887Y1407439D01*
X199506Y1409506D01*
X197439Y1410887D01*
X195000Y1411373D01*
X185000D01*
X182561Y1410887D01*
X180494Y1409506D01*
X179113Y1407439D01*
X178901Y1406372D01*
X171099D01*
X170887Y1407439D01*
X169506Y1409506D01*
X167439Y1410887D01*
X165000Y1411373D01*
X155000D01*
X152561Y1410887D01*
X150494Y1409506D01*
X149113Y1407439D01*
X148900Y1406372D01*
X141099D01*
X140887Y1407439D01*
X139506Y1409506D01*
X137439Y1410887D01*
X135000Y1411373D01*
X125000D01*
X122561Y1410887D01*
X120494Y1409506D01*
X119113Y1407439D01*
X118900Y1406372D01*
X111099D01*
X110887Y1407439D01*
X109506Y1409506D01*
X107439Y1410887D01*
X105000Y1411373D01*
X95000D01*
X92561Y1410887D01*
X90494Y1409506D01*
X89113Y1407439D01*
X88628Y1405000D01*
Y1397639D01*
X80440Y1389452D01*
X79059Y1387385D01*
X78574Y1384946D01*
Y228748D01*
X76449Y226623D01*
X42849D01*
Y240000D01*
X42452Y240957D01*
X41496Y241353D01*
X33482D01*
X33233Y241250D01*
X32964D01*
X32774Y241060D01*
X32525Y240957D01*
X32422Y240708D01*
X32232Y240518D01*
X32162Y240348D01*
X31341Y239527D01*
X30269Y239083D01*
X29109D01*
X28036Y239527D01*
X27216Y240348D01*
X27164Y240474D01*
X26973Y240664D01*
X26870Y240913D01*
X26622Y241016D01*
X26431Y241206D01*
X26162D01*
X25914Y241309D01*
X22040D01*
Y246790D01*
X23178Y247109D01*
X35000D01*
X35104Y247130D01*
X35210Y247119D01*
X36185Y247215D01*
X36486Y247307D01*
X36795Y247368D01*
X38597Y248115D01*
X39292Y248579D01*
X40671Y249958D01*
X41135Y250653D01*
X41881Y252455D01*
X41943Y252764D01*
X42034Y253065D01*
X42130Y254040D01*
X42120Y254146D01*
X42140Y254250D01*
X42141Y720000D01*
Y720076D01*
X42099Y720073D01*
Y733634D01*
X42101D01*
X42141Y733642D01*
Y734037D01*
X44481Y734502D01*
X44676Y734583D01*
X44883Y734624D01*
X47418Y735675D01*
X47594Y735792D01*
X47789Y735872D01*
X50071Y737397D01*
X50220Y737546D01*
X50395Y737663D01*
X52336Y739604D01*
X52453Y739780D01*
X52602Y739929D01*
X54127Y742210D01*
X54207Y742405D01*
X54324Y742581D01*
X55375Y745116D01*
X55416Y745323D01*
X55497Y745518D01*
X56032Y748210D01*
Y748368D01*
X56070Y748522D01*
X56138Y749894D01*
X56122Y749999D01*
X56138Y750105D01*
X56070Y751477D01*
X56032Y751631D01*
Y751789D01*
X55497Y754481D01*
X55416Y754676D01*
X55375Y754883D01*
X54324Y757418D01*
X54207Y757594D01*
X54127Y757789D01*
X52602Y760070D01*
X52453Y760220D01*
X52336Y760395D01*
X50395Y762336D01*
X50220Y762453D01*
X50071Y762602D01*
X47789Y764127D01*
X47594Y764207D01*
X47418Y764324D01*
X44883Y765375D01*
X44676Y765416D01*
X44481Y765497D01*
X42140Y765962D01*
Y766358D01*
X42099Y766366D01*
X42099Y766366D01*
Y779926D01*
X42140Y779924D01*
X42141Y1370076D01*
X42099Y1370074D01*
Y1370073D01*
X42099Y1370074D01*
D01*
Y1370074D01*
Y1370074D01*
X42099D01*
Y1383634D01*
X42101D01*
X42141Y1383642D01*
Y1384037D01*
X44481Y1384503D01*
X44676Y1384583D01*
X44883Y1384624D01*
X47418Y1385675D01*
X47594Y1385792D01*
X47789Y1385872D01*
X50071Y1387397D01*
X50220Y1387546D01*
X50395Y1387664D01*
X52336Y1389604D01*
X52453Y1389780D01*
X52602Y1389928D01*
X54127Y1392211D01*
X54207Y1392405D01*
X54324Y1392581D01*
X55375Y1395116D01*
X55416Y1395323D01*
X55497Y1395518D01*
X56032Y1398210D01*
Y1398368D01*
X56070Y1398522D01*
X56138Y1399894D01*
X56122Y1400000D01*
X56138Y1400105D01*
X56070Y1401477D01*
X56032Y1401631D01*
Y1401789D01*
X55497Y1404481D01*
X55416Y1404676D01*
X55375Y1404883D01*
X54324Y1407418D01*
X54207Y1407594D01*
X54127Y1407789D01*
X52602Y1410070D01*
X52453Y1410220D01*
X52336Y1410395D01*
X50395Y1412336D01*
X50220Y1412453D01*
X50071Y1412602D01*
X47789Y1414127D01*
X47594Y1414207D01*
X47418Y1414324D01*
X44883Y1415375D01*
X44676Y1415416D01*
X44481Y1415497D01*
X42141Y1415962D01*
X42141Y1416358D01*
X42099Y1416366D01*
X42099Y1416366D01*
Y1429926D01*
X42141Y1429924D01*
Y1430000D01*
X42141Y1489113D01*
X50887Y1497859D01*
X110076D01*
X110073Y1497901D01*
X110073D01*
X110074Y1497901D01*
X110073Y1497901D01*
Y1497901D01*
X123634D01*
Y1497899D01*
X123642Y1497859D01*
X124037D01*
X124502Y1495519D01*
X124583Y1495324D01*
X124624Y1495117D01*
X125675Y1492582D01*
X125792Y1492406D01*
X125872Y1492211D01*
X127397Y1489930D01*
X127546Y1489780D01*
X127663Y1489605D01*
X129604Y1487664D01*
X129780Y1487547D01*
X129929Y1487398D01*
X132211Y1485873D01*
X132405Y1485793D01*
X132581Y1485676D01*
X135116Y1484625D01*
X135323Y1484584D01*
X135518Y1484503D01*
X138210Y1483968D01*
X138368D01*
X138522Y1483929D01*
X139895Y1483862D01*
X140000Y1483878D01*
X140105Y1483862D01*
X141477Y1483929D01*
X141631Y1483968D01*
X141790D01*
X144481Y1484503D01*
X144676Y1484584D01*
X144883Y1484625D01*
X147418Y1485675D01*
X147594Y1485793D01*
X147789Y1485873D01*
X150070Y1487398D01*
X150220Y1487547D01*
X150395Y1487664D01*
X152336Y1489605D01*
X152453Y1489780D01*
X152602Y1489929D01*
X154127Y1492211D01*
X154207Y1492406D01*
X154325Y1492581D01*
X155375Y1495117D01*
X155416Y1495324D01*
X155497Y1495519D01*
X155962Y1497859D01*
X156358Y1497859D01*
X156366Y1497901D01*
X156366D01*
X169926Y1497900D01*
X169923Y1497859D01*
X170000D01*
X759999Y1497859D01*
X760076D01*
X760073Y1497901D01*
X760073D01*
X760074Y1497901D01*
X760073Y1497901D01*
Y1497901D01*
X773634D01*
Y1497899D01*
X773642Y1497859D01*
X774037D01*
X774502Y1495519D01*
X774583Y1495324D01*
X774624Y1495117D01*
X775675Y1492582D01*
X775792Y1492406D01*
X775872Y1492211D01*
X777397Y1489930D01*
X777546Y1489780D01*
X777663Y1489605D01*
X779604Y1487664D01*
X779780Y1487547D01*
X779929Y1487398D01*
X782210Y1485873D01*
X782405Y1485793D01*
X782581Y1485676D01*
X785116Y1484625D01*
X785323Y1484584D01*
X785518Y1484503D01*
X788210Y1483968D01*
X788368D01*
X788522Y1483929D01*
X789894Y1483862D01*
X789999Y1483878D01*
X790105Y1483862D01*
X791477Y1483929D01*
X791631Y1483968D01*
X791789D01*
X794481Y1484503D01*
X794676Y1484584D01*
X794883Y1484625D01*
X797418Y1485675D01*
X797594Y1485793D01*
X797789Y1485873D01*
X800070Y1487398D01*
X800220Y1487547D01*
X800395Y1487664D01*
X802336Y1489605D01*
X802453Y1489780D01*
X802602Y1489929D01*
X804127Y1492211D01*
X804207Y1492406D01*
X804324Y1492581D01*
X805375Y1495117D01*
X805416Y1495324D01*
X805497Y1495519D01*
X805962Y1497859D01*
X806358D01*
X806366Y1497901D01*
X806366D01*
X819926Y1497900D01*
X819924Y1497859D01*
X1410076Y1497859D01*
X1410074Y1497901D01*
X1410073D01*
X1410074Y1497901D01*
X1410074Y1497901D01*
D02*
G37*
G36*
X42099Y720073D02*
D01*
Y720074D01*
Y720073D01*
D02*
G37*
G36*
X42099Y720073D02*
X42099Y720073D01*
X42099D01*
Y720073D01*
D02*
G37*
G36*
X41496Y200500D02*
X22040D01*
Y201230D01*
X12000D01*
Y203770D01*
X22040D01*
Y206230D01*
X12000D01*
Y208770D01*
X22040D01*
Y209956D01*
X25914D01*
X26069Y209581D01*
X27270Y208380D01*
X28839Y207730D01*
X30538D01*
X32108Y208380D01*
X33309Y209581D01*
X33959Y211151D01*
Y212849D01*
X33309Y214419D01*
X32108Y215620D01*
X30538Y216270D01*
X28839D01*
X27270Y215620D01*
X26194Y214544D01*
X22040D01*
Y216230D01*
X12000D01*
Y218770D01*
X22040D01*
Y221230D01*
X12000D01*
Y223770D01*
X22040D01*
Y224956D01*
X25914D01*
X26069Y224581D01*
X27270Y223380D01*
X28839Y222730D01*
X30538D01*
X32108Y223380D01*
X33309Y224581D01*
X33959Y226151D01*
Y227849D01*
X33309Y229419D01*
X32108Y230620D01*
X30538Y231270D01*
X28839D01*
X27270Y230620D01*
X26194Y229544D01*
X22040D01*
Y231230D01*
X12000D01*
Y233770D01*
X22040D01*
Y236230D01*
X12000D01*
Y238770D01*
X22040D01*
Y239956D01*
X25914D01*
X26069Y239581D01*
X27270Y238380D01*
X28839Y237730D01*
X30538D01*
X32108Y238380D01*
X33309Y239581D01*
X33482Y240000D01*
X41496D01*
Y200500D01*
D02*
G37*
G36*
X41000Y140000D02*
X22040D01*
Y141230D01*
X12000D01*
Y143770D01*
X22040D01*
Y146230D01*
X12000D01*
Y148770D01*
X22040D01*
Y149781D01*
X25841D01*
X26069Y149232D01*
X27270Y148031D01*
X28839Y147381D01*
X30538D01*
X32108Y148031D01*
X33309Y149232D01*
X33959Y150801D01*
Y152500D01*
X33309Y154069D01*
X32108Y155271D01*
X30538Y155921D01*
X28839D01*
X27270Y155271D01*
X26369Y154369D01*
X22040D01*
Y156230D01*
X12000D01*
Y158770D01*
X22040D01*
Y161230D01*
X12000D01*
Y163770D01*
X22040D01*
Y165206D01*
X26017D01*
X26069Y165081D01*
X27270Y163880D01*
X28839Y163230D01*
X30538D01*
X32108Y163880D01*
X33309Y165081D01*
X33959Y166651D01*
Y168349D01*
X33309Y169919D01*
X32108Y171120D01*
X30538Y171770D01*
X28839D01*
X27270Y171120D01*
X26069Y169919D01*
X26017Y169794D01*
X22040D01*
Y171230D01*
X12000D01*
Y173770D01*
X22040D01*
Y176230D01*
X12000D01*
Y178770D01*
X22040D01*
Y179956D01*
X29439D01*
X29660Y180000D01*
X41000D01*
Y140000D01*
D02*
G37*
G36*
X1469926Y2100D02*
Y2100D01*
X1469927D01*
X1469926Y2100D01*
D02*
G37*
G36*
X819926D02*
Y2100D01*
X819927D01*
X819926Y2100D01*
D02*
G37*
G36*
X169926D02*
Y2100D01*
X169927D01*
X169926Y2100D01*
D02*
G37*
%LPC*%
G36*
X105122Y762729D02*
X101253D01*
Y758659D01*
X105122D01*
Y762729D01*
D02*
G37*
G36*
X98713D02*
X94843D01*
Y758659D01*
X98713D01*
Y762729D01*
D02*
G37*
G36*
X114644Y760384D02*
X114159D01*
Y757555D01*
X117686D01*
X117503Y758474D01*
X116833Y759478D01*
X115829Y760148D01*
X114644Y760384D01*
D02*
G37*
G36*
X111620D02*
X111135D01*
X109950Y760148D01*
X108946Y759478D01*
X108276Y758474D01*
X108093Y757555D01*
X111620D01*
Y760384D01*
D02*
G37*
G36*
X1535000Y576500D02*
X1470000D01*
Y316500D01*
X1535000D01*
Y576500D01*
D02*
G37*
G36*
X134144Y759069D02*
X130634D01*
X129954Y758933D01*
X129376Y758548D01*
X128991Y757971D01*
X128855Y757290D01*
Y755280D01*
X128991Y754599D01*
X129309Y753940D01*
X128596Y753078D01*
X128446Y752978D01*
X127776Y751974D01*
X127593Y751055D01*
X132389D01*
Y748515D01*
X127593D01*
X127776Y747595D01*
X128446Y746591D01*
X128596Y746491D01*
X129309Y745629D01*
X128991Y744970D01*
X128855Y744290D01*
Y743766D01*
X109609Y724520D01*
X109112Y723776D01*
X108937Y722898D01*
Y215648D01*
X108859Y215616D01*
X107658Y214415D01*
X107008Y212846D01*
Y211147D01*
X107658Y209578D01*
X108859Y208377D01*
X110429Y207726D01*
X112127D01*
X113697Y208377D01*
X114898Y209578D01*
X115548Y211147D01*
Y212846D01*
X114898Y214415D01*
X113697Y215616D01*
X113525Y215688D01*
Y219509D01*
X114795Y220180D01*
X115883Y219730D01*
X117581D01*
X119151Y220380D01*
X120352Y221581D01*
X121002Y223151D01*
Y224849D01*
X120352Y226419D01*
X119151Y227620D01*
X119026Y227672D01*
Y714379D01*
X138512Y733864D01*
X139009Y734609D01*
X139184Y735487D01*
Y753457D01*
X139009Y754335D01*
X138512Y755080D01*
X136185Y757407D01*
X135857Y757626D01*
X135788Y757971D01*
X135402Y758548D01*
X134825Y758933D01*
X134144Y759069D01*
D02*
G37*
G36*
X105122Y756119D02*
X94843D01*
Y752049D01*
X96132D01*
Y745539D01*
X96159D01*
Y241885D01*
X95730Y240849D01*
Y239151D01*
X96380Y237581D01*
X97581Y236380D01*
X99151Y235730D01*
X100849D01*
X101706Y236085D01*
X102976Y235278D01*
Y229260D01*
X100797Y227081D01*
X100299Y226337D01*
X100125Y225459D01*
Y203672D01*
X100000Y203620D01*
X98799Y202419D01*
X98149Y200849D01*
Y199151D01*
X98799Y197581D01*
X100000Y196380D01*
X101569Y195730D01*
X103268D01*
X104838Y196380D01*
X106039Y197581D01*
X106689Y199151D01*
Y200849D01*
X106039Y202419D01*
X104838Y203620D01*
X104713Y203672D01*
Y224509D01*
X106892Y226688D01*
X107389Y227432D01*
X107564Y228310D01*
Y735860D01*
X112194Y740490D01*
X112389D01*
X112439Y740500D01*
X114644D01*
X115325Y740636D01*
X115903Y741021D01*
X116288Y741599D01*
X116424Y742280D01*
Y744290D01*
X116288Y744970D01*
X115903Y745548D01*
X115432Y745862D01*
X115367Y746535D01*
X115432Y747207D01*
X115903Y747522D01*
X116288Y748099D01*
X116424Y748780D01*
Y750790D01*
X116288Y751470D01*
X115970Y752129D01*
X116683Y752992D01*
X116833Y753092D01*
X117503Y754095D01*
X117686Y755015D01*
X112889D01*
X108093D01*
X108276Y754095D01*
X108840Y753251D01*
X108658Y752578D01*
X108322Y751981D01*
X106364D01*
X105122Y752049D01*
Y756119D01*
D02*
G37*
G36*
X40346Y84270D02*
X38647D01*
X37077Y83620D01*
X35876Y82419D01*
X35226Y80849D01*
Y79151D01*
X35876Y77581D01*
X37077Y76380D01*
X38647Y75730D01*
X40346D01*
X40470Y75782D01*
X41624Y74628D01*
X42368Y74131D01*
X43246Y73956D01*
X53500D01*
Y71136D01*
X42839D01*
X41961Y70962D01*
X41216Y70465D01*
X40470Y69718D01*
X40346Y69770D01*
X38647D01*
X37077Y69120D01*
X35876Y67919D01*
X35226Y66349D01*
Y64651D01*
X35876Y63081D01*
X37077Y61880D01*
X38647Y61230D01*
X40346D01*
X41915Y61880D01*
X43116Y63081D01*
X43766Y64651D01*
Y66349D01*
X44939Y66548D01*
X53500D01*
Y65000D01*
X60500D01*
Y72500D01*
Y80000D01*
X53500D01*
Y78544D01*
X44890D01*
X43766Y79151D01*
Y80849D01*
X43116Y82419D01*
X41915Y83620D01*
X40346Y84270D01*
D02*
G37*
G36*
X76746Y20081D02*
X58750D01*
Y8750D01*
X76746D01*
Y20081D01*
D02*
G37*
%LPD*%
G36*
X1517450Y569075D02*
X1520750Y568350D01*
X1529600Y566425D01*
Y561975D01*
X1518050Y564550D01*
X1517350Y564650D01*
X1516550D01*
X1515950Y564550D01*
X1515550Y564150D01*
X1515350Y563550D01*
Y562950D01*
X1515750Y562150D01*
X1516300Y561350D01*
X1517350Y560350D01*
X1518950Y559350D01*
X1520750Y558350D01*
X1522775Y557500D01*
X1529600Y556000D01*
Y551900D01*
X1503975Y557575D01*
Y561675D01*
X1515350Y559150D01*
X1514000Y560300D01*
X1512950Y561350D01*
X1512150Y562750D01*
X1511750Y564350D01*
Y565950D01*
X1511950Y566750D01*
X1512550Y567750D01*
X1513350Y568550D01*
X1514550Y568950D01*
X1515950Y569150D01*
X1517450Y569075D01*
D02*
G37*
G36*
X1516100Y551100D02*
X1515900Y550400D01*
X1515800Y549900D01*
X1515700Y548800D01*
Y547600D01*
X1515800Y546800D01*
X1516100Y546000D01*
X1516600Y545200D01*
X1517700Y544300D01*
X1518600Y543700D01*
X1519700Y543200D01*
X1521000Y542800D01*
X1522300Y542600D01*
X1523200D01*
X1523900Y542700D01*
X1524600Y542900D01*
X1525200Y543200D01*
X1525600Y543600D01*
X1526000Y544300D01*
X1526200Y545100D01*
Y545800D01*
X1526100Y546800D01*
X1525800Y548100D01*
X1525475Y549025D01*
X1529400Y548600D01*
X1529525Y548125D01*
X1529800Y547000D01*
X1530000Y545200D01*
Y544200D01*
X1529800Y542200D01*
X1529600Y541300D01*
X1529200Y540400D01*
X1528600Y539600D01*
X1527800Y539000D01*
X1526800Y538500D01*
X1525800Y538200D01*
X1524300Y538000D01*
X1522600D01*
X1521300Y538200D01*
X1520000Y538500D01*
X1518600Y539000D01*
X1517400Y539500D01*
X1516200Y540200D01*
X1515200Y541000D01*
X1514400Y541800D01*
X1513400Y543100D01*
X1512600Y544700D01*
X1512150Y546600D01*
X1512000Y548400D01*
Y550000D01*
X1512150Y551000D01*
X1512475Y551900D01*
X1516100Y551100D01*
D02*
G37*
G36*
X1529600Y532300D02*
Y528200D01*
X1512150Y532075D01*
Y536175D01*
X1529600Y532300D01*
D02*
G37*
G36*
X1516175Y528075D02*
X1516000Y527400D01*
Y526900D01*
X1516300Y526200D01*
X1516800Y525500D01*
X1517650Y524650D01*
X1519300Y523400D01*
X1521000Y522500D01*
X1523700Y521400D01*
X1526775Y520450D01*
X1529600Y519825D01*
Y515725D01*
X1512150Y519600D01*
Y523700D01*
X1517000Y522625D01*
X1515400Y523400D01*
X1514200Y524200D01*
X1513500Y524900D01*
X1512800Y525700D01*
X1512400Y526300D01*
X1512000Y527200D01*
X1511900Y527800D01*
Y528400D01*
X1512000Y529000D01*
X1516175Y528075D01*
D02*
G37*
G36*
X1529600Y511100D02*
Y506500D01*
X1526400Y507200D01*
X1527750Y506050D01*
X1528800Y505000D01*
X1529600Y503600D01*
X1530000Y502000D01*
Y500400D01*
X1529800Y499600D01*
X1529200Y498600D01*
X1528400Y497800D01*
X1527200Y497400D01*
X1525800Y497200D01*
X1524300Y497275D01*
X1521000Y498000D01*
X1512150Y499925D01*
Y504375D01*
X1523700Y501800D01*
X1524400Y501700D01*
X1525200D01*
X1525800Y501800D01*
X1526200Y502200D01*
X1526400Y502800D01*
Y503400D01*
X1526000Y504200D01*
X1525450Y505000D01*
X1524400Y506000D01*
X1522800Y507000D01*
X1521000Y508000D01*
X1518975Y508850D01*
X1512150Y510350D01*
Y514975D01*
X1529600Y511100D01*
D02*
G37*
G36*
X1508600Y497075D02*
X1525450Y484150D01*
Y493325D01*
X1529600Y492400D01*
Y477300D01*
X1526925Y477875D01*
X1510150Y490750D01*
Y481600D01*
X1506000Y482525D01*
Y497650D01*
X1508600Y497075D01*
D02*
G37*
G36*
X1530000Y473250D02*
Y454800D01*
X1510825Y459300D01*
Y446500D01*
X1530000Y442000D01*
Y423550D01*
X1493000Y432225D01*
Y415750D01*
X1530000Y407050D01*
Y387500D01*
X1493000Y396225D01*
Y353225D01*
X1498900Y351825D01*
Y378400D01*
X1510900Y375575D01*
Y349025D01*
X1517000Y347600D01*
Y375350D01*
X1530000Y372300D01*
Y344525D01*
Y325000D01*
X1480000Y336750D01*
Y453725D01*
X1498825Y449325D01*
Y462125D01*
X1480000Y466550D01*
Y485000D01*
X1530000Y473250D01*
D02*
G37*
D11*
X116732Y224000D02*
Y715329D01*
X111231Y212043D02*
Y722898D01*
X131118Y742785D01*
X105270Y228310D02*
Y736810D01*
X102419Y200000D02*
Y225459D01*
X105270Y228310D01*
X111231Y212043D02*
X111278Y211996D01*
X116732Y715329D02*
X136889Y735487D01*
X39496Y80000D02*
X43246Y76250D01*
X57000D01*
X42839Y68842D02*
X56908D01*
X39496Y65500D02*
X42839Y68842D01*
X136889Y735487D02*
Y753457D01*
X131118Y742785D02*
X131889D01*
X132389Y743285D01*
X112389Y742785D02*
X112889Y743285D01*
X111244Y742785D02*
X112389D01*
X105270Y736810D02*
X111244Y742785D01*
X134562Y755785D02*
X136889Y753457D01*
X132389Y756285D02*
X132889Y755785D01*
X134562D01*
X99983Y240000D02*
X100000D01*
X122640Y750000D02*
X132389D01*
Y749785D02*
Y750000D01*
X122640D02*
Y756285D01*
X112889D02*
X122640D01*
X99983Y757389D02*
Y773977D01*
X12000Y212500D02*
X12250Y212250D01*
X29439D02*
X29689Y212000D01*
X12250Y212250D02*
X29439D01*
X12250Y197250D02*
X24511D01*
X12000Y197500D02*
X12250Y197250D01*
Y227250D02*
X29439D01*
X29689Y227000D01*
X12000Y227500D02*
X12250Y227250D01*
X29261Y192500D02*
X29689D01*
X99983Y757389D02*
X101087Y756285D01*
X112889D01*
X12000Y137500D02*
X29620D01*
X12000Y152500D02*
X12425Y152075D01*
X29264D02*
X29689Y151651D01*
X12425Y152075D02*
X29264D01*
X29439Y242250D02*
X29689Y242000D01*
X29439Y72250D02*
X29689Y72000D01*
X12250Y182250D02*
X29439D01*
X12250Y57250D02*
X29439D01*
X12250Y72250D02*
X29439D01*
X29689Y167500D02*
X29689Y167500D01*
X29439Y57250D02*
X29689Y57000D01*
X12000Y167500D02*
X29689D01*
X12250Y242250D02*
X29439D01*
X12000Y242500D02*
X12250Y242250D01*
X12000Y72500D02*
X12250Y72250D01*
X12000Y182500D02*
X12250Y182250D01*
X12000Y57500D02*
X12250Y57250D01*
X100080Y749687D02*
X112792D01*
X99983Y749589D02*
X100080Y749687D01*
X112792D02*
X112889Y749785D01*
D12*
X62333Y17331D02*
Y16498D01*
X61500D01*
X63166D01*
X62333D01*
Y13999D01*
X63166Y13166D01*
X66498D02*
X68165D01*
X68998Y13999D01*
Y15665D01*
X68165Y16498D01*
X66498D01*
X65665Y15665D01*
Y13999D01*
X66498Y13166D01*
X70664Y11500D02*
Y16498D01*
X73163D01*
X73996Y15665D01*
Y13999D01*
X73163Y13166D01*
X70664D01*
D13*
X12000Y57500D02*
D03*
Y62500D02*
D03*
Y67500D02*
D03*
Y72500D02*
D03*
Y77500D02*
D03*
Y82500D02*
D03*
Y87500D02*
D03*
Y92500D02*
D03*
Y97500D02*
D03*
Y102500D02*
D03*
Y107500D02*
D03*
Y112500D02*
D03*
Y137500D02*
D03*
Y142500D02*
D03*
Y147500D02*
D03*
Y152500D02*
D03*
Y157500D02*
D03*
Y162500D02*
D03*
Y167500D02*
D03*
Y172500D02*
D03*
Y177500D02*
D03*
Y182500D02*
D03*
Y187500D02*
D03*
Y192500D02*
D03*
Y197500D02*
D03*
Y202500D02*
D03*
Y207500D02*
D03*
Y212500D02*
D03*
Y217500D02*
D03*
Y222500D02*
D03*
Y227500D02*
D03*
Y232500D02*
D03*
Y237500D02*
D03*
Y242500D02*
D03*
D14*
X112889Y743285D02*
D03*
Y749785D02*
D03*
Y756285D02*
D03*
X132389D02*
D03*
Y749785D02*
D03*
Y743285D02*
D03*
D15*
X99983Y757389D02*
D03*
Y749589D02*
D03*
D16*
X57000Y76250D02*
D03*
Y68750D02*
D03*
D17*
X1507135Y534975D02*
G03*
X1507135Y534975I-10J0D01*
G01*
X99983Y240000D02*
Y749589D01*
D18*
X1506860Y504400D02*
G03*
X1506860Y504400I-10J0D01*
G01*
Y511550D02*
G03*
X1506860Y511550I-10J0D01*
G01*
D26*
X1480000Y100000D02*
D03*
X100000D02*
D03*
X130000D02*
D03*
X160000D02*
D03*
X190000D02*
D03*
X220000D02*
D03*
X250000D02*
D03*
X280000D02*
D03*
X310000D02*
D03*
X340000D02*
D03*
X370000D02*
D03*
X400651Y100635D02*
D03*
X430651D02*
D03*
X460651D02*
D03*
X490651D02*
D03*
X520651D02*
D03*
X550651D02*
D03*
X580651D02*
D03*
X610651D02*
D03*
X640651D02*
D03*
X670651D02*
D03*
X700651D02*
D03*
X730651D02*
D03*
X760651D02*
D03*
X790651D02*
D03*
X820651D02*
D03*
X850651D02*
D03*
X880651D02*
D03*
X910651D02*
D03*
X940651D02*
D03*
X970651D02*
D03*
X1000651D02*
D03*
X1030651D02*
D03*
X1060651D02*
D03*
X1090651D02*
D03*
X1120651D02*
D03*
X1150651D02*
D03*
X1180651D02*
D03*
X1210651D02*
D03*
X1240651D02*
D03*
X1270651D02*
D03*
X1300651Y100635D02*
D03*
X1330651D02*
D03*
X1360651D02*
D03*
X1390651D02*
D03*
X1420651D02*
D03*
X1450651D02*
D03*
X1480000Y1400000D02*
D03*
X100000D02*
D03*
X130000D02*
D03*
X160000D02*
D03*
X190000D02*
D03*
X220000D02*
D03*
X250000D02*
D03*
X280000D02*
D03*
X310000D02*
D03*
X340000D02*
D03*
X370000D02*
D03*
X400651Y1400635D02*
D03*
X430651D02*
D03*
X460651D02*
D03*
X490651D02*
D03*
X520651D02*
D03*
X550651D02*
D03*
X580651D02*
D03*
X610651D02*
D03*
X640651D02*
D03*
X670651D02*
D03*
X700651D02*
D03*
X730651D02*
D03*
X760651D02*
D03*
X790651D02*
D03*
X820651D02*
D03*
X850651D02*
D03*
X880651D02*
D03*
X910651D02*
D03*
X940651D02*
D03*
X970651D02*
D03*
X1000651D02*
D03*
X1030651D02*
D03*
X1060651D02*
D03*
X1090651D02*
D03*
X1120651D02*
D03*
X1150651D02*
D03*
X1180651D02*
D03*
X1210651D02*
D03*
X1240651D02*
D03*
X1270651D02*
D03*
X1300651Y1400635D02*
D03*
X1330651D02*
D03*
X1360651D02*
D03*
X1390651D02*
D03*
X1420651D02*
D03*
X1450651D02*
D03*
D27*
X79142Y160000D02*
X85000Y154142D01*
Y115000D02*
Y154142D01*
X41000Y160000D02*
X79142D01*
X85000Y115000D02*
X100000Y100000D01*
X41496Y220250D02*
X79088D01*
X84946Y226108D01*
Y1384946D01*
X100000Y1400000D01*
X1210651Y100000D02*
X1240651D01*
X1180651D02*
X1210651D01*
X1270651D02*
X1300651D01*
X1240651D02*
X1270651D01*
X1120651D02*
X1150651D01*
X1090651D02*
X1120651D01*
X1150651D02*
X1180651D01*
X1420651D02*
X1450651D01*
X1390651D02*
X1420651D01*
X1450651D02*
X1480000D01*
X1330651D02*
X1360651D01*
X1300651D02*
X1330651D01*
X1360651D02*
X1390651D01*
X820651D02*
X850651D01*
X790651D02*
X820651D01*
X880651D02*
X910651D01*
X850651D02*
X880651D01*
X730651D02*
X760651D01*
X700651D02*
X730651D01*
X760651D02*
X790651D01*
X1030651D02*
X1060651D01*
X1000651D02*
X1030651D01*
X1060651D02*
X1090651D01*
X940651D02*
X970651D01*
X910651D02*
X940651D01*
X970651D02*
X1000651D01*
X490651D02*
X520651D01*
X460651D02*
X490651D01*
X520651D02*
X550651D01*
X400651D02*
X430651D01*
X370000D02*
X400651D01*
X430651D02*
X460651D01*
X670651D02*
X700651D01*
X640651D02*
X670651D01*
X580651D02*
X610651D01*
X550651D02*
X580651D01*
X610651D02*
X640651D01*
X1240651Y1400000D02*
X1270651D01*
X1210651D02*
X1240651D01*
X1270651D02*
X1300651D01*
X1150651D02*
X1180651D01*
X1120651D02*
X1150651D01*
X1180651D02*
X1210651D01*
X1420651D02*
X1450651D01*
X1390651D02*
X1420651D01*
X1450651D02*
X1480000D01*
X1330651D02*
X1360651D01*
X1300651D02*
X1330651D01*
X1360651D02*
X1390651D01*
X850651D02*
X880651D01*
X820651D02*
X850651D01*
X910651D02*
X940651D01*
X880651D02*
X910651D01*
X760651D02*
X790651D01*
X730651D02*
X760651D01*
X790651D02*
X820651D01*
X1060651D02*
X1090651D01*
X1030651D02*
X1060651D01*
X1090651D02*
X1120651D01*
X970651D02*
X1000651D01*
X940651D02*
X970651D01*
X1000651D02*
X1030651D01*
X490651D02*
X520651D01*
X460651D02*
X490651D01*
X520651D02*
X550651D01*
X430651D02*
X460651D01*
X670651D02*
X700651D01*
X640651D02*
X670651D01*
X700651D02*
X730651D01*
X580651D02*
X610651D01*
X550651D02*
X580651D01*
X610651D02*
X640651D01*
X370000D02*
X400651D01*
X430651D01*
X340000Y100000D02*
X370000D01*
X310000D02*
X340000D01*
X280000D02*
X310000D01*
X250000D02*
X280000D01*
X220000D02*
X250000D01*
X190000D02*
X220000D01*
X160000D02*
X190000D01*
X130000D02*
X160000D01*
X100000D02*
X130000D01*
X340000Y1400000D02*
X370000D01*
X310000D02*
X340000D01*
X280000D02*
X310000D01*
X250000D02*
X280000D01*
X220000D02*
X250000D01*
X190000D02*
X220000D01*
X160000D02*
X190000D01*
X130000D02*
X160000D01*
X100000D02*
X130000D01*
D28*
X1480000D02*
D03*
Y100000D02*
D03*
X100000D02*
D03*
Y1400000D02*
D03*
D29*
X116732Y224000D02*
D03*
X111278Y211996D02*
D03*
X100000Y240000D02*
D03*
X102419Y200000D02*
D03*
X49500Y231500D02*
D03*
X1491000Y1470000D02*
D03*
X1466000Y1420000D02*
D03*
X1491000Y1370000D02*
D03*
X1466000Y1320000D02*
D03*
X1491000Y1270000D02*
D03*
X1466000Y1220000D02*
D03*
X1491000Y1170000D02*
D03*
X1466000Y1120000D02*
D03*
X1491000Y1070000D02*
D03*
X1466000Y1020000D02*
D03*
X1491000Y970000D02*
D03*
X1466000Y920000D02*
D03*
X1491000Y870000D02*
D03*
X1466000Y820000D02*
D03*
X1491000Y770000D02*
D03*
X1466000Y720000D02*
D03*
X1491000Y670000D02*
D03*
X1466000Y620000D02*
D03*
Y520000D02*
D03*
Y420000D02*
D03*
Y320000D02*
D03*
X1491000Y270000D02*
D03*
X1466000Y220000D02*
D03*
X1491000Y170000D02*
D03*
X1466000Y120000D02*
D03*
X1416000Y1420000D02*
D03*
X1441000Y70000D02*
D03*
X1391000Y1470000D02*
D03*
X1366000Y1420000D02*
D03*
X1391000Y70000D02*
D03*
X1366000Y20000D02*
D03*
X1341000Y1470000D02*
D03*
X1316000Y1420000D02*
D03*
X1341000Y70000D02*
D03*
X1316000Y20000D02*
D03*
X1291000Y1470000D02*
D03*
X1266000Y1420000D02*
D03*
X1291000Y70000D02*
D03*
X1266000Y20000D02*
D03*
X1241000Y1470000D02*
D03*
X1216000Y1420000D02*
D03*
X1241000Y70000D02*
D03*
X1216000Y20000D02*
D03*
X1191000Y1470000D02*
D03*
X1166000Y1420000D02*
D03*
X1191000Y70000D02*
D03*
X1166000Y20000D02*
D03*
X1141000Y1470000D02*
D03*
X1116000Y1420000D02*
D03*
X1141000Y70000D02*
D03*
X1116000Y20000D02*
D03*
X1091000Y1470000D02*
D03*
X1066000Y1420000D02*
D03*
X1091000Y70000D02*
D03*
X1066000Y20000D02*
D03*
X1041000Y1470000D02*
D03*
X1016000Y1420000D02*
D03*
X1041000Y70000D02*
D03*
X1016000Y20000D02*
D03*
X991000Y1470000D02*
D03*
X966000Y1420000D02*
D03*
X991000Y70000D02*
D03*
X966000Y20000D02*
D03*
X941000Y1470000D02*
D03*
X916000Y1420000D02*
D03*
X941000Y70000D02*
D03*
X916000Y20000D02*
D03*
X891000Y1470000D02*
D03*
X866000Y1420000D02*
D03*
X891000Y70000D02*
D03*
X866000Y20000D02*
D03*
X841000Y1470000D02*
D03*
X816000Y1420000D02*
D03*
X841000Y70000D02*
D03*
X766000Y1420000D02*
D03*
X791000Y70000D02*
D03*
X741000Y1470000D02*
D03*
X716000Y1420000D02*
D03*
X741000Y70000D02*
D03*
X716000Y20000D02*
D03*
X691000Y1470000D02*
D03*
X666000Y1420000D02*
D03*
X691000Y70000D02*
D03*
X666000Y20000D02*
D03*
X641000Y1470000D02*
D03*
X616000Y1420000D02*
D03*
X641000Y70000D02*
D03*
X616000Y20000D02*
D03*
X591000Y1470000D02*
D03*
X566000Y1420000D02*
D03*
X591000Y70000D02*
D03*
X566000Y20000D02*
D03*
X541000Y1470000D02*
D03*
X516000Y1420000D02*
D03*
X541000Y70000D02*
D03*
X516000Y20000D02*
D03*
X491000Y1470000D02*
D03*
X466000Y1420000D02*
D03*
X491000Y70000D02*
D03*
X466000Y20000D02*
D03*
X441000Y1470000D02*
D03*
X416000Y1420000D02*
D03*
X441000Y70000D02*
D03*
X416000Y20000D02*
D03*
X391000Y1470000D02*
D03*
X366000Y1420000D02*
D03*
X391000Y70000D02*
D03*
X366000Y20000D02*
D03*
X341000Y1470000D02*
D03*
X316000Y1420000D02*
D03*
X341000Y70000D02*
D03*
X316000Y20000D02*
D03*
X291000Y1470000D02*
D03*
X266000Y1420000D02*
D03*
X291000Y70000D02*
D03*
X266000Y20000D02*
D03*
X241000Y1470000D02*
D03*
X216000Y1420000D02*
D03*
X241000Y70000D02*
D03*
X216000Y20000D02*
D03*
X191000Y1470000D02*
D03*
X166000Y1420000D02*
D03*
X191000Y70000D02*
D03*
X116000Y1420000D02*
D03*
Y1320000D02*
D03*
Y1220000D02*
D03*
Y1120000D02*
D03*
Y1020000D02*
D03*
Y920000D02*
D03*
Y820000D02*
D03*
Y120000D02*
D03*
X141000Y70000D02*
D03*
X91000Y1470000D02*
D03*
X66000Y1320000D02*
D03*
Y1220000D02*
D03*
Y1120000D02*
D03*
Y1020000D02*
D03*
Y920000D02*
D03*
Y820000D02*
D03*
Y720000D02*
D03*
Y620000D02*
D03*
Y520000D02*
D03*
Y420000D02*
D03*
Y320000D02*
D03*
X91000Y170000D02*
D03*
X66000Y120000D02*
D03*
X39496Y80000D02*
D03*
X99983Y773977D02*
D03*
X29689Y212000D02*
D03*
Y242000D02*
D03*
Y227000D02*
D03*
X39496Y65500D02*
D03*
X29689Y151651D02*
D03*
Y167500D02*
D03*
Y57000D02*
D03*
Y72000D02*
D03*
M02*
